<svg xmlns="http://www.w3.org/2000/svg" width="495.47" height="67.348" viewBox="0 0 495.47 67.348">
  <g id="グループ_756" data-name="グループ 756" transform="translate(-435.265 -10415.656)">
    <g id="グループ_711" data-name="グループ 711">
      <path id="パス_543" data-name="パス 543" d="M464.846,10478.264v-53.807H435.265l14.677,29.264L435.265,10483h55.356v-4.74Z" fill="#e61400"/>
      <rect id="長方形_425" data-name="長方形 425" width="428.965" height="59.345" transform="translate(468.518 10415.656)" fill="#e61400"/>
      <path id="パス_544" data-name="パス 544" d="M930.735,10424.457H901.154v53.807H875.379v4.74h55.357l-14.677-29.283Z" fill="#e61400"/>
    </g>
    <path id="パス_656" data-name="パス 656" d="M-155.79-2.49a8.693,8.693,0,0,1-4.56-4.17c.45-1.41.63-2.1.78-2.7.27-1.23.27-1.26.42-1.77l-3.33-.63a18.6,18.6,0,0,1-.6,3.24,17.763,17.763,0,0,1-5.16,8.49,8.165,8.165,0,0,1,2.58,2.46,21.252,21.252,0,0,0,4.11-5.88c2.46,3.63,6.39,5.16,13.41,5.16,2.37,0,3.93-.03,6.39-.09a11.668,11.668,0,0,1,.84-3.42c-3.06.27-5.1.36-6.84.36a35.07,35.07,0,0,1-4.89-.3V-6.9h5.67a20.252,20.252,0,0,1,2.94.15V-9.96a15.388,15.388,0,0,1-2.94.18h-5.67v-3.84h3.93a21.507,21.507,0,0,1,3.09.15v-3.18a21,21,0,0,1-3.09.15H-160.2a20.106,20.106,0,0,1-3.03-.15v3.18a21.356,21.356,0,0,1,3.03-.15h4.41Zm-.51-19.65h-7.83c-1.2,0-2.22-.03-3.3-.12.06.69.12,1.44.12,2.22v2.31a13.257,13.257,0,0,1-.15,2.37h3.33v-3.75h19.38v3.75h3.24a19.368,19.368,0,0,1-.12-2.34v-2.34a16.5,16.5,0,0,1,.12-2.22c-1.11.09-2.13.12-3.33.12h-8.1v-1.14a9.11,9.11,0,0,1,.15-1.89h-3.69a9.709,9.709,0,0,1,.18,1.92Zm42.54,15.18v5.61c0,.54-.21.66-1.14.66a13.853,13.853,0,0,1-2.64-.3,12.88,12.88,0,0,1,.78,3.3c1.47.09,1.53.09,1.89.09a7.987,7.987,0,0,0,2.97-.42c.84-.36,1.26-1.29,1.26-2.76V-20.67a28.435,28.435,0,0,1,.12-3.3,28.908,28.908,0,0,1-3.24.12h-4.35a32.6,32.6,0,0,1-3.33-.12,30.732,30.732,0,0,1,.15,3.9c0,7.71-.18,12.15-.6,14.73A10.166,10.166,0,0,1-124.47.24a19.448,19.448,0,0,1,2.55,2.43c2.1-2.7,2.85-4.89,3.3-9.63Zm0-7.08v4.23h-4.65c.09-1.35.12-2.46.15-4.23Zm0-2.88h-4.47v-3.96h4.47Zm-20.79-4.92a9.726,9.726,0,0,1-2.28-.15v3.03a12.883,12.883,0,0,1,2.28-.12V-7.5h-.39a13.418,13.418,0,0,1-2.22-.12v3.03a13.748,13.748,0,0,1,2.31-.12h9.84a24.424,24.424,0,0,1,2.52.09v-3a11.684,11.684,0,0,1-1.8.12V-19.08a10.83,10.83,0,0,1,2.04.12v-3.03a13.508,13.508,0,0,1-2.04.15v-.51a14.863,14.863,0,0,1,.15-2.55h-3.27a14.238,14.238,0,0,1,.15,2.55v.51h-4.32v-.51a15.3,15.3,0,0,1,.15-2.55h-3.27a15.3,15.3,0,0,1,.15,2.55Zm2.97,14.34V-9.78h4.32V-7.5Zm0-4.92v-2.04h4.32v2.04Zm0-4.68v-1.98h4.32v1.98Zm-1.2,12.66A13.774,13.774,0,0,1-137.16.21a11.222,11.222,0,0,1,2.31,2.37,19.073,19.073,0,0,0,4.62-5.46Zm3.87,1.62A16.99,16.99,0,0,0-126,1.05a11.291,11.291,0,0,1,2.25-2.22,11.339,11.339,0,0,1-2.79-3.21Zm23.49-19.92a21.093,21.093,0,0,1,4.41,4.02l2.19-2.4a19.584,19.584,0,0,0-4.41-3.84Zm-.78,7.53a20.407,20.407,0,0,1,4.71,3.96l2.01-2.61a24.064,24.064,0,0,0-4.71-3.66Zm4.17,6.12c-1.29,4.53-2.43,7.14-3.93,9.06l2.82,2.34c.33-.72.39-.84.66-1.44a42.977,42.977,0,0,0,3.06-8.13ZM-90.9-4.92c.69,0,1.38.03,2.1.09-.06-.72-.09-1.44-.09-2.64V-21.63a23.241,23.241,0,0,1,.12-2.76c-.63.06-1.41.09-2.34.12h-4.92a16.1,16.1,0,0,1-2.37-.12c.06,1.02.09,1.62.09,2.58V-7.59c0,1.38-.03,1.98-.09,2.76a19.793,19.793,0,0,1,2.07-.09Zm-4.62-16.62h3.78v2.79h-3.78Zm0,5.37h3.78v2.85h-3.78Zm0,5.43h3.78v3.12h-3.78Zm2.19,7.62a25.5,25.5,0,0,0,3.99,5.37A11.98,11.98,0,0,1-87,.09a14.993,14.993,0,0,1-3.93-4.65Zm9.45-1.8A18.892,18.892,0,0,1-84-7.5V-20.55a15,15,0,0,1,.15-2.61h-3.3A15.078,15.078,0,0,1-87-20.61V-7.47a15.3,15.3,0,0,1-.15,2.55Zm-12.69.33A10.631,10.631,0,0,1-100.44.24a15.821,15.821,0,0,1,2.25,2.25,17.863,17.863,0,0,0,4.08-5.61ZM-79.05-21.3a20.132,20.132,0,0,1,.18-3.45h-3.36a29.639,29.639,0,0,1,.18,3.45V-1.8c0,.69-.18.81-1.2.81a18.235,18.235,0,0,1-3.06-.24,12.092,12.092,0,0,1,.75,3.18c.6.03,1.92.06,2.55.06,3.15,0,3.96-.66,3.96-3.15ZM-62.19-2.49a8.693,8.693,0,0,1-4.56-4.17c.45-1.41.63-2.1.78-2.7.27-1.23.27-1.26.42-1.77l-3.33-.63a18.6,18.6,0,0,1-.6,3.24A17.763,17.763,0,0,1-74.64-.03a8.165,8.165,0,0,1,2.58,2.46,21.252,21.252,0,0,0,4.11-5.88c2.46,3.63,6.39,5.16,13.41,5.16,2.37,0,3.93-.03,6.39-.09a11.669,11.669,0,0,1,.84-3.42c-3.06.27-5.1.36-6.84.36a35.07,35.07,0,0,1-4.89-.3V-6.9h5.67a20.252,20.252,0,0,1,2.94.15V-9.96a15.388,15.388,0,0,1-2.94.18h-5.67v-3.84h3.93a21.507,21.507,0,0,1,3.09.15v-3.18a21,21,0,0,1-3.09.15H-66.6a20.106,20.106,0,0,1-3.03-.15v3.18a21.356,21.356,0,0,1,3.03-.15h4.41Zm-.51-19.65h-7.83c-1.2,0-2.22-.03-3.3-.12.06.69.12,1.44.12,2.22v2.31a13.259,13.259,0,0,1-.15,2.37h3.33v-3.75h19.38v3.75h3.24a19.37,19.37,0,0,1-.12-2.34v-2.34a16.506,16.506,0,0,1,.12-2.22c-1.11.09-2.13.12-3.33.12h-8.1v-1.14a9.109,9.109,0,0,1,.15-1.89h-3.69a9.709,9.709,0,0,1,.18,1.92ZM-23.13-1.47V.36h4.02a19.789,19.789,0,0,1-.15-3.09V-19.2a18.2,18.2,0,0,1,.09-2.49c-1.05.06-1.05.06-2.61.06H-36.21a20.165,20.165,0,0,1-3.87-.21v3.9a29.358,29.358,0,0,1,3.84-.15H-23.1V-5.01H-36.75a19.287,19.287,0,0,1-3.75-.21v3.87a33.535,33.535,0,0,1,3.69-.12Zm11.76-7.95a32.934,32.934,0,0,1,4.89-.15H9.45a32.934,32.934,0,0,1,4.89.15v-4.17a29.461,29.461,0,0,1-4.86.21H-6.51a29.461,29.461,0,0,1-4.86-.21ZM42.69-2.13c-3.63-3.51-3.63-3.51-4.38-4.17a46.5,46.5,0,0,0-5.55-4.35,39.731,39.731,0,0,0,4.68-8.28,5.77,5.77,0,0,1,.96-1.62l-1.98-2.04a6.5,6.5,0,0,1-2.67.33l-10.56.15h-.72a13.129,13.129,0,0,1-2.64-.18l.12,3.84a23.642,23.642,0,0,1,3.27-.24c9.45-.15,9.45-.15,9.93-.18l-.33.78A28.917,28.917,0,0,1,22.74-5.88a24.768,24.768,0,0,1-6,3.3A12.035,12.035,0,0,1,19.17.75,35.651,35.651,0,0,0,30.6-7.92,57.67,57.67,0,0,1,39.81.99Zm21.57-8.58a19.939,19.939,0,0,0,2.97,7.35A19.4,19.4,0,0,0,73.5,2.46,11.37,11.37,0,0,1,75.39-.6a15.559,15.559,0,0,1-5.52-4.26c1.29-.9,3.12-2.31,4.05-3.12a5.506,5.506,0,0,1,.84-.63l-2.43-2.07a5.7,5.7,0,0,1,.84.06,29.875,29.875,0,0,1-.12-3.27v-6.99c0-1.92.03-2.61.09-3.33a16.277,16.277,0,0,1-2.79.15H61.77a15.364,15.364,0,0,1-2.88-.15c.09,1.14.12,1.86.12,3.21V-1.44a26.91,26.91,0,0,1-3.54.51l.6,3.39a14.032,14.032,0,0,1,1.53-.42c4.44-.99,6.45-1.47,9.57-2.4l-.09-3.03A35.477,35.477,0,0,1,62.1-2.1v-8.61Zm6.48,0c.42,0,1.08,0,1.47.03a20.68,20.68,0,0,1-3.9,3.36,15.347,15.347,0,0,1-1.17-3.39ZM62.1-21.18h7.89v2.43H62.1Zm0,5.07h7.89v2.67H62.1ZM48.36-1.02a26.876,26.876,0,0,1-.18,3.45h3.48c-.09-1.08-.15-2.19-.15-3.45v-20.4h3.48a35.55,35.55,0,0,1-2.79,6.75,11.36,11.36,0,0,1,2.1,3.06,8.176,8.176,0,0,1,.66,3.09c0,.99-.39,1.32-1.56,1.32a10.273,10.273,0,0,1-1.32-.12,7.444,7.444,0,0,1,.63,3.15c2.16,0,3-.12,3.81-.54q1.62-.765,1.62-3.42a10.241,10.241,0,0,0-.48-2.97,12.287,12.287,0,0,0-2.13-3.84,48.441,48.441,0,0,0,2.31-5.13,19.471,19.471,0,0,1,.93-2.28l-1.71-2.1a10.063,10.063,0,0,1-2.19.15H50.46a18.858,18.858,0,0,1-2.19-.09c.06,1.32.09,1.83.09,2.76ZM90.81-2.49a8.693,8.693,0,0,1-4.56-4.17c.45-1.41.63-2.1.78-2.7.27-1.23.27-1.26.42-1.77l-3.33-.63a18.6,18.6,0,0,1-.6,3.24A17.763,17.763,0,0,1,78.36-.03a8.165,8.165,0,0,1,2.58,2.46,21.252,21.252,0,0,0,4.11-5.88C87.51.18,91.44,1.71,98.46,1.71c2.37,0,3.93-.03,6.39-.09a11.669,11.669,0,0,1,.84-3.42c-3.06.27-5.1.36-6.84.36a35.07,35.07,0,0,1-4.89-.3V-6.9h5.67a20.252,20.252,0,0,1,2.94.15V-9.96a15.388,15.388,0,0,1-2.94.18H93.96v-3.84h3.93a21.507,21.507,0,0,1,3.09.15v-3.18a21,21,0,0,1-3.09.15H86.4a20.106,20.106,0,0,1-3.03-.15v3.18a21.356,21.356,0,0,1,3.03-.15h4.41ZM90.3-22.14H82.47c-1.2,0-2.22-.03-3.3-.12.06.69.12,1.44.12,2.22v2.31a13.258,13.258,0,0,1-.15,2.37h3.33v-3.75h19.38v3.75h3.24a19.369,19.369,0,0,1-.12-2.34v-2.34a16.505,16.505,0,0,1,.12-2.22c-1.11.09-2.13.12-3.33.12h-8.1v-1.14a9.109,9.109,0,0,1,.15-1.89H90.12a9.709,9.709,0,0,1,.18,1.92Zm24.18,5.91v6.18a26.579,26.579,0,0,1-5.04,1.35l.75,3.42c.33-.15.69-.3,2.28-.87.63-.21,1.29-.45,2.01-.72V-.9a24.928,24.928,0,0,1-.21,3.48h3.54a29.813,29.813,0,0,1-.18-3.48V-8.04c.78-.33,1.32-.57,2.16-.96v1.38a17.147,17.147,0,0,1,2.94-.18h7.86v6.06c0,.75-.18.9-1.14.9a25.789,25.789,0,0,1-3.51-.33,8.9,8.9,0,0,1,.78,3.3c.93.06,2.04.09,2.55.09,3.48,0,4.44-.6,4.44-2.85V-7.8h.27a21.153,21.153,0,0,1,2.94.18v-3.3a18.1,18.1,0,0,1-2.94.15h-.27v-2.52h.18a25.493,25.493,0,0,1,3.15.18v-3.24a30.764,30.764,0,0,1-3.39.15H129.6v-2.91h3.24a30.332,30.332,0,0,1,3.15.15v-3.27a22.586,22.586,0,0,1-3.15.18H129.6v-.96a12.3,12.3,0,0,1,.15-2.22h-3.48a13.153,13.153,0,0,1,.18,2.25v.93h-2.52a21.366,21.366,0,0,1-3.09-.18v3.27a29.96,29.96,0,0,1,3.09-.15h2.52v2.91h-3.42c-1.08,0-1.83-.03-2.76-.09v-3.15a12.6,12.6,0,0,1-2.4.18h-.24V-22.8a14.991,14.991,0,0,1,.18-2.46h-3.54a12.955,12.955,0,0,1,.21,2.46v3.54H113.1l.09-1.23.06-.45a7.287,7.287,0,0,1,.18-1.53l-2.94-.36c.03.36.06.57.06.75a27.191,27.191,0,0,1-1.53,8.91,8.308,8.308,0,0,1,2.61,1.35,27.824,27.824,0,0,0,1.08-4.41Zm3.15,0h.48c.48,0,.87,0,1.53.03v3.09a20.182,20.182,0,0,1,3.39-.18h7.56v2.52h-7.47c-1.32,0-2.19-.03-2.88-.09l-.03-1.32c-1.02.45-1.41.6-2.58,1.05ZM121.08-6a22.592,22.592,0,0,1,3.81,4.92l2.61-1.98a24.534,24.534,0,0,0-3.93-4.59ZM150-21.57h-3.96c-1.29,0-2.04-.03-2.91-.09a20.231,20.231,0,0,1,.12,2.52V-8.13a16.265,16.265,0,0,1-2.37-.18v3.42a27.257,27.257,0,0,1,3.51-.18h20.67a28.1,28.1,0,0,1,3.54.18V-8.31a16.372,16.372,0,0,1-2.4.18V-19.11a18.676,18.676,0,0,1,.12-2.55c-.63.06-1.5.09-2.94.09h-3.9v-.78a11.408,11.408,0,0,1,.21-2.73H156.3a12.051,12.051,0,0,1,.18,2.76v.75H153v-.75a12.867,12.867,0,0,1,.18-2.76h-3.36a12.225,12.225,0,0,1,.18,2.73Zm0,13.44h-3.51v-3.99H150Zm3,0v-3.99h3.48v3.99Zm6.48,0v-3.99h3.48v3.99ZM150-15h-3.51v-3.6H150Zm3,0v-3.6h3.48V-15Zm6.48,0v-3.6h3.48V-15ZM149.61-4.92a18.268,18.268,0,0,1-4.23,2.79,19.829,19.829,0,0,1-4.89,1.62,9.381,9.381,0,0,1,2.22,3.06A23.525,23.525,0,0,0,147.63.42a23.8,23.8,0,0,0,4.59-3.33Zm6.96,2.07a26.7,26.7,0,0,0,4.65,3.3,23.077,23.077,0,0,0,5.43,2.25A11.966,11.966,0,0,1,168.6-.48a21.551,21.551,0,0,1-5.46-1.83A19.841,19.841,0,0,1,159-4.92Z" transform="translate(683 10456.729)" fill="#fff"/>
  </g>
</svg>
