<svg id="グループ_187" data-name="グループ 187" xmlns="http://www.w3.org/2000/svg" width="139.285" height="3.672" viewBox="0 0 139.285 3.672">
  <circle id="楕円形_39" data-name="楕円形 39" cx="1.836" cy="1.836" r="1.836" transform="translate(0 0)" fill="#ff8e66"/>
  <circle id="楕円形_40" data-name="楕円形 40" cx="1.836" cy="1.836" r="1.836" transform="translate(8.476 0)" fill="#ff8e66"/>
  <circle id="楕円形_41" data-name="楕円形 41" cx="1.836" cy="1.836" r="1.836" transform="translate(16.952 0)" fill="#ff8e66"/>
  <circle id="楕円形_42" data-name="楕円形 42" cx="1.836" cy="1.836" r="1.836" transform="translate(25.427 0)" fill="#ff8e66"/>
  <circle id="楕円形_43" data-name="楕円形 43" cx="1.836" cy="1.836" r="1.836" transform="translate(33.903 0)" fill="#ff8e66"/>
  <circle id="楕円形_44" data-name="楕円形 44" cx="1.836" cy="1.836" r="1.836" transform="translate(42.379 0)" fill="#ff8e66"/>
  <circle id="楕円形_45" data-name="楕円形 45" cx="1.836" cy="1.836" r="1.836" transform="translate(50.855 0)" fill="#ff8e66"/>
  <circle id="楕円形_46" data-name="楕円形 46" cx="1.836" cy="1.836" r="1.836" transform="translate(59.331 0)" fill="#ff8e66"/>
  <circle id="楕円形_47" data-name="楕円形 47" cx="1.836" cy="1.836" r="1.836" transform="translate(67.807 0)" fill="#ff8e66"/>
  <circle id="楕円形_48" data-name="楕円形 48" cx="1.836" cy="1.836" r="1.836" transform="translate(76.283 0)" fill="#ff8e66"/>
  <circle id="楕円形_49" data-name="楕円形 49" cx="1.836" cy="1.836" r="1.836" transform="translate(84.758 0)" fill="#ff8e66"/>
  <circle id="楕円形_50" data-name="楕円形 50" cx="1.836" cy="1.836" r="1.836" transform="translate(93.234)" fill="#ff8e66"/>
  <circle id="楕円形_51" data-name="楕円形 51" cx="1.836" cy="1.836" r="1.836" transform="translate(101.71 0)" fill="#ff8e66"/>
  <circle id="楕円形_52" data-name="楕円形 52" cx="1.836" cy="1.836" r="1.836" transform="translate(110.186 0)" fill="#ff8e66"/>
  <circle id="楕円形_53" data-name="楕円形 53" cx="1.836" cy="1.836" r="1.836" transform="translate(118.662 0)" fill="#ff8e66"/>
  <circle id="楕円形_54" data-name="楕円形 54" cx="1.836" cy="1.836" r="1.836" transform="translate(127.137 0)" fill="#ff8e66"/>
  <circle id="楕円形_55" data-name="楕円形 55" cx="1.836" cy="1.836" r="1.836" transform="translate(135.613)" fill="#ff8e66"/>
</svg>
