<svg xmlns="http://www.w3.org/2000/svg" width="219.205" height="219.058" viewBox="0 0 219.205 219.058">
  <g id="グループ_751" data-name="グループ 751" transform="translate(-449.932 -6974.522)">
    <path id="パス_462" data-name="パス 462" d="M662.071,7193.58H457a7.037,7.037,0,0,1-7.066-6.919V6981.442a7.038,7.038,0,0,1,7.066-6.92H662.071a7.039,7.039,0,0,1,7.066,6.92v205.219A7.038,7.038,0,0,1,662.071,7193.58Z" fill="#fff"/>
    <path id="パス_463" data-name="パス 463" d="M575.36,7152.8l-16.488,6.772a3.138,3.138,0,0,1-3.386-.736l-42.693-50.642a3.912,3.912,0,0,1-.883-2.356,35.584,35.584,0,0,0,0-3.974l13.4-3.681c2.945-1.178,6.625-.589,8.245,1.472l40.484,47.551,2.5-.294v4.269C576.685,7151.771,576.243,7152.36,575.36,7152.8Z" fill="#fff"/>
    <path id="パス_464" data-name="パス 464" d="M557.723,7160.145a3.277,3.277,0,0,1-2.52-1.072l-42.7-50.647a4.31,4.31,0,0,1-.964-2.586v-.06l.019-.057a32.634,32.634,0,0,0-.019-3.842l-.012-.292,13.659-3.753a9.017,9.017,0,0,1,3.3-.619,6.771,6.771,0,0,1,5.351,2.208l40.352,47.4,2.719-.319v4.641c.159.748-.342,1.47-1.382,1.989l-.025.011-16.5,6.777A3.625,3.625,0,0,1,557.723,7160.145Zm-44.646-52.183,42.69,50.638a2.538,2.538,0,0,0,1.956.809,2.936,2.936,0,0,0,1.014-.178l16.47-6.765c.708-.356,1.071-.8.974-1.194l-.011-.044v-3.9l-2.288.269-40.621-47.712a6.038,6.038,0,0,0-4.777-1.932,8.266,8.266,0,0,0-3.042.574l-.019.008-.02.005-13.114,3.6a29.775,29.775,0,0,1-.011,3.737A3.573,3.573,0,0,0,513.077,7107.961Z" fill="#3e3a39"/>
    <path id="パス_465" data-name="パス 465" d="M554.6,7161.34l-16.488,6.772a3.409,3.409,0,0,1-3.386-.589l-42.693-50.789a3.616,3.616,0,0,1-.883-2.356,35.609,35.609,0,0,0,0-3.975l13.4-3.68c2.944-1.178,6.625-.589,8.244,1.472l40.485,47.551,2.5-.147v4.122A1.5,1.5,0,0,1,554.6,7161.34Z" fill="#fff"/>
    <path id="パス_466" data-name="パス 466" d="M536.925,7168.688a3.518,3.518,0,0,1-2.457-.9l-.022-.023-42.7-50.8a3.983,3.983,0,0,1-.963-2.585v-.06l.019-.057a32.63,32.63,0,0,0-.018-3.844l-.012-.292.282-.078,13.377-3.674a9.015,9.015,0,0,1,3.3-.619,6.768,6.768,0,0,1,5.35,2.207l40.362,47.407,2.709-.159v4.471a1.858,1.858,0,0,1-1.418,2.005l-16.487,6.771A3.741,3.741,0,0,1,536.925,7168.688ZM535,7167.273a2.828,2.828,0,0,0,1.926.678,3.043,3.043,0,0,0,1.055-.183l16.506-6.778c.7-.234,1.033-.794.937-1.18l-.011-.044v-3.777l-2.3.135-.119-.139L512.5,7108.422a6.035,6.035,0,0,0-4.776-1.932,8.255,8.255,0,0,0-3.042.574l-.019.008-.02.005-13.115,3.6a29.763,29.763,0,0,1-.011,3.739,3.246,3.246,0,0,0,.8,2.081Z" fill="#3e3a39"/>
    <path id="パス_467" data-name="パス 467" d="M575.36,7148.532l-16.488,6.772a3.1,3.1,0,0,1-3.386-.589l-42.693-50.789c-1.619-1.914-.736-4.564,2.061-5.742l10.452-4.269c2.945-1.178,6.625-.442,8.245,1.472l42.692,50.79C576.979,7146.913,576.538,7148.091,575.36,7148.532Z" fill="#fff"/>
    <path id="パス_468" data-name="パス 468" d="M557.537,7155.914a2.991,2.991,0,0,1-2.334-.963l-42.692-50.788a3.516,3.516,0,0,1-.8-3.147,4.829,4.829,0,0,1,3-3.171l10.456-4.271a8.641,8.641,0,0,1,3.18-.595,7.285,7.285,0,0,1,5.485,2.17l42.683,50.779a1.541,1.541,0,0,1,.419,1.427,2.194,2.194,0,0,1-1.44,1.519L559,7155.649A4.21,4.21,0,0,1,557.537,7155.914Zm-29.191-62.2a7.89,7.89,0,0,0-2.9.541l-10.45,4.268a4.105,4.105,0,0,0-2.563,2.663,2.8,2.8,0,0,0,.644,2.5l42.694,50.79a2.268,2.268,0,0,0,1.77.7,3.463,3.463,0,0,0,1.2-.216l16.493-6.774a1.49,1.49,0,0,0,.984-.988.8.8,0,0,0-.232-.763l-.021-.023-42.692-50.79A6.542,6.542,0,0,0,528.347,7093.716Z" fill="#3e3a39"/>
    <path id="パス_469" data-name="パス 469" d="M542.089,7118.942l-4.269,1.767-2.65-3.239,4.269-1.767Z" fill="#3e3a39"/>
    <path id="パス_470" data-name="パス 470" d="M544.739,7122.181l-4.269,1.767-2.65-3.239,4.269-1.767Z" fill="#898989"/>
    <path id="パス_471" data-name="パス 471" d="M548.125,7126.155l-4.269,1.767-2.5-2.944,4.269-1.767Z" fill="#ebd784"/>
    <path id="パス_472" data-name="パス 472" d="M542.275,7130.723l-11.39-13.7,10.136-4.118.172.205,11.215,13.337-.46.194Zm-10.181-13.4,10.4,12.505,8.711-3.674-10.4-12.368Z" fill="#3e3a39"/>
    <path id="パス_473" data-name="パス 473" d="M543.746,7128.366l-9.178-11.045,4.982-2.062,9.178,11.045Zm-7.974-10.747,8.193,9.859,3.557-1.472-8.193-9.859Z" fill="#3e3a39"/>
    <path id="線_244" data-name="線 244" d="M3.651.661-.029.367.029-.367l3.68.294Z" transform="translate(531.49 7117.175)" fill="#3e3a39"/>
    <path id="線_245" data-name="線 245" d="M.312,2.551l-.624-.39L1.16-.2,1.784.2Z" transform="translate(542.383 7127.922)" fill="#3e3a39"/>
    <path id="線_246" data-name="線 246" d="M3.666.515-.015.368.015-.368,3.7-.221Z" transform="translate(548.125 7126.155)" fill="#3e3a39"/>
    <path id="線_247" data-name="線 247" d="M.312,2.551l-.624-.39L1.16-.2,1.784.2Z" transform="translate(539.439 7113.348)" fill="#3e3a39"/>
    <path id="パス_474" data-name="パス 474" d="M557.746,7138.641a2.516,2.516,0,0,1,2,.828,1.622,1.622,0,0,1,.306,1.524,1.734,1.734,0,0,1-1.206,1.114,3.537,3.537,0,0,1-1.362.27,2.987,2.987,0,0,1-2.114-.8l-.027-.03a1.44,1.44,0,0,1-.3-1.269,2.156,2.156,0,0,1,1.328-1.361A3.518,3.518,0,0,1,557.746,7138.641Zm-.26,3a2.792,2.792,0,0,0,1.093-.219l.022-.009.023-.006a1.018,1.018,0,0,0,.73-.637.9.9,0,0,0-.18-.84,1.822,1.822,0,0,0-1.427-.552,2.771,2.771,0,0,0-1.085.219,1.467,1.467,0,0,0-.9.863.7.7,0,0,0,.151.614A2.261,2.261,0,0,0,557.487,7141.641Z" fill="#3e3a39"/>
    <path id="パス_475" data-name="パス 475" d="M557.565,7133.077c3.747,0,7.094,1.342,8.951,3.59a5.8,5.8,0,0,1,1.287,5.2,7.876,7.876,0,0,1-4.966,5.093,14.62,14.62,0,0,1-5.311.982c-3.747,0-7.092-1.342-8.949-3.59a5.752,5.752,0,0,1-1.309-5.062c.516-2.163,2.33-4.068,4.978-5.227l.013,0A14.61,14.61,0,0,1,557.565,7133.077Zm-.039,14.127a13.878,13.878,0,0,0,5.038-.929,7.155,7.155,0,0,0,4.526-4.59,5.083,5.083,0,0,0-1.141-4.549,8.693,8.693,0,0,0-3.581-2.462,13.4,13.4,0,0,0-4.8-.861,13.881,13.881,0,0,0-5.03.926c-2.431,1.065-4.089,2.786-4.551,4.72a4.969,4.969,0,0,0,1.16,4.423,8.69,8.69,0,0,0,3.58,2.462A13.4,13.4,0,0,0,557.527,7147.2Z" fill="#3e3a39"/>
    <path id="パス_476" data-name="パス 476" d="M557.5,7134.048a11.964,11.964,0,0,1,4.406.828,8.742,8.742,0,0,1,3.432,2.377,4.891,4.891,0,0,1,1.1,4.436,6.751,6.751,0,0,1-4.333,4.386,11.652,11.652,0,0,1-4.552.9,10.634,10.634,0,0,1-7.786-3.057l-.013-.015a5.1,5.1,0,0,1-1.1-4.488,7.048,7.048,0,0,1,4.331-4.471A11.54,11.54,0,0,1,557.5,7134.048Zm.053,12.192a10.911,10.911,0,0,0,4.267-.843l.01,0a6.035,6.035,0,0,0,3.894-3.884,4.173,4.173,0,0,0-.949-3.78,9.683,9.683,0,0,0-7.276-2.944,10.8,10.8,0,0,0-4.223.837,6.331,6.331,0,0,0-3.907,3.973,4.328,4.328,0,0,0,.952,3.842A9.893,9.893,0,0,0,557.551,7146.24Z" fill="#3e3a39"/>
    <path id="パス_477" data-name="パス 477" d="M554.6,7157.071l-16.488,6.772a2.862,2.862,0,0,1-3.386-.589l-42.693-50.643c-1.619-2.061-.736-4.563,2.061-5.741l10.453-4.417c2.944-1.177,6.625-.441,8.244,1.473l42.693,50.789C556.222,7155.6,555.78,7156.629,554.6,7157.071Z" fill="#fff"/>
    <path id="パス_478" data-name="パス 478" d="M536.8,7164.518a3.065,3.065,0,0,1-2.352-1.028l-42.7-50.651a3.7,3.7,0,0,1-.776-3.25,4.777,4.777,0,0,1,2.984-3.058l10.459-4.419a8.629,8.629,0,0,1,3.176-.593,7.284,7.284,0,0,1,5.486,2.17l42.694,50.79a1.7,1.7,0,0,1,.394,1.54,2.177,2.177,0,0,1-1.425,1.4l-16.471,6.765A3.331,3.331,0,0,1,536.8,7164.518Zm-44.477-52.139,42.689,50.638a2.325,2.325,0,0,0,1.788.765,2.584,2.584,0,0,0,1.152-.268l.025-.011,16.5-6.776a1.469,1.469,0,0,0,.977-.9.969.969,0,0,0-.247-.879l-42.692-50.788a6.542,6.542,0,0,0-4.923-1.908,7.894,7.894,0,0,0-2.9.539l-10.45,4.416a4.122,4.122,0,0,0-2.557,2.564A2.94,2.94,0,0,0,492.321,7112.378Z" fill="#3e3a39"/>
    <path id="パス_479" data-name="パス 479" d="M521.517,7139.258l-.172-.205-11.215-13.337.46-.194,9.673-4.081,11.39,13.7Zm-10.182-13.252,10.4,12.368,8.708-3.537-10.4-12.505Z" fill="#3e3a39"/>
    <path id="線_248" data-name="線 248" d="M3.666.515-.015.368.015-.368,3.7-.221Z" transform="translate(510.732 7125.861)" fill="#3e3a39"/>
    <path id="線_249" data-name="線 249" d="M.312,2.551l-.624-.39L1.16-.2,1.784.2Z" transform="translate(521.626 7136.46)" fill="#3e3a39"/>
    <path id="線_250" data-name="線 250" d="M3.651.661-.029.367.029-.367l3.68.294Z" transform="translate(527.367 7134.694)" fill="#3e3a39"/>
    <path id="線_251" data-name="線 251" d="M.312,2.551l-.624-.39L1.16-.2,1.784.2Z" transform="translate(518.682 7121.886)" fill="#3e3a39"/>
    <path id="パス_480" data-name="パス 480" d="M536.806,7147.22a2.823,2.823,0,0,1,2.184.935,1.554,1.554,0,0,1,.338,1.364,1.958,1.958,0,0,1-1.216,1.265,3.017,3.017,0,0,1-1.2.237,3.3,3.3,0,0,1-2.3-.9l-.015-.014-.013-.016a1.441,1.441,0,0,1-.3-1.269,2.158,2.158,0,0,1,1.328-1.36A3.047,3.047,0,0,1,536.806,7147.22Zm.108,3.065a2.286,2.286,0,0,0,.907-.178,1.254,1.254,0,0,0,.792-.767.826.826,0,0,0-.2-.726,2.108,2.108,0,0,0-1.609-.658,2.308,2.308,0,0,0-.9.178,1.468,1.468,0,0,0-.9.863.7.7,0,0,0,.15.614A2.6,2.6,0,0,0,536.914,7150.286Z" fill="#3e3a39"/>
    <path id="パス_481" data-name="パス 481" d="M536.625,7141.653a14.24,14.24,0,0,1,5.174.951,9.733,9.733,0,0,1,3.957,2.746,5.537,5.537,0,0,1,1.309,5,7.839,7.839,0,0,1-4.982,5.143,14.04,14.04,0,0,1-10.383.1,9.628,9.628,0,0,1-3.88-2.712,5.749,5.749,0,0,1-1.309-5.061c.515-2.163,2.33-4.068,4.979-5.227l.013,0A14.1,14.1,0,0,1,536.625,7141.653Zm.148,14.155a12.968,12.968,0,0,0,5.025-.99l.005,0a7.125,7.125,0,0,0,4.546-4.635,4.82,4.82,0,0,0-1.153-4.353l-.005-.006c-1.749-2.118-5.032-3.433-8.566-3.433a13.373,13.373,0,0,0-4.847.889c-2.432,1.066-4.091,2.786-4.551,4.72a4.967,4.967,0,0,0,1.161,4.421C530.115,7154.51,533.328,7155.809,536.773,7155.809Z" fill="#3e3a39"/>
    <path id="パス_482" data-name="パス 482" d="M536.74,7142.652a10.282,10.282,0,0,1,7.838,3.14l.007.008a5.106,5.106,0,0,1,1.1,4.488,7.051,7.051,0,0,1-4.331,4.472l-.01,0a12.049,12.049,0,0,1-4.363.795,10.892,10.892,0,0,1-7.971-3.1l-.013-.016a5.108,5.108,0,0,1-1.1-4.489,7.053,7.053,0,0,1,4.331-4.472l.01,0A12.437,12.437,0,0,1,536.74,7142.652Zm7.273,3.612a9.553,9.553,0,0,0-7.273-2.876,11.7,11.7,0,0,0-4.227.773,6.333,6.333,0,0,0-3.9,3.972,4.331,4.331,0,0,0,.951,3.842,10.152,10.152,0,0,0,7.416,2.847,11.308,11.308,0,0,0,4.088-.742,6.333,6.333,0,0,0,3.9-3.972A4.33,4.33,0,0,0,544.013,7146.264Z" fill="#3e3a39"/>
    <path id="パス_483" data-name="パス 483" d="M526.926,7134.1l-4.269,1.767.442.589,4.269-1.767Z" fill="#a7436a"/>
    <path id="パス_484" data-name="パス 484" d="M522.988,7136.9l-9.178-11.045,4.982-2.062,9.178,11.045Zm-7.974-10.747,8.193,9.859,3.557-1.472-8.193-9.859Z" fill="#3e3a39"/>
    <path id="パス_485" data-name="パス 485" d="M569.766,7061.675h2.5v8.1c0,.884-.147,1.62-.147,2.209h2.8a10.444,10.444,0,0,1-.147-2.209v-7.949a14.3,14.3,0,0,1,.147-2.5,6.074,6.074,0,0,1-1.766.147h-1.62c-.883,0-1.177-.147-1.766-.147Z" fill="#454649"/>
    <path id="パス_486" data-name="パス 486" d="M584.635,7061.527c1.766,0,2.5,1.472,2.5,4.27a5.38,5.38,0,0,1-.883,3.533,2.682,2.682,0,0,1-1.619.589c-1.62,0-2.5-1.473-2.5-4.27C582.132,7063,583.162,7061.527,584.635,7061.527Zm0,10.6a4.766,4.766,0,0,0,4.269-2.356,8.159,8.159,0,0,0,.883-4.122,8.633,8.633,0,0,0-.589-3.386,3.809,3.809,0,0,0-1.03-1.619,4.777,4.777,0,0,0-3.533-1.325,4.572,4.572,0,0,0-4.122,2.208,8.8,8.8,0,0,0-.295,7.656,4.972,4.972,0,0,0,1.031,1.619A4.663,4.663,0,0,0,584.635,7072.127Z" fill="#454649"/>
    <path id="パス_487" data-name="パス 487" d="M569.913,7084.051a3.653,3.653,0,0,1-.147-1.324v-2.356a3.514,3.514,0,0,1,.441-1.03,1.576,1.576,0,0,1,1.325-.884c.884,0,1.178.589,1.178,1.472v4.122h1.472a3.653,3.653,0,0,1-.147-1.324v-2.356c.147-.589.147-.883.442-1.178a1.629,1.629,0,0,1,1.472-.736,1.333,1.333,0,0,1,1.03.442c.148.147.148.442.148,1.03v4.122H578.6a4.1,4.1,0,0,1-.147-1.472v-2.944a2.644,2.644,0,0,0-.442-1.619,2.5,2.5,0,0,0-1.914-.589,2.969,2.969,0,0,0-1.619.441,2.591,2.591,0,0,0-.736.589c-.148-.294-.148-.441-.3-.589a2.679,2.679,0,0,0-1.619-.588,2.349,2.349,0,0,0-2.061,1.177v-.883h-1.325v6.477Z" fill="#454649"/>
    <path id="パス_488" data-name="パス 488" d="M580.218,7077.574v6.477h1.472a4.1,4.1,0,0,1-.147-1.472v-3.68a3.27,3.27,0,0,1,.147-1.325Zm0-2.8v1.325h1.472v-1.325Z" fill="#454649"/>
    <path id="パス_489" data-name="パス 489" d="M584.782,7084.051a4.075,4.075,0,0,1-.147-1.324v-2.356a2.321,2.321,0,0,1,.736-1.178,2.045,2.045,0,0,1,1.472-.736c.883,0,1.178.442,1.178,1.472v4.122h1.472a3.267,3.267,0,0,1-.147-1.324v-2.945a3.167,3.167,0,0,0-.295-1.472,2.577,2.577,0,0,0-2.061-1.03,2.653,2.653,0,0,0-2.355,1.324v-1.03H583.31v6.477Z" fill="#454649"/>
    <path id="線_252" data-name="線 252" d="M4.122.368H0V-.368H4.122Z" transform="translate(602.595 7071.096)" fill="#454649"/>
    <path id="線_253" data-name="線 253" d="M3.5,2.382-.18.321.18-.321,3.86,1.74Z" transform="translate(599.356 7082.874)" fill="#454649"/>
    <path id="線_254" data-name="線 254" d="M1.743,3.719-.318.185.318-.185,2.379,3.348Z" transform="translate(590.818 7091.412)" fill="#454649"/>
    <path id="線_255" data-name="線 255" d="M.368,4.122H-.368V0H.368Z" transform="translate(579.04 7094.651)" fill="#454649"/>
    <path id="線_256" data-name="線 256" d="M.318,3.719l-.636-.371L1.743-.185l.636.371Z" transform="translate(565.202 7091.412)" fill="#454649"/>
    <path id="線_257" data-name="線 257" d="M.18,2.382-.18,1.74,3.5-.321l.36.642Z" transform="translate(555.044 7082.874)" fill="#454649"/>
    <path id="線_258" data-name="線 258" d="M4.122.368H0V-.368H4.122Z" transform="translate(551.364 7071.096)" fill="#454649"/>
    <path id="線_259" data-name="線 259" d="M3.5,2.382-.18.321.18-.321,3.86,1.74Z" transform="translate(555.044 7057.258)" fill="#454649"/>
    <path id="線_260" data-name="線 260" d="M1.743,3.719-.318.185.318-.185,2.379,3.348Z" transform="translate(565.202 7047.1)" fill="#454649"/>
    <path id="パス_490" data-name="パス 490" d="M581.69,7041.506a29.5,29.5,0,0,1,17.666,7.8l-2.944,3.092a24.461,24.461,0,0,0-15.163-6.772Z" fill="#0eae71"/>
    <path id="パス_491" data-name="パス 491" d="M593.909,7052.841l7.95,2.5-1.767-8.1Z" fill="#0eae71"/>
    <path id="パス_492" data-name="パス 492" d="M603.773,7056.964A29,29,0,0,1,607.6,7071.1a28.56,28.56,0,1,1-28.56-28.56v1.767a26.64,26.64,0,0,0-26.793,26.793,26.471,26.471,0,0,0,7.8,18.844,26.754,26.754,0,0,0,42.251-32.093Z" fill="#454649"/>
    <g id="グループ_658" data-name="グループ 658">
      <path id="パス_493" data-name="パス 493" d="M485.411,6984.975H463.917a3.487,3.487,0,0,0-3.533,3.533V7010a3.583,3.583,0,0,0,3.533,3.533h21.494a3.583,3.583,0,0,0,3.533-3.533v-21.494A3.487,3.487,0,0,0,485.411,6984.975Z" fill="#68be8d"/>
      <path id="パス_653" data-name="パス 653" d="M.619,0a8.074,8.074,0,0,1,.74-3.113A5.987,5.987,0,0,1,3.867-5.52L5.723-6.594a8.739,8.739,0,0,0,1.75-1.237,2.542,2.542,0,0,0,.793-1.837,2.564,2.564,0,0,0-.725-1.919A2.643,2.643,0,0,0,5.607-12.3a2.527,2.527,0,0,0-2.475,1.354,4.846,4.846,0,0,0-.406,2.011H.957a6.214,6.214,0,0,1,.667-2.949,4.187,4.187,0,0,1,3.993-2.011,4.328,4.328,0,0,1,3.476,1.286,4.3,4.3,0,0,1,1.1,2.862A3.89,3.89,0,0,1,9.02-6.9,11.453,11.453,0,0,1,6.594-5.24l-1.325.735a8.579,8.579,0,0,0-1.489,1A3.627,3.627,0,0,0,2.562-1.644h7.56V0Z" transform="translate(469.169 7006.779)" fill="#fff"/>
    </g>
    <path id="パス_648" data-name="パス 648" d="M7.9,5.758a4.53,4.53,0,0,1,.05-.983H7.169a6.152,6.152,0,0,1,.05.983H6.187A5.965,5.965,0,0,1,5.166,5.7v.743A9.626,9.626,0,0,1,6.174,6.4H7.22V7.51H6.678a6.328,6.328,0,0,1-.945-.05c.025.3.038.554.038.882v1.726c0,.34-.013.655-.038.92h.706v-.718H8.581a8.971,8.971,0,0,1,.945.025A6.924,6.924,0,0,1,9.5,9.438V8.379a6.172,6.172,0,0,1,.05-.92,5.838,5.838,0,0,1-1,.05H7.9V6.4H9.034a7.644,7.644,0,0,1,1.046.038V5.7a6.192,6.192,0,0,1-1.046.063ZM6.439,8.127H8.833V9.639H6.439ZM7.925,1.638V1.474A4.3,4.3,0,0,1,8,.466h-.92a4.423,4.423,0,0,1,.076,1.008v.164H4.964a9.147,9.147,0,0,1-1.348-.076v.819a9.733,9.733,0,0,1,1.336-.063h.34A7.171,7.171,0,0,1,5.909,3.78h-.63c-.756,0-1.109-.013-1.436-.038.025.328.038.693.038,1.336v5.355a10.875,10.875,0,0,1-.076,1.487h.92a10.625,10.625,0,0,1-.076-1.487V4.461h5.972v6.363c0,.252-.076.3-.416.3A9.235,9.235,0,0,1,8.77,11a2.28,2.28,0,0,1,.176.756c.466.025.97.05,1.273.05.945,0,1.172-.189,1.172-.983v-5.7a13.536,13.536,0,0,1,.05-1.4,11.08,11.08,0,0,1-1.336.05H9.3a9.37,9.37,0,0,0,.655-1.462H10.5a12.03,12.03,0,0,1,1.323.063V1.563a7.672,7.672,0,0,1-1.348.076ZM6.678,3.78a7.9,7.9,0,0,0-.592-1.462H9.135A5.933,5.933,0,0,1,8.518,3.78ZM1.071,1.21a8.162,8.162,0,0,1,1.9,1.651l.517-.592A9.426,9.426,0,0,0,1.575.655ZM.5,4.335A8.522,8.522,0,0,1,2.558,5.947l.5-.68A11.826,11.826,0,0,0,.983,3.73ZM2.495,7.22A10.715,10.715,0,0,1,.6,11.038l.706.655c.063-.1.063-.1.139-.227s.088-.176.265-.491A18.515,18.515,0,0,0,3.125,7.737ZM18.661,2.067v8.278a9.266,9.266,0,0,1-.088,1.487h1.046a9.163,9.163,0,0,1-.088-1.487V4.41a14.073,14.073,0,0,1,1.31.693,18.877,18.877,0,0,1,2.671,1.764L24,6.086A27.188,27.188,0,0,0,19.53,3.5V2.067h3.956a12.37,12.37,0,0,1,1.462.076V1.21a11.927,11.927,0,0,1-1.462.076H15.322a11.723,11.723,0,0,1-1.474-.076v.932a12.3,12.3,0,0,1,1.474-.076ZM33.327.454a8,8,0,0,1-1.5,2.1c-.2-.151-.353-.277-.832-.643l-.542.58a19.425,19.425,0,0,1,2.52,2.066c-.227.227-.227.227-.907.869-1.121.038-1.121.038-1.348.038a5.781,5.781,0,0,1-.907-.05l.139.844a4.229,4.229,0,0,1,.6-.063c1.235-.063,1.89-.1,1.978-.1a6.807,6.807,0,0,1-2.961,2.8,3.147,3.147,0,0,1,.567.6,8.565,8.565,0,0,0,1.726-1.386A7.882,7.882,0,0,0,33.314,9.69a10.609,10.609,0,0,1-3.868,1.449,2.341,2.341,0,0,1,.479.731,11.2,11.2,0,0,0,4.007-1.714,7.437,7.437,0,0,0,1.109.643,11.371,11.371,0,0,0,2.835,1.033,4.486,4.486,0,0,1,.416-.794,10.687,10.687,0,0,1-3.7-1.348,9.471,9.471,0,0,0,1.827-1.877,2.707,2.707,0,0,1,.29-.378l-.517-.479a6.521,6.521,0,0,1-1.033.063H32.76a7.087,7.087,0,0,0,.6-.983c1.386-.088,1.386-.088,3.541-.328.252.353.353.5.693,1.008l.655-.454a24.777,24.777,0,0,0-2.18-2.621l-.592.4a13.2,13.2,0,0,1,.983,1.084c-1.613.151-1.613.151-3.364.252a26.784,26.784,0,0,0,2.709-2.86c.3-.365.378-.454.5-.592l-.794-.466A12.534,12.534,0,0,1,33.5,4.02c-.428-.4-.617-.58-1.134-1.021a15.618,15.618,0,0,0,1.4-1.7c.176-.277.214-.315.315-.454Zm2.218,7.207a6.426,6.426,0,0,1-1.6,1.6,7.248,7.248,0,0,1-1.562-1.6ZM29.371.4a6.756,6.756,0,0,1-2.6,2.7,1.9,1.9,0,0,1,.5.617,9.933,9.933,0,0,0,2.507-2.47c.189-.252.189-.252.29-.378ZM28.224,10.42a10.584,10.584,0,0,1-.076,1.462h.92a14.917,14.917,0,0,1-.063-1.5v-5.2a9.22,9.22,0,0,0,.832-1.147,4.223,4.223,0,0,1,.365-.554l-.718-.441a5.79,5.79,0,0,1-.743,1.285,8.732,8.732,0,0,1-2.2,2.2A2.1,2.1,0,0,1,27,7.22a6.145,6.145,0,0,0,1.247-1.247c-.013.706-.013.706-.013.794,0,.176,0,.466-.013.895ZM39.892,9.085a12.575,12.575,0,0,1,2.482,2.747l.706-.668a12.839,12.839,0,0,0-2.533-2.671ZM1.206,21.862v-.849a4.511,4.511,0,0,0,1.673-.391,1.925,1.925,0,0,0,.708-1.3H4.46V28.1H3.279V21.862ZM10.92,19.29A2.6,2.6,0,0,1,13.393,20.7a6.3,6.3,0,0,1,.591,2.984,7.185,7.185,0,0,1-.535,2.972,2.62,2.62,0,0,1-2.535,1.686,2.538,2.538,0,0,1-2.363-1.378,6.31,6.31,0,0,1-.646-3.088A7.631,7.631,0,0,1,8.293,21.3,2.652,2.652,0,0,1,10.92,19.29Zm-.012,8.041a1.576,1.576,0,0,0,1.372-.763,5.523,5.523,0,0,0,.511-2.842,7.023,7.023,0,0,0-.369-2.47,1.4,1.4,0,0,0-1.433-.969,1.5,1.5,0,0,0-1.43.92,6.351,6.351,0,0,0-.452,2.71,6.655,6.655,0,0,0,.289,2.166A1.576,1.576,0,0,0,10.908,27.331Zm9.055-4.422a6.1,6.1,0,0,1-.68,2.6,6.42,6.42,0,0,1-3.175,2.759,2.633,2.633,0,0,1,.554.706,7.394,7.394,0,0,0,3.175-2.747,7.176,7.176,0,0,0,.983-3.314h2.936a17.936,17.936,0,0,1-.416,4.662c-.088.239-.227.315-.63.315a9.707,9.707,0,0,1-1.777-.214,3.493,3.493,0,0,1,.2.895c.794.076,1.235.1,1.651.1.731,0,1.033-.126,1.247-.5A16.015,16.015,0,0,0,24.6,23a5.567,5.567,0,0,1,.05-.895,9.534,9.534,0,0,1-1.323.063H19.181a9.671,9.671,0,0,1-1.31-.076v.895a10.146,10.146,0,0,1,1.3-.076Zm-.517-5.229A4.052,4.052,0,0,1,18.9,19a10.382,10.382,0,0,1-3.452,3.692,2.773,2.773,0,0,1,.617.68,12.507,12.507,0,0,0,3.969-4.725,3.438,3.438,0,0,1,.353-.643Zm2.8.353c.063.1.139.239.2.353a12.765,12.765,0,0,0,4.246,5.065,3.108,3.108,0,0,1,.592-.769,10.508,10.508,0,0,1-3.717-3.919,5.1,5.1,0,0,1-.479-1.058ZM35.523,19.8a12.734,12.734,0,0,1-2.57.542v-1.21a7.206,7.206,0,0,1,.063-1.172h-.932a8.37,8.37,0,0,1,.063,1.2V20.4c-.378.025-.869.038-1.21.038a7.136,7.136,0,0,1-1.285-.088v.832h.517c.139.013.479.013.668.013.365,0,.58,0,.806-.013.391-.025.391-.025.5-.038v2.381a6.74,6.74,0,0,0-1.777,1.033,2.28,2.28,0,0,0-1,1.676,1.52,1.52,0,0,0,.58,1.184,3.328,3.328,0,0,0,2.079.806c.617,0,.92-.328.92-1.008v-3.15a8.5,8.5,0,0,1,2.671-.491c1.651,0,2.7.769,2.7,2a1.673,1.673,0,0,1-1.688,1.777c-.92,0-1.3-.542-1.3-1.852a3.742,3.742,0,0,1,.025-.491,2.731,2.731,0,0,1-.832.328,4.6,4.6,0,0,0,.151,1.424,1.858,1.858,0,0,0,1.94,1.424,2.592,2.592,0,0,0,1.273-4.838,4.266,4.266,0,0,0-2.23-.529,8.927,8.927,0,0,0-2.709.454v-2.18a22.115,22.115,0,0,0,2.23-.378c.176-.038.227-.05.378-.076Zm-3.377,6.955c0,.542-.038.617-.29.617A2.353,2.353,0,0,1,30.735,27c-.365-.239-.542-.491-.542-.756,0-.6.706-1.285,1.953-1.89Zm7.573-5.33a10.588,10.588,0,0,0-2.545-2.394l-.655.491a10.32,10.32,0,0,1,2.545,2.47ZM48.6,19.8V21.46H46.485a7.682,7.682,0,0,1-1.21-.076v.844a8.022,8.022,0,0,1,1.21-.076h3.956V23.64H46.4a7.86,7.86,0,0,1-1.222-.076v.857a8.51,8.51,0,0,1,1.235-.076h4.032V27.81c0,.277-.076.3-.756.3a12.616,12.616,0,0,1-1.336-.151,3.047,3.047,0,0,1,.2.857c.441.025.857.05,1.159.05a3.96,3.96,0,0,0,1.121-.126c.277-.1.416-.391.416-.832V24.345h.517a8.644,8.644,0,0,1,1.26.076v-.857a8.407,8.407,0,0,1-1.26.076h-.517V22.153h.517a8.765,8.765,0,0,1,1.26.076v-.844a8.713,8.713,0,0,1-1.273.076H49.4V19.8h1.89a8.185,8.185,0,0,1,1.184.063v-.832a7.506,7.506,0,0,1-1.2.076H49.4v-.5a6.334,6.334,0,0,1,.063-1.021h-.932A6.586,6.586,0,0,1,48.6,18.6v.5H46.926a7.225,7.225,0,0,1-1.184-.076v.832a8.107,8.107,0,0,1,1.172-.063ZM44.52,17.516A7.374,7.374,0,0,1,41.8,20.137a2.53,2.53,0,0,1,.5.643,11.516,11.516,0,0,0,2.432-2.192c.4-.491.4-.491.491-.592Zm4.221,9.374a16.005,16.005,0,0,0-1.978-2.117l-.6.466a10.073,10.073,0,0,1,1.915,2.18Zm-5.418.655a13.719,13.719,0,0,1-.076,1.474h.932a10.869,10.869,0,0,1-.063-1.474V22.354a9.554,9.554,0,0,0,.794-1.134c.2-.315.252-.378.353-.517l-.743-.441a8.686,8.686,0,0,1-2.86,3.44,2.542,2.542,0,0,1,.466.706,5.911,5.911,0,0,0,1.235-1.285c-.038.567-.038.932-.038,1.449Zm12.512-6.728h.1c.076,0,.189,0,.353.013.731.05,1.285.076,2.092.088a19,19,0,0,1-1.688,4.108l.907.365a2.7,2.7,0,0,1,1.058-.806,6.862,6.862,0,0,1,2.923-.68c1.512,0,2.419.58,2.419,1.537,0,1.21-1.31,2-3.3,2a7.689,7.689,0,0,1-3.15-.63c.038.4.063.63.063.693v.076a1.392,1.392,0,0,1-.013.2,9.42,9.42,0,0,0,3.112.491c2.545,0,4.221-1.121,4.221-2.835,0-1.411-1.273-2.318-3.263-2.318A6.463,6.463,0,0,0,58,24.181l-.013-.025a17.028,17.028,0,0,0,1.26-3.238,42.109,42.109,0,0,0,4.675-.365c.265-.038.34-.038.554-.063l-.063-.907a21.389,21.389,0,0,1-4.964.542c.126-.454.164-.6.34-1.336a6.39,6.39,0,0,1,.2-.806l-1.008-.1a9.819,9.819,0,0,1-.4,2.255,11.519,11.519,0,0,1-2.722-.214Zm19.4-2.873A20.032,20.032,0,0,1,71.547,21.4a9.735,9.735,0,0,0-1.071.857,1.22,1.22,0,0,0-.365.844c0,.428.2.706.907,1.26,1.84,1.436,2.344,1.852,3.188,2.633a11.894,11.894,0,0,1,1.625,1.726l.794-.781a3.208,3.208,0,0,1-.353-.315,37.15,37.15,0,0,0-4.032-3.44c-1.021-.794-1.121-.882-1.121-1.109,0-.176.088-.277.554-.63a36.7,36.7,0,0,0,2.9-2.381c1.31-1.26,1.411-1.348,1.55-1.462Zm6.59,3.125a1.876,1.876,0,0,1,.214-.013h.05c.491.025.6.025,1.046.025.466,0,.617,0,.869-.013a25.644,25.644,0,0,1-2.369,6.968l.92.391a33.69,33.69,0,0,0,2.331-7.409,16.812,16.812,0,0,0,2.129-.3l.227-.05.126-.013-.063-.869a10.245,10.245,0,0,1-2.268.428c.063-.34.088-.517.164-.958s.113-.68.126-.756c.038-.176.05-.239.1-.441l-1-.1v.088a15.539,15.539,0,0,1-.277,2.23c-.365.025-.5.025-.756.025a8.69,8.69,0,0,1-1.575-.113Zm9.513.617c-.945-.038-1.134-.038-1.373-.038a14.275,14.275,0,0,0-3.339.416l.088.857a10.966,10.966,0,0,1,3.15-.428,12.65,12.65,0,0,1,1.487.088Zm-4.586,2.722c-.668.857-.844,1.247-.844,1.814,0,1.247,1.071,1.89,3.137,1.89a13.8,13.8,0,0,0,2.243-.2l.391-.076.164-.025-.088-.945a9.361,9.361,0,0,1-2.785.428c-1.436,0-2.2-.4-2.2-1.159a1.516,1.516,0,0,1,.315-.895,4.222,4.222,0,0,1,.378-.479ZM88.834,18.5a9.224,9.224,0,0,1,1.3,1.991l.63-.378a9.565,9.565,0,0,0-1.3-1.953Zm1.436-.68A9.439,9.439,0,0,1,91.555,19.8l.63-.365a10.12,10.12,0,0,0-1.3-1.953Zm5.279,3.616a2.783,2.783,0,0,1,.491-.038,37.1,37.1,0,0,0,4.486-.328c.076.126.076.151.214.416a15.364,15.364,0,0,0,1.512,2.47,6.292,6.292,0,0,0-2.608-.454,5.356,5.356,0,0,0-2.444.466,2.355,2.355,0,0,0-1.424,2.054,2.032,2.032,0,0,0,.567,1.386,4.62,4.62,0,0,0,3.276.945,10.446,10.446,0,0,0,3.7-.68l-.139-.97a8.307,8.307,0,0,1-3.578.806,4.268,4.268,0,0,1-2.457-.58,1.26,1.26,0,0,1-.479-.983,1.431,1.431,0,0,1,.68-1.172,4.467,4.467,0,0,1,2.394-.529,6.828,6.828,0,0,1,2.205.328,2.519,2.519,0,0,1,.869.517l.844-.479a23.334,23.334,0,0,1-2.268-3.667l.428-.088c.794-.151.945-.189,1.7-.391.378-.1.479-.126.743-.176l-.126-.895a14.746,14.746,0,0,1-3.049.794,10.365,10.365,0,0,1-.454-1.109,4.016,4.016,0,0,1-.365-1.134l-1,.139c.113.227.189.4.328.731.227.567.428,1.071.617,1.5a29.41,29.41,0,0,1-3.755.265,5.524,5.524,0,0,1-.97-.063Zm12.915-2.268a6.816,6.816,0,0,1,.038.743,18.931,18.931,0,0,0,.68,5.909c.428,1.21,1.084,1.915,1.789,1.915.895,0,1.474-.844,2.092-3.049a4.028,4.028,0,0,1-.743-.718,9.065,9.065,0,0,1-.655,2.155c-.189.416-.4.63-.63.63-.479,0-1-.869-1.273-2.155a21.578,21.578,0,0,1-.328-3.919,9.133,9.133,0,0,1,.088-1.5Zm6.376,1.071a11.128,11.128,0,0,1,2.621,6.212l.895-.365a12.065,12.065,0,0,0-.945-3.364,10.937,10.937,0,0,0-1.8-2.873Zm7.6,4.9a1.89,1.89,0,1,0,1.89,1.89A1.887,1.887,0,0,0,122.438,25.139Zm0,.718a1.172,1.172,0,1,1-1.172,1.172A1.178,1.178,0,0,1,122.438,25.857Z" transform="translate(495.863 6981.063)" fill="#333"/>
  </g>
</svg>
