<svg xmlns="http://www.w3.org/2000/svg" width="350" height="77.413" viewBox="0 0 350 77.413">
  <g id="グループ_8" data-name="グループ 8" transform="translate(-4973.356 -2002.587)">
    <path id="パス_1" data-name="パス 1" d="M5286.972,2026.659v-15.271a8.8,8.8,0,0,0-8.8-8.8H5026.4a8.8,8.8,0,0,0-8.8,8.8v15.271a8.8,8.8,0,0,1-8.8,8.8H4986a8.8,8.8,0,0,0-8.8,8.8v26.94a8.8,8.8,0,0,0,8.8,8.8h328.557a8.8,8.8,0,0,0,8.8-8.8v-26.94a8.8,8.8,0,0,0-8.8-8.8h-18.783A8.8,8.8,0,0,1,5286.972,2026.659Z" fill="#699c78"/>
    <path id="パス_2" data-name="パス 2" d="M5283.13,2026.659v-15.271a8.8,8.8,0,0,0-8.8-8.8h-251.77a8.8,8.8,0,0,0-8.8,8.8v15.271a8.8,8.8,0,0,1-8.8,8.8h-22.8a8.8,8.8,0,0,0-8.8,8.8v26.94a8.8,8.8,0,0,0,8.8,8.8h328.557a8.8,8.8,0,0,0,8.8-8.8v-26.94a8.8,8.8,0,0,0-8.8-8.8H5291.93A8.8,8.8,0,0,1,5283.13,2026.659Z" fill="#82c195"/>
  </g>
</svg>
