<svg xmlns="http://www.w3.org/2000/svg" xmlns:xlink="http://www.w3.org/1999/xlink" width="219.205" height="219.058" viewBox="0 0 219.205 219.058">
  <defs>
    <clipPath id="clip-path">
      <rect id="長方形_409" data-name="長方形 409" width="95.544" height="69.928" transform="translate(1020.347 7108.342)" fill="none"/>
    </clipPath>
    <clipPath id="clip-path-2">
      <rect id="長方形_410" data-name="長方形 410" width="100.843" height="75.08" transform="translate(1015.195 7103.189)" fill="none"/>
    </clipPath>
    <clipPath id="clip-path-3">
      <rect id="長方形_411" data-name="長方形 411" width="105.849" height="130.728" transform="translate(1010.189 7047.542)" fill="none"/>
    </clipPath>
    <clipPath id="clip-path-4">
      <rect id="長方形_412" data-name="長方形 412" width="64.628" height="109.971" transform="translate(1022.261 7047.542)" fill="none"/>
    </clipPath>
  </defs>
  <g id="グループ_753" data-name="グループ 753" transform="translate(-943.795 -6974.522)">
    <path id="パス_517" data-name="パス 517" d="M1155.934,7193.58H950.861a6.944,6.944,0,0,1-7.066-6.919V6981.442a6.944,6.944,0,0,1,7.066-6.92h205.073a7.039,7.039,0,0,1,7.066,6.92v205.219A7.038,7.038,0,0,1,1155.934,7193.58Z" fill="#fff"/>
    <g id="グループ_679" data-name="グループ 679">
      <g id="グループ_678" data-name="グループ 678" clip-path="url(#clip-path)">
        <path id="パス_518" data-name="パス 518" d="M1115.743,7183.864l-11.041-12.955a18.285,18.285,0,0,1-3.68-7.361c-2.061-8.244-6.625-26.646-9.128-31.8l-17.371-16.783-47.109-5.447c-6.331-1.178-7.067,5.3,1.03,8.244l.883,1.619c-8.685-3.533-8.98,5.742.148,7.214h0c-8.833-2.061-7.656,7.066.883,8.98l7.214,11.483-6.184,3.386a3.1,3.1,0,0,0-1.472,3.68c1.914,5.006,11.63-3.238,27.971-1.324,0,0,7.361,17.518,21.052,24.732l5.006,8.391Z" fill="#f6e8da"/>
      </g>
    </g>
    <g id="グループ_681" data-name="グループ 681">
      <g id="グループ_680" data-name="グループ 680" clip-path="url(#clip-path-2)">
        <path id="パス_519" data-name="パス 519" d="M1083.629,7186.113l-4.953-8.3a37.689,37.689,0,0,1-9.064-6.927,57.279,57.279,0,0,1-6.638-8.216,65.72,65.72,0,0,1-5.339-9.525c-8.207-.918-14.67.723-19.4,1.926a26.6,26.6,0,0,1-5.54,1.063h-.072a2.87,2.87,0,0,1-3.049-1.875l-.009-.026a3.466,3.466,0,0,1,1.646-4.107l5.843-3.2-6.925-11.023a11.322,11.322,0,0,1-4.585-2.191,7.1,7.1,0,0,1-2.331-3.253,3.341,3.341,0,0,1,.591-3.355,3.887,3.887,0,0,1,2.4-1.114,8.822,8.822,0,0,1-1.5-.9,5.88,5.88,0,0,1-2.19-2.918,2.9,2.9,0,0,1,.726-3.1,3.732,3.732,0,0,1,2.449-.858l.16,0a8.769,8.769,0,0,1,2.691.481l-.348-.638a11.4,11.4,0,0,1-4.87-3.18,4.128,4.128,0,0,1-1.066-3.615,2.9,2.9,0,0,1,1.74-1.894,6.156,6.156,0,0,1,3.478-.218l47.22,5.46.09.086,17.418,16.829.028.059c2.451,5.044,6.86,22.688,8.979,31.167l.178.711a17.762,17.762,0,0,0,3.6,7.207l11.037,12.95-.56.478-11.048-12.963a18.5,18.5,0,0,1-3.751-7.507l-.174-.7c-2.1-8.422-6.475-25.913-8.9-30.966l-17.234-16.651-47.01-5.436c-2.287-.426-4.008.195-4.385,1.579a3.421,3.421,0,0,0,.925,2.955,10.547,10.547,0,0,0,4.684,3l.131.047,1.444,2.647-.956-.389c-3.469-1.412-4.973-.541-5.459-.1a2.194,2.194,0,0,0-.515,2.342,5.145,5.145,0,0,0,1.925,2.537,9.492,9.492,0,0,0,3.512,1.558q.437.07.9.177l1.3.261-.144.722-1.3-.26q-.468-.075-.916-.181c-2.541-.4-3.683.321-4.153.826a2.6,2.6,0,0,0-.427,2.636c.539,1.743,2.572,4.092,6.524,4.978l.15.034.082.13,7.422,11.814-.343.188-6.184,3.386a2.742,2.742,0,0,0-1.3,3.239,2.162,2.162,0,0,0,2.354,1.389h.066a26.322,26.322,0,0,0,5.366-1.041c4.827-1.227,11.436-2.907,19.878-1.919l.213.025.083.2a63.542,63.542,0,0,0,5.367,9.611,56.55,56.55,0,0,0,6.549,8.1,36.855,36.855,0,0,0,8.968,6.834l.091.048.053.089,5.006,8.391Z" fill="#3e3a39"/>
      </g>
    </g>
    <g id="グループ_683" data-name="グループ 683">
      <g id="グループ_682" data-name="グループ 682" clip-path="url(#clip-path-3)">
        <path id="パス_520" data-name="パス 520" d="M1027.414,7147.355v-91.716a5.03,5.03,0,0,1,5.005-4.858h44.165a4.934,4.934,0,0,1,5.005,4.858v91.716a4.934,4.934,0,0,1-5.005,4.858h-44.165A5.031,5.031,0,0,1,1027.414,7147.355Z" fill="#b7b8b8"/>
      </g>
    </g>
    <g id="グループ_685" data-name="グループ 685">
      <g id="グループ_684" data-name="グループ 684" clip-path="url(#clip-path-4)">
        <path id="パス_521" data-name="パス 521" d="M1076.584,7152.581h-44.165a5.48,5.48,0,0,1-3.751-1.538,5.1,5.1,0,0,1-1.622-3.688v-91.716a5.1,5.1,0,0,1,1.622-3.688,5.48,5.48,0,0,1,3.751-1.538h44.165a5.307,5.307,0,0,1,5.373,5.227v91.716A5.307,5.307,0,0,1,1076.584,7152.581Zm-44.165-101.432a4.739,4.739,0,0,0-3.241,1.333,4.368,4.368,0,0,0-1.4,3.158v91.716a4.368,4.368,0,0,0,1.4,3.157,4.738,4.738,0,0,0,3.241,1.333h44.165a4.57,4.57,0,0,0,4.637-4.49v-91.716a4.57,4.57,0,0,0-4.637-4.49Z" fill="#3e3a39"/>
      </g>
    </g>
    <g id="グループ_687" data-name="グループ 687">
      <g id="グループ_686" data-name="グループ 686" clip-path="url(#clip-path-3)">
        <path id="パス_522" data-name="パス 522" d="M1075.259,7149.268h-41.515a3.267,3.267,0,0,1-3.239-3.238v-89.066a3.267,3.267,0,0,1,3.239-3.239h41.515a3.3,3.3,0,0,1,3.386,3.239v89.066A3.3,3.3,0,0,1,1075.259,7149.268Z" fill="#fff"/>
        <path id="パス_523" data-name="パス 523" d="M1075.259,7149.636h-41.515a3.636,3.636,0,0,1-3.607-3.606v-89.066a3.635,3.635,0,0,1,3.607-3.607h41.515a3.8,3.8,0,0,1,2.667,1.061,3.523,3.523,0,0,1,1.087,2.546v89.066a3.523,3.523,0,0,1-1.087,2.546A3.8,3.8,0,0,1,1075.259,7149.636Zm-41.515-95.543a2.909,2.909,0,0,0-2.871,2.871v89.066a2.909,2.909,0,0,0,2.871,2.87h41.515a3.07,3.07,0,0,0,2.155-.853,2.792,2.792,0,0,0,.863-2.017v-89.066a2.792,2.792,0,0,0-.863-2.018,3.069,3.069,0,0,0-2.155-.853Z" fill="#3e3a39"/>
        <path id="パス_524" data-name="パス 524" d="M1078.645,7062.558h-48.14v-5.594a3.267,3.267,0,0,1,3.239-3.239h41.515a3.3,3.3,0,0,1,3.386,3.239Z" fill="#3e3a39"/>
        <path id="パス_525" data-name="パス 525" d="M1030.505,7132.927h48.14v13.1a3.3,3.3,0,0,1-3.386,3.238h-41.515a3.267,3.267,0,0,1-3.239-3.238Z" fill="#3e3a39"/>
        <path id="パス_526" data-name="パス 526" d="M1078.056,7167.67c-5.153-5.3-6.625-13.249-7.066-18.107a8.815,8.815,0,0,0-3.828-6.331l-3.239-2.061a8.16,8.16,0,0,0-5.741-1.325,12.375,12.375,0,0,1-9.864-1.766,3.308,3.308,0,0,1,.589-5.889,94.992,94.992,0,0,1,12.219-3.68,10.216,10.216,0,0,1,7.214.736c3.386,1.619,13.691,6.477,17.518,9.127Z" fill="#f6e8da"/>
        <path id="パス_527" data-name="パス 527" d="M1077.792,7167.927a23.921,23.921,0,0,1-5.386-9.361,40.722,40.722,0,0,1-1.782-8.965,8.445,8.445,0,0,0-3.663-6.061l-3.242-2.063a7.768,7.768,0,0,0-5.472-1.269,13.432,13.432,0,0,1-6.25-.062,14.011,14.011,0,0,1-3.871-1.753,3.562,3.562,0,0,1-1.71-3.366,3.779,3.779,0,0,1,2.351-3.177l.005,0a96,96,0,0,1,12.259-3.693,10.593,10.593,0,0,1,7.465.758l.751.358c3.956,1.887,13.219,6.306,16.821,8.8l-.419.605c-3.553-2.46-12.779-6.861-16.719-8.74l-.749-.357a9.832,9.832,0,0,0-6.945-.717l-.03.008a95.353,95.353,0,0,0-12.161,3.662,3.046,3.046,0,0,0-1.9,2.558,2.837,2.837,0,0,0,1.364,2.678,12,12,0,0,0,9.595,1.718l.018,0a8.5,8.5,0,0,1,6,1.38l3.242,2.063a9.18,9.18,0,0,1,3.989,6.594v.01c.887,9.775,4.276,15.121,6.963,17.883Z" fill="#3e3a39"/>
        <path id="パス_528" data-name="パス 528" d="M1073.492,7115.261H1035.51v-12.807h37.982Zm.736-13.4h-39.306V7116h39.306Z" fill="#3e3a39"/>
        <path id="パス_529" data-name="パス 529" d="M1073.492,7092.884H1035.51v-7.213h37.982Zm.736-7.8h-39.306v8.539h39.306Z" fill="#3e3a39"/>
        <path id="パス_530" data-name="パス 530" d="M1073.492,7080.665H1035.51v-7.213h37.982Zm.736-7.8h-39.306v8.539h39.306Z" fill="#3e3a39"/>
        <path id="パス_531" data-name="パス 531" d="M1073.492,7068.446H1035.51v-7.213h37.982Zm.736-7.8h-39.306v8.391h39.306Z" fill="#3e3a39"/>
      </g>
    </g>
    <rect id="長方形_414" data-name="長方形 414" width="18.844" height="6.33" transform="translate(1055.385 7120.561)" fill="#68be8d"/>
    <rect id="長方形_415" data-name="長方形 415" width="18.844" height="6.33" transform="translate(1034.774 7120.561)" fill="#9fa0a0"/>
    <path id="パス_650" data-name="パス 650" d="M10.987,1.7c-.227.088-.227.088-1.071.088H3.15a9.235,9.235,0,0,1-1.5-.088v.97a12.166,12.166,0,0,1,1.487-.063h7.157A6.685,6.685,0,0,1,8.883,4.486a5.455,5.455,0,0,1-1.991,1.2A2.475,2.475,0,0,1,7.51,6.4,7.541,7.541,0,0,0,11.189,2.81a2.261,2.261,0,0,1,.3-.5ZM5.494,3.894a3.327,3.327,0,0,1,.05.68c0,2.457-.491,3.742-1.827,4.813a5.921,5.921,0,0,1-2.306,1.159,2.464,2.464,0,0,1,.58.844,6.864,6.864,0,0,0,3.226-2.18A6.749,6.749,0,0,0,6.464,4.776a4.57,4.57,0,0,1,.05-.882Zm16.972-1.7h-6.2a8.933,8.933,0,0,1-1.424-.076V3.125a9.3,9.3,0,0,1,1.411-.076h6.413a10.211,10.211,0,0,1-2.2,4.486,10.118,10.118,0,0,1-4.612,2.86,2.493,2.493,0,0,1,.617.869,11.692,11.692,0,0,0,4.586-2.986,11.253,11.253,0,0,0,2.57-5.015l.025-.076a1.485,1.485,0,0,0,.441.063,1.43,1.43,0,1,0-1.424-1.424,1.335,1.335,0,0,0,.05.365ZM24.1.92a.9.9,0,1,1-.907.895A.9.9,0,0,1,24.1.92Zm5.065.353a7.41,7.41,0,0,1,.05,1.058V5.7a7.639,7.639,0,0,1-.05,1.058h1.046a6.673,6.673,0,0,1-.05-1.046V2.319a6.884,6.884,0,0,1,.05-1.046Zm5.569,0a7.006,7.006,0,0,1,.05,1.109V3.805a15.667,15.667,0,0,1-.176,3.213A3.759,3.759,0,0,1,32.6,9.677a7.336,7.336,0,0,1-2.394.857,2.409,2.409,0,0,1,.529.869,9.92,9.92,0,0,0,2.293-.907,4.788,4.788,0,0,0,2.394-2.8,14.2,14.2,0,0,0,.315-3.843V2.369a5.624,5.624,0,0,1,.063-1.1Zm5.771,2.381a41.947,41.947,0,0,1,4.347-.416,25.787,25.787,0,0,0,2.772-.277,8.248,8.248,0,0,0-1.2.668A4.794,4.794,0,0,0,44.075,7.5a3.051,3.051,0,0,0,1.4,2.57,6.356,6.356,0,0,0,2.722.97c.227.038.252.05.391.076l.164-1.021h-.126a6.458,6.458,0,0,1-1.89-.4,2.47,2.47,0,0,1-1.764-2.331,3.851,3.851,0,0,1,1.55-2.911,6.2,6.2,0,0,1,2.419-1.26,5.285,5.285,0,0,1,1.411-.176l-.076-.932a8.51,8.51,0,0,1-1.5.139l-.718.025c-.416.013-.58.025-2.129.113l-1.978.126c-1.55.088-1.625.1-2.331.151-.391.025-.542.038-.718.038-.088,0-.214,0-.454-.013Zm7.736,1.21a8.861,8.861,0,0,1,1.285,2l.643-.378a9.566,9.566,0,0,0-1.3-1.953Zm1.436-.68a9.971,9.971,0,0,1,1.285,1.978l.63-.353a10.211,10.211,0,0,0-1.3-1.966Zm4.876-.4V6.716a8.1,8.1,0,0,1-1.537.391l.2.832a12.457,12.457,0,0,1,1.336-.466v3.389c0,.227-.063.277-.328.277a6.5,6.5,0,0,1-1.046-.088,3.006,3.006,0,0,1,.164.769c.328.025.617.038.844.038.92,0,1.147-.176,1.147-.869V7.195c.365-.126.491-.176.945-.365V6.111c-.428.176-.554.227-.945.365V3.78h.441a4.339,4.339,0,0,1,.769.05V3.024a4.339,4.339,0,0,1-.769.05h-.441v-1.2A7.071,7.071,0,0,1,55.415.6h-.932a8.664,8.664,0,0,1,.076,1.285V3.075h-.58a4.136,4.136,0,0,1-.832-.063v.832a4.371,4.371,0,0,1,.832-.063Zm2.218,6.426a4.636,4.636,0,0,1-.895.088l.151.769c.176-.05.454-.126.668-.164,1.2-.227,1.814-.365,2.57-.567v.491a10.724,10.724,0,0,1-.076,1.21h.832a8.72,8.72,0,0,1-.063-1.235V5.884h3.2a8.38,8.38,0,0,1,1.247.063V5.2a8.128,8.128,0,0,1-1.285.063H57.242A7.744,7.744,0,0,1,56.1,5.2v.731c.189-.025.378-.038.68-.05Zm.68-4.322H59.3v.932h-1.84Zm0,1.5H59.3v.945h-1.84Zm0,1.512H59.3v.819c-.718.164-.794.189-1.84.378Zm6.275-2.218a6.572,6.572,0,0,1-.857.038H61.135a5.482,5.482,0,0,1-.907-.05v.743a2.862,2.862,0,0,1,.428-.05A6.493,6.493,0,0,0,61.828,9.8a6.692,6.692,0,0,1-1.764,1.449,2.653,2.653,0,0,1,.491.567,7.612,7.612,0,0,0,1.714-1.487,8.323,8.323,0,0,0,1.915,1.537,2.676,2.676,0,0,1,.466-.668A6.741,6.741,0,0,1,62.7,9.8a8.722,8.722,0,0,0,1.159-2.155,3.913,3.913,0,0,1,.227-.542Zm-.517.68a6.3,6.3,0,0,1-.97,1.928,5.848,5.848,0,0,1-.92-1.928Zm-.945-2.8a9.495,9.495,0,0,1,1.159.05,10.428,10.428,0,0,1-.05-1.134V2.041a9.434,9.434,0,0,1,.05-1.1A9.3,9.3,0,0,1,62.244,1H58.351a9.053,9.053,0,0,1-1.184-.05,8.981,8.981,0,0,1,.05,1.071V3.465a10.979,10.979,0,0,1-.05,1.147,9.364,9.364,0,0,1,1.159-.05ZM57.96,1.613h4.675v.869H57.96Zm0,1.462h4.675v.882H57.96ZM69.25,4.309v.832H67.41a6.919,6.919,0,0,1-1.222-.076v.819a7.219,7.219,0,0,1,1.222-.076h4.385a7.206,7.206,0,0,1,1.172.063V5.078a7,7,0,0,1-1.184.063H70.006V4.309h1.26a10.788,10.788,0,0,1,1.147.038c-.025-.315-.038-.63-.038-1.1V2.029A8.319,8.319,0,0,1,72.412.882a9.922,9.922,0,0,1-1.2.05h-3.1a10.057,10.057,0,0,1-1.2-.05A9.209,9.209,0,0,1,66.969,2V3.251a10.636,10.636,0,0,1-.05,1.1,10.916,10.916,0,0,1,1.159-.038ZM67.7,1.537h3.944v.781H67.7Zm0,1.373h3.944V3.7H67.7ZM69.275,8.77v2.155c0,.214-.038.252-.3.252a3.825,3.825,0,0,1-.983-.126,4.146,4.146,0,0,1,.151.769,8,8,0,0,0,.857.05c.554,0,.731-.038.857-.164a.9.9,0,0,0,.176-.668V8.77h1.2a6.659,6.659,0,0,1,.945.05c-.025-.277-.038-.529-.038-.806V7.3c0-.277.013-.542.038-.819a6.143,6.143,0,0,1-.932.05H68.053a6.249,6.249,0,0,1-.932-.05,5.719,5.719,0,0,1,.05.819v.718a5.321,5.321,0,0,1-.05.806,6.469,6.469,0,0,1,.932-.05ZM67.9,7.157h3.5V8.178H67.9Zm-.252,1.991a4.628,4.628,0,0,1-1.512,1.991,2.786,2.786,0,0,1,.567.5,6.506,6.506,0,0,0,1.6-2.2Zm4.775,1.789a12.238,12.238,0,0,0-1.109-1.7l-.592.265A8.212,8.212,0,0,1,71.77,11.29ZM76.217.618a5.991,5.991,0,0,1-.731.844A8.067,8.067,0,0,1,72.765,3.3a2.556,2.556,0,0,1,.5.718,12.033,12.033,0,0,0,3.049-2.293c.441-.428.441-.428.63-.592Zm.416,3.2A5.894,5.894,0,0,1,75.562,5a9.525,9.525,0,0,1-2.822,1.9,3.1,3.1,0,0,1,.491.731,14.423,14.423,0,0,0,3.591-2.772,4.65,4.65,0,0,1,.517-.479Zm.315,3.5a6.481,6.481,0,0,1-1.033,1.26,10.662,10.662,0,0,1-3.591,2.495,3.279,3.279,0,0,1,.491.743,12.567,12.567,0,0,0,2.054-1.26,14.579,14.579,0,0,0,1.789-1.6,12.093,12.093,0,0,1,1-1.033Zm4.6-6.149a3.876,3.876,0,0,1,.05.668c0,.2,0,.441-.013.819-.1,3.969-.113,4.284-.113,5.128a3.51,3.51,0,0,0,.693,2.583,2.988,2.988,0,0,0,2.369.882,4.411,4.411,0,0,0,3.553-1.575,7.665,7.665,0,0,0,1.4-2.86,3.564,3.564,0,0,1-.907-.6,7.485,7.485,0,0,1-.617,1.978,3.619,3.619,0,0,1-3.377,2.192,2.378,2.378,0,0,1-1.575-.491,1.983,1.983,0,0,1-.592-1.512c-.013-.29-.025-.6-.025-.756,0-.567.038-2.281.088-3.793a19.427,19.427,0,0,1,.164-2.659Zm11.579,2.8a1.876,1.876,0,0,1,.214-.013h.05c.491.025.6.025,1.046.025.466,0,.617,0,.869-.013a25.341,25.341,0,0,1-2.369,6.968l.92.391a33.2,33.2,0,0,0,1.449-3.843c.34-1.147.693-2.57.882-3.566a18.417,18.417,0,0,0,2.129-.3c.252-.05.252-.05.353-.063l-.063-.869a10.389,10.389,0,0,1-2.268.428c.063-.378.1-.554.164-.958a11.913,11.913,0,0,1,.227-1.2l-1-.1a12.321,12.321,0,0,1-.277,2.318c-.365.025-.5.025-.756.025a8.69,8.69,0,0,1-1.575-.113Zm9.513.617c-.945-.038-1.134-.038-1.373-.038a14.275,14.275,0,0,0-3.339.416l.088.857a10.967,10.967,0,0,1,3.15-.428,12.65,12.65,0,0,1,1.487.088ZM98.053,7.308c-.668.857-.844,1.247-.844,1.814,0,1.247,1.071,1.89,3.137,1.89a12.626,12.626,0,0,0,2.243-.214c.416-.063.416-.063.554-.088l-.088-.945a9.362,9.362,0,0,1-2.785.428c-1.436,0-2.205-.4-2.205-1.159a1.516,1.516,0,0,1,.315-.895,4.222,4.222,0,0,1,.378-.479ZM111.46,3.2V1.663h3.931a10.418,10.418,0,0,1,1.323.076V.87a10.005,10.005,0,0,1-1.323.076H106.9A9.486,9.486,0,0,1,105.575.87v.869a10.707,10.707,0,0,1,1.323-.076H110.7V3.2h-1.688a8.41,8.41,0,0,1-1.046-.05,6.473,6.473,0,0,1,.05.895V8.53a6.4,6.4,0,0,1-.05.882,9.07,9.07,0,0,1,1.084-.05h4.133a9.07,9.07,0,0,1,1.084.05,6.4,6.4,0,0,1-.05-.882V4.045a6.473,6.473,0,0,1,.05-.895,8.281,8.281,0,0,1-1.046.05Zm-.756.68V5.8h-1.953V3.881Zm.756,0h2.029V5.8H111.46ZM110.7,6.464v2.23h-1.953V6.464Zm.756,0h2.029v2.23H111.46Zm4.07-2.974a7.728,7.728,0,0,1,.076,1.2v5.859h-8.9V4.7a7.254,7.254,0,0,1,.076-1.21h-.945a9.472,9.472,0,0,1,.076,1.3v5.67a11.385,11.385,0,0,1-.076,1.525h.882v-.718h8.87v.718h.882a11.171,11.171,0,0,1-.076-1.512V4.788a9.735,9.735,0,0,1,.076-1.3Zm6.628,1.373c0,.328-.013.643-.038.907q.473-.038.983-.038h1.5a8.84,8.84,0,0,1-3.515,1.512,2.489,2.489,0,0,1,.378.617,10.819,10.819,0,0,0,2.948-1.273,4.1,4.1,0,0,1,.592.655,12.179,12.179,0,0,1-3.969,1.8,2.98,2.98,0,0,1,.4.63,14.468,14.468,0,0,0,3.906-1.915,4.222,4.222,0,0,1,.353.806,13.735,13.735,0,0,1-4.649,2.331,2.019,2.019,0,0,1,.416.668,14.3,14.3,0,0,0,4.372-2.356,5.683,5.683,0,0,1,.063.882c0,.844-.151,1.033-.844,1.033a6.232,6.232,0,0,1-1.159-.113,3.4,3.4,0,0,1,.214.743,8.721,8.721,0,0,0,.92.05,1.748,1.748,0,0,0,1.2-.265,1.787,1.787,0,0,0,.416-1.373,5.653,5.653,0,0,0-.655-2.583,4.908,4.908,0,0,0-1.058-1.361c.214-.164.29-.227.6-.491h.58a10.011,10.011,0,0,0,1.058,2.659,8.4,8.4,0,0,0,2.621,2.822,6.253,6.253,0,0,1,.466-.731,6.638,6.638,0,0,1-2.558-2.52A12.277,12.277,0,0,0,129.856,6.4l-.643-.529a6.435,6.435,0,0,1-1.827,1.5,8.343,8.343,0,0,1-.6-1.638h1.676a9.632,9.632,0,0,1,.97.038,8.455,8.455,0,0,1-.025-.945V4.045a8.81,8.81,0,0,1,.038-.932,9.4,9.4,0,0,1-.983.038h-2a10.124,10.124,0,0,0,.895-1,3.3,3.3,0,0,1,.34-.416l-.441-.378a9.57,9.57,0,0,1-.983.038H124.45a1.277,1.277,0,0,0,.126-.2c.214-.353.214-.353.353-.554L124.06.454a4.711,4.711,0,0,1-.882,1.474A9.064,9.064,0,0,1,121,3.868a1.939,1.939,0,0,1,.491.529l.668-.542Zm.819-1.714A12.564,12.564,0,0,0,124,2.016h2.545a5.993,5.993,0,0,1-.97,1.134Zm-.1.592h2.356v1.4h-2.356Zm3.074,0h2.709v1.4H125.95Zm-6.149,6.64a12.642,12.642,0,0,1-.076,1.55h.895c-.038-.4-.05-.819-.05-1.562V3.679a19.827,19.827,0,0,0,.945-2.293c.126-.365.176-.5.252-.693l-.882-.227a7.32,7.32,0,0,1-.454,1.638,11.813,11.813,0,0,1-2.192,3.73,1,1,0,0,1,.277.34,3.529,3.529,0,0,0,.214.365A9.5,9.5,0,0,0,119.851,4.8c-.038.756-.05,1.235-.05,1.852Zm15.145-9.274a4.215,4.215,0,0,1,.214.794,25.668,25.668,0,0,0,.92,3.528,7.846,7.846,0,0,0-1.651,1.021,2.726,2.726,0,0,0-1.121,2.142,2.092,2.092,0,0,0,1.562,2.066,8.572,8.572,0,0,0,2.8.34,25.276,25.276,0,0,0,2.785-.164,6.53,6.53,0,0,1,.932-.076l-.1-1.046a12.51,12.51,0,0,1-3.6.428c-2.47,0-3.44-.441-3.44-1.588,0-1.046.932-1.877,3.087-2.734A28.978,28.978,0,0,1,141.12,4.6l-.378-.958a6.814,6.814,0,0,1-.806.328c-1.953.68-2.306.819-3.049,1.121A21.914,21.914,0,0,1,135.941.92Zm9.778,7.976a12.576,12.576,0,0,1,2.482,2.747l.706-.668a12.839,12.839,0,0,0-2.533-2.671ZM5.922,19.179a10.955,10.955,0,0,1-.4,2.747,10.2,10.2,0,0,1-1.94,3.667A10.569,10.569,0,0,1,.655,28.075a2.26,2.26,0,0,1,.68.743,11.922,11.922,0,0,0,1.588-1.235,11.97,11.97,0,0,0,1.7-1.915,10.854,10.854,0,0,0,1.764-4.082,9.928,9.928,0,0,0,.794,2.331,11.591,11.591,0,0,0,1.8,2.722,11.809,11.809,0,0,0,2.444,2.155,2.78,2.78,0,0,1,.706-.806A10.256,10.256,0,0,1,9.778,26.16a11.261,11.261,0,0,1-1.89-2.608,9.188,9.188,0,0,1-1.071-4.4,6.526,6.526,0,0,1,.05-.832A6,6,0,0,1,5.7,18.4H4.032a4.729,4.729,0,0,1-.958-.063v.907c.416-.038.718-.063.958-.063Zm13.495,1.084c.063-1.1.063-1.1.063-1.688a8.674,8.674,0,0,1,.063-1.021h-1a7.118,7.118,0,0,1,.076,1.222c0,.517-.013.92-.05,1.487H16.065a10.9,10.9,0,0,1-1.562-.076v.92a11.176,11.176,0,0,1,1.55-.076h2.47c-.29,2.7-1,4.322-2.457,5.645a7.772,7.772,0,0,1-2.117,1.361,2.016,2.016,0,0,1,.668.706,8.6,8.6,0,0,0,3.5-3.263,11.092,11.092,0,0,0,1.247-4.448H23.26a46.872,46.872,0,0,1-.277,4.9c-.189,1.525-.353,1.84-1.021,1.84a11.352,11.352,0,0,1-2.394-.315,3.961,3.961,0,0,1,.214.945,15.665,15.665,0,0,0,2.243.2c1.008,0,1.386-.34,1.613-1.436a39.066,39.066,0,0,0,.441-5.317c.025-1.2.025-1.2.063-1.651a10.2,10.2,0,0,1-1.474.063Zm8.694,1.172A2.783,2.783,0,0,1,28.6,21.4a37.1,37.1,0,0,0,4.486-.328c.076.126.076.151.214.416a15.365,15.365,0,0,0,1.512,2.47,6.292,6.292,0,0,0-2.608-.454,5.356,5.356,0,0,0-2.444.466,2.355,2.355,0,0,0-1.424,2.054,2.032,2.032,0,0,0,.567,1.386,4.62,4.62,0,0,0,3.276.945,10.446,10.446,0,0,0,3.7-.68l-.139-.97a8.307,8.307,0,0,1-3.578.806,4.268,4.268,0,0,1-2.457-.58,1.26,1.26,0,0,1-.479-.983,1.431,1.431,0,0,1,.68-1.172,4.467,4.467,0,0,1,2.394-.529,6.828,6.828,0,0,1,2.2.328,2.519,2.519,0,0,1,.869.517l.844-.479a23.334,23.334,0,0,1-2.268-3.667l.428-.088c.794-.151.945-.189,1.7-.391.378-.1.479-.126.743-.176l-.126-.895a14.746,14.746,0,0,1-3.049.794,10.365,10.365,0,0,1-.454-1.109,4.016,4.016,0,0,1-.365-1.134l-1,.139c.113.227.189.4.328.731.227.567.428,1.071.617,1.5a29.41,29.41,0,0,1-3.755.265,5.524,5.524,0,0,1-.97-.063Zm12.587,5.1a2.671,2.671,0,0,1,.328-.4c.214-.239.391-.441.529-.592.428-.479.428-.479.617-.693a1.4,1.4,0,0,0,.227-.3h.025c-.038.567-.038.567-.038,2.041a10.773,10.773,0,0,1-.088,2.079h.983a19.537,19.537,0,0,1-.038-2.092V23.854a20.432,20.432,0,0,1,2.432-2.142,3.587,3.587,0,0,1,1.9-.857.639.639,0,0,1,.693.68,9.445,9.445,0,0,1-.315,1.89,12.24,12.24,0,0,0-.479,2.936,1.45,1.45,0,0,0,1.474,1.7,2.169,2.169,0,0,0,1.739-.907,6.219,6.219,0,0,0,.781-1.247,4.147,4.147,0,0,1-.58-.857,5.185,5.185,0,0,1-.718,1.449,1.519,1.519,0,0,1-1.071.693c-.491,0-.756-.315-.756-.895a13.86,13.86,0,0,1,.542-2.986,8.416,8.416,0,0,0,.29-1.84A1.37,1.37,0,0,0,47.7,20a5.064,5.064,0,0,0-2.848,1.386,8.994,8.994,0,0,0-1.6,1.474l-.025-.013c0-.076.013-.1.013-.2a.643.643,0,0,0,.013-.113c.013-.592.013-.592.025-.844a2.147,2.147,0,0,0,.013-.315,4.342,4.342,0,0,1,.643-.781l-.328-.391a.823.823,0,0,1-.252.063,14.667,14.667,0,0,1,.151-2.243l-1-.013a5.129,5.129,0,0,1,.038.63c0,.164-.013.731-.05,1.688-1.058.063-1.613.1-1.651.1a2.55,2.55,0,0,1-.391-.025l.05.869a12.84,12.84,0,0,1,1.978-.176c-.038,1.109-.063,1.9-.076,2.407a19.348,19.348,0,0,1-2.218,2.129Zm13.117-5.468a1.876,1.876,0,0,1,.214-.013h.05c.491.025.6.025,1.046.025.466,0,.617,0,.869-.013a25.341,25.341,0,0,1-2.369,6.968l.92.391a33.2,33.2,0,0,0,1.449-3.843c.34-1.147.693-2.57.882-3.566a18.417,18.417,0,0,0,2.129-.3c.252-.05.252-.05.353-.063l-.063-.869a10.39,10.39,0,0,1-2.268.428c.063-.378.1-.554.164-.958a11.914,11.914,0,0,1,.227-1.2l-1-.1a12.321,12.321,0,0,1-.277,2.318c-.365.025-.5.025-.756.025a8.69,8.69,0,0,1-1.575-.113Zm9.513.617c-.945-.038-1.134-.038-1.373-.038a14.275,14.275,0,0,0-3.339.416l.088.857a10.967,10.967,0,0,1,3.15-.428,12.65,12.65,0,0,1,1.487.088Zm-4.586,2.722c-.668.857-.844,1.247-.844,1.814,0,1.247,1.071,1.89,3.137,1.89a12.626,12.626,0,0,0,2.243-.214c.416-.063.416-.063.554-.088l-.088-.945a9.361,9.361,0,0,1-2.785.428c-1.436,0-2.205-.4-2.205-1.159a1.516,1.516,0,0,1,.315-.895,4.222,4.222,0,0,1,.378-.479ZM72.916,19.8a12.734,12.734,0,0,1-2.57.542v-1.21a7.206,7.206,0,0,1,.063-1.172h-.932a8.37,8.37,0,0,1,.063,1.2V20.4c-.378.025-.869.038-1.21.038a7.136,7.136,0,0,1-1.285-.088v.832h.517c.139.013.479.013.668.013.365,0,.58,0,.806-.013.391-.025.391-.025.5-.038v2.381a6.74,6.74,0,0,0-1.777,1.033,2.28,2.28,0,0,0-1,1.676,1.52,1.52,0,0,0,.58,1.184,3.328,3.328,0,0,0,2.079.806c.617,0,.92-.328.92-1.008v-3.15a8.5,8.5,0,0,1,2.671-.491c1.651,0,2.7.769,2.7,2a1.673,1.673,0,0,1-1.688,1.777c-.92,0-1.3-.542-1.3-1.852a3.742,3.742,0,0,1,.025-.491,2.731,2.731,0,0,1-.832.328,4.6,4.6,0,0,0,.151,1.424,1.858,1.858,0,0,0,1.94,1.424,2.592,2.592,0,0,0,1.273-4.838,4.266,4.266,0,0,0-2.23-.529,8.927,8.927,0,0,0-2.709.454v-2.18a22.115,22.115,0,0,0,2.23-.378c.176-.038.227-.05.378-.076Zm-3.377,6.955c0,.542-.038.617-.29.617A2.353,2.353,0,0,1,68.128,27c-.365-.239-.542-.491-.542-.756,0-.6.706-1.285,1.953-1.89Zm7.573-5.33a10.588,10.588,0,0,0-2.545-2.394l-.655.491a10.32,10.32,0,0,1,2.545,2.47ZM81.421,27.9a7.832,7.832,0,0,1-.076,1.084H82.2v-.491h5.531v.491H88.6a7.075,7.075,0,0,1-.076-1.084V26.16c0-.315.013-.491.025-.769.693.214.97.29,1.777.491a2.99,2.99,0,0,1,.378-.844,14.074,14.074,0,0,1-5.053-1.714,17.934,17.934,0,0,0,2.318-2.016c.113-.126.139-.151.227-.239l-.466-.454a9.268,9.268,0,0,1-1.147.05H83.84c.239-.277.239-.277.3-.353s.113-.139.139-.176a1.126,1.126,0,0,1,.164-.176l-.819-.29a7.094,7.094,0,0,1-1.436,1.751,9.475,9.475,0,0,1-2.47,1.588,2.079,2.079,0,0,1,.542.6,11.02,11.02,0,0,0,2.419-1.739,9.864,9.864,0,0,0,1.663,1.449A14.538,14.538,0,0,1,79.166,25.2a2.236,2.236,0,0,1,.416.743,17.957,17.957,0,0,0,1.814-.517c.013.252.025.466.025.731Zm1.84-6.59h3.692A13.583,13.583,0,0,1,85,22.921,9.655,9.655,0,0,1,83.173,21.4Zm-.781,3.906h-.466A15.718,15.718,0,0,0,85,23.766,13.249,13.249,0,0,0,88.011,25.2c-.2.013-.3.013-.58.013Zm-.277.68h5.531v1.9H82.2Zm2.218-7.043H80.993a11.438,11.438,0,0,1-1.336-.063,5.988,5.988,0,0,1,.05.869v.706a6.171,6.171,0,0,1-.05.882h.806v-1.7h8.883v1.714h.819a5.84,5.84,0,0,1-.05-.882v-.718a5.662,5.662,0,0,1,.05-.869,11.974,11.974,0,0,1-1.411.063H85.226v-.328a5.035,5.035,0,0,1,.088-.907h-.97a6,6,0,0,1,.076.907Zm14.742,1.2v1.084H97.738a6.067,6.067,0,0,1-1.071-.063v.819a6.3,6.3,0,0,1,1.1-.063h1.4v1.134H97.209a8.511,8.511,0,0,1-1.1-.05v.781a6.314,6.314,0,0,1,1.084-.063h1.966v1.814a13.191,13.191,0,0,1-3.6,1.915l.365.832a4.819,4.819,0,0,1,.567-.34,17.179,17.179,0,0,0,2.671-1.625V28c0,.227-.076.277-.441.277a7.884,7.884,0,0,1-1.247-.113,2.008,2.008,0,0,1,.227.794,9.609,9.609,0,0,0,1.033.05c.945,0,1.184-.176,1.184-.857V25.782a10.535,10.535,0,0,0-.1-1.247,7.952,7.952,0,0,0,1.663,2.57,8.924,8.924,0,0,0,1.852,1.449,3.306,3.306,0,0,1,.529-.731,7.091,7.091,0,0,1-2.394-1.764,10.043,10.043,0,0,0,1.575-1.714l-.643-.454a6.789,6.789,0,0,1-1.373,1.625,6.923,6.923,0,0,1-1.033-1.89H102.4a7.534,7.534,0,0,1,1.134.076v-.819a7.476,7.476,0,0,1-1.147.076h-2.47V21.825h1.915a7.071,7.071,0,0,1,1.134.063v-.832a6.822,6.822,0,0,1-1.147.076h-1.9V20.049h2.293a7.362,7.362,0,0,1,1.147.076v-.819a7.476,7.476,0,0,1-1.147.076H101.1c.189-.3.6-1.033.806-1.436l-.743-.265a7.98,7.98,0,0,1-.857,1.7H98.847A8.133,8.133,0,0,0,97.94,17.7l-.668.29a6.1,6.1,0,0,1,.819,1.386h-.668a6.55,6.55,0,0,1-1.109-.063v.794a6.387,6.387,0,0,1,1.1-.063Zm-5.04.076h-.781a5.142,5.142,0,0,1-.882-.05v.781a5.431,5.431,0,0,1,.882-.05H94a12.677,12.677,0,0,1-.706,2.167,7.369,7.369,0,0,1-1.184,1.991,3.113,3.113,0,0,1,.479.781,10.122,10.122,0,0,0,1.638-3.856c-.013.214-.025.365-.025.466-.013.315-.025.542-.038.617-.038.6-.038.6-.038,1.109v3.566a10.71,10.71,0,0,1-.076,1.462h.907a10.214,10.214,0,0,1-.076-1.462V23.829c0-.441-.013-1-.05-2.054a8.656,8.656,0,0,0,.819,1.764,5.771,5.771,0,0,1,.441-.68A6.968,6.968,0,0,1,94.916,20.8h.454a7.454,7.454,0,0,1,.794.038v-.769a4.56,4.56,0,0,1-.794.05h-.491V18.889a8.311,8.311,0,0,1,.063-1.3h-.882a7.534,7.534,0,0,1,.063,1.31Zm2.255,4.183a7.779,7.779,0,0,1,1.184,1.55l.58-.416a11.587,11.587,0,0,0-1.2-1.525Zm15.813-5.09v.857h-1.5a7.224,7.224,0,0,1-1.159-.063v.743a7.539,7.539,0,0,1,1.147-.063h1.512v.932h-2.066a7.884,7.884,0,0,1-1.285-.076v.806a8.209,8.209,0,0,1,1.285-.076h5.355a9.759,9.759,0,0,1,1.247.076v-.806a7.778,7.778,0,0,1-1.247.076h-2.545v-.932h1.953a7.594,7.594,0,0,1,1.172.063v-.743a7.129,7.129,0,0,1-1.159.063h-1.966v-.857h2.344a7.912,7.912,0,0,1,1.222.063V18.5a6.156,6.156,0,0,1-1.235.076h-2.331a4.185,4.185,0,0,1,.076-.983h-.895a4.249,4.249,0,0,1,.076.983h-1.877a5.884,5.884,0,0,1-1.2-.076v.781a7.284,7.284,0,0,1,1.184-.063Zm-1.8,7.661h4.574v.983c0,.29-.076.34-.491.34a8.7,8.7,0,0,1-1.411-.151,2.623,2.623,0,0,1,.2.794c.542.038.945.063,1.285.063.945,0,1.184-.2,1.184-.983V24.345a11.463,11.463,0,0,1,.05-1.348,6.235,6.235,0,0,1-1.159.063h-3.868a10.133,10.133,0,0,1-1.172-.05,8.49,8.49,0,0,1,.038,1.1v3.553a8.948,8.948,0,0,1-.063,1.361h.907a8.655,8.655,0,0,1-.076-1.361Zm0-.643V25.29h4.574v.945Zm0-1.575V23.7h4.574v.958Zm-4.435-1A12.651,12.651,0,0,0,106.5,20.2l-.693-.189a9.948,9.948,0,0,1-.529,3.339Zm1.928,5.38a9.866,9.866,0,0,1-.088-1.436V18.864a7.861,7.861,0,0,1,.088-1.273h-.97A8.184,8.184,0,0,1,107,18.864V27.6a10.049,10.049,0,0,1-.088,1.449Zm1.285-7.825a13.336,13.336,0,0,0-.63-1.663l-.567.239a7.217,7.217,0,0,1,.58,1.714Zm16.519,1.588a9.98,9.98,0,0,0,1.487,3.629,7.739,7.739,0,0,1-1.751,1.84,3.289,3.289,0,0,1,.567.63,9.19,9.19,0,0,0,1.663-1.852,10.458,10.458,0,0,0,2.016,1.865,2.743,2.743,0,0,1,.517-.706,8.369,8.369,0,0,1-2.117-1.827,12.682,12.682,0,0,0,1.273-3.339,3.474,3.474,0,0,1,.151-.517l-.454-.466a5.919,5.919,0,0,1-1.008.05h-2.734V18.9h3.49c-.113,1.449-.176,1.613-.655,1.613a7.848,7.848,0,0,1-1.449-.176,3.664,3.664,0,0,1,.164.756,9.435,9.435,0,0,0,1.235.088c.643,0,.907-.088,1.1-.365a5.018,5.018,0,0,0,.378-1.789c.063-.68.063-.68.088-.895a6.864,6.864,0,0,1-1.058.05h-2.911a7.976,7.976,0,0,1-1.184-.063,11.028,11.028,0,0,1,.063,1.184v8.467a8.13,8.13,0,0,1-.088,1.26h.92a8.242,8.242,0,0,1-.088-1.26V22.808Zm2.923,0a10.858,10.858,0,0,1-1.021,2.948,7.945,7.945,0,0,1-1.2-2.948Zm-6.7-1.764V19.759h1.008a6.581,6.581,0,0,1,.932.05v-.794a5.935,5.935,0,0,1-.932.05h-1.008v-.378a7.567,7.567,0,0,1,.076-1.084h-.895a6.958,6.958,0,0,1,.076,1.084v.378h-1.184a6.013,6.013,0,0,1-.945-.05v.794a6.659,6.659,0,0,1,.945-.05h1.184v1.285h-1.5a5.467,5.467,0,0,1-1.008-.063V21.8a7.411,7.411,0,0,1,1.008-.05h3.553a6.982,6.982,0,0,1,1,.05v-.819a5.156,5.156,0,0,1-1,.063Zm.781,2.822a10.7,10.7,0,0,0,.668-1.777l-.693-.2a7.539,7.539,0,0,1-.68,1.978h-2.318a5.3,5.3,0,0,1-1.008-.063v.819a7.652,7.652,0,0,1,1.008-.05h1.5v1.273h-1.285a6.221,6.221,0,0,1-.945-.05V26.6a6.658,6.658,0,0,1,.945-.05h1.285v1.285a7.654,7.654,0,0,1-.088,1.2h.907a9.394,9.394,0,0,1-.076-1.2V26.55h1.159a6.7,6.7,0,0,1,.932.05v-.806a6.143,6.143,0,0,1-.932.05h-1.159V24.572h1.31a7.1,7.1,0,0,1,1,.05V23.8a4.847,4.847,0,0,1-1,.063Zm-1.877-.365a10.132,10.132,0,0,0-.5-1.625l-.63.2a8.9,8.9,0,0,1,.479,1.651Zm14.6-3.881a17.63,17.63,0,0,1-2.7-.139l-.013.869a2.234,2.234,0,0,1,.277-.013h.2c.466.013,1.651.038,1.852.038a1.4,1.4,0,0,0,.239-.025l-.113.189a12.538,12.538,0,0,1-2.822,3.6l.706.706a4.169,4.169,0,0,1,.97-1.046,4.733,4.733,0,0,1,2.81-1.336c.592,0,.895.3,1,1a9.781,9.781,0,0,0-1.877,1.008,2.605,2.605,0,0,0-1.285,1.991c0,1.3,1.1,1.94,3.352,1.94a19.547,19.547,0,0,0,3.062-.252,4.959,4.959,0,0,1,.5-.063l-.113-.97a10.557,10.557,0,0,1-3.364.491c-1.777,0-2.558-.365-2.558-1.2,0-.756.655-1.348,2.369-2.155a3.314,3.314,0,0,1,.013.378,18.122,18.122,0,0,1-.076,1.814l.857-.013a2.74,2.74,0,0,1-.025-.454c0-.113,0-.29.013-.567.013-.252.013-.529.013-.693,0-.315,0-.441-.025-.769a20.92,20.92,0,0,1,3.364-1.109l-.4-.882a2.772,2.772,0,0,1-.857.365c-.554.2-1.273.466-2.192.832a1.529,1.529,0,0,0-1.663-1.4,3.353,3.353,0,0,0-1.9.617c-.126.088-.126.088-.58.441a.1.1,0,0,1-.025-.038V22.77a.012.012,0,0,0,.013-.013,2.062,2.062,0,0,1,.164-.126c.05-.038.3-.328.428-.479a9.291,9.291,0,0,0,1.134-1.789,40.684,40.684,0,0,0,4.158-.328,3.928,3.928,0,0,1,.5-.063l-.076-.857a17.734,17.734,0,0,1-3.969.479,2.145,2.145,0,0,0-.265.013c.063-.113.227-.454.391-.857a2.676,2.676,0,0,1,.328-.68l-1.008-.176a5.348,5.348,0,0,1-.6,1.726Zm17.8,8.165V26.3h1.159a8.727,8.727,0,0,1,1.121.063V25.58a6.866,6.866,0,0,1-1.147.063h-1.134V24.282h1.159a8.727,8.727,0,0,1,1.121.063v-.781a6.866,6.866,0,0,1-1.147.063h-1.134V22.254h1.336a9.109,9.109,0,0,1,1.121.063v-.781a6.866,6.866,0,0,1-1.147.063h-1.109c.038-.076.038-.076.176-.378.1-.239.176-.4.214-.491a3.8,3.8,0,0,1,.151-.378l-.769-.189a6.232,6.232,0,0,1-.529,1.436h-1.7a10.322,10.322,0,0,0,1.033-1.966h3.226v1.386h.806a3.888,3.888,0,0,1-.05-.693V19.7a6.936,6.936,0,0,1,.038-.832,9.216,9.216,0,0,1-1.26.063h-2.495c.076-.227.126-.353.2-.592.151-.454.151-.454.227-.655l-.832-.151a11.118,11.118,0,0,1-.365,1.4h-1.361a10.044,10.044,0,0,1-1.109-.025c.025.353.025.428.025.655v.731a4.186,4.186,0,0,1-.05.756h.781V19.633h1.449a8.711,8.711,0,0,1-.454.983,9.8,9.8,0,0,1-2.243,2.923,2.316,2.316,0,0,1,.479.655,6.626,6.626,0,0,0,.869-1.071c-.013.1-.025.517-.05,1.247v3.4a9.238,9.238,0,0,1-.076,1.323h.794v-.63h4.2a9.394,9.394,0,0,1,1.2.076v-.819a7.751,7.751,0,0,1-1.2.063Zm-2.671-4.158V22.254H152.5v1.373Zm0,.655H152.5v1.361h-1.953Zm0,2.016H152.5v1.487h-1.953Zm-4.1-7.434a12.4,12.4,0,0,1-.491,2.243,8.789,8.789,0,0,1-1.537,3.049,2.132,2.132,0,0,1,.454.706,6.41,6.41,0,0,0,.857-1.588c-.025.391-.063,1.21-.063,1.361v2.873a7.465,7.465,0,0,1-.076,1.21h.819v-1.31h1.373v.617h.756a8.118,8.118,0,0,1-.05-1.058V23.06a7.736,7.736,0,0,1,.05-1.021,4.881,4.881,0,0,1-.781.05h-1.386a16.04,16.04,0,0,0,.844-3.226h.718a6.981,6.981,0,0,1,.92.05v-.832a6.623,6.623,0,0,1-1.058.076h-1.751a7.477,7.477,0,0,1-1.121-.076v.857A5.188,5.188,0,0,1,146,18.864Zm-.038,3.919h1.373v3.931h-1.373ZM5.494,37.35a13.783,13.783,0,0,1,1.663.668,4.826,4.826,0,0,1-2.381,2.306,2.336,2.336,0,0,1,.554.6,6.1,6.1,0,0,0,2.47-2.57,8.444,8.444,0,0,1,1.222.781l.416-.617c-.643-.4-.882-.529-1.386-.794a8.1,8.1,0,0,0,.365-1.663H10.7a15.106,15.106,0,0,1-.315,2.923c-.139.542-.252.655-.693.655A5.707,5.707,0,0,1,8.505,39.5a2.281,2.281,0,0,1,.189.794,10.079,10.079,0,0,0,1.033.063c.68,0,.945-.1,1.134-.454a11.335,11.335,0,0,0,.617-3.982c.025-.353.025-.428.05-.6a9.86,9.86,0,0,1-1.172.05H6.5A8.027,8.027,0,0,1,5.229,35.3v.844a6.521,6.521,0,0,1,1.26-.076H7.673A7.21,7.21,0,0,1,7.4,37.413a14.527,14.527,0,0,0-1.537-.6ZM1.084,36a6.1,6.1,0,0,1,.907-.05H3.629a6.317,6.317,0,0,1,.907.05v-.794a4.482,4.482,0,0,1-.907.063H1.991a4.407,4.407,0,0,1-.907-.063ZM.63,37.766a7.411,7.411,0,0,1,1.008-.05H3.906a8.872,8.872,0,0,1,.92.038v-.806a4.988,4.988,0,0,1-1.008.063H1.638A5.3,5.3,0,0,1,.63,36.947ZM1.121,39.5a5,5,0,0,1,.857-.05H3.667a5.315,5.315,0,0,1,.844.05v-.781a4.653,4.653,0,0,1-.844.05H1.978a5,5,0,0,1-.857-.05Zm0,1.739a5.286,5.286,0,0,1,.857-.05H3.667a5.315,5.315,0,0,1,.844.05v-.781a4.743,4.743,0,0,1-.844.05H1.978a5.092,5.092,0,0,1-.857-.05ZM1.94,46.12v-.706H3.7v.542h.769a5.857,5.857,0,0,1-.063-1.033V43.146a8.917,8.917,0,0,1,.038-.983,7.2,7.2,0,0,1-.92.038H2.192a7.264,7.264,0,0,1-1.021-.05,8.325,8.325,0,0,1,.05,1.033V44.9c0,.428-.025.832-.063,1.222Zm-.013-3.276H3.7v1.915H1.928ZM5.468,42a6.7,6.7,0,0,1-.806,2.848l.68.353a9.015,9.015,0,0,0,.844-3.049Zm2.029.769a3.886,3.886,0,0,1,.076-.97H6.678a6.356,6.356,0,0,1,.076,1.021v2.255c0,.655.277.794,1.55.794s1.638-.063,1.89-.315.391-.781.491-1.928a2.257,2.257,0,0,1-.718-.265,7.755,7.755,0,0,1-.1,1.071c-.076.529-.176.655-.6.706-.126.013-.706.038-1,.038-.643,0-.769-.05-.769-.315Zm2.8-.6A10.085,10.085,0,0,1,11.781,44.9l.668-.416a11.27,11.27,0,0,0-1.537-2.659ZM7.069,40.677a6.951,6.951,0,0,1,2,1.726l.567-.529A10.332,10.332,0,0,0,7.61,40.223Zm8.959-5.3a3.876,3.876,0,0,1,.05.668c0,.2,0,.441-.013.819-.1,3.969-.113,4.284-.113,5.128a3.51,3.51,0,0,0,.693,2.583,2.988,2.988,0,0,0,2.369.882,4.411,4.411,0,0,0,3.553-1.575,7.665,7.665,0,0,0,1.4-2.86,3.564,3.564,0,0,1-.907-.6,7.485,7.485,0,0,1-.617,1.978,3.619,3.619,0,0,1-3.377,2.192,2.378,2.378,0,0,1-1.575-.491,1.983,1.983,0,0,1-.592-1.512c-.013-.29-.025-.6-.025-.756,0-.567.038-2.281.088-3.793a19.427,19.427,0,0,1,.164-2.659Zm10.76,7.913a12.575,12.575,0,0,1,2.482,2.747l.706-.668a12.839,12.839,0,0,0-2.533-2.671Zm19.807-5.531a12.924,12.924,0,0,1-.126,1.978H44.554a8.51,8.51,0,0,1-1.235-.076v.869a8.632,8.632,0,0,1,1.235-.076h1.764a4.7,4.7,0,0,1-2.961,3,1.755,1.755,0,0,1,.567.655A5.67,5.67,0,0,0,47,40.84a5.447,5.447,0,0,0,1.348,1.915,6.739,6.739,0,0,0,2.318,1.436,2.053,2.053,0,0,1,.466-.756,6.047,6.047,0,0,1-2.621-1.575,5.171,5.171,0,0,1-.958-1.411h2.293a8.643,8.643,0,0,1,1.26.076v-.869a7.907,7.907,0,0,1-1.21.076H47.237a13.562,13.562,0,0,0,.139-1.978h2.142a8.5,8.5,0,0,1,1.21.076v-.844a7.894,7.894,0,0,1-1.184.076H48.409a17.3,17.3,0,0,0,1.109-2.029l-.769-.315a13.555,13.555,0,0,1-1.172,2.344H44.894a8.2,8.2,0,0,1-1.2-.076v.844a8.2,8.2,0,0,1,1.2-.076Zm-2.054-2.722a9.34,9.34,0,0,1,1.109,1.877l.68-.391a10.3,10.3,0,0,0-1.109-1.852Zm-4.246.441a11.992,11.992,0,0,1,1.953,2.281l.643-.567a17.047,17.047,0,0,0-2.016-2.23Zm-.29,4.952a4.936,4.936,0,0,1,.92-.063h.832V43.4a7.747,7.747,0,0,1-2.029,1.537l.416.832c.151-.139.34-.3.454-.391a13.142,13.142,0,0,0,1.525-1.336,2.941,2.941,0,0,0,1.814,1.386,11.449,11.449,0,0,0,3.314.252c1.26,0,2.281-.025,4.019-.088a3.1,3.1,0,0,1,.29-.92,34.407,34.407,0,0,1-4.876.252,8.774,8.774,0,0,1-2.785-.265,2.363,2.363,0,0,1-1.361-1.285V40.929a9.622,9.622,0,0,1,.063-1.336,7.529,7.529,0,0,1-.97.063h-.655a5.026,5.026,0,0,1-.97-.063Zm15.17-2.759a15.988,15.988,0,0,0,.794-2.041,6.387,6.387,0,0,1,.239-.706l-.857-.265a7.264,7.264,0,0,1-.479,1.777,10.744,10.744,0,0,1-2.117,3.616,2.167,2.167,0,0,1,.5.693,8.763,8.763,0,0,0,1.184-1.865c-.038.68-.038.895-.038,1.525v4.208a12.983,12.983,0,0,1-.076,1.512h.907a12.713,12.713,0,0,1-.063-1.474Zm8.1-2.381a7.778,7.778,0,0,1-1.285.076H58.149a7.242,7.242,0,0,1-1.121-.076v.844a6.4,6.4,0,0,1,1.084-.063h3.906a10.318,10.318,0,0,1,1.26.063Zm0,3.515a6.3,6.3,0,0,1-1.1.063H58.01A5.3,5.3,0,0,1,57,38.8v.806a5.635,5.635,0,0,1,1.008-.063h4.183a6.5,6.5,0,0,1,1.084.063Zm0,1.726a6.226,6.226,0,0,1-1.084.063H58.01A5.3,5.3,0,0,1,57,40.525v.794a7.294,7.294,0,0,1,1.008-.05h4.183a6.4,6.4,0,0,1,1.084.063Zm-5.569,4.927h4.738v.668h.844a8.137,8.137,0,0,1-.063-1.159v-1.5a10.757,10.757,0,0,1,.05-1.2,9.052,9.052,0,0,1-1.184.05H57.935a7.908,7.908,0,0,1-1.046-.05c.025.328.05.731.05,1.2v1.5a9.383,9.383,0,0,1-.063,1.159h.832Zm0-.693V43.008h4.738v1.751Zm-1.625-6.867a6.736,6.736,0,0,1,1.058-.076h6.01a8.821,8.821,0,0,1,1.222.076v-.869a8.14,8.14,0,0,1-1.21.076H57.141a6.4,6.4,0,0,1-1.058-.076Zm12.361-2.52a3.876,3.876,0,0,1,.05.668c0,.2,0,.441-.013.819-.1,3.969-.113,4.284-.113,5.128a3.51,3.51,0,0,0,.693,2.583,2.988,2.988,0,0,0,2.369.882,4.411,4.411,0,0,0,3.553-1.575,7.665,7.665,0,0,0,1.4-2.86,3.564,3.564,0,0,1-.907-.6,7.485,7.485,0,0,1-.617,1.978,3.619,3.619,0,0,1-3.377,2.192,2.378,2.378,0,0,1-1.575-.491,1.983,1.983,0,0,1-.592-1.512c-.013-.29-.025-.6-.025-.756,0-.567.038-2.281.088-3.793a19.427,19.427,0,0,1,.164-2.659Zm21.206,8.82a4.306,4.306,0,0,1-.428-.29,11.029,11.029,0,0,0-3.515-1.84c-.05-1.222-.05-1.222-.076-1.928.932-.063,1.928-.164,2.8-.3.441-.063.567-.076.731-.088l-.05-.869a15.208,15.208,0,0,1-3.49.517c-.013-.668-.013-.668-.025-1.7a26.175,26.175,0,0,0,2.923-.3c.655-.088.655-.088.869-.1l-.063-.857a17.762,17.762,0,0,1-3.73.517,14.063,14.063,0,0,1,.088-1.777h-.97a9.867,9.867,0,0,1,.063,1.814c-.416,0-.844.013-1.1.013a15.653,15.653,0,0,1-3.226-.252l-.013.857a1.029,1.029,0,0,1,.176-.013,1.529,1.529,0,0,1,.227.013c1.134.088,2.155.126,3.074.126.29,0,.491,0,.857-.013l.025,1.726c-.353.013-.794.013-1.121.013a15.464,15.464,0,0,1-2.885-.2l-.013.832h.1c.076,0,.176,0,.315.013.781.063,1.373.088,2.129.088.4,0,1.033-.013,1.487-.025.013.328.013.567.025.731.013.365.013.63.025.743a1,1,0,0,0,.013.139c0,.113,0,.113.013.151a5.6,5.6,0,0,0-1.134-.1,5.488,5.488,0,0,0-1.31.126c-1.109.252-1.764.907-1.764,1.739a1.648,1.648,0,0,0,.68,1.323,3.282,3.282,0,0,0,1.953.5,2.537,2.537,0,0,0,2.129-.794,2.188,2.188,0,0,0,.315-1.373,3.623,3.623,0,0,0-.025-.454c.34.139.63.265.844.378a10.139,10.139,0,0,1,2.57,1.8ZM84.9,43.171a1.65,1.65,0,0,1-.252,1.134,1.82,1.82,0,0,1-1.386.416c-1.1,0-1.726-.378-1.726-1.046s.819-1.121,2.066-1.121a4.625,4.625,0,0,1,1.285.139Zm13.8-6.363c-.857.025-1.84.05-3.049.1-2.029.076-2.029.076-2.394.076-.189,0-.277,0-.5-.013l.038.92c.844-.139,3.389-.265,5.922-.315v.655c0,.151.013.277.013.328,0,.466,0,.517.013.693a1.935,1.935,0,0,0-1.462-.567,2.1,2.1,0,0,0-2.23,2.079,2.107,2.107,0,0,0,3.654,1.31,1.765,1.765,0,0,0,.34-.617,3.264,3.264,0,0,1-1.411,2.659,6.458,6.458,0,0,1-2.041.945,2.766,2.766,0,0,1,.554.794,8.014,8.014,0,0,0,1.991-1.021,4.055,4.055,0,0,0,1.688-3.289,3.61,3.61,0,0,0-.3-1.487V37.564c1.021-.025,1.159-.025,1.348-.025a22.394,22.394,0,0,1,2.407.063v-.895c-.416.05-1.386.076-3.767.088v-.139a10.431,10.431,0,0,1,.063-1.575H98.62a4.246,4.246,0,0,1,.05.731Zm-.038,3.679a1.412,1.412,0,0,1-1.474,1.487,1.218,1.218,0,0,1-1.3-1.247,1.333,1.333,0,0,1,1.4-1.323,1.612,1.612,0,0,1,.844.2A.912.912,0,0,1,98.658,40.488Zm7.5,1.751a1.89,1.89,0,1,0,1.89,1.89A1.887,1.887,0,0,0,106.155,42.239Zm0,.718a1.172,1.172,0,1,1-1.172,1.172A1.178,1.178,0,0,1,106.155,42.957Z" transform="translate(989.726 6981.063)" fill="#333"/>
    <g id="グループ_688" data-name="グループ 688">
      <path id="パス_532" data-name="パス 532" d="M979.274,6984.975H957.78a3.487,3.487,0,0,0-3.533,3.533V7010a3.583,3.583,0,0,0,3.533,3.533h21.494a3.583,3.583,0,0,0,3.533-3.533v-21.494A3.487,3.487,0,0,0,979.274,6984.975Z" fill="#68be8d"/>
      <path id="パス_651" data-name="パス 651" d="M6.545-4.9v-6.275L2.108-4.9ZM6.574,0V-3.384H.5v-1.7l6.342-8.8h1.47V-4.9h2.04v1.518H8.314V0Z" transform="translate(963.032 7006.779)" fill="#fff"/>
    </g>
  </g>
</svg>
