<svg xmlns="http://www.w3.org/2000/svg" width="852.887" height="333.834" viewBox="0 0 852.887 333.834">
  <g id="グループ_738" data-name="グループ 738" transform="translate(-259.679 -4401.879)">
    <g id="グループ_517" data-name="グループ 517">
      <rect id="長方形_301" data-name="長方形 301" width="416.271" height="36" transform="translate(695.163 4699.714)" fill="#ff8e66"/>
      <path id="パス_587" data-name="パス 587" d="M-82.656-18.192a16.875,16.875,0,0,1,3.528,3.216l1.752-1.92A15.667,15.667,0,0,0-80.9-19.968Zm-.624,6.024A16.326,16.326,0,0,1-79.512-9l1.608-2.088a19.251,19.251,0,0,0-3.768-2.928Zm3.336,4.9c-1.032,3.624-1.944,5.712-3.144,7.248l2.256,1.872c.264-.576.312-.672.528-1.152a34.381,34.381,0,0,0,2.448-6.5Zm8.9,3.336c.552,0,1.1.024,1.68.072-.048-.576-.072-1.152-.072-2.112V-17.3a18.592,18.592,0,0,1,.1-2.208c-.5.048-1.128.072-1.872.1h-3.936a12.876,12.876,0,0,1-1.9-.1c.048.816.072,1.3.072,2.064V-6.072c0,1.1-.024,1.584-.072,2.208a15.834,15.834,0,0,1,1.656-.072Zm-3.7-13.3h3.024V-15h-3.024Zm0,4.3h3.024v2.28h-3.024Zm0,4.344h3.024v2.5h-3.024Zm1.752,6.1a20.4,20.4,0,0,0,3.192,4.3A9.584,9.584,0,0,1-67.92.072a11.994,11.994,0,0,1-3.144-3.72Zm7.56-1.44A15.113,15.113,0,0,1-65.52-6V-16.44a12,12,0,0,1,.12-2.088h-2.64a12.062,12.062,0,0,1,.12,2.04V-5.976a12.236,12.236,0,0,1-.12,2.04Zm-10.152.264a8.5,8.5,0,0,1-3.1,3.864,12.657,12.657,0,0,1,1.8,1.8A14.291,14.291,0,0,0-73.608-2.5ZM-61.56-17.04a16.106,16.106,0,0,1,.144-2.76H-64.1a23.709,23.709,0,0,1,.144,2.76v15.6c0,.552-.144.648-.96.648a14.588,14.588,0,0,1-2.448-.192,9.674,9.674,0,0,1,.6,2.544c.48.024,1.536.048,2.04.048,2.52,0,3.168-.528,3.168-2.52ZM-49.032-1.992A6.955,6.955,0,0,1-52.68-5.328c.36-1.128.5-1.68.624-2.16.216-.984.216-1.008.336-1.416l-2.664-.5a14.877,14.877,0,0,1-.48,2.592A14.21,14.21,0,0,1-58.992-.024a6.532,6.532,0,0,1,2.064,1.968,17,17,0,0,0,3.288-4.7c1.968,2.9,5.112,4.128,10.728,4.128,1.9,0,3.144-.024,5.112-.072a9.335,9.335,0,0,1,.672-2.736c-2.448.216-4.08.288-5.472.288a28.056,28.056,0,0,1-3.912-.24V-5.52h4.536a16.2,16.2,0,0,1,2.352.12V-7.968a12.31,12.31,0,0,1-2.352.144h-4.536V-10.9h3.144a17.206,17.206,0,0,1,2.472.12V-13.32a16.8,16.8,0,0,1-2.472.12H-52.56a16.084,16.084,0,0,1-2.424-.12v2.544a17.085,17.085,0,0,1,2.424-.12h3.528Zm-.408-15.72H-55.7c-.96,0-1.776-.024-2.64-.1.048.552.1,1.152.1,1.776v1.848a10.607,10.607,0,0,1-.12,1.9H-55.7v-3h15.5v3h2.592a15.5,15.5,0,0,1-.1-1.872v-1.872a13.205,13.205,0,0,1,.1-1.776c-.888.072-1.7.1-2.664.1h-6.48v-.912a7.287,7.287,0,0,1,.12-1.512h-2.952A7.767,7.767,0,0,1-49.44-18.6Zm15.384,4.1a30.121,30.121,0,0,1,3.984-.48c4.656-.336,6.144-.48,8.088-.768a10.613,10.613,0,0,0-3.336,2.424,8.357,8.357,0,0,0-2.28,5.64,6.421,6.421,0,0,0,3.432,5.784A14.439,14.439,0,0,0-18.552.576c.456.072.5.072.816.144l.432-3.264c-.24.024-.456.024-.48.024a14.564,14.564,0,0,1-3.576-.624,4.03,4.03,0,0,1-3.192-3.912c0-2.424,1.8-4.824,4.848-6.408a10.733,10.733,0,0,1,4.752-1.3,3.716,3.716,0,0,1,.5.024l-.168-3.048a12.931,12.931,0,0,1-2.472.192c-6.408.312-10.512.528-12.264.624-3.528.24-3.528.24-3.96.24-.12,0-.384,0-.912-.024Zm14.688,2.3a16.2,16.2,0,0,1,2.52,3.576l1.68-.888a15.553,15.553,0,0,0-2.52-3.528Zm7.056,1.128a13.879,13.879,0,0,0-2.5-3.384l-1.608.84a17.683,17.683,0,0,1,2.448,3.48Zm8.184,2.064c0,.264,0,.432-.024.744H-7.584a14.5,14.5,0,0,1-2.52-.144v2.568a15.333,15.333,0,0,1,2.52-.144h3.072a5.455,5.455,0,0,1-1.7,2.664,9.924,9.924,0,0,1-4.44,2.136,8.76,8.76,0,0,1,1.7,2.352C-6,.912-4.56-.048-3.36-1.632A8.44,8.44,0,0,0-1.872-5.088h3.1V-.432c0,1.68.768,2.088,4.032,2.088,4.608,0,5.04-.36,5.568-4.416A8.189,8.189,0,0,1,8.232-3.6,5.614,5.614,0,0,1,7.8-1.2c-.264.336-.84.456-2.16.456A5.551,5.551,0,0,1,4.1-.864c-.36-.1-.384-.144-.384-.648V-5.088H7.536a18.31,18.31,0,0,1,2.52.144V-7.512a14.334,14.334,0,0,1-2.52.144H3.72V-9.96a19.347,19.347,0,0,1,2.3.1V-10.9a24.055,24.055,0,0,0,3.96,2.16,9.79,9.79,0,0,1,1.344-2.376,21.3,21.3,0,0,1-3.84-1.824,18.591,18.591,0,0,0,2.16-2.208c.48-.528.528-.6.672-.744L8.112-17.136a14.151,14.151,0,0,1-2.5,2.9c-.5-.384-.768-.6-1.416-1.152a24.785,24.785,0,0,0,1.776-1.8c.552-.648.864-1.008.936-1.1L4.7-19.512c-.072.12-.072.12-.192.312a4.209,4.209,0,0,1-.5.7,12.618,12.618,0,0,1-1.416,1.536A5.908,5.908,0,0,1,1.1-19.584a13.819,13.819,0,0,1-2.064.1H-5.4a13.714,13.714,0,0,1-1.992-.12v2.5l-.768-.624-1.968,1.464a16.441,16.441,0,0,1,3.36,3.144A20.586,20.586,0,0,1-11.352-10.8,9.081,9.081,0,0,1-9.936-8.592,23.66,23.66,0,0,0-5.712-10.92v1.056c.6-.048.864-.072,1.608-.1ZM-1.56-9.96H1.224v2.592H-1.584V-7.92Zm-.864-7.248A15.521,15.521,0,0,1-4.776-14.64a20.648,20.648,0,0,0-2.616-2.472,10.684,10.684,0,0,1,1.464-.1Zm-.912,4.992h-.648A20.039,20.039,0,0,0,.072-16.56a20.1,20.1,0,0,0,4.08,4.344H-3.336Zm23.28,7.128A4.808,4.808,0,0,1,17.664-1.7,11.991,11.991,0,0,1,12.984-.12a7.53,7.53,0,0,1,1.392,2.352,12.273,12.273,0,0,0,6.1-2.88,7.36,7.36,0,0,0,2.28-4.44h2.16v4.68c0,1.8.72,2.136,4.7,2.136,2.712,0,3.744-.192,4.416-.816.6-.576.84-1.464,1.08-4.128A9.94,9.94,0,0,1,32.64-4.224a7.621,7.621,0,0,1-.432,3.072c-.288.408-.768.5-2.616.5C27.72-.648,27.5-.72,27.5-1.392v-3.7h2.064c.984,0,1.92.024,2.544.072a17.91,17.91,0,0,1-.12-2.544v-8.76a28.562,28.562,0,0,1,.12-3,18.539,18.539,0,0,1-2.544.12H18.5a18.371,18.371,0,0,1-2.52-.12,29.238,29.238,0,0,1,.12,3v8.76a18.539,18.539,0,0,1-.12,2.544c.624-.048,1.44-.072,2.592-.072ZM18.624-16.8H29.448v1.56H18.624Zm0,3.816H29.448v1.608H18.624Zm0,3.864H29.448v1.7H18.624Zm34.968-7.632V-1.416c0,.624-.192.744-1.08.744a31.7,31.7,0,0,1-3.6-.264,9.248,9.248,0,0,1,.672,2.664c1.056.048,1.944.072,2.64.072,3.408,0,4.056-.408,4.056-2.664V-16.752a26.664,26.664,0,0,1,2.688.144V-19.32a27.3,27.3,0,0,1-2.952.144H40.3a25.469,25.469,0,0,1-2.9-.144v2.712a28.957,28.957,0,0,1,2.952-.144ZM50.3-12.216a11.722,11.722,0,0,1,.12-2.04,20.955,20.955,0,0,1-2.3.1H42.072a19.038,19.038,0,0,1-2.232-.1,14.7,14.7,0,0,1,.12,2.208v7.56a16.882,16.882,0,0,1-.144,2.16h2.76V-4.32h5.64c.1,0,.312,0,.624.024h.624c.432.024.528.024.936.072a16.206,16.206,0,0,1-.1-1.944Zm-7.752.384h5.184v5.184H42.552Zm18.648-1.3a11.052,11.052,0,0,1,1.56-.168c1.656-.1,5.736-.528,7.272-.768.168.384.288.672.552,1.3l2.16-1.272a35.955,35.955,0,0,0-2.976-5.016l-1.92.936c.528.864.672,1.08,1.1,1.92-1.488.192-2.064.24-3.6.336.552-.912,1.416-2.52,1.7-3.144a7.679,7.679,0,0,1,.456-.888l-2.784-.5a16.711,16.711,0,0,1-2.016,4.656h-.36a1.637,1.637,0,0,1-.288.024,10.559,10.559,0,0,1-1.152-.072ZM75.456-18.1a10.228,10.228,0,0,1,.12-1.944h-2.76a12.027,12.027,0,0,1,.12,2.064V-12a1.437,1.437,0,0,0,.936,1.584,8.562,8.562,0,0,0,3.288.336c3.144,0,4.056-.144,4.68-.744.552-.552.768-1.368.96-3.624a8.947,8.947,0,0,1-2.4-.744c-.048,1.776-.144,2.256-.408,2.5-.312.24-.864.312-2.808.312-1.512,0-1.728-.1-1.728-.672v-1.512A33.623,33.623,0,0,0,81-16.68c1.176-.576,1.176-.576,1.68-.792L80.9-19.68A12.052,12.052,0,0,1,78.12-18a15.29,15.29,0,0,1-2.664,1.008ZM75.48-7.008A9.883,9.883,0,0,1,75.6-9H72.84a11.778,11.778,0,0,1,.12,2.136V-.552a1.557,1.557,0,0,0,.744,1.56c.624.384,1.392.48,3.744.48,3.024,0,3.864-.168,4.512-.888.624-.7.888-1.608,1.056-3.864a9.786,9.786,0,0,1-2.448-.816,7.108,7.108,0,0,1-.384,2.76c-.216.36-.816.48-2.4.48a7.216,7.216,0,0,1-1.7-.12c-.456-.1-.6-.24-.6-.648V-3.864a34.6,34.6,0,0,0,3.576-1.1c.744-.288,3.1-1.344,3.792-1.728L81.024-8.808A15.853,15.853,0,0,1,75.48-6.216ZM62.28-.648a20.149,20.149,0,0,1-.12,2.616H64.9A20.957,20.957,0,0,1,64.776-.7V-3.072h4.032V-1.08c-.048.36-.144.432-.648.432a8.475,8.475,0,0,1-1.608-.168,9.774,9.774,0,0,1,.528,2.448c.432.024.792.024,1.008.024a4.868,4.868,0,0,0,2.52-.456c.48-.288.672-.84.672-1.872v-9.552c0-1.2.024-1.584.072-2.256a17.471,17.471,0,0,1-2.16.1h-5.28a17.034,17.034,0,0,1-1.728-.072,21.086,21.086,0,0,1,.1,2.208ZM64.752-10.2h4.056v1.488H64.752Zm0,3.552h4.056V-5.16H64.752Z" transform="translate(903.298 4726.834)" fill="#fff"/>
    </g>
    <g id="グループ_518" data-name="グループ 518">
      <rect id="長方形_302" data-name="長方形 302" width="406" height="36" transform="translate(259.679 4699.714)" fill="#82c195"/>
      <path id="パス_586" data-name="パス 586" d="M-106.656-18.192a16.875,16.875,0,0,1,3.528,3.216l1.752-1.92a15.667,15.667,0,0,0-3.528-3.072Zm-.624,6.024A16.326,16.326,0,0,1-103.512-9l1.608-2.088a19.251,19.251,0,0,0-3.768-2.928Zm3.336,4.9c-1.032,3.624-1.944,5.712-3.144,7.248l2.256,1.872c.264-.576.312-.672.528-1.152a34.381,34.381,0,0,0,2.448-6.5Zm8.9,3.336c.552,0,1.1.024,1.68.072-.048-.576-.072-1.152-.072-2.112V-17.3a18.592,18.592,0,0,1,.1-2.208c-.5.048-1.128.072-1.872.1h-3.936a12.876,12.876,0,0,1-1.9-.1c.048.816.072,1.3.072,2.064V-6.072c0,1.1-.024,1.584-.072,2.208a15.834,15.834,0,0,1,1.656-.072Zm-3.7-13.3h3.024V-15h-3.024Zm0,4.3h3.024v2.28h-3.024Zm0,4.344h3.024v2.5h-3.024Zm1.752,6.1a20.4,20.4,0,0,0,3.192,4.3A9.584,9.584,0,0,1-91.92.072a11.994,11.994,0,0,1-3.144-3.72Zm7.56-1.44A15.113,15.113,0,0,1-89.52-6V-16.44a12,12,0,0,1,.12-2.088h-2.64a12.062,12.062,0,0,1,.12,2.04V-5.976a12.236,12.236,0,0,1-.12,2.04Zm-10.152.264a8.5,8.5,0,0,1-3.1,3.864,12.657,12.657,0,0,1,1.8,1.8A14.291,14.291,0,0,0-97.608-2.5ZM-85.56-17.04a16.106,16.106,0,0,1,.144-2.76H-88.1a23.709,23.709,0,0,1,.144,2.76v15.6c0,.552-.144.648-.96.648a14.588,14.588,0,0,1-2.448-.192,9.674,9.674,0,0,1,.6,2.544c.48.024,1.536.048,2.04.048,2.52,0,3.168-.528,3.168-2.52ZM-73.032-1.992A6.955,6.955,0,0,1-76.68-5.328c.36-1.128.5-1.68.624-2.16.216-.984.216-1.008.336-1.416l-2.664-.5a14.876,14.876,0,0,1-.48,2.592A14.21,14.21,0,0,1-82.992-.024a6.532,6.532,0,0,1,2.064,1.968,17,17,0,0,0,3.288-4.7c1.968,2.9,5.112,4.128,10.728,4.128,1.9,0,3.144-.024,5.112-.072a9.335,9.335,0,0,1,.672-2.736c-2.448.216-4.08.288-5.472.288a28.056,28.056,0,0,1-3.912-.24V-5.52h4.536a16.2,16.2,0,0,1,2.352.12V-7.968a12.31,12.31,0,0,1-2.352.144h-4.536V-10.9h3.144a17.206,17.206,0,0,1,2.472.12V-13.32a16.8,16.8,0,0,1-2.472.12H-76.56a16.084,16.084,0,0,1-2.424-.12v2.544a17.085,17.085,0,0,1,2.424-.12h3.528Zm-.408-15.72H-79.7c-.96,0-1.776-.024-2.64-.1.048.552.1,1.152.1,1.776v1.848a10.607,10.607,0,0,1-.12,1.9H-79.7v-3h15.5v3h2.592a15.5,15.5,0,0,1-.1-1.872v-1.872a13.205,13.205,0,0,1,.1-1.776c-.888.072-1.7.1-2.664.1h-6.48v-.912a7.288,7.288,0,0,1,.12-1.512h-2.952A7.767,7.767,0,0,1-73.44-18.6Zm15.384,4.1a30.121,30.121,0,0,1,3.984-.48c4.656-.336,6.144-.48,8.088-.768a10.613,10.613,0,0,0-3.336,2.424,8.357,8.357,0,0,0-2.28,5.64,6.421,6.421,0,0,0,3.432,5.784A14.439,14.439,0,0,0-42.552.576c.456.072.5.072.816.144l.432-3.264c-.24.024-.456.024-.48.024a14.564,14.564,0,0,1-3.576-.624,4.03,4.03,0,0,1-3.192-3.912c0-2.424,1.8-4.824,4.848-6.408a10.733,10.733,0,0,1,4.752-1.3,3.716,3.716,0,0,1,.5.024l-.168-3.048a12.931,12.931,0,0,1-2.472.192c-6.408.312-10.512.528-12.264.624-3.528.24-3.528.24-3.96.24-.12,0-.384,0-.912-.024Zm14.688,2.3a16.2,16.2,0,0,1,2.52,3.576l1.68-.888a15.554,15.554,0,0,0-2.52-3.528Zm7.056,1.128a13.879,13.879,0,0,0-2.5-3.384l-1.608.84a17.683,17.683,0,0,1,2.448,3.48Zm8.184,2.064c0,.264,0,.432-.024.744h-3.432a14.5,14.5,0,0,1-2.52-.144v2.568a15.333,15.333,0,0,1,2.52-.144h3.072a5.455,5.455,0,0,1-1.7,2.664,9.924,9.924,0,0,1-4.44,2.136,8.76,8.76,0,0,1,1.7,2.352C-30,.912-28.56-.048-27.36-1.632a8.44,8.44,0,0,0,1.488-3.456h3.1V-.432c0,1.68.768,2.088,4.032,2.088,4.608,0,5.04-.36,5.568-4.416a8.189,8.189,0,0,1-2.592-.84A5.614,5.614,0,0,1-16.2-1.2c-.264.336-.84.456-2.16.456A5.551,5.551,0,0,1-19.9-.864c-.36-.1-.384-.144-.384-.648V-5.088h3.816a18.31,18.31,0,0,1,2.52.144V-7.512a14.334,14.334,0,0,1-2.52.144H-20.28V-9.96a19.347,19.347,0,0,1,2.3.1V-10.9a24.055,24.055,0,0,0,3.96,2.16,9.79,9.79,0,0,1,1.344-2.376,21.3,21.3,0,0,1-3.84-1.824,18.591,18.591,0,0,0,2.16-2.208c.48-.528.528-.6.672-.744l-2.208-1.248a14.151,14.151,0,0,1-2.5,2.9c-.5-.384-.768-.6-1.416-1.152a24.785,24.785,0,0,0,1.776-1.8c.552-.648.864-1.008.936-1.1L-19.3-19.512c-.072.12-.072.12-.192.312a4.209,4.209,0,0,1-.5.7,12.618,12.618,0,0,1-1.416,1.536A5.908,5.908,0,0,1-22.9-19.584a13.819,13.819,0,0,1-2.064.1H-29.4a13.714,13.714,0,0,1-1.992-.12v2.5l-.768-.624-1.968,1.464a16.441,16.441,0,0,1,3.36,3.144A20.586,20.586,0,0,1-35.352-10.8a9.08,9.08,0,0,1,1.416,2.208,23.659,23.659,0,0,0,4.224-2.328v1.056c.6-.048.864-.072,1.608-.1ZM-25.56-9.96h2.784v2.592h-2.808V-7.92Zm-.864-7.248a15.521,15.521,0,0,1-2.352,2.568,20.648,20.648,0,0,0-2.616-2.472,10.684,10.684,0,0,1,1.464-.1Zm-.912,4.992h-.648a20.039,20.039,0,0,0,4.056-4.344,20.1,20.1,0,0,0,4.08,4.344h-7.488Zm23.28,7.128A4.808,4.808,0,0,1-6.336-1.7,11.991,11.991,0,0,1-11.016-.12,7.53,7.53,0,0,1-9.624,2.232a12.273,12.273,0,0,0,6.1-2.88,7.36,7.36,0,0,0,2.28-4.44H.912v4.68c0,1.8.72,2.136,4.7,2.136,2.712,0,3.744-.192,4.416-.816.6-.576.84-1.464,1.08-4.128A9.94,9.94,0,0,1,8.64-4.224a7.621,7.621,0,0,1-.432,3.072c-.288.408-.768.5-2.616.5C3.72-.648,3.5-.72,3.5-1.392v-3.7H5.568c.984,0,1.92.024,2.544.072a17.91,17.91,0,0,1-.12-2.544v-8.76a28.561,28.561,0,0,1,.12-3,18.539,18.539,0,0,1-2.544.12H-5.5a18.371,18.371,0,0,1-2.52-.12,29.238,29.238,0,0,1,.12,3v8.76a18.539,18.539,0,0,1-.12,2.544c.624-.048,1.44-.072,2.592-.072ZM-5.376-16.8H5.448v1.56H-5.376Zm0,3.816H5.448v1.608H-5.376Zm0,3.864H5.448v1.7H-5.376Zm19.32-4.488a30.121,30.121,0,0,1,3.984-.48c4.656-.336,6.144-.48,8.088-.768a10.613,10.613,0,0,0-3.336,2.424,8.357,8.357,0,0,0-2.28,5.64,6.421,6.421,0,0,0,3.432,5.784A14.439,14.439,0,0,0,29.448.576c.456.072.5.072.816.144L30.7-2.544c-.24.024-.456.024-.48.024a14.564,14.564,0,0,1-3.576-.624,4.03,4.03,0,0,1-3.192-3.912c0-2.424,1.8-4.824,4.848-6.408a10.733,10.733,0,0,1,4.752-1.3,3.716,3.716,0,0,1,.5.024l-.168-3.048a12.931,12.931,0,0,1-2.472.192c-6.408.312-10.512.528-12.264.624-3.528.24-3.528.24-3.96.24-.12,0-.384,0-.912-.024Zm14.688,2.3a16.2,16.2,0,0,1,2.52,3.576l1.68-.888a15.554,15.554,0,0,0-2.52-3.528Zm7.056,1.128a13.879,13.879,0,0,0-2.5-3.384l-1.608.84a17.683,17.683,0,0,1,2.448,3.48Zm3.648-3.648c.5-.024.624-.048,1.632-.048a57.861,57.861,0,0,0,6.432-.336c.192.432.264.576.5,1.08.192.456.288.6.432.888a47.217,47.217,0,0,1-6.792.456,14.224,14.224,0,0,1-2.472-.1l.1,2.616c.408-.048.576-.048.984-.072a68.9,68.9,0,0,0,9.288-.648A14.449,14.449,0,0,0,51.288-7.3a16.539,16.539,0,0,0-4.152-.5,10.7,10.7,0,0,0-5.592,1.2,4.008,4.008,0,0,0-2.016,3.336A3.865,3.865,0,0,0,41.376.024C42.72.84,44.472,1.2,47.232,1.2A23.107,23.107,0,0,0,53.376.384a11.87,11.87,0,0,1,1.56-.36L54.5-2.928a18.64,18.64,0,0,1-7.392,1.56A9.355,9.355,0,0,1,43.68-1.9a1.582,1.582,0,0,1-1.032-1.392A1.731,1.731,0,0,1,43.68-4.752a9.258,9.258,0,0,1,4.032-.672,12.906,12.906,0,0,1,5.52.984l2.112-1.512a24,24,0,0,1-3.216-4.392c.288-.072.288-.072.888-.192.576-.12,1.368-.288,2.352-.528.552-.144,1.056-.24,1.512-.312l-.24-2.616a12.121,12.121,0,0,1-2.28.7c-.144.024-1.248.264-3.312.7a21.611,21.611,0,0,1-.936-1.968c.744-.1,3.408-.624,5.016-1.008.576-.12.576-.12.816-.168l-.24-2.544a40.321,40.321,0,0,1-6.48,1.44,14.069,14.069,0,0,1-.984-2.9l-3,.408c.024.048.36.792.96,2.184.192.432.192.432.264.624a42.654,42.654,0,0,1-4.944.264,20.134,20.134,0,0,1-2.3-.1ZM67.32-19.9a24.518,24.518,0,0,1-.72,4.176c-.528.024-.936.024-1.224.024a16.664,16.664,0,0,1-3.24-.216v2.736l1.272.024c.5.024.648.024.96.024.288,0,.432,0,1.512-.024a36.922,36.922,0,0,1-2.256,5.664A21.846,21.846,0,0,1,61.3-3.648l2.76,1.536c.144-.288.144-.288.456-.864.912-1.68,1.128-2.112,1.68-3.288a46.067,46.067,0,0,0,2.64-6.96c1.488-.12,2.952-.288,3.816-.432a4.68,4.68,0,0,1,.768-.12l-.072-2.76a20.585,20.585,0,0,1-3.84.672c.264-1.056.384-1.536.5-2.112a12.015,12.015,0,0,1,.384-1.608Zm15.36,6.24a37.886,37.886,0,0,0-6.768-3.216l-1.44,2.328a29.374,29.374,0,0,1,6.912,3.36Zm-.1,10.824a4.3,4.3,0,0,1-.36-.336,8.85,8.85,0,0,0-.84-.648,15,15,0,0,0-3.792-2.208,25.482,25.482,0,0,1-.216-3.288,8,8,0,0,1,.288-2.424L74.88-11.88a12.73,12.73,0,0,0-.192,2.424c0,.72.048,1.656.12,2.76a11.921,11.921,0,0,0-2.232-.216c-3.048,0-5.184,1.7-5.184,4.128,0,2.448,2.064,4.032,5.232,4.032A5.541,5.541,0,0,0,76.608-.1,3.835,3.835,0,0,0,77.64-2.64c0-.1-.024-.264-.048-.48A14.515,14.515,0,0,1,81.264-.144ZM74.9-4.152s.048.576.048.816c0,1.344-.792,2.016-2.424,2.016-1.488,0-2.352-.576-2.352-1.56,0-1.008,1.008-1.656,2.568-1.656A6.05,6.05,0,0,1,74.9-4.152ZM86.568-17.64a11.468,11.468,0,0,1,.1,1.536c.1,6.648.528,10.128,1.512,12.528.96,2.3,2.256,3.48,3.864,3.48,2.04,0,3.432-1.944,4.68-6.624A11.847,11.847,0,0,1,94.32-8.9,17.694,17.694,0,0,1,93.048-4.56c-.288.672-.624,1.032-.984,1.032-.768,0-1.536-1.536-1.944-4.032a44.912,44.912,0,0,1-.456-6.432,27.9,27.9,0,0,1,.192-3.648Zm12.12,2.28a20.949,20.949,0,0,1,3.408,5.9,24.33,24.33,0,0,1,1.536,6.936l2.976-1.128a23.927,23.927,0,0,0-5.4-12.912Z" transform="translate(462.68 4726.834)" fill="#fff"/>
    </g>
    <g id="グループ_519" data-name="グループ 519">
      <path id="パス_328" data-name="パス 328" d="M301,4593.576l740.388-28.839v56.084Z" fill="#dbc5ed"/>
      <path id="パス_329" data-name="パス 329" d="M320.095,4593.576l-4.07,4.882.424,6.342-6.165,1.553-3.38,5.385-5.9-2.372-5.9,2.372-3.38-5.386-6.165-1.553.424-6.342-4.07-4.882,4.07-4.882-.424-6.342,6.165-1.553,3.38-5.386,5.9,2.372,5.9-2.372,3.38,5.386,6.165,1.553-.424,6.342Z" fill="#a07bbd"/>
      <path id="パス_330" data-name="パス 330" d="M554.03,4593.576l-5.263,6.313.548,8.2-7.973,2.008-4.37,6.964L529.342,4614l-7.631,3.067-4.37-6.964-7.973-2.008.549-8.2-5.263-6.312,5.263-6.312-.548-8.2,7.973-2.008,4.37-6.964,7.631,3.067,7.631-3.067,4.37,6.964,7.973,2.008-.549,8.2Z" fill="#a07bbd"/>
      <path id="パス_331" data-name="パス 331" d="M777.117,4593.576l-10.01,12.005,1.043,15.6L752.987,4625l-8.312,13.245-14.512-5.833-14.513,5.833L707.338,4625l-15.163-3.819,1.044-15.6-10.01-12,10.01-12-1.043-15.6,15.163-3.819,8.312-13.245,14.512,5.833,14.513-5.833,8.312,13.245,15.163,3.82-1.044,15.6Z" fill="#a07bbd"/>
      <path id="パス_332" data-name="パス 332" d="M932.285,4593.576l-11.491,13.782,1.2,17.906-17.407,4.385-9.542,15.205-16.66-6.7-16.661,6.7-9.542-15.205-17.407-4.385,1.2-17.906-11.491-13.782,11.491-13.782-1.2-17.906,17.407-4.385,9.542-15.2,16.66,6.7,16.661-6.7,9.542,15.205,17.407,4.385-1.2,17.906Z" fill="#a07bbd"/>
      <path id="パス_333" data-name="パス 333" d="M1112.567,4593.576l-15.174,18.2,1.581,23.645-22.985,5.79-12.6,20.077-22-8.842-22,8.842-12.6-20.078-22.985-5.79,1.582-23.644-15.174-18.2,15.174-18.2-1.581-23.644,22.985-5.79,12.6-20.077,22,8.842,22-8.842,12.6,20.078,22.985,5.79-1.582,23.644Z" fill="#a07bbd"/>
      <path id="パス_585" data-name="パス 585" d="M-20.941.281a3.205,3.205,0,0,1-3.035-1.516,8.768,8.768,0,0,1-.871-4.32,8.815,8.815,0,0,1,.871-4.328,3.2,3.2,0,0,1,3.035-1.523A3.21,3.21,0,0,1-17.9-9.883a8.849,8.849,0,0,1,.867,4.328,8.768,8.768,0,0,1-.871,4.32A3.205,3.205,0,0,1-20.941.281Zm1.3-2.852a11.146,11.146,0,0,0,.3-2.984,10.933,10.933,0,0,0-.309-3.031,1.261,1.261,0,0,0-1.3-.984,1.279,1.279,0,0,0-1.312.984,10.552,10.552,0,0,0-.32,3.031,10.67,10.67,0,0,0,.32,2.988,1.29,1.29,0,0,0,1.313,1.035A1.279,1.279,0,0,0-19.637-2.57Zm4.188.242h2.367V0h-2.367ZM-5.949,0H-8.23V-7.812h-2.664V-9.328a9.869,9.869,0,0,0,1.477-.141,2.083,2.083,0,0,0,1.094-.594,1.955,1.955,0,0,0,.438-.812,1.865,1.865,0,0,0,.086-.453h1.852ZM2.715-6.172a1.091,1.091,0,0,0-1.1-.617,1.315,1.315,0,0,0-1.281.617,2.378,2.378,0,0,0-.18,1.047V0H-2.105V-8.5H.059v1.242A3.583,3.583,0,0,1,.84-8.2a2.673,2.673,0,0,1,1.68-.5,2.657,2.657,0,0,1,1.578.43A2.5,2.5,0,0,1,4.832-7.25a2.831,2.831,0,0,1,1.086-1.1A3.314,3.314,0,0,1,7.449-8.7a2.964,2.964,0,0,1,1.109.219,2.475,2.475,0,0,1,.992.766,2.446,2.446,0,0,1,.484,1.094,7.56,7.56,0,0,1,.078,1.258L10.1,0H7.816V-5.422a1.78,1.78,0,0,0-.156-.8,1.11,1.11,0,0,0-1.094-.594,1.28,1.28,0,0,0-1.273.766,2.4,2.4,0,0,0-.18.977V0H2.871V-5.07A2.848,2.848,0,0,0,2.715-6.172Zm14.227,0a1.091,1.091,0,0,0-1.1-.617,1.315,1.315,0,0,0-1.281.617,2.378,2.378,0,0,0-.18,1.047V0H12.121V-8.5h2.164v1.242a3.583,3.583,0,0,1,.781-.945,2.673,2.673,0,0,1,1.68-.5,2.657,2.657,0,0,1,1.578.43,2.5,2.5,0,0,1,.734,1.023,2.831,2.831,0,0,1,1.086-1.1A3.314,3.314,0,0,1,21.676-8.7a2.964,2.964,0,0,1,1.109.219,2.475,2.475,0,0,1,.992.766,2.446,2.446,0,0,1,.484,1.094,7.56,7.56,0,0,1,.078,1.258L24.324,0H22.043V-5.422a1.78,1.78,0,0,0-.156-.8,1.11,1.11,0,0,0-1.094-.594,1.28,1.28,0,0,0-1.273.766,2.4,2.4,0,0,0-.18.977V0H17.1V-5.07A2.848,2.848,0,0,0,16.941-6.172Z" transform="translate(301.002 4636.47)" fill="#333"/>
      <path id="パス_584" data-name="パス 584" d="M-20.941.281a3.205,3.205,0,0,1-3.035-1.516,8.768,8.768,0,0,1-.871-4.32,8.815,8.815,0,0,1,.871-4.328,3.2,3.2,0,0,1,3.035-1.523A3.21,3.21,0,0,1-17.9-9.883a8.849,8.849,0,0,1,.867,4.328,8.768,8.768,0,0,1-.871,4.32A3.205,3.205,0,0,1-20.941.281Zm1.3-2.852a11.146,11.146,0,0,0,.3-2.984,10.933,10.933,0,0,0-.309-3.031,1.261,1.261,0,0,0-1.3-.984,1.279,1.279,0,0,0-1.312.984,10.552,10.552,0,0,0-.32,3.031,10.67,10.67,0,0,0,.32,2.988,1.29,1.29,0,0,0,1.313,1.035A1.279,1.279,0,0,0-19.637-2.57Zm4.188.242h2.367V0h-2.367Zm9.008-6.7A1.4,1.4,0,0,0-7.582-9.5a1.391,1.391,0,0,0-1.383.758,3.758,3.758,0,0,0-.25,1.391h-2.164a5.473,5.473,0,0,1,.523-2.336,3.26,3.26,0,0,1,3.164-1.7,4.012,4.012,0,0,1,2.859,1A3.444,3.444,0,0,1-3.77-7.75a3.57,3.57,0,0,1-.75,2.234A7.472,7.472,0,0,1-6.137-4.07l-.891.633q-.836.594-1.145.859a2.518,2.518,0,0,0-.52.617h4.945V0H-11.5a5.323,5.323,0,0,1,.523-2.227,6.3,6.3,0,0,1,2.25-2.4A16.5,16.5,0,0,0-6.738-6.2a2.332,2.332,0,0,0,.7-1.625A1.8,1.8,0,0,0-6.441-9.023ZM2.715-6.172a1.091,1.091,0,0,0-1.1-.617,1.315,1.315,0,0,0-1.281.617,2.378,2.378,0,0,0-.18,1.047V0H-2.105V-8.5H.059v1.242A3.583,3.583,0,0,1,.84-8.2a2.673,2.673,0,0,1,1.68-.5,2.657,2.657,0,0,1,1.578.43A2.5,2.5,0,0,1,4.832-7.25a2.831,2.831,0,0,1,1.086-1.1A3.314,3.314,0,0,1,7.449-8.7a2.964,2.964,0,0,1,1.109.219,2.475,2.475,0,0,1,.992.766,2.446,2.446,0,0,1,.484,1.094,7.56,7.56,0,0,1,.078,1.258L10.1,0H7.816V-5.422a1.78,1.78,0,0,0-.156-.8,1.11,1.11,0,0,0-1.094-.594,1.28,1.28,0,0,0-1.273.766,2.4,2.4,0,0,0-.18.977V0H2.871V-5.07A2.848,2.848,0,0,0,2.715-6.172Zm14.227,0a1.091,1.091,0,0,0-1.1-.617,1.315,1.315,0,0,0-1.281.617,2.378,2.378,0,0,0-.18,1.047V0H12.121V-8.5h2.164v1.242a3.583,3.583,0,0,1,.781-.945,2.673,2.673,0,0,1,1.68-.5,2.657,2.657,0,0,1,1.578.43,2.5,2.5,0,0,1,.734,1.023,2.831,2.831,0,0,1,1.086-1.1A3.314,3.314,0,0,1,21.676-8.7a2.964,2.964,0,0,1,1.109.219,2.475,2.475,0,0,1,.992.766,2.446,2.446,0,0,1,.484,1.094,7.56,7.56,0,0,1,.078,1.258L24.324,0H22.043V-5.422a1.78,1.78,0,0,0-.156-.8,1.11,1.11,0,0,0-1.094-.594,1.28,1.28,0,0,0-1.273.766,2.4,2.4,0,0,0-.18.977V0H17.1V-5.07A2.848,2.848,0,0,0,16.941-6.172Z" transform="translate(529.341 4642.818)" fill="#333"/>
      <path id="パス_583" data-name="パス 583" d="M-9.957,0h-2.281V-7.812H-14.9V-9.328a9.869,9.869,0,0,0,1.477-.141,2.083,2.083,0,0,0,1.094-.594,1.955,1.955,0,0,0,.438-.812,1.865,1.865,0,0,0,.086-.453h1.852ZM1.293-5.461H-.988a1.976,1.976,0,0,0-.32-.859,1.343,1.343,0,0,0-1.164-.516A1.533,1.533,0,0,0-4.012-5.719,4.671,4.671,0,0,0-4.23-4.141a4.3,4.3,0,0,0,.219,1.508,1.486,1.486,0,0,0,1.5,1.063A1.323,1.323,0,0,0-1.4-1.992,2.1,2.1,0,0,0-1-3.086H1.27A3.725,3.725,0,0,1,.535-1.164,3.57,3.57,0,0,1-2.566.3,3.628,3.628,0,0,1-5.59-.922a4.932,4.932,0,0,1-.969-3.164A5,5,0,0,1-5.488-7.5,3.726,3.726,0,0,1-2.535-8.719,4.447,4.447,0,0,1,.086-8,3.343,3.343,0,0,1,1.293-5.461Zm6.313-.711a1.091,1.091,0,0,0-1.1-.617,1.315,1.315,0,0,0-1.281.617,2.378,2.378,0,0,0-.18,1.047V0H2.785V-8.5H4.949v1.242A3.583,3.583,0,0,1,5.73-8.2a2.673,2.673,0,0,1,1.68-.5,2.657,2.657,0,0,1,1.578.43A2.5,2.5,0,0,1,9.723-7.25a2.831,2.831,0,0,1,1.086-1.1A3.314,3.314,0,0,1,12.34-8.7a2.964,2.964,0,0,1,1.109.219,2.475,2.475,0,0,1,.992.766,2.446,2.446,0,0,1,.484,1.094A7.56,7.56,0,0,1,15-5.367L14.988,0H12.707V-5.422a1.78,1.78,0,0,0-.156-.8,1.11,1.11,0,0,0-1.094-.594,1.28,1.28,0,0,0-1.273.766A2.4,2.4,0,0,0,10-5.07V0H7.762V-5.07A2.848,2.848,0,0,0,7.605-6.172Z" transform="translate(730.163 4665.207)" fill="#333"/>
      <path id="パス_582" data-name="パス 582" d="M-10.449-9.023A1.4,1.4,0,0,0-11.59-9.5a1.391,1.391,0,0,0-1.383.758,3.758,3.758,0,0,0-.25,1.391h-2.164a5.473,5.473,0,0,1,.523-2.336,3.26,3.26,0,0,1,3.164-1.7,4.012,4.012,0,0,1,2.859,1A3.444,3.444,0,0,1-7.777-7.75a3.57,3.57,0,0,1-.75,2.234A7.472,7.472,0,0,1-10.145-4.07l-.891.633q-.836.594-1.145.859a2.518,2.518,0,0,0-.52.617h4.945V0h-7.758a5.323,5.323,0,0,1,.523-2.227,6.3,6.3,0,0,1,2.25-2.4A16.5,16.5,0,0,0-10.746-6.2a2.332,2.332,0,0,0,.7-1.625A1.8,1.8,0,0,0-10.449-9.023ZM1.293-5.461H-.988a1.976,1.976,0,0,0-.32-.859,1.343,1.343,0,0,0-1.164-.516A1.533,1.533,0,0,0-4.012-5.719,4.671,4.671,0,0,0-4.23-4.141a4.3,4.3,0,0,0,.219,1.508,1.486,1.486,0,0,0,1.5,1.063A1.323,1.323,0,0,0-1.4-1.992,2.1,2.1,0,0,0-1-3.086H1.27A3.725,3.725,0,0,1,.535-1.164,3.57,3.57,0,0,1-2.566.3,3.628,3.628,0,0,1-5.59-.922a4.932,4.932,0,0,1-.969-3.164A5,5,0,0,1-5.488-7.5,3.726,3.726,0,0,1-2.535-8.719,4.447,4.447,0,0,1,.086-8,3.343,3.343,0,0,1,1.293-5.461Zm6.313-.711a1.091,1.091,0,0,0-1.1-.617,1.315,1.315,0,0,0-1.281.617,2.378,2.378,0,0,0-.18,1.047V0H2.785V-8.5H4.949v1.242A3.583,3.583,0,0,1,5.73-8.2a2.673,2.673,0,0,1,1.68-.5,2.657,2.657,0,0,1,1.578.43A2.5,2.5,0,0,1,9.723-7.25a2.831,2.831,0,0,1,1.086-1.1A3.314,3.314,0,0,1,12.34-8.7a2.964,2.964,0,0,1,1.109.219,2.475,2.475,0,0,1,.992.766,2.446,2.446,0,0,1,.484,1.094A7.56,7.56,0,0,1,15-5.367L14.988,0H12.707V-5.422a1.78,1.78,0,0,0-.156-.8,1.11,1.11,0,0,0-1.094-.594,1.28,1.28,0,0,0-1.273.766A2.4,2.4,0,0,0,10-5.07V0H7.762V-5.07A2.848,2.848,0,0,0,7.605-6.172Z" transform="translate(878.383 4669.207)" fill="#333"/>
    </g>
    <g id="グループ_523" data-name="グループ 523">
      <g id="グループ_520" data-name="グループ 520">
        <rect id="長方形_303" data-name="長方形 303" width="406" height="30" transform="translate(259.679 4417.766)" fill="#fff766"/>
        <path id="パス_581" data-name="パス 581" d="M-69.943-6.28a11.916,11.916,0,0,1,1.3-.12c.4-.04,1.02-.08,1.88-.14V-.42a14.707,14.707,0,0,1-.12,2.14h2.2A14.707,14.707,0,0,1-64.8-.42v-6.3c.36-.02.82-.08,1.42-.14.08.32.12.48.22.94l1.68-.7a30.042,30.042,0,0,0-1.58-3.9l-1.5.6a10.935,10.935,0,0,1,.58,1.36c-1.02.12-1.1.12-2.28.18a52.239,52.239,0,0,0,3.38-4.5,8.288,8.288,0,0,1,.66-.92l-1.84-1.06a22.815,22.815,0,0,1-2.16,3.5c-.28-.36-.5-.6-.84-1a26.9,26.9,0,0,0,1.86-3.06c.22-.4.3-.54.42-.72l-1.9-.78a14.631,14.631,0,0,1-1.66,3.24c-.2-.24-.32-.36-.6-.7l-1.14,1.66a18.561,18.561,0,0,1,2.74,2.96c-.4.52-.48.62-1.16,1.46-.46.02-.66.02-.8.02a5.258,5.258,0,0,1-.86-.06Zm15.48-5.52a55.429,55.429,0,0,1-.64,9.64c-.24,1.24-.46,1.48-1.36,1.48a15.548,15.548,0,0,1-2.62-.26,8.181,8.181,0,0,1,.56,2.24c.72.06,1.34.08,1.86.08A4.277,4.277,0,0,0-54.1.86c.66-.52,1.02-1.62,1.34-3.92.22-1.64.44-5.12.46-7.4a25.489,25.489,0,0,1,.1-3.48,10.96,10.96,0,0,1-1.64.08H-58.2c.24-.62.32-.86.58-1.68a6.856,6.856,0,0,1,.26-.82l-2.24-.4a12.882,12.882,0,0,1-.72,2.52,12.947,12.947,0,0,1-2.36,3.98,5.832,5.832,0,0,1,1.6,1.62,13.945,13.945,0,0,0,2-3.16Zm-14.86,6.2a18.786,18.786,0,0,1-.94,5.38l1.78.82a22.23,22.23,0,0,0,.98-5.92Zm5.28.28a46.9,46.9,0,0,1,.76,5.14l1.82-.44a49.413,49.413,0,0,0-.96-5.1Zm7.8.86A22.913,22.913,0,0,0-58.7-9.48l-1.74.96a22,22,0,0,1,2.28,5.08ZM-39.263.36a17.037,17.037,0,0,1-.16-2.62v-10.1a30.135,30.135,0,0,1,.16-3.3,14.545,14.545,0,0,1-2.04.1h-1.84a11.114,11.114,0,0,1-2-.12v2.54a17.787,17.787,0,0,1,2.06-.12h.96v11a16.708,16.708,0,0,1-.16,2.62Zm18.12.32a5.677,5.677,0,0,0,4.86-2.36A10.5,10.5,0,0,0-14.8-7.6a13.45,13.45,0,0,0-.78-4.64,5.6,5.6,0,0,0-1.32-2.02,5.809,5.809,0,0,0-4.22-1.62,5.687,5.687,0,0,0-5.1,2.78,11.776,11.776,0,0,0-1.22,5.54,13.385,13.385,0,0,0,.78,4.6,5.6,5.6,0,0,0,1.32,2.02A5.762,5.762,0,0,0-21.143.68Zm.02-2.32a2.93,2.93,0,0,1-2.56-1.3A9,9,0,0,1-24.7-7.7a7.463,7.463,0,0,1,1.32-4.86,2.69,2.69,0,0,1,2.24-1.02,2.891,2.891,0,0,1,2.18.84c.9.98,1.4,2.8,1.4,5.12,0,2.34-.5,4.2-1.4,5.14A2.907,2.907,0,0,1-21.123-1.64ZM-6.9-4.96h-1.02a16.761,16.761,0,0,1-2.18-.12V-2.8a17.2,17.2,0,0,1,2.18-.12H-1.2V-.46a14.576,14.576,0,0,1-.12,2.18h2.44A12.043,12.043,0,0,1,1-.42v-2.5h4.64a16.979,16.979,0,0,1,2.18.12V-5.08a16.337,16.337,0,0,1-2.18.12H1V-8.2h3.28a18.822,18.822,0,0,1,2,.08v-2.12a14.681,14.681,0,0,1-2.06.1H1v-2.6h4.08a14.72,14.72,0,0,1,2.04.1v-2.18a14.2,14.2,0,0,1-2.04.1h-9.36c.36-.78.56-1.2.58-1.26.14-.3.18-.36.3-.6l-2.38-.48a5.777,5.777,0,0,1-.48,1.46,12.415,12.415,0,0,1-3.9,5.02A8.755,8.755,0,0,1-8.683-8.8a18.442,18.442,0,0,0,3.3-3.94H-1.2v2.6h-4.36c-.54,0-.98-.02-1.4-.06A10.981,10.981,0,0,1-6.9-9.04Zm2.1,0V-8.2h3.6v3.24Zm16.08-1.12c1.26-1.36,2.18-1.84,3.48-1.84,1.06,0,1.68.24,3.44,1.36a10.221,10.221,0,0,0,2.74,1.48,5.69,5.69,0,0,0,1.76.28,5.617,5.617,0,0,0,3.46-1.14,8.733,8.733,0,0,0,1.9-1.94l-1.6-1.6a5.36,5.36,0,0,1-2.08,1.82,3.953,3.953,0,0,1-1.48.38,6.782,6.782,0,0,1-3.54-1.4,14.356,14.356,0,0,0-1.82-1.1,5.612,5.612,0,0,0-2.58-.6,5.7,5.7,0,0,0-3.28,1.04A6.877,6.877,0,0,0,9.7-7.56Zm24.553-5.2a1.754,1.754,0,0,0-1.426-.6,1.739,1.739,0,0,0-1.729.947,4.7,4.7,0,0,0-.312,1.738H29.658a6.841,6.841,0,0,1,.654-2.92,4.075,4.075,0,0,1,3.955-2.119,5.015,5.015,0,0,1,3.574,1.245,4.305,4.305,0,0,1,1.328,3.3,4.462,4.462,0,0,1-.937,2.793,9.34,9.34,0,0,1-2.021,1.807L35.1-4.3q-1.045.742-1.431,1.074a3.148,3.148,0,0,0-.649.771H39.2V0H29.5a6.654,6.654,0,0,1,.654-2.783,7.869,7.869,0,0,1,2.813-3,20.625,20.625,0,0,0,2.49-1.973,2.915,2.915,0,0,0,.869-2.031A2.25,2.25,0,0,0,35.83-11.279ZM45.508.352a4.006,4.006,0,0,1-3.794-1.895,10.96,10.96,0,0,1-1.089-5.4,11.019,11.019,0,0,1,1.089-5.41,4,4,0,0,1,3.794-1.9,4.012,4.012,0,0,1,3.8,1.9,11.061,11.061,0,0,1,1.084,5.41,10.96,10.96,0,0,1-1.089,5.4A4.006,4.006,0,0,1,45.508.352Zm1.631-3.564a13.932,13.932,0,0,0,.381-3.73,13.666,13.666,0,0,0-.386-3.789,1.576,1.576,0,0,0-1.626-1.23,1.6,1.6,0,0,0-1.641,1.23,13.19,13.19,0,0,0-.4,3.789,13.338,13.338,0,0,0,.4,3.735,1.612,1.612,0,0,0,1.641,1.294A1.6,1.6,0,0,0,47.139-3.213Zm8.2-1.747h-1.02a16.761,16.761,0,0,1-2.18-.12V-2.8a17.2,17.2,0,0,1,2.18-.12h6.72V-.46a14.576,14.576,0,0,1-.12,2.18h2.44a12.043,12.043,0,0,1-.12-2.14v-2.5h4.64a16.979,16.979,0,0,1,2.18.12V-5.08a16.337,16.337,0,0,1-2.18.12h-4.64V-8.2h3.28a18.822,18.822,0,0,1,2,.08v-2.12a14.681,14.681,0,0,1-2.06.1h-3.22v-2.6h4.08a14.72,14.72,0,0,1,2.04.1v-2.18a14.2,14.2,0,0,1-2.04.1h-9.36c.36-.78.56-1.2.58-1.26.14-.3.18-.36.3-.6l-2.38-.48a5.777,5.777,0,0,1-.48,1.46,12.415,12.415,0,0,1-3.9,5.02,8.755,8.755,0,0,1,1.48,1.78,18.442,18.442,0,0,0,3.3-3.94h4.18v2.6h-4.36c-.54,0-.98-.02-1.4-.06a10.98,10.98,0,0,1,.06,1.16Zm2.1,0V-8.2h3.6v3.24Z" transform="translate(462.68 4440.366)" fill="#333"/>
      </g>
      <g id="グループ_521" data-name="グループ 521">
        <rect id="長方形_304" data-name="長方形 304" width="162" height="30" transform="translate(694.99 4417.766)" fill="#fff766"/>
        <path id="パス_580" data-name="パス 580" d="M-54.382-6.28a11.916,11.916,0,0,1,1.3-.12c.4-.04,1.02-.08,1.88-.14V-.42a14.707,14.707,0,0,1-.12,2.14h2.2a14.708,14.708,0,0,1-.12-2.14v-6.3c.36-.02.82-.08,1.42-.14.08.32.12.48.22.94l1.68-.7a30.042,30.042,0,0,0-1.58-3.9l-1.5.6a10.935,10.935,0,0,1,.58,1.36c-1.02.12-1.1.12-2.28.18a52.239,52.239,0,0,0,3.38-4.5,8.288,8.288,0,0,1,.66-.92l-1.84-1.06a22.814,22.814,0,0,1-2.16,3.5c-.28-.36-.5-.6-.84-1a26.9,26.9,0,0,0,1.86-3.06c.22-.4.3-.54.42-.72l-1.9-.78a14.631,14.631,0,0,1-1.66,3.24c-.2-.24-.32-.36-.6-.7l-1.14,1.66a18.561,18.561,0,0,1,2.74,2.96c-.4.52-.48.62-1.16,1.46-.46.02-.66.02-.8.02a5.258,5.258,0,0,1-.86-.06ZM-38.9-11.8a55.429,55.429,0,0,1-.64,9.64C-39.782-.92-40-.68-40.9-.68a15.548,15.548,0,0,1-2.62-.26,8.181,8.181,0,0,1,.56,2.24c.72.06,1.34.08,1.86.08a4.277,4.277,0,0,0,2.56-.52c.66-.52,1.02-1.62,1.34-3.92.22-1.64.44-5.12.46-7.4a25.489,25.489,0,0,1,.1-3.48,10.96,10.96,0,0,1-1.64.08h-4.36c.24-.62.32-.86.58-1.68a6.856,6.856,0,0,1,.26-.82l-2.24-.4a12.882,12.882,0,0,1-.72,2.52,12.947,12.947,0,0,1-2.36,3.98,5.832,5.832,0,0,1,1.6,1.62,13.945,13.945,0,0,0,2-3.16Zm-14.86,6.2A18.786,18.786,0,0,1-54.7-.22l1.78.82a22.23,22.23,0,0,0,.98-5.92Zm5.28.28a46.9,46.9,0,0,1,.76,5.14l1.82-.44a49.413,49.413,0,0,0-.96-5.1Zm7.8.86a22.913,22.913,0,0,0-2.46-5.02l-1.74.96A22,22,0,0,1-42.6-3.44ZM-23.7.36a17.038,17.038,0,0,1-.16-2.62v-10.1a30.136,30.136,0,0,1,.16-3.3,14.545,14.545,0,0,1-2.04.1h-1.84a11.114,11.114,0,0,1-2-.12v2.54a17.787,17.787,0,0,1,2.06-.12h.96v11a16.708,16.708,0,0,1-.16,2.62Zm12.36-5.32h-1.02a16.761,16.761,0,0,1-2.18-.12V-2.8a17.2,17.2,0,0,1,2.18-.12h6.72V-.46a14.576,14.576,0,0,1-.12,2.18h2.44a12.043,12.043,0,0,1-.12-2.14v-2.5H1.2a16.979,16.979,0,0,1,2.18.12V-5.08a16.337,16.337,0,0,1-2.18.12h-4.64V-8.2h3.28a18.822,18.822,0,0,1,2,.08v-2.12a14.681,14.681,0,0,1-2.06.1h-3.22v-2.6H.638a14.72,14.72,0,0,1,2.04.1v-2.18a14.2,14.2,0,0,1-2.04.1h-9.36c.36-.78.56-1.2.58-1.26.14-.3.18-.36.3-.6l-2.38-.48a5.777,5.777,0,0,1-.48,1.46,12.415,12.415,0,0,1-3.9,5.02,8.755,8.755,0,0,1,1.48,1.78,18.442,18.442,0,0,0,3.3-3.94h4.18v2.6H-10c-.54,0-.98-.02-1.4-.06a10.981,10.981,0,0,1,.06,1.16Zm2.1,0V-8.2h3.6v3.24ZM6.838-6.08c1.26-1.36,2.18-1.84,3.48-1.84,1.06,0,1.68.24,3.44,1.36A10.221,10.221,0,0,0,16.5-5.08a5.69,5.69,0,0,0,1.76.28,5.617,5.617,0,0,0,3.46-1.14,8.733,8.733,0,0,0,1.9-1.94l-1.6-1.6a5.36,5.36,0,0,1-2.08,1.82,3.953,3.953,0,0,1-1.48.38,6.782,6.782,0,0,1-3.54-1.4,14.356,14.356,0,0,0-1.82-1.1,5.612,5.612,0,0,0-2.58-.6,5.7,5.7,0,0,0-3.28,1.04,6.877,6.877,0,0,0-1.98,1.78Zm24.553-5.2a1.754,1.754,0,0,0-1.426-.6,1.739,1.739,0,0,0-1.729.947,4.7,4.7,0,0,0-.312,1.738H25.22a6.841,6.841,0,0,1,.654-2.92,4.075,4.075,0,0,1,3.955-2.119A5.015,5.015,0,0,1,33.4-12.983a4.305,4.305,0,0,1,1.328,3.3,4.462,4.462,0,0,1-.937,2.793,9.34,9.34,0,0,1-2.021,1.807L30.659-4.3q-1.045.742-1.431,1.074a3.148,3.148,0,0,0-.649.771h6.182V0h-9.7a6.654,6.654,0,0,1,.654-2.783,7.869,7.869,0,0,1,2.813-3,20.625,20.625,0,0,0,2.49-1.973,2.915,2.915,0,0,0,.869-2.031A2.25,2.25,0,0,0,31.392-11.279Zm8.39,6.319h-1.02a16.761,16.761,0,0,1-2.18-.12V-2.8a17.2,17.2,0,0,1,2.18-.12h6.72V-.46a14.576,14.576,0,0,1-.12,2.18H47.8a12.043,12.043,0,0,1-.12-2.14v-2.5h4.64a16.979,16.979,0,0,1,2.18.12V-5.08a16.337,16.337,0,0,1-2.18.12h-4.64V-8.2h3.28a18.822,18.822,0,0,1,2,.08v-2.12a14.681,14.681,0,0,1-2.06.1h-3.22v-2.6h4.08a14.72,14.72,0,0,1,2.04.1v-2.18a14.2,14.2,0,0,1-2.04.1H42.4c.36-.78.56-1.2.58-1.26.14-.3.18-.36.3-.6l-2.38-.48a5.777,5.777,0,0,1-.48,1.46,12.415,12.415,0,0,1-3.9,5.02A8.755,8.755,0,0,1,38-8.8a18.442,18.442,0,0,0,3.3-3.94h4.18v2.6h-4.36c-.54,0-.98-.02-1.4-.06a10.98,10.98,0,0,1,.06,1.16Zm2.1,0V-8.2h3.6v3.24Z" transform="translate(775.99 4440.366)" fill="#333"/>
      </g>
      <path id="パス_578" data-name="パス 578" d="M-84.7-5.96h1.88a11.59,11.59,0,0,1,1.8.12V-8A12.693,12.693,0,0,1-83-7.88H-93.66V-8.94h8.48a11.93,11.93,0,0,1,1.84.1v-1.84a13.31,13.31,0,0,1-1.84.1h-8.48v-.98h8.48a17.309,17.309,0,0,1,1.84.1v-1.82a13.741,13.741,0,0,1-1.84.1h-8.48v-1h8.78a16.411,16.411,0,0,1,2.3.1V-16.2a13.546,13.546,0,0,1-2.32.12h-8.96a16.057,16.057,0,0,1-2.18-.1,15.568,15.568,0,0,1,.08,1.98v6.32H-97A12.915,12.915,0,0,1-99.08-8v2.16a12.579,12.579,0,0,1,2.04-.12h1.08V-.98a19.91,19.91,0,0,1-2.84.36l.42,2.24c.36-.1.42-.1.9-.2A57.916,57.916,0,0,0-89.66-.5l-.02-2A34.827,34.827,0,0,1-93.7-1.42V-5.96h1.74A10.633,10.633,0,0,0-88.9-2a17.312,17.312,0,0,0,7.2,3.48,9.776,9.776,0,0,1,1.06-2.3A17.648,17.648,0,0,1-85.88-2.6a13.28,13.28,0,0,0,1.92-1.38c.74-.66.98-.88,1.14-1Zm-.22,0A14.526,14.526,0,0,1-87.6-3.64a6.285,6.285,0,0,1-2.1-2.32Zm7.06-8.74a9.558,9.558,0,0,1,.08,1.28c.08,5.54.44,8.44,1.26,10.44.8,1.92,1.88,2.9,3.22,2.9,1.7,0,2.86-1.62,3.9-5.52a9.873,9.873,0,0,1-2-1.82A14.745,14.745,0,0,1-72.46-3.8c-.24.56-.52.86-.82.86-.64,0-1.28-1.28-1.62-3.36a37.427,37.427,0,0,1-.38-5.36,23.251,23.251,0,0,1,.16-3.04Zm10.1,1.9a17.457,17.457,0,0,1,2.84,4.92A20.275,20.275,0,0,1-63.64-2.1l2.48-.94a19.94,19.94,0,0,0-4.5-10.76Zm11.98,7.84H-56.8a16.761,16.761,0,0,1-2.18-.12V-2.8a17.2,17.2,0,0,1,2.18-.12h6.72V-.46a14.576,14.576,0,0,1-.12,2.18h2.44a12.043,12.043,0,0,1-.12-2.14v-2.5h4.64a16.979,16.979,0,0,1,2.18.12V-5.08a16.337,16.337,0,0,1-2.18.12h-4.64V-8.2h3.28a18.822,18.822,0,0,1,2,.08v-2.12a14.681,14.681,0,0,1-2.06.1h-3.22v-2.6h4.08a14.72,14.72,0,0,1,2.04.1v-2.18a14.2,14.2,0,0,1-2.04.1h-9.36c.36-.78.56-1.2.58-1.26.14-.3.18-.36.3-.6l-2.38-.48a5.777,5.777,0,0,1-.48,1.46,12.415,12.415,0,0,1-3.9,5.02A8.755,8.755,0,0,1-57.56-8.8a18.442,18.442,0,0,0,3.3-3.94h4.18v2.6h-4.36c-.54,0-.98-.02-1.4-.06a10.98,10.98,0,0,1,.06,1.16Zm2.1,0V-8.2h3.6v3.24Zm28.12.34v3.46c0,.44-.14.54-.74.54a20.223,20.223,0,0,1-2.94-.24,7.236,7.236,0,0,1,.58,2.24c1.02.06,1.68.08,2.32.08a3.965,3.965,0,0,0,2.32-.4c.5-.32.72-.9.72-1.9V-13.8a15.086,15.086,0,0,1,.1-2.26,18.027,18.027,0,0,1-2.32.1h-8.34a20.179,20.179,0,0,1-2.34-.1,28.184,28.184,0,0,1,.1,3.02c0,5.2-.2,7.54-.8,9.4A7.572,7.572,0,0,1-39.04-.12a7.737,7.737,0,0,1,1.86,1.84,11.215,11.215,0,0,0,2.36-3.96,14.823,14.823,0,0,0,.58-2.38ZM-34-6.66c.12-1.62.16-2.06.16-2.68h8.28v2.68Zm.18-4.72v-2.5h8.26v2.5Zm16.02-.72a2.21,2.21,0,0,1,.32-.02c.18,0,.18,0,.56.02.44,0,2.2.04,2.52.04,0,0,.26-.02.34-.02a.979.979,0,0,0-.16.26,26.49,26.49,0,0,1-2.4,3.42,12.252,12.252,0,0,1-1.8,1.78l1.82,1.8a8.993,8.993,0,0,1,1.74-1.82C-13.32-8-11.92-8.7-10.76-8.7A1.1,1.1,0,0,1-9.54-7.62a9.784,9.784,0,0,0-4.3,2.82,3.187,3.187,0,0,0-.88,2.22A2.9,2.9,0,0,0-13.26,0,8.589,8.589,0,0,0-8.8.84,36.275,36.275,0,0,0-3.68.48,5.893,5.893,0,0,1-2.76.4l-.2-2.58a17.377,17.377,0,0,1-5.88.84c-2.42,0-3.38-.42-3.38-1.46a2.106,2.106,0,0,1,1.04-1.64A12.155,12.155,0,0,1-9.26-5.48V-5a15.833,15.833,0,0,1-.12,2.32l2.32-.06A8.211,8.211,0,0,1-7.12-3.8c0-.14,0-.32.02-.66v-.8c0-.28,0-.28-.02-.8v-.22q2.58-.9,3-1.02A17.654,17.654,0,0,1-1.9-7.84l-.94-2.3a6.248,6.248,0,0,1-1.48.6q-.75.24-3.06,1.08a2.631,2.631,0,0,0-2.86-2.12,4.835,4.835,0,0,0-2.82.9c-.26.2-.26.2-.4.3l-.02-.04a10.349,10.349,0,0,0,1.84-2.66c2.02-.06,4.56-.22,6.02-.4,1.02-.12,1.02-.12,1.58-.16l-.14-2.28a27.019,27.019,0,0,1-5.24.68c-1.1.06-1.1.06-1.26.08.04-.08.08-.14.18-.36a15.281,15.281,0,0,1,.8-1.8l-2.62-.28a7.921,7.921,0,0,1-.8,2.48,24.168,24.168,0,0,1-4.64-.26ZM6.06-16.42v.38A30.778,30.778,0,0,1,5.54-12c-1.1.16-3.52.4-4.26.4l.24,2.36A35.856,35.856,0,0,1,5.1-9.88,33.929,33.929,0,0,1,3.16-4.22,21.85,21.85,0,0,1,1.08-.46L3.4.82c.1-.2.1-.22.16-.34l.3-.6a42.894,42.894,0,0,0,2.4-5.62,42.308,42.308,0,0,0,1.22-4.34c.46-.04.76-.06,1.16-.06,1.58,0,2.04.54,2.04,2.38a17.771,17.771,0,0,1-.52,4.56c-.3.98-.62,1.36-1.2,1.36a8.274,8.274,0,0,1-2.92-.78,7.512,7.512,0,0,1,.2,1.7c0,.2-.02.48-.04.88A9.7,9.7,0,0,0,9.28.54a2.533,2.533,0,0,0,2.22-.9c.96-1.1,1.54-3.84,1.54-7.28,0-1.82-.26-2.78-.94-3.54a3.874,3.874,0,0,0-2.96-1.06c-.38,0-.66.02-1.24.06.06-.26.06-.3.14-.74.28-1.5.28-1.5.34-1.92.06-.32.08-.42.12-.68a4.653,4.653,0,0,1,.16-.62Zm7.16,3.84a12.944,12.944,0,0,1,2.3,3.42,17.977,17.977,0,0,1,1.6,4.54L19.4-5.78a19.414,19.414,0,0,0-4.12-7.8ZM27.36-9.64h.3c.24,0,.32,0,.9.04.52.02,1.26.04,1.82.04,1,0,2.04-.02,2.72-.08.02.66.02.84.02,1.26,0,2.96-.36,4.36-1.4,5.62A8.241,8.241,0,0,1,28.66-.58,7.878,7.878,0,0,1,30.6,1.3,13.008,13.008,0,0,0,32.78-.22,7.5,7.5,0,0,0,35.06-4.1a19.843,19.843,0,0,0,.42-4.78c0-.36,0-.54-.02-.96a14.128,14.128,0,0,0,1.94-.34,9.744,9.744,0,0,1,1.12-.2l-.14-2.38A11,11,0,0,1,35.4-12c-.04-1.28-.08-2.04-.08-2.26-.04-.9-.04-1.08-.04-1.28a4.36,4.36,0,0,1,.04-.68l-2.54.04a30.882,30.882,0,0,1,.26,4.42c-1.04.06-1.36.08-2.12.08a17.818,17.818,0,0,1-3.56-.26ZM26.08-7.06a20.636,20.636,0,0,0-1.32,3.3c0-.32-.02-.44-.04-.76v-.36c-.02-.98-.02-1.32-.02-1.54-.02-.32-.02-.56-.02-.62,0-.38.04-.96.14-2.28a26.942,26.942,0,0,1,.52-3.94,19.321,19.321,0,0,1,.58-2.44l-2.64-.26a8.8,8.8,0,0,1-.14,1.48A42.987,42.987,0,0,0,22.4-6.9a28.779,28.779,0,0,0,.72,6.5,3.259,3.259,0,0,1,.14.76L25.58.24a17.4,17.4,0,0,1,2.28-6.42ZM41.72-11.3a29.032,29.032,0,0,1,3.32-.4c4.34-.32,5.12-.38,6.74-.62a8.815,8.815,0,0,0-2.78,2A7.051,7.051,0,0,0,47.1-5.6,5.351,5.351,0,0,0,49.96-.78,12.032,12.032,0,0,0,54.64.54a4.248,4.248,0,0,1,.68.12l.36-2.72c-.2.02-.38.02-.4.02a12.137,12.137,0,0,1-2.98-.52,3.358,3.358,0,0,1-2.66-3.26c0-2.02,1.5-4.02,4.04-5.34a8.944,8.944,0,0,1,3.96-1.08,3.1,3.1,0,0,1,.42.02l-.14-2.56a11.292,11.292,0,0,1-2.3.2c-5.54.26-8.86.44-9.98.5-2.94.2-2.94.2-3.3.2-.1,0-.32,0-.76-.02Zm34.12.64a13.81,13.81,0,0,1-1.92,4.68A27.107,27.107,0,0,1,73-11.96h3.6c1.02,0,1.78.04,2.44.1v-2.2a11.146,11.146,0,0,1-2.12.12h-.6l1.04-.72a11.191,11.191,0,0,0-2.02-2.1l-1.54.98a9.45,9.45,0,0,1,1.76,1.84H72.92v-.92a16.5,16.5,0,0,1,.1-1.9H70.64a6.2,6.2,0,0,1,.1,1.26c.04.88.04,1.4.06,1.56H65c-1.04,0-1.86-.04-2.58-.1a19.79,19.79,0,0,1,.12,2.84,37.588,37.588,0,0,1-.6,7.9A9.35,9.35,0,0,1,60.56-.14a7.341,7.341,0,0,1,1.74,1.7,10.819,10.819,0,0,0,1.64-3.9,30.906,30.906,0,0,0,.62-5.02h2.92a21.74,21.74,0,0,1-.3,3.62c-.1.5-.28.62-.9.62a12.192,12.192,0,0,1-1.94-.16,7.485,7.485,0,0,1,.52,2.12c.64.04.96.06,1.52.06,1.54,0,2.26-.3,2.58-1.1.34-.84.46-1.9.66-5.5.04-.78.08-1.34.12-1.7a8.738,8.738,0,0,1-1.42.08H64.64c.02-.72.02-.72.04-2.64h6.2a24.8,24.8,0,0,0,1.5,7.98A15.012,15.012,0,0,1,67-.3a6.636,6.636,0,0,1,1.52,1.74,18.405,18.405,0,0,0,4.84-3.5c1.16,1.88,2.74,3.22,3.76,3.22,1.1,0,1.8-1.18,2.26-3.88a5.964,5.964,0,0,1-1.8-1.34,11.645,11.645,0,0,1-.38,2.34c-.1.26-.18.38-.26.38a2.907,2.907,0,0,1-.9-.72,8.617,8.617,0,0,1-1.2-1.72,21.744,21.744,0,0,0,2.7-5c.32-.76.32-.76.44-1.06ZM95.3-5.96h1.88a11.59,11.59,0,0,1,1.8.12V-8A12.693,12.693,0,0,1,97-7.88H86.34V-8.94h8.48a11.93,11.93,0,0,1,1.84.1v-1.84a13.31,13.31,0,0,1-1.84.1H86.34v-.98h8.48a17.309,17.309,0,0,1,1.84.1v-1.82a13.741,13.741,0,0,1-1.84.1H86.34v-1h8.78a16.411,16.411,0,0,1,2.3.1V-16.2a13.546,13.546,0,0,1-2.32.12H86.14a16.057,16.057,0,0,1-2.18-.1,15.568,15.568,0,0,1,.08,1.98v6.32H83A12.915,12.915,0,0,1,80.92-8v2.16a12.579,12.579,0,0,1,2.04-.12h1.08V-.98a19.91,19.91,0,0,1-2.84.36l.42,2.24c.36-.1.42-.1.9-.2A57.916,57.916,0,0,0,90.34-.5l-.02-2A34.827,34.827,0,0,1,86.3-1.42V-5.96h1.74A10.633,10.633,0,0,0,91.1-2a17.312,17.312,0,0,0,7.2,3.48,9.776,9.776,0,0,1,1.06-2.3A17.648,17.648,0,0,1,94.12-2.6a13.28,13.28,0,0,0,1.92-1.38c.74-.66.98-.88,1.14-1Zm-.22,0A14.526,14.526,0,0,1,92.4-3.64a6.285,6.285,0,0,1-2.1-2.32Z" transform="translate(462.68 4503.528)" fill="#333"/>
      <path id="パス_577" data-name="パス 577" d="M-31.32-7.26v1.98H-36.5a18.835,18.835,0,0,1-2.44-.12v2.24a19.707,19.707,0,0,1,2.44-.12h5.18v2.4a20.034,20.034,0,0,1-.12,2.58h2.52a17.194,17.194,0,0,1-.14-2.58v-2.4h5.54a19.266,19.266,0,0,1,2.44.12V-5.4a19.049,19.049,0,0,1-2.44.12h-5.54V-7.26h3.78c1.08,0,1.56.02,2.34.08a14.053,14.053,0,0,1-.12-2.06V-14.1a12.471,12.471,0,0,1,.12-2.12,19.628,19.628,0,0,1-2.4.1h-9.4a18.565,18.565,0,0,1-2.34-.1,12.847,12.847,0,0,1,.12,2.16v4.74a12.869,12.869,0,0,1-.12,2.14c.74-.06,1.3-.08,2.34-.08Zm-3.52-6.96h9.64v1.6h-9.64Zm0,3.42h9.64v1.72h-9.64Zm31.2,6.16V-.9c0,.36-.14.44-.76.44a9.236,9.236,0,0,1-1.76-.2,8.587,8.587,0,0,1,.52,2.2c.98.06,1.02.06,1.26.06A5.325,5.325,0,0,0-2.4,1.32c.56-.24.84-.86.84-1.84V-13.78a18.956,18.956,0,0,1,.08-2.2,19.272,19.272,0,0,1-2.16.08h-2.9a21.735,21.735,0,0,1-2.22-.08,20.487,20.487,0,0,1,.1,2.6,71.75,71.75,0,0,1-.4,9.82A6.777,6.777,0,0,1-10.78.16a12.965,12.965,0,0,1,1.7,1.62c1.4-1.8,1.9-3.26,2.2-6.42Zm0-4.72v2.82h-3.1c.06-.9.08-1.64.1-2.82Zm0-1.92H-6.62v-2.64h2.98ZM-17.5-14.56a6.484,6.484,0,0,1-1.52-.1v2.02a8.589,8.589,0,0,1,1.52-.08V-5h-.26a8.945,8.945,0,0,1-1.48-.08v2.02a9.165,9.165,0,0,1,1.54-.08h6.56a16.283,16.283,0,0,1,1.68.06v-2a7.79,7.79,0,0,1-1.2.08v-7.72a7.22,7.22,0,0,1,1.36.08v-2.02a9.006,9.006,0,0,1-1.36.1v-.34a9.909,9.909,0,0,1,.1-1.7h-2.18a9.493,9.493,0,0,1,.1,1.7v.34h-2.88v-.34a10.2,10.2,0,0,1,.1-1.7H-17.6a10.2,10.2,0,0,1,.1,1.7ZM-15.52-5V-6.52h2.88V-5Zm0-3.28V-9.64h2.88v1.36Zm0-3.12v-1.32h2.88v1.32Zm-.8,8.44A9.182,9.182,0,0,1-19.24.14,7.481,7.481,0,0,1-17.7,1.72a12.715,12.715,0,0,0,3.08-3.64Zm2.58,1.08A11.327,11.327,0,0,0-11.8.7,7.528,7.528,0,0,1-10.3-.78a7.559,7.559,0,0,1-1.86-2.14Zm28-9.12A18.707,18.707,0,0,1,17-4.5l2.28-1.14a18.6,18.6,0,0,0-3-6.36ZM8.38-15.4a4.653,4.653,0,0,1,.16-.62l-2.6-.26v.36a28.133,28.133,0,0,1-.52,4.04,41.077,41.077,0,0,1-4.26.42L1.4-9.1a8.212,8.212,0,0,1,.82-.2l1.82-.3c.64-.12.64-.12.94-.16A29.418,29.418,0,0,1,.96-.34L3.28.94A42.939,42.939,0,0,0,7.36-9.94c.46-.04.78-.06,1.2-.06,1.54,0,2,.54,2,2.38a17.771,17.771,0,0,1-.52,4.56c-.3.98-.62,1.36-1.2,1.36a8.372,8.372,0,0,1-2.92-.8,7.512,7.512,0,0,1,.2,1.7c0,.2-.02.5-.04.88a9.272,9.272,0,0,0,3.08.6,2.533,2.533,0,0,0,2.22-.9c.96-1.1,1.54-3.84,1.54-7.28,0-1.82-.26-2.78-.94-3.54A3.874,3.874,0,0,0,9.02-12.1c-.36,0-.64.02-1.24.04.06-.26.06-.26.12-.6.2-1.08.34-1.9.44-2.48Zm4.64.14a13.5,13.5,0,0,1,2.1,2.98l1.4-.74a12.961,12.961,0,0,0-2.1-2.94Zm5.88.94a11.566,11.566,0,0,0-2.08-2.82l-1.34.7a14.736,14.736,0,0,1,2.04,2.9Zm7.34,6.9c.44-.94,1.32-3.12,2.46-6.04a19.27,19.27,0,0,1,.98-2.3l-2.7-.68c-.14.82-.14.82-4.74,13.6-.64,1.74-.82,2.22-1.1,2.8L23.72.8A22.942,22.942,0,0,1,25.4-3.78c.98-1.8,2.1-2.8,3.18-2.8a.99.99,0,0,1,.9.46,2.73,2.73,0,0,1,.16,1.18c0,.2,0,.68-.02,1.4v.2a5.8,5.8,0,0,0,.34,2.22A3.13,3.13,0,0,0,33.1.62c3.02,0,4.98-2.08,5.84-6.22a6.254,6.254,0,0,1-2.2-1.5,12.534,12.534,0,0,1-.76,3.18c-.58,1.4-1.44,2.14-2.5,2.14a1.68,1.68,0,0,1-1.06-.28c-.36-.3-.44-.7-.44-2.14,0-2.3-.1-3.02-.5-3.66A2.708,2.708,0,0,0,29.24-9a3.742,3.742,0,0,0-2.58,1.18c-.26.3-.26.3-.38.44Z" transform="translate(775.99 4503.528)" fill="#333"/>
      <g id="グループ_522" data-name="グループ 522">
        <rect id="長方形_305" data-name="長方形 305" width="180.923" height="106.941" rx="53.47" transform="translate(901.687 4401.879)" fill="#e61400"/>
        <path id="パス_579" data-name="パス 579" d="M-44.6-15.425c0,1.8-.05,3.1-.1,3.925h-1.8a12.823,12.823,0,0,1-2.45-.15V-8.8a13.161,13.161,0,0,1,2.425-.15h1.55a12.362,12.362,0,0,1-4.35,7.975A13.314,13.314,0,0,1-47.55,1.3,15.091,15.091,0,0,0-43.4-4.975,14.082,14.082,0,0,0-40.575-1.55a13.537,13.537,0,0,1,1.8-2.3A11.554,11.554,0,0,1-42.6-8.075c.075-.4.1-.525.15-.875h1.075a17.908,17.908,0,0,1,2.175.1v-2.775a12.424,12.424,0,0,1-2.1.125h-.875c.05-.875.1-2.2.125-3.925h.225a19.539,19.539,0,0,1,2.25.1v-2.65a12.964,12.964,0,0,1-2.225.125h-2.85c.15-.475.225-.75.325-1.175a14.616,14.616,0,0,1,.475-1.65l-2.625-.45a10.289,10.289,0,0,1-.35,1.95A14.356,14.356,0,0,1-49.35-13.9a9.6,9.6,0,0,1,2.05,1.7,15.56,15.56,0,0,0,1.75-3.225ZM-37.375-1.5A17.8,17.8,0,0,1-39.9-1.625V1.2a17.584,17.584,0,0,1,2.525-.125h8.95A17.584,17.584,0,0,1-25.9,1.2V-1.625a17.8,17.8,0,0,1-2.525.125H-29.9a31.161,31.161,0,0,0,2-4.9l-2.625-.875A26.73,26.73,0,0,1-32.55-1.5ZM-39.05-17.25a24.038,24.038,0,0,1,2.525-.1h7.675a24.038,24.038,0,0,1,2.525.1v-2.775a16.958,16.958,0,0,1-2.525.125h-7.675a16.958,16.958,0,0,1-2.525-.125Zm11.625,4a20.106,20.106,0,0,1,.1-2.325,22.564,22.564,0,0,1-2.525.1h-6.1a22,22,0,0,1-2.525-.1,20.955,20.955,0,0,1,.1,2.325v3.525a20.29,20.29,0,0,1-.1,2.275,21.631,21.631,0,0,1,2.375-.1h6.4a21.925,21.925,0,0,1,2.375.1,15.164,15.164,0,0,1-.1-2.275Zm-8.375.225h5.75v3H-35.8Zm2.3,10.2a22.763,22.763,0,0,0-2.175-4.45L-38-6.25A18.677,18.677,0,0,1-35.925-1.8ZM-4.55-5.8v4.675c0,.45-.175.55-.95.55a11.545,11.545,0,0,1-2.2-.25,10.733,10.733,0,0,1,.65,2.75C-5.825,2-5.775,2-5.475,2A6.656,6.656,0,0,0-3,1.65c.7-.3,1.05-1.075,1.05-2.3V-17.225a23.7,23.7,0,0,1,.1-2.75,24.09,24.09,0,0,1-2.7.1H-8.175a27.169,27.169,0,0,1-2.775-.1,25.609,25.609,0,0,1,.125,3.25,89.687,89.687,0,0,1-.5,12.275A8.472,8.472,0,0,1-13.475.2,16.206,16.206,0,0,1-11.35,2.225C-9.6-.025-8.975-1.85-8.6-5.8Zm0-5.9v3.525H-8.425c.075-1.125.1-2.05.125-3.525Zm0-2.4H-8.275v-3.3H-4.55Zm-17.325-4.1a8.105,8.105,0,0,1-1.9-.125V-15.8a10.736,10.736,0,0,1,1.9-.1v9.65H-22.2a11.181,11.181,0,0,1-1.85-.1v2.525a11.456,11.456,0,0,1,1.925-.1h8.2a20.353,20.353,0,0,1,2.1.075v-2.5a9.737,9.737,0,0,1-1.5.1V-15.9a9.025,9.025,0,0,1,1.7.1v-2.525a11.257,11.257,0,0,1-1.7.125v-.425A12.386,12.386,0,0,1-13.2-20.75h-2.725a11.866,11.866,0,0,1,.125,2.125v.425h-3.6v-.425a12.746,12.746,0,0,1,.125-2.125H-22a12.746,12.746,0,0,1,.125,2.125ZM-19.4-6.25v-1.9h3.6v1.9Zm0-4.1v-1.7h3.6v1.7Zm0-3.9V-15.9h3.6v1.65Zm-1,10.55A11.478,11.478,0,0,1-24.05.175,9.351,9.351,0,0,1-22.125,2.15a15.894,15.894,0,0,0,3.85-4.55Zm3.225,1.35A14.159,14.159,0,0,0-14.75.875a9.409,9.409,0,0,1,1.875-1.85A9.449,9.449,0,0,1-15.2-3.65Zm34.65-5.8c0-.975.025-1.6.075-2.25a20.106,20.106,0,0,1-2.325.1H9.65a20.384,20.384,0,0,1-2.325-.1c.05.675.075,1.375.075,2.25v6.1A17.235,17.235,0,0,1,7.225.45h2.65V-.95h5.3c.2,0,.675,0,1.4.025a9.495,9.495,0,0,1,.65,2.575c1.275.075,1.375.075,1.725.075a7.615,7.615,0,0,0,2.825-.3c.9-.375,1.2-1.025,1.2-2.525V-17.475c0-1.25.025-1.875.1-2.775a22.426,22.426,0,0,1-2.575.1H15.7a21.391,21.391,0,0,1-2.55-.1c.05.775.075,1.475.075,2.325V-14.1c0,1.075-.025,1.55-.075,2.275.625-.05,1.425-.075,2.3-.075h4.925V-1.45c0,.5-.225.675-.925.675C19-.775,18.1-.85,17.55-.9c-.05-.65-.075-1.225-.075-2.175ZM15.7-18.125h4.675v1.25H15.7Zm0,3.025h4.675v1.275H15.7ZM9.875-8.2h5.1v1.5h-5.1Zm0,3.525h5.1V-3.05h-5.1ZM4.65-11.9H9.175c.875,0,1.65.025,2.3.075-.05-.55-.075-1.125-.075-2.275v-3.825c0-.975.025-1.525.075-2.325a21.123,21.123,0,0,1-2.55.1H4.5a22.706,22.706,0,0,1-2.575-.1,27.716,27.716,0,0,1,.1,2.8V-1.125a22.349,22.349,0,0,1-.15,3.1H4.8A21.685,21.685,0,0,1,4.65-1.1Zm0-6.225h4.3v1.25H4.65Zm0,3.025h4.3v1.275H4.65Zm22.375.925a31.376,31.376,0,0,1,4.15-.5c4.85-.35,6.4-.5,8.425-.8a11.055,11.055,0,0,0-3.475,2.525A8.705,8.705,0,0,0,33.75-7.075,6.689,6.689,0,0,0,37.325-1.05,15.04,15.04,0,0,0,43.175.6c.475.075.525.075.85.15l.45-3.4c-.25.025-.475.025-.5.025a15.171,15.171,0,0,1-3.725-.65A4.2,4.2,0,0,1,36.925-7.35c0-2.525,1.875-5.025,5.05-6.675a11.181,11.181,0,0,1,4.95-1.35,3.871,3.871,0,0,1,.525.025l-.175-3.175a13.469,13.469,0,0,1-2.575.2c-6.675.325-10.95.55-12.775.65-3.675.25-3.675.25-4.125.25-.125,0-.4,0-.95-.025Zm15.3,2.4A16.873,16.873,0,0,1,44.95-8.05l1.75-.925a16.2,16.2,0,0,0-2.625-3.675Zm7.35,1.175a14.458,14.458,0,0,0-2.6-3.525L45.4-13.25a18.419,18.419,0,0,1,2.55,3.625ZM-46.6,20.45a12.3,12.3,0,0,0,1.125-1.3,15.071,15.071,0,0,1,1.25-1.4l-1.45-1.375a12.634,12.634,0,0,1-2.4.125h-3.95c.4-.55.5-.675.925-1.325l-3.125-.55A17.894,17.894,0,0,1-61.35,21.75a11.888,11.888,0,0,1,1.55,2.3,23.263,23.263,0,0,0,3.2-2.45v1.2c.6-.05,1.2-.075,1.85-.075h10.7v1.3H-55.7a18.132,18.132,0,0,1-2.275-.1V26.3c.925-.075,1.375-.1,2.275-.1h11.65v1.4H-56.075a18.323,18.323,0,0,1-2.3-.1v2.475a22.6,22.6,0,0,1,2.3-.1h5.925l-1.4,1.175a26.473,26.473,0,0,1,3.225,3.15l1.85-1.75a19.089,19.089,0,0,0-2.8-2.575h6.4c.525,0,.775.025,1.55.075-.025-.375-.05-.825-.05-1.45V21.825c0-.675.025-1.075.05-1.45a14.625,14.625,0,0,1-1.6.075Zm-8.175,0h-.575a18.682,18.682,0,0,0,1.625-1.75h5.3A12.688,12.688,0,0,1-49.9,20.45Zm-4.4,17.05a18.534,18.534,0,0,0,2.9-6.325L-58.75,30.5a13.5,13.5,0,0,1-2.75,5.475Zm6.5-4.975A9.578,9.578,0,0,1-52.55,30.5h-2.9a9.693,9.693,0,0,1,.15,2.025V35.25c0,2.1.725,2.45,5.05,2.45,3.575,0,5.075-.225,5.725-.85.6-.55.8-1.2,1.1-3.4a8.794,8.794,0,0,1-2.6-.825c-.075,1.25-.225,1.975-.475,2.2-.4.35-1.125.45-3.375.45-2.65,0-2.8-.05-2.8-.9Zm8.375-.9a25.459,25.459,0,0,1,3.625,5.625l2.375-1.7a38.593,38.593,0,0,0-3.85-5.35Zm14.7-3a10.514,10.514,0,0,1-.8,4.275,7.966,7.966,0,0,1-2.375,3.125,7.36,7.36,0,0,1,1.7,1.925,10.913,10.913,0,0,0,3.4-5.85h2.55a15.049,15.049,0,0,1-.35,2.875c-.1.4-.25.5-.8.5a16.373,16.373,0,0,1-1.75-.125,5.992,5.992,0,0,1,.45,2.225c.6.025,1.275.05,1.525.05,1.725,0,2.325-.375,2.7-1.775a6.937,6.937,0,0,1,1.55,2,17.827,17.827,0,0,0,3.775-4.225,19.23,19.23,0,0,0,3.95,4.1,9.04,9.04,0,0,1,1.45-2.55,16.44,16.44,0,0,1-4.05-3.95c1.225-2.7,1.75-5.3,2.025-9.7a8.413,8.413,0,0,1,1.4.125v-2.5a9.806,9.806,0,0,1-2,.15h-3.275c.25-.825.425-1.475.625-2.25a7.027,7.027,0,0,1,.425-1.55l-2.7-.475a22.181,22.181,0,0,1-2.8,8.4v-4c0-1.325.025-1.875.075-2.425a17.717,17.717,0,0,1-2.35.1h-.95c.3-.575.35-.675.825-1.75l-2.7-.325a6.572,6.572,0,0,1-.7,2.075A15.827,15.827,0,0,1-31,17c.05.525.075.75.1,1.35a19.21,19.21,0,0,0-3.7-3.025l-1.8,1.85a17.824,17.824,0,0,1,3.75,3.25l1.75-1.95V22.75a21.306,21.306,0,0,1-.1,2.475,13.7,13.7,0,0,1,2.05-.1h.8v1.45h-1.825A12.2,12.2,0,0,1-32,26.45v2.275a14.7,14.7,0,0,1,1.925-.1Zm5.65,0a14.06,14.06,0,0,1,1.9.1V26.55l.7-1.075a19.444,19.444,0,0,0,1.9,5.825,17.109,17.109,0,0,1-1.9,2.525A11.232,11.232,0,0,1-23.275,35.6a31.81,31.81,0,0,0,.475-4.175,10.473,10.473,0,0,1,.1-1.4c-.55.05-1.125.075-1.95.075h-2.675c.075-.525.075-.7.125-1.475Zm6.825-7.1A22.717,22.717,0,0,1-18.2,28.65a18.364,18.364,0,0,1-1.5-6.275c.2-.475.225-.525.35-.85Zm-8.65,5.05v-1.45h1.15c.475,0,1.05.025,1.425.025a9.577,9.577,0,0,1,.975,1.325,9.941,9.941,0,0,1-1.6.1Zm-2.925-7.7h3.525v1.4H-28.7Zm0,3.125h3.525v1.4H-28.7Zm-8.35,1.375a17.183,17.183,0,0,1,3.85,3.1l1.625-2.125a19.556,19.556,0,0,0-3.85-2.875Zm3.325,4.975c-.9,3.175-2.25,6.25-3.25,7.4l2.225,1.85c.1-.2.125-.225.175-.35l.375-.75c.025-.1.425-1.1,1.2-2.975.6-1.5.6-1.5,1.375-3.625ZM-5.9,36.6c-.025-.325-.025-.525-.025-.675A20.524,20.524,0,0,1-3.7,28.35l-2-.9A25.5,25.5,0,0,0-7,30.75c.025-.625.05-.825.05-1.375a41.741,41.741,0,0,1,.375-5.525A34.467,34.467,0,0,1-5,16.375l-3.3-.35a16.359,16.359,0,0,1-.375,2.325A48,48,0,0,0-9.7,28.125,43.606,43.606,0,0,0-9.05,35.6c.075.575.1.725.125,1.175Zm3.45-14.975a29.677,29.677,0,0,0,4.5.275,44.78,44.78,0,0,0,5.35-.3c1.2-.15,1.575-.2,1.775-.225l-.15-3.025a27.569,27.569,0,0,1-6.8.675,18.026,18.026,0,0,1-4.625-.4ZM-.725,25.75a8.167,8.167,0,0,0-2.3,5.15,4.188,4.188,0,0,0,.75,2.45c1.1,1.475,3.1,2.175,6.2,2.175A30.829,30.829,0,0,0,9.1,35.05a8.355,8.355,0,0,1,1.025-.15l-.25-3.175a17.569,17.569,0,0,1-5.95.95c-2.6,0-3.975-.75-3.975-2.175,0-1.075.525-2.15,1.775-3.6ZM32.3,22.675a17.262,17.262,0,0,1-2.4,5.85,33.884,33.884,0,0,1-1.15-7.475h4.5c1.275,0,2.225.05,3.05.125v-2.75a13.933,13.933,0,0,1-2.65.15H32.9l1.3-.9a13.988,13.988,0,0,0-2.525-2.625L29.75,16.275a11.813,11.813,0,0,1,2.2,2.3h-3.3v-1.15a20.632,20.632,0,0,1,.125-2.375H25.8a7.745,7.745,0,0,1,.125,1.575c.05,1.1.05,1.75.075,1.95H18.75c-1.3,0-2.325-.05-3.225-.125a24.738,24.738,0,0,1,.15,3.55,46.986,46.986,0,0,1-.75,9.875,11.688,11.688,0,0,1-1.725,3.95,9.177,9.177,0,0,1,2.175,2.125,13.523,13.523,0,0,0,2.05-4.875A38.633,38.633,0,0,0,18.2,26.8h3.65a27.174,27.174,0,0,1-.375,4.525c-.125.625-.35.775-1.125.775a15.24,15.24,0,0,1-2.425-.2,9.357,9.357,0,0,1,.65,2.65c.8.05,1.2.075,1.9.075,1.925,0,2.825-.375,3.225-1.375.425-1.05.575-2.375.825-6.875.05-.975.1-1.675.15-2.125a10.923,10.923,0,0,1-1.775.1H18.3c.025-.9.025-.9.05-3.3H26.1a31,31,0,0,0,1.875,9.975,18.765,18.765,0,0,1-6.725,4.6,8.3,8.3,0,0,1,1.9,2.175,23.006,23.006,0,0,0,6.05-4.375c1.45,2.35,3.425,4.025,4.7,4.025,1.375,0,2.25-1.475,2.825-4.85a7.455,7.455,0,0,1-2.25-1.675A14.556,14.556,0,0,1,34,33.85c-.125.325-.225.475-.325.475a3.634,3.634,0,0,1-1.125-.9,10.771,10.771,0,0,1-1.5-2.15,27.181,27.181,0,0,0,3.375-6.25c.4-.95.4-.95.55-1.325ZM56.625,28.55h2.35a14.488,14.488,0,0,1,2.25.15V26a15.867,15.867,0,0,1-2.475.15H45.425V24.825h10.6a14.912,14.912,0,0,1,2.3.125v-2.3a16.637,16.637,0,0,1-2.3.125h-10.6V21.55h10.6a21.636,21.636,0,0,1,2.3.125V19.4a17.176,17.176,0,0,1-2.3.125h-10.6v-1.25H56.4a20.514,20.514,0,0,1,2.875.125V15.75a16.933,16.933,0,0,1-2.9.15h-11.2a20.071,20.071,0,0,1-2.725-.125,19.46,19.46,0,0,1,.1,2.475v7.9h-1.3a16.144,16.144,0,0,1-2.6-.15v2.7a15.723,15.723,0,0,1,2.55-.15h1.35v6.225a24.886,24.886,0,0,1-3.55.45l.525,2.8c.45-.125.525-.125,1.125-.25a72.4,72.4,0,0,0,9.775-2.4l-.025-2.5a43.533,43.533,0,0,1-5.025,1.35V28.55H47.55a13.291,13.291,0,0,0,3.825,4.95,21.64,21.64,0,0,0,9,4.35A12.22,12.22,0,0,1,61.7,34.975a22.059,22.059,0,0,1-6.55-2.225,16.6,16.6,0,0,0,2.4-1.725c.925-.825,1.225-1.1,1.425-1.25Zm-.275,0A18.157,18.157,0,0,1,53,31.45a7.856,7.856,0,0,1-2.625-2.9Z" transform="translate(992.148 4446.85)" fill="#fff"/>
      </g>
    </g>
  </g>
</svg>
