<svg xmlns="http://www.w3.org/2000/svg" width="349.632" height="307.305" viewBox="0 0 349.632 307.305">
  <g id="グループ_749" data-name="グループ 749" transform="translate(-180 -2021.406)">
    <g id="グループ_746" data-name="グループ 746" transform="translate(-1919.432 -2941)">
      <rect id="長方形_148" data-name="長方形 148" width="349.632" height="307.305" rx="10" transform="translate(2099.432 4962.406)" fill="#fff"/>
      <path id="長方形_149" data-name="長方形 149" d="M10-1h5a1,1,0,0,1,1,1,1,1,0,0,1-1,1H9.976a1,1,0,0,1-1-1,1,1,0,0,1,1-1Zm9.994,0h5a1,1,0,0,1,1,1,1,1,0,0,1-1,1h-5a1,1,0,0,1-1-1A1,1,0,0,1,19.994-1Zm9.994,0h5a1,1,0,0,1,1,1,1,1,0,0,1-1,1h-5a1,1,0,0,1-1-1A1,1,0,0,1,29.987-1Zm9.994,0h5a1,1,0,0,1,1,1,1,1,0,0,1-1,1h-5a1,1,0,0,1-1-1A1,1,0,0,1,39.981-1Zm9.994,0h5a1,1,0,0,1,1,1,1,1,0,0,1-1,1h-5a1,1,0,0,1-1-1A1,1,0,0,1,49.975-1Zm9.994,0h5a1,1,0,0,1,1,1,1,1,0,0,1-1,1h-5a1,1,0,0,1-1-1A1,1,0,0,1,59.969-1Zm9.994,0h5a1,1,0,0,1,1,1,1,1,0,0,1-1,1h-5a1,1,0,0,1-1-1A1,1,0,0,1,69.962-1Zm9.994,0h5a1,1,0,0,1,1,1,1,1,0,0,1-1,1h-5a1,1,0,0,1-1-1A1,1,0,0,1,79.956-1ZM89.95-1h5a1,1,0,0,1,1,1,1,1,0,0,1-1,1h-5a1,1,0,0,1-1-1A1,1,0,0,1,89.95-1Zm9.994,0h5a1,1,0,0,1,1,1,1,1,0,0,1-1,1h-5a1,1,0,0,1-1-1A1,1,0,0,1,99.943-1Zm9.994,0h5a1,1,0,0,1,1,1,1,1,0,0,1-1,1h-5a1,1,0,0,1-1-1A1,1,0,0,1,109.937-1Zm9.994,0h5a1,1,0,0,1,1,1,1,1,0,0,1-1,1h-5a1,1,0,0,1-1-1A1,1,0,0,1,119.931-1Zm9.994,0h5a1,1,0,0,1,1,1,1,1,0,0,1-1,1h-5a1,1,0,0,1-1-1A1,1,0,0,1,129.925-1Zm9.994,0h5a1,1,0,0,1,1,1,1,1,0,0,1-1,1h-5a1,1,0,0,1-1-1A1,1,0,0,1,139.918-1Zm9.994,0h5a1,1,0,0,1,1,1,1,1,0,0,1-1,1h-5a1,1,0,0,1-1-1A1,1,0,0,1,149.912-1Zm9.994,0h5a1,1,0,0,1,1,1,1,1,0,0,1-1,1h-5a1,1,0,0,1-1-1A1,1,0,0,1,159.906-1ZM169.9-1h5a1,1,0,0,1,1,1,1,1,0,0,1-1,1h-5a1,1,0,0,1-1-1A1,1,0,0,1,169.9-1Zm9.994,0h5a1,1,0,0,1,1,1,1,1,0,0,1-1,1h-5a1,1,0,0,1-1-1A1,1,0,0,1,179.893-1Zm9.994,0h5a1,1,0,0,1,1,1,1,1,0,0,1-1,1h-5a1,1,0,0,1-1-1A1,1,0,0,1,189.887-1Zm9.994,0h5a1,1,0,0,1,1,1,1,1,0,0,1-1,1h-5a1,1,0,0,1-1-1A1,1,0,0,1,199.881-1Zm9.994,0h5a1,1,0,0,1,1,1,1,1,0,0,1-1,1h-5a1,1,0,0,1-1-1A1,1,0,0,1,209.874-1Zm9.994,0h5a1,1,0,0,1,1,1,1,1,0,0,1-1,1h-5a1,1,0,0,1-1-1A1,1,0,0,1,219.868-1Zm9.994,0h5a1,1,0,0,1,1,1,1,1,0,0,1-1,1h-5a1,1,0,0,1-1-1A1,1,0,0,1,229.862-1Zm9.994,0h5a1,1,0,0,1,1,1,1,1,0,0,1-1,1h-5a1,1,0,0,1-1-1A1,1,0,0,1,239.856-1Zm9.994,0h5a1,1,0,0,1,1,1,1,1,0,0,1-1,1h-5a1,1,0,0,1-1-1A1,1,0,0,1,249.849-1Zm9.994,0h5a1,1,0,0,1,1,1,1,1,0,0,1-1,1h-5a1,1,0,0,1-1-1A1,1,0,0,1,259.843-1Zm9.994,0h5a1,1,0,0,1,1,1,1,1,0,0,1-1,1h-5a1,1,0,0,1-1-1A1,1,0,0,1,269.837-1Zm9.994,0h5a1,1,0,0,1,1,1,1,1,0,0,1-1,1h-5a1,1,0,0,1-1-1A1,1,0,0,1,279.83-1Zm9.994,0h5a1,1,0,0,1,1,1,1,1,0,0,1-1,1h-5a1,1,0,0,1-1-1A1,1,0,0,1,289.824-1Zm9.994,0h5a1,1,0,0,1,1,1,1,1,0,0,1-1,1h-5a1,1,0,0,1-1-1A1,1,0,0,1,299.818-1Zm9.994,0h2.747a11.06,11.06,0,0,1,2.454.275,1,1,0,0,1-.444,1.95A9.054,9.054,0,0,0,312.558,1h-2.747a1,1,0,0,1-1-1A1,1,0,0,1,309.812-1ZM5.187.232a1,1,0,0,1,.483,1.876A9.065,9.065,0,0,0,2.417,5.15,1,1,0,1,1,.734,4.07,11.071,11.071,0,0,1,4.706.356,1,1,0,0,1,5.187.232Zm314,1.28a1,1,0,0,1,.663.251,11.042,11.042,0,0,1,3.057,4.5,1,1,0,0,1-1.881.679,9.036,9.036,0,0,0-2.5-3.681,1,1,0,0,1,.664-1.749ZM.023,8.3l.07,0a1,1,0,0,1,.929,1.066C1.007,9.58,1,9.791,1,10v4.3a1,1,0,0,1-1,1,1,1,0,0,1-1-1V10c0-.254.009-.511.026-.764A1,1,0,0,1,.023,8.3Zm322.536,2.226a1,1,0,0,1,1,1v5a1,1,0,1,1-2,0v-5A1,1,0,0,1,322.558,10.531ZM0,18.3a1,1,0,0,1,1,1v5a1,1,0,0,1-1,1,1,1,0,0,1-1-1v-5A1,1,0,0,1,0,18.3Zm322.558,2.227a1,1,0,0,1,1,1v5a1,1,0,0,1-2,0v-5A1,1,0,0,1,322.558,20.525ZM0,28.292a1,1,0,0,1,1,1v5a1,1,0,0,1-1,1,1,1,0,0,1-1-1v-5A1,1,0,0,1,0,28.292Zm322.558,2.227a1,1,0,0,1,1,1v5a1,1,0,1,1-2,0v-5A1,1,0,0,1,322.558,30.518ZM0,38.286a1,1,0,0,1,1,1v5a1,1,0,0,1-1,1,1,1,0,0,1-1-1v-5A1,1,0,0,1,0,38.286Zm322.558,2.227a1,1,0,0,1,1,1v5a1,1,0,0,1-2,0v-5A1,1,0,0,1,322.558,40.512ZM0,48.279a1,1,0,0,1,1,1v5a1,1,0,0,1-1,1,1,1,0,0,1-1-1v-5A1,1,0,0,1,0,48.279Zm322.558,2.226a1,1,0,0,1,1,1v5a1,1,0,0,1-2,0v-5A1,1,0,0,1,322.558,50.506ZM0,58.273a1,1,0,0,1,1,1v5a1,1,0,0,1-1,1,1,1,0,0,1-1-1v-5A1,1,0,0,1,0,58.273ZM322.558,60.5a1,1,0,0,1,1,1v5a1,1,0,0,1-2,0v-5A1,1,0,0,1,322.558,60.5ZM0,68.267a1,1,0,0,1,1,1v5a1,1,0,0,1-1,1,1,1,0,0,1-1-1v-5A1,1,0,0,1,0,68.267Zm322.558,2.227a1,1,0,0,1,1,1v5a1,1,0,0,1-2,0v-5A1,1,0,0,1,322.558,70.493ZM0,78.26a1,1,0,0,1,1,1v5a1,1,0,0,1-1,1,1,1,0,0,1-1-1v-5A1,1,0,0,1,0,78.26Zm322.558,2.227a1,1,0,0,1,1,1v5a1,1,0,0,1-2,0v-5A1,1,0,0,1,322.558,80.487ZM0,88.254a1,1,0,0,1,1,1v5a1,1,0,0,1-1,1,1,1,0,0,1-1-1v-5A1,1,0,0,1,0,88.254Zm322.558,2.227a1,1,0,0,1,1,1v5a1,1,0,0,1-2,0v-5A1,1,0,0,1,322.558,90.481ZM0,98.248a1,1,0,0,1,1,1v5a1,1,0,0,1-1,1,1,1,0,0,1-1-1v-5A1,1,0,0,1,0,98.248Zm322.558,2.227a1,1,0,0,1,1,1v5a1,1,0,1,1-2,0v-5A1,1,0,0,1,322.558,100.474ZM0,108.242a1,1,0,0,1,1,1v5a1,1,0,0,1-1,1,1,1,0,0,1-1-1v-5A1,1,0,0,1,0,108.242Zm322.558,2.227a1,1,0,0,1,1,1v5a1,1,0,0,1-2,0v-5A1,1,0,0,1,322.558,110.468ZM0,118.235a1,1,0,0,1,1,1v5a1,1,0,0,1-1,1,1,1,0,0,1-1-1v-5A1,1,0,0,1,0,118.235Zm322.558,2.227a1,1,0,0,1,1,1v5a1,1,0,0,1-2,0v-5A1,1,0,0,1,322.558,120.462ZM0,128.229a1,1,0,0,1,1,1v5a1,1,0,0,1-1,1,1,1,0,0,1-1-1v-5A1,1,0,0,1,0,128.229Zm322.558,2.227a1,1,0,0,1,1,1v5a1,1,0,1,1-2,0v-5A1,1,0,0,1,322.558,130.455ZM0,138.223a1,1,0,0,1,1,1v5a1,1,0,0,1-1,1,1,1,0,0,1-1-1v-5A1,1,0,0,1,0,138.223Zm322.558,2.227a1,1,0,0,1,1,1v5a1,1,0,1,1-2,0v-5A1,1,0,0,1,322.558,140.449ZM0,148.216a1,1,0,0,1,1,1v5a1,1,0,0,1-1,1,1,1,0,0,1-1-1v-5A1,1,0,0,1,0,148.216Zm322.558,2.227a1,1,0,0,1,1,1v5a1,1,0,0,1-2,0v-5A1,1,0,0,1,322.558,150.443ZM0,158.21a1,1,0,0,1,1,1v5a1,1,0,0,1-1,1,1,1,0,0,1-1-1v-5A1,1,0,0,1,0,158.21Zm322.558,2.227a1,1,0,0,1,1,1v5a1,1,0,0,1-2,0v-5A1,1,0,0,1,322.558,160.437ZM0,168.2a1,1,0,0,1,1,1v5a1,1,0,0,1-1,1,1,1,0,0,1-1-1v-5A1,1,0,0,1,0,168.2Zm322.558,2.226a1,1,0,0,1,1,1v5a1,1,0,0,1-2,0v-5A1,1,0,0,1,322.558,170.43ZM0,178.2a1,1,0,0,1,1,1v5a1,1,0,0,1-1,1,1,1,0,0,1-1-1v-5A1,1,0,0,1,0,178.2Zm322.558,2.227a1,1,0,0,1,1,1v5a1,1,0,0,1-2,0v-5A1,1,0,0,1,322.558,180.424ZM0,188.191a1,1,0,0,1,1,1v5a1,1,0,0,1-1,1,1,1,0,0,1-1-1v-5A1,1,0,0,1,0,188.191Zm322.558,2.227a1,1,0,0,1,1,1v5a1,1,0,1,1-2,0v-5A1,1,0,0,1,322.558,190.418ZM0,198.185a1,1,0,0,1,1,1v5a1,1,0,0,1-1,1,1,1,0,0,1-1-1v-5A1,1,0,0,1,0,198.185Zm322.558,2.227a1,1,0,0,1,1,1v5a1,1,0,0,1-2,0v-5A1,1,0,0,1,322.558,200.412ZM0,208.179a1,1,0,0,1,1,1v5a1,1,0,0,1-1,1,1,1,0,0,1-1-1v-5A1,1,0,0,1,0,208.179Zm322.558,2.227a1,1,0,0,1,1,1v5a1,1,0,0,1-2,0v-5A1,1,0,0,1,322.558,210.405ZM0,218.172a1,1,0,0,1,1,1v5a1,1,0,0,1-1,1,1,1,0,0,1-1-1v-5A1,1,0,0,1,0,218.172ZM322.558,220.4a1,1,0,0,1,1,1v5a1,1,0,0,1-2,0v-5A1,1,0,0,1,322.558,220.4ZM0,228.166a1,1,0,0,1,1,1v5a1,1,0,0,1-1,1,1,1,0,0,1-1-1v-5A1,1,0,0,1,0,228.166Zm322.558,2.227a1,1,0,0,1,1,1v5a1,1,0,0,1-2,0v-5A1,1,0,0,1,322.558,230.393ZM0,238.16a1,1,0,0,1,1,1v5a1,1,0,0,1-1,1,1,1,0,0,1-1-1v-5A1,1,0,0,1,0,238.16Zm322.558,2.227a1,1,0,0,1,1,1v5a1,1,0,1,1-2,0v-5A1,1,0,0,1,322.558,240.386ZM0,248.154a1,1,0,0,1,1,1v5a1,1,0,0,1-1,1,1,1,0,0,1-1-1v-5A1,1,0,0,1,0,248.154Zm322.558,2.227a1,1,0,0,1,1,1v5a1,1,0,0,1-2,0v-5A1,1,0,0,1,322.558,250.38ZM0,258.147a1,1,0,0,1,1,1v5a1,1,0,0,1-1,1,1,1,0,0,1-1-1v-5A1,1,0,0,1,0,258.147Zm322.558,2.227a1,1,0,0,1,1,1v5a1,1,0,0,1-2,0v-5A1,1,0,0,1,322.558,260.374ZM0,268.141a1,1,0,0,1,1,1v1.519a8.974,8.974,0,0,0,.536,3.068,1,1,0,0,1-1.88.682A10.968,10.968,0,0,1-1,270.66v-1.519A1,1,0,0,1,0,268.141Zm322.533,2.226.071,0a1,1,0,0,1,.928,1.067,10.993,10.993,0,0,1-1.714,5.164,1,1,0,1,1-1.682-1.081,8.988,8.988,0,0,0,1.4-4.222A1,1,0,0,1,322.533,270.367ZM3.381,277.156a1,1,0,0,1,.662.251A9,9,0,0,0,8,279.438a1,1,0,0,1-.442,1.951A11.007,11.007,0,0,1,2.718,278.9a1,1,0,0,1,.663-1.749Zm313.979,1.278a1,1,0,0,1,.482,1.877,11.013,11.013,0,0,1-5.27,1.35,1,1,0,0,1,0-2,9.009,9.009,0,0,0,4.311-1.1A1,1,0,0,1,317.36,278.434Zm-304.6,1.227h5a1,1,0,0,1,0,2h-5a1,1,0,0,1,0-2Zm9.994,0h5a1,1,0,0,1,0,2h-5a1,1,0,1,1,0-2Zm9.994,0h5a1,1,0,1,1,0,2h-5a1,1,0,1,1,0-2Zm9.994,0h5a1,1,0,1,1,0,2h-5a1,1,0,1,1,0-2Zm9.994,0h5a1,1,0,0,1,0,2h-5a1,1,0,0,1,0-2Zm9.994,0h5a1,1,0,0,1,0,2h-5a1,1,0,0,1,0-2Zm9.994,0h5a1,1,0,0,1,0,2h-5a1,1,0,0,1,0-2Zm9.994,0h5a1,1,0,0,1,0,2h-5a1,1,0,0,1,0-2Zm9.994,0h5a1,1,0,0,1,0,2h-5a1,1,0,0,1,0-2Zm9.994,0h5a1,1,0,1,1,0,2h-5a1,1,0,0,1,0-2Zm9.994,0h5a1,1,0,0,1,0,2h-5a1,1,0,0,1,0-2Zm9.994,0h5a1,1,0,0,1,0,2h-5a1,1,0,0,1,0-2Zm9.994,0h5a1,1,0,0,1,0,2h-5a1,1,0,0,1,0-2Zm9.994,0h5a1,1,0,0,1,0,2h-5a1,1,0,0,1,0-2Zm9.994,0h5a1,1,0,1,1,0,2h-5a1,1,0,0,1,0-2Zm9.994,0h5a1,1,0,0,1,0,2h-5a1,1,0,0,1,0-2Zm9.994,0h5a1,1,0,0,1,0,2h-5a1,1,0,1,1,0-2Zm9.994,0h5a1,1,0,0,1,0,2h-5a1,1,0,0,1,0-2Zm9.994,0h5a1,1,0,0,1,0,2h-5a1,1,0,0,1,0-2Zm9.994,0h5a1,1,0,1,1,0,2h-5a1,1,0,0,1,0-2Zm9.994,0h5a1,1,0,1,1,0,2h-5a1,1,0,0,1,0-2Zm9.994,0h5a1,1,0,0,1,0,2h-5a1,1,0,1,1,0-2Zm9.994,0h5a1,1,0,1,1,0,2h-5a1,1,0,0,1,0-2Zm9.994,0h5a1,1,0,0,1,0,2h-5a1,1,0,0,1,0-2Zm9.994,0h5a1,1,0,0,1,0,2h-5a1,1,0,1,1,0-2Zm9.994,0h5a1,1,0,0,1,0,2h-5a1,1,0,0,1,0-2Zm9.994,0h5a1,1,0,0,1,0,2h-5a1,1,0,0,1,0-2Zm9.994,0h5a1,1,0,0,1,0,2h-5a1,1,0,0,1,0-2Zm9.994,0h5a1,1,0,0,1,0,2h-5a1,1,0,1,1,0-2Zm9.994,0h5a1,1,0,1,1,0,2h-5a1,1,0,0,1,0-2Z" transform="translate(2112.969 4975.729)" fill="#82c195"/>
    </g>
    <g id="グループ_747" data-name="グループ 747" transform="translate(-1919.432 -2941)">
      <path id="パス_635" data-name="パス 635" d="M-92.742-1.846c-3.146-3.042-3.146-3.042-3.8-3.614a40.3,40.3,0,0,0-4.81-3.77,34.434,34.434,0,0,0,4.056-7.176,5,5,0,0,1,.832-1.4l-1.716-1.768a5.632,5.632,0,0,1-2.314.286l-9.152.13h-.624a11.378,11.378,0,0,1-2.288-.156l.1,3.328a20.49,20.49,0,0,1,2.834-.208c8.19-.13,8.19-.13,8.606-.156l-.286.676A25.061,25.061,0,0,1-110.032-5.1a21.466,21.466,0,0,1-5.2,2.86A10.43,10.43,0,0,1-113.126.65a30.9,30.9,0,0,0,9.906-7.514A49.981,49.981,0,0,1-95.238.858Zm22.386-8.762a25.726,25.726,0,0,1,3.3.13v-3.094a18.468,18.468,0,0,1-3.354.182h-15.21a18.3,18.3,0,0,1-3.354-.182v3.094a25.726,25.726,0,0,1,3.3-.13h6.344A11.041,11.041,0,0,1-80.47-5.694c-1.092,2-3.042,3.38-6.162,4.342a8.249,8.249,0,0,1,2.106,2.86c3.51-1.4,5.408-2.834,6.786-5.122a14.118,14.118,0,0,0,1.82-6.994Zm-15.99-6.344a24.494,24.494,0,0,1,3.3-.13h10.088a24.494,24.494,0,0,1,3.3.13v-3.172a17.639,17.639,0,0,1-3.354.182h-9.984a17.639,17.639,0,0,1-3.354-.182Zm23.192,8.788a28.543,28.543,0,0,1,4.238-.13H-45.11a28.543,28.543,0,0,1,4.238.13v-3.614a25.533,25.533,0,0,1-4.212.182H-58.942a25.533,25.533,0,0,1-4.212-.182Zm28.652-9.62a31.477,31.477,0,0,1,6.942,3.562l1.664-2.86a42.816,42.816,0,0,0-6.916-3.354Zm-2.054,6.318a30.178,30.178,0,0,1,7.046,3.8l1.612-2.938a41.036,41.036,0,0,0-6.916-3.536Zm15.444-8.58a17.548,17.548,0,0,1,2.73,3.874l1.82-.962a16.85,16.85,0,0,0-2.73-3.822ZM-35.074,1.066a15.352,15.352,0,0,1,1.82-.442C-23.946-1.2-18.46-5.46-15.236-13.338a12.641,12.641,0,0,1-2.7-2.314c-1.872,5.538-5.772,9.8-10.53,11.466A23.1,23.1,0,0,1-35.984-2.5Zm21.606-19.89a15.036,15.036,0,0,0-2.7-3.666l-1.742.91a19.156,19.156,0,0,1,2.652,3.77ZM-2.314-7.358A31.671,31.671,0,0,1-2.7-1.742c-.1.52-.39.7-1.118.7a17.745,17.745,0,0,1-2.73-.26A8.106,8.106,0,0,1-5.9,1.56c1.144.1,1.742.13,2.314.13C-1.352,1.69-.65,1.3-.208-.1a36.013,36.013,0,0,0,.65-8.06c.026-1.04.026-1.3.078-1.82a16.409,16.409,0,0,1-2.47.13H-5.538c.052-.988.078-1.118.1-2.522H-2.7c1.482,0,2.418.026,3.276.1a19.515,19.515,0,0,1-.1-2.7v-3.38a27.409,27.409,0,0,1,.1-2.756,22.943,22.943,0,0,1-3.2.13H-7.878a26.057,26.057,0,0,1-3.25-.13c.078.988.1,1.534.1,2.86v3.146c0,1.326-.026,1.924-.1,2.834a26.064,26.064,0,0,1,2.886-.1,30.5,30.5,0,0,1-.442,5.018c-.572,3.25-1.482,5.018-3.588,6.838a8.011,8.011,0,0,1,1.95,2.548A13.2,13.2,0,0,0-7.306-2.054a17.546,17.546,0,0,0,1.482-5.3Zm-5.954-11.18h6.032v3.718H-8.268ZM2.548-20.306A23.938,23.938,0,0,1,2.7-17.134v9.88a19.944,19.944,0,0,1-.13,3.042h2.99a21.67,21.67,0,0,1-.13-3.094v-9.828a20.137,20.137,0,0,1,.156-3.172Zm5.616-1.326A30.926,30.926,0,0,1,8.346-18.1v16.25c0,.624-.26.78-1.248.78a32.354,32.354,0,0,1-3.536-.26,11.512,11.512,0,0,1,.884,2.912c1.222.052,1.586.078,2.158.078,3.8,0,4.524-.52,4.524-3.146V-18.1a27.19,27.19,0,0,1,.182-3.536Zm19.864,4.966a5.683,5.683,0,0,1,2.626.78,6.441,6.441,0,0,1,3.2,5.772,7.279,7.279,0,0,1-3.614,6.5,13.818,13.818,0,0,1-5.174,1.43A8.294,8.294,0,0,1,26.65.858,17,17,0,0,0,30.732-.234a10.016,10.016,0,0,0,6.318-9.7c0-5.85-4.056-9.646-10.3-9.646a11.671,11.671,0,0,0-8.944,3.64,11.169,11.169,0,0,0-2.86,7.566c0,4.186,2.132,7.2,5.1,7.2,2.132,0,3.8-1.534,5.278-4.888A37.614,37.614,0,0,0,28.028-16.666Zm-3.172.026A34.266,34.266,0,0,1,22.7-7.852c-.936,2.236-1.82,3.328-2.678,3.328-1.144,0-2.054-1.69-2.054-3.822a8.7,8.7,0,0,1,3.536-7.02A6.618,6.618,0,0,1,24.856-16.64Zm25.974,2.5V-9.36H46.8a23.859,23.859,0,0,1-3.12-.156v2.86a27.271,27.271,0,0,1,3.146-.156h4V-1.3H44.148a30.484,30.484,0,0,1-3.614-.182V1.482A33.435,33.435,0,0,1,44.226,1.3H60.138a30.31,30.31,0,0,1,3.536.182V-1.482A28.5,28.5,0,0,1,60.06-1.3H53.82V-6.812h4.5a28.9,28.9,0,0,1,3.2.156v-2.86a26.987,26.987,0,0,1-3.2.156h-4.5v-4.784h5.486c1.248,0,2.314.052,3.432.156v-2.86c-1.066.1-2.184.156-3.51.156H53.82v-2a24.243,24.243,0,0,1,.156-3.094H50.648a21.2,21.2,0,0,1,.182,3.12v1.976H46.592q.507-1.365.7-1.95a6.227,6.227,0,0,1,.26-.858,4.109,4.109,0,0,0,.234-.676L44.824-20.9a14.11,14.11,0,0,1-.572,2.418,18.857,18.857,0,0,1-4.394,7.592,7.888,7.888,0,0,1,2.132,2.21,22.973,22.973,0,0,0,3.536-5.46ZM80.6-8.034H76.44A21.6,21.6,0,0,1,73.5-8.19v2.86a22.466,22.466,0,0,1,2.99-.156H80.6v4.16c0,.546-.182.676-.962.676a18.953,18.953,0,0,1-2.886-.26,10.279,10.279,0,0,1,.728,2.73c.936.078,1.846.1,2.47.1,2.73,0,3.458-.546,3.458-2.626V-5.486h3.458a22.8,22.8,0,0,1,3.042.156V-8.19a22.139,22.139,0,0,1-2.938.156H83.408v-.39a28.139,28.139,0,0,0,4.6-3.77c.52-.52.52-.52.754-.78l-1.69-1.612c-.52.052-1.248.078-2.158.078h-7.41a17.827,17.827,0,0,1-2.366-.1v2.73a14.592,14.592,0,0,1,2.34-.13h6.63a11.877,11.877,0,0,1-2.522,1.976H80.522a8.666,8.666,0,0,1,.078,1.2ZM72.852-16.77a21.445,21.445,0,0,1-2.028,3.2h-1.4a14.325,14.325,0,0,1,.1,1.586A22.761,22.761,0,0,1,65.7-8.606,10.793,10.793,0,0,1,67.21-5.928c1.2-.962,1.612-1.352,2.34-2.028v7.28a18.087,18.087,0,0,1-.156,2.73h3.12a17.373,17.373,0,0,1-.156-2.73V-11.024a32.541,32.541,0,0,0,3.588-5.746h10.5c1.092,0,2.34.052,3.224.13v-2.886a23.1,23.1,0,0,1-3.276.156H77.116c.26-.7.494-1.3.6-1.586a6.383,6.383,0,0,1,.338-.91l-3.172-.312a11.509,11.509,0,0,1-.806,2.808H69.628a24.849,24.849,0,0,1-3.3-.156v2.886c.806-.078,1.82-.13,3.2-.13Zm25.4,1.82a20.1,20.1,0,0,1,3.744,3.2c-.78.754-1.2,1.118-2.158,1.924-.182,0-.884.026-.936.026h-.286l.624-.494-1.3-2.028A15.066,15.066,0,0,1,92.2-9.256l1.04,2.7a29.463,29.463,0,0,0,4.446-2.574l.26,1.794c.234-.026.676-.078,1.274-.1,4.186-.338,5.824-.52,8.4-.936.208.442.338.7.676,1.482l2.236-.91a27.619,27.619,0,0,0-3.2-4.758l-1.9.806c.572.728.754.988,1.118,1.534a33.462,33.462,0,0,1-3.614.26,40.921,40.921,0,0,0,5.434-5.356l-2.08-1.378a28.2,28.2,0,0,1-2.6,3.224,13.736,13.736,0,0,0-1.066-1.066,20.882,20.882,0,0,0,2.106-2.964h8.346a20.426,20.426,0,0,1,2.7.13V-20.2a23.962,23.962,0,0,1-3.094.156h-7.41v-.286a8.074,8.074,0,0,1,.156-1.612h-3.172a8.149,8.149,0,0,1,.156,1.638v.26H95.472A24.073,24.073,0,0,1,92.4-20.2v2.834a20.248,20.248,0,0,1,2.678-.13h6.812a9.078,9.078,0,0,1-.962,1.508c-.39-.312-.52-.416-.988-.754Zm4.108,11.882V-.182a15.553,15.553,0,0,1-.182,2.522h3.25a14.917,14.917,0,0,1-.182-2.522V-3.068h7.67a26.312,26.312,0,0,1,3.042.156v-2.86a19.546,19.546,0,0,1-2.678.156h-8.034v-.208a8.328,8.328,0,0,1,.1-1.534h-3.094a7.978,7.978,0,0,1,.1,1.534v.208H94.874a19.875,19.875,0,0,1-2.782-.156v2.86a23.6,23.6,0,0,1,3.042-.156ZM92.95-15.418a17.707,17.707,0,0,1,3.64,3.458l1.95-1.924a26.154,26.154,0,0,0-3.614-3.25Zm19.578-1.716a19.153,19.153,0,0,1-4.29,3.588l1.794,1.9a29.594,29.594,0,0,0,4.55-3.744Zm-3.042,7.02a22.852,22.852,0,0,1,4.368,3.666L115.7-8.606a30.533,30.533,0,0,0-4.628-3.3Z" transform="translate(2275.025 5052.592)" fill="#82c195"/>
    </g>
    <g id="グループ_748" data-name="グループ 748" transform="translate(-1919.432 -2941)">
      <g id="グループ_262" data-name="グループ 262">
        <rect id="長方形_150" data-name="長方形 150" width="141.729" height="12.257" transform="translate(2277.335 5187.451)" fill="#ff8e66"/>
        <path id="パス_646" data-name="パス 646" d="M-28.142-6.194a5.745,5.745,0,0,1,1.2,1.095l.6-.654a5.334,5.334,0,0,0-1.2-1.046Zm-.212,2.051a5.559,5.559,0,0,1,1.283,1.079l.547-.711a6.554,6.554,0,0,0-1.283-1Zm1.136,1.667a7.037,7.037,0,0,1-1.07,2.468l.768.637c.09-.2.106-.229.18-.392a11.706,11.706,0,0,0,.833-2.214Zm3.032,1.136c.188,0,.376.008.572.025-.016-.2-.025-.392-.025-.719V-5.892a6.331,6.331,0,0,1,.033-.752c-.172.016-.384.025-.637.033h-1.34a4.384,4.384,0,0,1-.646-.033c.016.278.025.441.025.7v3.873c0,.376-.008.539-.025.752a5.391,5.391,0,0,1,.564-.025Zm-1.258-4.527h1.03v.76h-1.03Zm0,1.463h1.03v.776h-1.03Zm0,1.479h1.03v.85h-1.03Zm.6,2.076A6.945,6.945,0,0,0-23.762.613a3.263,3.263,0,0,1,.637-.588A4.084,4.084,0,0,1-24.2-1.242Zm2.574-.49a5.146,5.146,0,0,1-.033-.7V-5.6a4.084,4.084,0,0,1,.041-.711h-.9a4.107,4.107,0,0,1,.041.695v3.579a4.166,4.166,0,0,1-.041.695Zm-3.456.09A2.9,2.9,0,0,1-26.786.065a4.309,4.309,0,0,1,.613.613A4.866,4.866,0,0,0-25.062-.85ZM-20.96-5.8a5.483,5.483,0,0,1,.049-.94h-.915a8.073,8.073,0,0,1,.049.94V-.49c0,.188-.049.221-.327.221a4.967,4.967,0,0,1-.833-.065,3.294,3.294,0,0,1,.2.866c.163.008.523.016.695.016.858,0,1.079-.18,1.079-.858Zm4.265,5.123a2.368,2.368,0,0,1-1.242-1.136c.123-.384.172-.572.212-.735.074-.335.074-.343.114-.482l-.907-.172a5.065,5.065,0,0,1-.163.883A4.838,4.838,0,0,1-20.085-.008a2.224,2.224,0,0,1,.7.67,5.789,5.789,0,0,0,1.119-1.6c.67.989,1.741,1.405,3.653,1.405.646,0,1.07-.008,1.741-.025a3.178,3.178,0,0,1,.229-.932c-.833.074-1.389.1-1.863.1a9.552,9.552,0,0,1-1.332-.082V-1.879h1.544a5.516,5.516,0,0,1,.8.041v-.874a4.191,4.191,0,0,1-.8.049h-1.544V-3.71h1.07a5.858,5.858,0,0,1,.842.041v-.866a5.721,5.721,0,0,1-.842.041H-17.9a5.476,5.476,0,0,1-.825-.041v.866A5.817,5.817,0,0,1-17.9-3.71h1.2Zm-.139-5.352h-2.133c-.327,0-.6-.008-.9-.033.016.188.033.392.033.6v.629a3.611,3.611,0,0,1-.041.646h.907V-5.205h5.279v1.021h.883a5.276,5.276,0,0,1-.033-.637v-.637a4.5,4.5,0,0,1,.033-.6c-.3.025-.58.033-.907.033h-2.206v-.311a2.481,2.481,0,0,1,.041-.515h-1.005a2.644,2.644,0,0,1,.049.523Zm5.238,1.4A10.255,10.255,0,0,1-10.239-4.8c1.585-.114,2.092-.163,2.754-.261a3.613,3.613,0,0,0-1.136.825A2.845,2.845,0,0,0-9.4-2.312,2.186,2.186,0,0,0-8.229-.343,4.916,4.916,0,0,0-6.316.2c.155.025.172.025.278.049l.147-1.111c-.082.008-.155.008-.163.008A4.959,4.959,0,0,1-7.273-1.07,1.372,1.372,0,0,1-8.359-2.4,2.657,2.657,0,0,1-6.709-4.584a3.654,3.654,0,0,1,1.618-.441,1.265,1.265,0,0,1,.172.008l-.057-1.038a4.4,4.4,0,0,1-.842.065C-8-5.883-9.4-5.81-9.994-5.777c-1.2.082-1.2.082-1.348.082-.041,0-.131,0-.311-.008Zm5,.784a5.515,5.515,0,0,1,.858,1.218l.572-.3a5.3,5.3,0,0,0-.858-1.2Zm2.4.384a4.726,4.726,0,0,0-.85-1.152l-.547.286a6.02,6.02,0,0,1,.833,1.185Zm2.786.7c0,.09,0,.147-.008.253H-2.582a4.936,4.936,0,0,1-.858-.049v.874a5.221,5.221,0,0,1,.858-.049h1.046a1.857,1.857,0,0,1-.58.907A3.379,3.379,0,0,1-3.628-.1a2.983,2.983,0,0,1,.58.8,3.86,3.86,0,0,0,1.9-1.258A2.874,2.874,0,0,0-.637-1.732H.417V-.147c0,.572.261.711,1.373.711,1.569,0,1.716-.123,1.9-1.5A2.788,2.788,0,0,1,2.8-1.226a1.912,1.912,0,0,1-.147.817c-.09.114-.286.155-.735.155A1.89,1.89,0,0,1,1.4-.294c-.123-.033-.131-.049-.131-.221V-1.732h1.3a6.234,6.234,0,0,1,.858.049v-.874a4.88,4.88,0,0,1-.858.049h-1.3v-.883a6.587,6.587,0,0,1,.784.033V-3.71A8.19,8.19,0,0,0,3.4-2.974a3.333,3.333,0,0,1,.458-.809A7.251,7.251,0,0,1,2.549-4.4a6.33,6.33,0,0,0,.735-.752c.163-.18.18-.2.229-.253l-.752-.425a4.818,4.818,0,0,1-.85.989c-.172-.131-.261-.2-.482-.392a8.439,8.439,0,0,0,.6-.613c.188-.221.294-.343.319-.376L1.6-6.643c-.025.041-.025.041-.065.106a1.433,1.433,0,0,1-.172.237,4.3,4.3,0,0,1-.482.523,2.012,2.012,0,0,1-.507-.891,4.705,4.705,0,0,1-.7.033H-1.839a4.669,4.669,0,0,1-.678-.041v.85l-.261-.212-.67.5A5.6,5.6,0,0,1-2.3-4.47a7.009,7.009,0,0,1-1.561.793,3.092,3.092,0,0,1,.482.752,8.055,8.055,0,0,0,1.438-.793v.36c.2-.016.294-.025.547-.033Zm.874-.629H.417v.883H-.539V-2.7ZM-.825-5.859a5.285,5.285,0,0,1-.8.874,7.03,7.03,0,0,0-.891-.842,3.638,3.638,0,0,1,.5-.033Zm-.311,1.7h-.221A6.823,6.823,0,0,0,.025-5.638,6.845,6.845,0,0,0,1.414-4.159H-1.136ZM6.79-1.732A1.637,1.637,0,0,1,6.014-.58a4.083,4.083,0,0,1-1.593.539,2.564,2.564,0,0,1,.474.8A4.179,4.179,0,0,0,6.97-.221a2.506,2.506,0,0,0,.776-1.512h.735V-.139c0,.613.245.727,1.6.727.923,0,1.275-.065,1.5-.278.2-.2.286-.5.368-1.405a3.384,3.384,0,0,1-.842-.343,2.6,2.6,0,0,1-.147,1.046c-.1.139-.261.172-.891.172s-.711-.025-.711-.253V-1.732h.7c.335,0,.654.008.866.025a6.1,6.1,0,0,1-.041-.866V-5.557a9.724,9.724,0,0,1,.041-1.021,6.312,6.312,0,0,1-.866.041H6.3a6.255,6.255,0,0,1-.858-.041,9.955,9.955,0,0,1,.041,1.021v2.983a6.312,6.312,0,0,1-.041.866c.212-.016.49-.025.883-.025ZM6.341-5.72h3.685v.531H6.341Zm0,1.3h3.685v.547H6.341Zm0,1.316h3.685v.58H6.341ZM18.247-5.7V-.482c0,.212-.065.253-.368.253a10.793,10.793,0,0,1-1.226-.09,3.149,3.149,0,0,1,.229.907c.36.016.662.025.9.025,1.16,0,1.381-.139,1.381-.907V-5.7a9.078,9.078,0,0,1,.915.049v-.923a9.3,9.3,0,0,1-1.005.049H13.72a8.671,8.671,0,0,1-.989-.049v.923A9.859,9.859,0,0,1,13.736-5.7ZM17.127-4.159a3.991,3.991,0,0,1,.041-.695,7.135,7.135,0,0,1-.784.033H14.324a6.482,6.482,0,0,1-.76-.033,5,5,0,0,1,.041.752v2.574a5.748,5.748,0,0,1-.049.735h.94v-.678h1.92c.033,0,.106,0,.212.008h.212c.147.008.18.008.319.025a5.518,5.518,0,0,1-.033-.662Zm-2.639.131h1.765v1.765H14.488Zm6.349-.441a3.763,3.763,0,0,1,.531-.057c.564-.033,1.953-.18,2.476-.261.057.131.1.229.188.441l.735-.433a12.242,12.242,0,0,0-1.013-1.708l-.654.319c.18.294.229.368.376.654-.507.065-.7.082-1.226.114.188-.311.482-.858.58-1.07a2.615,2.615,0,0,1,.155-.3l-.948-.172a5.69,5.69,0,0,1-.686,1.585h-.123a.557.557,0,0,1-.1.008,3.6,3.6,0,0,1-.392-.025Zm4.854-1.691a3.482,3.482,0,0,1,.041-.662h-.94a4.1,4.1,0,0,1,.041.7v2.035a.489.489,0,0,0,.319.539,2.915,2.915,0,0,0,1.119.114c1.07,0,1.381-.049,1.593-.253.188-.188.261-.466.327-1.234a3.046,3.046,0,0,1-.817-.253c-.016.6-.049.768-.139.85-.106.082-.294.106-.956.106-.515,0-.588-.033-.588-.229V-4.96a11.448,11.448,0,0,0,1.888-.719c.4-.2.4-.2.572-.27l-.6-.752a4.1,4.1,0,0,1-.948.572,5.206,5.206,0,0,1-.907.343ZM25.7-2.386a3.365,3.365,0,0,1,.041-.678H24.8a4.01,4.01,0,0,1,.041.727V-.188a.53.53,0,0,0,.253.531c.212.131.474.163,1.275.163,1.03,0,1.316-.057,1.536-.3s.3-.547.36-1.316a3.332,3.332,0,0,1-.833-.278,2.42,2.42,0,0,1-.131.94c-.074.123-.278.163-.817.163a2.457,2.457,0,0,1-.58-.041c-.155-.033-.2-.082-.2-.221v-.768a11.779,11.779,0,0,0,1.218-.376c.253-.1,1.054-.458,1.291-.588L27.587-3a5.4,5.4,0,0,1-1.888.883ZM21.2-.221a6.861,6.861,0,0,1-.041.891H22.1a7.135,7.135,0,0,1-.041-.907v-.809h1.373v.678c-.016.123-.049.147-.221.147a2.885,2.885,0,0,1-.547-.057,3.328,3.328,0,0,1,.18.833c.147.008.27.008.343.008A1.657,1.657,0,0,0,24.04.409c.163-.1.229-.286.229-.637V-3.481c0-.409.008-.539.025-.768a5.948,5.948,0,0,1-.735.033h-1.8a5.8,5.8,0,0,1-.588-.025,7.18,7.18,0,0,1,.033.752Zm.842-3.252h1.381v.507H22.046Zm0,1.209h1.381v.507H22.046Z" transform="translate(2348.199 5196.685)" fill="#fff"/>
      </g>
      <g id="グループ_263" data-name="グループ 263">
        <rect id="長方形_151" data-name="長方形 151" width="138.232" height="12.257" transform="translate(2129.064 5187.451)" fill="#82c195"/>
        <path id="パス_645" data-name="パス 645" d="M-36.314-6.194a5.745,5.745,0,0,1,1.2,1.095l.6-.654a5.334,5.334,0,0,0-1.2-1.046Zm-.212,2.051a5.558,5.558,0,0,1,1.283,1.079l.547-.711a6.554,6.554,0,0,0-1.283-1Zm1.136,1.667a7.037,7.037,0,0,1-1.07,2.468l.768.637c.09-.2.106-.229.18-.392a11.706,11.706,0,0,0,.833-2.214Zm3.032,1.136c.188,0,.376.008.572.025-.016-.2-.025-.392-.025-.719V-5.892a6.331,6.331,0,0,1,.033-.752c-.172.016-.384.025-.637.033h-1.34a4.384,4.384,0,0,1-.646-.033c.016.278.025.441.025.7v3.873c0,.376-.008.539-.025.752a5.391,5.391,0,0,1,.564-.025Zm-1.258-4.527h1.03v.76h-1.03Zm0,1.463h1.03v.776h-1.03Zm0,1.479h1.03v.85h-1.03Zm.6,2.076A6.945,6.945,0,0,0-31.934.613,3.263,3.263,0,0,1-31.3.025a4.084,4.084,0,0,1-1.07-1.267Zm2.574-.49a5.146,5.146,0,0,1-.033-.7V-5.6a4.084,4.084,0,0,1,.041-.711h-.9a4.107,4.107,0,0,1,.041.695v3.579a4.166,4.166,0,0,1-.041.695Zm-3.456.09A2.9,2.9,0,0,1-34.957.065a4.309,4.309,0,0,1,.613.613A4.866,4.866,0,0,0-33.233-.85ZM-29.131-5.8a5.483,5.483,0,0,1,.049-.94H-30a8.073,8.073,0,0,1,.049.94V-.49c0,.188-.049.221-.327.221a4.967,4.967,0,0,1-.833-.065,3.294,3.294,0,0,1,.2.866c.163.008.523.016.695.016.858,0,1.079-.18,1.079-.858Zm4.265,5.123a2.368,2.368,0,0,1-1.242-1.136c.123-.384.172-.572.212-.735.074-.335.074-.343.114-.482l-.907-.172a5.065,5.065,0,0,1-.163.883A4.838,4.838,0,0,1-28.257-.008a2.224,2.224,0,0,1,.7.67,5.789,5.789,0,0,0,1.119-1.6c.67.989,1.741,1.405,3.653,1.405.646,0,1.07-.008,1.741-.025a3.178,3.178,0,0,1,.229-.932c-.833.074-1.389.1-1.863.1a9.552,9.552,0,0,1-1.332-.082V-1.879h1.544a5.516,5.516,0,0,1,.8.041v-.874a4.191,4.191,0,0,1-.8.049h-1.544V-3.71h1.07a5.858,5.858,0,0,1,.842.041v-.866a5.721,5.721,0,0,1-.842.041h-3.13a5.476,5.476,0,0,1-.825-.041v.866a5.817,5.817,0,0,1,.825-.041h1.2ZM-25-6.03h-2.133c-.327,0-.6-.008-.9-.033.016.188.033.392.033.6v.629a3.611,3.611,0,0,1-.041.646h.907V-5.205h5.279v1.021h.883a5.276,5.276,0,0,1-.033-.637v-.637a4.5,4.5,0,0,1,.033-.6c-.3.025-.58.033-.907.033h-2.206v-.311a2.481,2.481,0,0,1,.041-.515h-1.005A2.644,2.644,0,0,1-25-6.333Zm5.238,1.4A10.255,10.255,0,0,1-18.41-4.8c1.585-.114,2.092-.163,2.754-.261a3.613,3.613,0,0,0-1.136.825,2.845,2.845,0,0,0-.776,1.92A2.186,2.186,0,0,0-16.4-.343,4.916,4.916,0,0,0-14.488.2c.155.025.172.025.278.049l.147-1.111c-.082.008-.155.008-.163.008a4.959,4.959,0,0,1-1.218-.212A1.372,1.372,0,0,1-16.531-2.4,2.657,2.657,0,0,1-14.88-4.584a3.654,3.654,0,0,1,1.618-.441,1.265,1.265,0,0,1,.172.008l-.057-1.038a4.4,4.4,0,0,1-.842.065c-2.182.106-3.579.18-4.176.212-1.2.082-1.2.082-1.348.082-.041,0-.131,0-.311-.008Zm5,.784a5.515,5.515,0,0,1,.858,1.218l.572-.3a5.3,5.3,0,0,0-.858-1.2Zm2.4.384a4.726,4.726,0,0,0-.85-1.152l-.547.286a6.021,6.021,0,0,1,.833,1.185Zm2.786.7c0,.09,0,.147-.008.253h-1.169a4.936,4.936,0,0,1-.858-.049v.874a5.221,5.221,0,0,1,.858-.049h1.046a1.857,1.857,0,0,1-.58.907A3.379,3.379,0,0,1-11.8-.1a2.983,2.983,0,0,1,.58.8,3.86,3.86,0,0,0,1.9-1.258,2.874,2.874,0,0,0,.507-1.177h1.054V-.147c0,.572.261.711,1.373.711,1.569,0,1.716-.123,1.9-1.5a2.788,2.788,0,0,1-.883-.286,1.912,1.912,0,0,1-.147.817c-.09.114-.286.155-.735.155a1.89,1.89,0,0,1-.523-.041C-6.9-.327-6.9-.343-6.9-.515V-1.732h1.3a6.234,6.234,0,0,1,.858.049v-.874a4.88,4.88,0,0,1-.858.049H-6.9v-.883a6.587,6.587,0,0,1,.784.033V-3.71a8.19,8.19,0,0,0,1.348.735,3.333,3.333,0,0,1,.458-.809A7.251,7.251,0,0,1-5.622-4.4a6.33,6.33,0,0,0,.735-.752c.163-.18.18-.2.229-.253l-.752-.425a4.818,4.818,0,0,1-.85.989c-.172-.131-.261-.2-.482-.392a8.439,8.439,0,0,0,.6-.613c.188-.221.294-.343.319-.376l-.752-.417c-.025.041-.025.041-.065.106a1.433,1.433,0,0,1-.172.237,4.3,4.3,0,0,1-.482.523A2.012,2.012,0,0,1-7.8-6.668a4.705,4.705,0,0,1-.7.033H-10.01a4.669,4.669,0,0,1-.678-.041v.85l-.261-.212-.67.5a5.6,5.6,0,0,1,1.144,1.07,7.009,7.009,0,0,1-1.561.793,3.092,3.092,0,0,1,.482.752,8.055,8.055,0,0,0,1.438-.793v.36c.2-.016.294-.025.547-.033Zm.874-.629h.948v.883h-.956V-2.7ZM-9-5.859a5.285,5.285,0,0,1-.8.874,7.03,7.03,0,0,0-.891-.842,3.638,3.638,0,0,1,.5-.033Zm-.311,1.7h-.221A6.823,6.823,0,0,0-8.147-5.638,6.845,6.845,0,0,0-6.758-4.159H-9.307Zm7.926,2.427A1.637,1.637,0,0,1-2.157-.58a4.083,4.083,0,0,1-1.593.539,2.564,2.564,0,0,1,.474.8A4.179,4.179,0,0,0-1.2-.221,2.506,2.506,0,0,0-.425-1.732H.311V-.139c0,.613.245.727,1.6.727.923,0,1.275-.065,1.5-.278.2-.2.286-.5.368-1.405a3.384,3.384,0,0,1-.842-.343A2.6,2.6,0,0,1,2.795-.392c-.1.139-.261.172-.891.172s-.711-.025-.711-.253V-1.732h.7c.335,0,.654.008.866.025a6.1,6.1,0,0,1-.041-.866V-5.557a9.724,9.724,0,0,1,.041-1.021,6.312,6.312,0,0,1-.866.041H-1.871a6.255,6.255,0,0,1-.858-.041,9.955,9.955,0,0,1,.041,1.021v2.983a6.312,6.312,0,0,1-.041.866c.212-.016.49-.025.883-.025ZM-1.83-5.72H1.855v.531H-1.83Zm0,1.3H1.855v.547H-1.83Zm0,1.316H1.855v.58H-1.83ZM4.748-4.633A10.255,10.255,0,0,1,6.1-4.8C7.689-4.911,8.2-4.96,8.858-5.058a3.613,3.613,0,0,0-1.136.825,2.845,2.845,0,0,0-.776,1.92A2.186,2.186,0,0,0,8.114-.343,4.916,4.916,0,0,0,10.026.2c.155.025.172.025.278.049l.147-1.111c-.082.008-.155.008-.163.008A4.959,4.959,0,0,1,9.07-1.07,1.372,1.372,0,0,1,7.983-2.4,2.657,2.657,0,0,1,9.634-4.584a3.654,3.654,0,0,1,1.618-.441,1.265,1.265,0,0,1,.172.008l-.057-1.038a4.4,4.4,0,0,1-.842.065c-2.182.106-3.579.18-4.176.212C5.148-5.7,5.148-5.7,5-5.7c-.041,0-.131,0-.311-.008Zm5,.784a5.515,5.515,0,0,1,.858,1.218l.572-.3a5.3,5.3,0,0,0-.858-1.2Zm2.4.384a4.726,4.726,0,0,0-.85-1.152l-.547.286a6.021,6.021,0,0,1,.833,1.185Zm1.242-1.242c.172-.008.212-.016.556-.016a19.7,19.7,0,0,0,2.19-.114c.065.147.09.2.172.368.065.155.1.2.147.3a16.076,16.076,0,0,1-2.312.155,4.843,4.843,0,0,1-.842-.033l.033.891c.139-.016.2-.016.335-.025A23.457,23.457,0,0,0,16.833-3.4a4.92,4.92,0,0,0,.629.915,5.631,5.631,0,0,0-1.414-.172,3.642,3.642,0,0,0-1.9.409,1.365,1.365,0,0,0-.686,1.136A1.316,1.316,0,0,0,14.087.008a3.736,3.736,0,0,0,1.994.4A7.867,7.867,0,0,0,18.173.131,4.041,4.041,0,0,1,18.7.008L18.557-1a6.346,6.346,0,0,1-2.517.531,3.185,3.185,0,0,1-1.169-.18.539.539,0,0,1-.351-.474.59.59,0,0,1,.351-.5,3.152,3.152,0,0,1,1.373-.229,4.394,4.394,0,0,1,1.879.335l.719-.515a8.171,8.171,0,0,1-1.095-1.5c.1-.025.1-.025.3-.065s.466-.1.8-.18c.188-.049.36-.082.515-.106l-.082-.891a4.127,4.127,0,0,1-.776.237c-.049.008-.425.09-1.128.237a7.358,7.358,0,0,1-.319-.67c.253-.033,1.16-.212,1.708-.343l.278-.057-.082-.866a13.728,13.728,0,0,1-2.206.49,4.79,4.79,0,0,1-.335-.989L15.4-6.586c.008.016.123.27.327.744.065.147.065.147.09.212a14.522,14.522,0,0,1-1.683.09,6.855,6.855,0,0,1-.784-.033Zm9.528-2.067a8.348,8.348,0,0,1-.245,1.422c-.18.008-.319.008-.417.008a5.674,5.674,0,0,1-1.1-.074v.932l.433.008c.172.008.221.008.327.008s.147,0,.515-.008a12.571,12.571,0,0,1-.768,1.928,7.438,7.438,0,0,1-.793,1.307l.94.523c.049-.1.049-.1.155-.294.311-.572.384-.719.572-1.119a15.685,15.685,0,0,0,.9-2.37c.507-.041,1.005-.1,1.3-.147A1.593,1.593,0,0,1,25-4.69l-.025-.94a7.009,7.009,0,0,1-1.307.229c.09-.36.131-.523.172-.719a4.09,4.09,0,0,1,.131-.547ZM28.15-4.65a12.9,12.9,0,0,0-2.3-1.095l-.49.793a10,10,0,0,1,2.353,1.144ZM28.118-.964A1.463,1.463,0,0,1,28-1.079a3.013,3.013,0,0,0-.286-.221,5.105,5.105,0,0,0-1.291-.752,8.676,8.676,0,0,1-.074-1.119,2.724,2.724,0,0,1,.1-.825l-.948-.049a4.334,4.334,0,0,0-.065.825c0,.245.016.564.041.94a4.059,4.059,0,0,0-.76-.074c-1.038,0-1.765.58-1.765,1.405s.7,1.373,1.781,1.373a1.887,1.887,0,0,0,1.356-.458A1.306,1.306,0,0,0,26.434-.9c0-.033-.008-.09-.016-.163a4.942,4.942,0,0,1,1.25,1.013ZM25.5-1.414s.016.2.016.278c0,.458-.27.686-.825.686-.507,0-.8-.2-.8-.531s.343-.564.874-.564A2.06,2.06,0,0,1,25.5-1.414Zm3.971-4.592a3.9,3.9,0,0,1,.033.523,12.32,12.32,0,0,0,.515,4.265c.327.784.768,1.185,1.316,1.185.695,0,1.169-.662,1.593-2.255a4.034,4.034,0,0,1-.817-.744,6.024,6.024,0,0,1-.433,1.479c-.1.229-.212.351-.335.351-.261,0-.523-.523-.662-1.373a15.292,15.292,0,0,1-.155-2.19,9.5,9.5,0,0,1,.065-1.242ZM33.6-5.23a7.132,7.132,0,0,1,1.16,2.01,8.284,8.284,0,0,1,.523,2.362L36.3-1.242a8.147,8.147,0,0,0-1.839-4.4Z" transform="translate(2198.18 5196.685)" fill="#fff"/>
      </g>
      <g id="グループ_264" data-name="グループ 264">
        <path id="パス_244" data-name="パス 244" d="M2143.134,5151.314l252.083-9.819v19.1Z" fill="#dbc5ed"/>
        <path id="パス_245" data-name="パス 245" d="M2149.634,5151.314l-1.386,1.662.144,2.16-2.1.528-1.151,1.834-2.009-.808-2.01.807-1.151-1.833-2.1-.529.145-2.159-1.386-1.662,1.386-1.662-.145-2.16,2.1-.528,1.151-1.834,2.009.808,2.01-.807,1.151,1.833,2.1.529-.145,2.159Z" fill="#a07bbd"/>
        <path id="パス_246" data-name="パス 246" d="M2229.283,5151.314l-1.792,2.149.187,2.792-2.714.684-1.488,2.371-2.6-1.044-2.6,1.044-1.488-2.372-2.714-.684.187-2.792-1.792-2.149,1.792-2.149-.187-2.792,2.714-.684,1.488-2.371,2.6,1.044,2.6-1.044,1.488,2.371,2.714.684-.187,2.792Z" fill="#a07bbd"/>
        <path id="パス_247" data-name="パス 247" d="M2305.238,5151.314l-3.408,4.087.355,5.311-5.162,1.3-2.83,4.51-4.941-1.986-4.941,1.986-2.83-4.51-5.162-1.3.355-5.311-3.408-4.087,3.408-4.087-.355-5.311,5.162-1.3,2.83-4.51,4.941,1.986,4.941-1.986,2.83,4.509,5.162,1.3-.355,5.311Z" fill="#a07bbd"/>
        <path id="パス_248" data-name="パス 248" d="M2358.069,5151.314l-3.912,4.692.408,6.1-5.927,1.493-3.249,5.177-5.673-2.28-5.673,2.28-3.249-5.177-5.927-1.493.408-6.1-3.913-4.692,3.913-4.692-.408-6.1,5.927-1.493,3.249-5.177,5.672,2.28,5.673-2.28,3.249,5.177,5.926,1.493-.408,6.1Z" fill="#a07bbd"/>
        <path id="パス_249" data-name="パス 249" d="M2419.45,5151.314l-5.167,6.2.538,8.05-7.825,1.971-4.29,6.835-7.49-3.01-7.49,3.01-4.29-6.836-7.825-1.971.539-8.05-5.166-6.2,5.166-6.2-.538-8.05,7.826-1.971,4.29-6.835,7.49,3.01,7.491-3.01,4.29,6.836,7.826,1.971-.539,8.05Z" fill="#a07bbd"/>
        <path id="パス_644" data-name="パス 644" d="M-7.13.1A1.091,1.091,0,0,1-8.163-.42a2.985,2.985,0,0,1-.3-1.471,3,3,0,0,1,.3-1.474A1.09,1.09,0,0,1-7.13-3.884,1.093,1.093,0,0,1-6.1-3.365a3.013,3.013,0,0,1,.3,1.474A2.985,2.985,0,0,1-6.1-.42,1.091,1.091,0,0,1-7.13.1Zm.444-.971a3.8,3.8,0,0,0,.1-1.016,3.722,3.722,0,0,0-.105-1.032.429.429,0,0,0-.443-.335.435.435,0,0,0-.447.335,3.593,3.593,0,0,0-.109,1.032A3.633,3.633,0,0,0-7.577-.874a.439.439,0,0,0,.447.352A.435.435,0,0,0-6.686-.875Zm1.426.082h.806V0H-5.26ZM-2.026,0H-2.8V-2.66h-.907v-.516a3.36,3.36,0,0,0,.5-.048.709.709,0,0,0,.372-.2A.666.666,0,0,0-2.685-3.7a.635.635,0,0,0,.029-.154h.63ZM.924-2.1a.371.371,0,0,0-.375-.21.448.448,0,0,0-.436.21.81.81,0,0,0-.061.356V0H-.717V-2.894H.02v.423a1.22,1.22,0,0,1,.266-.322.91.91,0,0,1,.572-.17.9.9,0,0,1,.537.146.851.851,0,0,1,.25.348.964.964,0,0,1,.37-.375,1.128,1.128,0,0,1,.521-.12,1.009,1.009,0,0,1,.378.074.843.843,0,0,1,.338.261.833.833,0,0,1,.165.372,2.574,2.574,0,0,1,.027.428L3.438,0H2.661V-1.846a.606.606,0,0,0-.053-.271.378.378,0,0,0-.372-.2.436.436,0,0,0-.434.261.819.819,0,0,0-.061.332V0H.978V-1.726A.97.97,0,0,0,.924-2.1Zm4.844,0a.371.371,0,0,0-.375-.21.448.448,0,0,0-.436.21.81.81,0,0,0-.061.356V0H4.127V-2.894h.737v.423a1.22,1.22,0,0,1,.266-.322.91.91,0,0,1,.572-.17.9.9,0,0,1,.537.146.851.851,0,0,1,.25.348.964.964,0,0,1,.37-.375,1.128,1.128,0,0,1,.521-.12,1.009,1.009,0,0,1,.378.074.843.843,0,0,1,.338.261.833.833,0,0,1,.165.372,2.574,2.574,0,0,1,.027.428L8.282,0H7.505V-1.846a.606.606,0,0,0-.053-.271.378.378,0,0,0-.372-.2.436.436,0,0,0-.434.261.819.819,0,0,0-.061.332V0H5.821V-1.726A.97.97,0,0,0,5.768-2.1Z" transform="translate(2143.133 5165.918)" fill="#333"/>
        <path id="パス_643" data-name="パス 643" d="M-7.13.1A1.091,1.091,0,0,1-8.163-.42a2.985,2.985,0,0,1-.3-1.471,3,3,0,0,1,.3-1.474A1.09,1.09,0,0,1-7.13-3.884,1.093,1.093,0,0,1-6.1-3.365a3.013,3.013,0,0,1,.3,1.474A2.985,2.985,0,0,1-6.1-.42,1.091,1.091,0,0,1-7.13.1Zm.444-.971a3.8,3.8,0,0,0,.1-1.016,3.722,3.722,0,0,0-.105-1.032.429.429,0,0,0-.443-.335.435.435,0,0,0-.447.335,3.593,3.593,0,0,0-.109,1.032A3.633,3.633,0,0,0-7.577-.874a.439.439,0,0,0,.447.352A.435.435,0,0,0-6.686-.875Zm1.426.082h.806V0H-5.26Zm3.067-2.28a.478.478,0,0,0-.388-.162.474.474,0,0,0-.471.258,1.28,1.28,0,0,0-.085.473h-.737A1.863,1.863,0,0,1-3.7-3.3a1.11,1.11,0,0,1,1.077-.577,1.366,1.366,0,0,1,.974.339,1.173,1.173,0,0,1,.362.9,1.215,1.215,0,0,1-.255.761,2.544,2.544,0,0,1-.551.492l-.3.215q-.285.2-.39.293a.857.857,0,0,0-.177.21h1.684V0H-3.917a1.812,1.812,0,0,1,.178-.758,2.143,2.143,0,0,1,.766-.817,5.618,5.618,0,0,0,.678-.537.794.794,0,0,0,.237-.553A.613.613,0,0,0-2.193-3.072ZM.924-2.1a.371.371,0,0,0-.375-.21.448.448,0,0,0-.436.21.81.81,0,0,0-.061.356V0H-.717V-2.894H.02v.423a1.22,1.22,0,0,1,.266-.322.91.91,0,0,1,.572-.17.9.9,0,0,1,.537.146.851.851,0,0,1,.25.348.964.964,0,0,1,.37-.375,1.128,1.128,0,0,1,.521-.12,1.009,1.009,0,0,1,.378.074.843.843,0,0,1,.338.261.833.833,0,0,1,.165.372,2.574,2.574,0,0,1,.027.428L3.438,0H2.661V-1.846a.606.606,0,0,0-.053-.271.378.378,0,0,0-.372-.2.436.436,0,0,0-.434.261.819.819,0,0,0-.061.332V0H.978V-1.726A.97.97,0,0,0,.924-2.1Zm4.844,0a.371.371,0,0,0-.375-.21.448.448,0,0,0-.436.21.81.81,0,0,0-.061.356V0H4.127V-2.894h.737v.423a1.22,1.22,0,0,1,.266-.322.91.91,0,0,1,.572-.17.9.9,0,0,1,.537.146.851.851,0,0,1,.25.348.964.964,0,0,1,.37-.375,1.128,1.128,0,0,1,.521-.12,1.009,1.009,0,0,1,.378.074.843.843,0,0,1,.338.261.833.833,0,0,1,.165.372,2.574,2.574,0,0,1,.027.428L8.282,0H7.505V-1.846a.606.606,0,0,0-.053-.271.378.378,0,0,0-.372-.2.436.436,0,0,0-.434.261.819.819,0,0,0-.061.332V0H5.821V-1.726A.97.97,0,0,0,5.768-2.1Z" transform="translate(2220.877 5168.08)" fill="#333"/>
        <path id="パス_642" data-name="パス 642" d="M-3.39,0h-.777V-2.66h-.907v-.516a3.36,3.36,0,0,0,.5-.048.709.709,0,0,0,.372-.2A.666.666,0,0,0-4.05-3.7a.635.635,0,0,0,.029-.154h.63ZM.44-1.859H-.336a.673.673,0,0,0-.109-.293.457.457,0,0,0-.4-.176.522.522,0,0,0-.524.38,1.59,1.59,0,0,0-.074.537A1.462,1.462,0,0,0-1.366-.9a.506.506,0,0,0,.511.362A.45.45,0,0,0-.477-.678a.715.715,0,0,0,.136-.372H.432A1.268,1.268,0,0,1,.182-.4,1.215,1.215,0,0,1-.874.1,1.235,1.235,0,0,1-1.9-.314a1.679,1.679,0,0,1-.33-1.077,1.7,1.7,0,0,1,.364-1.162A1.268,1.268,0,0,1-.863-2.969a1.514,1.514,0,0,1,.892.245A1.138,1.138,0,0,1,.44-1.859ZM2.589-2.1a.371.371,0,0,0-.375-.21.448.448,0,0,0-.436.21.81.81,0,0,0-.061.356V0H.948V-2.894h.737v.423a1.22,1.22,0,0,1,.266-.322.91.91,0,0,1,.572-.17.9.9,0,0,1,.537.146.851.851,0,0,1,.25.348.964.964,0,0,1,.37-.375,1.128,1.128,0,0,1,.521-.12,1.009,1.009,0,0,1,.378.074.843.843,0,0,1,.338.261.833.833,0,0,1,.165.372,2.574,2.574,0,0,1,.027.428L5.1,0H4.326V-1.846a.606.606,0,0,0-.053-.271.378.378,0,0,0-.372-.2.436.436,0,0,0-.434.261.819.819,0,0,0-.061.332V0H2.643V-1.726A.97.97,0,0,0,2.589-2.1Z" transform="translate(2289.251 5175.702)" fill="#333"/>
        <path id="パス_641" data-name="パス 641" d="M-3.558-3.072a.478.478,0,0,0-.388-.162.474.474,0,0,0-.471.258A1.28,1.28,0,0,0-4.5-2.5h-.737a1.863,1.863,0,0,1,.178-.8,1.11,1.11,0,0,1,1.077-.577,1.366,1.366,0,0,1,.974.339,1.173,1.173,0,0,1,.362.9,1.215,1.215,0,0,1-.255.761,2.544,2.544,0,0,1-.551.492l-.3.215q-.285.2-.39.293a.857.857,0,0,0-.177.21H-2.64V0H-5.281A1.812,1.812,0,0,1-5.1-.758a2.143,2.143,0,0,1,.766-.817,5.618,5.618,0,0,0,.678-.537.794.794,0,0,0,.237-.553A.613.613,0,0,0-3.558-3.072Zm4,1.213H-.336a.673.673,0,0,0-.109-.293.457.457,0,0,0-.4-.176.522.522,0,0,0-.524.38,1.59,1.59,0,0,0-.074.537A1.462,1.462,0,0,0-1.366-.9a.506.506,0,0,0,.511.362A.45.45,0,0,0-.477-.678a.715.715,0,0,0,.136-.372H.432A1.268,1.268,0,0,1,.182-.4,1.215,1.215,0,0,1-.874.1,1.235,1.235,0,0,1-1.9-.314a1.679,1.679,0,0,1-.33-1.077,1.7,1.7,0,0,1,.364-1.162A1.268,1.268,0,0,1-.863-2.969a1.514,1.514,0,0,1,.892.245A1.138,1.138,0,0,1,.44-1.859ZM2.589-2.1a.371.371,0,0,0-.375-.21.448.448,0,0,0-.436.21.81.81,0,0,0-.061.356V0H.948V-2.894h.737v.423a1.22,1.22,0,0,1,.266-.322.91.91,0,0,1,.572-.17.9.9,0,0,1,.537.146.851.851,0,0,1,.25.348.964.964,0,0,1,.37-.375,1.128,1.128,0,0,1,.521-.12,1.009,1.009,0,0,1,.378.074.843.843,0,0,1,.338.261.833.833,0,0,1,.165.372,2.574,2.574,0,0,1,.027.428L5.1,0H4.326V-1.846a.606.606,0,0,0-.053-.271.378.378,0,0,0-.372-.2.436.436,0,0,0-.434.261.819.819,0,0,0-.061.332V0H2.643V-1.726A.97.97,0,0,0,2.589-2.1Z" transform="translate(2339.717 5177.064)" fill="#333"/>
      </g>
      <g id="グループ_268" data-name="グループ 268">
        <g id="グループ_265" data-name="グループ 265">
          <rect id="長方形_152" data-name="長方形 152" width="138.232" height="10.214" transform="translate(2129.064 5091.455)" fill="#fff766"/>
          <path id="パス_640" data-name="パス 640" d="M-23.814-2.138a4.057,4.057,0,0,1,.443-.041c.136-.014.347-.027.64-.048V-.143a5.007,5.007,0,0,1-.041.729h.749a5.007,5.007,0,0,1-.041-.729V-2.288c.123-.007.279-.027.483-.048.027.109.041.163.075.32l.572-.238a10.229,10.229,0,0,0-.538-1.328l-.511.2a3.723,3.723,0,0,1,.2.463c-.347.041-.375.041-.776.061A17.786,17.786,0,0,0-21.41-4.385a2.822,2.822,0,0,1,.225-.313l-.626-.361a7.768,7.768,0,0,1-.735,1.192c-.1-.123-.17-.2-.286-.34A9.159,9.159,0,0,0-22.2-5.25c.075-.136.1-.184.143-.245l-.647-.266a4.981,4.981,0,0,1-.565,1.1c-.068-.082-.109-.123-.2-.238l-.388.565a6.319,6.319,0,0,1,.933,1.008c-.136.177-.163.211-.395.5-.157.007-.225.007-.272.007a1.79,1.79,0,0,1-.293-.02Zm5.271-1.879a18.872,18.872,0,0,1-.218,3.282c-.082.422-.157.5-.463.5a5.294,5.294,0,0,1-.892-.089,2.785,2.785,0,0,1,.191.763c.245.02.456.027.633.027a1.456,1.456,0,0,0,.872-.177c.225-.177.347-.552.456-1.335.075-.558.15-1.743.157-2.52a8.678,8.678,0,0,1,.034-1.185,3.732,3.732,0,0,1-.558.027h-1.484c.082-.211.109-.293.2-.572a2.335,2.335,0,0,1,.089-.279l-.763-.136a4.386,4.386,0,0,1-.245.858,4.408,4.408,0,0,1-.8,1.355,1.986,1.986,0,0,1,.545.552,4.748,4.748,0,0,0,.681-1.076ZM-23.6-1.907a6.4,6.4,0,0,1-.32,1.832l.606.279a7.569,7.569,0,0,0,.334-2.016Zm1.8.1a15.969,15.969,0,0,1,.259,1.75l.62-.15a16.825,16.825,0,0,0-.327-1.736Zm2.656.293a7.8,7.8,0,0,0-.838-1.709l-.592.327a7.489,7.489,0,0,1,.776,1.73ZM-13.368.123a5.8,5.8,0,0,1-.054-.892V-4.208a10.261,10.261,0,0,1,.054-1.124,4.952,4.952,0,0,1-.695.034h-.626a3.784,3.784,0,0,1-.681-.041v.865a6.056,6.056,0,0,1,.7-.041h.327V-.769A5.688,5.688,0,0,1-14.4.123ZM-7.2.232a1.933,1.933,0,0,0,1.655-.8,3.576,3.576,0,0,0,.5-2.016,4.579,4.579,0,0,0-.266-1.58,1.908,1.908,0,0,0-.449-.688,1.978,1.978,0,0,0-1.437-.552,1.936,1.936,0,0,0-1.736.947,4.009,4.009,0,0,0-.415,1.886,4.557,4.557,0,0,0,.266,1.566,1.908,1.908,0,0,0,.449.688A1.962,1.962,0,0,0-7.2.232Zm.007-.79A1,1,0,0,1-8.063-1a3.063,3.063,0,0,1-.347-1.621,2.541,2.541,0,0,1,.449-1.655A.916.916,0,0,1-7.2-4.624a.984.984,0,0,1,.742.286A2.641,2.641,0,0,1-5.98-2.594a2.624,2.624,0,0,1-.477,1.75A.99.99,0,0,1-7.192-.558Zm4.842-1.13H-2.7A5.707,5.707,0,0,1-3.44-1.73v.776A5.856,5.856,0,0,1-2.7-.994H-.41v.838A4.963,4.963,0,0,1-.45.586H.38A4.1,4.1,0,0,1,.339-.143V-.994h1.58a5.781,5.781,0,0,1,.742.041V-1.73a5.562,5.562,0,0,1-.742.041H.339v-1.1H1.456a6.408,6.408,0,0,1,.681.027v-.722a5,5,0,0,1-.7.034H.339v-.885H1.729a5.012,5.012,0,0,1,.695.034v-.742a4.835,4.835,0,0,1-.695.034H-1.458c.123-.266.191-.409.2-.429.048-.1.061-.123.1-.2l-.81-.163a1.967,1.967,0,0,1-.163.5A4.227,4.227,0,0,1-3.46-3.6a2.981,2.981,0,0,1,.5.606A6.279,6.279,0,0,0-1.833-4.338H-.41v.885H-1.894c-.184,0-.334-.007-.477-.02a3.739,3.739,0,0,1,.02.395Zm.715,0v-1.1H-.41v1.1ZM3.84-2.07A1.5,1.5,0,0,1,5.024-2.7,1.943,1.943,0,0,1,6.2-2.234a3.48,3.48,0,0,0,.933.5,1.937,1.937,0,0,0,.6.1,1.912,1.912,0,0,0,1.178-.388,2.974,2.974,0,0,0,.647-.661l-.545-.545a1.825,1.825,0,0,1-.708.62,1.346,1.346,0,0,1-.5.129,2.309,2.309,0,0,1-1.205-.477,4.888,4.888,0,0,0-.62-.375,1.911,1.911,0,0,0-.878-.2,1.94,1.94,0,0,0-1.117.354,2.342,2.342,0,0,0-.674.606ZM12.2-3.84a.6.6,0,0,0-.485-.2.592.592,0,0,0-.589.323,1.6,1.6,0,0,0-.106.592H10.1a2.329,2.329,0,0,1,.223-.994,1.387,1.387,0,0,1,1.347-.722,1.708,1.708,0,0,1,1.217.424A1.466,1.466,0,0,1,13.336-3.3a1.519,1.519,0,0,1-.319.951,3.18,3.18,0,0,1-.688.615l-.379.269q-.356.253-.487.366a1.072,1.072,0,0,0-.221.263h2.1V0h-3.3a2.265,2.265,0,0,1,.223-.948,2.679,2.679,0,0,1,.958-1.021,7.022,7.022,0,0,0,.848-.672.993.993,0,0,0,.3-.692A.766.766,0,0,0,12.2-3.84Zm3.3,3.96A1.364,1.364,0,0,1,14.2-.525a3.732,3.732,0,0,1-.371-1.839A3.752,3.752,0,0,1,14.2-4.206a1.362,1.362,0,0,1,1.292-.648,1.366,1.366,0,0,1,1.293.648,3.766,3.766,0,0,1,.369,1.842,3.732,3.732,0,0,1-.371,1.839A1.364,1.364,0,0,1,15.494.12Zm.555-1.214a4.744,4.744,0,0,0,.13-1.27,4.653,4.653,0,0,0-.131-1.29.537.537,0,0,0-.554-.419.544.544,0,0,0-.559.419,4.491,4.491,0,0,0-.136,1.29,4.541,4.541,0,0,0,.136,1.272.549.549,0,0,0,.559.441A.544.544,0,0,0,16.049-1.094Zm2.793-.595H18.5a5.707,5.707,0,0,1-.742-.041v.776A5.856,5.856,0,0,1,18.5-.994h2.288v.838a4.963,4.963,0,0,1-.041.742h.831a4.1,4.1,0,0,1-.041-.729V-.994h1.58a5.781,5.781,0,0,1,.742.041V-1.73a5.562,5.562,0,0,1-.742.041h-1.58v-1.1h1.117a6.408,6.408,0,0,1,.681.027v-.722a5,5,0,0,1-.7.034h-1.1v-.885h1.389a5.012,5.012,0,0,1,.695.034v-.742a4.835,4.835,0,0,1-.695.034H19.735c.123-.266.191-.409.2-.429.048-.1.061-.123.1-.2l-.81-.163a1.967,1.967,0,0,1-.163.5A4.227,4.227,0,0,1,17.733-3.6a2.981,2.981,0,0,1,.5.606A6.279,6.279,0,0,0,19.36-4.338h1.423v.885H19.3c-.184,0-.334-.007-.477-.02a3.739,3.739,0,0,1,.02.395Zm.715,0v-1.1h1.226v1.1Z" transform="translate(2198.18 5099.15)" fill="#333"/>
        </g>
        <g id="グループ_266" data-name="グループ 266">
          <rect id="長方形_153" data-name="長方形 153" width="55.157" height="10.214" transform="translate(2277.276 5091.455)" fill="#fff766"/>
          <path id="パス_639" data-name="パス 639" d="M-18.515-2.138a4.057,4.057,0,0,1,.443-.041c.136-.014.347-.027.64-.048V-.143a5.007,5.007,0,0,1-.041.729h.749a5.007,5.007,0,0,1-.041-.729V-2.288c.123-.007.279-.027.483-.048.027.109.041.163.075.32l.572-.238a10.229,10.229,0,0,0-.538-1.328l-.511.2a3.723,3.723,0,0,1,.2.463c-.347.041-.375.041-.776.061a17.786,17.786,0,0,0,1.151-1.532,2.822,2.822,0,0,1,.225-.313l-.626-.361a7.768,7.768,0,0,1-.735,1.192c-.1-.123-.17-.2-.286-.34A9.159,9.159,0,0,0-16.9-5.25c.075-.136.1-.184.143-.245l-.647-.266a4.981,4.981,0,0,1-.565,1.1c-.068-.082-.109-.123-.2-.238l-.388.565a6.319,6.319,0,0,1,.933,1.008c-.136.177-.163.211-.395.5-.157.007-.225.007-.272.007a1.79,1.79,0,0,1-.293-.02Zm5.271-1.879a18.872,18.872,0,0,1-.218,3.282c-.082.422-.157.5-.463.5a5.294,5.294,0,0,1-.892-.089,2.785,2.785,0,0,1,.191.763c.245.02.456.027.633.027a1.456,1.456,0,0,0,.872-.177c.225-.177.347-.552.456-1.335.075-.558.15-1.743.157-2.52a8.678,8.678,0,0,1,.034-1.185,3.732,3.732,0,0,1-.558.027h-1.484c.082-.211.109-.293.2-.572a2.335,2.335,0,0,1,.089-.279l-.763-.136a4.386,4.386,0,0,1-.245.858,4.408,4.408,0,0,1-.8,1.355,1.986,1.986,0,0,1,.545.552,4.748,4.748,0,0,0,.681-1.076ZM-18.3-1.907a6.4,6.4,0,0,1-.32,1.832l.606.279a7.569,7.569,0,0,0,.334-2.016Zm1.8.1a15.969,15.969,0,0,1,.259,1.75l.62-.15a16.824,16.824,0,0,0-.327-1.736Zm2.656.293a7.8,7.8,0,0,0-.838-1.709l-.592.327a7.489,7.489,0,0,1,.776,1.73ZM-8.07.123a5.8,5.8,0,0,1-.054-.892V-4.208A10.26,10.26,0,0,1-8.07-5.332a4.952,4.952,0,0,1-.695.034h-.626a3.784,3.784,0,0,1-.681-.041v.865a6.056,6.056,0,0,1,.7-.041h.327V-.769A5.688,5.688,0,0,1-9.1.123Zm4.208-1.811h-.347a5.707,5.707,0,0,1-.742-.041v.776a5.856,5.856,0,0,1,.742-.041h2.288v.838a4.963,4.963,0,0,1-.041.742h.831a4.1,4.1,0,0,1-.041-.729V-.994H.408a5.781,5.781,0,0,1,.742.041V-1.73a5.562,5.562,0,0,1-.742.041h-1.58v-1.1H-.055a6.408,6.408,0,0,1,.681.027v-.722a5,5,0,0,1-.7.034h-1.1v-.885H.217A5.012,5.012,0,0,1,.912-4.3v-.742a4.835,4.835,0,0,1-.695.034H-2.969c.123-.266.191-.409.2-.429.048-.1.061-.123.1-.2l-.81-.163a1.967,1.967,0,0,1-.163.5A4.227,4.227,0,0,1-4.971-3.6a2.981,2.981,0,0,1,.5.606A6.279,6.279,0,0,0-3.344-4.338h1.423v.885H-3.405c-.184,0-.334-.007-.477-.02a3.739,3.739,0,0,1,.02.395Zm.715,0v-1.1h1.226v1.1ZM2.328-2.07A1.5,1.5,0,0,1,3.513-2.7a1.943,1.943,0,0,1,1.171.463,3.48,3.48,0,0,0,.933.5,1.937,1.937,0,0,0,.6.1,1.912,1.912,0,0,0,1.178-.388,2.974,2.974,0,0,0,.647-.661L7.5-3.228a1.825,1.825,0,0,1-.708.62,1.346,1.346,0,0,1-.5.129,2.309,2.309,0,0,1-1.205-.477,4.888,4.888,0,0,0-.62-.375,1.911,1.911,0,0,0-.878-.2,1.94,1.94,0,0,0-1.117.354,2.342,2.342,0,0,0-.674.606Zm8.36-1.77a.6.6,0,0,0-.485-.2.592.592,0,0,0-.589.323,1.6,1.6,0,0,0-.106.592H8.587a2.329,2.329,0,0,1,.223-.994,1.387,1.387,0,0,1,1.347-.722,1.708,1.708,0,0,1,1.217.424A1.466,1.466,0,0,1,11.825-3.3a1.519,1.519,0,0,1-.319.951,3.18,3.18,0,0,1-.688.615l-.379.269q-.356.253-.487.366a1.072,1.072,0,0,0-.221.263h2.1V0h-3.3a2.265,2.265,0,0,1,.223-.948,2.679,2.679,0,0,1,.958-1.021,7.022,7.022,0,0,0,.848-.672.993.993,0,0,0,.3-.692A.766.766,0,0,0,10.688-3.84Zm2.857,2.152H13.2a5.707,5.707,0,0,1-.742-.041v.776A5.856,5.856,0,0,1,13.2-.994h2.288v.838a4.963,4.963,0,0,1-.041.742h.831a4.1,4.1,0,0,1-.041-.729V-.994h1.58a5.781,5.781,0,0,1,.742.041V-1.73a5.562,5.562,0,0,1-.742.041h-1.58v-1.1h1.117a6.408,6.408,0,0,1,.681.027v-.722a5,5,0,0,1-.7.034h-1.1v-.885h1.389a5.012,5.012,0,0,1,.695.034v-.742a4.835,4.835,0,0,1-.695.034H14.437c.123-.266.191-.409.2-.429.048-.1.061-.123.1-.2l-.81-.163a1.967,1.967,0,0,1-.163.5A4.227,4.227,0,0,1,12.435-3.6a2.981,2.981,0,0,1,.5.606,6.279,6.279,0,0,0,1.124-1.341h1.423v.885H14c-.184,0-.334-.007-.477-.02a3.739,3.739,0,0,1,.02.395Zm.715,0v-1.1h1.226v1.1Z" transform="translate(2304.854 5099.15)" fill="#333"/>
        </g>
        <path id="パス_638" data-name="パス 638" d="M-28.838-2.029h.64a3.946,3.946,0,0,1,.613.041v-.735a4.322,4.322,0,0,1-.674.041h-3.629v-.361H-29a4.062,4.062,0,0,1,.626.034v-.626A4.532,4.532,0,0,1-29-3.6h-2.887v-.334H-29a5.893,5.893,0,0,1,.626.034v-.62A4.678,4.678,0,0,1-29-4.487h-2.887v-.34H-28.9a5.588,5.588,0,0,1,.783.034v-.722a4.612,4.612,0,0,1-.79.041h-3.051a5.467,5.467,0,0,1-.742-.034,5.3,5.3,0,0,1,.027.674v2.152h-.354a4.4,4.4,0,0,1-.708-.041v.735a4.283,4.283,0,0,1,.695-.041h.368v1.7a6.779,6.779,0,0,1-.967.123l.143.763c.123-.034.143-.034.306-.068A19.719,19.719,0,0,0-30.527-.17l-.007-.681A11.858,11.858,0,0,1-31.9-.483V-2.029h.592A3.62,3.62,0,0,0-30.268-.681,5.894,5.894,0,0,0-27.817.5a3.328,3.328,0,0,1,.361-.783A6.008,6.008,0,0,1-29.24-.885a4.521,4.521,0,0,0,.654-.47c.252-.225.334-.3.388-.34Zm-.075,0a4.946,4.946,0,0,1-.912.79,2.14,2.14,0,0,1-.715-.79ZM-26.509-5a3.253,3.253,0,0,1,.027.436,10.267,10.267,0,0,0,.429,3.555c.272.654.64.987,1.1.987.579,0,.974-.552,1.328-1.879a3.361,3.361,0,0,1-.681-.62,5.02,5.02,0,0,1-.361,1.233c-.082.191-.177.293-.279.293-.218,0-.436-.436-.552-1.144a12.743,12.743,0,0,1-.129-1.825A7.916,7.916,0,0,1-25.576-5Zm3.439.647A5.944,5.944,0,0,1-22.1-2.683a6.9,6.9,0,0,1,.436,1.968l.844-.32A6.789,6.789,0,0,0-22.355-4.7Zm4.079,2.669h-.347a5.707,5.707,0,0,1-.742-.041v.776a5.856,5.856,0,0,1,.742-.041h2.288v.838a4.963,4.963,0,0,1-.041.742h.831A4.1,4.1,0,0,1-16.3-.143V-.994h1.58a5.781,5.781,0,0,1,.742.041V-1.73a5.562,5.562,0,0,1-.742.041H-16.3v-1.1h1.117a6.408,6.408,0,0,1,.681.027v-.722a5,5,0,0,1-.7.034h-1.1v-.885h1.389a5.012,5.012,0,0,1,.695.034v-.742a4.835,4.835,0,0,1-.695.034H-18.1c.123-.266.191-.409.2-.429.048-.1.061-.123.1-.2l-.81-.163a1.967,1.967,0,0,1-.163.5A4.227,4.227,0,0,1-20.1-3.6,2.981,2.981,0,0,1-19.6-3a6.279,6.279,0,0,0,1.124-1.341h1.423v.885h-1.484c-.184,0-.334-.007-.477-.02a3.739,3.739,0,0,1,.02.395Zm.715,0v-1.1h1.226v1.1Zm9.574.116V-.395c0,.15-.048.184-.252.184a6.885,6.885,0,0,1-1-.082,2.464,2.464,0,0,1,.2.763c.347.02.572.027.79.027a1.35,1.35,0,0,0,.79-.136c.17-.109.245-.306.245-.647V-4.7A5.136,5.136,0,0,1-7.9-5.468a6.138,6.138,0,0,1-.79.034h-2.84a6.87,6.87,0,0,1-.8-.034,9.6,9.6,0,0,1,.034,1.028,10.75,10.75,0,0,1-.272,3.2,2.578,2.578,0,0,1-.729,1.2,2.634,2.634,0,0,1,.633.626,3.818,3.818,0,0,0,.8-1.348,5.047,5.047,0,0,0,.2-.81Zm-2.874-.695c.041-.552.054-.7.054-.912H-8.7v.912Zm.061-1.607v-.851H-8.7v.851ZM-6.06-4.12a.752.752,0,0,1,.109-.007c.061,0,.061,0,.191.007.15,0,.749.014.858.014,0,0,.089-.007.116-.007a.333.333,0,0,0-.054.089A9.019,9.019,0,0,1-5.659-2.86a4.172,4.172,0,0,1-.613.606l.62.613a3.062,3.062,0,0,1,.592-.62,2.3,2.3,0,0,1,1.4-.7.374.374,0,0,1,.415.368,3.331,3.331,0,0,0-1.464.96,1.085,1.085,0,0,0-.3.756.987.987,0,0,0,.5.878A2.924,2.924,0,0,0-3,.286,12.351,12.351,0,0,0-1.253.163,2.006,2.006,0,0,1-.94.136l-.068-.878a5.916,5.916,0,0,1-2,.286c-.824,0-1.151-.143-1.151-.5a.717.717,0,0,1,.354-.558,4.138,4.138,0,0,1,.654-.354V-1.7a5.391,5.391,0,0,1-.041.79l.79-.02a2.8,2.8,0,0,1-.02-.361c0-.048,0-.109.007-.225v-.272c0-.1,0-.1-.007-.272v-.075q.878-.306,1.021-.347a6.011,6.011,0,0,1,.756-.184l-.32-.783a2.127,2.127,0,0,1-.5.2q-.255.082-1.042.368A.9.9,0,0,0-3.486-3.6a1.646,1.646,0,0,0-.96.306c-.089.068-.089.068-.136.1l-.007-.014a3.524,3.524,0,0,0,.626-.906c.688-.02,1.553-.075,2.05-.136.347-.041.347-.041.538-.054l-.048-.776a9.2,9.2,0,0,1-1.784.232c-.375.02-.375.02-.429.027.014-.027.027-.048.061-.123A5.2,5.2,0,0,1-3.3-5.557l-.892-.1a2.7,2.7,0,0,1-.272.844A8.229,8.229,0,0,1-6.047-4.9ZM2.063-5.591v.129a10.479,10.479,0,0,1-.177,1.376c-.375.054-1.2.136-1.45.136l.082.8a12.208,12.208,0,0,1,1.219-.218,11.552,11.552,0,0,1-.661,1.927A7.439,7.439,0,0,1,.368-.157l.79.436C1.192.211,1.192.2,1.212.163l.1-.2a14.6,14.6,0,0,0,.817-1.913,14.4,14.4,0,0,0,.415-1.478c.157-.014.259-.02.395-.02.538,0,.695.184.695.81A6.05,6.05,0,0,1,3.459-1.09c-.1.334-.211.463-.409.463a2.817,2.817,0,0,1-.994-.266,2.558,2.558,0,0,1,.068.579c0,.068-.007.163-.014.3a3.3,3.3,0,0,0,1.049.2.862.862,0,0,0,.756-.306A4.318,4.318,0,0,0,4.44-2.6a1.652,1.652,0,0,0-.32-1.205,1.319,1.319,0,0,0-1.008-.361c-.129,0-.225.007-.422.02.02-.089.02-.1.048-.252.1-.511.1-.511.116-.654.02-.109.027-.143.041-.232A1.584,1.584,0,0,1,2.949-5.5ZM4.5-4.283a4.407,4.407,0,0,1,.783,1.164,6.121,6.121,0,0,1,.545,1.546l.776-.395A6.61,6.61,0,0,0,5.2-4.624Zm4.814,1h.1c.082,0,.109,0,.306.014.177.007.429.014.62.014.34,0,.695-.007.926-.027.007.225.007.286.007.429A2.69,2.69,0,0,1,10.8-.94,2.806,2.806,0,0,1,9.758-.2a2.682,2.682,0,0,1,.661.64,4.429,4.429,0,0,0,.742-.518A2.552,2.552,0,0,0,11.937-1.4a6.756,6.756,0,0,0,.143-1.627c0-.123,0-.184-.007-.327a4.81,4.81,0,0,0,.661-.116,3.318,3.318,0,0,1,.381-.068l-.048-.81a3.746,3.746,0,0,1-1.015.259c-.014-.436-.027-.695-.027-.769-.014-.306-.014-.368-.014-.436a1.485,1.485,0,0,1,.014-.232l-.865.014A10.515,10.515,0,0,1,11.249-4c-.354.02-.463.027-.722.027a6.067,6.067,0,0,1-1.212-.089ZM8.88-2.4A7.026,7.026,0,0,0,8.43-1.28c0-.109-.007-.15-.014-.259v-.123C8.41-2,8.41-2.111,8.41-2.186,8.4-2.295,8.4-2.377,8.4-2.4c0-.129.014-.327.048-.776a9.173,9.173,0,0,1,.177-1.341,6.578,6.578,0,0,1,.2-.831l-.9-.089a3,3,0,0,1-.048.5,14.636,14.636,0,0,0-.252,2.581A9.8,9.8,0,0,0,7.872-.136a1.11,1.11,0,0,1,.048.259l.79-.041A5.924,5.924,0,0,1,9.486-2.1ZM14.2-3.847a9.884,9.884,0,0,1,1.13-.136c1.478-.109,1.743-.129,2.295-.211a3,3,0,0,0-.947.681,2.4,2.4,0,0,0-.647,1.607A1.822,1.822,0,0,0,17.01-.266,4.1,4.1,0,0,0,18.6.184a1.446,1.446,0,0,1,.232.041L18.958-.7c-.068.007-.129.007-.136.007a4.132,4.132,0,0,1-1.015-.177,1.143,1.143,0,0,1-.906-1.11A2.214,2.214,0,0,1,18.277-3.8a3.045,3.045,0,0,1,1.348-.368,1.054,1.054,0,0,1,.143.007l-.048-.872a3.845,3.845,0,0,1-.783.068c-1.886.089-3.017.15-3.4.17-1,.068-1,.068-1.124.068-.034,0-.109,0-.259-.007Zm11.617.218a4.7,4.7,0,0,1-.654,1.593,9.229,9.229,0,0,1-.313-2.036H26.08c.347,0,.606.014.831.034v-.749a3.8,3.8,0,0,1-.722.041h-.2l.354-.245a3.81,3.81,0,0,0-.688-.715l-.524.334a3.218,3.218,0,0,1,.6.626h-.9v-.313a5.62,5.62,0,0,1,.034-.647h-.81a2.11,2.11,0,0,1,.034.429c.014.3.014.477.02.531H22.131c-.354,0-.633-.014-.878-.034a6.738,6.738,0,0,1,.041.967,12.8,12.8,0,0,1-.2,2.69,3.184,3.184,0,0,1-.47,1.076,2.5,2.5,0,0,1,.592.579A3.683,3.683,0,0,0,21.77-.8a10.523,10.523,0,0,0,.211-1.709h.994a7.4,7.4,0,0,1-.1,1.233c-.034.17-.1.211-.306.211a4.151,4.151,0,0,1-.661-.054,2.549,2.549,0,0,1,.177.722c.218.014.327.02.518.02.524,0,.769-.1.878-.375A6.471,6.471,0,0,0,23.7-2.622c.014-.266.027-.456.041-.579a2.975,2.975,0,0,1-.483.027H22.008c.007-.245.007-.245.014-.9h2.111a8.443,8.443,0,0,0,.511,2.717A5.111,5.111,0,0,1,22.812-.1a2.259,2.259,0,0,1,.518.592A6.266,6.266,0,0,0,24.977-.7c.395.64.933,1.1,1.28,1.1.375,0,.613-.4.769-1.321a2.031,2.031,0,0,1-.613-.456,3.965,3.965,0,0,1-.129.8c-.034.089-.061.129-.089.129A.99.99,0,0,1,25.89-.7a2.934,2.934,0,0,1-.409-.586,7.4,7.4,0,0,0,.919-1.7c.109-.259.109-.259.15-.361Zm6.626,1.6h.64a3.946,3.946,0,0,1,.613.041v-.735a4.322,4.322,0,0,1-.674.041H29.4v-.361h2.887a4.062,4.062,0,0,1,.626.034v-.626a4.532,4.532,0,0,1-.626.034H29.4v-.334h2.887a5.893,5.893,0,0,1,.626.034v-.62a4.679,4.679,0,0,1-.626.034H29.4v-.34h2.989a5.588,5.588,0,0,1,.783.034v-.722a4.612,4.612,0,0,1-.79.041H29.328a5.467,5.467,0,0,1-.742-.034,5.3,5.3,0,0,1,.027.674v2.152h-.354a4.4,4.4,0,0,1-.708-.041v.735a4.283,4.283,0,0,1,.695-.041h.368v1.7a6.779,6.779,0,0,1-.967.123l.143.763c.123-.034.143-.034.306-.068A19.719,19.719,0,0,0,30.758-.17l-.007-.681a11.858,11.858,0,0,1-1.369.368V-2.029h.592A3.62,3.62,0,0,0,31.017-.681,5.894,5.894,0,0,0,33.469.5a3.328,3.328,0,0,1,.361-.783,6.009,6.009,0,0,1-1.784-.606,4.521,4.521,0,0,0,.654-.47c.252-.225.334-.3.388-.34Zm-.075,0a4.946,4.946,0,0,1-.912.79,2.14,2.14,0,0,1-.715-.79Z" transform="translate(2198.18 5120.655)" fill="#333"/>
        <path id="パス_637" data-name="パス 637" d="M-10.664-2.472V-1.8h-1.764a6.413,6.413,0,0,1-.831-.041v.763a6.71,6.71,0,0,1,.831-.041h1.764V-.3A6.821,6.821,0,0,1-10.7.579h.858A5.854,5.854,0,0,1-9.894-.3v-.817h1.886a6.559,6.559,0,0,1,.831.041v-.763a6.486,6.486,0,0,1-.831.041H-9.894v-.674h1.287c.368,0,.531.007.8.027a4.785,4.785,0,0,1-.041-.7V-4.8a4.246,4.246,0,0,1,.041-.722,6.683,6.683,0,0,1-.817.034h-3.2a6.321,6.321,0,0,1-.8-.034,4.374,4.374,0,0,1,.041.735v1.614a4.382,4.382,0,0,1-.041.729c.252-.02.443-.027.8-.027Zm-1.2-2.37H-8.58V-4.3h-3.282Zm0,1.164H-8.58v.586h-3.282Zm10.623,2.1V-.306c0,.123-.048.15-.259.15a3.144,3.144,0,0,1-.6-.068A2.924,2.924,0,0,1-1.92.524c.334.02.347.02.429.02a1.813,1.813,0,0,0,.674-.1c.191-.082.286-.293.286-.626V-4.692A6.454,6.454,0,0,1-.5-5.441a6.561,6.561,0,0,1-.735.027h-.987a7.4,7.4,0,0,1-.756-.027,6.975,6.975,0,0,1,.034.885,24.429,24.429,0,0,1-.136,3.343A2.308,2.308,0,0,1-3.67.054a4.414,4.414,0,0,1,.579.552A3.588,3.588,0,0,0-2.342-1.58Zm0-1.607v.96H-2.295c.02-.306.027-.558.034-.96Zm0-.654H-2.254v-.9h1.015ZM-5.958-4.957a2.208,2.208,0,0,1-.518-.034V-4.3a2.924,2.924,0,0,1,.518-.027V-1.7h-.089a3.046,3.046,0,0,1-.5-.027v.688a3.121,3.121,0,0,1,.524-.027h2.234a5.544,5.544,0,0,1,.572.02V-1.73a2.652,2.652,0,0,1-.409.027V-4.331a2.458,2.458,0,0,1,.463.027v-.688a3.066,3.066,0,0,1-.463.034v-.116A3.374,3.374,0,0,1-3.6-5.652h-.742a3.232,3.232,0,0,1,.034.579v.116h-.981v-.116a3.472,3.472,0,0,1,.034-.579h-.742a3.472,3.472,0,0,1,.034.579ZM-5.284-1.7V-2.22H-4.3V-1.7Zm0-1.117v-.463H-4.3v.463Zm0-1.062v-.449H-4.3v.449Zm-.272,2.874A3.126,3.126,0,0,1-6.551.048a2.547,2.547,0,0,1,.524.538A4.329,4.329,0,0,0-4.978-.654Zm.878.368a3.857,3.857,0,0,0,.661.878,2.563,2.563,0,0,1,.511-.5A2.574,2.574,0,0,1-4.14-.994ZM4.855-3.745a6.369,6.369,0,0,1,.933,2.213l.776-.388A6.333,6.333,0,0,0,5.543-4.086Zm-2-1.5a1.584,1.584,0,0,1,.054-.211l-.885-.089v.123a9.579,9.579,0,0,1-.177,1.376A13.985,13.985,0,0,1,.395-3.9l.082.8a2.8,2.8,0,0,1,.279-.068l.62-.1c.218-.041.218-.041.32-.054A10.016,10.016,0,0,1,.327-.116l.79.436a14.62,14.62,0,0,0,1.389-3.7c.157-.014.266-.02.409-.02.524,0,.681.184.681.81a6.05,6.05,0,0,1-.177,1.553c-.1.334-.211.463-.409.463a2.851,2.851,0,0,1-.994-.272,2.558,2.558,0,0,1,.068.579c0,.068-.007.17-.014.3a3.157,3.157,0,0,0,1.049.2.862.862,0,0,0,.756-.306A4.318,4.318,0,0,0,4.4-2.554a1.652,1.652,0,0,0-.32-1.205A1.319,1.319,0,0,0,3.071-4.12c-.123,0-.218.007-.422.014.02-.089.02-.089.041-.2.068-.368.116-.647.15-.844Zm1.58.048a4.6,4.6,0,0,1,.715,1.015l.477-.252a4.413,4.413,0,0,0-.715-1Zm2,.32a3.938,3.938,0,0,0-.708-.96L5.271-5.6a5.017,5.017,0,0,1,.695.987Zm2.5,2.349c.15-.32.449-1.062.838-2.056a6.561,6.561,0,0,1,.334-.783L9.186-5.6A47.784,47.784,0,0,1,7.572-.967c-.218.592-.279.756-.375.953l.878.286a7.811,7.811,0,0,1,.572-1.559c.334-.613.715-.953,1.083-.953a.337.337,0,0,1,.306.157.929.929,0,0,1,.054.4c0,.068,0,.232-.007.477v.068a1.973,1.973,0,0,0,.116.756A1.066,1.066,0,0,0,11.27.211c1.028,0,1.7-.708,1.988-2.118a2.129,2.129,0,0,1-.749-.511,4.268,4.268,0,0,1-.259,1.083c-.2.477-.49.729-.851.729a.572.572,0,0,1-.361-.1c-.123-.1-.15-.238-.15-.729,0-.783-.034-1.028-.17-1.246a.922.922,0,0,0-.763-.388,1.274,1.274,0,0,0-.878.4l-.129.15Z" transform="translate(2304.854 5120.655)" fill="#333"/>
        <g id="グループ_267" data-name="グループ 267">
          <rect id="長方形_154" data-name="長方形 154" width="61.6" height="36.411" rx="18.205" transform="translate(2347.651 5086.046)" fill="#e61400"/>
          <path id="パス_636" data-name="パス 636" d="M-15.185-5.252c0,.613-.017,1.055-.034,1.336h-.613a4.366,4.366,0,0,1-.834-.051V-3a4.481,4.481,0,0,1,.826-.051h.528A4.209,4.209,0,0,1-16.794-.332a4.533,4.533,0,0,1,.6.775,5.138,5.138,0,0,0,1.413-2.136,4.8,4.8,0,0,0,.962,1.166,4.609,4.609,0,0,1,.613-.783,3.934,3.934,0,0,1-1.3-1.439c.026-.136.034-.179.051-.3h.366a6.1,6.1,0,0,1,.741.034v-.945a4.23,4.23,0,0,1-.715.043h-.3c.017-.3.034-.749.043-1.336h.077a6.652,6.652,0,0,1,.766.034v-.9a4.414,4.414,0,0,1-.758.043h-.97c.051-.162.077-.255.111-.4a4.977,4.977,0,0,1,.162-.562l-.894-.153a3.5,3.5,0,0,1-.119.664,4.888,4.888,0,0,1-.86,1.8,3.269,3.269,0,0,1,.7.579,5.3,5.3,0,0,0,.6-1.1Zm2.46,4.741a6.059,6.059,0,0,1-.86-.043V.409a5.987,5.987,0,0,1,.86-.043h3.047a5.987,5.987,0,0,1,.86.043V-.553a6.059,6.059,0,0,1-.86.043h-.5A10.609,10.609,0,0,0-9.5-2.179l-.894-.3a9.1,9.1,0,0,1-.689,1.966Zm-.57-5.362a8.184,8.184,0,0,1,.86-.034h2.613a8.184,8.184,0,0,1,.86.034v-.945a5.774,5.774,0,0,1-.86.043h-2.613a5.774,5.774,0,0,1-.86-.043Zm3.958,1.362A6.846,6.846,0,0,1-9.3-5.3a7.682,7.682,0,0,1-.86.034H-12.24A7.491,7.491,0,0,1-13.1-5.3a7.134,7.134,0,0,1,.034.792v1.2a6.908,6.908,0,0,1-.034.775,7.365,7.365,0,0,1,.809-.034h2.179a7.465,7.465,0,0,1,.809.034,5.163,5.163,0,0,1-.034-.775Zm-2.851.077h1.958v1.021h-1.958Zm.783,3.473a7.75,7.75,0,0,0-.741-1.515l-.792.349a6.359,6.359,0,0,1,.706,1.515Zm9.857-1.013V-.383c0,.153-.06.187-.323.187a3.931,3.931,0,0,1-.749-.085A3.654,3.654,0,0,1-2.4.655c.417.026.434.026.536.026A2.266,2.266,0,0,0-1.021.562C-.783.46-.664.2-.664-.221V-5.865A8.067,8.067,0,0,1-.63-6.8a8.2,8.2,0,0,1-.919.034H-2.783A9.25,9.25,0,0,1-3.728-6.8a8.719,8.719,0,0,1,.043,1.107,30.536,30.536,0,0,1-.17,4.179A2.884,2.884,0,0,1-4.588.068a5.518,5.518,0,0,1,.724.689,4.484,4.484,0,0,0,.936-2.732Zm0-2.009v1.2H-2.868c.026-.383.034-.7.043-1.2Zm0-.817H-2.817V-5.924h1.268Zm-5.9-1.4a2.76,2.76,0,0,1-.647-.043v.86a3.655,3.655,0,0,1,.647-.034v3.286h-.111a3.807,3.807,0,0,1-.63-.034v.86a3.9,3.9,0,0,1,.655-.034h2.792a6.93,6.93,0,0,1,.715.026v-.851a3.315,3.315,0,0,1-.511.034V-5.414a3.073,3.073,0,0,1,.579.034v-.86a3.833,3.833,0,0,1-.579.043v-.145a4.217,4.217,0,0,1,.043-.724h-.928a4.04,4.04,0,0,1,.043.724V-6.2H-6.605v-.145a4.34,4.34,0,0,1,.043-.724H-7.49a4.34,4.34,0,0,1,.043.724Zm.843,4.069v-.647h1.226v.647Zm0-1.4V-4.1h1.226v.579Zm0-1.328v-.562h1.226v.562Zm-.34,3.592A3.908,3.908,0,0,1-8.188.06a3.184,3.184,0,0,1,.655.672A5.411,5.411,0,0,0-6.222-.817Zm1.1.46A4.821,4.821,0,0,0-5.022.3a3.2,3.2,0,0,1,.638-.63,3.217,3.217,0,0,1-.792-.911ZM5.95-2.775c0-.332.009-.545.026-.766a6.845,6.845,0,0,1-.792.034h-1.9a6.94,6.94,0,0,1-.792-.034c.017.23.026.468.026.766V-.7a5.868,5.868,0,0,1-.06.851h.9V-.323h1.8c.068,0,.23,0,.477.009a3.233,3.233,0,0,1,.221.877c.434.026.468.026.587.026a2.593,2.593,0,0,0,.962-.1c.306-.128.409-.349.409-.86V-5.95c0-.426.009-.638.034-.945a7.635,7.635,0,0,1-.877.034H5.345a7.283,7.283,0,0,1-.868-.034c.017.264.026.5.026.792v1.3c0,.366-.009.528-.026.775.213-.017.485-.026.783-.026H6.937V-.494c0,.17-.077.23-.315.23-.153,0-.46-.026-.647-.043-.017-.221-.026-.417-.026-.741Zm-.6-3.4H6.937v.426H5.345Zm0,1.03H6.937v.434H5.345ZM3.362-2.792H5.1v.511H3.362Zm0,1.2H5.1v.553H3.362ZM1.583-4.052H3.124c.3,0,.562.009.783.026-.017-.187-.026-.383-.026-.775V-6.1c0-.332.009-.519.026-.792a7.192,7.192,0,0,1-.868.034H1.532a7.731,7.731,0,0,1-.877-.034,9.437,9.437,0,0,1,.034.953V-.383A7.609,7.609,0,0,1,.638.672h1A7.383,7.383,0,0,1,1.583-.375Zm0-2.119H3.047v.426H1.583Zm0,1.03H3.047v.434H1.583ZM9.2-4.826A10.683,10.683,0,0,1,10.614-5c1.651-.119,2.179-.17,2.868-.272a3.764,3.764,0,0,0-1.183.86,2.964,2.964,0,0,0-.809,2A2.277,2.277,0,0,0,12.708-.357,5.121,5.121,0,0,0,14.7.2c.162.026.179.026.289.051L15.143-.9c-.085.009-.162.009-.17.009A5.165,5.165,0,0,1,13.7-1.115,1.429,1.429,0,0,1,12.572-2.5a2.767,2.767,0,0,1,1.719-2.273,3.807,3.807,0,0,1,1.685-.46,1.318,1.318,0,0,1,.179.009L16.1-6.307a4.586,4.586,0,0,1-.877.068c-2.273.111-3.728.187-4.35.221-1.251.085-1.251.085-1.4.085-.043,0-.136,0-.323-.009Zm5.209.817A5.745,5.745,0,0,1,15.3-2.741l.6-.315a5.516,5.516,0,0,0-.894-1.251Zm2.5.4a4.922,4.922,0,0,0-.885-1.2l-.57.3a6.271,6.271,0,0,1,.868,1.234ZM-15.866,6.963a4.188,4.188,0,0,0,.383-.443,5.132,5.132,0,0,1,.426-.477l-.494-.468a4.3,4.3,0,0,1-.817.043h-1.345c.136-.187.17-.23.315-.451l-1.064-.187a6.092,6.092,0,0,1-2.426,2.426,4.048,4.048,0,0,1,.528.783,7.92,7.92,0,0,0,1.09-.834v.409c.2-.017.409-.026.63-.026H-15V8.18h-3.967a6.173,6.173,0,0,1-.775-.034v.809c.315-.026.468-.034.775-.034H-15V9.4h-4.094a6.238,6.238,0,0,1-.783-.034v.843a7.694,7.694,0,0,1,.783-.034h2.017l-.477.4a9.013,9.013,0,0,1,1.1,1.072l.63-.6a6.5,6.5,0,0,0-.953-.877H-14.6c.179,0,.264.009.528.026-.009-.128-.017-.281-.017-.494V7.431c0-.23.009-.366.017-.494a4.979,4.979,0,0,1-.545.026Zm-2.783,0h-.2a6.36,6.36,0,0,0,.553-.6h1.8a4.32,4.32,0,0,1-.5.6Zm-1.5,5.805a6.31,6.31,0,0,0,.987-2.153l-.843-.23a4.6,4.6,0,0,1-.936,1.864Zm2.213-1.694a3.261,3.261,0,0,1,.043-.689h-.987a3.3,3.3,0,0,1,.051.689V12c0,.715.247.834,1.719.834,1.217,0,1.728-.077,1.949-.289.2-.187.272-.409.375-1.158a2.994,2.994,0,0,1-.885-.281c-.026.426-.077.672-.162.749-.136.119-.383.153-1.149.153-.9,0-.953-.017-.953-.306Zm2.851-.306a8.668,8.668,0,0,1,1.234,1.915l.809-.579a13.14,13.14,0,0,0-1.311-1.822Zm5-1.021A3.58,3.58,0,0,1-10.35,11.2a2.712,2.712,0,0,1-.809,1.064,2.506,2.506,0,0,1,.579.655,3.716,3.716,0,0,0,1.158-1.992h.868a5.124,5.124,0,0,1-.119.979c-.034.136-.085.17-.272.17a5.575,5.575,0,0,1-.6-.043,2.04,2.04,0,0,1,.153.758c.2.009.434.017.519.017.587,0,.792-.128.919-.6a2.362,2.362,0,0,1,.528.681,6.07,6.07,0,0,0,1.285-1.439,6.547,6.547,0,0,0,1.345,1.4,3.078,3.078,0,0,1,.494-.868,5.6,5.6,0,0,1-1.379-1.345,8.7,8.7,0,0,0,.689-3.3,2.864,2.864,0,0,1,.477.043V6.52a3.339,3.339,0,0,1-.681.051H-6.307c.085-.281.145-.5.213-.766a2.392,2.392,0,0,1,.145-.528l-.919-.162a7.552,7.552,0,0,1-.953,2.86V6.614c0-.451.009-.638.026-.826a6.032,6.032,0,0,1-.8.034H-8.92c.1-.2.119-.23.281-.6l-.919-.111a2.237,2.237,0,0,1-.238.706,5.389,5.389,0,0,1-.758-.034c.017.179.026.255.034.46a6.54,6.54,0,0,0-1.26-1.03l-.613.63a6.069,6.069,0,0,1,1.277,1.107l.6-.664V7.746a7.254,7.254,0,0,1-.034.843,4.665,4.665,0,0,1,.7-.034h.272v.494h-.621a4.152,4.152,0,0,1-.689-.043V9.78a5,5,0,0,1,.655-.034Zm1.924,0a4.787,4.787,0,0,1,.647.034V9.04l.238-.366a6.62,6.62,0,0,0,.647,1.983,5.825,5.825,0,0,1-.647.86,3.824,3.824,0,0,1-.655.6A10.83,10.83,0,0,0-7.763,10.7a3.566,3.566,0,0,1,.034-.477c-.187.017-.383.026-.664.026H-9.3c.026-.179.026-.238.043-.5Zm2.324-2.417A7.735,7.735,0,0,1-6.2,9.755a6.252,6.252,0,0,1-.511-2.136c.068-.162.077-.179.119-.289ZM-8.776,9.048V8.554h.392c.162,0,.357.009.485.009a3.261,3.261,0,0,1,.332.451,3.385,3.385,0,0,1-.545.034Zm-1-2.622h1.2V6.9h-1.2Zm0,1.064h1.2v.477h-1.2Zm-2.843.468A5.85,5.85,0,0,1-11.3,9.014l.553-.724a6.658,6.658,0,0,0-1.311-.979Zm1.132,1.694a8.013,8.013,0,0,1-1.107,2.52l.758.63c.034-.068.043-.077.06-.119l.128-.255c.009-.034.145-.375.409-1.013.2-.511.2-.511.468-1.234Zm9.474,2.809c-.009-.111-.009-.179-.009-.23A6.988,6.988,0,0,1-1.26,9.652l-.681-.306a8.681,8.681,0,0,0-.443,1.124c.009-.213.017-.281.017-.468A14.212,14.212,0,0,1-2.239,8.12,11.735,11.735,0,0,1-1.7,5.575l-1.124-.119a5.57,5.57,0,0,1-.128.792A16.341,16.341,0,0,0-3.3,9.576a14.847,14.847,0,0,0,.221,2.545c.026.2.034.247.043.4Zm1.175-5.1A10.1,10.1,0,0,0,.7,7.456a15.247,15.247,0,0,0,1.822-.1l.6-.077-.051-1.03a9.386,9.386,0,0,1-2.315.23A6.137,6.137,0,0,1-.817,6.341Zm.587,1.4a2.781,2.781,0,0,0-.783,1.753,1.426,1.426,0,0,0,.255.834,2.462,2.462,0,0,0,2.111.741A10.5,10.5,0,0,0,3.1,11.934a2.845,2.845,0,0,1,.349-.051L3.362,10.8a5.982,5.982,0,0,1-2.026.323c-.885,0-1.353-.255-1.353-.741a1.925,1.925,0,0,1,.6-1.226ZM11,7.72a5.877,5.877,0,0,1-.817,1.992,11.537,11.537,0,0,1-.392-2.545h1.532c.434,0,.758.017,1.038.043V6.273a4.744,4.744,0,0,1-.9.051H11.2l.443-.306a4.763,4.763,0,0,0-.86-.894l-.655.417a4.022,4.022,0,0,1,.749.783H9.755V5.933A7.025,7.025,0,0,1,9.8,5.124H8.784a2.637,2.637,0,0,1,.043.536c.017.375.017.6.026.664H6.384c-.443,0-.792-.017-1.1-.043A8.423,8.423,0,0,1,5.337,7.49a16,16,0,0,1-.255,3.362A3.979,3.979,0,0,1,4.494,12.2a3.124,3.124,0,0,1,.741.724,4.6,4.6,0,0,0,.7-1.66A13.153,13.153,0,0,0,6.2,9.125H7.439a9.252,9.252,0,0,1-.128,1.541c-.043.213-.119.264-.383.264a5.189,5.189,0,0,1-.826-.068,3.186,3.186,0,0,1,.221.9c.272.017.409.026.647.026.655,0,.962-.128,1.1-.468A8.088,8.088,0,0,0,8.35,8.98c.017-.332.034-.57.051-.724a3.719,3.719,0,0,1-.6.034H6.231c.009-.306.009-.306.017-1.124H8.886a10.554,10.554,0,0,0,.638,3.4,6.389,6.389,0,0,1-2.29,1.566,2.824,2.824,0,0,1,.647.741,7.833,7.833,0,0,0,2.06-1.49c.494.8,1.166,1.37,1.6,1.37.468,0,.766-.5.962-1.651a2.538,2.538,0,0,1-.766-.57,4.956,4.956,0,0,1-.162,1c-.043.111-.077.162-.111.162a1.237,1.237,0,0,1-.383-.306,3.667,3.667,0,0,1-.511-.732A9.254,9.254,0,0,0,11.721,8.52c.136-.323.136-.323.187-.451Zm8.282,2h.8a4.933,4.933,0,0,1,.766.051V8.852A5.4,5.4,0,0,1,20,8.9H15.466V8.452h3.609a5.077,5.077,0,0,1,.783.043V7.712a5.665,5.665,0,0,1-.783.043H15.466V7.337h3.609a7.367,7.367,0,0,1,.783.043V6.605a5.848,5.848,0,0,1-.783.043H15.466V6.222H19.2a6.985,6.985,0,0,1,.979.043v-.9a5.765,5.765,0,0,1-.987.051H15.381a6.834,6.834,0,0,1-.928-.043,6.625,6.625,0,0,1,.034.843V8.9h-.443a5.5,5.5,0,0,1-.885-.051v.919a5.353,5.353,0,0,1,.868-.051h.46V11.84a8.473,8.473,0,0,1-1.209.153l.179.953c.153-.043.179-.043.383-.085a24.649,24.649,0,0,0,3.328-.817l-.009-.851a14.822,14.822,0,0,1-1.711.46V9.721h.741a4.525,4.525,0,0,0,1.3,1.685,7.368,7.368,0,0,0,3.064,1.481,4.161,4.161,0,0,1,.451-.979,7.511,7.511,0,0,1-2.23-.758,5.652,5.652,0,0,0,.817-.587c.315-.281.417-.375.485-.426Zm-.094,0a6.182,6.182,0,0,1-1.141.987,2.675,2.675,0,0,1-.894-.987Z" transform="translate(2378.451 5101.357)" fill="#fff"/>
        </g>
      </g>
    </g>
  </g>
</svg>
