<svg xmlns="http://www.w3.org/2000/svg" width="812.867" height="461.899" viewBox="0 0 812.867 461.899">
  <g id="グループ_737" data-name="グループ 737" transform="translate(-277.884 -3363.707)">
    <rect id="長方形_282" data-name="長方形 282" width="90" height="337.246" transform="translate(351.149 3458.045)" fill="#fff766"/>
    <rect id="長方形_283" data-name="長方形 283" width="90" height="328.946" transform="translate(499.916 3466.345)" fill="#fff766"/>
    <rect id="長方形_284" data-name="長方形 284" width="90" height="295.317" transform="translate(648.682 3499.974)" fill="#fff766"/>
    <path id="パス_321" data-name="パス 321" d="M676.727,3558.962h7.959l9,188.726,9-188.726h7.96c.979,0,1.321-.658.76-1.459l-16.7-23.882a1.165,1.165,0,0,0-2.039,0l-16.7,23.882C675.4,3558.3,675.747,3558.962,676.727,3558.962Z" fill="#e61400"/>
    <rect id="長方形_285" data-name="長方形 285" width="90" height="272.162" transform="translate(797.449 3523.13)" fill="#fff766"/>
    <rect id="長方形_286" data-name="長方形 286" width="90" height="359.536" transform="translate(946.215 3435.756)" fill="#fff766"/>
    <rect id="長方形_287" data-name="長方形 287" width="90" height="39.878" transform="translate(387.244 3755.414)" fill="#ff8e66"/>
    <rect id="長方形_288" data-name="長方形 288" width="90" height="52.834" transform="translate(535.737 3742.458)" fill="#ff8e66"/>
    <rect id="長方形_289" data-name="長方形 289" width="90" height="31.334" transform="translate(684.229 3763.958)" fill="#ff8e66"/>
    <rect id="長方形_290" data-name="長方形 290" width="90" height="10.55" transform="translate(832.722 3784.742)" fill="#ff8e66"/>
    <rect id="長方形_291" data-name="長方形 291" width="90" height="70" transform="translate(981.215 3725.292)" fill="#ff8e66"/>
    <path id="パス_571" data-name="パス 571" d="M-9.116,0h-2.852V-9.766H-15.3V-11.66a12.337,12.337,0,0,0,1.846-.176,2.6,2.6,0,0,0,1.367-.742,2.444,2.444,0,0,0,.547-1.016,2.331,2.331,0,0,0,.107-.566h2.314ZM-.054.352A4.006,4.006,0,0,1-3.848-1.543a10.96,10.96,0,0,1-1.089-5.4,11.019,11.019,0,0,1,1.089-5.41,4,4,0,0,1,3.794-1.9,4.012,4.012,0,0,1,3.8,1.9,11.061,11.061,0,0,1,1.084,5.41,10.96,10.96,0,0,1-1.089,5.4A4.006,4.006,0,0,1-.054.352ZM1.577-3.213a13.932,13.932,0,0,0,.381-3.73,13.666,13.666,0,0,0-.386-3.789,1.576,1.576,0,0,0-1.626-1.23,1.6,1.6,0,0,0-1.641,1.23,13.189,13.189,0,0,0-.4,3.789,13.338,13.338,0,0,0,.4,3.735A1.612,1.612,0,0,0-.054-1.914,1.6,1.6,0,0,0,1.577-3.213ZM11.069.352A4.006,4.006,0,0,1,7.275-1.543a10.96,10.96,0,0,1-1.089-5.4,11.019,11.019,0,0,1,1.089-5.41,4,4,0,0,1,3.794-1.9,4.012,4.012,0,0,1,3.8,1.9,11.061,11.061,0,0,1,1.084,5.41,10.96,10.96,0,0,1-1.089,5.4A4.006,4.006,0,0,1,11.069.352ZM12.7-3.213a13.932,13.932,0,0,0,.381-3.73,13.666,13.666,0,0,0-.386-3.789,1.576,1.576,0,0,0-1.626-1.23,1.6,1.6,0,0,0-1.641,1.23,13.189,13.189,0,0,0-.4,3.789,13.338,13.338,0,0,0,.4,3.735,1.612,1.612,0,0,0,1.641,1.294A1.6,1.6,0,0,0,12.7-3.213Z" transform="translate(293.182 3413.992)" fill="#333"/>
    <path id="パス_570" data-name="パス 570" d="M-26.606-.889a4.185,4.185,0,0,1-1.221-3.037,4.337,4.337,0,0,1,.542-2.158A3.433,3.433,0,0,1-25.7-7.539a3.3,3.3,0,0,1-1.333-1.479,4.145,4.145,0,0,1-.308-1.489,3.476,3.476,0,0,1,1.162-2.632A4.616,4.616,0,0,1-22.9-14.229a4.616,4.616,0,0,1,3.281,1.089,3.476,3.476,0,0,1,1.162,2.632,4.145,4.145,0,0,1-.308,1.489,2.844,2.844,0,0,1-1.333,1.382,3.924,3.924,0,0,1,1.572,1.553,4.432,4.432,0,0,1,.527,2.158A4.037,4.037,0,0,1-19.316-.884a5.158,5.158,0,0,1-3.7,1.255A4.782,4.782,0,0,1-26.606-.889Zm1.67-3.223a2.274,2.274,0,0,0,.542,1.621,1.958,1.958,0,0,0,1.5.576,1.958,1.958,0,0,0,1.5-.576,2.274,2.274,0,0,0,.542-1.621,2.254,2.254,0,0,0-.552-1.646A1.993,1.993,0,0,0-22.9-6.318a1.993,1.993,0,0,0-1.489.562A2.254,2.254,0,0,0-24.937-4.111Zm.732-4.824a1.728,1.728,0,0,0,1.309.488,1.725,1.725,0,0,0,1.313-.488,1.754,1.754,0,0,0,.464-1.26,1.8,1.8,0,0,0-.464-1.313,1.755,1.755,0,0,0-1.313-.474,1.775,1.775,0,0,0-1.313.474,1.775,1.775,0,0,0-.474,1.313A1.724,1.724,0,0,0-24.2-8.936Zm13.926-2.344a1.754,1.754,0,0,0-1.426-.6,1.739,1.739,0,0,0-1.729.947,4.7,4.7,0,0,0-.312,1.738H-16.45a6.841,6.841,0,0,1,.654-2.92,4.075,4.075,0,0,1,3.955-2.119,5.015,5.015,0,0,1,3.574,1.245,4.305,4.305,0,0,1,1.328,3.3,4.462,4.462,0,0,1-.937,2.793A9.34,9.34,0,0,1-9.9-5.088l-1.113.791q-1.045.742-1.431,1.074a3.148,3.148,0,0,0-.649.771h6.182V0h-9.7a6.654,6.654,0,0,1,.654-2.783,7.869,7.869,0,0,1,2.813-3,20.625,20.625,0,0,0,2.49-1.973A2.915,2.915,0,0,0-9.78-9.785,2.25,2.25,0,0,0-10.278-11.279Zm5.42,8.369H-1.9V0H-4.858ZM9.907-5.225v2.178h-1.6V0H5.581V-3.047H-.024V-5.479l5.205-8.594H8.306v8.848Zm-7.871,0H5.581v-6.113ZM20.522-3.35a3.511,3.511,0,0,1,1.064-2.578,3.516,3.516,0,0,1,2.568-1.055,3.5,3.5,0,0,1,2.568,1.064A3.5,3.5,0,0,1,27.788-3.35,3.5,3.5,0,0,1,26.724-.781,3.5,3.5,0,0,1,24.155.283,3.5,3.5,0,0,1,21.587-.781,3.5,3.5,0,0,1,20.522-3.35ZM12.095-7.891a3.5,3.5,0,0,1-1.064-2.568,3.5,3.5,0,0,1,1.064-2.568,3.5,3.5,0,0,1,2.568-1.064,3.5,3.5,0,0,1,2.568,1.064A3.5,3.5,0,0,1,18.3-10.459a3.508,3.508,0,0,1-1.06,2.568,3.5,3.5,0,0,1-2.573,1.064A3.5,3.5,0,0,1,12.095-7.891ZM16.2.371H14.683L22.6-14.16h1.484Zm6.865-2.627a1.473,1.473,0,0,0,1.094.459,1.5,1.5,0,0,0,1.1-.454,1.5,1.5,0,0,0,.454-1.1,1.5,1.5,0,0,0-.454-1.1,1.5,1.5,0,0,0-1.1-.454,1.5,1.5,0,0,0-1.1.454,1.5,1.5,0,0,0-.454,1.1A1.473,1.473,0,0,0,23.062-2.256ZM13.569-9.365a1.473,1.473,0,0,0,1.094.459,1.5,1.5,0,0,0,1.1-.454,1.5,1.5,0,0,0,.454-1.1,1.5,1.5,0,0,0-.454-1.1,1.5,1.5,0,0,0-1.1-.454,1.5,1.5,0,0,0-1.1.454,1.5,1.5,0,0,0-.454,1.1A1.473,1.473,0,0,0,13.569-9.365Z" transform="translate(396.149 3452.43)" fill="#333"/>
    <path id="パス_569" data-name="パス 569" d="M-13.984-9.609A19.534,19.534,0,0,0-15.85-6.348a19.386,19.386,0,0,0-1.074,3.223A13.381,13.381,0,0,0-17.4,0h-2.891a17.018,17.018,0,0,1,2.5-7.92,18.706,18.706,0,0,1,2.568-3.555h-7.061l.039-2.5h10V-11.8A17.694,17.694,0,0,0-13.984-9.609Zm3.564,6.7h2.959V0H-10.42Zm8.135-8.428a2.632,2.632,0,0,0-.449,1.67h-2.6a6.985,6.985,0,0,1,.361-2A4.506,4.506,0,0,1-3.9-13.2a3.742,3.742,0,0,1,1.3-.762,5.621,5.621,0,0,1,1.846-.264,4.912,4.912,0,0,1,3.276,1.05A3.5,3.5,0,0,1,3.77-10.361a3.115,3.115,0,0,1-.742,2.109,2.534,2.534,0,0,1-.977.732,2.009,2.009,0,0,1,1.094.654,3.494,3.494,0,0,1,1.064,2.7A4.54,4.54,0,0,1,2.964-1.011,4.746,4.746,0,0,1-.723.352Q-3.73.352-4.9-1.611a5.826,5.826,0,0,1-.684-2.734h2.734a3.184,3.184,0,0,0,.273,1.406A1.874,1.874,0,0,0-.732-1.914,2.045,2.045,0,0,0,.7-2.476a2.086,2.086,0,0,0,.61-1.616A1.821,1.821,0,0,0,.176-5.957a5.75,5.75,0,0,0-2.031-.264V-8.213A5.27,5.27,0,0,0,.039-8.477a1.629,1.629,0,0,0,.928-1.66,1.855,1.855,0,0,0-.474-1.318A1.733,1.733,0,0,0-.84-11.963,1.673,1.673,0,0,0-2.285-11.338ZM14.961-3.35a3.511,3.511,0,0,1,1.064-2.578,3.516,3.516,0,0,1,2.568-1.055,3.5,3.5,0,0,1,2.568,1.064A3.5,3.5,0,0,1,22.227-3.35,3.5,3.5,0,0,1,21.162-.781,3.5,3.5,0,0,1,18.594.283,3.5,3.5,0,0,1,16.025-.781,3.5,3.5,0,0,1,14.961-3.35ZM6.533-7.891a3.5,3.5,0,0,1-1.064-2.568,3.5,3.5,0,0,1,1.064-2.568A3.5,3.5,0,0,1,9.1-14.092a3.5,3.5,0,0,1,2.568,1.064,3.5,3.5,0,0,1,1.064,2.568,3.508,3.508,0,0,1-1.06,2.568A3.5,3.5,0,0,1,9.1-6.826,3.5,3.5,0,0,1,6.533-7.891Zm4.1,8.262H9.121l7.92-14.531h1.484ZM17.5-2.256a1.473,1.473,0,0,0,1.094.459,1.5,1.5,0,0,0,1.1-.454,1.5,1.5,0,0,0,.454-1.1,1.5,1.5,0,0,0-.454-1.1,1.5,1.5,0,0,0-1.1-.454,1.5,1.5,0,0,0-1.1.454,1.5,1.5,0,0,0-.454,1.1A1.473,1.473,0,0,0,17.5-2.256ZM8.008-9.365A1.473,1.473,0,0,0,9.1-8.906a1.5,1.5,0,0,0,1.1-.454,1.5,1.5,0,0,0,.454-1.1,1.5,1.5,0,0,0-.454-1.1,1.5,1.5,0,0,0-1.1-.454,1.5,1.5,0,0,0-1.1.454,1.5,1.5,0,0,0-.454,1.1A1.473,1.473,0,0,0,8.008-9.365Z" transform="translate(432.244 3751.196)" fill="#333"/>
    <path id="パス_568" data-name="パス 568" d="M-32.62-10.68h.98c.7,0,.8,0,1.24.02a7.083,7.083,0,0,1-.04-.94V-13a8.061,8.061,0,0,1,.04-.92,7.064,7.064,0,0,1-1.26.04h-.96v-.8h.88a13.833,13.833,0,0,1,1.7.08v-1.72a20.393,20.393,0,0,1-2.08.1h-4.36c-.98,0-1.34-.02-1.84-.06.04.5.06.94.06,1.92v4.24c0,.86-.02,1.28-.06,1.82.5-.04.84-.06,1.84-.06h5.24c.26.02.44.02.46.02a3.483,3.483,0,0,1,.76.04V-9.88a15.879,15.879,0,0,1-1.72.06h-.88Zm-1.8,0v.86h-1.92v-.86Zm-1.92-1.22v-.76h4.04v.76Zm0-1.98v-.8h1.92v.8Zm8.9-.5-1.74.7a13.959,13.959,0,0,0,1.98,2.5A14.455,14.455,0,0,1-29.98-9.9a7.119,7.119,0,0,1,1.04,1.68,15.13,15.13,0,0,0,3.2-1.68A15.241,15.241,0,0,0-21.5-7.7a8.315,8.315,0,0,1,.9-2.1,10.963,10.963,0,0,1-3.52-1.36,11.9,11.9,0,0,0,2.44-2.94c.24-.44.32-.6.48-.84l-1.06-1.3a11.988,11.988,0,0,1-1.5.06h-3.88a19.814,19.814,0,0,1-2-.08v1.96a13.365,13.365,0,0,1,1.72-.08Zm3.58,0a7.223,7.223,0,0,1-1.8,2.12,8.263,8.263,0,0,1-1.72-2.12ZM-34.52-1.36h9.06v.54c0,.42-.14.5-.84.5-.66,0-1.4-.04-2.56-.14a5.531,5.531,0,0,1,.44,1.88c.92.02,1.4.04,2.04.04,1.68,0,2.24-.12,2.64-.56a1.97,1.97,0,0,0,.36-1.38V-5.56a20.572,20.572,0,0,1,.08-2.2,15.253,15.253,0,0,1-2.26.1H-34.4c-1,0-1.54-.02-2.28-.08.04.52.06,1.06.06,2.22V-.84a24.653,24.653,0,0,1-.1,2.5h2.32a20.2,20.2,0,0,1-.12-2.48Zm0-1.52v-.84h9.06v.84Zm0-2.34v-.82h9.06v.82ZM-6.58.14c-.22.18-.3.26-.6.48a4.713,4.713,0,0,1,1.44,1.3A10.811,10.811,0,0,0-3.78-.34c.74,1.32,1.36,1.9,2.04,1.9.46,0,.8-.3,1.02-.92A9.027,9.027,0,0,0-.28-2.08a4.033,4.033,0,0,1-1.4-.98A5.65,5.65,0,0,1-1.92-.72a4.351,4.351,0,0,1-.8-1.6A35.744,35.744,0,0,0-.84-8.06l-1.8-.52a17.37,17.37,0,0,1-.8,3.64,39.278,39.278,0,0,1-.48-4.94H-2.6A10.564,10.564,0,0,1-.92-9.8v-1.84a3.112,3.112,0,0,1-.5.06A7.946,7.946,0,0,0-2.5-13.16l-1.2.64a5.83,5.83,0,0,1,.7.96h-.94c0-.4,0-.4.02-.72h-1.9c.04.34.04.34.06.6v.12h-5.38a10.863,10.863,0,0,1-1.6-.08c.04.62.06,1.28.06,2.34,0,4.4-.24,6.88-.84,8.78V-14.3a19.338,19.338,0,0,1,.06-1.98,11.308,11.308,0,0,1-1.64.08h-1.62a12.885,12.885,0,0,1-1.68-.08,33.634,33.634,0,0,1,.12,4.16,73.471,73.471,0,0,1-.42,9.66A10.376,10.376,0,0,1-19.54.4a8.192,8.192,0,0,1,1.5,1.5,16.926,16.926,0,0,0,1.32-6.64h1.56V-1.1c0,.5-.1.6-.56.6a6.845,6.845,0,0,1-1.2-.16,4.554,4.554,0,0,1,.38,1.86v.26c.4.02.62.02.76.02,1.4,0,1.84-.2,2.12-.96a9.277,9.277,0,0,1,1.44,1.04c.84-2.28,1.18-5.16,1.24-10.16V-9.88h5.26a27.059,27.059,0,0,0,1.1,7.54,8.593,8.593,0,0,1-1.1,1.6V-1.5a6.474,6.474,0,0,1-1.26.06V-2.68h.1a6.709,6.709,0,0,1,1.06.04c-.02-.34-.04-.62-.04-.96V-5.66a5.387,5.387,0,0,1,.04-.88c-.24.02-.36.02-1.06.02H-7v-1.2a5.7,5.7,0,0,1,1,.08V-9.28a12.5,12.5,0,0,1-1.48.06H-9.04a15.356,15.356,0,0,1-1.56-.04c.02.38.02.38.04,1.58V-.62c0,.78-.02,1.22-.06,1.78h1.54V.14h2.5ZM-8.36-2.68v1.24h-.72V-2.68Zm-.72-1.38v-1.1h1.82v1.1Zm0-2.46v-1.2h.72v1.2Zm-7.56-.12.04-2.82h1.44v2.82Zm.06-4.72v-2.86h1.42v2.86Zm6.32-2.06a4.457,4.457,0,0,1-.06.96H-8.3a3.56,3.56,0,0,1-.06-.96h2.42a5.055,5.055,0,0,1-.06.7h2.02a2.885,2.885,0,0,1-.06-.7h1.18a16.563,16.563,0,0,1,2,.08v-2a16.376,16.376,0,0,1-2,.1H-4.04v-.42a4.9,4.9,0,0,1,.08-1.02H-6a7.084,7.084,0,0,1,.06,1.04v.4H-8.36v-.42a7.163,7.163,0,0,1,.06-1.02h-2.04a4.659,4.659,0,0,1,.08,1.02v.42H-11a18.583,18.583,0,0,1-2-.08v1.98a16.776,16.776,0,0,1,2-.08ZM14.26-11A18.707,18.707,0,0,1,17-4.5l2.28-1.14a18.6,18.6,0,0,0-3-6.36ZM8.38-15.4a4.653,4.653,0,0,1,.16-.62l-2.6-.26v.36a28.133,28.133,0,0,1-.52,4.04,41.077,41.077,0,0,1-4.26.42L1.4-9.1a8.212,8.212,0,0,1,.82-.2l1.82-.3c.64-.12.64-.12.94-.16A29.418,29.418,0,0,1,.96-.34L3.28.94A42.939,42.939,0,0,0,7.36-9.94c.46-.04.78-.06,1.2-.06,1.54,0,2,.54,2,2.38a17.771,17.771,0,0,1-.52,4.56c-.3.98-.62,1.36-1.2,1.36a8.372,8.372,0,0,1-2.92-.8,7.512,7.512,0,0,1,.2,1.7c0,.2-.02.5-.04.88a9.272,9.272,0,0,0,3.08.6,2.533,2.533,0,0,0,2.22-.9c.96-1.1,1.54-3.84,1.54-7.28,0-1.82-.26-2.78-.94-3.54A3.874,3.874,0,0,0,9.02-12.1c-.36,0-.64.02-1.24.04.06-.26.06-.26.12-.6.2-1.08.34-1.9.44-2.48Zm4.64.14a13.5,13.5,0,0,1,2.1,2.98l1.4-.74a12.961,12.961,0,0,0-2.1-2.94Zm5.88.94a11.566,11.566,0,0,0-2.08-2.82l-1.34.7a14.736,14.736,0,0,1,2.04,2.9Zm7.34,6.9c.44-.94,1.32-3.12,2.46-6.04a19.27,19.27,0,0,1,.98-2.3l-2.7-.68c-.14.82-.14.82-4.74,13.6-.64,1.74-.82,2.22-1.1,2.8L23.72.8A22.942,22.942,0,0,1,25.4-3.78c.98-1.8,2.1-2.8,3.18-2.8a.99.99,0,0,1,.9.46,2.73,2.73,0,0,1,.16,1.18c0,.2,0,.68-.02,1.4v.2a5.8,5.8,0,0,0,.34,2.22A3.13,3.13,0,0,0,33.1.62c3.02,0,4.98-2.08,5.84-6.22a6.254,6.254,0,0,1-2.2-1.5,12.534,12.534,0,0,1-.76,3.18c-.58,1.4-1.44,2.14-2.5,2.14a1.68,1.68,0,0,1-1.06-.28c-.36-.3-.44-.7-.44-2.14,0-2.3-.1-3.02-.5-3.66A2.708,2.708,0,0,0,29.24-9a3.742,3.742,0,0,0-2.58,1.18c-.26.3-.26.3-.38.44Z" transform="translate(414.29 3823.686)" fill="#333"/>
    <path id="パス_567" data-name="パス 567" d="M18.66-1.42c-2.42-2.34-2.42-2.34-2.92-2.78a31,31,0,0,0-3.7-2.9,26.488,26.488,0,0,0,3.12-5.52,3.847,3.847,0,0,1,.64-1.08l-1.32-1.36a4.332,4.332,0,0,1-1.78.22l-7.04.1H5.18a8.752,8.752,0,0,1-1.76-.12L3.5-12.3a15.762,15.762,0,0,1,2.18-.16c6.3-.1,6.3-.1,6.62-.12l-.22.52A19.278,19.278,0,0,1,5.36-3.92a16.512,16.512,0,0,1-4,2.2A8.023,8.023,0,0,1,2.98.5,23.767,23.767,0,0,0,10.6-5.28,38.447,38.447,0,0,1,16.74.66ZM35.88-8.16a19.789,19.789,0,0,1,2.54.1v-2.38a14.206,14.206,0,0,1-2.58.14H24.14a14.077,14.077,0,0,1-2.58-.14v2.38a19.789,19.789,0,0,1,2.54-.1h4.88a8.493,8.493,0,0,1-.88,3.78c-.84,1.54-2.34,2.6-4.74,3.34a6.346,6.346,0,0,1,1.62,2.2c2.7-1.08,4.16-2.18,5.22-3.94a10.86,10.86,0,0,0,1.4-5.38Zm-12.3-4.88a18.841,18.841,0,0,1,2.54-.1h7.76a18.841,18.841,0,0,1,2.54.1v-2.44a13.569,13.569,0,0,1-2.58.14H26.16a13.569,13.569,0,0,1-2.58-.14ZM41.42-6.28a21.956,21.956,0,0,1,3.26-.1H55.3a21.956,21.956,0,0,1,3.26.1V-9.06a19.641,19.641,0,0,1-3.24.14H44.66a19.641,19.641,0,0,1-3.24-.14Zm22.04-7.4a24.213,24.213,0,0,1,5.34,2.74l1.28-2.2a32.935,32.935,0,0,0-5.32-2.58ZM61.88-8.82A23.214,23.214,0,0,1,67.3-5.9l1.24-2.26a31.567,31.567,0,0,0-5.32-2.72Zm11.88-6.6a13.5,13.5,0,0,1,2.1,2.98l1.4-.74a12.961,12.961,0,0,0-2.1-2.94ZM63.02.82a11.809,11.809,0,0,1,1.4-.34C71.58-.92,75.8-4.2,78.28-10.26a9.724,9.724,0,0,1-2.08-1.78,13.756,13.756,0,0,1-8.1,8.82,17.767,17.767,0,0,1-5.78,1.3Zm16.62-15.3a11.566,11.566,0,0,0-2.08-2.82l-1.34.7a14.736,14.736,0,0,1,2.04,2.9ZM91.86.36a17.037,17.037,0,0,1-.16-2.62v-10.1a30.135,30.135,0,0,1,.16-3.3,14.545,14.545,0,0,1-2.04.1H87.98a11.114,11.114,0,0,1-2-.12v2.54a17.787,17.787,0,0,1,2.06-.12H89v11A16.707,16.707,0,0,1,88.84.36Z" transform="translate(801.695 3383.737)" fill="#333"/>
    <path id="パス_566" data-name="パス 566" d="M-23.68-9.84a17.8,17.8,0,0,1,2.5.14v-2.54a16.654,16.654,0,0,1-2.52.14H-29c.02-.74.04-1.2.04-2.02a14.9,14.9,0,0,1,.14-2.34h-2.64a13.363,13.363,0,0,1,.14,2c0,1.04-.02,1.36-.06,2.36h-4.9a15.807,15.807,0,0,1-2.52-.14V-9.7a15.2,15.2,0,0,1,2.5-.14h4.72a10.166,10.166,0,0,1-4.5,7.54A14.355,14.355,0,0,1-39.32-.6a7.851,7.851,0,0,1,1.4,2.1,14.825,14.825,0,0,0,4.78-3.14A12.09,12.09,0,0,0-29.88-7a15.011,15.011,0,0,0,3.02,4.84A16.232,16.232,0,0,0-21.92,1.5,8.236,8.236,0,0,1-20.46-.8a13.957,13.957,0,0,1-5.52-3.8,13.966,13.966,0,0,1-2.88-5.24ZM-8.42-6.22a7.4,7.4,0,0,0,.58-.94H-2.6a16.866,16.866,0,0,1,1.96.1V-9.02A9.892,9.892,0,0,1-2.6-8.9h-7.9A11.866,11.866,0,0,1-12.38-9v1.94a15.025,15.025,0,0,1,1.82-.1h.74a5.954,5.954,0,0,1-3,2.5v-9.88a17.057,17.057,0,0,1,.06-1.76,10.825,10.825,0,0,1-1.62.08h-2.08a17.428,17.428,0,0,1-1.82-.08,33.2,33.2,0,0,1,.12,4.16c0,7.42-.26,10-1.2,12.1a11.4,11.4,0,0,1,1.62,1.7c.8-1.56,1.14-3.2,1.32-6.56h1.72v3.84c0,.42-.1.52-.54.52a7.546,7.546,0,0,1-1.3-.16,6.011,6.011,0,0,1,.46,2.1c.4.02.6.02.8.02,1.18,0,1.68-.1,2-.4a2.074,2.074,0,0,0,.46-1.58V-4.4a4.139,4.139,0,0,1,.88,1.22,7.878,7.878,0,0,0,1.98-1.3H-8.6a7.155,7.155,0,0,1-1.44,1.32,10.564,10.564,0,0,1-2.64,1.42,4.785,4.785,0,0,1,1.1,1.38,12.988,12.988,0,0,0,2.8-1.76,10.659,10.659,0,0,0,2.2-2.36h1.06A10.6,10.6,0,0,1-10.9.36,4.443,4.443,0,0,1-9.58,1.7,11.633,11.633,0,0,0-6.28-.66a7.578,7.578,0,0,1,.44,2.08c.66.06,1.22.1,1.62.1,1.44,0,2.04-.26,2.36-1,.36-.84.56-2.42.7-5.66.04-.72.04-.84.08-1.14a17.255,17.255,0,0,1-1.78.06ZM-3.2-4.48A13.887,13.887,0,0,1-3.66-.8c-.1.26-.3.34-.78.34A8.135,8.135,0,0,1-6.26-.68a10.614,10.614,0,0,0,2.58-3.8Zm-11.5-7.04h-1.6v-2.72h1.6Zm0,1.9v2.8h-1.66l.04-2.8Zm10.8-.1c.78,0,1.36.02,1.82.06a16.4,16.4,0,0,1-.08-1.9v-2.72a16.022,16.022,0,0,1,.08-1.96,14.558,14.558,0,0,1-2.14.1h-5.3a13.7,13.7,0,0,1-2.04-.1,14.71,14.71,0,0,1,.08,1.82v2.86a17.462,17.462,0,0,1-.08,1.92,15.5,15.5,0,0,1,1.84-.08Zm-5.58-4.8H-4.2v.94H-9.48Zm0,2.32H-4.2v.92H-9.48ZM14.26-11A18.707,18.707,0,0,1,17-4.5l2.28-1.14a18.6,18.6,0,0,0-3-6.36ZM8.38-15.4a4.653,4.653,0,0,1,.16-.62l-2.6-.26v.36a28.133,28.133,0,0,1-.52,4.04,41.077,41.077,0,0,1-4.26.42L1.4-9.1a8.212,8.212,0,0,1,.82-.2l1.82-.3c.64-.12.64-.12.94-.16A29.418,29.418,0,0,1,.96-.34L3.28.94A42.939,42.939,0,0,0,7.36-9.94c.46-.04.78-.06,1.2-.06,1.54,0,2,.54,2,2.38a17.771,17.771,0,0,1-.52,4.56c-.3.98-.62,1.36-1.2,1.36a8.372,8.372,0,0,1-2.92-.8,7.512,7.512,0,0,1,.2,1.7c0,.2-.02.5-.04.88a9.272,9.272,0,0,0,3.08.6,2.533,2.533,0,0,0,2.22-.9c.96-1.1,1.54-3.84,1.54-7.28,0-1.82-.26-2.78-.94-3.54A3.874,3.874,0,0,0,9.02-12.1c-.36,0-.64.02-1.24.04.06-.26.06-.26.12-.6.2-1.08.34-1.9.44-2.48Zm4.64.14a13.5,13.5,0,0,1,2.1,2.98l1.4-.74a12.961,12.961,0,0,0-2.1-2.94Zm5.88.94a11.566,11.566,0,0,0-2.08-2.82l-1.34.7a14.736,14.736,0,0,1,2.04,2.9Zm7.34,6.9c.44-.94,1.32-3.12,2.46-6.04a19.27,19.27,0,0,1,.98-2.3l-2.7-.68c-.14.82-.14.82-4.74,13.6-.64,1.74-.82,2.22-1.1,2.8L23.72.8A22.942,22.942,0,0,1,25.4-3.78c.98-1.8,2.1-2.8,3.18-2.8a.99.99,0,0,1,.9.46,2.73,2.73,0,0,1,.16,1.18c0,.2,0,.68-.02,1.4v.2a5.8,5.8,0,0,0,.34,2.22A3.13,3.13,0,0,0,33.1.62c3.02,0,4.98-2.08,5.84-6.22a6.254,6.254,0,0,1-2.2-1.5,12.534,12.534,0,0,1-.76,3.18c-.58,1.4-1.44,2.14-2.5,2.14a1.68,1.68,0,0,1-1.06-.28c-.36-.3-.44-.7-.44-2.14,0-2.3-.1-3.02-.5-3.66A2.708,2.708,0,0,0,29.24-9a3.742,3.742,0,0,0-2.58,1.18c-.26.3-.26.3-.38.44Z" transform="translate(563.057 3823.686)" fill="#333"/>
    <path id="パス_565" data-name="パス 565" d="M-24.48-1.7h8.92v.78c0,.44-.2.56-.86.56a23.963,23.963,0,0,1-2.5-.16,6.838,6.838,0,0,1,.42,1.9c.9.04,1.34.06,1.72.06a5.269,5.269,0,0,0,2.7-.38,1.72,1.72,0,0,0,.66-1.58V-6.38c0-1.08.02-1.62.08-2.3a16.989,16.989,0,0,1-2.1.08h-9.08c-.94,0-1.52-.02-2.18-.08a19.588,19.588,0,0,1,.08,2.22v5.5a20.209,20.209,0,0,1-.1,2.52h2.34c-.06-.64-.1-1.36-.1-2.28Zm0-1.62V-4.34h8.92v1.02Zm0-2.62v-.98h8.92v.98Zm-3.26-5.38c0,.78-.02,1.24-.08,1.98a14.766,14.766,0,0,1,1.88-.08h11.88a14.924,14.924,0,0,1,1.9.08c-.06-.7-.08-1.14-.08-1.98v-3.06a17.266,17.266,0,0,1,.08-1.98,17.027,17.027,0,0,1-2.16.1H-25.66a16.836,16.836,0,0,1-2.16-.1,17.948,17.948,0,0,1,.08,1.98Zm2.08-3.38h4.48v1.1h-4.48Zm0,2.64h4.48v1.1h-4.48Zm11.32-2.64v1.1h-4.8v-1.1Zm0,2.64v1.1h-4.8v-1.1ZM4.26-11A18.707,18.707,0,0,1,7-4.5L9.28-5.64a18.6,18.6,0,0,0-3-6.36Zm-5.88-4.4a4.653,4.653,0,0,1,.16-.62l-2.6-.26v.36a28.133,28.133,0,0,1-.52,4.04,41.077,41.077,0,0,1-4.26.42L-8.6-9.1a8.212,8.212,0,0,1,.82-.2l1.82-.3c.64-.12.64-.12.94-.16A29.418,29.418,0,0,1-9.04-.34L-6.72.94A42.939,42.939,0,0,0-2.64-9.94c.46-.04.78-.06,1.2-.06,1.54,0,2,.54,2,2.38A17.771,17.771,0,0,1,.04-3.06c-.3.98-.62,1.36-1.2,1.36a8.372,8.372,0,0,1-2.92-.8,7.512,7.512,0,0,1,.2,1.7c0,.2-.02.5-.04.88A9.272,9.272,0,0,0-.84.68a2.533,2.533,0,0,0,2.22-.9c.96-1.1,1.54-3.84,1.54-7.28,0-1.82-.26-2.78-.94-3.54A3.874,3.874,0,0,0-.98-12.1c-.36,0-.64.02-1.24.04.06-.26.06-.26.12-.6.2-1.08.34-1.9.44-2.48Zm4.64.14a13.5,13.5,0,0,1,2.1,2.98l1.4-.74a12.961,12.961,0,0,0-2.1-2.94Zm5.88.94a11.566,11.566,0,0,0-2.08-2.82l-1.34.7a14.736,14.736,0,0,1,2.04,2.9Zm7.34,6.9c.44-.94,1.32-3.12,2.46-6.04a19.27,19.27,0,0,1,.98-2.3l-2.7-.68c-.14.82-.14.82-4.74,13.6-.64,1.74-.82,2.22-1.1,2.8L13.72.8A22.942,22.942,0,0,1,15.4-3.78c.98-1.8,2.1-2.8,3.18-2.8a.99.99,0,0,1,.9.46,2.73,2.73,0,0,1,.16,1.18c0,.2,0,.68-.02,1.4v.2a5.8,5.8,0,0,0,.34,2.22A3.13,3.13,0,0,0,23.1.62c3.02,0,4.98-2.08,5.84-6.22a6.254,6.254,0,0,1-2.2-1.5,12.534,12.534,0,0,1-.76,3.18c-.58,1.4-1.44,2.14-2.5,2.14a1.68,1.68,0,0,1-1.06-.28c-.36-.3-.44-.7-.44-2.14,0-2.3-.1-3.02-.5-3.66A2.708,2.708,0,0,0,19.24-9a3.742,3.742,0,0,0-2.58,1.18c-.26.3-.26.3-.38.44Z" transform="translate(711.823 3823.686)" fill="#333"/>
    <path id="パス_564" data-name="パス 564" d="M-44.04-4.84v3.8c0,.42-.12.52-.66.52a7.82,7.82,0,0,1-1.34-.16,6.826,6.826,0,0,1,.5,2.1c.98.04.98.04,1.22.04,1.72,0,2.24-.48,2.24-2.08V-14.36A14.06,14.06,0,0,1-42-16.2a12.045,12.045,0,0,1-1.72.08h-2.22a19.4,19.4,0,0,1-2.04-.08,26.446,26.446,0,0,1,.12,2.9c0,8.62-.28,11.08-1.54,13.32a8.078,8.078,0,0,1,1.7,1.8A9.4,9.4,0,0,0-46.68-.7a24.488,24.488,0,0,0,.58-4.14Zm0-6.62h-1.88v-2.68h1.88Zm0,1.92v2.78H-46c.02-.3.02-.62.04-1.44,0-.3,0-.76.02-1.34ZM-33.82-2.9c.78,0,1.56.02,1.96.06-.04-.66-.06-1.16-.06-2.32V-13.7c0-1.1.02-1.68.06-2.32a16.989,16.989,0,0,1-2.1.08H-38.6a16.477,16.477,0,0,1-2.04-.08c.04.52.06,1.2.06,2.16v8.94c0,.82-.02,1.54-.06,2.08.44-.04,1.3-.06,2.02-.06ZM-38.5-13.98h4.46v3.54H-38.5Zm0,5.46h4.46v3.58H-38.5Zm-2.98,9.58A17.03,17.03,0,0,1-39.22.94h6.36a17.332,17.332,0,0,1,2.24.12V-1.16a16.861,16.861,0,0,1-2.24.1H-39.2a18.9,18.9,0,0,1-2.28-.1Zm23.04-13.88a4.371,4.371,0,0,1,2.02.6,4.955,4.955,0,0,1,2.46,4.44,5.6,5.6,0,0,1-2.78,5,10.629,10.629,0,0,1-3.98,1.1A6.38,6.38,0,0,1-19.5.66a13.076,13.076,0,0,0,3.14-.84A7.7,7.7,0,0,0-11.5-7.64c0-4.5-3.12-7.42-7.92-7.42a8.978,8.978,0,0,0-6.88,2.8,8.591,8.591,0,0,0-2.2,5.82c0,3.22,1.64,5.54,3.92,5.54,1.64,0,2.92-1.18,4.06-3.76A28.934,28.934,0,0,0-18.44-12.82Zm-2.44.02a26.358,26.358,0,0,1-1.66,6.76c-.72,1.72-1.4,2.56-2.06,2.56-.88,0-1.58-1.3-1.58-2.94a6.7,6.7,0,0,1,2.72-5.4A5.091,5.091,0,0,1-20.88-12.8Zm15.9-1.18a44.317,44.317,0,0,0,9.34,1.26l.34-2.46H4.14A27.417,27.417,0,0,1-4.2-16.34ZM-6.74-7.3A27.965,27.965,0,0,1,1.18-8.68c2.08,0,3.14.76,3.14,2.26A4.134,4.134,0,0,1,1.88-2.9,13.96,13.96,0,0,1-4.14-1.38,5.713,5.713,0,0,1-3.1,1.12C.16.6,1.56.18,3.2-.76,5.62-2.14,7-4.22,7-6.5a4.118,4.118,0,0,0-1.94-3.66,7.216,7.216,0,0,0-3.78-.82A34.894,34.894,0,0,0-5-10.3a13.614,13.614,0,0,1-2.32.34Zm31-3.7A18.707,18.707,0,0,1,27-4.5l2.28-1.14a18.6,18.6,0,0,0-3-6.36Zm-5.88-4.4a4.653,4.653,0,0,1,.16-.62l-2.6-.26v.36a28.133,28.133,0,0,1-.52,4.04,41.077,41.077,0,0,1-4.26.42L11.4-9.1a8.212,8.212,0,0,1,.82-.2l1.82-.3c.64-.12.64-.12.94-.16A29.418,29.418,0,0,1,10.96-.34L13.28.94A42.939,42.939,0,0,0,17.36-9.94c.46-.04.78-.06,1.2-.06,1.54,0,2,.54,2,2.38a17.771,17.771,0,0,1-.52,4.56c-.3.98-.62,1.36-1.2,1.36a8.372,8.372,0,0,1-2.92-.8,7.512,7.512,0,0,1,.2,1.7c0,.2-.02.5-.04.88a9.272,9.272,0,0,0,3.08.6,2.533,2.533,0,0,0,2.22-.9c.96-1.1,1.54-3.84,1.54-7.28,0-1.82-.26-2.78-.94-3.54a3.874,3.874,0,0,0-2.96-1.06c-.36,0-.64.02-1.24.04.06-.26.06-.26.12-.6.2-1.08.34-1.9.44-2.48Zm4.64.14a13.5,13.5,0,0,1,2.1,2.98l1.4-.74a12.961,12.961,0,0,0-2.1-2.94Zm5.88.94a11.566,11.566,0,0,0-2.08-2.82l-1.34.7a14.736,14.736,0,0,1,2.04,2.9Zm7.34,6.9c.44-.94,1.32-3.12,2.46-6.04a19.27,19.27,0,0,1,.98-2.3l-2.7-.68c-.14.82-.14.82-4.74,13.6-.64,1.74-.82,2.22-1.1,2.8L33.72.8A22.942,22.942,0,0,1,35.4-3.78c.98-1.8,2.1-2.8,3.18-2.8a.99.99,0,0,1,.9.46,2.73,2.73,0,0,1,.16,1.18c0,.2,0,.68-.02,1.4v.2a5.8,5.8,0,0,0,.34,2.22A3.13,3.13,0,0,0,43.1.62c3.02,0,4.98-2.08,5.84-6.22a6.254,6.254,0,0,1-2.2-1.5,12.534,12.534,0,0,1-.76,3.18c-.58,1.4-1.44,2.14-2.5,2.14a1.68,1.68,0,0,1-1.06-.28c-.36-.3-.44-.7-.44-2.14,0-2.3-.1-3.02-.5-3.66A2.708,2.708,0,0,0,39.24-9a3.742,3.742,0,0,0-2.58,1.18c-.26.3-.26.3-.38.44Z" transform="translate(860.589 3823.686)" fill="#333"/>
    <path id="パス_563" data-name="パス 563" d="M-40.92-8.92h-5.32a24.262,24.262,0,0,1-2.78-.12v2.42a25.565,25.565,0,0,1,2.72-.12h5.38v5.28c0,.44-.14.52-.96.52a17.64,17.64,0,0,1-2.9-.24,8.05,8.05,0,0,1,.62,2.4c1.44.06,1.84.08,2.24.08,2.66,0,3.34-.44,3.34-2.2V-6.74h4.9a24.54,24.54,0,0,1,2.72.12V-9.04a22.4,22.4,0,0,1-2.72.12h-4.9v-.86a27.2,27.2,0,0,0,4.26-3.08c1.36-1.3,1.36-1.3,1.88-1.78l-1.3-1.46a8.183,8.183,0,0,1-1.74.1h-9.06a19.669,19.669,0,0,1-2.4-.12v2.36a19.8,19.8,0,0,1,2.42-.12h7.98a17.565,17.565,0,0,1-3.4,2.56h-1.04c.04.46.06.88.06,1.52Zm19.64-6.26h-5.18a21.8,21.8,0,0,1-2.2-.08,10.446,10.446,0,0,1,.08,1.48v1.86a11,11,0,0,1-.08,1.54h2.16V-13.2h13.04v2.82h2.16a11.957,11.957,0,0,1-.08-1.54v-1.86a9.919,9.919,0,0,1,.08-1.48c-.62.06-1.24.08-2.2.08h-5.54v-.4a5.858,5.858,0,0,1,.12-1.26H-21.4a5.283,5.283,0,0,1,.12,1.26Zm0,8.46a16.371,16.371,0,0,1-.66,1.52h-3.54a16.308,16.308,0,0,1-1.86-.08,12.43,12.43,0,0,1,.1,1.92v3a16.691,16.691,0,0,1-.12,1.98h2.22V.78H-14.8v.84h2.2a15.292,15.292,0,0,1-.1-1.96v-3a17.856,17.856,0,0,1,.08-1.94,14.766,14.766,0,0,1-1.88.08h-5.14a14.051,14.051,0,0,0,.62-1.52h2.84c.94,0,1.46.02,2.1.06a11.263,11.263,0,0,1-.08-1.78v-2.08a12.952,12.952,0,0,1,.06-1.56,9.85,9.85,0,0,1-1.44.08h-8.78a10.391,10.391,0,0,1-1.5-.08c.04.44.06.84.06,1.5v2.14a12.3,12.3,0,0,1-.08,1.78c.62-.04,1.04-.06,2.1-.06Zm-2.4-3.5h7.44v1.7h-7.44ZM-25.14-3.3H-14.8v2.14H-25.14Zm19.6-1.1v2.64a22.117,22.117,0,0,1-3.62.54L-8.62.92A3.979,3.979,0,0,1-7.78.7,67.2,67.2,0,0,0-.46-1.12L-.44-3a30.157,30.157,0,0,1-2.96.8V-4.4h1.08a15.389,15.389,0,0,1,1.84.1V-6.44a11.411,11.411,0,0,1-1.8.12H-3.4v-.6a8.95,8.95,0,0,1,.1-1.52H-5.66a10.01,10.01,0,0,1,.12,1.6v.52h-1.2A12.246,12.246,0,0,1-8.6-6.44V-4.3a12.824,12.824,0,0,1,1.88-.1Zm-1.02-9.64-1.36.58a12.79,12.79,0,0,0,1.98,2.5A10.374,10.374,0,0,1-9.4-9.5,5.335,5.335,0,0,1-8.3-7.62a14.329,14.329,0,0,0,4-2.04A16.316,16.316,0,0,0-.9-8.02,7.2,7.2,0,0,1,.08-9.98a12.317,12.317,0,0,1-2.86-1.04A18.254,18.254,0,0,0-.14-14.86l-1.08-1.18a7.755,7.755,0,0,1-1.5.08h-4.2a16.244,16.244,0,0,1-1.98-.1v2.1a16.134,16.134,0,0,1,1.74-.08Zm3.72,0a7.115,7.115,0,0,1-1.58,1.92,7.181,7.181,0,0,1-1.66-1.92Zm6.28-.12a10.283,10.283,0,0,1-.56,1.52H2.04a11.693,11.693,0,0,1-1.7-.06c.04.56.06.92.06,1.88v6.74C.4-3.42.38-2.8.34-2.24c.44-.04.94-.06,1.58-.06h.3A8.688,8.688,0,0,1-1.86.16,4.864,4.864,0,0,1-.44,1.9,11.441,11.441,0,0,0,3.8-1.06L2.32-2.3H6.08L4.54-1.1A14.219,14.219,0,0,0,8.18,1.88,7.985,7.985,0,0,1,9.62.18,9.559,9.559,0,0,1,6.18-2.3h.56c.56,0,1.18.02,1.72.06C8.42-2.86,8.4-3.5,8.4-4.3v-6.52c0-.76.02-1.36.06-1.88-.44.04-.9.06-1.96.06H5a15.226,15.226,0,0,0,.58-1.52H7.02a15.037,15.037,0,0,1,2.16.1V-16.2a11.5,11.5,0,0,1-2.16.12H2.12A11.273,11.273,0,0,1,0-16.2v2.14a14.417,14.417,0,0,1,2.12-.1ZM2.38-10.94H6.42v1.22H2.38Zm0,2.86H6.42v1.16H2.38Zm0,2.8H6.42v1.2H2.38ZM24.26-11A18.707,18.707,0,0,1,27-4.5l2.28-1.14a18.6,18.6,0,0,0-3-6.36Zm-5.88-4.4a4.653,4.653,0,0,1,.16-.62l-2.6-.26v.36a28.133,28.133,0,0,1-.52,4.04,41.077,41.077,0,0,1-4.26.42L11.4-9.1a8.212,8.212,0,0,1,.82-.2l1.82-.3c.64-.12.64-.12.94-.16A29.418,29.418,0,0,1,10.96-.34L13.28.94A42.939,42.939,0,0,0,17.36-9.94c.46-.04.78-.06,1.2-.06,1.54,0,2,.54,2,2.38a17.771,17.771,0,0,1-.52,4.56c-.3.98-.62,1.36-1.2,1.36a8.372,8.372,0,0,1-2.92-.8,7.512,7.512,0,0,1,.2,1.7c0,.2-.02.5-.04.88a9.272,9.272,0,0,0,3.08.6,2.533,2.533,0,0,0,2.22-.9c.96-1.1,1.54-3.84,1.54-7.28,0-1.82-.26-2.78-.94-3.54a3.874,3.874,0,0,0-2.96-1.06c-.36,0-.64.02-1.24.04.06-.26.06-.26.12-.6.2-1.08.34-1.9.44-2.48Zm4.64.14a13.5,13.5,0,0,1,2.1,2.98l1.4-.74a12.961,12.961,0,0,0-2.1-2.94Zm5.88.94a11.566,11.566,0,0,0-2.08-2.82l-1.34.7a14.736,14.736,0,0,1,2.04,2.9Zm7.34,6.9c.44-.94,1.32-3.12,2.46-6.04a19.27,19.27,0,0,1,.98-2.3l-2.7-.68c-.14.82-.14.82-4.74,13.6-.64,1.74-.82,2.22-1.1,2.8L33.72.8A22.942,22.942,0,0,1,35.4-3.78c.98-1.8,2.1-2.8,3.18-2.8a.99.99,0,0,1,.9.46,2.73,2.73,0,0,1,.16,1.18c0,.2,0,.68-.02,1.4v.2a5.8,5.8,0,0,0,.34,2.22A3.13,3.13,0,0,0,43.1.62c3.02,0,4.98-2.08,5.84-6.22a6.254,6.254,0,0,1-2.2-1.5,12.534,12.534,0,0,1-.76,3.18c-.58,1.4-1.44,2.14-2.5,2.14a1.68,1.68,0,0,1-1.06-.28c-.36-.3-.44-.7-.44-2.14,0-2.3-.1-3.02-.5-3.66A2.708,2.708,0,0,0,39.24-9a3.742,3.742,0,0,0-2.58,1.18c-.26.3-.26.3-.38.44Z" transform="translate(1009.356 3823.686)" fill="#333"/>
    <path id="パス_562" data-name="パス 562" d="M-20.239,0h-2.852V-9.766h-3.33V-11.66a12.337,12.337,0,0,0,1.846-.176,2.6,2.6,0,0,0,1.367-.742,2.444,2.444,0,0,0,.547-1.016,2.331,2.331,0,0,0,.107-.566h2.314ZM-10.21,0h-2.852V-9.766h-3.33V-11.66a12.337,12.337,0,0,0,1.846-.176,2.6,2.6,0,0,0,1.367-.742,2.444,2.444,0,0,0,.547-1.016,2.331,2.331,0,0,0,.107-.566h2.314Zm4.8-2.91h2.959V0H-5.405Zm11.26-8.369a1.754,1.754,0,0,0-1.426-.6,1.739,1.739,0,0,0-1.729.947,4.7,4.7,0,0,0-.312,1.738H-.317a6.841,6.841,0,0,1,.654-2.92,4.075,4.075,0,0,1,3.955-2.119,5.015,5.015,0,0,1,3.574,1.245,4.305,4.305,0,0,1,1.328,3.3,4.462,4.462,0,0,1-.937,2.793A9.34,9.34,0,0,1,6.235-5.088L5.122-4.3q-1.045.742-1.431,1.074a3.148,3.148,0,0,0-.649.771H9.224V0h-9.7A6.654,6.654,0,0,1,.181-2.783a7.869,7.869,0,0,1,2.813-3,20.625,20.625,0,0,0,2.49-1.973,2.915,2.915,0,0,0,.869-2.031A2.25,2.25,0,0,0,5.854-11.279ZM19.976-3.35A3.511,3.511,0,0,1,21.04-5.928a3.516,3.516,0,0,1,2.568-1.055,3.5,3.5,0,0,1,2.568,1.064A3.5,3.5,0,0,1,27.241-3.35,3.5,3.5,0,0,1,26.177-.781,3.5,3.5,0,0,1,23.608.283,3.5,3.5,0,0,1,21.04-.781,3.5,3.5,0,0,1,19.976-3.35ZM11.548-7.891a3.5,3.5,0,0,1-1.064-2.568,3.5,3.5,0,0,1,1.064-2.568,3.5,3.5,0,0,1,2.568-1.064,3.5,3.5,0,0,1,2.568,1.064,3.5,3.5,0,0,1,1.064,2.568,3.508,3.508,0,0,1-1.06,2.568,3.5,3.5,0,0,1-2.573,1.064A3.5,3.5,0,0,1,11.548-7.891Zm4.1,8.262H14.136l7.92-14.531H23.54Zm6.865-2.627a1.473,1.473,0,0,0,1.094.459,1.5,1.5,0,0,0,1.1-.454,1.5,1.5,0,0,0,.454-1.1,1.5,1.5,0,0,0-.454-1.1,1.5,1.5,0,0,0-1.1-.454,1.5,1.5,0,0,0-1.1.454,1.5,1.5,0,0,0-.454,1.1A1.473,1.473,0,0,0,22.515-2.256ZM13.022-9.365a1.473,1.473,0,0,0,1.094.459,1.5,1.5,0,0,0,1.1-.454,1.5,1.5,0,0,0,.454-1.1,1.5,1.5,0,0,0-.454-1.1,1.5,1.5,0,0,0-1.1-.454,1.5,1.5,0,0,0-1.1.454,1.5,1.5,0,0,0-.454,1.1A1.473,1.473,0,0,0,13.022-9.365Z" transform="translate(579.916 3738.913)" fill="#333"/>
    <path id="パス_561" data-name="パス 561" d="M-8.34-9.189A4.06,4.06,0,0,1-5.249-7.91,4.578,4.578,0,0,1-4.043-4.639a5.522,5.522,0,0,1-1.182,3.5A4.369,4.369,0,0,1-8.9.371a4.226,4.226,0,0,1-3.945-2.236,9.119,9.119,0,0,1-.986-4.512,20.517,20.517,0,0,1,.137-2.637,8.063,8.063,0,0,1,.947-3.008,4.847,4.847,0,0,1,1.587-1.65A4.28,4.28,0,0,1-8.809-14.3a4.649,4.649,0,0,1,3.145,1.011A3.843,3.843,0,0,1-4.346-10.6H-7.119a1.42,1.42,0,0,0-.264-.752,1.528,1.528,0,0,0-1.357-.664,2.007,2.007,0,0,0-1.934,1.523,9.454,9.454,0,0,0-.43,2.48,3.124,3.124,0,0,1,1.2-.9A4.053,4.053,0,0,1-8.34-9.189Zm-1.875,2.656a2.432,2.432,0,0,0-.82,2.051,2.777,2.777,0,0,0,.615,1.865,1.963,1.963,0,0,0,1.563.723,1.735,1.735,0,0,0,1.46-.7A2.907,2.907,0,0,0-6.865-4.4a2.711,2.711,0,0,0-.605-1.9,1.938,1.938,0,0,0-1.484-.659A1.982,1.982,0,0,0-10.215-6.533ZM6.621-3.35A3.511,3.511,0,0,1,7.686-5.928a3.516,3.516,0,0,1,2.568-1.055,3.5,3.5,0,0,1,2.568,1.064A3.5,3.5,0,0,1,13.887-3.35,3.5,3.5,0,0,1,12.822-.781,3.5,3.5,0,0,1,10.254.283,3.5,3.5,0,0,1,7.686-.781,3.5,3.5,0,0,1,6.621-3.35ZM-1.807-7.891a3.5,3.5,0,0,1-1.064-2.568,3.5,3.5,0,0,1,1.064-2.568A3.5,3.5,0,0,1,.762-14.092,3.5,3.5,0,0,1,3.33-13.027a3.5,3.5,0,0,1,1.064,2.568,3.508,3.508,0,0,1-1.06,2.568A3.5,3.5,0,0,1,.762-6.826,3.5,3.5,0,0,1-1.807-7.891ZM2.295.371H.781L8.7-14.16h1.484ZM9.16-2.256a1.473,1.473,0,0,0,1.094.459,1.5,1.5,0,0,0,1.1-.454,1.5,1.5,0,0,0,.454-1.1,1.5,1.5,0,0,0-.454-1.1,1.5,1.5,0,0,0-1.1-.454,1.5,1.5,0,0,0-1.1.454A1.5,1.5,0,0,0,8.7-3.35,1.473,1.473,0,0,0,9.16-2.256ZM-.332-9.365a1.473,1.473,0,0,0,1.094.459,1.5,1.5,0,0,0,1.1-.454,1.5,1.5,0,0,0,.454-1.1,1.5,1.5,0,0,0-.454-1.1,1.5,1.5,0,0,0-1.1-.454,1.5,1.5,0,0,0-1.1.454,1.5,1.5,0,0,0-.454,1.1A1.473,1.473,0,0,0-.332-9.365Z" transform="translate(729.229 3760.292)" fill="#333"/>
    <path id="パス_560" data-name="パス 560" d="M-17.285.352a4.006,4.006,0,0,1-3.794-1.895,10.96,10.96,0,0,1-1.089-5.4,11.019,11.019,0,0,1,1.089-5.41,4,4,0,0,1,3.794-1.9,4.012,4.012,0,0,1,3.8,1.9A11.061,11.061,0,0,1-12.4-6.943a10.96,10.96,0,0,1-1.089,5.4A4.006,4.006,0,0,1-17.285.352Zm1.631-3.564a13.932,13.932,0,0,0,.381-3.73,13.666,13.666,0,0,0-.386-3.789,1.576,1.576,0,0,0-1.626-1.23,1.6,1.6,0,0,0-1.641,1.23,13.189,13.189,0,0,0-.4,3.789,13.338,13.338,0,0,0,.4,3.735,1.612,1.612,0,0,0,1.641,1.294A1.6,1.6,0,0,0-15.654-3.213Zm5.234.3h2.959V0H-10.42ZM0-9.189A4.06,4.06,0,0,1,3.091-7.91,4.578,4.578,0,0,1,4.3-4.639a5.522,5.522,0,0,1-1.182,3.5A4.369,4.369,0,0,1-.557.371,4.226,4.226,0,0,1-4.5-1.865a9.119,9.119,0,0,1-.986-4.512,20.516,20.516,0,0,1,.137-2.637A8.063,8.063,0,0,1-4.4-12.021a4.847,4.847,0,0,1,1.587-1.65A4.28,4.28,0,0,1-.469-14.3a4.649,4.649,0,0,1,3.145,1.011A3.843,3.843,0,0,1,3.994-10.6H1.221a1.42,1.42,0,0,0-.264-.752A1.528,1.528,0,0,0-.4-12.012a2.007,2.007,0,0,0-1.934,1.523,9.454,9.454,0,0,0-.43,2.48,3.124,3.124,0,0,1,1.2-.9A4.053,4.053,0,0,1,0-9.189ZM-1.875-6.533A2.432,2.432,0,0,0-2.7-4.482,2.777,2.777,0,0,0-2.08-2.617a1.963,1.963,0,0,0,1.563.723,1.735,1.735,0,0,0,1.46-.7A2.907,2.907,0,0,0,1.475-4.4,2.711,2.711,0,0,0,.869-6.3,1.938,1.938,0,0,0-.615-6.963,1.982,1.982,0,0,0-1.875-6.533ZM14.961-3.35a3.511,3.511,0,0,1,1.064-2.578,3.516,3.516,0,0,1,2.568-1.055,3.5,3.5,0,0,1,2.568,1.064A3.5,3.5,0,0,1,22.227-3.35,3.5,3.5,0,0,1,21.162-.781,3.5,3.5,0,0,1,18.594.283,3.5,3.5,0,0,1,16.025-.781,3.5,3.5,0,0,1,14.961-3.35ZM6.533-7.891a3.5,3.5,0,0,1-1.064-2.568,3.5,3.5,0,0,1,1.064-2.568A3.5,3.5,0,0,1,9.1-14.092a3.5,3.5,0,0,1,2.568,1.064,3.5,3.5,0,0,1,1.064,2.568,3.508,3.508,0,0,1-1.06,2.568A3.5,3.5,0,0,1,9.1-6.826,3.5,3.5,0,0,1,6.533-7.891Zm4.1,8.262H9.121l7.92-14.531h1.484ZM17.5-2.256a1.473,1.473,0,0,0,1.094.459,1.5,1.5,0,0,0,1.1-.454,1.5,1.5,0,0,0,.454-1.1,1.5,1.5,0,0,0-.454-1.1,1.5,1.5,0,0,0-1.1-.454,1.5,1.5,0,0,0-1.1.454,1.5,1.5,0,0,0-.454,1.1A1.473,1.473,0,0,0,17.5-2.256ZM8.008-9.365A1.473,1.473,0,0,0,9.1-8.906a1.5,1.5,0,0,0,1.1-.454,1.5,1.5,0,0,0,.454-1.1,1.5,1.5,0,0,0-.454-1.1,1.5,1.5,0,0,0-1.1-.454,1.5,1.5,0,0,0-1.1.454,1.5,1.5,0,0,0-.454,1.1A1.473,1.473,0,0,0,8.008-9.365Z" transform="translate(877.449 3781.892)" fill="#333"/>
    <path id="パス_559" data-name="パス 559" d="M-20.786,0h-2.852V-9.766h-3.33V-11.66a12.337,12.337,0,0,0,1.846-.176,2.6,2.6,0,0,0,1.367-.742,2.444,2.444,0,0,0,.547-1.016,2.331,2.331,0,0,0,.107-.566h2.314Zm5.3-.889A4.185,4.185,0,0,1-16.7-3.926a4.337,4.337,0,0,1,.542-2.158,3.433,3.433,0,0,1,1.587-1.455,3.3,3.3,0,0,1-1.333-1.479,4.145,4.145,0,0,1-.308-1.489,3.476,3.476,0,0,1,1.162-2.632,4.616,4.616,0,0,1,3.281-1.089A4.616,4.616,0,0,1-8.491-13.14a3.476,3.476,0,0,1,1.162,2.632,4.145,4.145,0,0,1-.308,1.489A2.844,2.844,0,0,1-8.97-7.637,3.924,3.924,0,0,1-7.4-6.084,4.432,4.432,0,0,1-6.87-3.926,4.037,4.037,0,0,1-8.193-.884,5.158,5.158,0,0,1-11.89.371,4.782,4.782,0,0,1-15.483-.889Zm1.67-3.223a2.274,2.274,0,0,0,.542,1.621,1.958,1.958,0,0,0,1.5.576,1.958,1.958,0,0,0,1.5-.576,2.274,2.274,0,0,0,.542-1.621,2.254,2.254,0,0,0-.552-1.646,1.993,1.993,0,0,0-1.489-.562,1.993,1.993,0,0,0-1.489.562A2.254,2.254,0,0,0-13.813-4.111Zm.732-4.824a1.728,1.728,0,0,0,1.309.488,1.725,1.725,0,0,0,1.313-.488A1.754,1.754,0,0,0-10-10.2a1.8,1.8,0,0,0-.464-1.313,1.755,1.755,0,0,0-1.313-.474,1.775,1.775,0,0,0-1.313.474A1.775,1.775,0,0,0-13.56-10.2,1.724,1.724,0,0,0-13.081-8.936ZM-4.858-2.91H-1.9V0H-4.858ZM5.562-9.189A4.06,4.06,0,0,1,8.652-7.91,4.578,4.578,0,0,1,9.858-4.639a5.522,5.522,0,0,1-1.182,3.5A4.369,4.369,0,0,1,5,.371,4.226,4.226,0,0,1,1.06-1.865,9.119,9.119,0,0,1,.073-6.377,20.516,20.516,0,0,1,.21-9.014a8.063,8.063,0,0,1,.947-3.008,4.847,4.847,0,0,1,1.587-1.65A4.28,4.28,0,0,1,5.093-14.3a4.649,4.649,0,0,1,3.145,1.011A3.843,3.843,0,0,1,9.556-10.6H6.782a1.42,1.42,0,0,0-.264-.752,1.528,1.528,0,0,0-1.357-.664,2.007,2.007,0,0,0-1.934,1.523,9.454,9.454,0,0,0-.43,2.48,3.124,3.124,0,0,1,1.2-.9A4.053,4.053,0,0,1,5.562-9.189ZM3.687-6.533a2.432,2.432,0,0,0-.82,2.051,2.777,2.777,0,0,0,.615,1.865,1.963,1.963,0,0,0,1.563.723,1.735,1.735,0,0,0,1.46-.7A2.907,2.907,0,0,0,7.036-4.4a2.711,2.711,0,0,0-.605-1.9,1.938,1.938,0,0,0-1.484-.659A1.982,1.982,0,0,0,3.687-6.533ZM20.522-3.35a3.511,3.511,0,0,1,1.064-2.578,3.516,3.516,0,0,1,2.568-1.055,3.5,3.5,0,0,1,2.568,1.064A3.5,3.5,0,0,1,27.788-3.35,3.5,3.5,0,0,1,26.724-.781,3.5,3.5,0,0,1,24.155.283,3.5,3.5,0,0,1,21.587-.781,3.5,3.5,0,0,1,20.522-3.35ZM12.095-7.891a3.5,3.5,0,0,1-1.064-2.568,3.5,3.5,0,0,1,1.064-2.568,3.5,3.5,0,0,1,2.568-1.064,3.5,3.5,0,0,1,2.568,1.064A3.5,3.5,0,0,1,18.3-10.459a3.508,3.508,0,0,1-1.06,2.568,3.5,3.5,0,0,1-2.573,1.064A3.5,3.5,0,0,1,12.095-7.891ZM16.2.371H14.683L22.6-14.16h1.484Zm6.865-2.627a1.473,1.473,0,0,0,1.094.459,1.5,1.5,0,0,0,1.1-.454,1.5,1.5,0,0,0,.454-1.1,1.5,1.5,0,0,0-.454-1.1,1.5,1.5,0,0,0-1.1-.454,1.5,1.5,0,0,0-1.1.454,1.5,1.5,0,0,0-.454,1.1A1.473,1.473,0,0,0,23.062-2.256ZM13.569-9.365a1.473,1.473,0,0,0,1.094.459,1.5,1.5,0,0,0,1.1-.454,1.5,1.5,0,0,0,.454-1.1,1.5,1.5,0,0,0-.454-1.1,1.5,1.5,0,0,0-1.1-.454,1.5,1.5,0,0,0-1.1.454,1.5,1.5,0,0,0-.454,1.1A1.473,1.473,0,0,0,13.569-9.365Z" transform="translate(1026.215 3721.299)" fill="#333"/>
    <path id="パス_558" data-name="パス 558" d="M-26.606-.889a4.185,4.185,0,0,1-1.221-3.037,4.337,4.337,0,0,1,.542-2.158A3.433,3.433,0,0,1-25.7-7.539a3.3,3.3,0,0,1-1.333-1.479,4.145,4.145,0,0,1-.308-1.489,3.476,3.476,0,0,1,1.162-2.632A4.616,4.616,0,0,1-22.9-14.229a4.616,4.616,0,0,1,3.281,1.089,3.476,3.476,0,0,1,1.162,2.632,4.145,4.145,0,0,1-.308,1.489,2.844,2.844,0,0,1-1.333,1.382,3.924,3.924,0,0,1,1.572,1.553,4.432,4.432,0,0,1,.527,2.158A4.037,4.037,0,0,1-19.316-.884a5.158,5.158,0,0,1-3.7,1.255A4.782,4.782,0,0,1-26.606-.889Zm1.67-3.223a2.274,2.274,0,0,0,.542,1.621,1.958,1.958,0,0,0,1.5.576,1.958,1.958,0,0,0,1.5-.576,2.274,2.274,0,0,0,.542-1.621,2.254,2.254,0,0,0-.552-1.646A1.993,1.993,0,0,0-22.9-6.318a1.993,1.993,0,0,0-1.489.562A2.254,2.254,0,0,0-24.937-4.111Zm.732-4.824a1.728,1.728,0,0,0,1.309.488,1.725,1.725,0,0,0,1.313-.488,1.754,1.754,0,0,0,.464-1.26,1.8,1.8,0,0,0-.464-1.313,1.755,1.755,0,0,0-1.313-.474,1.775,1.775,0,0,0-1.313.474,1.775,1.775,0,0,0-.474,1.313A1.724,1.724,0,0,0-24.2-8.936ZM-11.724.352a4.006,4.006,0,0,1-3.794-1.895,10.96,10.96,0,0,1-1.089-5.4,11.019,11.019,0,0,1,1.089-5.41,4,4,0,0,1,3.794-1.9,4.012,4.012,0,0,1,3.8,1.9,11.061,11.061,0,0,1,1.084,5.41,10.96,10.96,0,0,1-1.089,5.4A4.006,4.006,0,0,1-11.724.352Zm1.631-3.564a13.932,13.932,0,0,0,.381-3.73,13.666,13.666,0,0,0-.386-3.789,1.576,1.576,0,0,0-1.626-1.23,1.6,1.6,0,0,0-1.641,1.23,13.189,13.189,0,0,0-.4,3.789,13.338,13.338,0,0,0,.4,3.735,1.612,1.612,0,0,0,1.641,1.294A1.6,1.6,0,0,0-10.093-3.213Zm5.234.3H-1.9V0H-4.858ZM9.907-5.225v2.178h-1.6V0H5.581V-3.047H-.024V-5.479l5.205-8.594H8.306v8.848Zm-7.871,0H5.581v-6.113ZM20.522-3.35a3.511,3.511,0,0,1,1.064-2.578,3.516,3.516,0,0,1,2.568-1.055,3.5,3.5,0,0,1,2.568,1.064A3.5,3.5,0,0,1,27.788-3.35,3.5,3.5,0,0,1,26.724-.781,3.5,3.5,0,0,1,24.155.283,3.5,3.5,0,0,1,21.587-.781,3.5,3.5,0,0,1,20.522-3.35ZM12.095-7.891a3.5,3.5,0,0,1-1.064-2.568,3.5,3.5,0,0,1,1.064-2.568,3.5,3.5,0,0,1,2.568-1.064,3.5,3.5,0,0,1,2.568,1.064A3.5,3.5,0,0,1,18.3-10.459a3.508,3.508,0,0,1-1.06,2.568,3.5,3.5,0,0,1-2.573,1.064A3.5,3.5,0,0,1,12.095-7.891ZM16.2.371H14.683L22.6-14.16h1.484Zm6.865-2.627a1.473,1.473,0,0,0,1.094.459,1.5,1.5,0,0,0,1.1-.454,1.5,1.5,0,0,0,.454-1.1,1.5,1.5,0,0,0-.454-1.1,1.5,1.5,0,0,0-1.1-.454,1.5,1.5,0,0,0-1.1.454,1.5,1.5,0,0,0-.454,1.1A1.473,1.473,0,0,0,23.062-2.256ZM13.569-9.365a1.473,1.473,0,0,0,1.094.459,1.5,1.5,0,0,0,1.1-.454,1.5,1.5,0,0,0,.454-1.1,1.5,1.5,0,0,0-.454-1.1,1.5,1.5,0,0,0-1.1-.454,1.5,1.5,0,0,0-1.1.454,1.5,1.5,0,0,0-.454,1.1A1.473,1.473,0,0,0,13.569-9.365Z" transform="translate(544.916 3460.816)" fill="#333"/>
    <path id="パス_557" data-name="パス 557" d="M-19.546-9.609a19.534,19.534,0,0,0-1.865,3.262,19.386,19.386,0,0,0-1.074,3.223A13.381,13.381,0,0,0-22.964,0h-2.891a17.018,17.018,0,0,1,2.5-7.92,18.706,18.706,0,0,1,2.568-3.555h-7.061l.039-2.5h10V-11.8A17.694,17.694,0,0,0-19.546-9.609Zm11.123,0a19.534,19.534,0,0,0-1.865,3.262,19.386,19.386,0,0,0-1.074,3.223A13.381,13.381,0,0,0-11.841,0h-2.891a17.018,17.018,0,0,1,2.5-7.92,18.706,18.706,0,0,1,2.568-3.555h-7.061l.039-2.5h10V-11.8A17.694,17.694,0,0,0-8.423-9.609Zm3.564,6.7H-1.9V0H-4.858Zm13.115-6.7A19.534,19.534,0,0,0,6.392-6.348,19.386,19.386,0,0,0,5.317-3.125,13.381,13.381,0,0,0,4.839,0H1.948a17.018,17.018,0,0,1,2.5-7.92,18.706,18.706,0,0,1,2.568-3.555H-.044L0-13.975H10V-11.8A17.694,17.694,0,0,0,8.257-9.609ZM20.522-3.35a3.511,3.511,0,0,1,1.064-2.578,3.516,3.516,0,0,1,2.568-1.055,3.5,3.5,0,0,1,2.568,1.064A3.5,3.5,0,0,1,27.788-3.35,3.5,3.5,0,0,1,26.724-.781,3.5,3.5,0,0,1,24.155.283,3.5,3.5,0,0,1,21.587-.781,3.5,3.5,0,0,1,20.522-3.35ZM12.095-7.891a3.5,3.5,0,0,1-1.064-2.568,3.5,3.5,0,0,1,1.064-2.568,3.5,3.5,0,0,1,2.568-1.064,3.5,3.5,0,0,1,2.568,1.064A3.5,3.5,0,0,1,18.3-10.459a3.508,3.508,0,0,1-1.06,2.568,3.5,3.5,0,0,1-2.573,1.064A3.5,3.5,0,0,1,12.095-7.891ZM16.2.371H14.683L22.6-14.16h1.484Zm6.865-2.627a1.473,1.473,0,0,0,1.094.459,1.5,1.5,0,0,0,1.1-.454,1.5,1.5,0,0,0,.454-1.1,1.5,1.5,0,0,0-.454-1.1,1.5,1.5,0,0,0-1.1-.454,1.5,1.5,0,0,0-1.1.454,1.5,1.5,0,0,0-.454,1.1A1.473,1.473,0,0,0,23.062-2.256ZM13.569-9.365a1.473,1.473,0,0,0,1.094.459,1.5,1.5,0,0,0,1.1-.454,1.5,1.5,0,0,0,.454-1.1,1.5,1.5,0,0,0-.454-1.1,1.5,1.5,0,0,0-1.1-.454,1.5,1.5,0,0,0-1.1.454,1.5,1.5,0,0,0-.454,1.1A1.473,1.473,0,0,0,13.569-9.365Z" transform="translate(694.229 3494.76)" fill="#333"/>
    <path id="パス_556" data-name="パス 556" d="M-22.241-9.189A4.06,4.06,0,0,1-19.15-7.91a4.577,4.577,0,0,1,1.206,3.271,5.522,5.522,0,0,1-1.182,3.5A4.369,4.369,0,0,1-22.8.371a4.226,4.226,0,0,1-3.945-2.236,9.119,9.119,0,0,1-.986-4.512,20.516,20.516,0,0,1,.137-2.637,8.063,8.063,0,0,1,.947-3.008,4.847,4.847,0,0,1,1.587-1.65A4.28,4.28,0,0,1-22.71-14.3a4.649,4.649,0,0,1,3.145,1.011,3.843,3.843,0,0,1,1.318,2.69h-2.773a1.42,1.42,0,0,0-.264-.752,1.528,1.528,0,0,0-1.357-.664,2.007,2.007,0,0,0-1.934,1.523A9.454,9.454,0,0,0-25-8.008a3.124,3.124,0,0,1,1.2-.9A4.053,4.053,0,0,1-22.241-9.189Zm-1.875,2.656a2.432,2.432,0,0,0-.82,2.051,2.777,2.777,0,0,0,.615,1.865,1.963,1.963,0,0,0,1.563.723,1.735,1.735,0,0,0,1.46-.7A2.907,2.907,0,0,0-20.767-4.4a2.711,2.711,0,0,0-.605-1.9,1.938,1.938,0,0,0-1.484-.659A1.982,1.982,0,0,0-24.116-6.533Zm13-2.656A4.06,4.06,0,0,1-8.027-7.91,4.578,4.578,0,0,1-6.821-4.639,5.522,5.522,0,0,1-8-1.143,4.369,4.369,0,0,1-11.675.371,4.226,4.226,0,0,1-15.62-1.865a9.119,9.119,0,0,1-.986-4.512,20.516,20.516,0,0,1,.137-2.637,8.063,8.063,0,0,1,.947-3.008,4.847,4.847,0,0,1,1.587-1.65,4.28,4.28,0,0,1,2.349-.625,4.649,4.649,0,0,1,3.145,1.011A3.843,3.843,0,0,1-7.124-10.6H-9.9a1.42,1.42,0,0,0-.264-.752,1.528,1.528,0,0,0-1.357-.664,2.007,2.007,0,0,0-1.934,1.523,9.454,9.454,0,0,0-.43,2.48,3.124,3.124,0,0,1,1.2-.9A4.053,4.053,0,0,1-11.118-9.189Zm-1.875,2.656a2.432,2.432,0,0,0-.82,2.051A2.777,2.777,0,0,0-13.2-2.617a1.963,1.963,0,0,0,1.563.723,1.735,1.735,0,0,0,1.46-.7A2.907,2.907,0,0,0-9.644-4.4a2.711,2.711,0,0,0-.605-1.9,1.938,1.938,0,0,0-1.484-.659A1.982,1.982,0,0,0-12.993-6.533ZM-4.858-2.91H-1.9V0H-4.858ZM9.907-5.225v2.178h-1.6V0H5.581V-3.047H-.024V-5.479l5.205-8.594H8.306v8.848Zm-7.871,0H5.581v-6.113ZM20.522-3.35a3.511,3.511,0,0,1,1.064-2.578,3.516,3.516,0,0,1,2.568-1.055,3.5,3.5,0,0,1,2.568,1.064A3.5,3.5,0,0,1,27.788-3.35,3.5,3.5,0,0,1,26.724-.781,3.5,3.5,0,0,1,24.155.283,3.5,3.5,0,0,1,21.587-.781,3.5,3.5,0,0,1,20.522-3.35ZM12.095-7.891a3.5,3.5,0,0,1-1.064-2.568,3.5,3.5,0,0,1,1.064-2.568,3.5,3.5,0,0,1,2.568-1.064,3.5,3.5,0,0,1,2.568,1.064A3.5,3.5,0,0,1,18.3-10.459a3.508,3.508,0,0,1-1.06,2.568,3.5,3.5,0,0,1-2.573,1.064A3.5,3.5,0,0,1,12.095-7.891ZM16.2.371H14.683L22.6-14.16h1.484Zm6.865-2.627a1.473,1.473,0,0,0,1.094.459,1.5,1.5,0,0,0,1.1-.454,1.5,1.5,0,0,0,.454-1.1,1.5,1.5,0,0,0-.454-1.1,1.5,1.5,0,0,0-1.1-.454,1.5,1.5,0,0,0-1.1.454,1.5,1.5,0,0,0-.454,1.1A1.473,1.473,0,0,0,23.062-2.256ZM13.569-9.365a1.473,1.473,0,0,0,1.094.459,1.5,1.5,0,0,0,1.1-.454,1.5,1.5,0,0,0,.454-1.1,1.5,1.5,0,0,0-.454-1.1,1.5,1.5,0,0,0-1.1-.454,1.5,1.5,0,0,0-1.1.454,1.5,1.5,0,0,0-.454,1.1A1.473,1.473,0,0,0,13.569-9.365Z" transform="translate(842.449 3518.358)" fill="#333"/>
    <path id="パス_555" data-name="パス 555" d="M-23.159.41a4.681,4.681,0,0,1-2.861-.942,3.715,3.715,0,0,1-1.455-2.749H-24.7a1.676,1.676,0,0,0,.527,1.016,1.633,1.633,0,0,0,1.143.391A1.986,1.986,0,0,0-21.1-3.4a8.888,8.888,0,0,0,.381-2.451,3.01,3.01,0,0,1-.811.732,3.679,3.679,0,0,1-1.924.469,4.375,4.375,0,0,1-3-1.167A4.272,4.272,0,0,1-27.759-9.18a5.194,5.194,0,0,1,1.313-3.687,4.449,4.449,0,0,1,3.413-1.411A4.409,4.409,0,0,1-18.6-11.416a11.141,11.141,0,0,1,.684,4.268,12.144,12.144,0,0,1-.654,4.287A4.581,4.581,0,0,1-23.159.41Zm-.977-11.963a2.531,2.531,0,0,0-.8,2.119,2.948,2.948,0,0,0,.513,1.89,1.914,1.914,0,0,0,1.577.63,1.946,1.946,0,0,0,1.084-.332,2.3,2.3,0,0,0,.947-2.1,2.968,2.968,0,0,0-.562-1.9,1.862,1.862,0,0,0-1.538-.7A1.911,1.911,0,0,0-24.136-11.553ZM-9.663,0h-2.852V-9.766h-3.33V-11.66A12.337,12.337,0,0,0-14-11.836a2.6,2.6,0,0,0,1.367-.742,2.444,2.444,0,0,0,.547-1.016,2.331,2.331,0,0,0,.107-.566h2.314Zm4.8-2.91H-1.9V0H-4.858ZM4.644.41A4.681,4.681,0,0,1,1.782-.532,3.715,3.715,0,0,1,.327-3.281H3.1a1.676,1.676,0,0,0,.527,1.016,1.633,1.633,0,0,0,1.143.391A1.986,1.986,0,0,0,6.7-3.4,8.888,8.888,0,0,0,7.085-5.85a3.01,3.01,0,0,1-.811.732,3.679,3.679,0,0,1-1.924.469,4.375,4.375,0,0,1-3-1.167A4.272,4.272,0,0,1,.044-9.18a5.194,5.194,0,0,1,1.313-3.687,4.449,4.449,0,0,1,3.413-1.411A4.409,4.409,0,0,1,9.2-11.416a11.141,11.141,0,0,1,.684,4.268,12.144,12.144,0,0,1-.654,4.287A4.581,4.581,0,0,1,4.644.41ZM3.667-11.553a2.531,2.531,0,0,0-.8,2.119,2.948,2.948,0,0,0,.513,1.89,1.914,1.914,0,0,0,1.577.63A1.946,1.946,0,0,0,6.04-7.246a2.3,2.3,0,0,0,.947-2.1,2.968,2.968,0,0,0-.562-1.9,1.862,1.862,0,0,0-1.538-.7A1.911,1.911,0,0,0,3.667-11.553Zm16.855,8.2a3.511,3.511,0,0,1,1.064-2.578,3.516,3.516,0,0,1,2.568-1.055,3.5,3.5,0,0,1,2.568,1.064A3.5,3.5,0,0,1,27.788-3.35,3.5,3.5,0,0,1,26.724-.781,3.5,3.5,0,0,1,24.155.283,3.5,3.5,0,0,1,21.587-.781,3.5,3.5,0,0,1,20.522-3.35ZM12.095-7.891a3.5,3.5,0,0,1-1.064-2.568,3.5,3.5,0,0,1,1.064-2.568,3.5,3.5,0,0,1,2.568-1.064,3.5,3.5,0,0,1,2.568,1.064A3.5,3.5,0,0,1,18.3-10.459a3.508,3.508,0,0,1-1.06,2.568,3.5,3.5,0,0,1-2.573,1.064A3.5,3.5,0,0,1,12.095-7.891ZM16.2.371H14.683L22.6-14.16h1.484Zm6.865-2.627a1.473,1.473,0,0,0,1.094.459,1.5,1.5,0,0,0,1.1-.454,1.5,1.5,0,0,0,.454-1.1,1.5,1.5,0,0,0-.454-1.1,1.5,1.5,0,0,0-1.1-.454,1.5,1.5,0,0,0-1.1.454,1.5,1.5,0,0,0-.454,1.1A1.473,1.473,0,0,0,23.062-2.256ZM13.569-9.365a1.473,1.473,0,0,0,1.094.459,1.5,1.5,0,0,0,1.1-.454,1.5,1.5,0,0,0,.454-1.1,1.5,1.5,0,0,0-.454-1.1,1.5,1.5,0,0,0-1.1-.454,1.5,1.5,0,0,0-1.1.454,1.5,1.5,0,0,0-.454,1.1A1.473,1.473,0,0,0,13.569-9.365Z" transform="translate(991.215 3430.226)" fill="#333"/>
    <path id="パス_554" data-name="パス 554" d="M-.054.352A4.006,4.006,0,0,1-3.848-1.543a10.96,10.96,0,0,1-1.089-5.4,11.019,11.019,0,0,1,1.089-5.41,4,4,0,0,1,3.794-1.9,4.012,4.012,0,0,1,3.8,1.9,11.061,11.061,0,0,1,1.084,5.41,10.96,10.96,0,0,1-1.089,5.4A4.006,4.006,0,0,1-.054.352ZM1.577-3.213a13.932,13.932,0,0,0,.381-3.73,13.666,13.666,0,0,0-.386-3.789,1.576,1.576,0,0,0-1.626-1.23,1.6,1.6,0,0,0-1.641,1.23,13.189,13.189,0,0,0-.4,3.789,13.338,13.338,0,0,0,.4,3.735A1.612,1.612,0,0,0-.054-1.914,1.6,1.6,0,0,0,1.577-3.213Z" transform="translate(293.182 3795.292)" fill="#333"/>
    <path id="パス_553" data-name="パス 553" d="M-4.17-11.279a1.754,1.754,0,0,0-1.426-.6,1.739,1.739,0,0,0-1.729.947,4.7,4.7,0,0,0-.312,1.738h-2.705a6.841,6.841,0,0,1,.654-2.92,4.075,4.075,0,0,1,3.955-2.119,5.015,5.015,0,0,1,3.574,1.245A4.305,4.305,0,0,1-.83-9.687a4.462,4.462,0,0,1-.937,2.793A9.34,9.34,0,0,1-3.789-5.088L-4.9-4.3q-1.045.742-1.431,1.074a3.148,3.148,0,0,0-.649.771H-.8V0h-9.7a6.654,6.654,0,0,1,.654-2.783,7.869,7.869,0,0,1,2.813-3,20.625,20.625,0,0,0,2.49-1.973,2.915,2.915,0,0,0,.869-2.031A2.25,2.25,0,0,0-4.17-11.279ZM5.508.352A4.006,4.006,0,0,1,1.714-1.543a10.96,10.96,0,0,1-1.089-5.4,11.019,11.019,0,0,1,1.089-5.41,4,4,0,0,1,3.794-1.9,4.012,4.012,0,0,1,3.8,1.9,11.061,11.061,0,0,1,1.084,5.41A10.96,10.96,0,0,1,9.3-1.543,4.006,4.006,0,0,1,5.508.352ZM7.139-3.213a13.932,13.932,0,0,0,.381-3.73,13.666,13.666,0,0,0-.386-3.789,1.576,1.576,0,0,0-1.626-1.23,1.6,1.6,0,0,0-1.641,1.23,13.189,13.189,0,0,0-.4,3.789,13.338,13.338,0,0,0,.4,3.735A1.612,1.612,0,0,0,5.508-1.914,1.6,1.6,0,0,0,7.139-3.213Z" transform="translate(294.152 3719.031)" fill="#333"/>
    <path id="パス_552" data-name="パス 552" d="M-.664-5.225v2.178h-1.6V0H-4.99V-3.047H-10.6V-5.479l5.205-8.594h3.125v8.848Zm-7.871,0H-4.99v-6.113ZM5.508.352A4.006,4.006,0,0,1,1.714-1.543a10.96,10.96,0,0,1-1.089-5.4,11.019,11.019,0,0,1,1.089-5.41,4,4,0,0,1,3.794-1.9,4.012,4.012,0,0,1,3.8,1.9,11.061,11.061,0,0,1,1.084,5.41A10.96,10.96,0,0,1,9.3-1.543,4.006,4.006,0,0,1,5.508.352ZM7.139-3.213a13.932,13.932,0,0,0,.381-3.73,13.666,13.666,0,0,0-.386-3.789,1.576,1.576,0,0,0-1.626-1.23,1.6,1.6,0,0,0-1.641,1.23,13.189,13.189,0,0,0-.4,3.789,13.338,13.338,0,0,0,.4,3.735A1.612,1.612,0,0,0,5.508-1.914,1.6,1.6,0,0,0,7.139-3.213Z" transform="translate(294.152 3642.772)" fill="#333"/>
    <path id="パス_551" data-name="パス 551" d="M-5.01-9.189A4.06,4.06,0,0,1-1.919-7.91,4.578,4.578,0,0,1-.713-4.639a5.522,5.522,0,0,1-1.182,3.5A4.369,4.369,0,0,1-5.566.371,4.226,4.226,0,0,1-9.512-1.865,9.119,9.119,0,0,1-10.5-6.377a20.517,20.517,0,0,1,.137-2.637,8.063,8.063,0,0,1,.947-3.008,4.847,4.847,0,0,1,1.587-1.65A4.28,4.28,0,0,1-5.479-14.3a4.649,4.649,0,0,1,3.145,1.011A3.843,3.843,0,0,1-1.016-10.6H-3.789a1.42,1.42,0,0,0-.264-.752,1.528,1.528,0,0,0-1.357-.664,2.007,2.007,0,0,0-1.934,1.523,9.454,9.454,0,0,0-.43,2.48,3.124,3.124,0,0,1,1.2-.9A4.053,4.053,0,0,1-5.01-9.189ZM-6.885-6.533a2.432,2.432,0,0,0-.82,2.051A2.777,2.777,0,0,0-7.09-2.617a1.963,1.963,0,0,0,1.563.723,1.735,1.735,0,0,0,1.46-.7A2.907,2.907,0,0,0-3.535-4.4a2.711,2.711,0,0,0-.605-1.9,1.938,1.938,0,0,0-1.484-.659A1.982,1.982,0,0,0-6.885-6.533ZM5.508.352A4.006,4.006,0,0,1,1.714-1.543a10.96,10.96,0,0,1-1.089-5.4,11.019,11.019,0,0,1,1.089-5.41,4,4,0,0,1,3.794-1.9,4.012,4.012,0,0,1,3.8,1.9,11.061,11.061,0,0,1,1.084,5.41A10.96,10.96,0,0,1,9.3-1.543,4.006,4.006,0,0,1,5.508.352ZM7.139-3.213a13.932,13.932,0,0,0,.381-3.73,13.666,13.666,0,0,0-.386-3.789,1.576,1.576,0,0,0-1.626-1.23,1.6,1.6,0,0,0-1.641,1.23,13.189,13.189,0,0,0-.4,3.789,13.338,13.338,0,0,0,.4,3.735A1.612,1.612,0,0,0,5.508-1.914,1.6,1.6,0,0,0,7.139-3.213Z" transform="translate(294.152 3566.512)" fill="#333"/>
    <path id="パス_550" data-name="パス 550" d="M-9.375-.889A4.185,4.185,0,0,1-10.6-3.926a4.337,4.337,0,0,1,.542-2.158A3.433,3.433,0,0,1-8.467-7.539,3.3,3.3,0,0,1-9.8-9.019a4.145,4.145,0,0,1-.308-1.489A3.476,3.476,0,0,1-8.945-13.14a4.616,4.616,0,0,1,3.281-1.089A4.616,4.616,0,0,1-2.383-13.14a3.476,3.476,0,0,1,1.162,2.632,4.145,4.145,0,0,1-.308,1.489A2.844,2.844,0,0,1-2.861-7.637,3.924,3.924,0,0,1-1.289-6.084,4.432,4.432,0,0,1-.762-3.926,4.037,4.037,0,0,1-2.085-.884,5.158,5.158,0,0,1-5.781.371,4.782,4.782,0,0,1-9.375-.889Zm1.67-3.223A2.274,2.274,0,0,0-7.163-2.49a1.958,1.958,0,0,0,1.5.576,1.958,1.958,0,0,0,1.5-.576,2.274,2.274,0,0,0,.542-1.621,2.254,2.254,0,0,0-.552-1.646,1.993,1.993,0,0,0-1.489-.562,1.993,1.993,0,0,0-1.489.562A2.254,2.254,0,0,0-7.705-4.111Zm.732-4.824a1.728,1.728,0,0,0,1.309.488,1.725,1.725,0,0,0,1.313-.488,1.754,1.754,0,0,0,.464-1.26,1.8,1.8,0,0,0-.464-1.313,1.755,1.755,0,0,0-1.313-.474,1.775,1.775,0,0,0-1.313.474A1.775,1.775,0,0,0-7.451-10.2,1.724,1.724,0,0,0-6.973-8.936ZM5.508.352A4.006,4.006,0,0,1,1.714-1.543a10.96,10.96,0,0,1-1.089-5.4,11.019,11.019,0,0,1,1.089-5.41,4,4,0,0,1,3.794-1.9,4.012,4.012,0,0,1,3.8,1.9,11.061,11.061,0,0,1,1.084,5.41A10.96,10.96,0,0,1,9.3-1.543,4.006,4.006,0,0,1,5.508.352ZM7.139-3.213a13.932,13.932,0,0,0,.381-3.73,13.666,13.666,0,0,0-.386-3.789,1.576,1.576,0,0,0-1.626-1.23,1.6,1.6,0,0,0-1.641,1.23,13.189,13.189,0,0,0-.4,3.789,13.338,13.338,0,0,0,.4,3.735A1.612,1.612,0,0,0,5.508-1.914,1.6,1.6,0,0,0,7.139-3.213Z" transform="translate(294.152 3490.252)" fill="#333"/>
    <path id="パス_549" data-name="パス 549" d="M-8.957,3.227l-.555-.758A10.154,10.154,0,0,1-10.66.422a11.657,11.657,0,0,1-1.086-4.781,10.606,10.606,0,0,1,.914-4.25,16.747,16.747,0,0,1,1.8-3.094h1.68l-.477.875A13.029,13.029,0,0,0-9.191-7.047a14.959,14.959,0,0,0-.25,2.828,13.362,13.362,0,0,0,.7,4.4A20.065,20.065,0,0,0-7.309,3.227ZM.848-2.68A2.809,2.809,0,0,1,1.7-4.742a2.813,2.813,0,0,1,2.055-.844,2.8,2.8,0,0,1,2.055.852A2.8,2.8,0,0,1,6.66-2.68,2.8,2.8,0,0,1,5.809-.625,2.8,2.8,0,0,1,3.754.227,2.8,2.8,0,0,1,1.7-.625,2.8,2.8,0,0,1,.848-2.68ZM-5.895-6.312a2.8,2.8,0,0,1-.852-2.055,2.8,2.8,0,0,1,.852-2.055,2.8,2.8,0,0,1,2.055-.852,2.8,2.8,0,0,1,2.055.852A2.8,2.8,0,0,1-.934-8.367a2.806,2.806,0,0,1-.848,2.055,2.8,2.8,0,0,1-2.059.852A2.8,2.8,0,0,1-5.895-6.312ZM-2.613.3H-3.824L2.512-11.328H3.7ZM2.879-1.8a1.178,1.178,0,0,0,.875.367A1.2,1.2,0,0,0,4.633-1.8,1.2,1.2,0,0,0,5-2.68a1.2,1.2,0,0,0-.363-.879,1.2,1.2,0,0,0-.879-.363,1.2,1.2,0,0,0-.879.363,1.2,1.2,0,0,0-.363.879A1.178,1.178,0,0,0,2.879-1.8ZM-4.715-7.492a1.178,1.178,0,0,0,.875.367,1.2,1.2,0,0,0,.879-.363A1.2,1.2,0,0,0-2.6-8.367a1.2,1.2,0,0,0-.363-.879,1.2,1.2,0,0,0-.879-.363,1.2,1.2,0,0,0-.879.363,1.2,1.2,0,0,0-.363.879A1.178,1.178,0,0,0-4.715-7.492ZM9.48,2.469l-.555.758H7.277A20.065,20.065,0,0,0,8.715.18a13.362,13.362,0,0,0,.7-4.4,14.959,14.959,0,0,0-.25-2.828,13.029,13.029,0,0,0-1.367-3.781L7.316-11.7H9a16.747,16.747,0,0,1,1.8,3.094,10.606,10.606,0,0,1,.914,4.25A11.657,11.657,0,0,1,10.629.422,10.154,10.154,0,0,1,9.48,2.469Z" transform="translate(295.853 3387.919)" fill="#333"/>
    <path id="パス_322" data-name="パス 322" d="M1089.751,3796.292H326.133a1,1,0,0,1-1-1V3397.618a1,1,0,0,1,2,0v396.673h762.618a1,1,0,0,1,0,2Z" fill="#333"/>
    <rect id="長方形_292" data-name="長方形 292" width="24.213" height="24.213" transform="translate(768.576 3363.707)" fill="#fff766"/>
    <path id="パス_548" data-name="パス 548" d="M18.66-1.42c-2.42-2.34-2.42-2.34-2.92-2.78a31,31,0,0,0-3.7-2.9,26.488,26.488,0,0,0,3.12-5.52,3.847,3.847,0,0,1,.64-1.08l-1.32-1.36a4.332,4.332,0,0,1-1.78.22l-7.04.1H5.18a8.752,8.752,0,0,1-1.76-.12L3.5-12.3a15.762,15.762,0,0,1,2.18-.16c6.3-.1,6.3-.1,6.62-.12l-.22.52A19.278,19.278,0,0,1,5.36-3.92a16.512,16.512,0,0,1-4,2.2A8.023,8.023,0,0,1,2.98.5,23.767,23.767,0,0,0,10.6-5.28,38.447,38.447,0,0,1,16.74.66ZM35.88-8.16a19.789,19.789,0,0,1,2.54.1v-2.38a14.206,14.206,0,0,1-2.58.14H24.14a14.077,14.077,0,0,1-2.58-.14v2.38a19.789,19.789,0,0,1,2.54-.1h4.88a8.493,8.493,0,0,1-.88,3.78c-.84,1.54-2.34,2.6-4.74,3.34a6.346,6.346,0,0,1,1.62,2.2c2.7-1.08,4.16-2.18,5.22-3.94a10.86,10.86,0,0,0,1.4-5.38Zm-12.3-4.88a18.841,18.841,0,0,1,2.54-.1h7.76a18.841,18.841,0,0,1,2.54.1v-2.44a13.569,13.569,0,0,1-2.58.14H26.16a13.569,13.569,0,0,1-2.58-.14ZM41.42-6.28a21.956,21.956,0,0,1,3.26-.1H55.3a21.956,21.956,0,0,1,3.26.1V-9.06a19.641,19.641,0,0,1-3.24.14H44.66a19.641,19.641,0,0,1-3.24-.14Zm22.04-7.4a24.213,24.213,0,0,1,5.34,2.74l1.28-2.2a32.935,32.935,0,0,0-5.32-2.58ZM61.88-8.82A23.214,23.214,0,0,1,67.3-5.9l1.24-2.26a31.567,31.567,0,0,0-5.32-2.72Zm11.88-6.6a13.5,13.5,0,0,1,2.1,2.98l1.4-.74a12.961,12.961,0,0,0-2.1-2.94ZM63.02.82a11.809,11.809,0,0,1,1.4-.34C71.58-.92,75.8-4.2,78.28-10.26a9.724,9.724,0,0,1-2.08-1.78,13.756,13.756,0,0,1-8.1,8.82,17.767,17.767,0,0,1-5.78,1.3Zm16.62-15.3a11.566,11.566,0,0,0-2.08-2.82l-1.34.7a14.736,14.736,0,0,1,2.04,2.9Zm16.8,8.72a13.167,13.167,0,0,1-2.02.14h-.7v-6.56a28.15,28.15,0,0,1,.14-3.38h-2.7a19.036,19.036,0,0,1-1.66,2.2l-4.74,5.8c-.7.84-.92,1.1-1.6,1.84v2.46a20.44,20.44,0,0,1,2.5-.1H91.2v1.4A12.757,12.757,0,0,1,91.04.36h2.84a12.523,12.523,0,0,1-.16-2.3v-1.4h.72a12.651,12.651,0,0,1,2,.12Zm-5.22.14h-5.1l3.84-4.74c.72-.88.96-1.2,1.36-1.78a22.633,22.633,0,0,0-.1,2.4Z" transform="translate(962.774 3383.737)" fill="#333"/>
    <rect id="長方形_293" data-name="長方形 293" width="24.213" height="24.213" transform="translate(929.656 3363.707)" fill="#ff8e66"/>
    <path id="パス_323" data-name="パス 323" d="M379.194,3521.837h7.959l9,209.913,9-209.913h7.96c.979,0,1.321-.658.76-1.459l-16.7-23.882a1.165,1.165,0,0,0-2.039,0l-16.7,23.882C377.871,3521.179,378.214,3521.837,379.194,3521.837Z" fill="#e61400"/>
    <g id="グループ_506" data-name="グループ 506">
      <rect id="長方形_294" data-name="長方形 294" width="98.34" height="34.447" rx="17.223" transform="translate(346.979 3596.596)" fill="#e61400"/>
      <path id="パス_573" data-name="パス 573" d="M-25.831,0h-3.45V-11.816H-33.31v-2.292a14.927,14.927,0,0,0,2.233-.213,3.15,3.15,0,0,0,1.654-.9,2.957,2.957,0,0,0,.662-1.229,2.821,2.821,0,0,0,.13-.685h2.8ZM-13.7,0h-3.45V-11.816h-4.029v-2.292a14.927,14.927,0,0,0,2.233-.213,3.15,3.15,0,0,0,1.654-.9,2.957,2.957,0,0,0,.662-1.229,2.821,2.821,0,0,0,.13-.685h2.8Zm5.814-3.521H-4.3V0h-3.58ZM5.743-13.648a2.122,2.122,0,0,0-1.725-.721,2.1,2.1,0,0,0-2.092,1.146,5.685,5.685,0,0,0-.378,2.1H-1.725a8.278,8.278,0,0,1,.792-3.533,4.931,4.931,0,0,1,4.786-2.564A6.068,6.068,0,0,1,8.177-15.71a5.209,5.209,0,0,1,1.607,3.988A5.4,5.4,0,0,1,8.65-8.342,11.3,11.3,0,0,1,6.2-6.156L4.857-5.2q-1.264.9-1.731,1.3a3.809,3.809,0,0,0-.786.933h7.48V0H-1.914a8.051,8.051,0,0,1,.792-3.368A9.521,9.521,0,0,1,2.281-7,24.956,24.956,0,0,0,5.294-9.382,3.528,3.528,0,0,0,6.345-11.84,2.723,2.723,0,0,0,5.743-13.648ZM27.027-17.86v-.75a9.975,9.975,0,0,1,.121-1.694H24.2a12.206,12.206,0,0,1,.121,1.718v.726h-3.17a17.584,17.584,0,0,1-2.614-.121v2.638a13.842,13.842,0,0,1,2.42-.121h1.379l-1.936.678A20.616,20.616,0,0,1,21.751-11.4H19.646a13.017,13.017,0,0,1-2.009-.1v2.614A12.128,12.128,0,0,1,19.718-9H31.576a15.236,15.236,0,0,1,2.468.121v-2.638a21.974,21.974,0,0,1-2.468.121H29.4a24.708,24.708,0,0,0,1.767-3.509l-2.057-.557h1.815a14.53,14.53,0,0,1,2.444.121v-2.638a19.174,19.174,0,0,1-2.662.121ZM22.4-11.4l1.839-.678a21.969,21.969,0,0,0-1.331-3.388h5.566A17.906,17.906,0,0,1,26.712-11.4ZM14.08-.9a22.828,22.828,0,0,1-.145,2.88H16.79a24.23,24.23,0,0,1-.121-2.807V-14.205a33.522,33.522,0,0,0,1.791-4.453c.169-.581.242-.8.387-1.186l-2.662-.774a16.131,16.131,0,0,1-.847,3.073,18.971,18.971,0,0,1-4.09,6.776,10.518,10.518,0,0,1,1.113,2.88,12.04,12.04,0,0,0,1.767-2.4c-.048.992-.048,1.525-.048,2.686ZM21.969.557H29.2V1.815h2.807a14.585,14.585,0,0,1-.121-2.251v-4.84a15.468,15.468,0,0,1,.1-2.081,10.638,10.638,0,0,1-1.791.1H21.219a15.175,15.175,0,0,1-1.936-.1,17.189,17.189,0,0,1,.1,2.009V-.557a20.1,20.1,0,0,1-.121,2.372h2.71Zm0-5.469h7.26v3.1h-7.26Z" transform="translate(396.15 3623.016)" fill="#fff"/>
    </g>
    <path id="パス_324" data-name="パス 324" d="M527.96,3529.434h7.959l9,189.6,9-189.6h7.961c.978,0,1.32-.658.759-1.459l-16.7-23.882a1.165,1.165,0,0,0-2.039,0l-16.7,23.882C526.638,3528.776,526.981,3529.434,527.96,3529.434Z" fill="#e61400"/>
    <g id="グループ_507" data-name="グループ 507">
      <rect id="長方形_295" data-name="長方形 295" width="98.34" height="34.447" rx="17.223" transform="translate(495.746 3604.196)" fill="#e61400"/>
      <path id="パス_574" data-name="パス 574" d="M-8.171-11.627a23.637,23.637,0,0,0-2.257,3.947,23.457,23.457,0,0,0-1.3,3.9A16.192,16.192,0,0,0-12.307,0h-3.5a20.592,20.592,0,0,1,3.025-9.583,22.634,22.634,0,0,1,3.108-4.3h-8.543l.047-3.025h12.1v2.635A21.409,21.409,0,0,0-8.171-11.627ZM10.868-17.86v-.75a9.975,9.975,0,0,1,.121-1.694H8.036a12.206,12.206,0,0,1,.121,1.718v.726H4.987a17.584,17.584,0,0,1-2.614-.121v2.638a13.842,13.842,0,0,1,2.42-.121H6.173l-1.936.678A20.616,20.616,0,0,1,5.592-11.4H3.487a13.017,13.017,0,0,1-2.009-.1v2.614A12.128,12.128,0,0,1,3.559-9H15.417a15.236,15.236,0,0,1,2.468.121v-2.638a21.974,21.974,0,0,1-2.468.121H13.239a24.708,24.708,0,0,0,1.767-3.509l-2.057-.557h1.815a14.53,14.53,0,0,1,2.444.121v-2.638a19.174,19.174,0,0,1-2.662.121ZM6.245-11.4l1.839-.678a21.969,21.969,0,0,0-1.331-3.388H12.32A17.906,17.906,0,0,1,10.553-11.4ZM-2.079-.9a22.828,22.828,0,0,1-.145,2.88H.631A24.23,24.23,0,0,1,.51-.823V-14.205A33.522,33.522,0,0,0,2.3-18.658c.169-.581.242-.8.387-1.186L.026-20.618a16.131,16.131,0,0,1-.847,3.073,18.971,18.971,0,0,1-4.09,6.776A10.518,10.518,0,0,1-3.8-7.889a12.041,12.041,0,0,0,1.767-2.4c-.048.992-.048,1.525-.048,2.686ZM5.81.557h7.236V1.815h2.807a14.585,14.585,0,0,1-.121-2.251v-4.84a15.468,15.468,0,0,1,.1-2.081,10.638,10.638,0,0,1-1.791.1H5.06a15.175,15.175,0,0,1-1.936-.1,17.188,17.188,0,0,1,.1,2.009V-.557A20.1,20.1,0,0,1,3.1,1.815H5.81Zm0-5.469h7.26v3.1H5.81Z" transform="translate(544.917 3630.616)" fill="#fff"/>
    </g>
    <g id="グループ_508" data-name="グループ 508">
      <rect id="長方形_296" data-name="長方形 296" width="98.34" height="34.447" rx="17.223" transform="translate(644.512 3633.721)" fill="#e61400"/>
      <path id="パス_575" data-name="パス 575" d="M-26.492,0h-3.45V-11.816h-4.029v-2.292a14.927,14.927,0,0,0,2.233-.213,3.15,3.15,0,0,0,1.654-.9,2.957,2.957,0,0,0,.662-1.229,2.821,2.821,0,0,0,.13-.685h2.8Zm12.714-13.648a2.122,2.122,0,0,0-1.725-.721,2.1,2.1,0,0,0-2.092,1.146,5.685,5.685,0,0,0-.378,2.1h-3.273a8.278,8.278,0,0,1,.792-3.533,4.931,4.931,0,0,1,4.786-2.564,6.068,6.068,0,0,1,4.325,1.507,5.209,5.209,0,0,1,1.607,3.988,5.4,5.4,0,0,1-1.134,3.379,11.3,11.3,0,0,1-2.446,2.186l-1.347.957q-1.264.9-1.731,1.3a3.809,3.809,0,0,0-.786.933H-9.7V0H-21.435a8.051,8.051,0,0,1,.792-3.368A9.521,9.521,0,0,1-17.24-7a24.956,24.956,0,0,0,3.013-2.387,3.528,3.528,0,0,0,1.052-2.458A2.723,2.723,0,0,0-13.778-13.648ZM-7.22-3.521h3.58V0H-7.22ZM4.278.5A5.664,5.664,0,0,1,.815-.644,4.5,4.5,0,0,1-.945-3.97H2.411a2.027,2.027,0,0,0,.638,1.229,1.976,1.976,0,0,0,1.383.473,2.4,2.4,0,0,0,2.34-1.843,10.755,10.755,0,0,0,.461-2.966,3.642,3.642,0,0,1-.981.886,4.451,4.451,0,0,1-2.328.567A5.294,5.294,0,0,1,.3-7.037a5.169,5.169,0,0,1-1.583-4.071A6.285,6.285,0,0,1,.3-15.568a5.383,5.383,0,0,1,4.13-1.707A5.335,5.335,0,0,1,9.8-13.813a13.481,13.481,0,0,1,.827,5.164,14.694,14.694,0,0,1-.792,5.187A5.543,5.543,0,0,1,4.278.5ZM3.1-13.979a3.063,3.063,0,0,0-.969,2.564,3.567,3.567,0,0,0,.62,2.286,2.316,2.316,0,0,0,1.908.762,2.355,2.355,0,0,0,1.312-.4,2.779,2.779,0,0,0,1.146-2.541,3.591,3.591,0,0,0-.679-2.3,2.253,2.253,0,0,0-1.861-.851A2.313,2.313,0,0,0,3.1-13.979ZM27.688-17.86v-.75a9.975,9.975,0,0,1,.121-1.694H24.857a12.206,12.206,0,0,1,.121,1.718v.726h-3.17a17.584,17.584,0,0,1-2.614-.121v2.638a13.842,13.842,0,0,1,2.42-.121h1.379l-1.936.678A20.616,20.616,0,0,1,22.413-11.4H20.307a13.017,13.017,0,0,1-2.009-.1v2.614A12.128,12.128,0,0,1,20.38-9H32.238a15.237,15.237,0,0,1,2.468.121v-2.638a21.974,21.974,0,0,1-2.468.121H30.06a24.708,24.708,0,0,0,1.767-3.509l-2.057-.557h1.815a14.53,14.53,0,0,1,2.444.121v-2.638a19.174,19.174,0,0,1-2.662.121ZM23.066-11.4l1.839-.678a21.969,21.969,0,0,0-1.331-3.388H29.14A17.906,17.906,0,0,1,27.374-11.4ZM14.741-.9a22.828,22.828,0,0,1-.145,2.88h2.856a24.23,24.23,0,0,1-.121-2.807V-14.205a33.522,33.522,0,0,0,1.791-4.453c.169-.581.242-.8.387-1.186l-2.662-.774A16.131,16.131,0,0,1,16-17.545a18.971,18.971,0,0,1-4.09,6.776,10.518,10.518,0,0,1,1.113,2.88,12.04,12.04,0,0,0,1.767-2.4c-.048.992-.048,1.525-.048,2.686ZM22.63.557h7.236V1.815h2.807a14.585,14.585,0,0,1-.121-2.251v-4.84a15.468,15.468,0,0,1,.1-2.081,10.638,10.638,0,0,1-1.791.1H21.88a15.175,15.175,0,0,1-1.936-.1,17.189,17.189,0,0,1,.1,2.009V-.557a20.1,20.1,0,0,1-.121,2.372h2.71Zm0-5.469h7.26v3.1H22.63Z" transform="translate(693.682 3660.14)" fill="#fff"/>
    </g>
    <path id="パス_325" data-name="パス 325" d="M825.493,3585.379h7.959l9,178.578,9-178.578h7.961c.978,0,1.32-.658.759-1.459l-16.7-23.882a1.165,1.165,0,0,0-2.039,0l-16.7,23.882C824.17,3584.721,824.514,3585.379,825.493,3585.379Z" fill="#e61400"/>
    <path id="パス_326" data-name="パス 326" d="M974.259,3496.982h7.959l9,209.913,9-209.913h7.961c.978,0,1.32-.658.759-1.459l-16.7-23.882a1.165,1.165,0,0,0-2.039,0l-16.7,23.882C972.936,3496.324,973.28,3496.982,974.259,3496.982Z" fill="#e61400"/>
    <g id="グループ_509" data-name="グループ 509">
      <rect id="長方形_297" data-name="長方形 297" width="98.34" height="34.447" rx="17.223" transform="translate(793.279 3660.138)" fill="#e61400"/>
      <path id="パス_576" data-name="パス 576" d="M-18.162-11.119a4.912,4.912,0,0,1,3.74,1.548,5.539,5.539,0,0,1,1.459,3.958,6.682,6.682,0,0,1-1.43,4.23A5.286,5.286,0,0,1-18.835.449a5.113,5.113,0,0,1-4.774-2.706A11.034,11.034,0,0,1-24.8-7.716a24.825,24.825,0,0,1,.165-3.19,9.756,9.756,0,0,1,1.146-3.639,5.864,5.864,0,0,1,1.92-2,5.179,5.179,0,0,1,2.842-.756,5.626,5.626,0,0,1,3.8,1.223,4.65,4.65,0,0,1,1.6,3.255h-3.356a1.718,1.718,0,0,0-.319-.91,1.849,1.849,0,0,0-1.642-.8,2.428,2.428,0,0,0-2.34,1.843,11.439,11.439,0,0,0-.52,3,3.78,3.78,0,0,1,1.453-1.087A4.9,4.9,0,0,1-18.162-11.119Zm-2.269,3.214a2.943,2.943,0,0,0-.993,2.481,3.36,3.36,0,0,0,.744,2.257,2.375,2.375,0,0,0,1.891.874,2.1,2.1,0,0,0,1.767-.845,3.517,3.517,0,0,0,.644-2.192,3.28,3.28,0,0,0-.733-2.3,2.345,2.345,0,0,0-1.8-.8A2.4,2.4,0,0,0-20.431-7.905Zm18.989-3.722A23.637,23.637,0,0,0-3.7-7.681,23.457,23.457,0,0,0-5-3.781,16.192,16.192,0,0,0-5.577,0h-3.5A20.592,20.592,0,0,1-6.05-9.583a22.634,22.634,0,0,1,3.108-4.3h-8.543l.047-3.025H.662v2.635A21.409,21.409,0,0,0-1.442-11.627ZM17.6-17.86v-.75a9.975,9.975,0,0,1,.121-1.694H14.766a12.206,12.206,0,0,1,.121,1.718v.726h-3.17A17.584,17.584,0,0,1,9.1-17.981v2.638a13.842,13.842,0,0,1,2.42-.121H12.9l-1.936.678A20.616,20.616,0,0,1,12.321-11.4H10.216a13.017,13.017,0,0,1-2.009-.1v2.614A12.128,12.128,0,0,1,10.289-9H22.147a15.236,15.236,0,0,1,2.468.121v-2.638a21.974,21.974,0,0,1-2.468.121H19.969a24.708,24.708,0,0,0,1.767-3.509l-2.057-.557h1.815a14.53,14.53,0,0,1,2.444.121v-2.638a19.174,19.174,0,0,1-2.662.121ZM12.975-11.4l1.839-.678a21.969,21.969,0,0,0-1.331-3.388h5.566A17.906,17.906,0,0,1,17.282-11.4ZM4.65-.9A22.828,22.828,0,0,1,4.5,1.984H7.36A24.23,24.23,0,0,1,7.239-.823V-14.205A33.522,33.522,0,0,0,9.03-18.658c.169-.581.242-.8.387-1.186l-2.662-.774a16.131,16.131,0,0,1-.847,3.073,18.971,18.971,0,0,1-4.09,6.776,10.518,10.518,0,0,1,1.113,2.88,12.041,12.041,0,0,0,1.767-2.4C4.65-9.293,4.65-8.76,4.65-7.6ZM12.539.557h7.236V1.815h2.807a14.585,14.585,0,0,1-.121-2.251v-4.84a15.468,15.468,0,0,1,.1-2.081,10.638,10.638,0,0,1-1.791.1H11.789a15.175,15.175,0,0,1-1.936-.1,17.188,17.188,0,0,1,.1,2.009V-.557a20.1,20.1,0,0,1-.121,2.372h2.71Zm0-5.469H19.8v3.1h-7.26Z" transform="translate(842.449 3686.557)" fill="#fff"/>
    </g>
    <g id="グループ_510" data-name="グループ 510">
      <rect id="長方形_298" data-name="長方形 298" width="98.34" height="34.447" rx="17.223" transform="translate(942.045 3571.741)" fill="#e61400"/>
      <path id="パス_572" data-name="パス 572" d="M-16.265-6.322v2.635H-18.2V0h-3.3V-3.687h-6.783V-6.629l6.3-10.4H-18.2V-6.322Zm-9.524,0H-21.5v-7.4Zm11.84,2.8h3.58V0h-3.58ZM-2.452.5A5.664,5.664,0,0,1-5.914-.644,4.5,4.5,0,0,1-7.675-3.97h3.356a2.027,2.027,0,0,0,.638,1.229A1.976,1.976,0,0,0-2.3-2.269,2.4,2.4,0,0,0,.041-4.112,10.755,10.755,0,0,0,.5-7.078a3.642,3.642,0,0,1-.981.886,4.451,4.451,0,0,1-2.328.567A5.294,5.294,0,0,1-6.434-7.037a5.169,5.169,0,0,1-1.583-4.071,6.285,6.285,0,0,1,1.589-4.461A5.383,5.383,0,0,1-2.3-17.276a5.335,5.335,0,0,1,5.365,3.462A13.481,13.481,0,0,1,3.894-8.65,14.694,14.694,0,0,1,3.1-3.462,5.543,5.543,0,0,1-2.452.5ZM-3.634-13.979A3.063,3.063,0,0,0-4.6-11.415a3.567,3.567,0,0,0,.62,2.286,2.316,2.316,0,0,0,1.908.762,2.355,2.355,0,0,0,1.312-.4A2.779,2.779,0,0,0,.384-11.308a3.591,3.591,0,0,0-.679-2.3,2.253,2.253,0,0,0-1.861-.851A2.313,2.313,0,0,0-3.634-13.979ZM20.959-17.86v-.75A9.975,9.975,0,0,1,21.08-20.3H18.127a12.206,12.206,0,0,1,.121,1.718v.726h-3.17a17.584,17.584,0,0,1-2.614-.121v2.638a13.842,13.842,0,0,1,2.42-.121h1.379l-1.936.678A20.616,20.616,0,0,1,15.683-11.4H13.578a13.017,13.017,0,0,1-2.009-.1v2.614A12.128,12.128,0,0,1,13.65-9H25.508a15.236,15.236,0,0,1,2.468.121v-2.638a21.974,21.974,0,0,1-2.468.121H23.33A24.708,24.708,0,0,0,25.1-14.907l-2.057-.557h1.815a14.53,14.53,0,0,1,2.444.121v-2.638a19.174,19.174,0,0,1-2.662.121ZM16.337-11.4l1.839-.678a21.969,21.969,0,0,0-1.331-3.388h5.566A17.906,17.906,0,0,1,20.644-11.4ZM8.012-.9a22.828,22.828,0,0,1-.145,2.88h2.856A24.23,24.23,0,0,1,10.6-.823V-14.205a33.522,33.522,0,0,0,1.791-4.453c.169-.581.242-.8.387-1.186l-2.662-.774a16.131,16.131,0,0,1-.847,3.073,18.971,18.971,0,0,1-4.09,6.776,10.518,10.518,0,0,1,1.113,2.88,12.04,12.04,0,0,0,1.767-2.4c-.048.992-.048,1.525-.048,2.686ZM15.9.557h7.236V1.815h2.807a14.585,14.585,0,0,1-.121-2.251v-4.84a15.468,15.468,0,0,1,.1-2.081,10.638,10.638,0,0,1-1.791.1H15.151a15.175,15.175,0,0,1-1.936-.1,17.188,17.188,0,0,1,.1,2.009V-.557a20.1,20.1,0,0,1-.121,2.372H15.9Zm0-5.469h7.26v3.1H15.9Z" transform="translate(991.217 3598.161)" fill="#fff"/>
    </g>
  </g>
</svg>
