<svg xmlns="http://www.w3.org/2000/svg" width="280" height="200" viewBox="0 0 280 200">
  <g id="グループ_737" data-name="グループ 737" transform="translate(-727.08 -2632.081)">
    <rect id="長方形_276" data-name="長方形 276" width="280" height="200" rx="10" transform="translate(727.08 2632.081)" fill="#fff"/>
    <path id="長方形_277" data-name="長方形 277" d="M0,0H280a0,0,0,0,1,0,0V50a10,10,0,0,1-10,10H10A10,10,0,0,1,0,50V0A0,0,0,0,1,0,0Z" transform="translate(727.08 2772.081)" fill="#fbdaa6"/>
    <rect id="長方形_278" data-name="長方形 278" width="280" height="30" transform="translate(727.08 2742.081)" fill="#fbab97"/>
    <rect id="長方形_279" data-name="長方形 279" width="280" height="45" transform="translate(727.08 2697.081)" fill="#fbd5d3"/>
    <path id="パス_548" data-name="パス 548" d="M-11.5-5.872A31.959,31.959,0,0,1-11.84-1.5c-.128.752-.3.944-.816.944a11.863,11.863,0,0,1-1.5-.112A5.051,5.051,0,0,1-13.792.992c.512.032.72.032,1.008.032,1.008,0,1.44-.08,1.792-.368.464-.368.688-.992.848-2.4.144-1.152.288-3.184.336-4.592a7.561,7.561,0,0,1,.08-1.136,8.151,8.151,0,0,1-1.28.064h-2.256a14.985,14.985,0,0,1,.08-1.68l.1.288,1.52-.512a10.285,10.285,0,0,0-.8-1.392h1.184a17.067,17.067,0,0,1,1.744.08v-1.6a12.7,12.7,0,0,1-1.744.08h-2.992c.256-.56.384-.864.416-.912l-1.664-.448a7.784,7.784,0,0,1-.736,1.9,7.956,7.956,0,0,1-1.392,1.808,5.478,5.478,0,0,1,1.3.9A11.457,11.457,0,0,0-14.928-10.7h.96a14.385,14.385,0,0,1,.752,1.5h-1.76a4.481,4.481,0,0,1,.08,1.024c0,.24,0,.24-.016.768h-.72a8.657,8.657,0,0,1-1.232-.064v1.68a6.587,6.587,0,0,1,1.232-.08h.64a9.623,9.623,0,0,1-.768,3.456A6.528,6.528,0,0,1-17.392-.192,1.062,1.062,0,0,0-17.376-.4V-7.648a12.727,12.727,0,0,1,.048-1.312,11.309,11.309,0,0,1-1.52.064h-2.4c-.64,0-.864,0-1.248-.032A13.13,13.13,0,0,0-21.184-10.7h.72a10.1,10.1,0,0,1,.752,1.648l1.536-.384a10.437,10.437,0,0,0-.7-1.264h.736a10.846,10.846,0,0,1,1.328.064v-1.584a11.58,11.58,0,0,1-1.536.08h-2.032l.464-.96-1.68-.464a8.7,8.7,0,0,1-2.48,3.952,5,5,0,0,1,1.232,1.024c.032.336.048.832.048,1.472,0,4.08-.288,5.6-1.376,7.2A6.944,6.944,0,0,1-22.736,1.3a8.018,8.018,0,0,0,1.28-3.744h2.5V-.784c0,.224-.112.3-.464.3a8.578,8.578,0,0,1-1.488-.144,5.908,5.908,0,0,1,.336,1.648c.432.032.656.032.992.032,1.52,0,1.968-.192,2.144-.928a7.648,7.648,0,0,1,1.152,1.12A9.121,9.121,0,0,0-13.952-2.56a17.063,17.063,0,0,0,.592-3.312Zm-7.456.9v1.168h-2.368c.048-.5.064-.752.08-1.168Zm0-1.36h-2.256V-7.52h2.256Zm18.24-.64A5.627,5.627,0,0,1-2.336-3.568a7.593,7.593,0,0,1-2.352,1.5A5.918,5.918,0,0,1-3.44-.656,7.593,7.593,0,0,0-.112-3.776,7.4,7.4,0,0,0,1.12-2.56a10.742,10.742,0,0,0,2.544,1.5A7.953,7.953,0,0,1,4.672-2.624a8.763,8.763,0,0,1-3.088-1.7A5.923,5.923,0,0,1,.592-5.344c.08-.24.112-.368.176-.56a6.485,6.485,0,0,1,.256-.848ZM4.848-9.824V-.768c0,.3-.08.368-.464.368A16.972,16.972,0,0,1,2.32-.576a4.847,4.847,0,0,1,.368,1.664c.48.032,1.424.08,1.7.08A3.613,3.613,0,0,0,6.08.912,1.308,1.308,0,0,0,6.624-.32V-9.744a15.562,15.562,0,0,1,.064-1.744,14.525,14.525,0,0,1-1.728.064H.848C.88-11.68.9-11.76.928-12.1c.08-.72.112-.88.176-1.248l-1.872-.1v.544c0,.3-.048,1.008-.1,1.472H-4.8a18.04,18.04,0,0,1-1.824-.064A13.97,13.97,0,0,1-6.56-9.952V-.5a12.76,12.76,0,0,1-.112,1.84H-4.7a13.335,13.335,0,0,1-.08-1.9V-9.824h3.52a4.848,4.848,0,0,1-1.04,1.6,8.022,8.022,0,0,1-2.4,1.6A6.741,6.741,0,0,1-3.552-5.28,9.167,9.167,0,0,0-1.136-7.056,5.166,5.166,0,0,0-.192-8.288,11.467,11.467,0,0,0,3.872-5.264a8.776,8.776,0,0,1,.9-1.7A8.581,8.581,0,0,1,.56-9.824Zm9.408,1.008c-.8,0-1.056,0-1.408-.032A10.878,10.878,0,0,1,12.9-7.584v1.952c0,.656-.016.88-.048,1.328a9.4,9.4,0,0,1,1.44-.048h7.456c.544,0,.928.016,1.312.048-.032-.368-.048-.688-.048-1.216V-7.68c0-.448.016-.816.048-1.184a13.178,13.178,0,0,1-1.36.048h-1.1a4.143,4.143,0,0,0,.448-.752h.528c.736,0,1.28.016,1.744.048-.032-.352-.048-.688-.048-1.232v-1.2c0-.5.016-.8.048-1.216-.512.048-1.024.064-1.856.064H12.672a19.521,19.521,0,0,1-2.112-.08,17.848,17.848,0,0,1,.1,2.544,39.606,39.606,0,0,1-.56,7.712A8.759,8.759,0,0,1,9.056-.192,11.009,11.009,0,0,1,10.464,1.3,13.792,13.792,0,0,0,12.08-4.48c.128-1.232.144-1.648.256-5.088H14.4a2.845,2.845,0,0,1,.512.752Zm2.432,0a5.176,5.176,0,0,0-.448-.752h3.024a5.106,5.106,0,0,1-.448.752ZM12.336-10.9v-.736h9.28v.736Zm2.192,3.184h2.48v.592h-2.48Zm4.064,0h2.752v.592H18.592ZM14.528-6.048h2.48v.592h-2.48Zm4.064,0h2.752v.592H18.592Zm-3.68,2.224c-.816,0-1.248-.016-1.632-.048a11.084,11.084,0,0,1,.064,1.408v2.32a12.056,12.056,0,0,1-.064,1.472h1.712V.784H20.7v.544h1.728a8.912,8.912,0,0,1-.08-1.408V-2.528a10.9,10.9,0,0,1,.064-1.36,13.016,13.016,0,0,1-1.632.064Zm.08,1.2H20.7v.56H14.992Zm0,1.632H20.7v.56H14.992Z" transform="translate(956.036 2674.319)" fill="#333"/>
    <path id="パス_320" data-name="パス 320" d="M901.776,2717.876l-7.4,8.871.771,11.526-11.2,2.822-6.142,9.787-10.724-4.31-10.724,4.31-6.142-9.787-11.2-2.823.771-11.525-7.4-8.871,7.4-8.871-.771-11.526,11.2-2.822,6.142-9.787,10.724,4.31,10.724-4.31,6.142,9.787,11.2,2.822-.771,11.525Z" fill="#a07bbd"/>
    <path id="線_178" data-name="線 178" d="M0,76.274a.5.5,0,0,1-.5-.5V0A.5.5,0,0,1,0-.5.5.5,0,0,1,.5,0V75.774A.5.5,0,0,1,0,76.274Z" transform="translate(956.356 2679.989)" fill="#333"/>
    <circle id="楕円形_147" data-name="楕円形 147" cx="2.799" cy="2.799" r="2.799" transform="translate(953.556 2754.474)" fill="#333"/>
  </g>
</svg>
