<svg xmlns="http://www.w3.org/2000/svg" width="280" height="200" viewBox="0 0 280 200">
  <g id="グループ_737" data-name="グループ 737" transform="translate(-358.92 -2632.081)">
    <rect id="長方形_272" data-name="長方形 272" width="280" height="200" rx="10" transform="translate(358.92 2632.081)" fill="#fff"/>
    <path id="長方形_273" data-name="長方形 273" d="M0,0H280a0,0,0,0,1,0,0V50a10,10,0,0,1-10,10H10A10,10,0,0,1,0,50V0A0,0,0,0,1,0,0Z" transform="translate(358.92 2772.081)" fill="#fbdaa6"/>
    <rect id="長方形_274" data-name="長方形 274" width="280" height="30" transform="translate(358.92 2742.081)" fill="#fbab97"/>
    <rect id="長方形_275" data-name="長方形 275" width="280" height="45" transform="translate(358.92 2697.081)" fill="#fbd5d3"/>
    <path id="パス_548" data-name="パス 548" d="M8.528-6.944h3.76a16.706,16.706,0,0,1,1.856.1v-1.9a16.3,16.3,0,0,1-1.856.1H8.528v-2.736a12.91,12.91,0,0,1,.112-1.84h-2.1a13.7,13.7,0,0,1,.112,1.84V-1.056H3.008A21.113,21.113,0,0,1,.8-1.152V.768A20,20,0,0,1,3.008.656h10.16A17.458,17.458,0,0,1,15.3.768v-1.92a20.548,20.548,0,0,1-2.16.1H8.528Zm17.328-.592V-9.872h3.568a6.353,6.353,0,0,1-1.04,1.536l1.632.64A17.724,17.724,0,0,0,31.168-9.68a7.448,7.448,0,0,1,.56-1.088l-.864-.864a11.376,11.376,0,0,1-1.856.08H25.856v-.528a9.962,9.962,0,0,1,.064-1.36H24a6.073,6.073,0,0,1,.1,1.344v.544h-3.52c-.768,0-1.248-.016-1.776-.064a13.25,13.25,0,0,1,.1,1.648c0,1.872-.1,4.288-.208,5.2A12.034,12.034,0,0,1,17.152-.032,5.153,5.153,0,0,1,18.528,1.3a15.045,15.045,0,0,0,1.984-7.248H21.52a11.252,11.252,0,0,0,2.752,3.776A15.473,15.473,0,0,1,19.52-.24,5.735,5.735,0,0,1,20.5,1.376a16.741,16.741,0,0,0,5.152-2.448,18.585,18.585,0,0,0,5.312,2.4A6.092,6.092,0,0,1,31.872-.5,16.98,16.98,0,0,1,27.056-2.24a12.485,12.485,0,0,0,2.88-3.808,3.811,3.811,0,0,1,.3-.544l-.976-1.024a8.749,8.749,0,0,1-1.536.08Zm-1.76,0h-3.5c.016-.448.016-.656.016-1.056v-1.28H24.1ZM27.92-5.952a9.794,9.794,0,0,1-2.288,2.736,8.479,8.479,0,0,1-2.24-2.736Zm6.16.9a4.2,4.2,0,0,1,.816-.1c.464-.016.672-.032,1.488-.08V-.368a11.98,11.98,0,0,1-.1,1.7h1.744a9.343,9.343,0,0,1-.1-1.68V-5.344c.416-.032.592-.064,1.152-.128a6.649,6.649,0,0,1,.128.688l1.168-.5V-.688a16.194,16.194,0,0,1-.1,1.9h1.68V.3h4.5v.9H48.24a12.607,12.607,0,0,1-.1-1.984V-10.72c0-.944.016-1.472.064-2.016a17.885,17.885,0,0,1-1.968.064H42.176c-.88,0-1.312-.016-1.856-.064.032.528.064,1.088.064,1.856v4.928a20.285,20.285,0,0,0-.912-2.56l-1.232.528c.24.576.32.784.448,1.136-.944.08-.944.08-1.792.128.672-.864,1.728-2.368,2.336-3.3a9.006,9.006,0,0,1,.64-.928l-1.5-.768A13.8,13.8,0,0,1,36.912-9.1c-.32-.4-.32-.4-.624-.768.448-.688.864-1.424,1.3-2.24.272-.528.32-.64.464-.88l-1.568-.576a10.156,10.156,0,0,1-1.168,2.592l-.56-.624-.832,1.408a20.755,20.755,0,0,1,2.112,2.4c-.368.512-.432.608-.848,1.152h-.56a5.1,5.1,0,0,1-.72-.048Zm7.84-6.032h1.52V-7.1H41.92Zm3.056.016h1.536v3.984H44.976ZM41.92-5.536h1.52v4.288H41.92Zm3.056.016h1.536v4.272H44.976ZM34.448-4.464v.32a12.989,12.989,0,0,1-.128,1.776,9.669,9.669,0,0,1-.464,2.256L35.312.5a21.936,21.936,0,0,0,.544-4.8Zm3.84.24a24.652,24.652,0,0,1,.464,3.872l1.3-.352A22.828,22.828,0,0,0,39.5-4.528Zm21.1-7.552c.08-.192.112-.3.16-.448.16-.5.224-.672.32-.912l-1.824-.384a4.15,4.15,0,0,1-.32,1.312,9.8,9.8,0,0,1-1.712,2.944V-11.52c0-.672.016-1.072.048-1.456a7.311,7.311,0,0,1-1.248.064H52.768a12.638,12.638,0,0,1-1.408-.064,28.108,28.108,0,0,1,.1,3.36,51.448,51.448,0,0,1-.3,7.248A6.138,6.138,0,0,1,50.368.064a6.426,6.426,0,0,1,1.376,1.3A6.743,6.743,0,0,0,52.5-.656,17.825,17.825,0,0,0,52.9-3.9h1.6V-.816c0,.352-.064.416-.512.416a8.277,8.277,0,0,1-1.072-.128,4.931,4.931,0,0,1,.368,1.664c.3.016.512.016.624.016a3.188,3.188,0,0,0,1.648-.24c.336-.224.464-.592.464-1.456V-8.4a6.885,6.885,0,0,1,.8.928,7.961,7.961,0,0,0,.752-.928v.944A14.727,14.727,0,0,1,59.04-7.5h1.232v1.856h-1.92c-.592,0-.928-.016-1.28-.048.032.464.048.848.048,1.488v3.7c0,1.328.544,1.552,3.664,1.552,2.608,0,3.408-.112,3.856-.544.416-.4.608-1.136.736-2.816a6.662,6.662,0,0,1-1.68-.544c-.016,1.392-.1,1.84-.32,2.048-.24.24-.752.288-2.544.288-1.744,0-2.064-.08-2.064-.544V-4.144h1.92c.32,0,.464,0,.736.016a5.382,5.382,0,0,1,.272,1.36c.336,0,.768.016.9.016a2.274,2.274,0,0,0,1.344-.32c.368-.288.544-.832.688-2.208.1-.992.224-3.136.24-4.384a17.083,17.083,0,0,1,.08-2.192,11.014,11.014,0,0,1-1.44.08Zm2.432,3.984c0-.624.016-.912.048-1.28a12.066,12.066,0,0,1-1.536.064h-1.28c-.32,0-.56,0-1.056-.016.256-.4.464-.768.688-1.184H63.2a42.18,42.18,0,0,1-.24,4.928c-.128.944-.176.992-.72.992a2.676,2.676,0,0,1-.4-.032c-.016-.352-.016-.512-.016-.976ZM54.5-9.168H53.024V-11.3H54.5Zm0,1.488v2.288h-1.52c.016-.4.016-.544.016-1.3,0-.224,0-.544.016-.992Z" transform="translate(554.916 2674.319)" fill="#333"/>
    <path id="パス_319" data-name="パス 319" d="M533.616,2691.521l-7.4,8.871.771,11.526-11.2,2.822-6.142,9.787-10.724-4.31-10.724,4.31-6.142-9.787-11.2-2.822.771-11.525-7.4-8.871,7.4-8.871-.771-11.526,11.2-2.823,6.142-9.787,10.724,4.31,10.724-4.31,6.142,9.787,11.2,2.823-.771,11.525Z" fill="#a07bbd"/>
    <path id="線_177" data-name="線 177" d="M0,30.922a.5.5,0,0,1-.5-.5V0A.5.5,0,0,1,0-.5.5.5,0,0,1,.5,0V30.422A.5.5,0,0,1,0,30.922Z" transform="translate(588.196 2679.989)" fill="#333"/>
    <circle id="楕円形_146" data-name="楕円形 146" cx="2.799" cy="2.799" r="2.799" transform="translate(585.397 2709.122)" fill="#333"/>
  </g>
</svg>
