<svg xmlns="http://www.w3.org/2000/svg" width="222.129" height="222.129" viewBox="0 0 222.129 222.129">
  <g id="グループ_755" data-name="グループ 755" transform="translate(-224.628 -9955.591)">
    <g id="グループ_701" data-name="グループ 701">
      <circle id="楕円形_313" data-name="楕円形 313" cx="111.064" cy="111.064" r="111.064" transform="translate(224.628 9955.591)" fill="#e61400"/>
      <path id="パス_539" data-name="パス 539" d="M420.3,10159.371l-22.509-7.217,18.377-18.377,7.217,22.509A2.453,2.453,0,0,1,420.3,10159.371Z" fill="#e61400"/>
    </g>
    <path id="パス_655" data-name="パス 655" d="M-62.3,0h-6.47V-22.158h-7.556v-4.3a27.991,27.991,0,0,0,4.188-.4,5.907,5.907,0,0,0,3.1-1.684,5.545,5.545,0,0,0,1.241-2.3,5.29,5.29,0,0,0,.244-1.285H-62.3Zm17.106,2.26A6.4,6.4,0,0,1-46.676,5.1a7.65,7.65,0,0,1-2.759,1.939,7.142,7.142,0,0,1-2.183.654V5.251a4.951,4.951,0,0,0,2.8-1.773A6.54,6.54,0,0,0-47.784,0h-3.833V-6.6h6.825V-.886A13.309,13.309,0,0,1-45.191,2.26Zm19.344-27.853a3.98,3.98,0,0,0-3.235-1.352A3.946,3.946,0,0,0-33-24.795a10.66,10.66,0,0,0-.709,3.944h-6.138a15.522,15.522,0,0,1,1.485-6.625q2.526-4.808,8.974-4.808a11.379,11.379,0,0,1,8.11,2.825,9.769,9.769,0,0,1,3.013,7.478A10.124,10.124,0,0,1-20.4-15.643a21.192,21.192,0,0,1-4.587,4.1l-2.526,1.795q-2.371,1.684-3.246,2.437a7.143,7.143,0,0,0-1.474,1.75H-18.2V0h-22a15.1,15.1,0,0,1,1.485-6.315q1.352-3.213,6.381-6.8a46.8,46.8,0,0,0,5.65-4.476A6.615,6.615,0,0,0-24.717-22.2,5.106,5.106,0,0,0-25.847-25.592ZM-3.889.8Q-10.026.8-12.5-3.5t-2.471-12.253q0-7.955,2.471-12.275t8.608-4.321q6.138,0,8.619,4.321,2.46,4.321,2.46,12.275T4.72-3.5Q2.249.8-3.889.8Zm3.7-8.088a31.612,31.612,0,0,0,.864-8.464,31.009,31.009,0,0,0-.875-8.6,3.575,3.575,0,0,0-3.689-2.792,3.627,3.627,0,0,0-3.723,2.792,29.927,29.927,0,0,0-.908,8.6,30.263,30.263,0,0,0,.908,8.475A3.657,3.657,0,0,0-3.889-4.343,3.627,3.627,0,0,0-.188-7.29ZM21.349.8q-6.138,0-8.608-4.3T10.27-15.754q0-7.955,2.471-12.275t8.608-4.321q6.138,0,8.619,4.321,2.46,4.321,2.46,12.275T29.958-3.5Q27.487.8,21.349.8Zm3.7-8.088a31.612,31.612,0,0,0,.864-8.464,31.009,31.009,0,0,0-.875-8.6,3.575,3.575,0,0,0-3.689-2.792,3.627,3.627,0,0,0-3.723,2.792,29.927,29.927,0,0,0-.908,8.6,30.263,30.263,0,0,0,.908,8.475,3.657,3.657,0,0,0,3.723,2.936A3.627,3.627,0,0,0,25.05-7.29ZM43.3-14.068h27V-3c0,1.089-.272,1.225-2.042,1.225-1.634,0-3.9-.182-6.9-.5a17.461,17.461,0,0,1,1.407,4.9c1.77.091,4.266.182,6.035.182,2.45,0,3.9-.182,4.765-.635C74.886,1.5,75.431.227,75.431-2.087V-31.176a44.66,44.66,0,0,1,.182-4.946,41.6,41.6,0,0,1-4.946.182H43.075a48.752,48.752,0,0,1-5.037-.182,39.1,39.1,0,0,1,.182,4.356V-2.087a43.106,43.106,0,0,1-.272,5.446h5.582A33.357,33.357,0,0,1,43.3-1.906Zm10.755-4.765H43.3v-12.3H54.057Zm4.9,0v-12.3H70.3v12.3ZM-49.327,44.126a29.046,29.046,0,0,1,8.713-1.5c4.856,0,8.032,2.541,8.032,6.444,0,2.9-1.906,5.037-4.583,5.037a3.139,3.139,0,0,1-2.859-1.543,8.744,8.744,0,0,1-.635-3.993,15.735,15.735,0,0,1,.091-2,19.144,19.144,0,0,1-5.037,2,15.16,15.16,0,0,0,.771,5.809,7.326,7.326,0,0,0,7.442,5.037,10.081,10.081,0,0,0,10.3-10.347c0-6.444-5.4-11.073-12.979-11.073a31.467,31.467,0,0,0-9.257,1.271v-5.9c1.724-.182,2.632-.318,4.13-.59,3.131-.545,3.993-.681,4.81-.817l-.182-5.082a50.61,50.61,0,0,1-8.758,1.724V25.7a27.861,27.861,0,0,1,.272-4.946h-5.672a31.093,31.093,0,0,1,.272,5.219v3c-.5,0-.726,0-1.815.045-.635.045-1.134.045-1.588.045a27.831,27.831,0,0,1-5.491-.408l.045,5.082a8.508,8.508,0,0,1,.953-.045c.136,0,.545,0,1.134.045.545,0,1.815.045,2.5.045,1.134,0,1.77,0,2.45-.045,1.5-.091,1.5-.091,1.861-.091l.045,6.988a24.277,24.277,0,0,0-6.625,3.857c-2.5,2.178-3.9,4.583-3.9,6.716a6.665,6.665,0,0,0,2.5,5.128,14.135,14.135,0,0,0,8.577,3.222c2.133,0,3.766-1.044,4.175-2.632a13.512,13.512,0,0,0,.363-3.857Zm-5.082,8.259c0,1.5-.227,1.906-1,1.906a5.455,5.455,0,0,1-2.9-1c-1.044-.635-1.5-1.316-1.5-2.087,0-1.634,2-3.63,5.4-5.446Zm29.315-19.15a38.489,38.489,0,0,0-8.985-9.3l-4.266,2.859a38.751,38.751,0,0,1,9.076,9.8ZM-2.133,49.072-5.4,51.432A27.473,27.473,0,0,1,.454,58.693l2.36-2.087A16.28,16.28,0,0,1,3.9,61.1c2.087.091,3.766.136,4.674.136,4.81,0,6.126-.908,6.126-4.22V49.072h1.316a27.916,27.916,0,0,1,4.311.227V44.625a29.514,29.514,0,0,1-4.447.227H14.7V42.583h1a37.71,37.71,0,0,1,4.311.182V38.317a27.092,27.092,0,0,1-4.4.227H-4.674a31.642,31.642,0,0,1-4.311-.182v4.4a36.849,36.849,0,0,1,4.266-.182H9.893v2.269H-5.219a27.916,27.916,0,0,1-4.311-.227v4.629a37.353,37.353,0,0,1,4.266-.182Zm12.026,0v6.489c0,.908-.318,1.089-1.679,1.089A44.66,44.66,0,0,1,3.267,56.2l1.134-1a41.488,41.488,0,0,0-5.491-6.126ZM-11.753,19.44c-1.77,3.449-4.946,6.444-9.484,9.031a13.384,13.384,0,0,1,2.632,4.13,33.742,33.742,0,0,0,6.988-5.582A41.433,41.433,0,0,0-7.76,22.344ZM13.3,36.548c1.543,0,3.131.045,4.175.136a39.313,39.313,0,0,1-.182-4.447V25.7a41.419,41.419,0,0,1,.182-4.447,38.343,38.343,0,0,1-4.629.182H-1.18a39.432,39.432,0,0,1-4.583-.182c.091,1.361.136,2.269.136,4.175v6.807c0,2.042-.045,3.086-.136,4.447.862-.091,2.45-.136,4.22-.136ZM-.953,25.248H12.479v2H-.953Zm0,5.536H12.479v2.133H-.953ZM-16.11,56.832a32.944,32.944,0,0,1-.272,4.856h5.309A37.769,37.769,0,0,1-11.3,56.56V37.909a35.087,35.087,0,0,0,2.95-4.175c.363-.59.5-.771.908-1.361l-4.084-2.859a20.74,20.74,0,0,1-2.042,3.721,30.065,30.065,0,0,1-8.123,8.123,20.948,20.948,0,0,1,2.133,4.81,21.077,21.077,0,0,0,3.54-3.4c-.091,1.906-.091,3.04-.091,4.856Zm64.167-7.941a16.207,16.207,0,0,1-.091-1.906c0-.635,0-.635.091-3.267l.635-15.429c.091-1.951.272-4.311.408-5.536H41.658c.182,1.271.318,3.54.408,5.536L42.7,43.718c.136,2.723.136,2.723.136,3.222,0,.545-.045,1-.091,1.951Zm.635,9.938V52.612h-6.58v6.217Z" transform="translate(335.692 10054.894)" fill="#fff"/>
  </g>
</svg>
