<svg xmlns="http://www.w3.org/2000/svg" width="960" height="185.023" viewBox="0 0 960 185.023">
  <g id="グループ_754" data-name="グループ 754" transform="translate(-203 -9049.683)">
    <g id="グループ_694" data-name="グループ 694">
      <path id="パス_536" data-name="パス 536" d="M1052.884,9104.389v-34.706a20,20,0,0,0-20-20h-681.9a20,20,0,0,0-20,20v34.706a20,20,0,0,1-20,20H231.732a20,20,0,0,0-20,20v70.317a20,20,0,0,0,20,20H1143a20,20,0,0,0,20-20v-70.317a20,20,0,0,0-20-20h-70.116A20,20,0,0,1,1052.884,9104.389Z" fill="#699c78"/>
      <path id="パス_537" data-name="パス 537" d="M1044.152,9104.389v-34.706a20,20,0,0,0-20-20h-681.9a20,20,0,0,0-20,20v34.706a20,20,0,0,1-20,20H223a20,20,0,0,0-20,20v70.317a20,20,0,0,0,20,20h911.268a20,20,0,0,0,20-20v-70.317a20,20,0,0,0-20-20h-70.116A20,20,0,0,1,1044.152,9104.389Z" fill="#82c195"/>
    </g>
  </g>
</svg>
