<svg xmlns="http://www.w3.org/2000/svg" xmlns:xlink="http://www.w3.org/1999/xlink" width="219.205" height="219.058" viewBox="0 0 219.205 219.058">
  <defs>
    <clipPath id="clip-path">
      <rect id="長方形_389" data-name="長方形 389" width="95.691" height="69.928" transform="translate(805.881 7108.342)" fill="none"/>
    </clipPath>
    <clipPath id="clip-path-2">
      <rect id="長方形_390" data-name="長方形 390" width="100.843" height="75.08" transform="translate(800.728 7103.189)" fill="none"/>
    </clipPath>
    <clipPath id="clip-path-3">
      <rect id="長方形_392" data-name="長方形 392" width="105.849" height="130.728" transform="translate(795.723 7047.542)" fill="none"/>
    </clipPath>
    <clipPath id="clip-path-4">
      <rect id="長方形_394" data-name="長方形 394" width="64.481" height="109.971" transform="translate(807.942 7047.542)" fill="none"/>
    </clipPath>
  </defs>
  <g id="グループ_752" data-name="グループ 752" transform="translate(-696.863 -6974.522)">
    <rect id="長方形_380" data-name="長方形 380" width="219.205" height="219.058" rx="6.919" transform="translate(696.863 6974.522)" fill="#fff"/>
    <path id="線_261" data-name="線 261" d="M80.086.23H0A.23.23,0,0,1-.23,0,.23.23,0,0,1,0-.23H80.086a.23.23,0,0,1,.23.23A.23.23,0,0,1,80.086.23Z" transform="translate(731.683 7128.658)" fill="#fff"/>
    <path id="線_262" data-name="線 262" d="M80.086.368H0V-.368H80.086Z" transform="translate(731.683 7128.658)" fill="#3e3a39"/>
    <path id="線_263" data-name="線 263" d="M63.3.23H0A.23.23,0,0,1-.23,0,.23.23,0,0,1,0-.23H63.3a.23.23,0,0,1,.23.23A.23.23,0,0,1,63.3.23Z" transform="translate(835.618 7128.658)" fill="#fff"/>
    <path id="線_264" data-name="線 264" d="M63.3.368H0V-.368H63.3Z" transform="translate(835.618 7128.658)" fill="#3e3a39"/>
    <path id="パス_494" data-name="パス 494" d="M782.179,7118.058h-9.422a1.3,1.3,0,0,1-1.325-1.177v-41.663a2.988,2.988,0,0,1,2.944-3.091h6.036a3.11,3.11,0,0,1,3.092,3.091v41.663A1.3,1.3,0,0,1,782.179,7118.058Z" fill="#fff"/>
    <path id="パス_495" data-name="パス 495" d="M782.179,7118.426h-9.422a1.667,1.667,0,0,1-1.693-1.545v-41.663a3.352,3.352,0,0,1,3.312-3.459h6.036a3.5,3.5,0,0,1,2.409.987,3.414,3.414,0,0,1,1.051,2.472v41.663A1.667,1.667,0,0,1,782.179,7118.426Zm-7.8-45.931a2.624,2.624,0,0,0-2.576,2.723v41.663a.939.939,0,0,0,.957.809h9.422a.939.939,0,0,0,.957-.809v-41.663a2.683,2.683,0,0,0-.826-1.943,2.759,2.759,0,0,0-1.9-.78Z" fill="#3e3a39"/>
    <rect id="長方形_381" data-name="長方形 381" width="2.65" height="2.797" transform="translate(775.996 7088.91)" fill="#3e3a39"/>
    <rect id="長方形_382" data-name="長方形 382" width="2.65" height="2.797" transform="translate(775.996 7091.56)" fill="#898989"/>
    <rect id="長方形_383" data-name="長方形 383" width="2.65" height="2.503" transform="translate(775.996 7095.093)" fill="#ebd784"/>
    <path id="長方形_384" data-name="長方形 384" d="M-.368-.368H5.815V11.115H-.368ZM5.079.368H.368V10.379H5.079Z" transform="translate(774.671 7087.879)" fill="#3e3a39"/>
    <path id="長方形_385" data-name="長方形 385" d="M-.368-.368H2.871V8.907H-.368Zm2.5.736H.368v7.8H2.135Z" transform="translate(776.143 7089.057)" fill="#3e3a39"/>
    <path id="線_265" data-name="線 265" d="M1.242,1.465-.23.287.23-.287,1.7.89Z" transform="translate(774.671 7087.879)" fill="#3e3a39"/>
    <path id="線_266" data-name="線 266" d="M.211,1.332l-.422-.6L1.261-.3l.422.6Z" transform="translate(774.671 7097.595)" fill="#3e3a39"/>
    <path id="線_267" data-name="線 267" d="M1.261,1.332-.211.3.211-.3,1.683.729Z" transform="translate(778.646 7097.595)" fill="#3e3a39"/>
    <path id="線_268" data-name="線 268" d="M.23,1.465-.23.89,1.242-.287,1.7.287Z" transform="translate(778.646 7087.879)" fill="#3e3a39"/>
    <path id="パス_496" data-name="パス 496" d="M777.468,7107.238a1.368,1.368,0,0,1,1.4,1.4,1.5,1.5,0,0,1-1.4,1.545,1.628,1.628,0,0,1-1.546-1.545A1.5,1.5,0,0,1,777.468,7107.238Zm0,2.208a.78.78,0,0,0,.662-.809.641.641,0,0,0-.662-.663.781.781,0,0,0-.81.663A.9.9,0,0,0,777.468,7109.446Z" fill="#3e3a39"/>
    <path id="パス_497" data-name="パス 497" d="M777.468,7104a4.643,4.643,0,0,1,4.637,4.638,4.83,4.83,0,0,1-1.356,3.4,4.549,4.549,0,0,1-3.281,1.381,4.712,4.712,0,1,1,0-9.422Zm0,8.686a3.976,3.976,0,0,0,0-7.95,3.976,3.976,0,1,0,0,7.95Z" fill="#3e3a39"/>
    <path id="パス_498" data-name="パス 498" d="M770.254,7118.058h-9.569a1.3,1.3,0,0,1-1.325-1.177v-41.663a3.11,3.11,0,0,1,3.092-3.091h6.036a2.988,2.988,0,0,1,2.944,3.091v41.663A1.266,1.266,0,0,1,770.254,7118.058Z" fill="#fff"/>
    <path id="パス_499" data-name="パス 499" d="M770.254,7118.426h-9.569a1.667,1.667,0,0,1-1.693-1.545v-41.663a3.414,3.414,0,0,1,1.051-2.472,3.5,3.5,0,0,1,2.409-.987h6.036a3.352,3.352,0,0,1,3.312,3.459v41.663A1.628,1.628,0,0,1,770.254,7118.426Zm-7.8-45.931a2.759,2.759,0,0,0-1.9.78,2.683,2.683,0,0,0-.826,1.943v41.663a.939.939,0,0,0,.957.809h9.569a.9.9,0,0,0,.81-.809v-41.663a2.624,2.624,0,0,0-2.576-2.723Z" fill="#3e3a39"/>
    <path id="長方形_386" data-name="長方形 386" d="M-.368-.368H5.815V11.115H-.368ZM5.079.368H.368V10.379H5.079Z" transform="translate(762.599 7087.879)" fill="#3e3a39"/>
    <path id="線_269" data-name="線 269" d="M1.242,1.465-.23.287.23-.287,1.7.89Z" transform="translate(762.599 7087.879)" fill="#3e3a39"/>
    <path id="線_270" data-name="線 270" d="M.211,1.332l-.422-.6L1.261-.3l.422.6Z" transform="translate(762.599 7097.595)" fill="#3e3a39"/>
    <path id="線_271" data-name="線 271" d="M1.261,1.332-.211.3.211-.3,1.683.729Z" transform="translate(766.574 7097.595)" fill="#3e3a39"/>
    <path id="線_272" data-name="線 272" d="M.23,1.465-.23.89,1.242-.287,1.7.287Z" transform="translate(766.574 7087.879)" fill="#3e3a39"/>
    <path id="パス_500" data-name="パス 500" d="M765.4,7107.238a1.5,1.5,0,0,1,1.546,1.4,1.628,1.628,0,0,1-1.546,1.545,1.5,1.5,0,0,1-1.4-1.545A1.368,1.368,0,0,1,765.4,7107.238Zm0,2.208a.9.9,0,0,0,.81-.809.781.781,0,0,0-.81-.663.641.641,0,0,0-.662.663A.78.78,0,0,0,765.4,7109.446Z" fill="#3e3a39"/>
    <path id="パス_501" data-name="パス 501" d="M765.4,7104a4.712,4.712,0,1,1,0,9.422,4.549,4.549,0,0,1-3.281-1.381,4.83,4.83,0,0,1-1.356-3.4A4.643,4.643,0,0,1,765.4,7104Zm0,8.686a3.976,3.976,0,1,0,0-7.95,3.976,3.976,0,0,0,0,7.95Z" fill="#3e3a39"/>
    <rect id="長方形_387" data-name="長方形 387" width="2.65" height="0.589" transform="translate(764.071 7097.006)" fill="#a7436a"/>
    <path id="線_273" data-name="線 273" d="M2.5.368H0V-.368H2.5Z" transform="translate(764.071 7094.945)" fill="#a7436a"/>
    <path id="線_274" data-name="線 274" d="M2.5.368H0V-.368H2.5Z" transform="translate(764.071 7092.148)" fill="#a7436a"/>
    <path id="長方形_388" data-name="長方形 388" d="M-.368-.368H2.871V8.907H-.368Zm2.5.736H.368v7.8H2.135Z" transform="translate(764.071 7089.057)" fill="#3e3a39"/>
    <g id="グループ_661" data-name="グループ 661">
      <g id="グループ_660" data-name="グループ 660" clip-path="url(#clip-path)">
        <path id="パス_502" data-name="パス 502" d="M901.424,7183.864l-11.041-12.955a18.6,18.6,0,0,1-3.828-7.361c-2.061-8.244-6.624-26.646-9.127-31.8L860.2,7114.967l-47.257-5.447c-6.183-1.178-6.919,5.3,1.178,8.244l.736,1.619c-8.686-3.533-8.98,5.742.147,7.214h0c-8.833-2.061-7.508,7.066,1.031,8.98l7.066,11.483-6.183,3.386a2.872,2.872,0,0,0-1.325,3.68c1.914,5.006,11.483-3.238,27.971-1.324,0,0,7.214,17.518,21.052,24.732l5.005,8.391Z" fill="#f6e8da"/>
      </g>
    </g>
    <g id="グループ_663" data-name="グループ 663">
      <g id="グループ_662" data-name="グループ 662" clip-path="url(#clip-path-2)">
        <path id="パス_503" data-name="パス 503" d="M869.309,7186.113l-4.952-8.3a37.464,37.464,0,0,1-9.126-6.927,56.165,56.165,0,0,1-6.632-8.217,64.02,64.02,0,0,1-5.285-9.524c-8.3-.922-14.756.727-19.483,1.933a26.081,26.081,0,0,1-5.486,1.056h-.062a2.855,2.855,0,0,1-3.029-1.872,3.261,3.261,0,0,1-.058-2.378,3.384,3.384,0,0,1,1.547-1.758l5.845-3.2-6.782-11.022c-4.21-.993-6.4-3.577-7-5.506a3.3,3.3,0,0,1,.577-3.313,3.813,3.813,0,0,1,2.35-1.092,8.836,8.836,0,0,1-1.5-.9,5.879,5.879,0,0,1-2.19-2.918,2.9,2.9,0,0,1,.726-3.1,3.732,3.732,0,0,1,2.449-.858,8.673,8.673,0,0,1,2.942.51l-.306-.674a11.391,11.391,0,0,1-4.877-3.2,4.145,4.145,0,0,1-1.062-3.63c.483-1.754,2.479-2.568,5.088-2.074l47.368,5.46.09.087,17.27,16.828.028.058c2.449,5.04,6.855,22.672,8.972,31.145l.18.719a18.159,18.159,0,0,0,3.75,7.214l11.043,12.957-.56.478L890.1,7171.148a18.877,18.877,0,0,1-3.9-7.5l0-.009-.181-.725c-2.1-8.417-6.471-25.9-8.892-30.944l-17.088-16.65-47.159-5.437c-2.21-.421-3.88.185-4.254,1.544a3.436,3.436,0,0,0,.922,2.968,10.55,10.55,0,0,0,4.7,3.025l.145.053,1.183,2.6-.856-.349c-3.47-1.412-4.974-.541-5.459-.1a2.195,2.195,0,0,0-.515,2.342,5.146,5.146,0,0,0,1.925,2.537,9.491,9.491,0,0,0,3.512,1.558q.437.07.9.177l1.367.261-.138.723-1.369-.261q-.469-.075-.918-.181c-2.516-.4-3.639.311-4.1.805a2.555,2.555,0,0,0-.413,2.594,6.451,6.451,0,0,0,2.124,2.937,10.772,10.772,0,0,0,4.482,2.1l.152.034,7.35,11.945-6.523,3.572a2.5,2.5,0,0,0-1.16,3.221l0,.005a2.147,2.147,0,0,0,2.34,1.4h.057a25.784,25.784,0,0,0,5.311-1.033c4.822-1.232,11.426-2.918,19.961-1.927l.215.025.083.2a61.835,61.835,0,0,0,5.311,9.61,55.4,55.4,0,0,0,6.542,8.1,36.651,36.651,0,0,0,9.029,6.833l.092.048.053.09,5.005,8.391Z" fill="#3e3a39"/>
      </g>
    </g>
    <g id="グループ_665" data-name="グループ 665">
      <g id="グループ_664" data-name="グループ 664" clip-path="url(#clip-path-3)">
        <rect id="長方形_391" data-name="長方形 391" width="54.028" height="101.432" rx="4.858" transform="translate(813.094 7050.781)" fill="#b7b8b8"/>
      </g>
    </g>
    <g id="グループ_667" data-name="グループ 667">
      <g id="グループ_666" data-name="グループ 666" clip-path="url(#clip-path-4)">
        <path id="長方形_393" data-name="長方形 393" d="M4.858-.368H49.17A5.232,5.232,0,0,1,54.4,4.858V96.574A5.232,5.232,0,0,1,49.17,101.8H4.858A5.232,5.232,0,0,1-.368,96.574V4.858A5.232,5.232,0,0,1,4.858-.368ZM49.17,101.064a4.5,4.5,0,0,0,4.49-4.49V4.858A4.5,4.5,0,0,0,49.17.368H4.858a4.5,4.5,0,0,0-4.49,4.49V96.574a4.5,4.5,0,0,0,4.49,4.49Z" transform="translate(813.094 7050.781)" fill="#3e3a39"/>
      </g>
    </g>
    <g id="グループ_669" data-name="グループ 669">
      <g id="グループ_668" data-name="グループ 668" clip-path="url(#clip-path-3)">
        <rect id="長方形_395" data-name="長方形 395" width="48.14" height="95.543" rx="3.239" transform="translate(816.039 7053.725)" fill="#e6e6e6"/>
        <path id="長方形_396" data-name="長方形 396" d="M3.239-.368H44.9a3.611,3.611,0,0,1,3.607,3.607V92.3A3.611,3.611,0,0,1,44.9,95.911H3.239A3.611,3.611,0,0,1-.368,92.3V3.239A3.611,3.611,0,0,1,3.239-.368ZM44.9,95.175A2.874,2.874,0,0,0,47.772,92.3V3.239A2.874,2.874,0,0,0,44.9.368H3.239A2.874,2.874,0,0,0,.368,3.239V92.3a2.874,2.874,0,0,0,2.871,2.871Z" transform="translate(816.039 7053.725)" fill="#3e3a39"/>
        <path id="パス_504" data-name="パス 504" d="M864.178,7062.558H816.039v-5.594a3.267,3.267,0,0,1,3.238-3.239H860.94a3.267,3.267,0,0,1,3.238,3.239Z" fill="#3e3a39"/>
        <path id="パス_505" data-name="パス 505" d="M816.039,7132.927h48.139v13.1a3.267,3.267,0,0,1-3.238,3.238H819.277a3.267,3.267,0,0,1-3.238-3.238Z" fill="#3e3a39"/>
        <path id="パス_506" data-name="パス 506" d="M863.737,7167.67c-5.153-5.3-6.772-13.249-7.214-18.107a8.636,8.636,0,0,0-3.68-6.331l-3.386-2.061a7.838,7.838,0,0,0-5.742-1.325,12.374,12.374,0,0,1-9.863-1.766,3.355,3.355,0,0,1,.589-5.889,93.73,93.73,0,0,1,12.366-3.68,9.819,9.819,0,0,1,7.066.736c3.533,1.619,13.839,6.477,17.666,9.127Z" fill="#f6e8da"/>
        <path id="パス_507" data-name="パス 507" d="M863.473,7167.926a24.539,24.539,0,0,1-5.458-9.357,39.775,39.775,0,0,1-1.858-8.973v-.012a7.559,7.559,0,0,0-1.071-3.385,8.867,8.867,0,0,0-2.444-2.66l-3.4-2.07a7.442,7.442,0,0,0-5.463-1.26,13.427,13.427,0,0,1-6.248-.062,14.009,14.009,0,0,1-3.871-1.753l-.011-.007a3.714,3.714,0,0,1-1.633-3.465,3.665,3.665,0,0,1,2.286-3.071l.005,0a94.671,94.671,0,0,1,12.407-3.693,10.248,10.248,0,0,1,7.316.758c1.358.623,13.415,6.177,17.72,9.158l-.419.605c-3.454-2.392-12.695-6.842-17.61-9.1a9.525,9.525,0,0,0-6.8-.719l-.032.009a94.1,94.1,0,0,0-12.307,3.661,2.987,2.987,0,0,0-.528,5.238,12,12,0,0,0,9.59,1.715l.022,0a8.182,8.182,0,0,1,6,1.382l3.4,2.068a8.956,8.956,0,0,1,3.833,6.6,39.02,39.02,0,0,0,1.822,8.8,23.82,23.82,0,0,0,5.289,9.081Z" fill="#3e3a39"/>
        <path id="パス_508" data-name="パス 508" d="M850.929,7121.444H841.36a1.083,1.083,0,0,1-1.178-1.177V7078.6a2.953,2.953,0,0,1,2.944-2.944h6.036a2.953,2.953,0,0,1,2.945,2.944v41.663A1.161,1.161,0,0,1,850.929,7121.444Z" fill="#fff"/>
        <path id="パス_509" data-name="パス 509" d="M850.929,7121.812H841.36a1.448,1.448,0,0,1-1.546-1.545V7078.6a3.316,3.316,0,0,1,3.312-3.312h6.036a3.316,3.316,0,0,1,3.313,3.312v41.663A1.531,1.531,0,0,1,850.929,7121.812Zm-7.8-45.784a2.579,2.579,0,0,0-2.576,2.576v41.663a.723.723,0,0,0,.81.809h9.569a.792.792,0,0,0,.81-.809V7078.6a2.579,2.579,0,0,0-2.577-2.576Z" fill="#3e3a39"/>
      </g>
    </g>
    <rect id="長方形_398" data-name="長方形 398" width="2.65" height="2.797" transform="translate(844.746 7092.295)" fill="#3e3a39"/>
    <rect id="長方形_399" data-name="長方形 399" width="2.65" height="2.797" transform="translate(844.746 7094.945)" fill="#898989"/>
    <rect id="長方形_400" data-name="長方形 400" width="2.65" height="2.65" transform="translate(844.746 7098.479)" fill="#ebd784"/>
    <path id="長方形_401" data-name="長方形 401" d="M-.368-.368H5.668V10.968H-.368Zm5.3.736H.368v9.863H4.932Z" transform="translate(843.421 7091.412)" fill="#3e3a39"/>
    <path id="長方形_402" data-name="長方形 402" d="M-.368-.368H2.723V8.907H-.368ZM1.987.368H.368v7.8H1.987Z" transform="translate(844.893 7092.443)" fill="#3e3a39"/>
    <g id="グループ_671" data-name="グループ 671">
      <g id="グループ_670" data-name="グループ 670" clip-path="url(#clip-path-3)">
        <path id="線_275" data-name="線 275" d="M1.261,1.332-.211.3.211-.3,1.683.729Z" transform="translate(843.421 7091.412)" fill="#3e3a39"/>
        <path id="線_276" data-name="線 276" d="M.211,1.332l-.422-.6L1.261-.3l.422.6Z" transform="translate(843.421 7100.981)" fill="#3e3a39"/>
        <path id="線_277" data-name="線 277" d="M1.261,1.332-.211.3.211-.3,1.683.729Z" transform="translate(847.248 7100.981)" fill="#3e3a39"/>
        <path id="線_278" data-name="線 278" d="M.211,1.332l-.422-.6L1.261-.3l.422.6Z" transform="translate(847.248 7091.412)" fill="#3e3a39"/>
        <path id="パス_510" data-name="パス 510" d="M846.071,7110.771a1.406,1.406,0,1,1,0,2.8,1.4,1.4,0,1,1,0-2.8Zm0,2.061a.676.676,0,1,0,0-1.325.662.662,0,1,0,0,1.325Z" fill="#3e3a39"/>
        <path id="パス_511" data-name="パス 511" d="M846.071,7116.807a4.638,4.638,0,1,1,0-9.275,4.831,4.831,0,0,1,3.4,1.356,4.59,4.59,0,0,1,0,6.563A4.831,4.831,0,0,1,846.071,7116.807Zm0-8.539a3.9,3.9,0,1,0,4.048,3.9A3.906,3.906,0,0,0,846.071,7108.268Z" fill="#3e3a39"/>
        <path id="パス_512" data-name="パス 512" d="M838.857,7121.444h-9.422a1.2,1.2,0,0,1-1.325-1.177V7078.6a2.953,2.953,0,0,1,2.945-2.944h6.035a2.988,2.988,0,0,1,3.092,2.944v41.663A1.2,1.2,0,0,1,838.857,7121.444Z" fill="#fff"/>
        <path id="パス_513" data-name="パス 513" d="M838.857,7121.812h-9.422a1.571,1.571,0,0,1-1.693-1.545V7078.6a3.316,3.316,0,0,1,3.313-3.312h6.035a3.353,3.353,0,0,1,3.46,3.312v41.663A1.571,1.571,0,0,1,838.857,7121.812Zm-7.8-45.784a2.579,2.579,0,0,0-2.577,2.576v41.663c0,.6.516.809.957.809h9.422c.441,0,.957-.212.957-.809V7078.6a2.625,2.625,0,0,0-2.724-2.576Z" fill="#3e3a39"/>
      </g>
    </g>
    <path id="長方形_404" data-name="長方形 404" d="M-.368-.368H5.815V10.968H-.368ZM5.079.368H.368v9.863H5.079Z" transform="translate(831.349 7091.412)" fill="#3e3a39"/>
    <g id="グループ_673" data-name="グループ 673">
      <g id="グループ_672" data-name="グループ 672" clip-path="url(#clip-path-3)">
        <path id="線_279" data-name="線 279" d="M1.261,1.332-.211.3.211-.3,1.683.729Z" transform="translate(831.349 7091.412)" fill="#3e3a39"/>
        <path id="線_280" data-name="線 280" d="M.211,1.332l-.422-.6L1.261-.3l.422.6Z" transform="translate(831.349 7100.981)" fill="#3e3a39"/>
        <path id="線_281" data-name="線 281" d="M1.261,1.332-.211.3.211-.3,1.683.729Z" transform="translate(835.324 7100.981)" fill="#3e3a39"/>
        <path id="線_282" data-name="線 282" d="M.211,1.332l-.422-.6L1.261-.3l.422.6Z" transform="translate(835.324 7091.412)" fill="#3e3a39"/>
        <path id="パス_514" data-name="パス 514" d="M834.146,7110.771a1.4,1.4,0,1,1-1.4,1.4A1.368,1.368,0,0,1,834.146,7110.771Zm0,2.061a.662.662,0,1,0-.662-.662A.641.641,0,0,0,834.146,7112.832Z" fill="#3e3a39"/>
        <path id="パス_515" data-name="パス 515" d="M834.146,7116.807a4.638,4.638,0,1,1,4.637-4.637A4.642,4.642,0,0,1,834.146,7116.807Zm0-8.539a3.9,3.9,0,1,0,3.9,3.9A3.906,3.906,0,0,0,834.146,7108.268Z" fill="#3e3a39"/>
      </g>
    </g>
    <rect id="長方形_406" data-name="長方形 406" width="2.503" height="0.589" transform="translate(832.821 7100.54)" fill="#a7436a"/>
    <g id="グループ_675" data-name="グループ 675">
      <g id="グループ_674" data-name="グループ 674" clip-path="url(#clip-path-3)">
        <path id="線_283" data-name="線 283" d="M2.5.368H0V-.368H2.5Z" transform="translate(832.821 7098.479)" fill="#a7436a"/>
        <path id="線_284" data-name="線 284" d="M2.5.368H0V-.368H2.5Z" transform="translate(832.821 7095.534)" fill="#a7436a"/>
      </g>
    </g>
    <path id="長方形_408" data-name="長方形 408" d="M-.368-.368H2.871V8.907H-.368Zm2.5.736H.368v7.8H2.135Z" transform="translate(832.821 7092.443)" fill="#3e3a39"/>
    <path id="パス_649" data-name="パス 649" d="M11.353,10.32a31.335,31.335,0,0,0-4.2-3.78A15.237,15.237,0,0,0,9.236,3.012a2.352,2.352,0,0,1,.353-.617l-.529-.542a2.349,2.349,0,0,1-.806.1L3.755,2H3.427a5.922,5.922,0,0,1-1-.063l.025,1.021a8.478,8.478,0,0,1,1.3-.1L7.963,2.8a2.14,2.14,0,0,0,.3-.013.267.267,0,0,1-.038.088c-.025.063-.038.076-.063.151a13.657,13.657,0,0,1-4.5,5.683,10.143,10.143,0,0,1-2.558,1.449,2.8,2.8,0,0,1,.617.832A16.226,16.226,0,0,0,4.2,9.475,13.678,13.678,0,0,0,6.6,7.22a23.435,23.435,0,0,1,4.032,3.893ZM16.027,5.7a23.781,23.781,0,0,1,4.914,5.418l.769-.643c-.844-1.121-1.361-1.777-1.84-2.293a19.268,19.268,0,0,0,4.158-4.725,3.6,3.6,0,0,1,.5-.668L24,2.155a1.538,1.538,0,0,1-.706.088H15.952a9.158,9.158,0,0,1-1.474-.076v1c.428-.038.781-.05,1.462-.05,7.018-.013,7.018-.013,7.195-.025-.05.076-.063.088-.1.151a18.393,18.393,0,0,1-2.079,2.734,21.974,21.974,0,0,1-1.676,1.55A27.226,27.226,0,0,0,16.72,5.141ZM26.8,6.678a13.764,13.764,0,0,1,1.562-.05h7.308a14.414,14.414,0,0,1,1.537.05V5.658a9.938,9.938,0,0,1-1.525.063H28.363A8.913,8.913,0,0,1,26.8,5.645Zm16.821,4.712a8.57,8.57,0,0,1-.063-1.336V6.262a4.4,4.4,0,0,0-.05-.743l.025-.013a1.39,1.39,0,0,0,.391.214,25.69,25.69,0,0,1,4.7,2.495l.542-.932a31.249,31.249,0,0,0-5.607-2.659V2.268a7.909,7.909,0,0,1,.063-1.31H42.538a7.471,7.471,0,0,1,.076,1.285v7.825a8.1,8.1,0,0,1-.076,1.323ZM61.173,2.054a1.693,1.693,0,0,1-.806.1h-6.2a7.572,7.572,0,0,1-1.424-.088V3.087a8.762,8.762,0,0,1,1.411-.076h6.413a9.3,9.3,0,0,1-3.969,6,9.362,9.362,0,0,1-2.848,1.336,2.385,2.385,0,0,1,.617.882,11.571,11.571,0,0,0,3.956-2.369A10.736,10.736,0,0,0,61.488,3.39c.176-.643.176-.643.265-.781Zm9.551,3.692a9.325,9.325,0,0,1-1.953,2.281,11.335,11.335,0,0,1-2.885,1.865,2.242,2.242,0,0,1,.567.68,11.169,11.169,0,0,0,4.725-4.246.808.808,0,0,0,.063-.139c-.025.365-.05.68-.05.706l.025,3.755v.05a6.805,6.805,0,0,1-.038.932h.958a4.488,4.488,0,0,1-.063-.983l-.063-4.9h1.21a6.883,6.883,0,0,1,1.134.063V4.939A6.431,6.431,0,0,1,73.219,5H72l-.013-.932v-.2a3.8,3.8,0,0,1,.05-.693h-.907a4.667,4.667,0,0,1,.063.945L71.2,5H67.5a5.08,5.08,0,0,1-1.121-.076v.882a6.609,6.609,0,0,1,1.134-.063Zm7.6-2.974a13.913,13.913,0,0,1,3,2.47l.655-.781a16.414,16.414,0,0,0-3.037-2.369Zm.088,8.19a6.619,6.619,0,0,1,.756-.2,12.7,12.7,0,0,0,4.7-1.877A11.051,11.051,0,0,0,87.709,4.07a2.524,2.524,0,0,1-.769-.743A9.521,9.521,0,0,1,81.8,8.934a10.967,10.967,0,0,1-3.667.97ZM90.657,3.654A41.946,41.946,0,0,1,95,3.238a25.787,25.787,0,0,0,2.772-.277,8.247,8.247,0,0,0-1.2.668A4.794,4.794,0,0,0,94.223,7.5a3.051,3.051,0,0,0,1.4,2.57,6.356,6.356,0,0,0,2.722.97c.227.038.252.05.391.076l.164-1.021h-.126a6.458,6.458,0,0,1-1.89-.4,2.47,2.47,0,0,1-1.764-2.331,3.851,3.851,0,0,1,1.55-2.911,6.2,6.2,0,0,1,2.419-1.26,5.285,5.285,0,0,1,1.411-.176l-.076-.932a8.51,8.51,0,0,1-1.5.139l-.718.025c-.416.013-.58.025-2.129.113L94.1,2.482c-1.55.088-1.625.1-2.331.151-.391.025-.542.038-.718.038-.088,0-.214,0-.454-.013Zm7.736,1.21a8.861,8.861,0,0,1,1.285,2l.643-.378a9.565,9.565,0,0,0-1.3-1.953Zm1.436-.68a9.971,9.971,0,0,1,1.285,1.978l.63-.353a10.211,10.211,0,0,0-1.3-1.966ZM113.551,1.7c-.227.088-.227.088-1.071.088h-6.766a9.235,9.235,0,0,1-1.5-.088v.97a12.166,12.166,0,0,1,1.487-.063h7.157a6.685,6.685,0,0,1-1.411,1.877,5.455,5.455,0,0,1-1.991,1.2,2.475,2.475,0,0,1,.617.718,7.541,7.541,0,0,0,3.679-3.591,2.261,2.261,0,0,1,.3-.5Zm-5.494,2.192a3.327,3.327,0,0,1,.05.68c0,2.457-.491,3.742-1.827,4.813a5.921,5.921,0,0,1-2.306,1.159,2.464,2.464,0,0,1,.58.844,6.864,6.864,0,0,0,3.226-2.18,6.749,6.749,0,0,0,1.247-4.435,4.571,4.571,0,0,1,.05-.882Zm16.972-1.7h-6.2a8.933,8.933,0,0,1-1.424-.076V3.125a9.3,9.3,0,0,1,1.411-.076h6.413a10.211,10.211,0,0,1-2.205,4.486,10.118,10.118,0,0,1-4.612,2.86,2.493,2.493,0,0,1,.617.869,11.692,11.692,0,0,0,4.586-2.986,11.253,11.253,0,0,0,2.57-5.015l.025-.076a1.485,1.485,0,0,0,.441.063,1.43,1.43,0,1,0-1.424-1.424,1.335,1.335,0,0,0,.05.365ZM126.668.92a.9.9,0,1,1-.907.895A.9.9,0,0,1,126.668.92Zm5.065.353a7.411,7.411,0,0,1,.05,1.058V5.7a7.64,7.64,0,0,1-.05,1.058h1.046a6.671,6.671,0,0,1-.05-1.046V2.319a6.882,6.882,0,0,1,.05-1.046Zm5.569,0a7.007,7.007,0,0,1,.05,1.109V3.805a15.667,15.667,0,0,1-.176,3.213,3.759,3.759,0,0,1-2.016,2.659,7.336,7.336,0,0,1-2.394.857,2.41,2.41,0,0,1,.529.869,9.92,9.92,0,0,0,2.293-.907,4.788,4.788,0,0,0,2.394-2.8,14.2,14.2,0,0,0,.315-3.843V2.369a5.626,5.626,0,0,1,.063-1.1Zm8.946,1.247a17.63,17.63,0,0,1-2.7-.139l-.013.869a2.235,2.235,0,0,1,.277-.013h.2c.466.013,1.651.038,1.852.038a1.4,1.4,0,0,0,.239-.025L146,3.44a12.538,12.538,0,0,1-2.822,3.6l.706.706a4.169,4.169,0,0,1,.97-1.046,4.733,4.733,0,0,1,2.81-1.336c.592,0,.895.3,1,1a9.782,9.782,0,0,0-1.877,1.008,2.605,2.605,0,0,0-1.285,1.991c0,1.3,1.1,1.94,3.352,1.94a19.547,19.547,0,0,0,3.062-.252,4.959,4.959,0,0,1,.5-.063l-.113-.97a10.557,10.557,0,0,1-3.364.491c-1.777,0-2.558-.365-2.558-1.2,0-.756.655-1.348,2.369-2.155a3.314,3.314,0,0,1,.013.378,18.122,18.122,0,0,1-.076,1.814l.857-.013a2.74,2.74,0,0,1-.025-.454c0-.113,0-.29.013-.567.013-.252.013-.529.013-.693,0-.315,0-.441-.025-.769a20.92,20.92,0,0,1,3.364-1.109l-.4-.882a2.772,2.772,0,0,1-.857.365c-.554.2-1.273.466-2.192.832a1.529,1.529,0,0,0-1.663-1.4,3.353,3.353,0,0,0-1.9.617c-.126.088-.126.088-.58.441a.1.1,0,0,1-.025-.038V5.67a.012.012,0,0,0,.013-.013,2.062,2.062,0,0,1,.164-.126c.05-.038.3-.328.428-.479a9.291,9.291,0,0,0,1.134-1.789,40.684,40.684,0,0,0,4.158-.328,3.928,3.928,0,0,1,.5-.063l-.076-.857a17.734,17.734,0,0,1-3.969.479,2.145,2.145,0,0,0-.265.013c.063-.113.227-.454.391-.857a2.676,2.676,0,0,1,.328-.68L147.055.794a5.348,5.348,0,0,1-.6,1.726ZM3.4,26.827A4.808,4.808,0,0,1,2.18,25.215c.05-.428.088-.769.113-1.386a3.49,3.49,0,0,1,.05-.479l-.819-.113c.013.164.025.277.025.567A8.659,8.659,0,0,1,.34,28.4a2.007,2.007,0,0,1,.706.479A9.531,9.531,0,0,0,2.029,26.1,4.3,4.3,0,0,0,3.3,27.646c1.058.806,2.218,1.033,5.279,1.033,1.751,0,2.293-.013,3.452-.063a2.62,2.62,0,0,1,.29-.907,27.475,27.475,0,0,1-4.221.2c-2.255,0-3.137-.126-3.956-.554V25.013H5.166a5.994,5.994,0,0,1,1.058.076v-.832a6.283,6.283,0,0,1-1.046.063H4.145V22.543h.983a7.358,7.358,0,0,1,1.21.076v-.857a7.018,7.018,0,0,1-1.222.076H4.095V20.149h.882a7.341,7.341,0,0,1,1.147.063v-.819a6.161,6.161,0,0,1-1.147.063H4.095v-.529a6.157,6.157,0,0,1,.076-1.235H3.263a6.308,6.308,0,0,1,.076,1.235v.529H2.331A6.257,6.257,0,0,1,1.2,19.393v.819a7.071,7.071,0,0,1,1.134-.063H3.339v1.688H2a7.429,7.429,0,0,1-1.26-.076v.857A6.6,6.6,0,0,1,2,22.543H3.4Zm7.812-7.207a9.555,9.555,0,0,1,.05-1.247,7.288,7.288,0,0,1-1.273.063H7.963A8.067,8.067,0,0,1,6.7,18.36v.857a8.747,8.747,0,0,1,1.222-.063h2.507v2.533H8.089a9.866,9.866,0,0,1-1.285-.05,10.28,10.28,0,0,1,.063,1.411v2.772c0,.567.088.769.416.92a4.523,4.523,0,0,0,1.84.2c1.688,0,2.255-.126,2.482-.529a5.049,5.049,0,0,0,.34-2.066,3.5,3.5,0,0,1-.781-.353,10.217,10.217,0,0,1-.076,1.424c-.076.479-.189.643-.529.706a15.478,15.478,0,0,1-1.7.076c-.693,0-1.021-.038-1.121-.139-.076-.063-.088-.139-.088-.378V22.392H9.866a11.1,11.1,0,0,1,1.4.05,9.9,9.9,0,0,1-.05-1.348Zm5.431.29h-1.7a7.14,7.14,0,0,1-1.147-.076v.781a6.883,6.883,0,0,1,1.134-.063h1.714v.781H15.473c-.529,0-.869-.013-1.2-.038a8.4,8.4,0,0,1,.038,1.109v1.474c0,.63-.013.907-.038,1.184.3-.025.643-.038,1.172-.038h1.2v.844H15.259a6.942,6.942,0,0,1-1.159-.063v.781a10.847,10.847,0,0,1,1.147-.063h1.4v.983c-1.285.126-2,.176-2.394.176-.113,0-.328-.013-.529-.025l.164.869a5.885,5.885,0,0,1,.668-.1c2.142-.214,3.4-.378,5.166-.68v-.668c-1.109.189-1.537.252-2.344.353v-.907h1.386a6.282,6.282,0,0,1,1.033.05v-.756a7.6,7.6,0,0,1-1.147.05H17.375v-.844h1.26c.529,0,.857.013,1.159.038a8.548,8.548,0,0,1-.05-1.2V22.4a6.7,6.7,0,0,1,.05-1.109c-.3.025-.617.038-1.109.038h-1.31v-.781h1.613A5.541,5.541,0,0,1,20,20.6v-.756a5.776,5.776,0,0,1-1.109.063H17.375v-1a17.088,17.088,0,0,0,1.8-.391c.454-.113.454-.113.63-.151l-.554-.643A16.12,16.12,0,0,1,14,18.6a1.7,1.7,0,0,1,.315.668c.958-.076,1.424-.113,2.331-.239Zm0,2.029v.92H15.032v-.92Zm.731,0h1.663v.92H17.375Zm-.731,1.5v.983H15.032v-.983Zm.731,0h1.663v.983H17.375ZM22.453,20.5c.013-.428.013-.857.025-1.751a3.774,3.774,0,0,1,.076-.958h-.932a7.046,7.046,0,0,1,.076,1.449c0,.466,0,.832-.013,1.26h-.416a6.624,6.624,0,0,1-1.121-.063V21.3a7.694,7.694,0,0,1,1.172-.063h.328a13.314,13.314,0,0,1-.97,5.166,6.518,6.518,0,0,1-1.462,2.041,2.814,2.814,0,0,1,.718.542,8.717,8.717,0,0,0,1.978-3.7,18.916,18.916,0,0,0,.517-4.045h1.55a32.054,32.054,0,0,1-.454,6.325c-.088.378-.227.466-.693.466a6.977,6.977,0,0,1-1.361-.176,3.374,3.374,0,0,1,.139.844,12.393,12.393,0,0,0,1.336.1c.693,0,1.033-.164,1.21-.617.34-.819.5-2.6.592-6.4.025-.794.038-1.046.063-1.323a9.21,9.21,0,0,1-1.121.05Zm6.678-2.23a3.876,3.876,0,0,1,.05.668c0,.2,0,.441-.013.819-.1,3.969-.113,4.284-.113,5.128a3.51,3.51,0,0,0,.693,2.583,2.988,2.988,0,0,0,2.369.882,4.411,4.411,0,0,0,3.553-1.575,7.665,7.665,0,0,0,1.4-2.86,3.564,3.564,0,0,1-.907-.6,7.485,7.485,0,0,1-.617,1.978,3.619,3.619,0,0,1-3.377,2.192,2.378,2.378,0,0,1-1.575-.491A1.983,1.983,0,0,1,30,25.479c-.013-.29-.025-.6-.025-.756,0-.567.038-2.281.088-3.793a19.427,19.427,0,0,1,.164-2.659Zm11.2.088a8.156,8.156,0,0,1,1.84,1.676l.554-.58a9.141,9.141,0,0,0-1.852-1.638Zm-.466,3.125a8.943,8.943,0,0,1,2,1.613l.5-.655a11.755,11.755,0,0,0-2.016-1.525Zm1.966,3.024a14.42,14.42,0,0,1-1.2,2.885,3.5,3.5,0,0,1-.63.895l.718.63c.076-.151.126-.252.29-.542A17.89,17.89,0,0,0,42.487,25Zm3.944,1.336c.4,0,.731.013,1.121.038-.025-.29-.038-.693-.038-1.222V19.305a11.267,11.267,0,0,1,.05-1.26c-.365.025-.617.038-1.021.038H44.176a9.963,9.963,0,0,1-1.008-.038c.025.3.038.693.038,1.134v5.393a11.111,11.111,0,0,1-.038,1.31c.265-.025.6-.038,1.046-.038Zm-1.84-7.081h2.192v1.651H43.936Zm0,2.306h2.192v1.676H43.936Zm0,2.331h2.192v1.764H43.936Zm1.424,3.213a9.76,9.76,0,0,0,1.663,2.255,2.624,2.624,0,0,1,.6-.554A6.223,6.223,0,0,1,45.99,26.26ZM48.875,26a8.311,8.311,0,0,1-.063-1.3V19.734a7.049,7.049,0,0,1,.076-1.3h-.92a8.548,8.548,0,0,1,.076,1.285V24.7a8.392,8.392,0,0,1-.076,1.3Zm-4.927.239a4.984,4.984,0,0,1-1.663,2.192,3.012,3.012,0,0,1,.592.554,6.975,6.975,0,0,0,1.739-2.407ZM50.9,19.318a10.5,10.5,0,0,1,.076-1.487h-.932a12.375,12.375,0,0,1,.076,1.487v8.4c0,.29-.076.328-.643.328a10.046,10.046,0,0,1-1.26-.1,3.252,3.252,0,0,1,.214.806c.29.025.882.038,1.121.038,1.084,0,1.348-.189,1.348-.958Zm7.484,8.089a4.234,4.234,0,0,1-1.361-.769,3.854,3.854,0,0,1-1-1.386c.088-.3.277-1.033.34-1.336l.151-.655-.882-.176v.126a7.969,7.969,0,0,1-.769,2.873,6.707,6.707,0,0,1-1.7,2.243,2.338,2.338,0,0,1,.655.592,8.523,8.523,0,0,0,1.915-2.86c.668,1.336,1.9,2.092,3.868,2.369a17.079,17.079,0,0,0,2.759.1c.34,0,.428,0,1.525-.025a2.334,2.334,0,0,1,.277-.882c-1.058.088-1.928.126-2.948.126a11.3,11.3,0,0,1-2.054-.139v-2.8H61.6a6.729,6.729,0,0,1,1.21.076V24.03a7.572,7.572,0,0,1-1.21.076H59.17V22.052h2.205a8.223,8.223,0,0,1,1.247.076v-.869a8.109,8.109,0,0,1-1.247.076H56.158a8.109,8.109,0,0,1-1.247-.076v.869a8.576,8.576,0,0,1,1.247-.076h2.23ZM58.2,19.091H54.785c-.5,0-.869-.013-1.273-.05a5.7,5.7,0,0,1,.05.857v.794a6.022,6.022,0,0,1-.05.895h.832V19.822h8.795v1.764h.819a6.022,6.022,0,0,1-.05-.895V19.9a5.7,5.7,0,0,1,.05-.857c-.4.038-.769.05-1.26.05H59.018v-.617a3.3,3.3,0,0,1,.088-.781h-.983a4.335,4.335,0,0,1,.076.794ZM68.569,20.5a6.941,6.941,0,0,1-1.361-.088l.013.958a7.6,7.6,0,0,1,1.336-.063L70.85,21.3a8.2,8.2,0,0,1-.781,3,7.37,7.37,0,0,1-3.276,3.314,2.61,2.61,0,0,1,.643.743,9.1,9.1,0,0,0,3.3-3.339A9.5,9.5,0,0,0,71.744,21.3l3.528-.013a27.744,27.744,0,0,1-.315,4.473c-.239,1.247-.441,1.55-1.058,1.55a5.32,5.32,0,0,1-1.625-.328,2.071,2.071,0,0,1,.139.794v.151a7.171,7.171,0,0,0,1.562.214c1.134,0,1.512-.454,1.827-2.18a34.37,34.37,0,0,0,.353-4.41,1.887,1.887,0,0,1,.1-.756l-.466-.4a2.013,2.013,0,0,1-.832.088l-3.15.013c.038-.353.038-.5.063-.895a10.52,10.52,0,0,1,.1-1.625l-1.021-.025A3.378,3.378,0,0,1,71,18.6c0,.554-.025,1.247-.076,1.89ZM79.72,23.778a13.764,13.764,0,0,1,1.562-.05h7.308a14.414,14.414,0,0,1,1.537.05V22.758a9.938,9.938,0,0,1-1.525.063H81.283a8.913,8.913,0,0,1-1.562-.076Zm16.821,4.712a7.794,7.794,0,0,1-.063-1.336V23.362a4.213,4.213,0,0,0-.05-.743l.025-.013a1.6,1.6,0,0,0,.391.214,26.241,26.241,0,0,1,4.7,2.495l.542-.932a33.081,33.081,0,0,0-5.607-2.659V19.368a7.17,7.17,0,0,1,.063-1.31H95.458a7.4,7.4,0,0,1,.076,1.285v7.825a8.359,8.359,0,0,1-.076,1.323Zm3.125-9.6a9.332,9.332,0,0,1,1.3,2l.63-.378a9.565,9.565,0,0,0-1.3-1.953Zm1.436-.68a9.194,9.194,0,0,1,1.285,1.991l.63-.365a10.614,10.614,0,0,0-1.3-1.966Zm10.71,1.537a3.626,3.626,0,0,1,1.462.315,3.322,3.322,0,0,1,2,3.163,3.8,3.8,0,0,1-2.23,3.528,7.553,7.553,0,0,1-2.1.592,2,2,0,0,1,.441.844,9.747,9.747,0,0,0,1.915-.58,4.588,4.588,0,0,0,2.885-4.347,4.218,4.218,0,0,0-1.222-3.074A4.878,4.878,0,0,0,111.5,18.94a5.117,5.117,0,0,0-5.393,5.153c0,1.764.895,3.074,2.092,3.074.907,0,1.651-.756,2.381-2.419A18.888,18.888,0,0,0,111.812,19.746Zm-.907.013a17.306,17.306,0,0,1-1.147,4.662c-.542,1.235-1.046,1.827-1.575,1.827-.68,0-1.21-.932-1.21-2.142a4.357,4.357,0,0,1,2.054-3.755A3.979,3.979,0,0,1,110.905,19.759Zm11.491.895c.189-.794.239-.958.3-1.159l-.907-.113a3.684,3.684,0,0,1-.1.743,20.869,20.869,0,0,1-1.235,3.994l.857.076.239-.63h5.153c-.063.794-.088,1-.176,1.625h-6.413a9.032,9.032,0,0,1-1.386-.076v.895a9.261,9.261,0,0,1,1.386-.076H126.4a5.358,5.358,0,0,1-.567,1.8.754.754,0,0,1-.756.34,14.036,14.036,0,0,1-2.331-.252,2.833,2.833,0,0,1,.214.869,19.2,19.2,0,0,0,2.1.151,1.448,1.448,0,0,0,1.6-.907,8.887,8.887,0,0,0,.554-2h1.2a10.844,10.844,0,0,1,1.4.076v-.895a7.718,7.718,0,0,1-1.4.076h-1.084c.088-.63.151-1.1.176-1.537a7.624,7.624,0,0,1,.113-.844,8.444,8.444,0,0,1-1.273.063h-4.574c.227-.706.3-.97.441-1.525h4.36a9.581,9.581,0,0,1,1.361.063v-.832a7.167,7.167,0,0,1-1.361.076Zm-2.57.126v-1.8h8.82v1.8h.857a6.189,6.189,0,0,1-.076-1.033v-.529a6.871,6.871,0,0,1,.05-1c-.277.025-.6.038-1.2.038h-8.114c-.592,0-.92-.013-1.184-.038a6.981,6.981,0,0,1,.05,1v.517a6.57,6.57,0,0,1-.076,1.046ZM133.3,18.726a9.289,9.289,0,0,1-1.31-.076v.832a9.289,9.289,0,0,1,1.31-.076h3.591v.92h-1.928a14.29,14.29,0,0,1-1.462-.05c.038.4.05.794.05,1.361V23.98c0,.554-.013.958-.05,1.361.441-.038.819-.05,1.449-.05h4.838c.655,0,1,.013,1.449.05a13.345,13.345,0,0,1-.05-1.361V21.636a13.345,13.345,0,0,1,.05-1.361,14.169,14.169,0,0,1-1.449.05h-2.142v-.92h3.73a10.075,10.075,0,0,1,1.336.076V18.65a9.942,9.942,0,0,1-1.336.076h-3.73a5.029,5.029,0,0,1,.088-1.1H136.8a5.871,5.871,0,0,1,.088,1.1Zm1,2.23h6.149v.819h-6.149Zm0,1.4h6.149v.832h-6.149Zm0,1.411h6.149v.895h-6.149Zm8.669,2.2a9.671,9.671,0,0,1-1.31.076h-8.581a8.956,8.956,0,0,1-1.273-.076v.857a9.338,9.338,0,0,1,1.273-.076h8.618a9.6,9.6,0,0,1,1.273.076Zm-7.472.958a5.271,5.271,0,0,1-1.474.857,10.759,10.759,0,0,1-2.079.617,2.64,2.64,0,0,1,.542.706,10.059,10.059,0,0,0,3.641-1.688Zm3.074.479A11.292,11.292,0,0,0,142.33,29.1a2.568,2.568,0,0,1,.542-.718,9.888,9.888,0,0,1-1.764-.479,7.942,7.942,0,0,1-1.928-.983Zm9.954-7.787a17.63,17.63,0,0,1-2.7-.139l-.013.869a2.234,2.234,0,0,1,.277-.013h.2c.466.013,1.651.038,1.852.038a1.4,1.4,0,0,0,.239-.025l-.113.189a12.538,12.538,0,0,1-2.822,3.6l.706.706a4.169,4.169,0,0,1,.97-1.046,4.733,4.733,0,0,1,2.81-1.336c.592,0,.895.3,1,1a9.781,9.781,0,0,0-1.877,1.008,2.605,2.605,0,0,0-1.285,1.991c0,1.3,1.1,1.94,3.352,1.94a19.547,19.547,0,0,0,3.062-.252,4.959,4.959,0,0,1,.5-.063l-.113-.97a10.557,10.557,0,0,1-3.364.491c-1.777,0-2.558-.365-2.558-1.2,0-.756.655-1.348,2.369-2.155a3.314,3.314,0,0,1,.013.378,18.122,18.122,0,0,1-.076,1.814l.857-.013a2.74,2.74,0,0,1-.025-.454c0-.113,0-.29.013-.567.013-.252.013-.529.013-.693,0-.315,0-.441-.025-.769a20.92,20.92,0,0,1,3.364-1.109l-.4-.882a2.772,2.772,0,0,1-.857.365c-.554.2-1.273.466-2.192.832a1.529,1.529,0,0,0-1.663-1.4,3.353,3.353,0,0,0-1.9.617c-.126.088-.126.088-.58.441a.1.1,0,0,1-.025-.038V22.77a.012.012,0,0,0,.013-.013,2.062,2.062,0,0,1,.164-.126c.05-.038.3-.328.428-.479a9.291,9.291,0,0,0,1.134-1.789,40.684,40.684,0,0,0,4.158-.328,3.928,3.928,0,0,1,.5-.063l-.076-.857a17.733,17.733,0,0,1-3.969.479,2.145,2.145,0,0,0-.265.013c.063-.113.227-.454.391-.857a2.676,2.676,0,0,1,.328-.68l-1.008-.176a5.348,5.348,0,0,1-.6,1.726ZM2.142,37.98v2.936A8.1,8.1,0,0,1,.6,41.307l.2.832a12.457,12.457,0,0,1,1.336-.466v3.389c0,.227-.063.277-.328.277A6.5,6.5,0,0,1,.769,45.25a3.006,3.006,0,0,1,.164.769c.328.025.617.038.844.038.92,0,1.147-.176,1.147-.869V41.395c.365-.126.491-.176.945-.365v-.718c-.428.176-.554.227-.945.365v-2.7h.441a4.339,4.339,0,0,1,.769.05v-.806a4.339,4.339,0,0,1-.769.05H2.923v-1.2A7.072,7.072,0,0,1,3,34.805H2.066a8.664,8.664,0,0,1,.076,1.285v1.184h-.58a4.136,4.136,0,0,1-.832-.063v.832a4.371,4.371,0,0,1,.832-.063ZM4.36,44.406a4.636,4.636,0,0,1-.895.088l.151.769c.176-.05.454-.126.668-.164,1.2-.227,1.814-.365,2.57-.567v.491a10.724,10.724,0,0,1-.076,1.21H7.61A8.72,8.72,0,0,1,7.547,45V40.084h3.2A8.38,8.38,0,0,1,12,40.147V39.4a8.128,8.128,0,0,1-1.285.063H4.826A7.744,7.744,0,0,1,3.679,39.4v.731c.189-.025.378-.038.68-.05Zm.68-4.322H6.88v.932H5.04Zm0,1.5H6.88v.945H5.04Zm0,1.512H6.88v.819c-.718.164-.794.189-1.84.378Zm6.275-2.218a6.572,6.572,0,0,1-.857.038H8.719a5.482,5.482,0,0,1-.907-.05v.743a2.862,2.862,0,0,1,.428-.05A6.493,6.493,0,0,0,9.412,44a6.692,6.692,0,0,1-1.764,1.449,2.653,2.653,0,0,1,.491.567,7.612,7.612,0,0,0,1.714-1.487,8.323,8.323,0,0,0,1.915,1.537,2.676,2.676,0,0,1,.466-.668A6.741,6.741,0,0,1,10.282,44a8.722,8.722,0,0,0,1.159-2.155,3.913,3.913,0,0,1,.227-.542Zm-.517.68a6.3,6.3,0,0,1-.97,1.928,5.848,5.848,0,0,1-.92-1.928Zm-.945-2.8a9.5,9.5,0,0,1,1.159.05,10.428,10.428,0,0,1-.05-1.134V36.241a9.434,9.434,0,0,1,.05-1.1,9.3,9.3,0,0,1-1.184.05H5.935a9.053,9.053,0,0,1-1.184-.05,8.982,8.982,0,0,1,.05,1.071v1.449a10.98,10.98,0,0,1-.05,1.147,9.365,9.365,0,0,1,1.159-.05ZM5.544,35.813h4.675v.869H5.544Zm0,1.462h4.675v.882H5.544Zm11.29,1.235v.832h-1.84a6.92,6.92,0,0,1-1.222-.076v.819a7.219,7.219,0,0,1,1.222-.076h4.385a7.206,7.206,0,0,1,1.172.063v-.794a7,7,0,0,1-1.184.063H17.59v-.832h1.26A10.788,10.788,0,0,1,20,38.547c-.025-.315-.038-.63-.038-1.1V36.229A8.318,8.318,0,0,1,20,35.082a9.922,9.922,0,0,1-1.2.05H15.7a10.056,10.056,0,0,1-1.2-.05,9.209,9.209,0,0,1,.05,1.121v1.247a10.637,10.637,0,0,1-.05,1.1,10.916,10.916,0,0,1,1.159-.038Zm-1.55-2.772h3.944v.781H15.284Zm0,1.373h3.944V37.9H15.284Zm1.575,5.859v2.155c0,.214-.038.252-.3.252a3.825,3.825,0,0,1-.983-.126,4.145,4.145,0,0,1,.151.769,8,8,0,0,0,.857.05c.554,0,.731-.038.857-.164a.9.9,0,0,0,.176-.668V42.97h1.2a6.658,6.658,0,0,1,.945.05c-.025-.277-.038-.529-.038-.806V41.5c0-.277.013-.542.038-.819a6.143,6.143,0,0,1-.932.05H15.637a6.249,6.249,0,0,1-.932-.05,5.719,5.719,0,0,1,.05.819v.718a5.321,5.321,0,0,1-.05.806,6.468,6.468,0,0,1,.932-.05Zm-1.373-1.613h3.5v1.021h-3.5Zm-.252,1.991a4.628,4.628,0,0,1-1.512,1.991,2.786,2.786,0,0,1,.567.5,6.506,6.506,0,0,0,1.6-2.205Zm4.775,1.789a12.239,12.239,0,0,0-1.109-1.7l-.592.265a8.212,8.212,0,0,1,1.046,1.789ZM23.8,34.818a5.991,5.991,0,0,1-.731.844,8.067,8.067,0,0,1-2.722,1.84,2.556,2.556,0,0,1,.5.718A12.033,12.033,0,0,0,23.9,35.926c.441-.428.441-.428.63-.592Zm.416,3.2A5.894,5.894,0,0,1,23.146,39.2a9.525,9.525,0,0,1-2.822,1.9,3.1,3.1,0,0,1,.491.731,14.423,14.423,0,0,0,3.591-2.772,4.65,4.65,0,0,1,.517-.479Zm.315,3.5a6.481,6.481,0,0,1-1.033,1.26,10.662,10.662,0,0,1-3.591,2.495,3.279,3.279,0,0,1,.491.743,12.567,12.567,0,0,0,2.054-1.26,14.58,14.58,0,0,0,1.789-1.6,12.094,12.094,0,0,1,1-1.033Zm4.6-6.149a3.876,3.876,0,0,1,.05.668c0,.2,0,.441-.013.819-.1,3.969-.113,4.284-.113,5.128a3.51,3.51,0,0,0,.693,2.583,2.988,2.988,0,0,0,2.369.882,4.411,4.411,0,0,0,3.553-1.575,7.665,7.665,0,0,0,1.4-2.86,3.564,3.564,0,0,1-.907-.6,7.485,7.485,0,0,1-.617,1.978,3.619,3.619,0,0,1-3.377,2.192,2.378,2.378,0,0,1-1.575-.491A1.983,1.983,0,0,1,30,42.579c-.013-.29-.025-.6-.025-.756,0-.567.038-2.281.088-3.793a19.427,19.427,0,0,1,.164-2.659Zm21.206,8.82a4.307,4.307,0,0,1-.428-.29,11.029,11.029,0,0,0-3.515-1.84c-.05-1.222-.05-1.222-.076-1.928.932-.063,1.928-.164,2.8-.3.441-.063.567-.076.731-.088l-.05-.869a15.208,15.208,0,0,1-3.49.517c-.013-.668-.013-.668-.025-1.7a26.175,26.175,0,0,0,2.923-.3c.655-.088.655-.088.869-.1l-.063-.857a17.762,17.762,0,0,1-3.73.517,14.062,14.062,0,0,1,.088-1.777H45.4a9.867,9.867,0,0,1,.063,1.814c-.416,0-.844.013-1.1.013a15.653,15.653,0,0,1-3.226-.252l-.013.857a1.029,1.029,0,0,1,.176-.013,1.529,1.529,0,0,1,.227.013c1.134.088,2.155.126,3.074.126.29,0,.491,0,.857-.013l.025,1.726c-.353.013-.794.013-1.121.013a15.464,15.464,0,0,1-2.885-.2l-.013.832h.1c.076,0,.176,0,.315.013.781.063,1.373.088,2.129.088.4,0,1.033-.013,1.487-.025.013.328.013.567.025.731.013.365.013.63.025.743a1,1,0,0,0,.013.139c0,.113,0,.113.013.151a5.6,5.6,0,0,0-1.134-.1,5.489,5.489,0,0,0-1.31.126c-1.109.252-1.764.907-1.764,1.739a1.648,1.648,0,0,0,.68,1.323,3.282,3.282,0,0,0,1.953.5,2.537,2.537,0,0,0,2.129-.794,2.188,2.188,0,0,0,.315-1.373,3.623,3.623,0,0,0-.025-.454c.34.139.63.265.844.378a10.139,10.139,0,0,1,2.57,1.8Zm-4.75-1.021a1.65,1.65,0,0,1-.252,1.134,1.82,1.82,0,0,1-1.386.416c-1.1,0-1.726-.378-1.726-1.046s.819-1.121,2.066-1.121a4.625,4.625,0,0,1,1.285.139Zm13.8-6.363c-.857.025-1.84.05-3.049.1-2.029.076-2.029.076-2.394.076-.189,0-.277,0-.5-.013l.038.92c.844-.139,3.389-.265,5.922-.315v.655c0,.151.013.277.013.328,0,.466,0,.517.013.693a1.935,1.935,0,0,0-1.462-.567,2.1,2.1,0,0,0-2.23,2.079,2.107,2.107,0,0,0,3.654,1.31,1.765,1.765,0,0,0,.34-.617,3.264,3.264,0,0,1-1.411,2.659,6.458,6.458,0,0,1-2.041.945,2.766,2.766,0,0,1,.554.794,8.014,8.014,0,0,0,1.991-1.021,4.055,4.055,0,0,0,1.688-3.289,3.61,3.61,0,0,0-.3-1.487V37.564c1.021-.025,1.159-.025,1.348-.025a22.394,22.394,0,0,1,2.407.063v-.895c-.416.05-1.386.076-3.767.088v-.139a10.431,10.431,0,0,1,.063-1.575h-.945a4.246,4.246,0,0,1,.05.731Zm-.038,3.679a1.412,1.412,0,0,1-1.474,1.487,1.218,1.218,0,0,1-1.3-1.247,1.333,1.333,0,0,1,1.4-1.323,1.612,1.612,0,0,1,.844.2A.912.912,0,0,1,59.346,40.488Zm7.5,1.751a1.89,1.89,0,1,0,1.89,1.89A1.887,1.887,0,0,0,66.843,42.239Zm0,.718a1.172,1.172,0,1,1-1.172,1.172A1.178,1.178,0,0,1,66.843,42.957Z" transform="translate(742.795 6981.063)" fill="#333"/>
    <g id="グループ_676" data-name="グループ 676">
      <path id="パス_516" data-name="パス 516" d="M732.342,6984.975H710.849a3.488,3.488,0,0,0-3.534,3.533V7010a3.583,3.583,0,0,0,3.534,3.533h21.493a3.583,3.583,0,0,0,3.533-3.533v-21.494A3.487,3.487,0,0,0,732.342,6984.975Z" fill="#68be8d"/>
      <path id="パス_652" data-name="パス 652" d="M5.143.377A4.35,4.35,0,0,1,1.581-.972,5.005,5.005,0,0,1,.474-4.254H2.291a4.508,4.508,0,0,0,.5,1.953A2.644,2.644,0,0,0,5.24-1.208a3.207,3.207,0,0,0,2.2-.735,2.413,2.413,0,0,0,.831-1.895,2.206,2.206,0,0,0-.875-2,4.427,4.427,0,0,0-2.431-.57q-.174,0-.353,0t-.363.015V-7.928q.271.029.454.039t.4.01a3.633,3.633,0,0,0,1.6-.309,1.966,1.966,0,0,0,1.1-1.934,1.888,1.888,0,0,0-.735-1.6,2.742,2.742,0,0,0-1.711-.561,2.537,2.537,0,0,0-2.407,1.16A4.021,4.021,0,0,0,2.543-9.3H.822a5.222,5.222,0,0,1,.619-2.63,3.9,3.9,0,0,1,3.742-1.934,5.071,5.071,0,0,1,3.277.943A3.314,3.314,0,0,1,9.62-10.19a3.048,3.048,0,0,1-.686,2.069,2.883,2.883,0,0,1-1.1.773A3,3,0,0,1,9.537-6.192,3.5,3.5,0,0,1,10.151-4.1,4.266,4.266,0,0,1,8.846-.87,5.148,5.148,0,0,1,5.143.377Z" transform="translate(716.101 7006.779)" fill="#fff"/>
    </g>
  </g>
</svg>
