<svg xmlns="http://www.w3.org/2000/svg" xmlns:xlink="http://www.w3.org/1999/xlink" width="219.205" height="219.058" viewBox="0 0 219.205 219.058">
  <defs>
    <clipPath id="clip-path">
      <rect id="長方形_377" data-name="長方形 377" width="91.274" height="56.384" transform="translate(315.473 7067.71)" fill="none"/>
    </clipPath>
    <clipPath id="clip-path-2">
      <rect id="長方形_378" data-name="長方形 378" width="96.427" height="66.689" transform="translate(310.321 7062.558)" fill="none"/>
    </clipPath>
    <clipPath id="clip-path-3">
      <rect id="長方形_379" data-name="長方形 379" width="171.36" height="145.45" transform="translate(235.388 7038.709)" fill="none"/>
    </clipPath>
  </defs>
  <g id="グループ_750" data-name="グループ 750" transform="translate(-203 -6974.522)">
    <path id="パス_402" data-name="パス 402" d="M415.139,7193.58H210.066a6.944,6.944,0,0,1-7.066-6.919V6981.442a6.945,6.945,0,0,1,7.066-6.92H415.139a7.038,7.038,0,0,1,7.066,6.92v205.219A7.037,7.037,0,0,1,415.139,7193.58Z" fill="#fff"/>
    <path id="パス_403" data-name="パス 403" d="M332.992,7162.076l-16.341,6.772a3.687,3.687,0,0,1-3.533-.589l-42.693-50.789a2.86,2.86,0,0,1-.736-2.356v-3.975l13.4-3.68c2.8-1.178,6.477-.589,8.1,1.472l40.484,47.551,2.65-.147v4.122A1.821,1.821,0,0,1,332.992,7162.076Z" fill="#fff"/>
    <path id="パス_404" data-name="パス 404" d="M315.426,7169.424a3.735,3.735,0,0,1-2.569-.9l-.021-.023-42.7-50.8a3.218,3.218,0,0,1-.817-2.616v-4.226l.271-.074,13.374-3.674a8.354,8.354,0,0,1,3.193-.62,6.717,6.717,0,0,1,5.309,2.208l40.361,47.407,2.856-.159v4.511a2.181,2.181,0,0,1-1.564,1.964l-16.341,6.772A3.9,3.9,0,0,1,315.426,7169.424Zm-2.037-1.415a3.049,3.049,0,0,0,2.037.678,3.172,3.172,0,0,0,1.09-.182l16.36-6.779a1.465,1.465,0,0,0,1.073-1.27v-3.733l-2.444.135-.118-.139-40.493-47.562a6.066,6.066,0,0,0-4.735-1.932,7.607,7.607,0,0,0-2.929.572l-.022.009-.023.006-13.126,3.606v3.724l-.005.03a2.494,2.494,0,0,0,.658,2.063Z" fill="#3e3a39"/>
    <path id="パス_405" data-name="パス 405" d="M312.235,7170.615l-16.341,6.772a3.088,3.088,0,0,1-3.534-.589l-42.692-50.643a3,3,0,0,1-.736-2.355v-4.122l13.4-3.681c2.8-1.177,6.478-.441,8.1,1.473l40.485,47.55,2.65-.147V7169A1.69,1.69,0,0,1,312.235,7170.615Z" fill="#fff"/>
    <path id="パス_406" data-name="パス 406" d="M294.535,7178.062a3.241,3.241,0,0,1-2.458-1.028l-42.7-50.649a3.384,3.384,0,0,1-.817-2.62V7119.4l.271-.074,13.373-3.675a8.009,8.009,0,0,1,3.057-.586,7.224,7.224,0,0,1,5.441,2.17l40.366,47.41,2.856-.159V7169a2.059,2.059,0,0,1-1.564,1.965l-16.318,6.762A3.421,3.421,0,0,1,294.535,7178.062Zm-44.583-52.141,42.689,50.64a2.492,2.492,0,0,0,1.894.765,2.684,2.684,0,0,0,1.194-.267l.024-.011,16.365-6.781a1.36,1.36,0,0,0,1.074-1.271v-3.733l-2.444.135-.118-.139-40.485-47.55a6.48,6.48,0,0,0-4.88-1.911,7.26,7.26,0,0,0-2.794.538l-.022.009-.023.006-13.125,3.607v3.877l-.007.036A2.63,2.63,0,0,0,249.952,7125.921Z" fill="#3e3a39"/>
    <path id="パス_407" data-name="パス 407" d="M332.992,7157.807l-16.341,6.772a3.087,3.087,0,0,1-3.533-.589l-42.693-50.642c-1.619-2.062-.736-4.564,2.208-5.742l10.453-4.416c2.8-1.178,6.477-.442,8.1,1.472l42.692,50.789C334.612,7156.335,334.17,7157.365,332.992,7157.807Z" fill="#fff"/>
    <path id="パス_408" data-name="パス 408" d="M315.292,7165.253a3.239,3.239,0,0,1-2.457-1.027l-42.7-50.651a3.651,3.651,0,0,1-.765-3.24,4.864,4.864,0,0,1,3.122-3.07l10.45-4.415a8,8,0,0,1,3.081-.6,7.224,7.224,0,0,1,5.44,2.169l42.693,50.79a1.7,1.7,0,0,1,.395,1.54,2.178,2.178,0,0,1-1.424,1.4l-16.324,6.765A3.421,3.421,0,0,1,315.292,7165.253Zm-44.582-52.138,42.689,50.637a2.493,2.493,0,0,0,1.893.764,2.684,2.684,0,0,0,1.194-.267l.024-.011,16.353-6.777a1.467,1.467,0,0,0,.977-.9.967.967,0,0,0-.248-.878L290.9,7104.9a6.48,6.48,0,0,0-4.878-1.908,7.257,7.257,0,0,0-2.795.539l-10.459,4.418a4.16,4.16,0,0,0-2.688,2.579A2.894,2.894,0,0,0,270.711,7113.116Z" fill="#3e3a39"/>
    <path id="パス_409" data-name="パス 409" d="M299.721,7128.216l-4.269,1.767-2.65-3.239,4.269-1.767Z" fill="#3e3a39"/>
    <path id="パス_410" data-name="パス 410" d="M302.518,7131.455l-4.269,1.767-2.8-3.239,4.269-1.767Z" fill="#898989"/>
    <path id="パス_411" data-name="パス 411" d="M305.757,7135.43l-4.122,1.767-2.5-2.944,4.122-1.767Z" fill="#ebd784"/>
    <path id="パス_412" data-name="パス 412" d="M300.056,7139.995l-.173-.2-11.367-13.337,10.136-4.277,11.388,13.7Zm-10.328-13.254,10.542,12.369,8.565-3.535-10.4-12.508Z" fill="#3e3a39"/>
    <path id="パス_413" data-name="パス 413" d="M301.53,7137.643l-.176-.208L292.2,7126.6l.466-.192,4.52-1.871,9.174,11.041Zm-8.121-10.751,8.332,9.859,3.419-1.465-8.2-9.865Z" fill="#3e3a39"/>
    <path id="線_222" data-name="線 222" d="M3.666.515-.015.368.015-.368,3.7-.221Z" transform="translate(289.122 7126.597)" fill="#3e3a39"/>
    <path id="線_223" data-name="線 223" d="M.312,2.551l-.624-.39L1.16-.2,1.784.2Z" transform="translate(300.163 7137.197)" fill="#3e3a39"/>
    <path id="線_224" data-name="線 224" d="M3.651.661-.029.367.029-.367l3.68.294Z" transform="translate(305.757 7135.43)" fill="#3e3a39"/>
    <path id="線_225" data-name="線 225" d="M.312,2.551l-.624-.39L1.16-.2,1.784.2Z" transform="translate(297.071 7122.622)" fill="#3e3a39"/>
    <path id="パス_414" data-name="パス 414" d="M315.2,7147.957a2.823,2.823,0,0,1,2.184.935,1.553,1.553,0,0,1,.338,1.364,1.957,1.957,0,0,1-1.216,1.265,3.05,3.05,0,0,1-1.193.237,2.824,2.824,0,0,1-2.185-.935,1.553,1.553,0,0,1-.338-1.363,1.96,1.96,0,0,1,1.216-1.266A3.055,3.055,0,0,1,315.2,7147.957Zm.113,3.065a2.312,2.312,0,0,0,.9-.178,1.254,1.254,0,0,0,.792-.767.826.826,0,0,0-.2-.726,2.108,2.108,0,0,0-1.609-.658,2.315,2.315,0,0,0-.9.178,1.255,1.255,0,0,0-.792.768.825.825,0,0,0,.2.725A2.108,2.108,0,0,0,315.309,7151.021Z" fill="#3e3a39"/>
    <path id="パス_415" data-name="パス 415" d="M315.014,7142.389a14.242,14.242,0,0,1,5.175.951,9.738,9.738,0,0,1,3.957,2.746,5.6,5.6,0,0,1,1.336,5.09,7.76,7.76,0,0,1-5.009,5.056,13.116,13.116,0,0,1-5.212,1.048,13.943,13.943,0,0,1-5.073-.944,10.213,10.213,0,0,1-3.973-2.7l-.006-.007a5.751,5.751,0,0,1-1.309-5.062c.515-2.163,2.33-4.067,4.978-5.226l.013,0A14.1,14.1,0,0,1,315.014,7142.389Zm.247,14.155a12.372,12.372,0,0,0,4.923-.989l.013,0a7.047,7.047,0,0,0,4.571-4.55,4.887,4.887,0,0,0-1.181-4.436l-.005-.006c-1.749-2.118-5.032-3.434-8.567-3.434a13.372,13.372,0,0,0-4.847.889c-2.431,1.065-4.09,2.785-4.551,4.72a4.967,4.967,0,0,0,1.157,4.418A11.431,11.431,0,0,0,315.261,7156.544Z" fill="#3e3a39"/>
    <path id="パス_416" data-name="パス 416" d="M315.13,7143.388a10.284,10.284,0,0,1,7.838,3.14,4.945,4.945,0,0,1,1.191,4.39,7.1,7.1,0,0,1-4.418,4.578l-.01,0a12.423,12.423,0,0,1-4.5.826c-3.244,0-6.121-1.175-7.7-3.143a5.061,5.061,0,0,1-1.226-4.483,6.935,6.935,0,0,1,4.309-4.481l.01,0A12.444,12.444,0,0,1,315.13,7143.388Zm4.325,11.429a6.386,6.386,0,0,0,3.986-4.068,4.175,4.175,0,0,0-1.035-3.745,9.55,9.55,0,0,0-7.277-2.881,11.692,11.692,0,0,0-4.228.774,6.218,6.218,0,0,0-3.877,3.971,4.29,4.29,0,0,0,1.074,3.842l.007.008a7.249,7.249,0,0,0,3.032,2.128,11.278,11.278,0,0,0,4.1.743A11.682,11.682,0,0,0,319.455,7154.817Z" fill="#3e3a39"/>
    <path id="パス_417" data-name="パス 417" d="M312.235,7166.493l-16.341,6.772a3.39,3.39,0,0,1-3.534-.736l-42.692-50.643c-1.62-2.061-.736-4.564,2.208-5.741l10.452-4.27c2.8-1.177,6.478-.589,8.1,1.472l42.693,50.643C313.854,7164.873,313.412,7165.9,312.235,7166.493Z" fill="#fff"/>
    <path id="パス_418" data-name="パス 418" d="M294.713,7173.836a3.473,3.473,0,0,1-2.635-1.071l-42.7-50.651a3.649,3.649,0,0,1-.765-3.239,4.862,4.862,0,0,1,3.126-3.071l10.449-4.269a8.357,8.357,0,0,1,3.212-.627,6.715,6.715,0,0,1,5.31,2.208l42.689,50.638a1.71,1.71,0,0,1,.412,1.477,2.44,2.44,0,0,1-1.412,1.592l-.024.011-16.353,6.777A3.775,3.775,0,0,1,294.713,7173.836Zm-44.759-52.182,42.688,50.637a2.73,2.73,0,0,0,2.071.808,3.031,3.031,0,0,0,1.047-.177l16.322-6.764a1.754,1.754,0,0,0,1.009-1.079.986.986,0,0,0-.256-.854l-42.7-50.651a6.064,6.064,0,0,0-4.735-1.932,7.618,7.618,0,0,0-2.93.571l-10.456,4.271a4.159,4.159,0,0,0-2.691,2.58A2.892,2.892,0,0,0,249.954,7121.654Z" fill="#3e3a39"/>
    <path id="パス_419" data-name="パス 419" d="M279.3,7148.533l-.173-.2-11.367-13.337,10.136-4.277,11.388,13.7Zm-10.328-13.254,10.542,12.369,8.565-3.535-10.4-12.508Z" fill="#3e3a39"/>
    <path id="線_226" data-name="線 226" d="M3.666.515-.015.368.015-.368,3.7-.22Z" transform="translate(268.364 7135.136)" fill="#3e3a39"/>
    <path id="線_227" data-name="線 227" d="M.312,2.551l-.624-.39L1.16-.2,1.784.2Z" transform="translate(279.405 7145.735)" fill="#3e3a39"/>
    <path id="線_228" data-name="線 228" d="M3.651.661-.029.367.029-.367l3.68.294Z" transform="translate(285 7143.969)" fill="#3e3a39"/>
    <path id="線_229" data-name="線 229" d="M.317,2.689l-.634-.373,1.472-2.5.634.373Z" transform="translate(276.314 7131.161)" fill="#3e3a39"/>
    <path id="パス_420" data-name="パス 420" d="M296.335,7157.66c.589.736.3,1.619-.736,2.061a2.649,2.649,0,0,1-2.944-.589c-.589-.736-.3-1.619.736-2.061A2.647,2.647,0,0,1,296.335,7157.66Z" fill="#acd8e7"/>
    <path id="パス_421" data-name="パス 421" d="M294.438,7156.5a2.823,2.823,0,0,1,2.184.935,1.554,1.554,0,0,1,.338,1.363,1.959,1.959,0,0,1-1.216,1.266,3.057,3.057,0,0,1-1.192.237,2.824,2.824,0,0,1-2.184-.935,1.554,1.554,0,0,1-.338-1.364,1.96,1.96,0,0,1,1.216-1.266A3.048,3.048,0,0,1,294.438,7156.5Zm.114,3.065a2.308,2.308,0,0,0,.9-.177,1.255,1.255,0,0,0,.792-.768.826.826,0,0,0-.2-.725,2.108,2.108,0,0,0-1.61-.659,2.307,2.307,0,0,0-.9.178,1.255,1.255,0,0,0-.792.768.826.826,0,0,0,.2.725A2.108,2.108,0,0,0,294.552,7159.56Z" fill="#3e3a39"/>
    <path id="パス_422" data-name="パス 422" d="M294.438,7150.972a13.807,13.807,0,0,1,5.073.945,9.626,9.626,0,0,1,3.879,2.711,5.82,5.82,0,0,1,1.336,5.15,6.39,6.39,0,0,1-1.668,2.92,10.027,10.027,0,0,1-3.341,2.219l-.005,0a13.478,13.478,0,0,1-5.03.944,14.355,14.355,0,0,1-5.171-.951,10.325,10.325,0,0,1-4.053-2.742,5.539,5.539,0,0,1-1.312-5.008,7.84,7.84,0,0,1,4.982-5.143A13.71,13.71,0,0,1,294.438,7150.972Zm4.995,13.267c2.444-1.038,4.113-2.727,4.579-4.635a5.038,5.038,0,0,0-1.189-4.507c-1.727-2.09-4.94-3.389-8.385-3.389a12.968,12.968,0,0,0-5.025.99l-.005,0a7.125,7.125,0,0,0-4.546,4.635,4.82,4.82,0,0,0,1.153,4.353c1.844,2.121,5.166,3.439,8.668,3.439A12.747,12.747,0,0,0,299.433,7164.239Z" fill="#3e3a39"/>
    <path id="パス_423" data-name="パス 423" d="M294.417,7152a10.636,10.636,0,0,1,7.786,3.056l.006.007a4.947,4.947,0,0,1,1.191,4.391,7.1,7.1,0,0,1-4.417,4.577l-.01,0a12.425,12.425,0,0,1-4.5.827c-3.244,0-6.122-1.175-7.7-3.144a5.022,5.022,0,0,1-1.211-4.529,6.656,6.656,0,0,1,4.3-4.289A11.662,11.662,0,0,1,294.417,7152Zm7.234,3.543a9.89,9.89,0,0,0-7.234-2.807,10.92,10.92,0,0,0-4.267.843l-.01,0a5.942,5.942,0,0,0-3.86,3.785,4.307,4.307,0,0,0,1.061,3.877l.007.008a7.242,7.242,0,0,0,3.031,2.129,11.278,11.278,0,0,0,4.1.744,11.674,11.674,0,0,0,4.222-.774,6.384,6.384,0,0,0,3.985-4.067A4.175,4.175,0,0,0,301.651,7155.546Z" fill="#3e3a39"/>
    <path id="パス_424" data-name="パス 424" d="M284.558,7143.527l-4.122,1.767.442.442,4.122-1.767Z" fill="#a7436a"/>
    <path id="パス_425" data-name="パス 425" d="M280.772,7146.181l-.176-.208-9.169-10.85,5-1.9.168.2,9.006,10.685Zm-8.111-10.739,8.322,9.847,3.415-1.463-8.2-9.726Z" fill="#3e3a39"/>
    <path id="パス_426" data-name="パス 426" d="M240.246,7156.04c.147-1.03.736-1.619,1.472-1.619a1.32,1.32,0,0,1,1.325,1.325c0,.736-.295,1.325-1.325,2.355a9.037,9.037,0,0,0-2.356,3.239v.589h4.564v-.736h-3.68a8.55,8.55,0,0,1,2.061-2.65c1.325-1.178,1.619-1.914,1.619-2.8a1.975,1.975,0,0,0-2.208-2.061,2.375,2.375,0,0,0-2.356,2.208Z" fill="#3e3a39"/>
    <path id="パス_427" data-name="パス 427" d="M252.465,7154.863c-.148,0-.148,0-.148.147a4.859,4.859,0,0,1,.442.883c0,.147,0,.147.147,0h.295c0-.147.147-.147,0-.147a1.571,1.571,0,0,0-.295-.883c-.147-.148-.147-.148-.294-.148Zm-3.828-1.325c-.147.147-.147.147,0,.147a9.478,9.478,0,0,1,1.325,1.178c0,.147,0,.147.147,0l.147-.295c.148-.147.148-.147,0-.147a4.484,4.484,0,0,0-1.177-1.178c-.148,0-.148,0-.295.147Zm-.442,2.8c-.147,0-.147,0,0,.147a8.034,8.034,0,0,1,1.325,1.03c0,.148,0,.148.148,0l.294-.294v-.147a10.263,10.263,0,0,0-1.472-1.178.144.144,0,0,0-.147.147Zm2.061,3.238c0-.147,0-.147-.147-.294a.316.316,0,0,1-.294-.294c-.442,1.03-.736,1.766-1.031,2.5a2.553,2.553,0,0,1-.589.736c.148.148.295.148.442.295h.294c0-.147.148-.295.295-.442C249.52,7161.34,249.962,7160.457,250.256,7159.573Zm7.656-5.447a.144.144,0,0,0-.147-.147h-3.386v-.736a.147.147,0,1,0,0-.294h-.737a2.17,2.17,0,0,1,.148,1.03H250.7v.589h7.214Zm-2.945,6.772H253.2v-1.177h1.766Zm1.325-2.944c0-.147,0-.147-.147-.147h-1.766v-.589a.144.144,0,0,0,.147-.147l-.147-.147h-.589v.883h-1.62c-.147,0-.147,0-.147.147v.295c0,.147,0,.147.147.147a3.019,3.019,0,0,1,1.178-.147h.442v1.03h-1.178a3,3,0,0,1,.147.736v.589c0,1.178-.147,1.325-.147,1.325h.589v-.442h1.766v.3h.737s-.148-.147-.148-1.325v-.589c0-.295.148-.442.148-.589h-1.325v-1.03h.441a3.522,3.522,0,0,1,1.325.147c.147,0,.147,0,.147-.147Zm1.031-.147a7.371,7.371,0,0,1,.147-1.62.144.144,0,0,0-.147-.147h-1.914c.147-.294.295-.441.442-.736,0-.147,0-.147.147-.147v-.147a.144.144,0,0,0-.147-.147c-.147,0-.295-.148-.589-.148a.542.542,0,0,1-.147.442,1.274,1.274,0,0,1-.442.883H251.14c-.147,0-.147,0-.147.147v6.478c0,.147,0,.147.147.147h.441a.145.145,0,0,0,.148-.147,5.2,5.2,0,0,1-.148-1.472v-4.564h5.153v5.153c0,.294-.147.294-.442.294h-.883c.147.147.147.295.295.442,0,.147,0,.147.147.147.883,0,1.177,0,1.325-.147a1.117,1.117,0,0,0,.294-.589c0-.294-.147-1.031-.147-1.767Z" fill="#3e3a39"/>
    <path id="パス_428" data-name="パス 428" d="M346.831,7147.355c.147-1.178.736-1.62,1.472-1.62a1.236,1.236,0,0,1,1.325,1.325c0,.736-.295,1.178-1.473,2.356a8.493,8.493,0,0,0-2.208,3.238v.589h4.564v-.736h-3.68a8.551,8.551,0,0,1,2.061-2.65c1.325-1.178,1.619-1.914,1.619-2.8A1.975,1.975,0,0,0,348.3,7145a2.361,2.361,0,0,0-2.356,2.061Z" fill="#3e3a39"/>
    <path id="パス_429" data-name="パス 429" d="M358.9,7146.177c-.147,0-.147,0,0,.147a1.579,1.579,0,0,1,.295.883c.147.148.147.148.294,0h.3v-.147a3.126,3.126,0,0,0-.442-1.03H359.2Zm-3.68-1.325c-.147.147-.147.147,0,.147l1.178,1.178h.147l.294-.295c.147-.147.147-.147,0-.147a5.088,5.088,0,0,0-1.325-1.178h-.147Zm-.589,2.65v.294a8.929,8.929,0,0,1,1.472,1.031c0,.147,0,.147.147,0l.148-.295c.147-.147.147-.147,0-.147a9.6,9.6,0,0,0-1.325-1.178h-.148Zm2.061,3.386c.147-.147.147-.147,0-.3s-.294-.147-.442-.294a23.922,23.922,0,0,1-.883,2.5,3.208,3.208,0,0,0-.589.736c.147,0,.3.147.442.294h.147c.147,0,.147,0,.147-.147a.645.645,0,0,0,.147-.442A8.713,8.713,0,0,0,356.694,7150.888Zm7.655-5.594h-3.386v-.737l.148-.147a.145.145,0,0,0-.148-.147h-.736a1.6,1.6,0,0,1,.147.883v.148h-3.091v.588h7.066Zm-2.8,6.919h-1.766v-1.178h1.766Zm1.325-3.092h-1.914v-.883h-.589v.883h-1.766v.442h1.766v1.03h-.147a2.137,2.137,0,0,1-.883-.147c-.147,0-.147,0-.147.147v2.65h.589v-.441h1.766v.294h.589v-2.65a3.593,3.593,0,0,1-1.03.147h-.148v-1.03h1.914Zm1.031-.147v-1.619h-2.061c.294-.295.441-.442.441-.737.148-.147.148-.147.148-.294h.147c0-.147,0-.147-.147-.147a.888.888,0,0,0-.589-.147c0,.147-.148.294-.148.441l-.441.884h-3.533c-.148,0-.148,0-.148.147v6.477c0,.147,0,.147.148.147h.441v-6.183h5.153v5.153c0,.147-.147.294-.442.294h-.883a.543.543,0,0,1,.147.442c.147.147.147.147.3.147.883,0,1.177,0,1.324-.147a1.1,1.1,0,0,0,.148-.736v-4.122Z" fill="#3e3a39"/>
    <g id="グループ_651" data-name="グループ 651">
      <g id="グループ_650" data-name="グループ 650" clip-path="url(#clip-path)">
        <path id="パス_430" data-name="パス 430" d="M378.924,7084.051s-20.316-9.863-24.733-12.219c-4.416-2.208-8.1-4.122-14.721.295-4.858,3.091-10.158,6.477-12.661,8.1a6.415,6.415,0,0,0-2.355,2.5c-1.62,3.091-5.006,9.569-6.036,11.335-1.325,2.208-2.945,10.011-1.031,11.041s3.828-1.472,3.828-1.472,2.061,5.594,1.472,8.1c-.589,2.65,3.386,4.122,5.153.442-.442,6.036,5.005,3.533,6.183.883-.589,3.092,2.208,4.564,4.563,1.325a28.81,28.81,0,0,0,2.356-3.386,42.413,42.413,0,0,0,4.269-4.416s16.488,6.33,23.408,3.533c9.274.441,35.332,3.533,45.342,12.219,1.767,1.619,8.244-2.8,8.244-2.8l-10.01-27.088Z" fill="#f6e8da"/>
      </g>
    </g>
    <g id="グループ_653" data-name="グループ 653">
      <g id="グループ_652" data-name="グループ 652" clip-path="url(#clip-path-2)">
        <path id="パス_431" data-name="パス 431" d="M346.845,7069.091h0c2.689,0,4.971,1.142,7.388,2.351l.131.065c4.276,2.281,23.743,11.738,24.687,12.2l33.422,8.43.067.182,10.11,27.357-.238.162c-.193.131-4.75,3.218-7.333,3.218a1.96,1.96,0,0,1-1.363-.45,33.23,33.23,0,0,0-9.89-5.442,89.691,89.691,0,0,0-12.89-3.674,151,151,0,0,0-22.256-3.006,12.822,12.822,0,0,1-4.6.71,46.962,46.962,0,0,1-12.46-2.137c-3.048-.865-5.478-1.74-6.267-2.032a47.36,47.36,0,0,1-4.116,4.2,30.121,30.121,0,0,1-2.354,3.376,4.051,4.051,0,0,1-3.055,1.97,2.077,2.077,0,0,1-1.626-.767,2.792,2.792,0,0,1-.594-1.448,5.388,5.388,0,0,1-3.664,1.909,2.217,2.217,0,0,1-1.674-.693,3.479,3.479,0,0,1-.8-2.135,3.337,3.337,0,0,1-2.58,1.307,2.7,2.7,0,0,1-2.1-.974,2.467,2.467,0,0,1-.461-2.122c.45-1.91-.757-5.825-1.255-7.305a4.146,4.146,0,0,1-2.715,1.377,2.394,2.394,0,0,1-1.145-.293,1.953,1.953,0,0,1-.87-1.284,13.956,13.956,0,0,1,.187-5.4,17.271,17.271,0,0,1,1.573-4.872c.95-1.629,3.9-7.25,5.655-10.609l.377-.719a6.771,6.771,0,0,1,2.483-2.635c2.306-1.492,7.269-4.667,12.651-8.091A13.789,13.789,0,0,1,346.845,7069.091Zm7.177,3.068-.118-.059c-2.438-1.219-4.544-2.272-7.059-2.273h0c-2.226,0-4.5.828-7.171,2.606l-.007,0c-5.389,3.428-10.357,6.606-12.659,8.1l-.017.01a6.052,6.052,0,0,0-2.215,2.36l-.368.7c-1.762,3.364-4.712,8.994-5.673,10.642-1.071,1.785-2.329,7.356-1.684,9.7a1.354,1.354,0,0,0,.51.831,1.663,1.663,0,0,0,.8.205c1.344,0,2.553-1.561,2.565-1.577l.406-.531.231.627c.086.233,2.092,5.728,1.485,8.309a1.742,1.742,0,0,0,.317,1.5,1.962,1.962,0,0,0,1.529.7,3.043,3.043,0,0,0,2.617-2l.841-1.751-.142,1.937a3.884,3.884,0,0,0,.6,2.874,1.482,1.482,0,0,0,1.135.458,4.865,4.865,0,0,0,3.747-2.625l1.294-2.911-.6,3.129a2.693,2.693,0,0,0,.381,2.212,1.334,1.334,0,0,0,1.059.5,3.421,3.421,0,0,0,2.464-1.672l.008-.011a28.888,28.888,0,0,0,2.324-3.337l.029-.052.044-.041a42.547,42.547,0,0,0,4.206-4.34l.161-.257.283.108c.11.042,11.088,4.222,18.734,4.222a11.963,11.963,0,0,0,4.4-.687l.075-.03.081,0c9.234.439,35.421,3.506,45.566,12.309l.007.006a1.258,1.258,0,0,0,.87.26c2.045,0,5.712-2.3,6.679-2.932l-9.842-26.632L378.8,7084.4l-.034-.017C378.56,7084.283,358.4,7074.5,354.022,7072.159Z" fill="#3e3a39"/>
      </g>
    </g>
    <g id="グループ_655" data-name="グループ 655">
      <g id="グループ_654" data-name="グループ 654" clip-path="url(#clip-path-3)">
        <path id="線_230" data-name="線 230" d="M0,5.235a.23.23,0,0,1-.077-.013.23.23,0,0,1-.14-.293L1.55-.077a.23.23,0,0,1,.293-.14.23.23,0,0,1,.14.293L.217,5.082A.23.23,0,0,1,0,5.235Z" transform="translate(327.84 7107.165)" fill="#fff"/>
        <path id="線_231" data-name="線 231" d="M.278,5.1l-.555-.2L1.489-.1l.555.2Z" transform="translate(327.84 7107.165)" fill="#3e3a39"/>
        <path id="線_232" data-name="線 232" d="M0,7a.23.23,0,0,1-.076-.013A.23.23,0,0,1-.217,6.7L2.138-.076a.23.23,0,0,1,.293-.142.23.23,0,0,1,.142.293L.217,6.848A.23.23,0,0,1,0,7Z" transform="translate(334.023 7106.281)" fill="#fff"/>
        <path id="線_233" data-name="線 233" d="M.278,6.869l-.556-.193L2.077-.1,2.634.1Z" transform="translate(334.023 7106.281)" fill="#3e3a39"/>
        <path id="パス_432" data-name="パス 432" d="M317.534,7143.085c0,1.914-1.03,2.8-2.355,2.8-1.178,0-2.208-.883-2.208-2.8,0-2.061,2.208-5.152,2.208-5.152S317.534,7141.024,317.534,7143.085Z" fill="#acd8e7"/>
        <path id="パス_433" data-name="パス 433" d="M315.179,7146.25c-1.188,0-2.576-.829-2.576-3.165,0-2.154,2.184-5.236,2.277-5.366l.29-.406.3.4c.1.13,2.43,3.214,2.43,5.375C317.9,7145.418,316.5,7146.25,315.179,7146.25Zm.01-7.672c-.585.9-1.85,3.024-1.85,4.507,0,1.5.705,2.429,1.84,2.429,1.263,0,1.987-.885,1.987-2.429C317.166,7141.6,315.809,7139.473,315.189,7138.578Z" fill="#3e3a39"/>
        <path id="パス_434" data-name="パス 434" d="M317.534,7131.6c0,1.914-1.03,2.8-2.355,2.8-1.178,0-2.208-.883-2.208-2.8s2.208-5.152,2.208-5.152S317.534,7129.689,317.534,7131.6Z" fill="#acd8e7"/>
        <path id="パス_435" data-name="パス 435" d="M315.179,7134.767c-1.188,0-2.576-.829-2.576-3.165,0-2,2.179-5.223,2.272-5.359l.294-.432.307.423c.1.136,2.425,3.358,2.425,5.368C317.9,7133.936,316.5,7134.767,315.179,7134.767Zm.01-7.654c-.588.939-1.85,3.118-1.85,4.489,0,1.5.705,2.429,1.84,2.429,1.263,0,1.987-.885,1.987-2.429C317.166,7130.232,315.813,7128.047,315.189,7127.113Z" fill="#3e3a39"/>
        <path id="線_234" data-name="線 234" d="M32.682.368H0V-.368H32.682Z" transform="translate(261.739 7158.69)" fill="#3e3a39"/>
        <path id="線_235" data-name="線 235" d="M25.023.662,0,.368,0-.368l25.027.294Z" transform="translate(316.062 7150.004)" fill="#3e3a39"/>
        <path id="パス_436" data-name="パス 436" d="M337.409,7091.56l-7.8-4.417,3.975-7.066,7.8,4.563Z" fill="#fff"/>
        <path id="パス_437" data-name="パス 437" d="M337.546,7092.06l-8.44-4.777.18-.32,4.158-7.393,8.441,4.937-.182.316ZM330.107,7087l7.165,4.056,3.611-6.286-7.164-4.19Z" fill="#3e3a39"/>
        <path id="パス_438" data-name="パス 438" d="M341.825,7087.732l-11.188-6.478,1.325-2.208,11.188,6.478Z" fill="#fff"/>
        <path id="パス_439" data-name="パス 439" d="M341.954,7088.232l-.314-.182-11.512-6.665,1.7-2.84.314.182,11.512,6.665Zm-10.81-7.109,10.551,6.109.946-1.577-10.551-6.109Z" fill="#3e3a39"/>
        <path id="パス_440" data-name="パス 440" d="M324.306,7112.611l-6.625-3.828,12.513-21.346,6.478,3.828Z" fill="#fff"/>
        <path id="パス_441" data-name="パス 441" d="M324.441,7113.114l-.318-.184-6.945-4.013.187-.319,12.7-21.665,7.11,4.2-.183.316Zm-6.254-4.463,5.986,3.458,12-20.712-5.845-3.454Z" fill="#3e3a39"/>
        <path id="パス_442" data-name="パス 442" d="M334.6,7089.575l-1.807-1.129,2.7-4.731,1.832.916Zm-.817-1.378.548.342,1.983-3.593-.523-.262Z" fill="#3e3a39"/>
        <path id="パス_443" data-name="パス 443" d="M329.9,7086.407l-1.178-.589,2.5-4.269,1.178.736Z" fill="#fff"/>
        <path id="パス_444" data-name="パス 444" d="M330.039,7086.888l-1.833-.917,2.893-4.935,1.807,1.129Zm-.8-1.223.523.261,2.138-3.521-.549-.343Z" fill="#3e3a39"/>
        <path id="パス_445" data-name="パス 445" d="M338.881,7091.56l-1.178-.589,2.5-4.27,1.031.736Z" fill="#fff"/>
        <path id="パス_446" data-name="パス 446" d="M339.028,7092.044l-1.841-.92,2.905-4.957,1.629,1.164Zm-.808-1.227.514.257,2.018-3.531-.432-.309Z" fill="#3e3a39"/>
        <path id="パス_447" data-name="パス 447" d="M324.306,7112.611l-6.625-3.828-.883.589-.883,1.62,7.361,4.417.883-1.62Z" fill="#fff"/>
        <path id="パス_448" data-name="パス 448" d="M323.415,7115.921l-7.993-4.8,1.1-2.009,1.149-.766.2.114,6.836,3.95-.186,1.489-.033.062Zm-7.008-5.063,6.729,4.038.666-1.222.108-.866-6.215-3.591-.618.412Z" fill="#3e3a39"/>
        <path id="パス_449" data-name="パス 449" d="M317.093,7119.531l-1.767-1.031.736-1.767,2.061,1.325Z" fill="#fff"/>
        <path id="パス_450" data-name="パス 450" d="M317.2,7120.02l-2.337-1.364,1.029-2.47,2.753,1.77Zm-1.41-1.675,1.2.7.617-.881-1.369-.88Z" fill="#3e3a39"/>
        <path id="パス_451" data-name="パス 451" d="M322.54,7114.967l-6.036-3.533-2.355,4.27,6.036,3.386Z" fill="#fff"/>
        <path id="パス_452" data-name="パス 452" d="M316.364,7110.925l.326.191,6.35,3.717-2.717,4.755-6.673-3.743Zm5.676,4.175-5.4-3.159-2,3.619,5.4,3.028Z" fill="#3e3a39"/>
        <path id="線_236" data-name="線 236" d="M5.192,1.971-.108.352l.215-.7,5.3,1.619Z" transform="translate(315.326 7113.642)" fill="#3e3a39"/>
        <path id="線_237" data-name="線 237" d="M5.333,2.117-.114.35l.227-.7L5.561,1.417Z" transform="translate(315.915 7115.409)" fill="#3e3a39"/>
        <path id="パス_453" data-name="パス 453" d="M345.653,7075.807l-6.478-3.828,17.519-27.088,3.975,2.208Z" fill="#fff"/>
        <path id="パス_454" data-name="パス 454" d="M345.8,7076.321l-7.141-4.22,17.914-27.7,4.589,2.55-.166.318Zm-6.107-4.464,5.814,3.436,14.67-28.045-3.36-1.867Z" fill="#3e3a39"/>
        <path id="線_238" data-name="線 238" d="M.318,28.009l-.636-.37L15.876-.185l.636.37Z" transform="translate(342.414 7046.07)" fill="#3e3a39"/>
        <path id="パス_455" data-name="パス 455" d="M342.414,7085.082l-9.716-5.594,4.858-8.392,9.716,5.594Z" fill="#fff"/>
        <path id="パス_456" data-name="パス 456" d="M342.549,7085.584l-10.354-5.961,5.227-9.028,10.354,5.961Zm-9.348-6.231,9.078,5.227,4.489-7.755-9.078-5.227Z" fill="#3e3a39"/>
        <path id="線_239" data-name="線 239" d="M.317,8.431l-.634-.374L4.541-.187l.634.374Z" transform="translate(334.317 7072.127)" fill="#3e3a39"/>
        <path id="線_240" data-name="線 240" d="M.319,8.576l-.637-.369L4.54-.184l.637.369Z" transform="translate(335.936 7073.01)" fill="#3e3a39"/>
        <path id="線_241" data-name="線 241" d="M.319,8.576l-.637-.369L4.54-.184l.637.369Z" transform="translate(337.556 7073.894)" fill="#3e3a39"/>
        <path id="線_242" data-name="線 242" d="M.319,8.576l-.637-.369L4.54-.184l.637.369Z" transform="translate(339.175 7074.924)" fill="#3e3a39"/>
        <path id="線_243" data-name="線 243" d="M.319,8.576l-.637-.369L4.54-.184l.637.369Z" transform="translate(340.795 7075.807)" fill="#3e3a39"/>
        <path id="パス_457" data-name="パス 457" d="M359.786,7044.892l-.736-.441-.883.147-.442.883,1.914,1.03.442-.736Z" fill="#68be8d"/>
        <path id="パス_458" data-name="パス 458" d="M359.122,7044.065l.969.581.391,1.173-.709,1.183-2.538-1.366.685-1.37Zm.357,1.072-.5-.3-.565.094-.2.4,1.29.694.174-.29Z" fill="#3e3a39"/>
        <path id="パス_459" data-name="パス 459" d="M382.6,7109.814c-12.955,7.508-27.088.736-31.946-.589-8.833-2.355-27.088,3.681-27.971-2.5-.294-2.208,4.269-6.036,15.6-8.244,4.711-.884,11.336-4.711,12.366-7.8Z" fill="#f6e8da"/>
        <path id="パス_460" data-name="パス 460" d="M369.186,7113.663q-1.532,0-3.115-.146a55.924,55.924,0,0,1-12.932-3.105c-1.019-.346-1.9-.646-2.578-.831-3.6-.958-8.781-.5-13.8-.06a59.505,59.505,0,0,1-9.539.375,8.254,8.254,0,0,1-3.3-.857,3,3,0,0,1-1.6-2.263c-.182-1.37,1.136-3.005,3.617-4.49a39.489,39.489,0,0,1,12.282-4.167,23.593,23.593,0,0,0,7.442-3.026c2.5-1.533,4.2-3.186,4.646-4.532l.7.232c-1.086,3.261-7.862,7.151-12.647,8.049-6.411,1.249-10.088,2.906-12.043,4.076a9.94,9.94,0,0,0-2.623,2.127,2.292,2.292,0,0,0-.643,1.631c.467,3.272,6.87,2.708,13.649,2.112,5.079-.448,10.33-.911,14.052.083.7.191,1.592.494,2.623.844a55.278,55.278,0,0,0,12.763,3.07,30.119,30.119,0,0,0,8-.277,25.171,25.171,0,0,0,8.276-3.011l.369.637a25.9,25.9,0,0,1-8.517,3.1A29.292,29.292,0,0,1,369.186,7113.663Z" fill="#3e3a39"/>
      </g>
    </g>
    <path id="パス_647" data-name="パス 647" d="M11.353,10.32a31.335,31.335,0,0,0-4.2-3.78A15.237,15.237,0,0,0,9.236,3.012a2.352,2.352,0,0,1,.353-.617l-.529-.542a2.349,2.349,0,0,1-.806.1L3.755,2H3.427a5.922,5.922,0,0,1-1-.063l.025,1.021a8.478,8.478,0,0,1,1.3-.1L7.963,2.8a2.14,2.14,0,0,0,.3-.013.267.267,0,0,1-.038.088c-.025.063-.038.076-.063.151a13.657,13.657,0,0,1-4.5,5.683,10.143,10.143,0,0,1-2.558,1.449,2.8,2.8,0,0,1,.617.832A16.226,16.226,0,0,0,4.2,9.475,13.678,13.678,0,0,0,6.6,7.22a23.435,23.435,0,0,1,4.032,3.893Zm5.267-7.888a5.575,5.575,0,0,1,.063-1.058H15.649a6.991,6.991,0,0,1,.05,1.046V8.228c0,.529.013.781.025.983a1.673,1.673,0,0,0,.517,1.21A4.566,4.566,0,0,0,19,10.937c.869,0,2.533-.088,3.339-.176l.6-.063.164-.013c.189-.025.227-.025.416-.038l-.076-1.008a6.07,6.07,0,0,1-1.247.252,24.926,24.926,0,0,1-2.885.2,13.14,13.14,0,0,1-1.487-.076,1.512,1.512,0,0,1-.958-.328c-.214-.214-.265-.5-.265-1.386V8.165l.013-.076V6.25a19.316,19.316,0,0,0,5.96-2.1,5.558,5.558,0,0,1,.554-.277l-.643-.857a15.157,15.157,0,0,1-5.872,2.407ZM24.091.3a1.433,1.433,0,0,0-1.436,1.424,1.43,1.43,0,0,0,2.86,0A1.414,1.414,0,0,0,24.091.3Zm0,.529a.895.895,0,1,1-.907.895A.9.9,0,0,1,24.091.832ZM28.06,4.347A10.394,10.394,0,0,1,29.245,7.17l.857-.29a13.836,13.836,0,0,0-1.247-2.8Zm2.6-.529a11.054,11.054,0,0,1,1.159,2.759l.832-.29a12.635,12.635,0,0,0-1.222-2.709Zm4.372-.013v.126a5.3,5.3,0,0,1-.139.857A9.507,9.507,0,0,1,33.818,7.5a8.087,8.087,0,0,1-3.994,3.289,2.549,2.549,0,0,1,.58.706A9.134,9.134,0,0,0,34.574,7.85a11.344,11.344,0,0,0,1.109-2.822,7.435,7.435,0,0,1,.277-1.021Zm5.166-1.235a14.665,14.665,0,0,1,1.474,3.478l.907-.29a14.834,14.834,0,0,0-1.537-3.478Zm3.226-.643a13.594,13.594,0,0,1,1.449,3.415l.895-.328a14.927,14.927,0,0,0-1.525-3.352Zm5.431,0a5.85,5.85,0,0,1-.164,1.2,10.164,10.164,0,0,1-2.81,5.292,10.31,10.31,0,0,1-3.478,2.2,2.4,2.4,0,0,1,.68.806,10.929,10.929,0,0,0,5.531-5.267,12.638,12.638,0,0,0,1.058-3.137,4.522,4.522,0,0,1,.252-.869Zm6.552.214a6.547,6.547,0,0,1,.6,1.373l.693-.3a8.727,8.727,0,0,0-.554-1.071h.983a6.733,6.733,0,0,1,.97.038V1.424a5.9,5.9,0,0,1-1.071.063H54.911c.214-.34.3-.479.517-.869L54.634.366a5.631,5.631,0,0,1-2.016,2.507,2.047,2.047,0,0,1,.63.5,8.488,8.488,0,0,0,1.184-1.235Zm2.268.706a4.228,4.228,0,0,1,.05.706v.214H54.306a10.774,10.774,0,0,1-1.235-.05,4.911,4.911,0,0,1,.05.806v.655a5.077,5.077,0,0,1-.05.819h.806V4.423h8.858V6h.806a4.951,4.951,0,0,1-.05-.832V4.511a6.668,6.668,0,0,1,.038-.794,11.962,11.962,0,0,1-1.273.05H58.489V3.553a3.607,3.607,0,0,1,.038-.68.72.72,0,0,1,.1.088,6.26,6.26,0,0,0,.706-.819h1A7.075,7.075,0,0,1,61,3.49l.706-.3a7.327,7.327,0,0,0-.592-1.046h1.663a6.243,6.243,0,0,1,1.071.063V1.424a6.3,6.3,0,0,1-1.1.063H59.737A8.521,8.521,0,0,0,60.178.58L59.409.391a4.267,4.267,0,0,1-1.4,2.155,3.069,3.069,0,0,1,.491.3Zm-2.18,9.085V11.3h5.834v.63h.832a7.022,7.022,0,0,1-.076-1.184v-1a7.167,7.167,0,0,1,.063-1.134,9.364,9.364,0,0,1-1.159.05H55.49v-.92H60.43a11.858,11.858,0,0,1,1.26.05,6.407,6.407,0,0,1-.05-.958V6.111a8.542,8.542,0,0,1,.038-.92,9.216,9.216,0,0,1-1.26.063H55.944a9.329,9.329,0,0,1-1.26-.063,6.392,6.392,0,0,1,.05.92V10.66a9.879,9.879,0,0,1-.076,1.273Zm0-6.023H60.9v1.2H55.49Zm0,3.427h5.834v1.31H55.49Zm13.9-6.817a17.63,17.63,0,0,1-2.7-.139l-.013.869a2.234,2.234,0,0,1,.277-.013h.2c.466.013,1.651.038,1.852.038a1.4,1.4,0,0,0,.239-.025l-.113.189a12.538,12.538,0,0,1-2.822,3.6l.706.706A4.169,4.169,0,0,1,67.99,6.7,4.733,4.733,0,0,1,70.8,5.368c.592,0,.895.3,1,1a9.781,9.781,0,0,0-1.877,1.008,2.605,2.605,0,0,0-1.285,1.991c0,1.3,1.1,1.94,3.352,1.94a19.547,19.547,0,0,0,3.062-.252,4.958,4.958,0,0,1,.5-.063l-.113-.97a10.557,10.557,0,0,1-3.364.491c-1.777,0-2.558-.365-2.558-1.2,0-.756.655-1.348,2.369-2.155a3.31,3.31,0,0,1,.013.378,18.121,18.121,0,0,1-.076,1.814l.857-.013a2.739,2.739,0,0,1-.025-.454c0-.113,0-.29.013-.567.013-.252.013-.529.013-.693,0-.315,0-.441-.025-.769a20.92,20.92,0,0,1,3.364-1.109l-.4-.882a2.772,2.772,0,0,1-.857.365c-.554.2-1.273.466-2.192.832a1.529,1.529,0,0,0-1.663-1.4A3.353,3.353,0,0,0,69,5.28c-.126.088-.126.088-.58.441a.1.1,0,0,1-.025-.038V5.67a.012.012,0,0,0,.013-.013c.013-.013.076-.063.164-.126.05-.038.3-.328.428-.479a9.291,9.291,0,0,0,1.134-1.789,40.683,40.683,0,0,0,4.158-.328,3.928,3.928,0,0,1,.5-.063l-.076-.857a17.734,17.734,0,0,1-3.969.479,2.145,2.145,0,0,0-.265.013c.063-.113.227-.454.391-.857A2.676,2.676,0,0,1,71.2.97L70.195.794a5.347,5.347,0,0,1-.6,1.726Zm10.7-.6a4.228,4.228,0,0,1-.1.857,22.308,22.308,0,0,0-.353,3.868c0,.643.025,1.285.088,2.129.013.2.013.265.025.428l.895-.076a2.565,2.565,0,0,1-.063-.592,5,5,0,0,1,1.159-2.986,5.132,5.132,0,0,1,3.226-1.991c.013.781.025,1.109.025,1.525a8.9,8.9,0,0,1-.517,3.528,3.512,3.512,0,0,1-2.1-2.129,2.268,2.268,0,0,1-.491.693,4.113,4.113,0,0,0,1.953,2.016.964.964,0,0,0,.29.113c-.025.038-.038.05-.076.1a5.21,5.21,0,0,1-2.1,1.663,2.81,2.81,0,0,1,.68.643,6.281,6.281,0,0,0,2.344-2.155,3.624,3.624,0,0,0,.592.05,3.663,3.663,0,0,0,3.919-3.528c0-2.016-1.474-3.364-3.7-3.4-.013-.365-.063-1.21-.076-1.386a1.305,1.305,0,0,1-.013-.2,1.564,1.564,0,0,1,.013-.189L84.748.92a10.1,10.1,0,0,1,.176,1.827,5.312,5.312,0,0,0-3.251,1.726A4.823,4.823,0,0,0,80.5,6.426c-.063.214-.063.214-.1.34h-.05c.013-.139.025-.214.038-.328.025-.265.025-.265.038-.378a22.536,22.536,0,0,1,.34-2.8,7.39,7.39,0,0,1,.29-1.247Zm5.708,1.562a3.239,3.239,0,0,1,1.487.34A2.344,2.344,0,0,1,88.6,6a2.692,2.692,0,0,1-1.688,2.52,3.114,3.114,0,0,1-1.323.277,1.369,1.369,0,0,1-.227-.013h-.1a9.241,9.241,0,0,0,.567-3.893C85.831,4.347,85.819,4.045,85.793,3.478ZM93.517,6.8a5.56,5.56,0,0,1,1.348-.416,14.645,14.645,0,0,1,3.314-.5c1.525,0,2.331.617,2.331,1.764A2.872,2.872,0,0,1,98.2,10.194a8.591,8.591,0,0,1-2.482.391.958.958,0,0,1-.176-.013,2.76,2.76,0,0,1,.328.869,11.934,11.934,0,0,0,2.6-.479,3.683,3.683,0,0,0,2.885-3.251,2.756,2.756,0,0,0-.391-1.436A2.882,2.882,0,0,0,98.293,5.1a16.267,16.267,0,0,0-3.843.554,5.915,5.915,0,0,1-1.159.227Zm18.61-5.96A20.031,20.031,0,0,1,108.436,4.3a9.736,9.736,0,0,0-1.071.857A1.22,1.22,0,0,0,107,6c0,.428.2.706.907,1.26,1.84,1.436,2.344,1.852,3.188,2.633a11.894,11.894,0,0,1,1.625,1.726l.794-.781a3.207,3.207,0,0,1-.353-.315,37.15,37.15,0,0,0-4.032-3.44c-1.021-.794-1.121-.882-1.121-1.109,0-.176.088-.277.554-.63a36.7,36.7,0,0,0,2.9-2.381c1.31-1.26,1.411-1.348,1.55-1.462Zm8.656-.05a2.526,2.526,0,0,1-.038.4,31.85,31.85,0,0,0-.428,4.649v.29l.025,1.31.013.227v.139l.907-.038c-.013-.189-.013-.252-.013-.3a6.576,6.576,0,0,1,.68-2.81c.718-1.474,1.525-2.192,2.482-2.192,1.21,0,1.915,1.172,1.915,3.2a4.339,4.339,0,0,1-2.167,4.183,6.658,6.658,0,0,1-2.558.794,2.6,2.6,0,0,1,.5.857,9.538,9.538,0,0,0,2.243-.743,5.2,5.2,0,0,0,2.911-4.952,5.175,5.175,0,0,0-.756-3.062,2.372,2.372,0,0,0-2.016-1.121,3.005,3.005,0,0,0-2.52,1.625,5.622,5.622,0,0,0-.769,1.877c-.063.265-.063.265-.088.365l-.05-.013c.038-.643.214-2.016.416-3.289a7.142,7.142,0,0,1,.29-1.3Zm13.658.315a4.215,4.215,0,0,1,.214.794,25.668,25.668,0,0,0,.92,3.528,7.846,7.846,0,0,0-1.651,1.021A2.726,2.726,0,0,0,132.8,8.593a2.092,2.092,0,0,0,1.562,2.066,8.572,8.572,0,0,0,2.8.34,25.276,25.276,0,0,0,2.785-.164,6.53,6.53,0,0,1,.932-.076l-.1-1.046a12.51,12.51,0,0,1-3.6.428c-2.47,0-3.44-.441-3.44-1.588,0-1.046.932-1.877,3.087-2.734A28.978,28.978,0,0,1,140.616,4.6l-.378-.958a6.814,6.814,0,0,1-.806.328c-1.953.68-2.306.819-3.049,1.121A21.914,21.914,0,0,1,135.437.92Zm11.542,2.583v2.9a8.066,8.066,0,0,1-1.789.592l.227.857a6.006,6.006,0,0,1,.693-.3c.277-.113.428-.164.869-.353V10.7c0,.277-.1.353-.479.353a6.321,6.321,0,0,1-1.021-.088,2.823,2.823,0,0,1,.151.794c.3.025.6.038.869.038,1,0,1.26-.189,1.26-.895V7.056c.567-.252.743-.328,1.336-.6V5.67c-.68.328-.945.441-1.336.6V3.692h.466a6.031,6.031,0,0,1,.857.05V2.923a4.645,4.645,0,0,1-.857.063h-.466V1.764A6.759,6.759,0,0,1,146.84.5h-.932a8.067,8.067,0,0,1,.076,1.26V2.986h-.706a5.632,5.632,0,0,1-.945-.076v.857a5.7,5.7,0,0,1,.932-.076Zm5.368,4.12v2.671a10.72,10.72,0,0,1-.088,1.462h.945a10.976,10.976,0,0,1-.088-1.462V7.825h2.18v.731h.832a8.765,8.765,0,0,1-.05-1.1V2.432a11.354,11.354,0,0,1,.05-1.336,14.07,14.07,0,0,1-1.436.063h-3.931a12.771,12.771,0,0,1-1.3-.063,10.432,10.432,0,0,1,.05,1.21V7.56a7.964,7.964,0,0,1-.05,1.071h.832V7.812Zm0-5.935v2.2h-2.066v-2.2Zm.769,0h2.192v2.2H152.12Zm-.769,2.911V7.094h-2.066V4.788Zm.769-.013h2.192V7.107H152.12Zm-149.2,13.5a3.876,3.876,0,0,1,.05.668c0,.2,0,.441-.013.819-.1,3.969-.113,4.284-.113,5.128a3.51,3.51,0,0,0,.693,2.583,2.988,2.988,0,0,0,2.369.882,4.411,4.411,0,0,0,3.553-1.575,7.665,7.665,0,0,0,1.4-2.86,3.564,3.564,0,0,1-.907-.6,7.485,7.485,0,0,1-.617,1.978A3.619,3.619,0,0,1,5.96,27.483a2.378,2.378,0,0,1-1.575-.491,1.983,1.983,0,0,1-.592-1.512c-.013-.29-.025-.6-.025-.756,0-.567.038-2.281.088-3.793a19.427,19.427,0,0,1,.164-2.659Zm10.723,2.507a37.01,37.01,0,0,1,4.347-.416,24.417,24.417,0,0,0,2.772-.277,8.248,8.248,0,0,0-1.2.668,4.777,4.777,0,0,0-2.356,3.868,3.067,3.067,0,0,0,1.4,2.57,6.356,6.356,0,0,0,2.722.97c.2.038.252.05.391.076l.164-1.021H21.76a6.458,6.458,0,0,1-1.89-.4,2.47,2.47,0,0,1-1.764-2.331,3.851,3.851,0,0,1,1.55-2.911A6.4,6.4,0,0,1,22.075,20.3a5.844,5.844,0,0,1,1.411-.164l-.076-.945a8.458,8.458,0,0,1-1.5.139c-1.625.076-5.657.3-7.157.416-.391.025-.542.038-.718.038h-.454ZM26.473,18.36a8.157,8.157,0,0,1,1.84,1.676l.554-.58a9.141,9.141,0,0,0-1.852-1.638Zm-.466,3.125a8.943,8.943,0,0,1,2,1.613l.5-.655A11.755,11.755,0,0,0,26.5,20.918Zm1.966,3.024a14.42,14.42,0,0,1-1.2,2.885,3.5,3.5,0,0,1-.63.895l.718.63c.076-.151.126-.252.29-.542A17.89,17.89,0,0,0,28.627,25Zm3.944,1.336c.4,0,.731.013,1.121.038-.025-.29-.038-.693-.038-1.222V19.305a11.267,11.267,0,0,1,.05-1.26c-.365.025-.617.038-1.021.038H30.316a9.963,9.963,0,0,1-1.008-.038c.025.3.038.693.038,1.134v5.393a11.111,11.111,0,0,1-.038,1.31c.265-.025.6-.038,1.046-.038Zm-1.84-7.081h2.192v1.651H30.076Zm0,2.306h2.192v1.676H30.076Zm0,2.331h2.192v1.764H30.076ZM31.5,26.613a9.76,9.76,0,0,0,1.663,2.255,2.624,2.624,0,0,1,.6-.554A6.223,6.223,0,0,1,32.13,26.26ZM35.015,26a8.311,8.311,0,0,1-.063-1.3V19.734a7.05,7.05,0,0,1,.076-1.3h-.92a8.548,8.548,0,0,1,.076,1.285V24.7a8.392,8.392,0,0,1-.076,1.3Zm-4.927.239a4.984,4.984,0,0,1-1.663,2.192,3.012,3.012,0,0,1,.592.554,6.975,6.975,0,0,0,1.739-2.407Zm6.955-6.917a10.5,10.5,0,0,1,.076-1.487h-.932a12.376,12.376,0,0,1,.076,1.487v8.4c0,.29-.076.328-.643.328a10.046,10.046,0,0,1-1.26-.1,3.252,3.252,0,0,1,.214.806c.29.025.882.038,1.121.038,1.084,0,1.348-.189,1.348-.958Zm7.484,8.089a4.234,4.234,0,0,1-1.361-.769,3.854,3.854,0,0,1-1-1.386c.088-.3.277-1.033.34-1.336l.151-.655-.882-.176v.126a7.969,7.969,0,0,1-.769,2.873,6.707,6.707,0,0,1-1.7,2.243,2.338,2.338,0,0,1,.655.592,8.523,8.523,0,0,0,1.915-2.86c.668,1.336,1.9,2.092,3.868,2.369a17.079,17.079,0,0,0,2.759.1c.34,0,.428,0,1.525-.025a2.334,2.334,0,0,1,.277-.882c-1.058.088-1.928.126-2.948.126a11.3,11.3,0,0,1-2.054-.139v-2.8h2.432a6.729,6.729,0,0,1,1.21.076V24.03a7.572,7.572,0,0,1-1.21.076H45.31V22.052h2.205a8.223,8.223,0,0,1,1.247.076v-.869a8.109,8.109,0,0,1-1.247.076H42.3a8.109,8.109,0,0,1-1.247-.076v.869a8.576,8.576,0,0,1,1.247-.076h2.23Zm-.189-8.316H40.925c-.5,0-.869-.013-1.273-.05a5.7,5.7,0,0,1,.05.857v.794a6.022,6.022,0,0,1-.05.895h.832V19.822h8.795v1.764H50.1a6.022,6.022,0,0,1-.05-.895V19.9a5.7,5.7,0,0,1,.05-.857c-.4.038-.769.05-1.26.05H45.158v-.617a3.3,3.3,0,0,1,.088-.781h-.983a4.335,4.335,0,0,1,.076.794ZM54.709,20.5a6.941,6.941,0,0,1-1.361-.088l.013.958a7.6,7.6,0,0,1,1.336-.063L56.99,21.3a8.2,8.2,0,0,1-.781,3,7.37,7.37,0,0,1-3.276,3.314,2.61,2.61,0,0,1,.643.743,9.1,9.1,0,0,0,3.3-3.339A9.5,9.5,0,0,0,57.884,21.3l3.528-.013a27.744,27.744,0,0,1-.315,4.473c-.239,1.247-.441,1.55-1.058,1.55a5.32,5.32,0,0,1-1.625-.328,2.071,2.071,0,0,1,.139.794v.151a7.171,7.171,0,0,0,1.562.214c1.134,0,1.512-.454,1.827-2.18a34.372,34.372,0,0,0,.353-4.41,1.887,1.887,0,0,1,.1-.756l-.466-.4a2.013,2.013,0,0,1-.832.088l-3.15.013c.038-.353.038-.5.063-.895a10.52,10.52,0,0,1,.1-1.625l-1.021-.025a3.377,3.377,0,0,1,.05.655c0,.554-.025,1.247-.076,1.89ZM65.86,23.778a13.764,13.764,0,0,1,1.562-.05h7.308a14.414,14.414,0,0,1,1.537.05V22.758a9.938,9.938,0,0,1-1.525.063H67.423a8.913,8.913,0,0,1-1.562-.076Zm16.821,4.712a7.794,7.794,0,0,1-.063-1.336V23.362a4.213,4.213,0,0,0-.05-.743l.025-.013a1.6,1.6,0,0,0,.391.214,26.241,26.241,0,0,1,4.7,2.495l.542-.932a33.081,33.081,0,0,0-5.607-2.659V19.368a7.17,7.17,0,0,1,.063-1.31H81.6a7.4,7.4,0,0,1,.076,1.285v7.825a8.359,8.359,0,0,1-.076,1.323Zm3.125-9.6a9.332,9.332,0,0,1,1.3,2l.63-.378a9.565,9.565,0,0,0-1.3-1.953Zm1.436-.68A9.194,9.194,0,0,1,88.528,20.2l.63-.365a10.614,10.614,0,0,0-1.3-1.966Zm10.71,1.537a3.626,3.626,0,0,1,1.462.315,3.322,3.322,0,0,1,2,3.163,3.8,3.8,0,0,1-2.23,3.528,7.553,7.553,0,0,1-2.1.592,2,2,0,0,1,.441.844,9.747,9.747,0,0,0,1.915-.58,4.588,4.588,0,0,0,2.885-4.347,4.218,4.218,0,0,0-1.222-3.074,4.878,4.878,0,0,0-3.465-1.247,5.117,5.117,0,0,0-5.393,5.153c0,1.764.895,3.074,2.092,3.074.907,0,1.651-.756,2.381-2.419A18.888,18.888,0,0,0,97.952,19.746Zm-.907.013A17.306,17.306,0,0,1,95.9,24.421c-.542,1.235-1.046,1.827-1.575,1.827-.68,0-1.21-.932-1.21-2.142a4.357,4.357,0,0,1,2.054-3.755A3.979,3.979,0,0,1,97.045,19.759Zm14.931,3.1a4.53,4.53,0,0,1,.05-.983h-.781a6.152,6.152,0,0,1,.05.983h-1.033a5.965,5.965,0,0,1-1.021-.063v.743a9.626,9.626,0,0,1,1.008-.038H111.3V24.61h-.542a6.328,6.328,0,0,1-.945-.05c.025.3.038.554.038.882v1.726c0,.34-.013.655-.038.92h.706v-.718h2.142a8.971,8.971,0,0,1,.945.025,6.922,6.922,0,0,1-.025-.857V25.479a6.173,6.173,0,0,1,.05-.92,5.838,5.838,0,0,1-1,.05h-.655V23.5h1.134a7.644,7.644,0,0,1,1.046.038V22.8a6.192,6.192,0,0,1-1.046.063Zm-1.462,2.369h2.394v1.512h-2.394ZM112,18.738v-.164a4.3,4.3,0,0,1,.076-1.008h-.92a4.423,4.423,0,0,1,.076,1.008v.164H109.04a9.147,9.147,0,0,1-1.348-.076v.819a9.733,9.733,0,0,1,1.336-.063h.34a7.171,7.171,0,0,1,.617,1.462h-.63c-.756,0-1.109-.013-1.436-.038.025.328.038.693.038,1.336v5.355a10.875,10.875,0,0,1-.076,1.487h.92a10.625,10.625,0,0,1-.076-1.487V21.561H114.7v6.363c0,.252-.076.3-.416.3a9.235,9.235,0,0,1-1.436-.126,2.28,2.28,0,0,1,.176.756c.466.025.97.05,1.273.05.945,0,1.172-.189,1.172-.983v-5.7a13.535,13.535,0,0,1,.05-1.4,11.08,11.08,0,0,1-1.336.05h-.806a9.37,9.37,0,0,0,.655-1.462h.542a12.03,12.03,0,0,1,1.323.063v-.819a7.672,7.672,0,0,1-1.348.076Zm-1.247,2.142a7.9,7.9,0,0,0-.592-1.462h3.049a5.933,5.933,0,0,1-.617,1.462Zm-5.607-2.57a8.162,8.162,0,0,1,1.9,1.651l.517-.592a9.426,9.426,0,0,0-1.915-1.613Zm-.567,3.125a8.521,8.521,0,0,1,2.054,1.613l.5-.68a11.826,11.826,0,0,0-2.079-1.537Zm1.991,2.885a10.715,10.715,0,0,1-1.89,3.818l.706.655c.063-.1.063-.1.139-.227s.088-.176.265-.491a18.515,18.515,0,0,0,1.411-3.238Zm16.166-5.153v8.278a9.266,9.266,0,0,1-.088,1.487h1.046a9.164,9.164,0,0,1-.088-1.487V21.51a14.071,14.071,0,0,1,1.31.693,18.877,18.877,0,0,1,2.671,1.764l.491-.781a27.187,27.187,0,0,0-4.473-2.583V19.167h3.956a12.37,12.37,0,0,1,1.462.076V18.31a11.928,11.928,0,0,1-1.462.076H119.4a11.723,11.723,0,0,1-1.474-.076v.932a12.3,12.3,0,0,1,1.474-.076Zm12.033-.139v-.454a5.318,5.318,0,0,1,.076-.97H133.9a4.808,4.808,0,0,1,.076.958v.466h-1.525a6.836,6.836,0,0,1-1.172-.063V19.8a6.7,6.7,0,0,1,1.134-.063h3.767a6.493,6.493,0,0,1,1.159.063v-.832a6.836,6.836,0,0,1-1.172.063Zm.844,3.427a13.029,13.029,0,0,0,.932-2.243l-.769-.265a10.477,10.477,0,0,1-.907,2.507h-2.722a7.254,7.254,0,0,1-1.21-.063v.844a7.175,7.175,0,0,1,1.2-.063h4.221a8.045,8.045,0,0,1,1.147.063v-.844a6.482,6.482,0,0,1-1.172.063Zm-3.515-2.23a8.866,8.866,0,0,1,.819,2.092l.731-.252a9.681,9.681,0,0,0-.844-2.092Zm.491,7.963h3.238v.781h.844a7.1,7.1,0,0,1-.05-1V25.265a6.5,6.5,0,0,1,.038-1.046,7.627,7.627,0,0,1-.92.038h-2.986c-.441,0-.731-.013-1-.038a9.763,9.763,0,0,1,.038,1.058v2.558a8.3,8.3,0,0,1-.05,1.134h.844Zm0-3.226h3.251v2.52H132.59Zm9.349-6.993a5.971,5.971,0,0,1-.97.05H138.94c-.441,0-.68-.013-1.008-.038.038.428.05.781.05,1.159v8.568a9.983,9.983,0,0,1-.076,1.386h.958a7.992,7.992,0,0,1-.088-1.4V18.738h2.507a18.431,18.431,0,0,1-1.7,3.515,5.177,5.177,0,0,1,1.5,1.827,3.9,3.9,0,0,1,.416,1.714c0,.668-.239.895-.958.895a6.487,6.487,0,0,1-1.222-.126,2.454,2.454,0,0,1,.164.844,10.166,10.166,0,0,0,1.046.05,2.52,2.52,0,0,0,1.134-.189,1.518,1.518,0,0,0,.643-1.411,4.357,4.357,0,0,0-.378-1.764,5.88,5.88,0,0,0-1.424-1.978,25.176,25.176,0,0,0,1.3-2.495,10.718,10.718,0,0,1,.517-1.121Zm3.893.3a7.015,7.015,0,0,1-.176,1.008,20.844,20.844,0,0,0-.567,4.99,18.06,18.06,0,0,0,.328,3.566c.038.239.05.3.076.5l.907-.076v-.189a10.983,10.983,0,0,1,1.021-3.465l-.6-.29A11.707,11.707,0,0,0,146,26.777c-.05-.668-.076-1.411-.076-2.394a18.627,18.627,0,0,1,.378-3.944,17.9,17.9,0,0,1,.529-2.016Zm2.6,2.381a16.783,16.783,0,0,0,2.016.126,21.271,21.271,0,0,0,2.709-.164q.832-.113.869-.113l-.063-.895a13.52,13.52,0,0,1-3.377.34,8.558,8.558,0,0,1-2.142-.189Zm.92,2.457a3.481,3.481,0,0,0-1.1,2.344,1.781,1.781,0,0,0,.378,1.159,3.5,3.5,0,0,0,2.885.958,13,13,0,0,0,2.583-.252c.252-.038.277-.05.441-.063l-.126-.97a8.292,8.292,0,0,1-2.9.441c-1.625,0-2.419-.454-2.419-1.386a2.927,2.927,0,0,1,.945-1.852ZM.394,45.2a5.138,5.138,0,0,1,.471-1.981,3.81,3.81,0,0,1,1.6-1.532L3.642,41a5.561,5.561,0,0,0,1.114-.787,1.719,1.719,0,0,0,.043-2.39,1.682,1.682,0,0,0-1.23-.452,1.608,1.608,0,0,0-1.575.861,3.084,3.084,0,0,0-.258,1.28H.609a3.954,3.954,0,0,1,.425-1.876,2.664,2.664,0,0,1,2.541-1.28,2.754,2.754,0,0,1,2.212.818A2.737,2.737,0,0,1,6.485,39a2.476,2.476,0,0,1-.744,1.809A7.288,7.288,0,0,1,4.2,41.865l-.843.468a5.459,5.459,0,0,0-.947.634,2.308,2.308,0,0,0-.775,1.187H6.442V45.2Zm15.018-5.242a4.53,4.53,0,0,1,.05-.983h-.781a6.152,6.152,0,0,1,.05.983H13.7a5.965,5.965,0,0,1-1.021-.063v.743a9.626,9.626,0,0,1,1.008-.038h1.046V41.71H14.19a6.328,6.328,0,0,1-.945-.05c.025.3.038.554.038.882v1.726c0,.34-.013.655-.038.92h.706v-.718h2.142a8.971,8.971,0,0,1,.945.025,6.924,6.924,0,0,1-.025-.857V42.579a6.172,6.172,0,0,1,.05-.92,5.838,5.838,0,0,1-1,.05h-.655V40.6h1.134a7.644,7.644,0,0,1,1.046.038V39.9a6.192,6.192,0,0,1-1.046.063ZM13.95,42.327h2.394v1.512H13.95Zm1.487-6.489v-.164a4.3,4.3,0,0,1,.076-1.008h-.92a4.423,4.423,0,0,1,.076,1.008v.164H12.476a9.147,9.147,0,0,1-1.348-.076v.819a9.733,9.733,0,0,1,1.336-.063h.34a7.171,7.171,0,0,1,.617,1.462h-.63c-.756,0-1.109-.013-1.436-.038.025.328.038.693.038,1.336v5.355a10.875,10.875,0,0,1-.076,1.487h.92a10.625,10.625,0,0,1-.076-1.487V38.661h5.972v6.363c0,.252-.076.3-.416.3a9.235,9.235,0,0,1-1.436-.126,2.28,2.28,0,0,1,.176.756c.466.025.97.05,1.273.05.945,0,1.172-.189,1.172-.983v-5.7a13.536,13.536,0,0,1,.05-1.4,11.08,11.08,0,0,1-1.336.05H16.81a9.37,9.37,0,0,0,.655-1.462h.542a12.03,12.03,0,0,1,1.323.063v-.819a7.672,7.672,0,0,1-1.348.076ZM14.19,37.98a7.9,7.9,0,0,0-.592-1.462h3.049a5.933,5.933,0,0,1-.617,1.462ZM8.583,35.41a8.162,8.162,0,0,1,1.9,1.651L11,36.468a9.426,9.426,0,0,0-1.915-1.613Zm-.567,3.125a8.522,8.522,0,0,1,2.054,1.613l.5-.68A11.826,11.826,0,0,0,8.494,37.93Zm1.991,2.885a10.715,10.715,0,0,1-1.89,3.818l.706.655c.063-.1.063-.1.139-.227s.088-.176.265-.491a18.515,18.515,0,0,0,1.411-3.238Zm17.552-4.574c-.655.013-1.777.05-3.049.1-2.029.076-2.029.076-2.394.076-.189,0-.277,0-.5-.013l.038.92c.4-.1,3.931-.29,5.922-.315v.655c0,.164.013.265.013.328,0,.454,0,.491.013.693a1.935,1.935,0,0,0-1.462-.567A2.1,2.1,0,0,0,23.892,40.8a1.963,1.963,0,0,0,2.079,1.991,2,2,0,0,0,1.588-.68,1.765,1.765,0,0,0,.34-.617c-.063,1.764-1.159,2.911-3.452,3.6a2.766,2.766,0,0,1,.554.794,8.014,8.014,0,0,0,1.991-1.021,4.055,4.055,0,0,0,1.688-3.289,3.61,3.61,0,0,0-.3-1.487V37.6c1.008-.025,1.159-.025,1.348-.025a22.394,22.394,0,0,1,2.407.063v-.895a7.031,7.031,0,0,1-.832.063l-2.218.013c-.214,0-.239,0-.718.013v-.139a10.431,10.431,0,0,1,.063-1.575h-.945a3.975,3.975,0,0,1,.05.731l.025.882Zm-1.411,2.6a1.939,1.939,0,0,1,.844.189.941.941,0,0,1,.529.895,1.412,1.412,0,0,1-1.474,1.487,1.228,1.228,0,0,1-1.31-1.247A1.337,1.337,0,0,1,26.147,39.442Zm3.326-4.712a9.315,9.315,0,0,1,1.26,1.751l.617-.391a9.995,9.995,0,0,0-1.26-1.714Zm1.8-.252a10.846,10.846,0,0,1,1.3,1.877l.63-.365a11.251,11.251,0,0,0-1.323-1.865Zm3.793,4.536a5.537,5.537,0,0,1,.907-.3,20.014,20.014,0,0,1,5.141-.895c1.714,0,2.759.857,2.759,2.268s-.97,2.545-2.7,3.175a11.274,11.274,0,0,1-3.5.58,2.222,2.222,0,0,1,.391.932,10.881,10.881,0,0,0,4.171-.958A4.127,4.127,0,0,0,44.858,40.1c0-1.928-1.462-3.15-3.767-3.15a16.833,16.833,0,0,0-3.654.466,16.893,16.893,0,0,1-2.621.529Zm19.656.945a4.53,4.53,0,0,1,.05-.983h-.781a6.152,6.152,0,0,1,.05.983H53.01A5.965,5.965,0,0,1,51.99,39.9v.743A9.626,9.626,0,0,1,53,40.6h1.046V41.71H53.5a6.328,6.328,0,0,1-.945-.05c.025.3.038.554.038.882v1.726c0,.34-.013.655-.038.92h.706v-.718H55.4a8.971,8.971,0,0,1,.945.025,6.924,6.924,0,0,1-.025-.857V42.579a6.172,6.172,0,0,1,.05-.92,5.838,5.838,0,0,1-1,.05h-.655V40.6h1.134a7.644,7.644,0,0,1,1.046.038V39.9a6.192,6.192,0,0,1-1.046.063Zm-1.462,2.369h2.394v1.512H53.262Zm1.487-6.489v-.164a4.3,4.3,0,0,1,.076-1.008H53.9a4.423,4.423,0,0,1,.076,1.008v.164H51.788a9.147,9.147,0,0,1-1.348-.076v.819a9.733,9.733,0,0,1,1.336-.063h.34a7.171,7.171,0,0,1,.617,1.462H52.1c-.756,0-1.109-.013-1.436-.038.025.328.038.693.038,1.336v5.355a10.875,10.875,0,0,1-.076,1.487h.92a10.624,10.624,0,0,1-.076-1.487V38.661h5.972v6.363c0,.252-.076.3-.416.3a9.235,9.235,0,0,1-1.436-.126,2.28,2.28,0,0,1,.176.756c.466.025.97.05,1.273.05.945,0,1.172-.189,1.172-.983v-5.7a13.536,13.536,0,0,1,.05-1.4,11.08,11.08,0,0,1-1.336.05h-.806a9.37,9.37,0,0,0,.655-1.462h.542a12.03,12.03,0,0,1,1.323.063v-.819a7.672,7.672,0,0,1-1.348.076ZM53.5,37.98a7.9,7.9,0,0,0-.592-1.462h3.049a5.933,5.933,0,0,1-.617,1.462Zm-5.607-2.57a8.162,8.162,0,0,1,1.9,1.651l.517-.592A9.426,9.426,0,0,0,48.4,34.855Zm-.567,3.125a8.522,8.522,0,0,1,2.054,1.613l.5-.68a11.826,11.826,0,0,0-2.079-1.537Zm1.991,2.885a10.715,10.715,0,0,1-1.89,3.818l.706.655c.063-.1.063-.1.139-.227s.088-.176.265-.491a18.515,18.515,0,0,0,1.411-3.238Zm16.166-5.153v8.278a9.266,9.266,0,0,1-.088,1.487h1.046a9.164,9.164,0,0,1-.088-1.487V38.61a14.074,14.074,0,0,1,1.31.693,18.877,18.877,0,0,1,2.671,1.764l.491-.781A27.188,27.188,0,0,0,66.354,37.7V36.267H70.31a12.37,12.37,0,0,1,1.462.076V35.41a11.928,11.928,0,0,1-1.462.076H62.145a11.723,11.723,0,0,1-1.474-.076v.932a12.3,12.3,0,0,1,1.474-.076Zm10.471-.895a3.876,3.876,0,0,1,.05.668c0,.2,0,.441-.013.819-.1,3.969-.113,4.284-.113,5.128a3.51,3.51,0,0,0,.693,2.583,2.988,2.988,0,0,0,2.369.882,4.411,4.411,0,0,0,3.553-1.575,7.665,7.665,0,0,0,1.4-2.86,3.564,3.564,0,0,1-.907-.6,7.485,7.485,0,0,1-.617,1.978,3.619,3.619,0,0,1-3.377,2.192,2.378,2.378,0,0,1-1.575-.491,1.983,1.983,0,0,1-.592-1.512c-.013-.29-.025-.6-.025-.756,0-.567.038-2.281.088-3.793a19.427,19.427,0,0,1,.164-2.659Zm21.206,8.82a4.306,4.306,0,0,1-.428-.29,11.029,11.029,0,0,0-3.515-1.84c-.05-1.222-.05-1.222-.076-1.928.932-.063,1.928-.164,2.8-.3.441-.063.567-.076.731-.088l-.05-.869a15.208,15.208,0,0,1-3.49.517c-.013-.668-.013-.668-.025-1.7a26.175,26.175,0,0,0,2.923-.3c.655-.088.655-.088.869-.1l-.063-.857a17.762,17.762,0,0,1-3.73.517,14.063,14.063,0,0,1,.088-1.777h-.97a9.867,9.867,0,0,1,.063,1.814c-.416,0-.844.013-1.1.013a15.653,15.653,0,0,1-3.226-.252l-.013.857a1.029,1.029,0,0,1,.176-.013,1.529,1.529,0,0,1,.227.013c1.134.088,2.155.126,3.074.126.29,0,.491,0,.857-.013l.025,1.726c-.353.013-.794.013-1.121.013a15.464,15.464,0,0,1-2.885-.2l-.013.832h.1c.076,0,.176,0,.315.013.781.063,1.373.088,2.129.088.4,0,1.033-.013,1.487-.025.013.328.013.567.025.731.013.365.013.63.025.743a1,1,0,0,0,.013.139c0,.113,0,.113.013.151a5.6,5.6,0,0,0-1.134-.1,5.488,5.488,0,0,0-1.31.126c-1.109.252-1.764.907-1.764,1.739a1.648,1.648,0,0,0,.68,1.323,3.282,3.282,0,0,0,1.953.5,2.537,2.537,0,0,0,2.129-.794,2.188,2.188,0,0,0,.315-1.373,3.623,3.623,0,0,0-.025-.454c.34.139.63.265.844.378a10.139,10.139,0,0,1,2.57,1.8Zm-4.75-1.021a1.65,1.65,0,0,1-.252,1.134,1.82,1.82,0,0,1-1.386.416c-1.1,0-1.726-.378-1.726-1.046s.819-1.121,2.066-1.121a4.625,4.625,0,0,1,1.285.139Zm13.8-6.363c-.857.025-1.84.05-3.049.1-2.029.076-2.029.076-2.394.076-.189,0-.277,0-.5-.013l.038.92c.844-.139,3.389-.265,5.922-.315v.655c0,.151.013.277.013.328,0,.466,0,.517.013.693a1.935,1.935,0,0,0-1.462-.567,2.1,2.1,0,0,0-2.23,2.079,2.107,2.107,0,0,0,3.654,1.31,1.765,1.765,0,0,0,.34-.617,3.264,3.264,0,0,1-1.411,2.659,6.458,6.458,0,0,1-2.041.945,2.766,2.766,0,0,1,.554.794,8.014,8.014,0,0,0,1.991-1.021,4.055,4.055,0,0,0,1.688-3.289,3.61,3.61,0,0,0-.3-1.487V37.564c1.021-.025,1.159-.025,1.348-.025a22.394,22.394,0,0,1,2.407.063v-.895c-.416.05-1.386.076-3.767.088v-.139a10.431,10.431,0,0,1,.063-1.575h-.945a4.246,4.246,0,0,1,.05.731Zm-.038,3.679a1.412,1.412,0,0,1-1.474,1.487,1.218,1.218,0,0,1-1.3-1.247,1.333,1.333,0,0,1,1.4-1.323,1.612,1.612,0,0,1,.844.2A.912.912,0,0,1,106.17,40.488Zm7.5,1.751a1.89,1.89,0,1,0,1.89,1.89A1.887,1.887,0,0,0,113.667,42.239Zm0,.718a1.172,1.172,0,1,1-1.172,1.172A1.178,1.178,0,0,1,113.667,42.957Z" transform="translate(248.932 6981.063)" fill="#333"/>
    <g id="グループ_656" data-name="グループ 656">
      <path id="パス_461" data-name="パス 461" d="M238.479,6984.975H216.986a3.488,3.488,0,0,0-3.534,3.533V7010a3.583,3.583,0,0,0,3.534,3.533h21.493a3.583,3.583,0,0,0,3.533-3.533v-21.494A3.487,3.487,0,0,0,238.479,6984.975Z" fill="#68be8d"/>
      <path id="パス_654" data-name="パス 654" d="M1.895-9.8v-1.334a7.089,7.089,0,0,0,2.63-.614,3.026,3.026,0,0,0,1.112-2.035H7.009V0H5.153V-9.8Z" transform="translate(222.238 7006.779)" fill="#fff"/>
    </g>
  </g>
</svg>
