<svg xmlns="http://www.w3.org/2000/svg" width="349.632" height="347.836" viewBox="0 0 349.632 347.836">
  <g id="グループ_745" data-name="グループ 745" transform="translate(-2099.432 -4027.557)">
    <g id="グループ_248" data-name="グループ 248">
      <rect id="長方形_129" data-name="長方形 129" width="349.632" height="347.836" rx="10" transform="translate(2099.432 4027.557)" fill="#fff"/>
      <path id="長方形_130" data-name="長方形 130" d="M10-1h5a1,1,0,0,1,1,1,1,1,0,0,1-1,1H9.976a1,1,0,0,1-1-1,1,1,0,0,1,1-1ZM20-1h5a1,1,0,0,1,1,1,1,1,0,0,1-1,1H20a1,1,0,0,1-1-1A1,1,0,0,1,20-1ZM30-1h5a1,1,0,0,1,1,1,1,1,0,0,1-1,1H30a1,1,0,0,1-1-1A1,1,0,0,1,30-1Zm10,0h5a1,1,0,0,1,1,1,1,1,0,0,1-1,1h-5a1,1,0,0,1-1-1A1,1,0,0,1,40.007-1Zm10,0h5a1,1,0,0,1,1,1,1,1,0,0,1-1,1h-5a1,1,0,0,1-1-1A1,1,0,0,1,50.01-1Zm10,0h5a1,1,0,0,1,1,1,1,1,0,0,1-1,1h-5a1,1,0,0,1-1-1A1,1,0,0,1,60.012-1Zm10,0h5a1,1,0,0,1,1,1,1,1,0,0,1-1,1h-5a1,1,0,0,1-1-1A1,1,0,0,1,70.015-1Zm10,0h5a1,1,0,0,1,1,1,1,1,0,0,1-1,1h-5a1,1,0,0,1-1-1A1,1,0,0,1,80.017-1Zm10,0h5a1,1,0,0,1,1,1,1,1,0,0,1-1,1h-5a1,1,0,0,1-1-1A1,1,0,0,1,90.02-1Zm10,0h5a1,1,0,0,1,1,1,1,1,0,0,1-1,1h-5a1,1,0,0,1-1-1A1,1,0,0,1,100.022-1Zm10,0h5a1,1,0,0,1,1,1,1,1,0,0,1-1,1h-5a1,1,0,0,1-1-1A1,1,0,0,1,110.025-1Zm10,0h5a1,1,0,0,1,1,1,1,1,0,0,1-1,1h-5a1,1,0,0,1-1-1A1,1,0,0,1,120.027-1Zm10,0h5a1,1,0,0,1,1,1,1,1,0,0,1-1,1h-5a1,1,0,0,1-1-1A1,1,0,0,1,130.03-1Zm10,0h5a1,1,0,0,1,1,1,1,1,0,0,1-1,1h-5a1,1,0,0,1-1-1A1,1,0,0,1,140.032-1Zm10,0h5a1,1,0,0,1,1,1,1,1,0,0,1-1,1h-5a1,1,0,0,1-1-1A1,1,0,0,1,150.035-1Zm10,0h5a1,1,0,0,1,1,1,1,1,0,0,1-1,1h-5a1,1,0,0,1-1-1A1,1,0,0,1,160.037-1Zm10,0h5a1,1,0,0,1,1,1,1,1,0,0,1-1,1h-5a1,1,0,0,1-1-1A1,1,0,0,1,170.04-1Zm10,0h5a1,1,0,0,1,1,1,1,1,0,0,1-1,1h-5a1,1,0,0,1-1-1A1,1,0,0,1,180.042-1Zm10,0h5a1,1,0,0,1,1,1,1,1,0,0,1-1,1h-5a1,1,0,0,1-1-1A1,1,0,0,1,190.045-1Zm10,0h5a1,1,0,0,1,1,1,1,1,0,0,1-1,1h-5a1,1,0,0,1-1-1A1,1,0,0,1,200.047-1Zm10,0h5a1,1,0,0,1,1,1,1,1,0,0,1-1,1h-5a1,1,0,0,1-1-1A1,1,0,0,1,210.05-1Zm10,0h5a1,1,0,0,1,1,1,1,1,0,0,1-1,1h-5a1,1,0,0,1-1-1A1,1,0,0,1,220.052-1Zm10,0h5a1,1,0,0,1,1,1,1,1,0,0,1-1,1h-5a1,1,0,0,1-1-1A1,1,0,0,1,230.055-1Zm10,0h5a1,1,0,0,1,1,1,1,1,0,0,1-1,1h-5a1,1,0,0,1-1-1A1,1,0,0,1,240.057-1Zm10,0h5a1,1,0,0,1,1,1,1,1,0,0,1-1,1h-5a1,1,0,0,1-1-1A1,1,0,0,1,250.06-1Zm10,0h5a1,1,0,0,1,1,1,1,1,0,0,1-1,1h-5a1,1,0,0,1-1-1A1,1,0,0,1,260.062-1Zm10,0h5a1,1,0,0,1,1,1,1,1,0,0,1-1,1h-5a1,1,0,0,1-1-1A1,1,0,0,1,270.065-1Zm10,0h5a1,1,0,0,1,1,1,1,1,0,0,1-1,1h-5a1,1,0,0,1-1-1A1,1,0,0,1,280.067-1Zm10,0h5a1,1,0,0,1,1,1,1,1,0,0,1-1,1h-5a1,1,0,0,1-1-1A1,1,0,0,1,290.069-1Zm10,0h5a1,1,0,0,1,1,1,1,1,0,0,1-1,1h-5a1,1,0,0,1-1-1A1,1,0,0,1,300.072-1Zm10,0h2.484a11.039,11.039,0,0,1,2.74.344,1,1,0,0,1-.5,1.937A9.036,9.036,0,0,0,312.558,1h-2.484a1,1,0,0,1-1-1A1,1,0,0,1,310.074-1ZM5.183.234A1,1,0,0,1,5.666,2.11,9.065,9.065,0,0,0,2.413,5.156,1,1,0,1,1,.728,4.079,11.07,11.07,0,0,1,4.7.358,1,1,0,0,1,5.183.234ZM319.388,1.7a1,1,0,0,1,.683.27,11.034,11.034,0,0,1,2.935,4.585,1,1,0,1,1-1.9.627,9.029,9.029,0,0,0-2.4-3.751,1,1,0,0,1,.683-1.73ZM.022,8.318l.068,0a1,1,0,0,1,.931,1.065C1.007,9.588,1,9.8,1,10v4.319a1,1,0,0,1-1,1,1,1,0,0,1-1-1V10c0-.249.008-.5.025-.749A1,1,0,0,1,.022,8.318Zm322.536,2.493a1,1,0,0,1,1,1v5a1,1,0,0,1-2,0v-5A1,1,0,0,1,322.558,10.811ZM0,18.32a1,1,0,0,1,1,1v5a1,1,0,0,1-1,1,1,1,0,0,1-1-1v-5A1,1,0,0,1,0,18.32Zm322.558,2.494a1,1,0,0,1,1,1v5a1,1,0,0,1-2,0v-5A1,1,0,0,1,322.558,20.814ZM0,28.323a1,1,0,0,1,1,1v5a1,1,0,0,1-1,1,1,1,0,0,1-1-1v-5A1,1,0,0,1,0,28.323Zm322.558,2.494a1,1,0,0,1,1,1v5a1,1,0,1,1-2,0v-5A1,1,0,0,1,322.558,30.816ZM0,38.325a1,1,0,0,1,1,1v5a1,1,0,0,1-1,1,1,1,0,0,1-1-1v-5A1,1,0,0,1,0,38.325Zm322.558,2.494a1,1,0,0,1,1,1v5a1,1,0,0,1-2,0v-5A1,1,0,0,1,322.558,40.819ZM0,48.328a1,1,0,0,1,1,1v5a1,1,0,0,1-1,1,1,1,0,0,1-1-1v-5A1,1,0,0,1,0,48.328Zm322.558,2.494a1,1,0,0,1,1,1v5a1,1,0,1,1-2,0v-5A1,1,0,0,1,322.558,50.821ZM0,58.33a1,1,0,0,1,1,1v5a1,1,0,0,1-1,1,1,1,0,0,1-1-1v-5A1,1,0,0,1,0,58.33Zm322.558,2.494a1,1,0,0,1,1,1v5a1,1,0,0,1-2,0v-5A1,1,0,0,1,322.558,60.824ZM0,68.332a1,1,0,0,1,1,1v5a1,1,0,0,1-1,1,1,1,0,0,1-1-1v-5A1,1,0,0,1,0,68.332Zm322.558,2.494a1,1,0,0,1,1,1v5a1,1,0,0,1-2,0v-5A1,1,0,0,1,322.558,70.826ZM0,78.335a1,1,0,0,1,1,1v5a1,1,0,0,1-1,1,1,1,0,0,1-1-1v-5A1,1,0,0,1,0,78.335Zm322.558,2.494a1,1,0,0,1,1,1v5a1,1,0,0,1-2,0v-5A1,1,0,0,1,322.558,80.829ZM0,88.337a1,1,0,0,1,1,1v5a1,1,0,0,1-1,1,1,1,0,0,1-1-1v-5A1,1,0,0,1,0,88.337Zm322.558,2.494a1,1,0,0,1,1,1v5a1,1,0,0,1-2,0v-5A1,1,0,0,1,322.558,90.831ZM0,98.34a1,1,0,0,1,1,1v5a1,1,0,0,1-1,1,1,1,0,0,1-1-1v-5A1,1,0,0,1,0,98.34Zm322.558,2.494a1,1,0,0,1,1,1v5a1,1,0,1,1-2,0v-5A1,1,0,0,1,322.558,100.834ZM0,108.342a1,1,0,0,1,1,1v5a1,1,0,0,1-1,1,1,1,0,0,1-1-1v-5A1,1,0,0,1,0,108.342Zm322.558,2.494a1,1,0,0,1,1,1v5a1,1,0,0,1-2,0v-5A1,1,0,0,1,322.558,110.836ZM0,118.345a1,1,0,0,1,1,1v5a1,1,0,0,1-1,1,1,1,0,0,1-1-1v-5A1,1,0,0,1,0,118.345Zm322.558,2.494a1,1,0,0,1,1,1v5a1,1,0,1,1-2,0v-5A1,1,0,0,1,322.558,120.839ZM0,128.347a1,1,0,0,1,1,1v5a1,1,0,0,1-1,1,1,1,0,0,1-1-1v-5A1,1,0,0,1,0,128.347Zm322.558,2.494a1,1,0,0,1,1,1v5a1,1,0,0,1-2,0v-5A1,1,0,0,1,322.558,130.841ZM0,138.35a1,1,0,0,1,1,1v5a1,1,0,0,1-1,1,1,1,0,0,1-1-1v-5A1,1,0,0,1,0,138.35Zm322.558,2.494a1,1,0,0,1,1,1v5a1,1,0,0,1-2,0v-5A1,1,0,0,1,322.558,140.843ZM0,148.352a1,1,0,0,1,1,1v5a1,1,0,0,1-1,1,1,1,0,0,1-1-1v-5A1,1,0,0,1,0,148.352Zm322.558,2.494a1,1,0,0,1,1,1v5a1,1,0,1,1-2,0v-5A1,1,0,0,1,322.558,150.846ZM0,158.355a1,1,0,0,1,1,1v5a1,1,0,0,1-1,1,1,1,0,0,1-1-1v-5A1,1,0,0,1,0,158.355Zm322.558,2.494a1,1,0,0,1,1,1v5a1,1,0,0,1-2,0v-5A1,1,0,0,1,322.558,160.848ZM0,168.357a1,1,0,0,1,1,1v5a1,1,0,0,1-1,1,1,1,0,0,1-1-1v-5A1,1,0,0,1,0,168.357Zm322.558,2.494a1,1,0,0,1,1,1v5a1,1,0,1,1-2,0v-5A1,1,0,0,1,322.558,170.851ZM0,178.36a1,1,0,0,1,1,1v5a1,1,0,0,1-1,1,1,1,0,0,1-1-1v-5A1,1,0,0,1,0,178.36Zm322.558,2.494a1,1,0,0,1,1,1v5a1,1,0,0,1-2,0v-5A1,1,0,0,1,322.558,180.853ZM0,188.362a1,1,0,0,1,1,1v5a1,1,0,0,1-1,1,1,1,0,0,1-1-1v-5A1,1,0,0,1,0,188.362Zm322.558,2.494a1,1,0,0,1,1,1v5a1,1,0,0,1-2,0v-5A1,1,0,0,1,322.558,190.856ZM0,198.365a1,1,0,0,1,1,1v5a1,1,0,0,1-1,1,1,1,0,0,1-1-1v-5A1,1,0,0,1,0,198.365Zm322.558,2.494a1,1,0,0,1,1,1v5a1,1,0,0,1-2,0v-5A1,1,0,0,1,322.558,200.858ZM0,208.367a1,1,0,0,1,1,1v5a1,1,0,0,1-1,1,1,1,0,0,1-1-1v-5A1,1,0,0,1,0,208.367Zm322.558,2.494a1,1,0,0,1,1,1v5a1,1,0,0,1-2,0v-5A1,1,0,0,1,322.558,210.861ZM0,218.37a1,1,0,0,1,1,1v5a1,1,0,0,1-1,1,1,1,0,0,1-1-1v-5A1,1,0,0,1,0,218.37Zm322.558,2.494a1,1,0,0,1,1,1v5a1,1,0,0,1-2,0v-5A1,1,0,0,1,322.558,220.863ZM0,228.372a1,1,0,0,1,1,1v5a1,1,0,0,1-1,1,1,1,0,0,1-1-1v-5A1,1,0,0,1,0,228.372Zm322.558,2.494a1,1,0,0,1,1,1v5a1,1,0,0,1-2,0v-5A1,1,0,0,1,322.558,230.866ZM0,238.375a1,1,0,0,1,1,1v5a1,1,0,0,1-1,1,1,1,0,0,1-1-1v-5A1,1,0,0,1,0,238.375Zm322.558,2.494a1,1,0,0,1,1,1v5a1,1,0,1,1-2,0v-5A1,1,0,0,1,322.558,240.868ZM0,248.377a1,1,0,0,1,1,1v5a1,1,0,0,1-1,1,1,1,0,0,1-1-1v-5A1,1,0,0,1,0,248.377Zm322.558,2.494a1,1,0,0,1,1,1v5a1,1,0,0,1-2,0v-5A1,1,0,0,1,322.558,250.871ZM0,258.38a1,1,0,0,1,1,1v5a1,1,0,0,1-1,1,1,1,0,0,1-1-1v-5A1,1,0,0,1,0,258.38Zm322.558,2.494a1,1,0,0,1,1,1v5a1,1,0,0,1-2,0v-5A1,1,0,0,1,322.558,260.873ZM0,268.382a1,1,0,0,1,1,1v5a1,1,0,0,1-1,1,1,1,0,0,1-1-1v-5A1,1,0,0,1,0,268.382Zm322.558,2.494a1,1,0,0,1,1,1v5a1,1,0,0,1-2,0v-5A1,1,0,0,1,322.558,270.876ZM0,278.385a1,1,0,0,1,1,1v5a1,1,0,0,1-1,1,1,1,0,0,1-1-1v-5A1,1,0,0,1,0,278.385Zm322.558,2.494a1,1,0,0,1,1,1v5a1,1,0,1,1-2,0v-5A1,1,0,0,1,322.558,280.878ZM0,288.387a1,1,0,0,1,1,1v5a1,1,0,0,1-1,1,1,1,0,0,1-1-1v-5A1,1,0,0,1,0,288.387Zm322.558,2.494a1,1,0,0,1,1,1v5a1,1,0,1,1-2,0v-5A1,1,0,0,1,322.558,290.881ZM0,298.39a1,1,0,0,1,1,1v5a1,1,0,0,1-1,1,1,1,0,0,1-1-1v-5A1,1,0,0,1,0,298.39Zm322.558,2.494a1,1,0,0,1,1,1v5a1,1,0,0,1-2,0v-5A1,1,0,0,1,322.558,300.883ZM0,308.392a1,1,0,0,1,1,1v1.8a8.99,8.99,0,0,0,.455,2.833,1,1,0,0,1-1.9.629A10.987,10.987,0,0,1-1,311.191v-1.8A1,1,0,0,1,0,308.392Zm322.534,2.493.069,0a1,1,0,0,1,.929,1.066,10.992,10.992,0,0,1-1.709,5.17,1,1,0,0,1-1.683-1.08,8.988,8.988,0,0,0,1.4-4.227A1,1,0,0,1,322.534,310.885ZM3.18,317.5a1,1,0,0,1,.682.269,9.008,9.008,0,0,0,3.906,2.139,1,1,0,0,1-.494,1.938A11.014,11.014,0,0,1,2.5,319.236,1,1,0,0,1,3.18,317.5Zm314.184,1.458a1,1,0,0,1,.482,1.877,11.014,11.014,0,0,1-5.274,1.352,1,1,0,0,1,0-2,9.008,9.008,0,0,0,4.314-1.1A1,1,0,0,1,317.363,318.963ZM12.5,320.191h5a1,1,0,0,1,0,2h-5a1,1,0,0,1,0-2Zm10,0h5a1,1,0,0,1,0,2h-5a1,1,0,1,1,0-2Zm10,0h5a1,1,0,0,1,0,2h-5a1,1,0,0,1,0-2Zm10,0h5a1,1,0,0,1,0,2h-5a1,1,0,0,1,0-2Zm10,0h5a1,1,0,0,1,0,2h-5a1,1,0,1,1,0-2Zm10,0h5a1,1,0,0,1,0,2h-5a1,1,0,0,1,0-2Zm10,0h5a1,1,0,0,1,0,2h-5a1,1,0,0,1,0-2Zm10,0h5a1,1,0,0,1,0,2h-5a1,1,0,0,1,0-2Zm10,0h5a1,1,0,0,1,0,2h-5a1,1,0,0,1,0-2Zm10,0h5a1,1,0,0,1,0,2h-5a1,1,0,0,1,0-2Zm10,0h5a1,1,0,1,1,0,2h-5a1,1,0,0,1,0-2Zm10,0h5a1,1,0,0,1,0,2h-5a1,1,0,1,1,0-2Zm10,0h5a1,1,0,0,1,0,2h-5a1,1,0,0,1,0-2Zm10,0h5a1,1,0,0,1,0,2h-5a1,1,0,0,1,0-2Zm10,0h5a1,1,0,0,1,0,2h-5a1,1,0,0,1,0-2Zm10,0h5a1,1,0,1,1,0,2h-5a1,1,0,0,1,0-2Zm10,0h5a1,1,0,0,1,0,2h-5a1,1,0,0,1,0-2Zm10,0h5a1,1,0,1,1,0,2h-5a1,1,0,0,1,0-2Zm10,0h5a1,1,0,0,1,0,2h-5a1,1,0,1,1,0-2Zm10,0h5a1,1,0,0,1,0,2h-5a1,1,0,0,1,0-2Zm10,0h5a1,1,0,0,1,0,2h-5a1,1,0,1,1,0-2Zm10,0h5a1,1,0,1,1,0,2h-5a1,1,0,0,1,0-2Zm10,0h5a1,1,0,0,1,0,2h-5a1,1,0,0,1,0-2Zm10,0h5a1,1,0,0,1,0,2h-5a1,1,0,0,1,0-2Zm10,0h5a1,1,0,0,1,0,2h-5a1,1,0,0,1,0-2Zm10,0h5a1,1,0,0,1,0,2h-5a1,1,0,1,1,0-2Zm10,0h5a1,1,0,0,1,0,2h-5a1,1,0,1,1,0-2Zm10,0h5a1,1,0,0,1,0,2h-5a1,1,0,0,1,0-2Zm10,0h5a1,1,0,1,1,0,2h-5a1,1,0,0,1,0-2Zm10,0h5a1,1,0,0,1,0,2h-5a1,1,0,0,1,0-2Z" transform="translate(2112.969 4040.879)" fill="#82c195"/>
    </g>
    <g id="グループ_249" data-name="グループ 249">
      <path id="パス_605" data-name="パス 605" d="M-92.742-1.846c-3.146-3.042-3.146-3.042-3.8-3.614a40.3,40.3,0,0,0-4.81-3.77,34.434,34.434,0,0,0,4.056-7.176,5,5,0,0,1,.832-1.4l-1.716-1.768a5.632,5.632,0,0,1-2.314.286l-9.152.13h-.624a11.378,11.378,0,0,1-2.288-.156l.1,3.328a20.49,20.49,0,0,1,2.834-.208c8.19-.13,8.19-.13,8.606-.156l-.286.676A25.061,25.061,0,0,1-110.032-5.1a21.466,21.466,0,0,1-5.2,2.86A10.43,10.43,0,0,1-113.126.65a30.9,30.9,0,0,0,9.906-7.514A49.981,49.981,0,0,1-95.238.858Zm22.386-8.762a25.726,25.726,0,0,1,3.3.13v-3.094a18.468,18.468,0,0,1-3.354.182h-15.21a18.3,18.3,0,0,1-3.354-.182v3.094a25.726,25.726,0,0,1,3.3-.13h6.344A11.041,11.041,0,0,1-80.47-5.694c-1.092,2-3.042,3.38-6.162,4.342a8.249,8.249,0,0,1,2.106,2.86c3.51-1.4,5.408-2.834,6.786-5.122a14.118,14.118,0,0,0,1.82-6.994Zm-15.99-6.344a24.494,24.494,0,0,1,3.3-.13h10.088a24.494,24.494,0,0,1,3.3.13v-3.172a17.639,17.639,0,0,1-3.354.182h-9.984a17.639,17.639,0,0,1-3.354-.182Zm23.192,8.788a28.543,28.543,0,0,1,4.238-.13H-45.11a28.543,28.543,0,0,1,4.238.13v-3.614a25.533,25.533,0,0,1-4.212.182H-58.942a25.533,25.533,0,0,1-4.212-.182Zm28.652-9.62a31.477,31.477,0,0,1,6.942,3.562l1.664-2.86a42.816,42.816,0,0,0-6.916-3.354Zm-2.054,6.318a30.178,30.178,0,0,1,7.046,3.8l1.612-2.938a41.036,41.036,0,0,0-6.916-3.536Zm15.444-8.58a17.548,17.548,0,0,1,2.73,3.874l1.82-.962a16.85,16.85,0,0,0-2.73-3.822ZM-35.074,1.066a15.352,15.352,0,0,1,1.82-.442C-23.946-1.2-18.46-5.46-15.236-13.338a12.641,12.641,0,0,1-2.7-2.314c-1.872,5.538-5.772,9.8-10.53,11.466A23.1,23.1,0,0,1-35.984-2.5Zm21.606-19.89a15.036,15.036,0,0,0-2.7-3.666l-1.742.91a19.156,19.156,0,0,1,2.652,3.77ZM-2.314-7.358A31.671,31.671,0,0,1-2.7-1.742c-.1.52-.39.7-1.118.7a17.745,17.745,0,0,1-2.73-.26A8.106,8.106,0,0,1-5.9,1.56c1.144.1,1.742.13,2.314.13C-1.352,1.69-.65,1.3-.208-.1a36.013,36.013,0,0,0,.65-8.06c.026-1.04.026-1.3.078-1.82a16.409,16.409,0,0,1-2.47.13H-5.538c.052-.988.078-1.118.1-2.522H-2.7c1.482,0,2.418.026,3.276.1a19.515,19.515,0,0,1-.1-2.7v-3.38a27.409,27.409,0,0,1,.1-2.756,22.943,22.943,0,0,1-3.2.13H-7.878a26.057,26.057,0,0,1-3.25-.13c.078.988.1,1.534.1,2.86v3.146c0,1.326-.026,1.924-.1,2.834a26.064,26.064,0,0,1,2.886-.1,30.5,30.5,0,0,1-.442,5.018c-.572,3.25-1.482,5.018-3.588,6.838a8.011,8.011,0,0,1,1.95,2.548A13.2,13.2,0,0,0-7.306-2.054a17.546,17.546,0,0,0,1.482-5.3Zm-5.954-11.18h6.032v3.718H-8.268ZM2.548-20.306A23.938,23.938,0,0,1,2.7-17.134v9.88a19.944,19.944,0,0,1-.13,3.042h2.99a21.67,21.67,0,0,1-.13-3.094v-9.828a20.137,20.137,0,0,1,.156-3.172Zm5.616-1.326A30.926,30.926,0,0,1,8.346-18.1v16.25c0,.624-.26.78-1.248.78a32.354,32.354,0,0,1-3.536-.26,11.512,11.512,0,0,1,.884,2.912c1.222.052,1.586.078,2.158.078,3.8,0,4.524-.52,4.524-3.146V-18.1a27.19,27.19,0,0,1,.182-3.536Zm19.864,4.966a5.683,5.683,0,0,1,2.626.78,6.441,6.441,0,0,1,3.2,5.772,7.279,7.279,0,0,1-3.614,6.5,13.818,13.818,0,0,1-5.174,1.43A8.294,8.294,0,0,1,26.65.858,17,17,0,0,0,30.732-.234a10.016,10.016,0,0,0,6.318-9.7c0-5.85-4.056-9.646-10.3-9.646a11.671,11.671,0,0,0-8.944,3.64,11.169,11.169,0,0,0-2.86,7.566c0,4.186,2.132,7.2,5.1,7.2,2.132,0,3.8-1.534,5.278-4.888A37.614,37.614,0,0,0,28.028-16.666Zm-3.172.026A34.266,34.266,0,0,1,22.7-7.852c-.936,2.236-1.82,3.328-2.678,3.328-1.144,0-2.054-1.69-2.054-3.822a8.7,8.7,0,0,1,3.536-7.02A6.618,6.618,0,0,1,24.856-16.64Zm25.974,2.5V-9.36H46.8a23.859,23.859,0,0,1-3.12-.156v2.86a27.271,27.271,0,0,1,3.146-.156h4V-1.3H44.148a30.484,30.484,0,0,1-3.614-.182V1.482A33.435,33.435,0,0,1,44.226,1.3H60.138a30.31,30.31,0,0,1,3.536.182V-1.482A28.5,28.5,0,0,1,60.06-1.3H53.82V-6.812h4.5a28.9,28.9,0,0,1,3.2.156v-2.86a26.987,26.987,0,0,1-3.2.156h-4.5v-4.784h5.486c1.248,0,2.314.052,3.432.156v-2.86c-1.066.1-2.184.156-3.51.156H53.82v-2a24.243,24.243,0,0,1,.156-3.094H50.648a21.2,21.2,0,0,1,.182,3.12v1.976H46.592q.507-1.365.7-1.95a6.227,6.227,0,0,1,.26-.858,4.109,4.109,0,0,0,.234-.676L44.824-20.9a14.11,14.11,0,0,1-.572,2.418,18.857,18.857,0,0,1-4.394,7.592,7.888,7.888,0,0,1,2.132,2.21,22.973,22.973,0,0,0,3.536-5.46ZM80.6-8.034H76.44A21.6,21.6,0,0,1,73.5-8.19v2.86a22.466,22.466,0,0,1,2.99-.156H80.6v4.16c0,.546-.182.676-.962.676a18.953,18.953,0,0,1-2.886-.26,10.279,10.279,0,0,1,.728,2.73c.936.078,1.846.1,2.47.1,2.73,0,3.458-.546,3.458-2.626V-5.486h3.458a22.8,22.8,0,0,1,3.042.156V-8.19a22.139,22.139,0,0,1-2.938.156H83.408v-.39a28.139,28.139,0,0,0,4.6-3.77c.52-.52.52-.52.754-.78l-1.69-1.612c-.52.052-1.248.078-2.158.078h-7.41a17.827,17.827,0,0,1-2.366-.1v2.73a14.592,14.592,0,0,1,2.34-.13h6.63a11.877,11.877,0,0,1-2.522,1.976H80.522a8.666,8.666,0,0,1,.078,1.2ZM72.852-16.77a21.445,21.445,0,0,1-2.028,3.2h-1.4a14.325,14.325,0,0,1,.1,1.586A22.761,22.761,0,0,1,65.7-8.606,10.793,10.793,0,0,1,67.21-5.928c1.2-.962,1.612-1.352,2.34-2.028v7.28a18.087,18.087,0,0,1-.156,2.73h3.12a17.373,17.373,0,0,1-.156-2.73V-11.024a32.541,32.541,0,0,0,3.588-5.746h10.5c1.092,0,2.34.052,3.224.13v-2.886a23.1,23.1,0,0,1-3.276.156H77.116c.26-.7.494-1.3.6-1.586a6.383,6.383,0,0,1,.338-.91l-3.172-.312a11.509,11.509,0,0,1-.806,2.808H69.628a24.849,24.849,0,0,1-3.3-.156v2.886c.806-.078,1.82-.13,3.2-.13Zm25.4,1.82a20.1,20.1,0,0,1,3.744,3.2c-.78.754-1.2,1.118-2.158,1.924-.182,0-.884.026-.936.026h-.286l.624-.494-1.3-2.028A15.066,15.066,0,0,1,92.2-9.256l1.04,2.7a29.463,29.463,0,0,0,4.446-2.574l.26,1.794c.234-.026.676-.078,1.274-.1,4.186-.338,5.824-.52,8.4-.936.208.442.338.7.676,1.482l2.236-.91a27.619,27.619,0,0,0-3.2-4.758l-1.9.806c.572.728.754.988,1.118,1.534a33.462,33.462,0,0,1-3.614.26,40.921,40.921,0,0,0,5.434-5.356l-2.08-1.378a28.2,28.2,0,0,1-2.6,3.224,13.736,13.736,0,0,0-1.066-1.066,20.882,20.882,0,0,0,2.106-2.964h8.346a20.426,20.426,0,0,1,2.7.13V-20.2a23.962,23.962,0,0,1-3.094.156h-7.41v-.286a8.074,8.074,0,0,1,.156-1.612h-3.172a8.149,8.149,0,0,1,.156,1.638v.26H95.472A24.073,24.073,0,0,1,92.4-20.2v2.834a20.248,20.248,0,0,1,2.678-.13h6.812a9.078,9.078,0,0,1-.962,1.508c-.39-.312-.52-.416-.988-.754Zm4.108,11.882V-.182a15.553,15.553,0,0,1-.182,2.522h3.25a14.917,14.917,0,0,1-.182-2.522V-3.068h7.67a26.312,26.312,0,0,1,3.042.156v-2.86a19.546,19.546,0,0,1-2.678.156h-8.034v-.208a8.328,8.328,0,0,1,.1-1.534h-3.094a7.978,7.978,0,0,1,.1,1.534v.208H94.874a19.875,19.875,0,0,1-2.782-.156v2.86a23.6,23.6,0,0,1,3.042-.156ZM92.95-15.418a17.707,17.707,0,0,1,3.64,3.458l1.95-1.924a26.154,26.154,0,0,0-3.614-3.25Zm19.578-1.716a19.153,19.153,0,0,1-4.29,3.588l1.794,1.9a29.594,29.594,0,0,0,4.55-3.744Zm-3.042,7.02a22.852,22.852,0,0,1,4.368,3.666L115.7-8.606a30.533,30.533,0,0,0-4.628-3.3Z" transform="translate(2275.025 4109.742)" fill="#82c195"/>
    </g>
    <g id="グループ_255" data-name="グループ 255">
      <rect id="長方形_131" data-name="長方形 131" width="32.094" height="120.262" transform="translate(2155.68 4186.476)" fill="#fff766"/>
      <rect id="長方形_132" data-name="長方形 132" width="32.094" height="117.302" transform="translate(2208.73 4189.436)" fill="#fff766"/>
      <rect id="長方形_133" data-name="長方形 133" width="32.094" height="105.31" transform="translate(2261.78 4201.427)" fill="#fff766"/>
      <path id="パス_238" data-name="パス 238" d="M2271.78,4222.462h2.838l3.209,67.3,3.208-67.3h2.838c.349,0,.471-.234.271-.52l-5.954-8.516a.416.416,0,0,0-.727,0l-5.954,8.516C2271.309,4222.228,2271.431,4222.462,2271.78,4222.462Z" fill="#e61400"/>
      <rect id="長方形_134" data-name="長方形 134" width="32.094" height="97.053" transform="translate(2314.83 4209.685)" fill="#fff766"/>
      <rect id="長方形_135" data-name="長方形 135" width="32.094" height="128.21" transform="translate(2367.879 4178.527)" fill="#fff766"/>
      <rect id="長方形_136" data-name="長方形 136" width="32.094" height="14.22" transform="translate(2168.551 4292.517)" fill="#ff8e66"/>
      <rect id="長方形_137" data-name="長方形 137" width="32.094" height="18.84" transform="translate(2221.503 4287.897)" fill="#ff8e66"/>
      <rect id="長方形_138" data-name="長方形 138" width="32.094" height="11.174" transform="translate(2274.456 4295.563)" fill="#ff8e66"/>
      <rect id="長方形_139" data-name="長方形 139" width="32.094" height="3.762" transform="translate(2327.408 4302.976)" fill="#ff8e66"/>
      <rect id="長方形_140" data-name="長方形 140" width="32.094" height="24.962" transform="translate(2380.36 4281.775)" fill="#ff8e66"/>
      <path id="パス_634" data-name="パス 634" d="M-3.251,0H-4.268V-3.482H-5.455v-.676A4.4,4.4,0,0,0-4.8-4.221a.928.928,0,0,0,.488-.265.871.871,0,0,0,.2-.362.831.831,0,0,0,.038-.2h.825ZM-.019.125A1.429,1.429,0,0,1-1.372-.55,3.908,3.908,0,0,1-1.76-2.476a3.929,3.929,0,0,1,.388-1.929A1.427,1.427,0,0,1-.019-5.084a1.431,1.431,0,0,1,1.355.679,3.944,3.944,0,0,1,.387,1.929A3.908,3.908,0,0,1,1.334-.55,1.429,1.429,0,0,1-.019.125ZM.562-1.146A4.968,4.968,0,0,0,.7-2.476,4.873,4.873,0,0,0,.561-3.827a.562.562,0,0,0-.58-.439A.57.57,0,0,0-.6-3.827,4.7,4.7,0,0,0-.747-2.476,4.756,4.756,0,0,0-.6-1.144a.575.575,0,0,0,.585.461A.57.57,0,0,0,.562-1.146ZM3.947.125A1.429,1.429,0,0,1,2.594-.55a3.908,3.908,0,0,1-.388-1.926,3.929,3.929,0,0,1,.388-1.929,1.427,1.427,0,0,1,1.353-.679A1.431,1.431,0,0,1,5.3-4.405a3.944,3.944,0,0,1,.387,1.929A3.908,3.908,0,0,1,5.3-.55,1.429,1.429,0,0,1,3.947.125Zm.582-1.271a4.968,4.968,0,0,0,.136-1.33,4.873,4.873,0,0,0-.138-1.351.562.562,0,0,0-.58-.439.57.57,0,0,0-.585.439,4.7,4.7,0,0,0-.143,1.351,4.756,4.756,0,0,0,.143,1.332.575.575,0,0,0,.585.461A.57.57,0,0,0,4.529-1.146Z" transform="translate(2135.009 4170.766)" fill="#333"/>
      <path id="パス_633" data-name="パス 633" d="M-9.488-.317A1.493,1.493,0,0,1-9.923-1.4a1.547,1.547,0,0,1,.193-.77,1.224,1.224,0,0,1,.566-.519,1.178,1.178,0,0,1-.475-.528,1.478,1.478,0,0,1-.11-.531,1.239,1.239,0,0,1,.414-.939,1.646,1.646,0,0,1,1.17-.388,1.646,1.646,0,0,1,1.17.388,1.239,1.239,0,0,1,.414.939,1.478,1.478,0,0,1-.11.531,1.014,1.014,0,0,1-.475.493A1.4,1.4,0,0,1-6.6-2.17a1.581,1.581,0,0,1,.188.77A1.44,1.44,0,0,1-6.888-.315,1.839,1.839,0,0,1-8.206.132,1.705,1.705,0,0,1-9.488-.317Zm.6-1.149A.811.811,0,0,0-8.7-.888a.7.7,0,0,0,.535.205A.7.7,0,0,0-7.63-.888a.811.811,0,0,0,.193-.578.8.8,0,0,0-.2-.587.711.711,0,0,0-.531-.2.711.711,0,0,0-.531.2A.8.8,0,0,0-8.892-1.466Zm.261-1.72a.616.616,0,0,0,.467.174A.615.615,0,0,0-7.7-3.186a.626.626,0,0,0,.165-.449A.641.641,0,0,0-7.7-4.1a.626.626,0,0,0-.468-.169.633.633,0,0,0-.468.169.633.633,0,0,0-.169.468A.615.615,0,0,0-8.631-3.186Zm4.966-.836a.625.625,0,0,0-.508-.212A.62.62,0,0,0-4.79-3.9a1.675,1.675,0,0,0-.111.62h-.965a2.439,2.439,0,0,1,.233-1.041,1.453,1.453,0,0,1,1.41-.756,1.788,1.788,0,0,1,1.275.444,1.535,1.535,0,0,1,.474,1.175,1.591,1.591,0,0,1-.334,1,3.331,3.331,0,0,1-.721.644l-.4.282q-.373.265-.51.383a1.123,1.123,0,0,0-.232.275h2.2V0H-5.922a2.373,2.373,0,0,1,.233-.992,2.806,2.806,0,0,1,1-1.069,7.355,7.355,0,0,0,.888-.7,1.04,1.04,0,0,0,.31-.724A.8.8,0,0,0-3.665-4.022Zm1.933,2.984H-.677V0H-1.732Zm5.265-.825v.777H2.962V0H1.99V-1.087h-2v-.867L1.847-5.018H2.962v3.155Zm-2.807,0H1.99v-2.18Zm6.592.669a1.252,1.252,0,0,1,.38-.919,1.254,1.254,0,0,1,.916-.376,1.248,1.248,0,0,1,.916.38,1.248,1.248,0,0,1,.38.916,1.248,1.248,0,0,1-.38.916A1.248,1.248,0,0,1,8.614.1,1.248,1.248,0,0,1,7.7-.279,1.248,1.248,0,0,1,7.318-1.194ZM4.313-2.814a1.248,1.248,0,0,1-.38-.916,1.248,1.248,0,0,1,.38-.916,1.248,1.248,0,0,1,.916-.38,1.248,1.248,0,0,1,.916.38,1.248,1.248,0,0,1,.38.916,1.251,1.251,0,0,1-.378.916,1.246,1.246,0,0,1-.918.38A1.248,1.248,0,0,1,4.313-2.814ZM5.776.132h-.54L8.06-5.049h.529ZM8.224-.8a.525.525,0,0,0,.39.164A.534.534,0,0,0,9.006-.8a.534.534,0,0,0,.162-.392.534.534,0,0,0-.162-.392.534.534,0,0,0-.392-.162.534.534,0,0,0-.392.162.534.534,0,0,0-.162.392A.525.525,0,0,0,8.224-.8ZM4.839-3.34a.525.525,0,0,0,.39.164.534.534,0,0,0,.392-.162.534.534,0,0,0,.162-.392.534.534,0,0,0-.162-.392.534.534,0,0,0-.392-.162.534.534,0,0,0-.392.162.534.534,0,0,0-.162.392A.525.525,0,0,0,4.839-3.34Z" transform="translate(2171.727 4184.473)" fill="#333"/>
      <path id="パス_632" data-name="パス 632" d="M-4.987-3.427a6.966,6.966,0,0,0-.665,1.163,6.913,6.913,0,0,0-.383,1.149A4.772,4.772,0,0,0-6.206,0H-7.236a6.069,6.069,0,0,1,.891-2.824,6.671,6.671,0,0,1,.916-1.268H-7.947l.014-.891h3.566v.777A6.309,6.309,0,0,0-4.987-3.427Zm1.271,2.389h1.055V0H-3.716Zm2.9-3.005a.939.939,0,0,0-.16.6H-1.9a2.491,2.491,0,0,1,.129-.714,1.607,1.607,0,0,1,.383-.547A1.335,1.335,0,0,1-.926-4.98a2,2,0,0,1,.658-.094A1.752,1.752,0,0,1,.9-4.7a1.247,1.247,0,0,1,.444,1,1.111,1.111,0,0,1-.265.752.9.9,0,0,1-.348.261.716.716,0,0,1,.39.233,1.246,1.246,0,0,1,.38.961A1.619,1.619,0,0,1,1.057-.36,1.693,1.693,0,0,1-.258.125a1.591,1.591,0,0,1-1.49-.7,2.077,2.077,0,0,1-.244-.975h.975a1.135,1.135,0,0,0,.1.5.668.668,0,0,0,.658.366.729.729,0,0,0,.51-.2.744.744,0,0,0,.218-.576.649.649,0,0,0-.4-.665,2.051,2.051,0,0,0-.724-.094v-.71a1.879,1.879,0,0,0,.676-.094.581.581,0,0,0,.331-.592.662.662,0,0,0-.169-.47A.618.618,0,0,0-.3-4.266.6.6,0,0,0-.815-4.043Zm6.15,2.849a1.252,1.252,0,0,1,.38-.919,1.254,1.254,0,0,1,.916-.376,1.248,1.248,0,0,1,.916.38,1.248,1.248,0,0,1,.38.916,1.248,1.248,0,0,1-.38.916A1.248,1.248,0,0,1,6.631.1a1.248,1.248,0,0,1-.916-.38A1.248,1.248,0,0,1,5.335-1.194ZM2.33-2.814a1.248,1.248,0,0,1-.38-.916,1.248,1.248,0,0,1,.38-.916,1.248,1.248,0,0,1,.916-.38,1.248,1.248,0,0,1,.916.38,1.248,1.248,0,0,1,.38.916,1.251,1.251,0,0,1-.378.916,1.246,1.246,0,0,1-.918.38A1.248,1.248,0,0,1,2.33-2.814ZM3.792.132h-.54L6.077-5.049h.529ZM6.24-.8a.525.525,0,0,0,.39.164A.534.534,0,0,0,7.022-.8a.534.534,0,0,0,.162-.392.534.534,0,0,0-.162-.392.534.534,0,0,0-.392-.162.534.534,0,0,0-.392.162.534.534,0,0,0-.162.392A.525.525,0,0,0,6.24-.8ZM2.856-3.34a.525.525,0,0,0,.39.164.534.534,0,0,0,.392-.162A.534.534,0,0,0,3.8-3.73a.534.534,0,0,0-.162-.392.534.534,0,0,0-.392-.162.534.534,0,0,0-.392.162.534.534,0,0,0-.162.392A.525.525,0,0,0,2.856-3.34Z" transform="translate(2184.598 4291.013)" fill="#333"/>
      <path id="パス_631" data-name="パス 631" d="M-11.632-3.808h.349c.25,0,.285,0,.442.007a2.526,2.526,0,0,1-.014-.335v-.5a2.875,2.875,0,0,1,.014-.328,2.519,2.519,0,0,1-.449.014h-.342v-.285h.314a4.933,4.933,0,0,1,.606.029V-5.82a7.272,7.272,0,0,1-.742.036h-1.555c-.349,0-.478-.007-.656-.021.014.178.021.335.021.685v1.512c0,.307-.007.456-.021.649.178-.014.3-.021.656-.021h1.869c.093.007.157.007.164.007a1.242,1.242,0,0,1,.271.014v-.563a5.663,5.663,0,0,1-.613.021h-.314Zm-.642,0V-3.5h-.685v-.307Zm-.685-.435v-.271h1.441v.271Zm0-.706v-.285h.685v.285Zm3.174-.178-.62.25a4.978,4.978,0,0,0,.706.891,5.155,5.155,0,0,1-.991.456,2.539,2.539,0,0,1,.371.6,5.4,5.4,0,0,0,1.141-.6,5.435,5.435,0,0,0,1.512.785,2.965,2.965,0,0,1,.321-.749A3.909,3.909,0,0,1-8.6-3.98a4.243,4.243,0,0,0,.87-1.048c.086-.157.114-.214.171-.3l-.378-.464a4.275,4.275,0,0,1-.535.021H-9.856A7.065,7.065,0,0,1-10.57-5.8v.7a4.766,4.766,0,0,1,.613-.029Zm1.277,0a2.576,2.576,0,0,1-.642.756,2.946,2.946,0,0,1-.613-.756Zm-3.8,4.643h3.231v.193c0,.15-.05.178-.3.178s-.5-.014-.913-.05a1.972,1.972,0,0,1,.157.67c.328.007.5.014.727.014.6,0,.8-.043.941-.2a.7.7,0,0,0,.128-.492V-1.983a7.336,7.336,0,0,1,.029-.785,5.439,5.439,0,0,1-.806.036h-3.152c-.357,0-.549-.007-.813-.029.014.185.021.378.021.792V-.3a8.791,8.791,0,0,1-.036.891h.827a7.2,7.2,0,0,1-.043-.884Zm0-.542v-.3h3.231v.3Zm0-.834v-.292h3.231v.292ZM-2.346.05c-.078.064-.107.093-.214.171a1.681,1.681,0,0,1,.514.464,3.855,3.855,0,0,0,.7-.806c.264.471.485.678.727.678.164,0,.285-.107.364-.328A3.219,3.219,0,0,0-.1-.742a1.438,1.438,0,0,1-.5-.349,2.015,2.015,0,0,1-.086.834A1.551,1.551,0,0,1-.97-.827,12.746,12.746,0,0,0-.3-2.874L-.941-3.06a6.194,6.194,0,0,1-.285,1.3A14.006,14.006,0,0,1-1.4-3.523h.471a3.767,3.767,0,0,1,.6.029v-.656a1.11,1.11,0,0,1-.178.021,2.833,2.833,0,0,0-.385-.563l-.428.228a2.079,2.079,0,0,1,.25.342h-.335c0-.143,0-.143.007-.257h-.678c.014.121.014.121.021.214v.043H-3.973a3.874,3.874,0,0,1-.571-.029c.014.221.021.456.021.834a10.657,10.657,0,0,1-.3,3.131V-5.1A6.9,6.9,0,0,1-4.8-5.805a4.032,4.032,0,0,1-.585.029h-.578a4.6,4.6,0,0,1-.6-.029,11.994,11.994,0,0,1,.043,1.483,26.2,26.2,0,0,1-.15,3.445,3.7,3.7,0,0,1-.3,1.02,2.921,2.921,0,0,1,.535.535A6.036,6.036,0,0,0-5.962-1.69h.556v1.3c0,.178-.036.214-.2.214a2.441,2.441,0,0,1-.428-.057A1.624,1.624,0,0,1-5.9.428V.521c.143.007.221.007.271.007.5,0,.656-.071.756-.342a3.308,3.308,0,0,1,.514.371,10.95,10.95,0,0,0,.442-3.623v-.456H-2.04A9.649,9.649,0,0,0-1.647-.834a3.064,3.064,0,0,1-.392.571V-.535a2.309,2.309,0,0,1-.449.021V-.956h.036a2.393,2.393,0,0,1,.378.014c-.007-.121-.014-.221-.014-.342v-.735a1.921,1.921,0,0,1,.014-.314c-.086.007-.128.007-.378.007H-2.5v-.428a2.033,2.033,0,0,1,.357.029v-.585a4.458,4.458,0,0,1-.528.021h-.556A5.476,5.476,0,0,1-3.78-3.3c.007.136.007.136.014.563V-.221c0,.278-.007.435-.021.635h.549V.05h.891ZM-2.981-.956v.442h-.257V-.956Zm-.257-.492V-1.84h.649v.392Zm0-.877v-.428h.257v.428Zm-2.7-.043.014-1.006h.514v1.006Zm.021-1.683v-1.02h.506v1.02Zm2.254-.735a1.589,1.589,0,0,1-.021.342h.72a1.27,1.27,0,0,1-.021-.342h.863a1.8,1.8,0,0,1-.021.25h.72a1.029,1.029,0,0,1-.021-.25h.421a5.906,5.906,0,0,1,.713.029V-5.47a5.84,5.84,0,0,1-.713.036h-.421v-.15a1.746,1.746,0,0,1,.029-.364H-2.14a2.526,2.526,0,0,1,.021.371v.143h-.863v-.15a2.554,2.554,0,0,1,.021-.364h-.727a1.661,1.661,0,0,1,.029.364v.15h-.264a6.627,6.627,0,0,1-.713-.029v.706a5.982,5.982,0,0,1,.713-.029Zm8.744.863A6.671,6.671,0,0,1,6.062-1.6l.813-.407a6.633,6.633,0,0,0-1.07-2.268Zm-2.1-1.569a1.659,1.659,0,0,1,.057-.221l-.927-.093v.128a10.032,10.032,0,0,1-.185,1.441,14.648,14.648,0,0,1-1.519.15L.5-3.245a2.929,2.929,0,0,1,.292-.071l.649-.107c.228-.043.228-.043.335-.057A10.49,10.49,0,0,1,.342-.121L1.17.335a15.312,15.312,0,0,0,1.455-3.88c.164-.014.278-.021.428-.021.549,0,.713.193.713.849A6.337,6.337,0,0,1,3.58-1.091c-.107.349-.221.485-.428.485A2.986,2.986,0,0,1,2.111-.891a2.679,2.679,0,0,1,.071.606c0,.071-.007.178-.014.314a3.306,3.306,0,0,0,1.1.214.9.9,0,0,0,.792-.321,4.522,4.522,0,0,0,.549-2.6,1.73,1.73,0,0,0-.335-1.262,1.382,1.382,0,0,0-1.056-.378c-.128,0-.228.007-.442.014.021-.093.021-.093.043-.214.071-.385.121-.678.157-.884Zm1.655.05a4.814,4.814,0,0,1,.749,1.063l.5-.264a4.622,4.622,0,0,0-.749-1.048Zm2.1.335A4.124,4.124,0,0,0,6-6.112l-.478.25a5.255,5.255,0,0,1,.727,1.034ZM9.357-2.646c.157-.335.471-1.113.877-2.154a6.872,6.872,0,0,1,.349-.82l-.963-.242a50.047,50.047,0,0,1-1.69,4.85c-.228.62-.292.792-.392,1l.92.3a8.181,8.181,0,0,1,.6-1.633c.349-.642.749-1,1.134-1a.353.353,0,0,1,.321.164.973.973,0,0,1,.057.421c0,.071,0,.242-.007.5v.071a2.067,2.067,0,0,0,.121.792,1.116,1.116,0,0,0,1.12.62C12.88.221,13.579-.521,13.886-2a2.23,2.23,0,0,1-.785-.535A4.47,4.47,0,0,1,12.83-1.4c-.207.5-.514.763-.891.763a.6.6,0,0,1-.378-.1c-.128-.107-.157-.25-.157-.763,0-.82-.036-1.077-.178-1.305a.966.966,0,0,0-.8-.407,1.334,1.334,0,0,0-.92.421l-.136.157Z" transform="translate(2178.196 4316.862)" fill="#333"/>
      <path id="パス_630" data-name="パス 630" d="M6.654-.506c-.863-.834-.863-.834-1.041-.991A11.054,11.054,0,0,0,4.293-2.532,9.445,9.445,0,0,0,5.406-4.5a1.372,1.372,0,0,1,.228-.385L5.164-5.37a1.545,1.545,0,0,1-.635.078l-2.51.036H1.847A3.121,3.121,0,0,1,1.22-5.3l.029.913a5.62,5.62,0,0,1,.777-.057c2.247-.036,2.247-.036,2.361-.043L4.308-4.3a6.874,6.874,0,0,1-2.4,2.9A5.888,5.888,0,0,1,.485-.613a2.861,2.861,0,0,1,.578.792A8.475,8.475,0,0,0,3.78-1.883,13.71,13.71,0,0,1,5.969.235Zm6.141-2.4a7.057,7.057,0,0,1,.906.036v-.849a5.066,5.066,0,0,1-.92.05H8.608a5.02,5.02,0,0,1-.92-.05v.849a7.057,7.057,0,0,1,.906-.036h1.74a3.029,3.029,0,0,1-.314,1.348A2.652,2.652,0,0,1,8.33-.371a2.263,2.263,0,0,1,.578.785A3.39,3.39,0,0,0,10.769-.991a3.873,3.873,0,0,0,.5-1.919ZM8.409-4.65a6.719,6.719,0,0,1,.906-.036h2.767a6.719,6.719,0,0,1,.906.036v-.87a4.839,4.839,0,0,1-.92.05H9.329a4.839,4.839,0,0,1-.92-.05ZM14.77-2.239a7.829,7.829,0,0,1,1.163-.036H19.72a7.829,7.829,0,0,1,1.163.036v-.991a7,7,0,0,1-1.155.05h-3.8a7,7,0,0,1-1.155-.05ZM22.63-4.878a8.634,8.634,0,0,1,1.9.977l.456-.785a11.745,11.745,0,0,0-1.9-.92Zm-.563,1.733A8.278,8.278,0,0,1,24-2.1l.442-.806a11.257,11.257,0,0,0-1.9-.97ZM26.3-5.5a4.814,4.814,0,0,1,.749,1.063l.5-.264A4.622,4.622,0,0,0,26.8-5.748ZM22.473.292a4.211,4.211,0,0,1,.5-.121,6.011,6.011,0,0,0,4.942-3.83,3.468,3.468,0,0,1-.742-.635,4.905,4.905,0,0,1-2.888,3.145,6.336,6.336,0,0,1-2.061.464ZM28.4-5.164a4.125,4.125,0,0,0-.742-1.006l-.478.25a5.255,5.255,0,0,1,.727,1.034ZM32.757.128A6.076,6.076,0,0,1,32.7-.806v-3.6a10.747,10.747,0,0,1,.057-1.177,5.187,5.187,0,0,1-.727.036h-.656a3.963,3.963,0,0,1-.713-.043v.906a6.343,6.343,0,0,1,.735-.043h.342V-.806a5.958,5.958,0,0,1-.057.934Z" transform="translate(2316.344 4159.978)" fill="#333"/>
      <path id="パス_629" data-name="パス 629" d="M-8.444-3.509a6.349,6.349,0,0,1,.891.05v-.906a5.939,5.939,0,0,1-.9.05h-1.89c.007-.264.014-.428.014-.72a5.313,5.313,0,0,1,.05-.834h-.941a4.765,4.765,0,0,1,.05.713c0,.371-.007.485-.021.842h-1.747a5.637,5.637,0,0,1-.9-.05v.906a5.42,5.42,0,0,1,.891-.05h1.683a3.625,3.625,0,0,1-1.6,2.689,5.119,5.119,0,0,1-1.155.606,2.8,2.8,0,0,1,.5.749,5.287,5.287,0,0,0,1.7-1.12A4.311,4.311,0,0,0-10.655-2.5,5.353,5.353,0,0,0-9.578-.77,5.788,5.788,0,0,0-7.817.535,2.937,2.937,0,0,1-7.3-.285,4.977,4.977,0,0,1-9.264-1.64a4.98,4.98,0,0,1-1.027-1.869ZM-3-2.218A2.638,2.638,0,0,0-2.8-2.553H-.927a6.014,6.014,0,0,1,.7.036v-.7a3.528,3.528,0,0,1-.7.043H-3.744a4.232,4.232,0,0,1-.67-.036v.692a5.358,5.358,0,0,1,.649-.036H-3.5a2.123,2.123,0,0,1-1.07.891V-5.185a6.082,6.082,0,0,1,.021-.628,3.86,3.86,0,0,1-.578.029H-5.87a6.215,6.215,0,0,1-.649-.029,11.84,11.84,0,0,1,.043,1.483c0,2.646-.093,3.566-.428,4.315a4.067,4.067,0,0,1,.578.606,5.409,5.409,0,0,0,.471-2.339h.613V-.378c0,.15-.036.185-.193.185A2.691,2.691,0,0,1-5.9-.25,2.143,2.143,0,0,1-5.734.5c.143.007.214.007.285.007.421,0,.6-.036.713-.143A.74.74,0,0,0-4.572-.2V-1.569a1.476,1.476,0,0,1,.314.435A2.809,2.809,0,0,0-3.552-1.6h.485a2.551,2.551,0,0,1-.514.471,3.767,3.767,0,0,1-.941.506,1.706,1.706,0,0,1,.392.492,4.631,4.631,0,0,0,1-.628A3.8,3.8,0,0,0-2.346-1.6h.378A3.779,3.779,0,0,1-3.887.128a1.584,1.584,0,0,1,.471.478A4.148,4.148,0,0,0-2.239-.235a2.7,2.7,0,0,1,.157.742c.235.021.435.036.578.036.514,0,.727-.093.842-.357a6.856,6.856,0,0,0,.25-2.018c.014-.257.014-.3.029-.407a6.153,6.153,0,0,1-.635.021Zm1.861.62A4.952,4.952,0,0,1-1.305-.285c-.036.093-.107.121-.278.121a2.9,2.9,0,0,1-.649-.078A3.785,3.785,0,0,0-1.312-1.6Zm-4.1-2.51h-.571v-.97h.571Zm0,.678v1h-.592l.014-1Zm3.851-.036c.278,0,.485.007.649.021A5.847,5.847,0,0,1-.77-4.122v-.97a5.714,5.714,0,0,1,.029-.7,5.191,5.191,0,0,1-.763.036h-1.89a4.886,4.886,0,0,1-.727-.036,5.246,5.246,0,0,1,.029.649v1.02a6.227,6.227,0,0,1-.029.685,5.525,5.525,0,0,1,.656-.029Zm-1.99-1.712H-1.5v.335H-3.381Zm0,.827H-1.5v.328H-3.381Zm8.466.428A6.671,6.671,0,0,1,6.062-1.6l.813-.407a6.633,6.633,0,0,0-1.07-2.268Zm-2.1-1.569a1.659,1.659,0,0,1,.057-.221l-.927-.093v.128a10.032,10.032,0,0,1-.185,1.441,14.648,14.648,0,0,1-1.519.15L.5-3.245a2.929,2.929,0,0,1,.292-.071l.649-.107c.228-.043.228-.043.335-.057A10.49,10.49,0,0,1,.342-.121L1.17.335a15.312,15.312,0,0,0,1.455-3.88c.164-.014.278-.021.428-.021.549,0,.713.193.713.849A6.337,6.337,0,0,1,3.58-1.091c-.107.349-.221.485-.428.485A2.986,2.986,0,0,1,2.111-.891a2.679,2.679,0,0,1,.071.606c0,.071-.007.178-.014.314a3.306,3.306,0,0,0,1.1.214.9.9,0,0,0,.792-.321,4.522,4.522,0,0,0,.549-2.6,1.73,1.73,0,0,0-.335-1.262,1.382,1.382,0,0,0-1.056-.378c-.128,0-.228.007-.442.014.021-.093.021-.093.043-.214.071-.385.121-.678.157-.884Zm1.655.05a4.814,4.814,0,0,1,.749,1.063l.5-.264a4.622,4.622,0,0,0-.749-1.048Zm2.1.335A4.124,4.124,0,0,0,6-6.112l-.478.25a5.255,5.255,0,0,1,.727,1.034ZM9.357-2.646c.157-.335.471-1.113.877-2.154a6.872,6.872,0,0,1,.349-.82l-.963-.242a50.047,50.047,0,0,1-1.69,4.85c-.228.62-.292.792-.392,1l.92.3a8.181,8.181,0,0,1,.6-1.633c.349-.642.749-1,1.134-1a.353.353,0,0,1,.321.164.973.973,0,0,1,.057.421c0,.071,0,.242-.007.5v.071a2.067,2.067,0,0,0,.121.792,1.116,1.116,0,0,0,1.12.62C12.88.221,13.579-.521,13.886-2a2.23,2.23,0,0,1-.785-.535A4.47,4.47,0,0,1,12.83-1.4c-.207.5-.514.763-.891.763a.6.6,0,0,1-.378-.1c-.128-.107-.157-.25-.157-.763,0-.82-.036-1.077-.178-1.305a.966.966,0,0,0-.8-.407,1.334,1.334,0,0,0-.92.421l-.136.157Z" transform="translate(2231.246 4316.862)" fill="#333"/>
      <path id="パス_628" data-name="パス 628" d="M-8.73-.606h3.181v.278c0,.157-.071.2-.307.2a8.545,8.545,0,0,1-.891-.057A2.438,2.438,0,0,1-6.6.492c.321.014.478.021.613.021A1.879,1.879,0,0,0-5.021.378a.613.613,0,0,0,.235-.563v-2.09c0-.385.007-.578.029-.82a6.058,6.058,0,0,1-.749.029H-8.744c-.335,0-.542-.007-.777-.029a6.985,6.985,0,0,1,.029.792V-.342a7.206,7.206,0,0,1-.036.9h.834C-8.715.328-8.73.071-8.73-.257Zm0-.578v-.364h3.181v.364Zm0-.934v-.349h3.181v.349ZM-9.892-4.037c0,.278-.007.442-.029.706a5.266,5.266,0,0,1,.67-.029h4.236a5.322,5.322,0,0,1,.678.029c-.021-.25-.029-.407-.029-.706V-5.128a6.157,6.157,0,0,1,.029-.706,6.072,6.072,0,0,1-.77.036H-9.15a6,6,0,0,1-.77-.036,6.4,6.4,0,0,1,.029.706Zm.742-1.205h1.6v.392h-1.6Zm0,.941h1.6v.392h-1.6Zm4.037-.941v.392H-6.825v-.392Zm0,.941v.392H-6.825V-4.3Zm6.633.378A6.671,6.671,0,0,1,2.5-1.6l.813-.407a6.633,6.633,0,0,0-1.07-2.268Zm-2.1-1.569a1.659,1.659,0,0,1,.057-.221l-.927-.093v.128a10.032,10.032,0,0,1-.185,1.441,14.648,14.648,0,0,1-1.519.15l.086.842a2.929,2.929,0,0,1,.292-.071l.649-.107c.228-.043.228-.043.335-.057A10.49,10.49,0,0,1-3.224-.121L-2.4.335A15.312,15.312,0,0,0-.941-3.545c.164-.014.278-.021.428-.021.549,0,.713.193.713.849A6.337,6.337,0,0,1,.014-1.091c-.107.349-.221.485-.428.485A2.986,2.986,0,0,1-1.455-.891a2.679,2.679,0,0,1,.071.606c0,.071-.007.178-.014.314A3.306,3.306,0,0,0-.3.242.9.9,0,0,0,.492-.078a4.522,4.522,0,0,0,.549-2.6A1.73,1.73,0,0,0,.706-3.937,1.382,1.382,0,0,0-.349-4.315c-.128,0-.228.007-.442.014.021-.093.021-.093.043-.214.071-.385.121-.678.157-.884Zm1.655.05a4.814,4.814,0,0,1,.749,1.063l.5-.264a4.622,4.622,0,0,0-.749-1.048Zm2.1.335a4.124,4.124,0,0,0-.742-1.006l-.478.25a5.255,5.255,0,0,1,.727,1.034ZM5.791-2.646c.157-.335.471-1.113.877-2.154a6.872,6.872,0,0,1,.349-.82l-.963-.242a50.047,50.047,0,0,1-1.69,4.85c-.228.62-.292.792-.392,1l.92.3a8.181,8.181,0,0,1,.6-1.633c.349-.642.749-1,1.134-1a.353.353,0,0,1,.321.164A.973.973,0,0,1,7-1.762c0,.071,0,.242-.007.5v.071A2.067,2.067,0,0,0,7.118-.4a1.116,1.116,0,0,0,1.12.62C9.314.221,10.013-.521,10.32-2a2.23,2.23,0,0,1-.785-.535A4.47,4.47,0,0,1,9.264-1.4c-.207.5-.514.763-.891.763a.6.6,0,0,1-.378-.1c-.128-.107-.157-.25-.157-.763,0-.82-.036-1.077-.178-1.305a.966.966,0,0,0-.8-.407,1.334,1.334,0,0,0-.92.421l-.136.157Z" transform="translate(2284.296 4316.862)" fill="#333"/>
      <path id="パス_627" data-name="パス 627" d="M-15.7-1.726V-.371c0,.15-.043.185-.235.185a2.789,2.789,0,0,1-.478-.057,2.434,2.434,0,0,1,.178.749c.349.014.349.014.435.014.613,0,.8-.171.8-.742v-4.9a5.014,5.014,0,0,1,.029-.656,4.3,4.3,0,0,1-.613.029h-.792a6.917,6.917,0,0,1-.727-.029,9.43,9.43,0,0,1,.043,1.034c0,3.074-.1,3.951-.549,4.75a2.881,2.881,0,0,1,.606.642,3.351,3.351,0,0,0,.364-.9,8.732,8.732,0,0,0,.207-1.476Zm0-2.361h-.67v-.956h.67Zm0,.685v.991h-.7c.007-.107.007-.221.014-.514,0-.107,0-.271.007-.478Zm3.644,2.368c.278,0,.556.007.7.021-.014-.235-.021-.414-.021-.827V-4.885c0-.392.007-.6.021-.827a6.058,6.058,0,0,1-.749.029h-1.655a5.876,5.876,0,0,1-.727-.029c.014.185.021.428.021.77v3.188c0,.292-.007.549-.021.742.157-.014.464-.021.72-.021Zm-1.669-3.951h1.59v1.262h-1.59Zm0,1.947h1.59v1.277h-1.59ZM-14.792.378a6.073,6.073,0,0,1,.806-.043h2.268a6.181,6.181,0,0,1,.8.043V-.414a6.013,6.013,0,0,1-.8.036h-2.261a6.738,6.738,0,0,1-.813-.036Zm8.216-4.95a1.559,1.559,0,0,1,.72.214,1.767,1.767,0,0,1,.877,1.583A2,2,0,0,1-5.969-.991,3.79,3.79,0,0,1-7.389-.6a2.275,2.275,0,0,1,.435.834,4.663,4.663,0,0,0,1.12-.3A2.748,2.748,0,0,0-4.1-2.724,2.57,2.57,0,0,0-6.925-5.37a3.2,3.2,0,0,0-2.453,1A3.064,3.064,0,0,0-10.163-2.3c0,1.148.585,1.976,1.4,1.976.585,0,1.041-.421,1.448-1.341A10.318,10.318,0,0,0-6.576-4.572Zm-.87.007a9.4,9.4,0,0,1-.592,2.411c-.257.613-.5.913-.735.913-.314,0-.563-.464-.563-1.048a2.388,2.388,0,0,1,.97-1.926A1.815,1.815,0,0,1-7.446-4.564Zm5.67-.421a15.8,15.8,0,0,0,3.331.449l.121-.877h-.2A9.777,9.777,0,0,1-1.5-5.827ZM-2.4-2.6A9.972,9.972,0,0,1,.421-3.1c.742,0,1.12.271,1.12.806A1.474,1.474,0,0,1,.67-1.034a4.978,4.978,0,0,1-2.147.542A2.037,2.037,0,0,1-1.105.4a5.838,5.838,0,0,0,2.247-.67A2.4,2.4,0,0,0,2.5-2.318,1.468,1.468,0,0,0,1.8-3.623,2.573,2.573,0,0,0,.456-3.915a12.443,12.443,0,0,0-2.239.242,4.855,4.855,0,0,1-.827.121ZM8.651-3.923A6.671,6.671,0,0,1,9.628-1.6l.813-.407a6.633,6.633,0,0,0-1.07-2.268Zm-2.1-1.569a1.659,1.659,0,0,1,.057-.221l-.927-.093v.128A10.032,10.032,0,0,1,5.5-4.236a14.648,14.648,0,0,1-1.519.15l.086.842a2.929,2.929,0,0,1,.292-.071l.649-.107c.228-.043.228-.043.335-.057A10.49,10.49,0,0,1,3.908-.121l.827.456a15.312,15.312,0,0,0,1.455-3.88c.164-.014.278-.021.428-.021.549,0,.713.193.713.849a6.337,6.337,0,0,1-.185,1.626c-.107.349-.221.485-.428.485A2.986,2.986,0,0,1,5.677-.891a2.679,2.679,0,0,1,.071.606c0,.071-.007.178-.014.314a3.306,3.306,0,0,0,1.1.214.9.9,0,0,0,.792-.321,4.522,4.522,0,0,0,.549-2.6,1.73,1.73,0,0,0-.335-1.262,1.382,1.382,0,0,0-1.056-.378c-.128,0-.228.007-.442.014.021-.093.021-.093.043-.214.071-.385.121-.678.157-.884Zm1.655.05a4.814,4.814,0,0,1,.749,1.063l.5-.264a4.622,4.622,0,0,0-.749-1.048Zm2.1.335a4.125,4.125,0,0,0-.742-1.006l-.478.25a5.255,5.255,0,0,1,.727,1.034Zm2.617,2.461c.157-.335.471-1.113.877-2.154a6.872,6.872,0,0,1,.349-.82l-.963-.242a50.047,50.047,0,0,1-1.69,4.85c-.228.62-.292.792-.392,1l.92.3a8.181,8.181,0,0,1,.6-1.633c.349-.642.749-1,1.134-1a.353.353,0,0,1,.321.164.973.973,0,0,1,.057.421c0,.071,0,.242-.007.5v.071A2.067,2.067,0,0,0,14.25-.4a1.116,1.116,0,0,0,1.12.62c1.077,0,1.776-.742,2.083-2.218a2.23,2.23,0,0,1-.785-.535A4.47,4.47,0,0,1,16.4-1.4c-.207.5-.514.763-.891.763a.6.6,0,0,1-.378-.1C15-.842,14.97-.984,14.97-1.5c0-.82-.036-1.077-.178-1.305a.966.966,0,0,0-.8-.407,1.334,1.334,0,0,0-.92.421l-.136.157Z" transform="translate(2337.346 4316.862)" fill="#333"/>
      <path id="パス_626" data-name="パス 626" d="M-14.592-3.181h-1.9a8.652,8.652,0,0,1-.991-.043v.863a9.117,9.117,0,0,1,.97-.043h1.919V-.521c0,.157-.05.185-.342.185a6.291,6.291,0,0,1-1.034-.086,2.871,2.871,0,0,1,.221.856c.514.021.656.029.8.029.949,0,1.191-.157,1.191-.785V-2.4h1.747a8.751,8.751,0,0,1,.97.043v-.863a7.987,7.987,0,0,1-.97.043h-1.747v-.307a9.7,9.7,0,0,0,1.519-1.1c.485-.464.485-.464.67-.635l-.464-.521a2.918,2.918,0,0,1-.62.036h-3.231a7.014,7.014,0,0,1-.856-.043v.842a7.061,7.061,0,0,1,.863-.043h2.846a6.264,6.264,0,0,1-1.212.913h-.371c.014.164.021.314.021.542Zm7-2.232H-9.436a7.775,7.775,0,0,1-.785-.029,3.725,3.725,0,0,1,.029.528v.663a3.923,3.923,0,0,1-.029.549h.77V-4.707H-4.8V-3.7h.77a4.264,4.264,0,0,1-.029-.549v-.663a3.537,3.537,0,0,1,.029-.528c-.221.021-.442.029-.785.029H-6.79v-.143a2.089,2.089,0,0,1,.043-.449h-.884a1.884,1.884,0,0,1,.043.449Zm0,3.017a5.838,5.838,0,0,1-.235.542H-9.086a5.815,5.815,0,0,1-.663-.029,4.433,4.433,0,0,1,.036.685v1.07a5.952,5.952,0,0,1-.043.706h.792v-.3h3.687v.3h.785a5.453,5.453,0,0,1-.036-.7v-1.07A6.368,6.368,0,0,1-4.5-1.883a5.266,5.266,0,0,1-.67.029H-7A5.011,5.011,0,0,0-6.783-2.4H-5.77c.335,0,.521.007.749.021a4.016,4.016,0,0,1-.029-.635v-.742a4.619,4.619,0,0,1,.021-.556,3.513,3.513,0,0,1-.514.029H-8.672a3.705,3.705,0,0,1-.535-.029c.014.157.021.3.021.535v.763a4.386,4.386,0,0,1-.029.635c.221-.014.371-.021.749-.021Zm-.856-1.248h2.653v.606H-8.444Zm-.521,2.468h3.687v.763H-8.965Zm6.989-.392v.941a7.887,7.887,0,0,1-1.291.193l.193.763a1.419,1.419,0,0,1,.3-.078A23.962,23.962,0,0,0-.164-.4l.007-.67a10.754,10.754,0,0,1-1.056.285v-.785h.385a5.488,5.488,0,0,1,.656.036V-2.3a4.069,4.069,0,0,1-.642.043h-.4v-.214a3.192,3.192,0,0,1,.036-.542h-.842a3.57,3.57,0,0,1,.043.571v.185H-2.4A4.367,4.367,0,0,1-3.067-2.3v.763a4.573,4.573,0,0,1,.67-.036Zm-.364-3.438-.485.207a4.561,4.561,0,0,0,.706.891,3.7,3.7,0,0,1-1.234.521,1.9,1.9,0,0,1,.392.67,5.11,5.11,0,0,0,1.426-.727A5.818,5.818,0,0,0-.321-2.86a2.567,2.567,0,0,1,.349-.7A4.392,4.392,0,0,1-.991-3.93,6.51,6.51,0,0,0-.05-5.3L-.435-5.72a2.765,2.765,0,0,1-.535.029h-1.5a5.793,5.793,0,0,1-.706-.036v.749a5.753,5.753,0,0,1,.62-.029Zm1.327,0a2.537,2.537,0,0,1-.563.685,2.561,2.561,0,0,1-.592-.685Zm2.239-.043a3.667,3.667,0,0,1-.2.542h-.3a4.17,4.17,0,0,1-.606-.021c.014.2.021.328.021.67v2.4C.143-1.22.136-1,.121-.8.278-.813.456-.82.685-.82H.792A3.1,3.1,0,0,1-.663.057a1.734,1.734,0,0,1,.506.62A4.08,4.08,0,0,0,1.355-.378L.827-.82H2.168l-.549.428A5.07,5.07,0,0,0,2.917.67,2.847,2.847,0,0,1,3.43.064,3.409,3.409,0,0,1,2.2-.82h.2c.2,0,.421.007.613.021C3-1.02,3-1.248,3-1.533V-3.858c0-.271.007-.485.021-.67-.157.014-.321.021-.7.021H1.783a5.43,5.43,0,0,0,.207-.542H2.5a5.362,5.362,0,0,1,.77.036v-.763a4.1,4.1,0,0,1-.77.043H.756A4.02,4.02,0,0,1,0-5.777v.763a5.141,5.141,0,0,1,.756-.036ZM.849-3.9H2.289v.435H.849Zm0,1.02H2.289v.414H.849Zm0,1H2.289v.428H.849Zm7.8-2.04A6.671,6.671,0,0,1,9.628-1.6l.813-.407a6.633,6.633,0,0,0-1.07-2.268Zm-2.1-1.569a1.659,1.659,0,0,1,.057-.221l-.927-.093v.128A10.032,10.032,0,0,1,5.5-4.236a14.648,14.648,0,0,1-1.519.15l.086.842a2.929,2.929,0,0,1,.292-.071l.649-.107c.228-.043.228-.043.335-.057A10.49,10.49,0,0,1,3.908-.121l.827.456a15.312,15.312,0,0,0,1.455-3.88c.164-.014.278-.021.428-.021.549,0,.713.193.713.849a6.337,6.337,0,0,1-.185,1.626c-.107.349-.221.485-.428.485A2.986,2.986,0,0,1,5.677-.891a2.679,2.679,0,0,1,.071.606c0,.071-.007.178-.014.314a3.306,3.306,0,0,0,1.1.214.9.9,0,0,0,.792-.321,4.522,4.522,0,0,0,.549-2.6,1.73,1.73,0,0,0-.335-1.262,1.382,1.382,0,0,0-1.056-.378c-.128,0-.228.007-.442.014.021-.093.021-.093.043-.214.071-.385.121-.678.157-.884Zm1.655.05a4.814,4.814,0,0,1,.749,1.063l.5-.264a4.622,4.622,0,0,0-.749-1.048Zm2.1.335a4.125,4.125,0,0,0-.742-1.006l-.478.25a5.255,5.255,0,0,1,.727,1.034Zm2.617,2.461c.157-.335.471-1.113.877-2.154a6.872,6.872,0,0,1,.349-.82l-.963-.242a50.047,50.047,0,0,1-1.69,4.85c-.228.62-.292.792-.392,1l.92.3a8.181,8.181,0,0,1,.6-1.633c.349-.642.749-1,1.134-1a.353.353,0,0,1,.321.164.973.973,0,0,1,.057.421c0,.071,0,.242-.007.5v.071A2.067,2.067,0,0,0,14.25-.4a1.116,1.116,0,0,0,1.12.62c1.077,0,1.776-.742,2.083-2.218a2.23,2.23,0,0,1-.785-.535A4.47,4.47,0,0,1,16.4-1.4c-.207.5-.514.763-.891.763a.6.6,0,0,1-.378-.1C15-.842,14.97-.984,14.97-1.5c0-.82-.036-1.077-.178-1.305a.966.966,0,0,0-.8-.407,1.334,1.334,0,0,0-.92.421l-.136.157Z" transform="translate(2390.396 4316.862)" fill="#333"/>
      <path id="パス_625" data-name="パス 625" d="M-7.217,0H-8.234V-3.482H-9.422v-.676a4.4,4.4,0,0,0,.658-.063.928.928,0,0,0,.488-.265.871.871,0,0,0,.2-.362.831.831,0,0,0,.038-.2h.825Zm3.576,0H-4.658V-3.482H-5.845v-.676a4.4,4.4,0,0,0,.658-.063A.928.928,0,0,0-4.7-4.485a.871.871,0,0,0,.2-.362.831.831,0,0,0,.038-.2h.825Zm1.713-1.038H-.872V0H-1.928ZM2.088-4.022a.625.625,0,0,0-.508-.212A.62.62,0,0,0,.963-3.9a1.675,1.675,0,0,0-.111.62H-.113A2.439,2.439,0,0,1,.12-4.318a1.453,1.453,0,0,1,1.41-.756,1.788,1.788,0,0,1,1.275.444,1.535,1.535,0,0,1,.474,1.175,1.591,1.591,0,0,1-.334,1,3.331,3.331,0,0,1-.721.644l-.4.282q-.373.265-.51.383a1.123,1.123,0,0,0-.232.275h2.2V0H-.169A2.373,2.373,0,0,1,.064-.992a2.806,2.806,0,0,1,1-1.069,7.355,7.355,0,0,0,.888-.7,1.04,1.04,0,0,0,.31-.724A.8.8,0,0,0,2.088-4.022ZM7.123-1.194a1.252,1.252,0,0,1,.38-.919,1.254,1.254,0,0,1,.916-.376,1.248,1.248,0,0,1,.916.38,1.248,1.248,0,0,1,.38.916,1.248,1.248,0,0,1-.38.916A1.248,1.248,0,0,1,8.419.1,1.248,1.248,0,0,1,7.5-.279,1.248,1.248,0,0,1,7.123-1.194ZM4.118-2.814a1.248,1.248,0,0,1-.38-.916,1.248,1.248,0,0,1,.38-.916,1.248,1.248,0,0,1,.916-.38,1.248,1.248,0,0,1,.916.38,1.248,1.248,0,0,1,.38.916,1.251,1.251,0,0,1-.378.916,1.246,1.246,0,0,1-.918.38A1.248,1.248,0,0,1,4.118-2.814ZM5.581.132h-.54L7.865-5.049h.529ZM8.029-.8a.525.525,0,0,0,.39.164A.534.534,0,0,0,8.811-.8a.534.534,0,0,0,.162-.392.534.534,0,0,0-.162-.392.534.534,0,0,0-.392-.162.534.534,0,0,0-.392.162.534.534,0,0,0-.162.392A.525.525,0,0,0,8.029-.8ZM4.644-3.34a.525.525,0,0,0,.39.164.534.534,0,0,0,.392-.162.534.534,0,0,0,.162-.392.534.534,0,0,0-.162-.392.534.534,0,0,0-.392-.162.534.534,0,0,0-.392.162.534.534,0,0,0-.162.392A.525.525,0,0,0,4.644-3.34Z" transform="translate(2237.258 4286.633)" fill="#333"/>
      <path id="パス_624" data-name="パス 624" d="M-2.974-3.277a1.448,1.448,0,0,1,1.1.456,1.632,1.632,0,0,1,.43,1.167A1.969,1.969,0,0,1-1.863-.407a1.558,1.558,0,0,1-1.309.54,1.507,1.507,0,0,1-1.407-.8,3.252,3.252,0,0,1-.352-1.609,7.316,7.316,0,0,1,.049-.94,2.875,2.875,0,0,1,.338-1.073,1.728,1.728,0,0,1,.566-.589A1.526,1.526,0,0,1-3.141-5.1a1.658,1.658,0,0,1,1.121.36,1.371,1.371,0,0,1,.47.959h-.989a.506.506,0,0,0-.094-.268.545.545,0,0,0-.484-.237.716.716,0,0,0-.69.543,3.371,3.371,0,0,0-.153.885,1.114,1.114,0,0,1,.428-.32A1.445,1.445,0,0,1-2.974-3.277Zm-.669.947a.867.867,0,0,0-.293.731.99.99,0,0,0,.219.665.7.7,0,0,0,.557.258.619.619,0,0,0,.521-.249,1.037,1.037,0,0,0,.19-.646.967.967,0,0,0-.216-.677.691.691,0,0,0-.529-.235A.707.707,0,0,0-3.643-2.33Zm6,1.135a1.252,1.252,0,0,1,.38-.919,1.254,1.254,0,0,1,.916-.376,1.248,1.248,0,0,1,.916.38,1.248,1.248,0,0,1,.38.916,1.248,1.248,0,0,1-.38.916A1.248,1.248,0,0,1,3.657.1a1.248,1.248,0,0,1-.916-.38A1.248,1.248,0,0,1,2.361-1.194ZM-.644-2.814a1.248,1.248,0,0,1-.38-.916,1.248,1.248,0,0,1,.38-.916,1.248,1.248,0,0,1,.916-.38,1.248,1.248,0,0,1,.916.38,1.248,1.248,0,0,1,.38.916,1.251,1.251,0,0,1-.378.916,1.246,1.246,0,0,1-.918.38A1.248,1.248,0,0,1-.644-2.814ZM.818.132H.279L3.1-5.049h.529ZM3.267-.8a.525.525,0,0,0,.39.164A.534.534,0,0,0,4.048-.8a.534.534,0,0,0,.162-.392.534.534,0,0,0-.162-.392.534.534,0,0,0-.392-.162.534.534,0,0,0-.392.162.534.534,0,0,0-.162.392A.525.525,0,0,0,3.267-.8ZM-.118-3.34a.525.525,0,0,0,.39.164.534.534,0,0,0,.392-.162A.534.534,0,0,0,.825-3.73a.534.534,0,0,0-.162-.392.534.534,0,0,0-.392-.162.534.534,0,0,0-.392.162.534.534,0,0,0-.162.392A.525.525,0,0,0-.118-3.34Z" transform="translate(2290.503 4294.256)" fill="#333"/>
      <path id="パス_623" data-name="パス 623" d="M-6.164.125A1.429,1.429,0,0,1-7.517-.55a3.908,3.908,0,0,1-.388-1.926,3.929,3.929,0,0,1,.388-1.929,1.427,1.427,0,0,1,1.353-.679,1.431,1.431,0,0,1,1.355.679,3.944,3.944,0,0,1,.387,1.929A3.908,3.908,0,0,1-4.811-.55,1.429,1.429,0,0,1-6.164.125Zm.582-1.271a4.968,4.968,0,0,0,.136-1.33,4.873,4.873,0,0,0-.138-1.351.562.562,0,0,0-.58-.439.57.57,0,0,0-.585.439,4.7,4.7,0,0,0-.143,1.351,4.756,4.756,0,0,0,.143,1.332.575.575,0,0,0,.585.461A.57.57,0,0,0-5.582-1.146Zm1.867.108h1.055V0H-3.716ZM0-3.277a1.448,1.448,0,0,1,1.1.456,1.632,1.632,0,0,1,.43,1.167A1.969,1.969,0,0,1,1.111-.407,1.558,1.558,0,0,1-.2.132a1.507,1.507,0,0,1-1.407-.8,3.252,3.252,0,0,1-.352-1.609,7.316,7.316,0,0,1,.049-.94,2.875,2.875,0,0,1,.338-1.073A1.728,1.728,0,0,1-1-4.875,1.526,1.526,0,0,1-.167-5.1a1.658,1.658,0,0,1,1.121.36,1.371,1.371,0,0,1,.47.959H.435a.506.506,0,0,0-.094-.268.545.545,0,0,0-.484-.237.716.716,0,0,0-.69.543,3.371,3.371,0,0,0-.153.885,1.114,1.114,0,0,1,.428-.32A1.445,1.445,0,0,1,0-3.277Zm-.669.947A.867.867,0,0,0-.961-1.6a.99.99,0,0,0,.219.665.7.7,0,0,0,.557.258A.619.619,0,0,0,.336-.925a1.037,1.037,0,0,0,.19-.646A.967.967,0,0,0,.31-2.248a.691.691,0,0,0-.529-.235A.707.707,0,0,0-.669-2.33Zm6,1.135a1.252,1.252,0,0,1,.38-.919,1.254,1.254,0,0,1,.916-.376,1.248,1.248,0,0,1,.916.38,1.248,1.248,0,0,1,.38.916,1.248,1.248,0,0,1-.38.916A1.248,1.248,0,0,1,6.631.1a1.248,1.248,0,0,1-.916-.38A1.248,1.248,0,0,1,5.335-1.194ZM2.33-2.814a1.248,1.248,0,0,1-.38-.916,1.248,1.248,0,0,1,.38-.916,1.248,1.248,0,0,1,.916-.38,1.248,1.248,0,0,1,.916.38,1.248,1.248,0,0,1,.38.916,1.251,1.251,0,0,1-.378.916,1.246,1.246,0,0,1-.918.38A1.248,1.248,0,0,1,2.33-2.814ZM3.792.132h-.54L6.077-5.049h.529ZM6.24-.8a.525.525,0,0,0,.39.164A.534.534,0,0,0,7.022-.8a.534.534,0,0,0,.162-.392.534.534,0,0,0-.162-.392.534.534,0,0,0-.392-.162.534.534,0,0,0-.392.162.534.534,0,0,0-.162.392A.525.525,0,0,0,6.24-.8ZM2.856-3.34a.525.525,0,0,0,.39.164.534.534,0,0,0,.392-.162A.534.534,0,0,0,3.8-3.73a.534.534,0,0,0-.162-.392.534.534,0,0,0-.392-.162.534.534,0,0,0-.392.162.534.534,0,0,0-.162.392A.525.525,0,0,0,2.856-3.34Z" transform="translate(2343.357 4301.959)" fill="#333"/>
      <path id="パス_622" data-name="パス 622" d="M-7.412,0H-8.429V-3.482H-9.617v-.676a4.4,4.4,0,0,0,.658-.063.928.928,0,0,0,.488-.265.871.871,0,0,0,.2-.362.831.831,0,0,0,.038-.2h.825Zm1.891-.317A1.493,1.493,0,0,1-5.957-1.4a1.547,1.547,0,0,1,.193-.77A1.224,1.224,0,0,1-5.2-2.688a1.178,1.178,0,0,1-.475-.528,1.478,1.478,0,0,1-.11-.531,1.239,1.239,0,0,1,.414-.939A1.646,1.646,0,0,1-4.2-5.074a1.646,1.646,0,0,1,1.17.388,1.239,1.239,0,0,1,.414.939,1.478,1.478,0,0,1-.11.531,1.014,1.014,0,0,1-.475.493,1.4,1.4,0,0,1,.561.554,1.581,1.581,0,0,1,.188.77A1.44,1.44,0,0,1-2.922-.315,1.839,1.839,0,0,1-4.24.132,1.705,1.705,0,0,1-5.521-.317Zm.6-1.149a.811.811,0,0,0,.193.578A.7.7,0,0,0-4.2-.683a.7.7,0,0,0,.535-.205.811.811,0,0,0,.193-.578.8.8,0,0,0-.2-.587.711.711,0,0,0-.531-.2.711.711,0,0,0-.531.2A.8.8,0,0,0-4.926-1.466Zm.261-1.72a.616.616,0,0,0,.467.174.615.615,0,0,0,.468-.174.626.626,0,0,0,.165-.449A.641.641,0,0,0-3.73-4.1.626.626,0,0,0-4.2-4.273a.633.633,0,0,0-.468.169.633.633,0,0,0-.169.468A.615.615,0,0,0-4.665-3.186Zm2.932,2.149H-.677V0H-1.732ZM1.983-3.277a1.448,1.448,0,0,1,1.1.456,1.632,1.632,0,0,1,.43,1.167A1.969,1.969,0,0,1,3.094-.407a1.558,1.558,0,0,1-1.309.54,1.507,1.507,0,0,1-1.407-.8A3.252,3.252,0,0,1,.026-2.274a7.316,7.316,0,0,1,.049-.94A2.875,2.875,0,0,1,.413-4.287a1.728,1.728,0,0,1,.566-.589A1.526,1.526,0,0,1,1.816-5.1a1.658,1.658,0,0,1,1.121.36,1.371,1.371,0,0,1,.47.959H2.419a.506.506,0,0,0-.094-.268.545.545,0,0,0-.484-.237.716.716,0,0,0-.69.543A3.371,3.371,0,0,0,1-2.856a1.114,1.114,0,0,1,.428-.32A1.445,1.445,0,0,1,1.983-3.277Zm-.669.947a.867.867,0,0,0-.293.731.99.99,0,0,0,.219.665A.7.7,0,0,0,1.8-.676a.619.619,0,0,0,.521-.249,1.037,1.037,0,0,0,.19-.646.967.967,0,0,0-.216-.677.691.691,0,0,0-.529-.235A.707.707,0,0,0,1.315-2.33Zm6,1.135a1.252,1.252,0,0,1,.38-.919,1.254,1.254,0,0,1,.916-.376,1.248,1.248,0,0,1,.916.38,1.248,1.248,0,0,1,.38.916,1.248,1.248,0,0,1-.38.916A1.248,1.248,0,0,1,8.614.1,1.248,1.248,0,0,1,7.7-.279,1.248,1.248,0,0,1,7.318-1.194ZM4.313-2.814a1.248,1.248,0,0,1-.38-.916,1.248,1.248,0,0,1,.38-.916,1.248,1.248,0,0,1,.916-.38,1.248,1.248,0,0,1,.916.38,1.248,1.248,0,0,1,.38.916,1.251,1.251,0,0,1-.378.916,1.246,1.246,0,0,1-.918.38A1.248,1.248,0,0,1,4.313-2.814ZM5.776.132h-.54L8.06-5.049h.529ZM8.224-.8a.525.525,0,0,0,.39.164A.534.534,0,0,0,9.006-.8a.534.534,0,0,0,.162-.392.534.534,0,0,0-.162-.392.534.534,0,0,0-.392-.162.534.534,0,0,0-.392.162.534.534,0,0,0-.162.392A.525.525,0,0,0,8.224-.8ZM4.839-3.34a.525.525,0,0,0,.39.164.534.534,0,0,0,.392-.162.534.534,0,0,0,.162-.392.534.534,0,0,0-.162-.392.534.534,0,0,0-.392-.162.534.534,0,0,0-.392.162.534.534,0,0,0-.162.392A.525.525,0,0,0,4.839-3.34Z" transform="translate(2396.407 4280.352)" fill="#333"/>
      <path id="パス_621" data-name="パス 621" d="M-9.488-.317A1.493,1.493,0,0,1-9.923-1.4a1.547,1.547,0,0,1,.193-.77,1.224,1.224,0,0,1,.566-.519,1.178,1.178,0,0,1-.475-.528,1.478,1.478,0,0,1-.11-.531,1.239,1.239,0,0,1,.414-.939,1.646,1.646,0,0,1,1.17-.388,1.646,1.646,0,0,1,1.17.388,1.239,1.239,0,0,1,.414.939,1.478,1.478,0,0,1-.11.531,1.014,1.014,0,0,1-.475.493A1.4,1.4,0,0,1-6.6-2.17a1.581,1.581,0,0,1,.188.77A1.44,1.44,0,0,1-6.888-.315,1.839,1.839,0,0,1-8.206.132,1.705,1.705,0,0,1-9.488-.317Zm.6-1.149A.811.811,0,0,0-8.7-.888a.7.7,0,0,0,.535.205A.7.7,0,0,0-7.63-.888a.811.811,0,0,0,.193-.578.8.8,0,0,0-.2-.587.711.711,0,0,0-.531-.2.711.711,0,0,0-.531.2A.8.8,0,0,0-8.892-1.466Zm.261-1.72a.616.616,0,0,0,.467.174A.615.615,0,0,0-7.7-3.186a.626.626,0,0,0,.165-.449A.641.641,0,0,0-7.7-4.1a.626.626,0,0,0-.468-.169.633.633,0,0,0-.468.169.633.633,0,0,0-.169.468A.615.615,0,0,0-8.631-3.186ZM-4.181.125A1.429,1.429,0,0,1-5.534-.55a3.908,3.908,0,0,1-.388-1.926,3.929,3.929,0,0,1,.388-1.929,1.427,1.427,0,0,1,1.353-.679,1.431,1.431,0,0,1,1.355.679,3.944,3.944,0,0,1,.387,1.929A3.908,3.908,0,0,1-2.828-.55,1.429,1.429,0,0,1-4.181.125ZM-3.6-1.146a4.968,4.968,0,0,0,.136-1.33A4.873,4.873,0,0,0-3.6-3.827a.562.562,0,0,0-.58-.439.57.57,0,0,0-.585.439,4.7,4.7,0,0,0-.143,1.351,4.756,4.756,0,0,0,.143,1.332.575.575,0,0,0,.585.461A.57.57,0,0,0-3.6-1.146Zm1.867.108H-.677V0H-1.732Zm5.265-.825v.777H2.962V0H1.99V-1.087h-2v-.867L1.847-5.018H2.962v3.155Zm-2.807,0H1.99v-2.18Zm6.592.669a1.252,1.252,0,0,1,.38-.919,1.254,1.254,0,0,1,.916-.376,1.248,1.248,0,0,1,.916.38,1.248,1.248,0,0,1,.38.916,1.248,1.248,0,0,1-.38.916A1.248,1.248,0,0,1,8.614.1,1.248,1.248,0,0,1,7.7-.279,1.248,1.248,0,0,1,7.318-1.194ZM4.313-2.814a1.248,1.248,0,0,1-.38-.916,1.248,1.248,0,0,1,.38-.916,1.248,1.248,0,0,1,.916-.38,1.248,1.248,0,0,1,.916.38,1.248,1.248,0,0,1,.38.916,1.251,1.251,0,0,1-.378.916,1.246,1.246,0,0,1-.918.38A1.248,1.248,0,0,1,4.313-2.814ZM5.776.132h-.54L8.06-5.049h.529ZM8.224-.8a.525.525,0,0,0,.39.164A.534.534,0,0,0,9.006-.8a.534.534,0,0,0,.162-.392.534.534,0,0,0-.162-.392.534.534,0,0,0-.392-.162.534.534,0,0,0-.392.162.534.534,0,0,0-.162.392A.525.525,0,0,0,8.224-.8ZM4.839-3.34a.525.525,0,0,0,.39.164.534.534,0,0,0,.392-.162.534.534,0,0,0,.162-.392.534.534,0,0,0-.162-.392.534.534,0,0,0-.392-.162.534.534,0,0,0-.392.162.534.534,0,0,0-.162.392A.525.525,0,0,0,4.839-3.34Z" transform="translate(2224.777 4187.464)" fill="#333"/>
      <path id="パス_620" data-name="パス 620" d="M-6.97-3.427a6.966,6.966,0,0,0-.665,1.163,6.913,6.913,0,0,0-.383,1.149A4.772,4.772,0,0,0-8.189,0H-9.22a6.069,6.069,0,0,1,.891-2.824,6.671,6.671,0,0,1,.916-1.268H-9.93l.014-.891H-6.35v.777A6.309,6.309,0,0,0-6.97-3.427Zm3.966,0a6.966,6.966,0,0,0-.665,1.163,6.913,6.913,0,0,0-.383,1.149A4.772,4.772,0,0,0-4.222,0H-5.253a6.069,6.069,0,0,1,.891-2.824,6.671,6.671,0,0,1,.916-1.268H-5.964l.014-.891h3.566v.777A6.309,6.309,0,0,0-3-3.427Zm1.271,2.389H-.677V0H-1.732ZM2.944-3.427a6.966,6.966,0,0,0-.665,1.163A6.913,6.913,0,0,0,1.9-1.114,4.772,4.772,0,0,0,1.726,0H.695a6.069,6.069,0,0,1,.891-2.824A6.671,6.671,0,0,1,2.5-4.092H-.016L0-4.983H3.564v.777A6.309,6.309,0,0,0,2.944-3.427ZM7.318-1.194a1.252,1.252,0,0,1,.38-.919,1.254,1.254,0,0,1,.916-.376,1.248,1.248,0,0,1,.916.38,1.248,1.248,0,0,1,.38.916,1.248,1.248,0,0,1-.38.916A1.248,1.248,0,0,1,8.614.1,1.248,1.248,0,0,1,7.7-.279,1.248,1.248,0,0,1,7.318-1.194ZM4.313-2.814a1.248,1.248,0,0,1-.38-.916,1.248,1.248,0,0,1,.38-.916,1.248,1.248,0,0,1,.916-.38,1.248,1.248,0,0,1,.916.38,1.248,1.248,0,0,1,.38.916,1.251,1.251,0,0,1-.378.916,1.246,1.246,0,0,1-.918.38A1.248,1.248,0,0,1,4.313-2.814ZM5.776.132h-.54L8.06-5.049h.529ZM8.224-.8a.525.525,0,0,0,.39.164A.534.534,0,0,0,9.006-.8a.534.534,0,0,0,.162-.392.534.534,0,0,0-.162-.392.534.534,0,0,0-.392-.162.534.534,0,0,0-.392.162.534.534,0,0,0-.162.392A.525.525,0,0,0,8.224-.8ZM4.839-3.34a.525.525,0,0,0,.39.164.534.534,0,0,0,.392-.162.534.534,0,0,0,.162-.392.534.534,0,0,0-.162-.392.534.534,0,0,0-.392-.162.534.534,0,0,0-.392.162.534.534,0,0,0-.162.392A.525.525,0,0,0,4.839-3.34Z" transform="translate(2278.021 4199.568)" fill="#333"/>
      <path id="パス_619" data-name="パス 619" d="M-7.931-3.277a1.448,1.448,0,0,1,1.1.456A1.632,1.632,0,0,1-6.4-1.654,1.969,1.969,0,0,1-6.82-.407,1.558,1.558,0,0,1-8.13.132a1.507,1.507,0,0,1-1.407-.8,3.252,3.252,0,0,1-.352-1.609,7.316,7.316,0,0,1,.049-.94A2.875,2.875,0,0,1-9.5-4.287a1.728,1.728,0,0,1,.566-.589A1.526,1.526,0,0,1-8.1-5.1a1.658,1.658,0,0,1,1.121.36,1.371,1.371,0,0,1,.47.959H-7.5a.506.506,0,0,0-.094-.268.545.545,0,0,0-.484-.237.716.716,0,0,0-.69.543,3.371,3.371,0,0,0-.153.885,1.114,1.114,0,0,1,.428-.32A1.445,1.445,0,0,1-7.931-3.277ZM-8.6-2.33a.867.867,0,0,0-.293.731.99.99,0,0,0,.219.665.7.7,0,0,0,.557.258A.619.619,0,0,0-7.6-.925a1.037,1.037,0,0,0,.19-.646.967.967,0,0,0-.216-.677.691.691,0,0,0-.529-.235A.707.707,0,0,0-8.6-2.33Zm4.635-.947a1.448,1.448,0,0,1,1.1.456,1.632,1.632,0,0,1,.43,1.167A1.969,1.969,0,0,1-2.854-.407a1.558,1.558,0,0,1-1.309.54,1.507,1.507,0,0,1-1.407-.8,3.252,3.252,0,0,1-.352-1.609,7.316,7.316,0,0,1,.049-.94,2.875,2.875,0,0,1,.338-1.073,1.728,1.728,0,0,1,.566-.589A1.526,1.526,0,0,1-4.132-5.1a1.658,1.658,0,0,1,1.121.36,1.371,1.371,0,0,1,.47.959h-.989a.506.506,0,0,0-.094-.268.545.545,0,0,0-.484-.237.716.716,0,0,0-.69.543,3.371,3.371,0,0,0-.153.885,1.114,1.114,0,0,1,.428-.32A1.445,1.445,0,0,1-3.965-3.277Zm-.669.947a.867.867,0,0,0-.293.731.99.99,0,0,0,.219.665.7.7,0,0,0,.557.258.619.619,0,0,0,.521-.249,1.037,1.037,0,0,0,.19-.646.967.967,0,0,0-.216-.677.691.691,0,0,0-.529-.235A.707.707,0,0,0-4.633-2.33Zm2.9,1.292H-.677V0H-1.732Zm5.265-.825v.777H2.962V0H1.99V-1.087h-2v-.867L1.847-5.018H2.962v3.155Zm-2.807,0H1.99v-2.18Zm6.592.669a1.252,1.252,0,0,1,.38-.919,1.254,1.254,0,0,1,.916-.376,1.248,1.248,0,0,1,.916.38,1.248,1.248,0,0,1,.38.916,1.248,1.248,0,0,1-.38.916A1.248,1.248,0,0,1,8.614.1,1.248,1.248,0,0,1,7.7-.279,1.248,1.248,0,0,1,7.318-1.194ZM4.313-2.814a1.248,1.248,0,0,1-.38-.916,1.248,1.248,0,0,1,.38-.916,1.248,1.248,0,0,1,.916-.38,1.248,1.248,0,0,1,.916.38,1.248,1.248,0,0,1,.38.916,1.251,1.251,0,0,1-.378.916,1.246,1.246,0,0,1-.918.38A1.248,1.248,0,0,1,4.313-2.814ZM5.776.132h-.54L8.06-5.049h.529ZM8.224-.8a.525.525,0,0,0,.39.164A.534.534,0,0,0,9.006-.8a.534.534,0,0,0,.162-.392.534.534,0,0,0-.162-.392.534.534,0,0,0-.392-.162.534.534,0,0,0-.392.162.534.534,0,0,0-.162.392A.525.525,0,0,0,8.224-.8ZM4.839-3.34a.525.525,0,0,0,.39.164.534.534,0,0,0,.392-.162.534.534,0,0,0,.162-.392.534.534,0,0,0-.162-.392.534.534,0,0,0-.392-.162.534.534,0,0,0-.392.162.534.534,0,0,0-.162.392A.525.525,0,0,0,4.839-3.34Z" transform="translate(2330.877 4207.982)" fill="#333"/>
      <path id="パス_618" data-name="パス 618" d="M-8.259.146A1.669,1.669,0,0,1-9.279-.19,1.325,1.325,0,0,1-9.8-1.17h.989a.6.6,0,0,0,.188.362.582.582,0,0,0,.407.139.708.708,0,0,0,.69-.543,3.17,3.17,0,0,0,.136-.874,1.073,1.073,0,0,1-.289.261,1.312,1.312,0,0,1-.686.167,1.56,1.56,0,0,1-1.069-.416,1.523,1.523,0,0,1-.467-1.2A1.852,1.852,0,0,1-9.43-4.588a1.586,1.586,0,0,1,1.217-.5,1.572,1.572,0,0,1,1.581,1.02,3.973,3.973,0,0,1,.244,1.522A4.33,4.33,0,0,1-6.622-1.02,1.633,1.633,0,0,1-8.259.146ZM-8.607-4.12a.9.9,0,0,0-.286.756,1.051,1.051,0,0,0,.183.674.683.683,0,0,0,.562.225.694.694,0,0,0,.387-.118.819.819,0,0,0,.338-.749,1.058,1.058,0,0,0-.2-.679.664.664,0,0,0-.548-.251A.682.682,0,0,0-8.607-4.12ZM-3.446,0H-4.463V-3.482H-5.65v-.676a4.4,4.4,0,0,0,.658-.063A.928.928,0,0,0-4.5-4.485a.871.871,0,0,0,.2-.362.831.831,0,0,0,.038-.2h.825Zm1.713-1.038H-.677V0H-1.732ZM1.656.146A1.669,1.669,0,0,1,.636-.19a1.325,1.325,0,0,1-.519-.98h.989a.6.6,0,0,0,.188.362A.582.582,0,0,0,1.7-.669a.708.708,0,0,0,.69-.543,3.17,3.17,0,0,0,.136-.874,1.073,1.073,0,0,1-.289.261,1.312,1.312,0,0,1-.686.167A1.56,1.56,0,0,1,.482-2.074a1.523,1.523,0,0,1-.467-1.2A1.852,1.852,0,0,1,.484-4.588a1.586,1.586,0,0,1,1.217-.5,1.572,1.572,0,0,1,1.581,1.02,3.973,3.973,0,0,1,.244,1.522A4.33,4.33,0,0,1,3.293-1.02,1.633,1.633,0,0,1,1.656.146ZM1.308-4.12a.9.9,0,0,0-.286.756A1.051,1.051,0,0,0,1.2-2.69a.683.683,0,0,0,.562.225.694.694,0,0,0,.387-.118.819.819,0,0,0,.338-.749,1.058,1.058,0,0,0-.2-.679.664.664,0,0,0-.548-.251A.682.682,0,0,0,1.308-4.12ZM7.318-1.194a1.252,1.252,0,0,1,.38-.919,1.254,1.254,0,0,1,.916-.376,1.248,1.248,0,0,1,.916.38,1.248,1.248,0,0,1,.38.916,1.248,1.248,0,0,1-.38.916A1.248,1.248,0,0,1,8.614.1,1.248,1.248,0,0,1,7.7-.279,1.248,1.248,0,0,1,7.318-1.194ZM4.313-2.814a1.248,1.248,0,0,1-.38-.916,1.248,1.248,0,0,1,.38-.916,1.248,1.248,0,0,1,.916-.38,1.248,1.248,0,0,1,.916.38,1.248,1.248,0,0,1,.38.916,1.251,1.251,0,0,1-.378.916,1.246,1.246,0,0,1-.918.38A1.248,1.248,0,0,1,4.313-2.814ZM5.776.132h-.54L8.06-5.049h.529ZM8.224-.8a.525.525,0,0,0,.39.164A.534.534,0,0,0,9.006-.8a.534.534,0,0,0,.162-.392.534.534,0,0,0-.162-.392.534.534,0,0,0-.392-.162.534.534,0,0,0-.392.162.534.534,0,0,0-.162.392A.525.525,0,0,0,8.224-.8ZM4.839-3.34a.525.525,0,0,0,.39.164.534.534,0,0,0,.392-.162.534.534,0,0,0,.162-.392.534.534,0,0,0-.162-.392.534.534,0,0,0-.392-.162.534.534,0,0,0-.392.162.534.534,0,0,0-.162.392A.525.525,0,0,0,4.839-3.34Z" transform="translate(2383.926 4176.555)" fill="#333"/>
      <path id="パス_617" data-name="パス 617" d="M-.019.125A1.429,1.429,0,0,1-1.372-.55,3.908,3.908,0,0,1-1.76-2.476a3.929,3.929,0,0,1,.388-1.929A1.427,1.427,0,0,1-.019-5.084a1.431,1.431,0,0,1,1.355.679,3.944,3.944,0,0,1,.387,1.929A3.908,3.908,0,0,1,1.334-.55,1.429,1.429,0,0,1-.019.125ZM.562-1.146A4.968,4.968,0,0,0,.7-2.476,4.873,4.873,0,0,0,.561-3.827a.562.562,0,0,0-.58-.439A.57.57,0,0,0-.6-3.827,4.7,4.7,0,0,0-.747-2.476,4.756,4.756,0,0,0-.6-1.144a.575.575,0,0,0,.585.461A.57.57,0,0,0,.562-1.146Z" transform="translate(2135.009 4306.737)" fill="#333"/>
      <path id="パス_616" data-name="パス 616" d="M-1.487-4.022A.625.625,0,0,0-2-4.235a.62.62,0,0,0-.616.338,1.675,1.675,0,0,0-.111.62h-.965a2.439,2.439,0,0,1,.233-1.041,1.453,1.453,0,0,1,1.41-.756A1.788,1.788,0,0,1-.77-4.63,1.535,1.535,0,0,1-.3-3.455a1.591,1.591,0,0,1-.334,1,3.331,3.331,0,0,1-.721.644l-.4.282q-.373.265-.51.383a1.123,1.123,0,0,0-.232.275h2.2V0H-3.744A2.373,2.373,0,0,1-3.51-.992a2.806,2.806,0,0,1,1-1.069,7.355,7.355,0,0,0,.888-.7,1.04,1.04,0,0,0,.31-.724A.8.8,0,0,0-1.487-4.022ZM1.964.125A1.429,1.429,0,0,1,.611-.55,3.908,3.908,0,0,1,.223-2.476,3.929,3.929,0,0,1,.611-4.405a1.427,1.427,0,0,1,1.353-.679,1.431,1.431,0,0,1,1.355.679,3.944,3.944,0,0,1,.387,1.929A3.908,3.908,0,0,1,3.317-.55,1.429,1.429,0,0,1,1.964.125Zm.582-1.271a4.968,4.968,0,0,0,.136-1.33,4.873,4.873,0,0,0-.138-1.351.562.562,0,0,0-.58-.439.57.57,0,0,0-.585.439,4.7,4.7,0,0,0-.143,1.351,4.756,4.756,0,0,0,.143,1.332.575.575,0,0,0,.585.461A.57.57,0,0,0,2.546-1.146Z" transform="translate(2135.354 4279.542)" fill="#333"/>
      <path id="パス_615" data-name="パス 615" d="M-.237-1.863v.777H-.808V0H-1.78V-1.087h-2v-.867l1.856-3.065H-.808v3.155Zm-2.807,0H-1.78v-2.18ZM1.964.125A1.429,1.429,0,0,1,.611-.55,3.908,3.908,0,0,1,.223-2.476,3.929,3.929,0,0,1,.611-4.405a1.427,1.427,0,0,1,1.353-.679,1.431,1.431,0,0,1,1.355.679,3.944,3.944,0,0,1,.387,1.929A3.908,3.908,0,0,1,3.317-.55,1.429,1.429,0,0,1,1.964.125Zm.582-1.271a4.968,4.968,0,0,0,.136-1.33,4.873,4.873,0,0,0-.138-1.351.562.562,0,0,0-.58-.439.57.57,0,0,0-.585.439,4.7,4.7,0,0,0-.143,1.351,4.756,4.756,0,0,0,.143,1.332.575.575,0,0,0,.585.461A.57.57,0,0,0,2.546-1.146Z" transform="translate(2135.354 4252.349)" fill="#333"/>
      <path id="パス_614" data-name="パス 614" d="M-1.786-3.277a1.448,1.448,0,0,1,1.1.456,1.632,1.632,0,0,1,.43,1.167A1.969,1.969,0,0,1-.676-.407a1.558,1.558,0,0,1-1.309.54,1.507,1.507,0,0,1-1.407-.8,3.252,3.252,0,0,1-.352-1.609,7.316,7.316,0,0,1,.049-.94,2.875,2.875,0,0,1,.338-1.073,1.728,1.728,0,0,1,.566-.589A1.526,1.526,0,0,1-1.954-5.1a1.658,1.658,0,0,1,1.121.36,1.371,1.371,0,0,1,.47.959h-.989a.506.506,0,0,0-.094-.268.545.545,0,0,0-.484-.237.716.716,0,0,0-.69.543,3.371,3.371,0,0,0-.153.885,1.114,1.114,0,0,1,.428-.32A1.445,1.445,0,0,1-1.786-3.277Zm-.669.947a.867.867,0,0,0-.293.731.99.99,0,0,0,.219.665.7.7,0,0,0,.557.258A.619.619,0,0,0-1.45-.925a1.037,1.037,0,0,0,.19-.646.967.967,0,0,0-.216-.677.691.691,0,0,0-.529-.235A.707.707,0,0,0-2.455-2.33ZM1.964.125A1.429,1.429,0,0,1,.611-.55,3.908,3.908,0,0,1,.223-2.476,3.929,3.929,0,0,1,.611-4.405a1.427,1.427,0,0,1,1.353-.679,1.431,1.431,0,0,1,1.355.679,3.944,3.944,0,0,1,.387,1.929A3.908,3.908,0,0,1,3.317-.55,1.429,1.429,0,0,1,1.964.125Zm.582-1.271a4.968,4.968,0,0,0,.136-1.33,4.873,4.873,0,0,0-.138-1.351.562.562,0,0,0-.58-.439.57.57,0,0,0-.585.439,4.7,4.7,0,0,0-.143,1.351,4.756,4.756,0,0,0,.143,1.332.575.575,0,0,0,.585.461A.57.57,0,0,0,2.546-1.146Z" transform="translate(2135.354 4225.155)" fill="#333"/>
      <path id="パス_613" data-name="パス 613" d="M-3.343-.317A1.493,1.493,0,0,1-3.778-1.4a1.547,1.547,0,0,1,.193-.77,1.224,1.224,0,0,1,.566-.519,1.178,1.178,0,0,1-.475-.528,1.478,1.478,0,0,1-.11-.531,1.239,1.239,0,0,1,.414-.939,1.646,1.646,0,0,1,1.17-.388,1.646,1.646,0,0,1,1.17.388,1.239,1.239,0,0,1,.414.939,1.478,1.478,0,0,1-.11.531,1.014,1.014,0,0,1-.475.493A1.4,1.4,0,0,1-.46-2.17a1.581,1.581,0,0,1,.188.77A1.44,1.44,0,0,1-.743-.315,1.839,1.839,0,0,1-2.062.132,1.705,1.705,0,0,1-3.343-.317Zm.6-1.149a.811.811,0,0,0,.193.578.7.7,0,0,0,.535.205.7.7,0,0,0,.535-.205.811.811,0,0,0,.193-.578.8.8,0,0,0-.2-.587.711.711,0,0,0-.531-.2.711.711,0,0,0-.531.2A.8.8,0,0,0-2.748-1.466Zm.261-1.72a.616.616,0,0,0,.467.174.615.615,0,0,0,.468-.174.626.626,0,0,0,.165-.449A.641.641,0,0,0-1.551-4.1a.626.626,0,0,0-.468-.169.633.633,0,0,0-.468.169.633.633,0,0,0-.169.468A.615.615,0,0,0-2.486-3.186ZM1.964.125A1.429,1.429,0,0,1,.611-.55,3.908,3.908,0,0,1,.223-2.476,3.929,3.929,0,0,1,.611-4.405a1.427,1.427,0,0,1,1.353-.679,1.431,1.431,0,0,1,1.355.679,3.944,3.944,0,0,1,.387,1.929A3.908,3.908,0,0,1,3.317-.55,1.429,1.429,0,0,1,1.964.125Zm.582-1.271a4.968,4.968,0,0,0,.136-1.33,4.873,4.873,0,0,0-.138-1.351.562.562,0,0,0-.58-.439.57.57,0,0,0-.585.439,4.7,4.7,0,0,0-.143,1.351,4.756,4.756,0,0,0,.143,1.332.575.575,0,0,0,.585.461A.57.57,0,0,0,2.546-1.146Z" transform="translate(2135.354 4197.96)" fill="#333"/>
      <path id="パス_612" data-name="パス 612" d="M-3.194,1.151l-.2-.27A3.621,3.621,0,0,1-3.8.15a4.157,4.157,0,0,1-.387-1.7A3.782,3.782,0,0,1-3.863-3.07a5.972,5.972,0,0,1,.644-1.1h.6l-.17.312a4.646,4.646,0,0,0-.488,1.348A5.334,5.334,0,0,0-3.367-1.5,4.765,4.765,0,0,0-3.119.064a7.155,7.155,0,0,0,.513,1.087ZM.3-.956a1,1,0,0,1,.3-.735,1,1,0,0,1,.733-.3,1,1,0,0,1,.733.3,1,1,0,0,1,.3.733,1,1,0,0,1-.3.733,1,1,0,0,1-.733.3,1,1,0,0,1-.733-.3A1,1,0,0,1,.3-.956Zm-2.4-1.3a1,1,0,0,1-.3-.733,1,1,0,0,1,.3-.733,1,1,0,0,1,.733-.3,1,1,0,0,1,.733.3,1,1,0,0,1,.3.733,1,1,0,0,1-.3.733,1,1,0,0,1-.734.3A1,1,0,0,1-2.1-2.251ZM-.932.106h-.432L.9-4.04h.423ZM1.027-.644a.42.42,0,0,0,.312.131.427.427,0,0,0,.313-.13.427.427,0,0,0,.13-.313.427.427,0,0,0-.13-.313.427.427,0,0,0-.313-.13.427.427,0,0,0-.313.13A.427.427,0,0,0,.9-.956.42.42,0,0,0,1.027-.644ZM-1.681-2.672a.42.42,0,0,0,.312.131.427.427,0,0,0,.313-.13.427.427,0,0,0,.13-.313.427.427,0,0,0-.13-.313.427.427,0,0,0-.313-.13.427.427,0,0,0-.313.13.427.427,0,0,0-.13.313A.42.42,0,0,0-1.681-2.672ZM3.381.88l-.2.27H2.6A7.155,7.155,0,0,0,3.108.064,4.765,4.765,0,0,0,3.356-1.5a5.334,5.334,0,0,0-.089-1.009,4.646,4.646,0,0,0-.488-1.348l-.17-.312h.6a5.972,5.972,0,0,1,.644,1.1,3.782,3.782,0,0,1,.326,1.516A4.157,4.157,0,0,1,3.79.15,3.621,3.621,0,0,1,3.381.88Z" transform="translate(2135.961 4161.469)" fill="#333"/>
      <path id="パス_239" data-name="パス 239" d="M2419.064,4307.094H2146.759a.357.357,0,0,1-.357-.356v-141.81a.357.357,0,0,1,.713,0v141.454h271.948a.356.356,0,1,1,0,.713Z" fill="#333"/>
      <rect id="長方形_141" data-name="長方形 141" width="8.634" height="8.634" transform="translate(2304.533 4152.834)" fill="#fff766"/>
      <path id="パス_611" data-name="パス 611" d="M6.654-.506c-.863-.834-.863-.834-1.041-.991A11.054,11.054,0,0,0,4.293-2.532,9.445,9.445,0,0,0,5.406-4.5a1.372,1.372,0,0,1,.228-.385L5.164-5.37a1.545,1.545,0,0,1-.635.078l-2.51.036H1.847A3.121,3.121,0,0,1,1.22-5.3l.029.913a5.62,5.62,0,0,1,.777-.057c2.247-.036,2.247-.036,2.361-.043L4.308-4.3a6.874,6.874,0,0,1-2.4,2.9A5.888,5.888,0,0,1,.485-.613a2.861,2.861,0,0,1,.578.792A8.475,8.475,0,0,0,3.78-1.883,13.71,13.71,0,0,1,5.969.235Zm6.141-2.4a7.057,7.057,0,0,1,.906.036v-.849a5.066,5.066,0,0,1-.92.05H8.608a5.02,5.02,0,0,1-.92-.05v.849a7.057,7.057,0,0,1,.906-.036h1.74a3.029,3.029,0,0,1-.314,1.348A2.652,2.652,0,0,1,8.33-.371a2.263,2.263,0,0,1,.578.785A3.39,3.39,0,0,0,10.769-.991a3.873,3.873,0,0,0,.5-1.919ZM8.409-4.65a6.719,6.719,0,0,1,.906-.036h2.767a6.719,6.719,0,0,1,.906.036v-.87a4.839,4.839,0,0,1-.92.05H9.329a4.839,4.839,0,0,1-.92-.05ZM14.77-2.239a7.829,7.829,0,0,1,1.163-.036H19.72a7.829,7.829,0,0,1,1.163.036v-.991a7,7,0,0,1-1.155.05h-3.8a7,7,0,0,1-1.155-.05ZM22.63-4.878a8.634,8.634,0,0,1,1.9.977l.456-.785a11.745,11.745,0,0,0-1.9-.92Zm-.563,1.733A8.278,8.278,0,0,1,24-2.1l.442-.806a11.257,11.257,0,0,0-1.9-.97ZM26.3-5.5a4.814,4.814,0,0,1,.749,1.063l.5-.264A4.622,4.622,0,0,0,26.8-5.748ZM22.473.292a4.211,4.211,0,0,1,.5-.121,6.011,6.011,0,0,0,4.942-3.83,3.468,3.468,0,0,1-.742-.635,4.905,4.905,0,0,1-2.888,3.145,6.336,6.336,0,0,1-2.061.464ZM28.4-5.164a4.125,4.125,0,0,0-.742-1.006l-.478.25a5.255,5.255,0,0,1,.727,1.034Zm5.991,3.11a4.7,4.7,0,0,1-.72.05h-.25V-4.343a10.038,10.038,0,0,1,.05-1.205h-.963a6.788,6.788,0,0,1-.592.785L30.225-2.7c-.25.3-.328.392-.571.656v.877a7.289,7.289,0,0,1,.891-.036h1.976v.5a4.549,4.549,0,0,1-.057.827h1.013a4.466,4.466,0,0,1-.057-.82v-.5h.257a4.511,4.511,0,0,1,.713.043ZM32.529-2H30.71l1.369-1.69c.257-.314.342-.428.485-.635a8.07,8.07,0,0,0-.036.856Z" transform="translate(2373.785 4159.978)" fill="#333"/>
      <rect id="長方形_142" data-name="長方形 142" width="8.634" height="8.634" transform="translate(2361.974 4152.834)" fill="#ff8e66"/>
      <path id="パス_240" data-name="パス 240" d="M2165.68,4209.224h2.839l3.208,74.854,3.208-74.854h2.839c.348,0,.47-.235.27-.521l-5.954-8.516a.415.415,0,0,0-.727,0l-5.954,8.516C2165.209,4208.989,2165.331,4209.224,2165.68,4209.224Z" fill="#e61400"/>
      <g id="グループ_250" data-name="グループ 250">
        <rect id="長方形_143" data-name="長方形 143" width="35.068" height="12.284" rx="6.142" transform="translate(2154.193 4235.883)" fill="#e61400"/>
        <path id="パス_610" data-name="パス 610" d="M-9.211,0h-1.23V-4.214h-1.437v-.817a5.323,5.323,0,0,0,.8-.076,1.123,1.123,0,0,0,.59-.32,1.054,1.054,0,0,0,.236-.438,1.006,1.006,0,0,0,.046-.244h1Zm4.327,0h-1.23V-4.214H-7.551v-.817a5.323,5.323,0,0,0,.8-.076,1.123,1.123,0,0,0,.59-.32,1.054,1.054,0,0,0,.236-.438,1.006,1.006,0,0,0,.046-.244h1Zm2.073-1.256h1.277V0H-2.811ZM2.048-4.867a.757.757,0,0,0-.615-.257.75.75,0,0,0-.746.409,2.027,2.027,0,0,0-.135.75H-.615a2.952,2.952,0,0,1,.282-1.26,1.758,1.758,0,0,1,1.707-.914A2.164,2.164,0,0,1,2.916-5.6,1.858,1.858,0,0,1,3.489-4.18a1.925,1.925,0,0,1-.4,1.205,4.03,4.03,0,0,1-.872.78l-.48.341q-.451.32-.617.464a1.358,1.358,0,0,0-.28.333H3.5V0H-.683A2.871,2.871,0,0,1-.4-1.2,3.4,3.4,0,0,1,.813-2.495a8.9,8.9,0,0,0,1.074-.851,1.258,1.258,0,0,0,.375-.876A.971.971,0,0,0,2.048-4.867Zm7.59-1.5v-.268a3.557,3.557,0,0,1,.043-.6H8.628a4.352,4.352,0,0,1,.043.613v.259H7.541a6.271,6.271,0,0,1-.932-.043v.941a4.936,4.936,0,0,1,.863-.043h.492l-.69.242a7.352,7.352,0,0,1,.483,1.208H7.006A4.642,4.642,0,0,1,6.289-4.1v.932a4.325,4.325,0,0,1,.742-.043H11.26a5.433,5.433,0,0,1,.88.043v-.941a7.836,7.836,0,0,1-.88.043h-.777a8.811,8.811,0,0,0,.63-1.251l-.734-.2h.647a5.181,5.181,0,0,1,.872.043v-.941a6.838,6.838,0,0,1-.949.043Zm-1.648,2.3.656-.242a7.834,7.834,0,0,0-.475-1.208h1.985a6.385,6.385,0,0,1-.63,1.45ZM5.021-.319A8.14,8.14,0,0,1,4.969.708H5.987a8.64,8.64,0,0,1-.043-1V-5.066a11.954,11.954,0,0,0,.639-1.588c.06-.207.086-.285.138-.423l-.949-.276a5.752,5.752,0,0,1-.3,1.1A6.765,6.765,0,0,1,4.011-3.84a3.751,3.751,0,0,1,.4,1.027,4.294,4.294,0,0,0,.63-.854c-.017.354-.017.544-.017.958ZM7.834.2h2.58V.647h1a5.2,5.2,0,0,1-.043-.8V-1.881a5.516,5.516,0,0,1,.035-.742,3.793,3.793,0,0,1-.639.035h-3.2a5.411,5.411,0,0,1-.69-.035,6.129,6.129,0,0,1,.035.716V-.2a7.167,7.167,0,0,1-.043.846h.967Zm0-1.95h2.589v1.1H7.834Z" transform="translate(2171.727 4245.304)" fill="#fff"/>
      </g>
      <path id="パス_241" data-name="パス 241" d="M2218.73,4211.933h2.838l3.209,67.61,3.208-67.61h2.838c.349,0,.471-.235.271-.521l-5.954-8.516a.415.415,0,0,0-.727,0l-5.954,8.516C2218.259,4211.7,2218.381,4211.933,2218.73,4211.933Z" fill="#e61400"/>
      <g id="グループ_251" data-name="グループ 251">
        <rect id="長方形_144" data-name="長方形 144" width="35.068" height="12.284" rx="6.142" transform="translate(2207.243 4238.593)" fill="#e61400"/>
        <path id="パス_609" data-name="パス 609" d="M-2.914-4.146a8.429,8.429,0,0,0-.8,1.407,8.365,8.365,0,0,0-.464,1.391A5.774,5.774,0,0,0-4.389,0H-5.636A7.343,7.343,0,0,1-4.557-3.417,8.071,8.071,0,0,1-3.449-4.951H-6.5l.017-1.079h4.315v.94A7.635,7.635,0,0,0-2.914-4.146ZM3.875-6.369v-.268a3.557,3.557,0,0,1,.043-.6H2.866a4.352,4.352,0,0,1,.043.613v.259H1.778a6.271,6.271,0,0,1-.932-.043v.941a4.936,4.936,0,0,1,.863-.043H2.2l-.69.242a7.352,7.352,0,0,1,.483,1.208H1.243A4.642,4.642,0,0,1,.527-4.1v.932a4.325,4.325,0,0,1,.742-.043H5.5a5.433,5.433,0,0,1,.88.043v-.941a7.836,7.836,0,0,1-.88.043H4.721a8.811,8.811,0,0,0,.63-1.251l-.734-.2h.647a5.181,5.181,0,0,1,.872.043v-.941a6.838,6.838,0,0,1-.949.043Zm-1.648,2.3.656-.242a7.834,7.834,0,0,0-.475-1.208H4.393a6.385,6.385,0,0,1-.63,1.45ZM-.741-.319A8.14,8.14,0,0,1-.793.708H.225a8.64,8.64,0,0,1-.043-1V-5.066A11.954,11.954,0,0,0,.82-6.653c.06-.207.086-.285.138-.423L.009-7.352a5.752,5.752,0,0,1-.3,1.1A6.765,6.765,0,0,1-1.751-3.84a3.751,3.751,0,0,1,.4,1.027,4.294,4.294,0,0,0,.63-.854c-.017.354-.017.544-.017.958ZM2.072.2h2.58V.647h1a5.2,5.2,0,0,1-.043-.8V-1.881a5.516,5.516,0,0,1,.035-.742,3.793,3.793,0,0,1-.639.035H1.8a5.411,5.411,0,0,1-.69-.035,6.129,6.129,0,0,1,.035.716V-.2a7.167,7.167,0,0,1-.043.846h.967Zm0-1.95H4.661v1.1H2.072Z" transform="translate(2224.777 4248.014)" fill="#fff"/>
      </g>
      <g id="グループ_252" data-name="グループ 252">
        <rect id="長方形_145" data-name="長方形 145" width="35.068" height="12.284" rx="6.142" transform="translate(2260.292 4249.121)" fill="#e61400"/>
        <path id="パス_608" data-name="パス 608" d="M-9.447,0h-1.23V-4.214h-1.437v-.817a5.323,5.323,0,0,0,.8-.076,1.123,1.123,0,0,0,.59-.32,1.054,1.054,0,0,0,.236-.438,1.006,1.006,0,0,0,.046-.244h1Zm4.534-4.867a.757.757,0,0,0-.615-.257.75.75,0,0,0-.746.409,2.027,2.027,0,0,0-.135.75H-7.576a2.952,2.952,0,0,1,.282-1.26,1.758,1.758,0,0,1,1.707-.914A2.164,2.164,0,0,1-4.045-5.6,1.858,1.858,0,0,1-3.472-4.18a1.925,1.925,0,0,1-.4,1.205,4.03,4.03,0,0,1-.872.78l-.48.341q-.451.32-.617.464a1.358,1.358,0,0,0-.28.333h2.667V0H-7.644a2.871,2.871,0,0,1,.282-1.2A3.4,3.4,0,0,1-6.148-2.495a8.9,8.9,0,0,0,1.074-.851A1.258,1.258,0,0,0-4.7-4.222.971.971,0,0,0-4.913-4.867Zm2.339,3.611H-1.3V0H-2.575ZM1.525.177A2.02,2.02,0,0,1,.291-.23,1.6,1.6,0,0,1-.337-1.416H.86a.723.723,0,0,0,.228.438.7.7,0,0,0,.493.169.857.857,0,0,0,.834-.657,3.835,3.835,0,0,0,.164-1.058,1.3,1.3,0,0,1-.35.316,1.587,1.587,0,0,1-.83.2,1.888,1.888,0,0,1-1.294-.5A1.843,1.843,0,0,1-.459-3.961,2.241,2.241,0,0,1,.107-5.552,1.92,1.92,0,0,1,1.58-6.16,1.9,1.9,0,0,1,3.493-4.926a4.807,4.807,0,0,1,.295,1.841,5.24,5.24,0,0,1-.282,1.85A1.977,1.977,0,0,1,1.525.177ZM1.1-4.985a1.092,1.092,0,0,0-.346.914,1.272,1.272,0,0,0,.221.815.826.826,0,0,0,.681.272.84.84,0,0,0,.468-.143.991.991,0,0,0,.409-.906,1.281,1.281,0,0,0-.242-.822.8.8,0,0,0-.664-.3A.825.825,0,0,0,1.1-4.985Zm8.77-1.384v-.268a3.557,3.557,0,0,1,.043-.6H8.864a4.353,4.353,0,0,1,.043.613v.259H7.777a6.271,6.271,0,0,1-.932-.043v.941a4.936,4.936,0,0,1,.863-.043H8.2l-.69.242a7.352,7.352,0,0,1,.483,1.208H7.242A4.642,4.642,0,0,1,6.525-4.1v.932a4.325,4.325,0,0,1,.742-.043H11.5a5.433,5.433,0,0,1,.88.043v-.941a7.836,7.836,0,0,1-.88.043h-.777a8.811,8.811,0,0,0,.63-1.251l-.734-.2h.647a5.181,5.181,0,0,1,.872.043v-.941a6.838,6.838,0,0,1-.949.043Zm-1.648,2.3.656-.242a7.834,7.834,0,0,0-.475-1.208h1.985a6.385,6.385,0,0,1-.63,1.45ZM5.257-.319A8.14,8.14,0,0,1,5.2.708H6.223a8.64,8.64,0,0,1-.043-1V-5.066a11.954,11.954,0,0,0,.639-1.588c.06-.207.086-.285.138-.423l-.949-.276a5.752,5.752,0,0,1-.3,1.1A6.765,6.765,0,0,1,4.247-3.84a3.751,3.751,0,0,1,.4,1.027,4.294,4.294,0,0,0,.63-.854c-.017.354-.017.544-.017.958ZM8.07.2h2.58V.647h1a5.2,5.2,0,0,1-.043-.8V-1.881a5.516,5.516,0,0,1,.035-.742A3.793,3.793,0,0,1,11-2.589H7.8a5.411,5.411,0,0,1-.69-.035,6.129,6.129,0,0,1,.035.716V-.2A7.167,7.167,0,0,1,7.1.647H8.07Zm0-1.95h2.589v1.1H8.07Z" transform="translate(2277.827 4258.542)" fill="#fff"/>
      </g>
      <path id="パス_242" data-name="パス 242" d="M2324.83,4231.883h2.838l3.208,63.681,3.209-63.681h2.838c.349,0,.471-.235.271-.521l-5.954-8.516a.415.415,0,0,0-.727,0l-5.954,8.516C2324.358,4231.648,2324.481,4231.883,2324.83,4231.883Z" fill="#e61400"/>
      <path id="パス_243" data-name="パス 243" d="M2377.88,4200.36h2.838l3.208,74.855,3.208-74.855h2.839c.349,0,.471-.234.271-.52l-5.954-8.516a.415.415,0,0,0-.727,0l-5.954,8.516C2377.408,4200.126,2377.531,4200.36,2377.88,4200.36Z" fill="#e61400"/>
      <g id="グループ_253" data-name="グループ 253">
        <rect id="長方形_146" data-name="長方形 146" width="35.068" height="12.284" rx="6.142" transform="translate(2313.343 4258.542)" fill="#e61400"/>
        <path id="パス_607" data-name="パス 607" d="M-6.476-3.965a1.752,1.752,0,0,1,1.334.552A1.975,1.975,0,0,1-4.622-2a2.383,2.383,0,0,1-.51,1.509A1.885,1.885,0,0,1-6.717.16,1.823,1.823,0,0,1-8.419-.8a3.935,3.935,0,0,1-.426-1.947,8.853,8.853,0,0,1,.059-1.138,3.479,3.479,0,0,1,.409-1.3A2.091,2.091,0,0,1-7.692-5.9a1.847,1.847,0,0,1,1.013-.27,2.006,2.006,0,0,1,1.357.436,1.658,1.658,0,0,1,.569,1.161h-1.2A.613.613,0,0,0-6.064-4.9a.659.659,0,0,0-.586-.287.866.866,0,0,0-.834.657,4.079,4.079,0,0,0-.185,1.07,1.348,1.348,0,0,1,.518-.388A1.749,1.749,0,0,1-6.476-3.965Zm-.809,1.146a1.049,1.049,0,0,0-.354.885,1.2,1.2,0,0,0,.265.8A.847.847,0,0,0-6.7-.817a.749.749,0,0,0,.63-.3A1.254,1.254,0,0,0-5.84-1.9,1.17,1.17,0,0,0-6.1-2.72.836.836,0,0,0-6.742-3,.855.855,0,0,0-7.286-2.819ZM-.514-4.146a8.429,8.429,0,0,0-.8,1.407,8.365,8.365,0,0,0-.464,1.391A5.774,5.774,0,0,0-1.989,0H-3.236A7.343,7.343,0,0,1-2.157-3.417,8.071,8.071,0,0,1-1.049-4.951H-4.1l.017-1.079H.236v.94A7.635,7.635,0,0,0-.514-4.146ZM6.275-6.369v-.268a3.557,3.557,0,0,1,.043-.6H5.265a4.352,4.352,0,0,1,.043.613v.259H4.178a6.271,6.271,0,0,1-.932-.043v.941a4.936,4.936,0,0,1,.863-.043H4.6l-.69.242a7.352,7.352,0,0,1,.483,1.208H3.643A4.642,4.642,0,0,1,2.927-4.1v.932a4.325,4.325,0,0,1,.742-.043H7.9a5.433,5.433,0,0,1,.88.043v-.941a7.836,7.836,0,0,1-.88.043H7.121a8.811,8.811,0,0,0,.63-1.251l-.734-.2h.647a5.181,5.181,0,0,1,.872.043v-.941a6.838,6.838,0,0,1-.949.043Zm-1.648,2.3.656-.242a7.834,7.834,0,0,0-.475-1.208H6.793a6.385,6.385,0,0,1-.63,1.45ZM1.658-.319A8.14,8.14,0,0,1,1.606.708H2.625a8.64,8.64,0,0,1-.043-1V-5.066A11.954,11.954,0,0,0,3.22-6.653c.06-.207.086-.285.138-.423l-.949-.276a5.752,5.752,0,0,1-.3,1.1A6.765,6.765,0,0,1,.649-3.84a3.751,3.751,0,0,1,.4,1.027,4.294,4.294,0,0,0,.63-.854c-.017.354-.017.544-.017.958ZM4.471.2h2.58V.647h1a5.2,5.2,0,0,1-.043-.8V-1.881a5.516,5.516,0,0,1,.035-.742,3.793,3.793,0,0,1-.639.035H4.2a5.411,5.411,0,0,1-.69-.035,6.129,6.129,0,0,1,.035.716V-.2A7.167,7.167,0,0,1,3.5.647h.967Zm0-1.95H7.06v1.1H4.471Z" transform="translate(2330.877 4267.962)" fill="#fff"/>
      </g>
      <g id="グループ_254" data-name="グループ 254">
        <rect id="長方形_147" data-name="長方形 147" width="35.068" height="12.284" rx="6.142" transform="translate(2366.392 4227.019)" fill="#e61400"/>
        <path id="パス_606" data-name="パス 606" d="M-5.8-2.254v.94h-.691V0H-7.667V-1.315h-2.419V-2.364L-7.84-6.072h1.348v3.818Zm-3.4,0h1.53V-4.892Zm4.222,1H-3.7V0H-4.974ZM-.874.177A2.02,2.02,0,0,1-2.109-.23a1.6,1.6,0,0,1-.628-1.186h1.2a.723.723,0,0,0,.228.438A.7.7,0,0,0-.82-.809a.857.857,0,0,0,.834-.657A3.835,3.835,0,0,0,.179-2.524a1.3,1.3,0,0,1-.35.316,1.587,1.587,0,0,1-.83.2,1.888,1.888,0,0,1-1.294-.5,1.843,1.843,0,0,1-.565-1.452,2.241,2.241,0,0,1,.567-1.591A1.92,1.92,0,0,1-.82-6.16,1.9,1.9,0,0,1,1.093-4.926a4.807,4.807,0,0,1,.295,1.841,5.24,5.24,0,0,1-.282,1.85A1.977,1.977,0,0,1-.874.177ZM-1.3-4.985a1.092,1.092,0,0,0-.346.914,1.272,1.272,0,0,0,.221.815.826.826,0,0,0,.681.272.84.84,0,0,0,.468-.143.991.991,0,0,0,.409-.906,1.281,1.281,0,0,0-.242-.822.8.8,0,0,0-.664-.3A.825.825,0,0,0-1.3-4.985Zm8.77-1.384v-.268a3.557,3.557,0,0,1,.043-.6H6.464a4.352,4.352,0,0,1,.043.613v.259H5.377a6.271,6.271,0,0,1-.932-.043v.941a4.936,4.936,0,0,1,.863-.043H5.8l-.69.242a7.352,7.352,0,0,1,.483,1.208H4.842A4.642,4.642,0,0,1,4.126-4.1v.932a4.325,4.325,0,0,1,.742-.043H9.1a5.433,5.433,0,0,1,.88.043v-.941a7.836,7.836,0,0,1-.88.043H8.32a8.811,8.811,0,0,0,.63-1.251l-.734-.2h.647a5.181,5.181,0,0,1,.872.043v-.941a6.838,6.838,0,0,1-.949.043Zm-1.648,2.3.656-.242a7.834,7.834,0,0,0-.475-1.208H7.992a6.385,6.385,0,0,1-.63,1.45ZM2.857-.319A8.14,8.14,0,0,1,2.805.708H3.824a8.64,8.64,0,0,1-.043-1V-5.066a11.954,11.954,0,0,0,.639-1.588c.06-.207.086-.285.138-.423l-.949-.276a5.752,5.752,0,0,1-.3,1.1A6.765,6.765,0,0,1,1.847-3.84a3.751,3.751,0,0,1,.4,1.027,4.294,4.294,0,0,0,.63-.854c-.017.354-.017.544-.017.958ZM5.67.2h2.58V.647h1a5.2,5.2,0,0,1-.043-.8V-1.881a5.516,5.516,0,0,1,.035-.742,3.793,3.793,0,0,1-.639.035H5.4a5.411,5.411,0,0,1-.69-.035,6.129,6.129,0,0,1,.035.716V-.2A7.167,7.167,0,0,1,4.7.647H5.67Zm0-1.95H8.259v1.1H5.67Z" transform="translate(2383.927 4236.44)" fill="#fff"/>
      </g>
    </g>
  </g>
</svg>
