<svg xmlns="http://www.w3.org/2000/svg" width="960" height="185.023" viewBox="0 0 960 185.023">
  <g id="グループ_695" data-name="グループ 695" transform="translate(-203 -9049.683)">
    <g id="グループ_694" data-name="グループ 694">
      <path id="パス_536" data-name="パス 536" d="M1052.884,9104.389v-34.706a20,20,0,0,0-20-20h-681.9a20,20,0,0,0-20,20v34.706a20,20,0,0,1-20,20H231.732a20,20,0,0,0-20,20v70.317a20,20,0,0,0,20,20H1143a20,20,0,0,0,20-20v-70.317a20,20,0,0,0-20-20h-70.116A20,20,0,0,1,1052.884,9104.389Z" fill="#699c78"/>
      <path id="パス_537" data-name="パス 537" d="M1044.152,9104.389v-34.706a20,20,0,0,0-20-20h-681.9a20,20,0,0,0-20,20v34.706a20,20,0,0,1-20,20H223a20,20,0,0,0-20,20v70.317a20,20,0,0,0,20,20h911.268a20,20,0,0,0,20-20v-70.317a20,20,0,0,0-20-20h-70.116A20,20,0,0,1,1044.152,9104.389Z" fill="#82c195"/>
      <path id="パス_657" data-name="パス 657" d="M-243.361-14.922a38.889,38.889,0,0,1-4.9.226h-19.08a41.561,41.561,0,0,1-4.931-.226v4.254c1.45-.129,3.126-.226,4.931-.226h19.08a43.943,43.943,0,0,1,4.9.226Zm8.67-4.48a16.522,16.522,0,0,1,1.8,4.512l2.417-1.225a21.584,21.584,0,0,0-1.934-4.319Zm-5.576,9.6a18.315,18.315,0,0,1,2.095-.322c-.322,5.092-1.031,7.832-2.578,10.023a14.45,14.45,0,0,1,2.739,2.643c1.8-3.352,2.611-7.123,2.836-13.085l1.257-.193v4.673a16.449,16.449,0,0,1-.161,2.9h2.772a22.6,22.6,0,0,1-.1-2.9v-5.028c.032,0,.516-.1,1.386-.226v9.765c0,.58-.129.677-.677.677a18.832,18.832,0,0,1-3.191-.322,10.517,10.517,0,0,1,.645,3.255,23.782,23.782,0,0,0,2.546.161,4.965,4.965,0,0,0,2.578-.483c.741-.548,1-1.16,1-2.611V-11.893c.258-.064.419-.1.838-.193v-2.933a7.226,7.226,0,0,1-.838.161v-7.316a20.155,20.155,0,0,1,.1-2.063,17.741,17.741,0,0,1-2.546.161H-231.5c.419-.741,1-1.9,1.515-3l-3.577-.516a13.265,13.265,0,0,1-1.289,3.513h-1.064a18.177,18.177,0,0,1-2.353-.129,43.8,43.8,0,0,1,.258,6.51c0,1.128-.032,2.546-.064,4.351q-1.74.1-2.03.1h-.645Zm5.253-11.474h5v6.929c-1.418.258-3.481.548-5.06.709.032-2.8.032-2.8.064-5.447Zm21.368,7.574a8.431,8.431,0,0,1-2.224.161h-7.542a12.915,12.915,0,0,1-2.256-.129v3.191a6.866,6.866,0,0,1,.806-.1,21.6,21.6,0,0,0,3.577,6.639A19.109,19.109,0,0,1-227.021-.58a10.513,10.513,0,0,1,2.095,3.062A24.889,24.889,0,0,0-219-1.483a22.355,22.355,0,0,0,6.575,4.029A13.772,13.772,0,0,1-210.585-.87a18.208,18.208,0,0,1-6.091-3.03,25.073,25.073,0,0,0,4.029-6.7,7.341,7.341,0,0,1,.58-1.225Zm-2.578,3.094a15.848,15.848,0,0,1-2.8,4.448,14.178,14.178,0,0,1-2.514-4.448Zm-1.8-12.569v5.8c0,1.8.483,2.095,3.481,2.095,3.384,0,3.706-.451,4.158-5.382A7.923,7.923,0,0,1-213-21.851a19.929,19.929,0,0,1-.322,3.223c-.1.419-.29.516-.967.516-.548,0-.645-.1-.645-.58v-4.834c0-1.16.032-1.9.1-2.707a22.856,22.856,0,0,1-2.772.129h-3.867a24.8,24.8,0,0,1-2.611-.129,9.7,9.7,0,0,1,.161,1.9c0,3.8-.773,5.8-2.707,7.219a9.175,9.175,0,0,1,2.353,2.611,8.471,8.471,0,0,0,2.288-3.158,13.56,13.56,0,0,0,1.1-5.511Zm13.73.773h-1.128a15.61,15.61,0,0,1-1.708-.1,26.555,26.555,0,0,1,.129,3.287V-2.449a33.06,33.06,0,0,1-.161,4.158h3.513V-1.128h4.577V.806h3.449a31.256,31.256,0,0,1-.129-3.191V-14.761a8.256,8.256,0,0,1,1.386,1.611,24.913,24.913,0,0,0,4.125-6.059h7.477c-.1,8.863-.516,14.954-1.192,16.952-.29.935-.773,1.192-2.159,1.192a26.6,26.6,0,0,1-4.125-.451,10.984,10.984,0,0,1,.9,3.674c1.611.1,2.417.129,3.191.129,4.963,0,5.8-1.225,6.414-9.379.129-1.644.419-9.089.483-13.085a18.713,18.713,0,0,1,.129-2.546,18.894,18.894,0,0,1-2.739.129h-6.865c.29-.741.806-2.224.935-2.707a9.017,9.017,0,0,1,.451-1.257l-3.706-.612a24.222,24.222,0,0,1-4.705,10.152v-2.707c0-1.644.032-1.74.032-1.8a9.163,9.163,0,0,1,.064-.967c-.258.032-1.192.064-2.772.1h-1.773a35.578,35.578,0,0,0,1.644-4.19l-3.706-.516a23.272,23.272,0,0,1-1.386,4.705Zm.612,3.126h4.609v5.7h-4.609Zm0,8.831h4.609v6.22h-4.609Zm18.435,3a41.956,41.956,0,0,0-4.48-7.993l-2.933,1.579a31.32,31.32,0,0,1,4.158,8.186Zm17.823-19.273a32.926,32.926,0,0,1-.967,5.608c-.709.032-1.257.032-1.644.032a22.378,22.378,0,0,1-4.351-.29v3.674l1.708.032c.677.032.87.032,1.289.032.387,0,.58,0,2.03-.032a49.582,49.582,0,0,1-3.03,7.606A29.338,29.338,0,0,1-175.519-4.9l3.706,2.063c.193-.387.193-.387.612-1.16,1.225-2.256,1.515-2.836,2.256-4.415a61.864,61.864,0,0,0,3.545-9.346c2-.161,3.964-.387,5.124-.58a6.285,6.285,0,0,1,1.031-.161l-.1-3.706a27.644,27.644,0,0,1-5.157.9c.355-1.418.516-2.063.677-2.836A16.132,16.132,0,0,1-163.3-26.3Zm20.627,8.38a50.875,50.875,0,0,0-9.089-4.319l-1.934,3.126a39.445,39.445,0,0,1,9.282,4.512ZM-146.932-3.8a5.773,5.773,0,0,1-.483-.451,11.883,11.883,0,0,0-1.128-.87,20.136,20.136,0,0,0-5.092-2.965,34.219,34.219,0,0,1-.29-4.415,10.743,10.743,0,0,1,.387-3.255l-3.739-.193a17.1,17.1,0,0,0-.258,3.255c0,.967.064,2.224.161,3.706a16.008,16.008,0,0,0-3-.29c-4.093,0-6.961,2.288-6.961,5.543,0,3.287,2.772,5.414,7.026,5.414a7.441,7.441,0,0,0,5.35-1.8,5.15,5.15,0,0,0,1.386-3.416c0-.129-.032-.355-.064-.645a19.492,19.492,0,0,1,4.931,4Zm-10.313-1.773s.064.773.064,1.1c0,1.8-1.064,2.707-3.255,2.707-2,0-3.158-.773-3.158-2.095,0-1.354,1.354-2.224,3.449-2.224A8.124,8.124,0,0,1-157.245-5.576Zm26.331-7.509v3.642h-4.738a26.932,26.932,0,0,1-3.577-.161v3.61a32.139,32.139,0,0,1,3.577-.161h4.738V-1.8h-7.993A32.747,32.747,0,0,1-143.032-2V1.773A27.793,27.793,0,0,1-139,1.547h20.111a28.279,28.279,0,0,1,4.061.226V-2a33.961,33.961,0,0,1-4.093.193h-8.38V-6.156h5.221a31.9,31.9,0,0,1,3.545.161V-9.6a30.242,30.242,0,0,1-3.545.161H-127.3v-3.642h4.544a31.428,31.428,0,0,1,3.416.161v-2.353c1.45.838,2.385,1.354,3.835,2.03a15.233,15.233,0,0,1,2.063-3.706,29.2,29.2,0,0,1-7.9-4.093,23.515,23.515,0,0,1-5.737-5.7h-4.093a13.538,13.538,0,0,1-1.74,2.32,28.869,28.869,0,0,1-3.545,3.384,31.263,31.263,0,0,1-7.8,4.254,20.315,20.315,0,0,1,2.127,3.416,28.68,28.68,0,0,0,3.513-1.837v2.288a31.669,31.669,0,0,1,3.513-.161Zm-4.448-3.255c-.483,0-.773,0-1.418-.032a25.872,25.872,0,0,0,7.767-7.316,28.9,28.9,0,0,0,7.928,7.316c-.612.032-.838.032-1.515.032Zm44.6,14.6c0,.516-.355.645-2,.645a20.862,20.862,0,0,1-3.674-.322,11.62,11.62,0,0,1,.87,3.513c2.8.1,2.8.1,3.513.1,3.61,0,4.738-.709,4.738-3v-8.96a42.023,42.023,0,0,0,3.771-3.867,14.483,14.483,0,0,1,1.547-1.676l-2.417-2.514a23.954,23.954,0,0,1-2.9,3.674v-6.833a25.875,25.875,0,0,1,.161-3.513,29.324,29.324,0,0,1-3.449.129h-5.962c.419-.709.87-1.515,1.483-2.675l-3.771-.483a12.926,12.926,0,0,1-1.45,3.158h-2.578a32.181,32.181,0,0,1-3.481-.129,30.09,30.09,0,0,1,.129,3.094V-9.862c-2.965.129-2.965.129-3.32.129-.322,0-.645-.032-1.031-.064l.483,3.449c.58-.1,1-.129,2.03-.226,5.447-.419,6.478-.516,13.214-1.321a50.913,50.913,0,0,1-15.986,7.09A12.334,12.334,0,0,1-109,2.385,60.172,60.172,0,0,0-90.757-6.9Zm-12.021-15.148h12.021v1.869h-12.021ZM-90.757-19.6h-12.021v-1.8h12.021Zm-12.021,7.284h12.021v1.225c-5.124.548-5.124.548-12.021,1.031Zm23.946,2.159a29.378,29.378,0,0,1,4.415-.387V-.58A24.917,24.917,0,0,1-74.61,2.8l3.481-.032a22.421,22.421,0,0,1-.193-3.384V-10.764c.838-.1,1.1-.129,1.289-.129.612-.1.612-.1.967-.129.129.548.161.741.29,1.386l2.482-.935a30.211,30.211,0,0,0-2.385-6.252l-2.159.967a16.575,16.575,0,0,1,.935,2.095c-1.418.129-1.74.161-3.352.226a65.787,65.787,0,0,0,4.415-6.381,7.92,7.92,0,0,1,2.224,2.578c2.611-2.03,3.739-3.352,6.027-7.316.161-.258.161-.258.355-.548a1.435,1.435,0,0,1,.161-.258L-63.2-26.976a13.2,13.2,0,0,1-1.547,2.965,12.35,12.35,0,0,1-3.964,3.9,2.623,2.623,0,0,1,.258-.387c.129-.226.226-.355.258-.419l.838-1.257-3.062-1.547a28.857,28.857,0,0,1-3,5.543c-.355-.516-.612-.87-1.128-1.515a41.319,41.319,0,0,0,3.03-5.221,6.324,6.324,0,0,1,.612-1.1l-3.191-1.386a19.587,19.587,0,0,1-2.385,5.382c-.387-.419-.548-.612-1.064-1.192l-1.708,2.643a32.041,32.041,0,0,1,4.029,5.028c-.58.838-.935,1.321-1.547,2.095a4.812,4.812,0,0,1-.612.032,11.889,11.889,0,0,1-1.8-.129Zm28.49-2.256a55.644,55.644,0,0,0-5-7.542l-2.578,1.418A33.854,33.854,0,0,1-55.95-15.7c-1.611.193-2.03.226-5.157.451a40.568,40.568,0,0,0,2.03-3.674l1.354-2.611-3.32-1.031a22.161,22.161,0,0,1-1.9,4.512,24.429,24.429,0,0,1-1.708,2.965c-.58.032-.741.032-1,.032a6.439,6.439,0,0,1-1.1-.064l.451,3.384c.645-.1,1.354-.161,5.253-.548l-2,1.676a17,17,0,0,1,5.028,4.125l2.256-2.353a28.845,28.845,0,0,0-4.705-3.513c3.449-.322,3.545-.355,5.962-.741.451.838.612,1.192,1.257,2.546ZM-67.649-3.03a17.987,17.987,0,0,1-1.1,2.32L-65.812,1a28.816,28.816,0,0,0,2-8.38l-2.9-.645a17.517,17.517,0,0,1-.677,4.158,29.068,29.068,0,0,0-.967-5.382l-2.385.645a29.548,29.548,0,0,1,.87,6.252ZM-77.9-9.056A30.094,30.094,0,0,1-79.251-.226L-76.48,1a39.9,39.9,0,0,0,1.321-9.636Zm19.5-16.4q.483.677.58.773a22.09,22.09,0,0,0,6.9,6.833,10.155,10.155,0,0,1,1.869-3.062A15.512,15.512,0,0,1-52.533-23.4a16.392,16.392,0,0,1-3.03-3.706ZM-63.362-8.38A19.854,19.854,0,0,1-63.2-5.962v5.9c0,.935.193,1.45.612,1.74a6.512,6.512,0,0,0,3.223.548c4.705,0,5.157-.451,5.576-5.737a6.734,6.734,0,0,1-2.9-.967c-.032,2.449-.1,3-.451,3.384a2.328,2.328,0,0,1-1.418.322c-1.45,0-1.515-.032-1.515-.741v-4.8a14.772,14.772,0,0,1,.129-2.063Zm8.218.516a30.822,30.822,0,0,1,2.8,8.38L-49.182-1A39.9,39.9,0,0,0-52.34-9.089Zm14.632-6.317a24.266,24.266,0,0,1,2.772-.129h11.022a23.461,23.461,0,0,1,2.9.129v-2.256A31.324,31.324,0,0,0-18.564-13.6a17.352,17.352,0,0,1,1.773-3.545,30.3,30.3,0,0,1-8.218-4.415,21.057,21.057,0,0,1-5.414-5.447h-3.835a22.507,22.507,0,0,1-5.06,5.382,32.2,32.2,0,0,1-8.218,4.641A12.481,12.481,0,0,1-45.669-13.7,32.811,32.811,0,0,0-40.512-16.4Zm2.8-3.481h-.9a22.557,22.557,0,0,0,6.317-6.285,29.44,29.44,0,0,0,6.639,6.285H-37.708ZM-39.287,2.449V.806H-25.2V2.449h3.835a20.134,20.134,0,0,1-.193-3.384V-8.476a21.968,21.968,0,0,1,.161-3.191,21.141,21.141,0,0,1-2.8.129H-40.319a20.3,20.3,0,0,1-2.772-.129,29.1,29.1,0,0,1,.161,3.191V-.967a25.77,25.77,0,0,1-.193,3.416Zm0-10.861H-25.2v6.059H-39.287ZM6.865-17.726A30.145,30.145,0,0,1,11.28-7.252l3.674-1.837A29.975,29.975,0,0,0,10.12-19.337Zm-9.475-7.09a7.5,7.5,0,0,1,.258-1l-4.19-.419v.58a45.335,45.335,0,0,1-.838,6.51,66.193,66.193,0,0,1-6.865.677l.387,3.8a13.234,13.234,0,0,1,1.321-.322L-9.6-15.47c1.031-.193,1.031-.193,1.515-.258-1.515,5.995-4,11.8-6.478,15.18l3.739,2.063A69.194,69.194,0,0,0-4.254-16.018c.741-.064,1.257-.1,1.934-.1,2.482,0,3.223.87,3.223,3.835A28.637,28.637,0,0,1,.064-4.931c-.483,1.579-1,2.192-1.934,2.192A13.492,13.492,0,0,1-6.575-4.029a12.105,12.105,0,0,1,.322,2.739c0,.322-.032.806-.064,1.418A14.941,14.941,0,0,0-1.354,1.1,4.082,4.082,0,0,0,2.224-.355C3.771-2.127,4.705-6.542,4.705-12.086c0-2.933-.419-4.48-1.515-5.7A6.243,6.243,0,0,0-1.579-19.5c-.58,0-1.031.032-2,.064.1-.419.1-.419.193-.967.322-1.74.548-3.062.709-4Zm7.477.226a21.752,21.752,0,0,1,3.384,4.8l2.256-1.192a20.886,20.886,0,0,0-3.384-4.738Zm9.475,1.515A18.638,18.638,0,0,0,10.99-27.62L8.831-26.492a23.746,23.746,0,0,1,3.287,4.673ZM26.17-11.957c.709-1.515,2.127-5.028,3.964-9.733A31.054,31.054,0,0,1,31.713-25.4l-4.351-1.1c-.226,1.321-.226,1.321-7.638,21.916C18.693-1.773,18.4-1,17.952-.064l4.158,1.354a36.97,36.97,0,0,1,2.707-7.38C26.4-8.992,28.2-10.6,29.941-10.6a1.6,1.6,0,0,1,1.45.741,4.4,4.4,0,0,1,.258,1.9c0,.322,0,1.1-.032,2.256v.322A9.34,9.34,0,0,0,32.165-1.8C32.97.032,34.743,1,37.225,1c4.867,0,8.025-3.352,9.411-10.023a10.078,10.078,0,0,1-3.545-2.417,20.2,20.2,0,0,1-1.225,5.124c-.935,2.256-2.32,3.449-4.029,3.449a2.708,2.708,0,0,1-1.708-.451c-.58-.483-.709-1.128-.709-3.449,0-3.706-.161-4.867-.806-5.9A4.364,4.364,0,0,0,31-14.5a6.029,6.029,0,0,0-4.158,1.9c-.419.483-.419.483-.612.709Zm41.092-4.77v2H63.33a20.127,20.127,0,0,1-2.772-.1c.064.806.1,1.321.1,2.224v4.609c0,.741-.032,1.225-.1,2.063a26.4,26.4,0,0,1,2.965-.129h2.514c-1.483,3.03-3.61,4.512-7.8,5.414a9.477,9.477,0,0,1,2.03,3.255C64.716,1.1,67.326-1.1,68.906-4.512a13.17,13.17,0,0,0,2.707,3.384,18.806,18.806,0,0,0,6.446,3.771A10.059,10.059,0,0,1,79.831-.806a13.865,13.865,0,0,1-8.605-5.253h3.32a26.892,26.892,0,0,1,3.03.129c-.064-.9-.1-1.354-.1-2.449v-3.964c0-.838.032-1.515.1-2.482-.838.064-1.515.1-2.836.1H70.485v-2h1.708c1.289,0,1.869.032,2.611.1v-1.708a28.761,28.761,0,0,0,3.577,2.095,12.552,12.552,0,0,1,1.676-3.191,21.979,21.979,0,0,1-5.672-3.32,14.034,14.034,0,0,1-3.8-4.158H67a17.329,17.329,0,0,1-3.771,4.705A24.9,24.9,0,0,1,59.785-19.6v-1.837a8.919,8.919,0,0,1-1.74.129h-.967v-2.546a23.055,23.055,0,0,1,.161-3.352H53.6a21,21,0,0,1,.193,3.384V-21.3H52.179a12.6,12.6,0,0,1-2.159-.129v3.513a12.842,12.842,0,0,1,2.159-.129h1.289a31.438,31.438,0,0,1-4.254,9.959,11.738,11.738,0,0,1,1.837,3.449c.773-1.611,1.225-2.578,1.354-2.933a37.759,37.759,0,0,0,1.579-4.544c-.129,1.547-.193,3.158-.193,4.222v6.671A32.7,32.7,0,0,1,53.6,2.739h3.674a31.975,31.975,0,0,1-.193-3.964V-9.572c0-1.9-.064-3.32-.161-4.286a25.012,25.012,0,0,0,2.192,4.351,13.475,13.475,0,0,1,1.483-3.062,18.971,18.971,0,0,1-3.32-5.479h.838c.387,0,.612,0,1.128.032a14.343,14.343,0,0,1,1.064,2,23.224,23.224,0,0,0,3.062-2.063v1.45c.87-.064,1.321-.1,2.611-.1ZM67.2-11.989a20.36,20.36,0,0,1-.258,3.158H63.846v-3.158Zm7.058,0v3.158H70.13a24.14,24.14,0,0,0,.29-3.158Zm-8.283-7.7h-.709a21.214,21.214,0,0,0,3.642-4.383,18.213,18.213,0,0,0,4.061,4.383H65.973Zm25.687,1.579a9.993,9.993,0,0,1,2.32,2.836,24.448,24.448,0,0,0,7.9-8.508,26.267,26.267,0,0,0,8.831,8.734,13.9,13.9,0,0,1,1.773-3.384,23.52,23.52,0,0,1-4.673-3.191,19.411,19.411,0,0,1-4.061-5.124H99.813a19.816,19.816,0,0,1-6.252,7.477V-21.69a16.954,16.954,0,0,1-2.578.129H84.6a14.2,14.2,0,0,1-2.578-.161v3.352A19.262,19.262,0,0,1,84.6-18.5h7.735ZM83.086-23.14a20.1,20.1,0,0,1,2.611-.129h4.544a19.173,19.173,0,0,1,2.611.129v-3.126a14.586,14.586,0,0,1-2.611.161H85.7a14.155,14.155,0,0,1-2.611-.161Zm.1,9.314a16.322,16.322,0,0,1,2.03-.1h5.576a15.879,15.879,0,0,1,1.966.1v-3.03a14.183,14.183,0,0,1-1.966.1H85.214a11.962,11.962,0,0,1-2.03-.1Zm0,4.544a16.1,16.1,0,0,1,2-.1h5.543a15.968,15.968,0,0,1,2.03.1v-3.03a10.978,10.978,0,0,1-2,.1H85.214a11.962,11.962,0,0,1-2.03-.1Zm3.062,11.86V1.064H89.79V2.127h3.223a20.858,20.858,0,0,1-.129-2.675v-4.9a20,20,0,0,1,.1-2.32,17.4,17.4,0,0,1-2.224.1H85.536A17.647,17.647,0,0,1,83.022-7.8a20.127,20.127,0,0,1,.129,2.514V-.58c0,1.064-.064,2.159-.161,3.158Zm0-7.477H89.79v3.126H86.245Zm16.05-14.7a19.227,19.227,0,0,1-8.573,6.7,11.968,11.968,0,0,1,1.837,2.611,25.6,25.6,0,0,0,8.412-6.285c.387-.419.387-.419.9-.935Zm6.671,9.475a18,18,0,0,1-4.093,4.48A27.671,27.671,0,0,1,93.98-.226a9.83,9.83,0,0,1,2.159,2.965A34.381,34.381,0,0,0,102.392.1a29.242,29.242,0,0,0,6.9-5.35c1.837-2,1.837-2,2.417-2.643Zm-3.384-4.8a13.16,13.16,0,0,1-2.9,3.223,24.158,24.158,0,0,1-8.831,4.9,14.518,14.518,0,0,1,2.127,2.772,34.407,34.407,0,0,0,3.416-1.579,30.75,30.75,0,0,0,5.157-3.545,42.376,42.376,0,0,0,3.674-3.674Zm25.848-5.737a7.044,7.044,0,0,1,3.255.967,7.984,7.984,0,0,1,3.964,7.155,9.023,9.023,0,0,1-4.48,8.057,17.128,17.128,0,0,1-6.414,1.773,10.281,10.281,0,0,1,1.966,3.771,21.071,21.071,0,0,0,5.06-1.354,12.416,12.416,0,0,0,7.832-12.021c0-7.252-5.028-11.957-12.763-11.957a14.468,14.468,0,0,0-11.087,4.512,13.844,13.844,0,0,0-3.545,9.379c0,5.189,2.643,8.927,6.317,8.927,2.643,0,4.705-1.9,6.542-6.059A46.625,46.625,0,0,0,131.43-20.659Zm-3.932.032a42.476,42.476,0,0,1-2.675,10.893c-1.16,2.772-2.256,4.125-3.32,4.125-1.418,0-2.546-2.095-2.546-4.738a10.791,10.791,0,0,1,4.383-8.7A8.2,8.2,0,0,1,127.5-20.627Zm31.778-2.159v10.958h-8.7a24.63,24.63,0,0,1-3.964-.226v3.771a31.1,31.1,0,0,1,4.061-.226h8.605v7.187a35.56,35.56,0,0,1-.226,4.158h4.093a37.548,37.548,0,0,1-.226-4.158V-8.508h8.863a27.984,27.984,0,0,1,4.061.226v-3.771a24.149,24.149,0,0,1-3.835.226h-9.089V-22.786h7.638a33.622,33.622,0,0,1,3.932.193v-3.674a33.144,33.144,0,0,1-4.029.193H152.089a33.887,33.887,0,0,1-4.029-.193v3.674a34.614,34.614,0,0,1,3.964-.193Zm-9.7,2.385a28.585,28.585,0,0,1,3.8,7.767l3.32-1.676a34.205,34.205,0,0,0-4-7.574Zm20.014-1.45a23.918,23.918,0,0,1-4.319,7.8l3.191,1.611a34.946,34.946,0,0,0,4.448-7.9Zm12.924,3.191h-.935a15.885,15.885,0,0,1-2.772-.193v3.545a16.381,16.381,0,0,1,2.772-.161h.935v9.636a18.972,18.972,0,0,1-4,1.1l.806,3.642c.87-.355.9-.387,2.611-1a71.162,71.162,0,0,0,7.413-3.158L189.281-8.7c-1.547.773-2.063,1.031-3.32,1.547V-15.47a22.113,22.113,0,0,1,2.385.1v-.193a16.4,16.4,0,0,1,1.547,1.837,23.93,23.93,0,0,0,4.415-5.447h9.572q-.048,13.633-1.16,16.92c-.322.935-.677,1.16-1.837,1.16a33.666,33.666,0,0,1-4.383-.419,12.056,12.056,0,0,1,.9,3.642c2.417.161,2.675.161,3.449.161,1.9,0,3-.226,3.706-.806.935-.741,1.547-2.288,2-5.124a116.831,116.831,0,0,0,.838-16.211,15.558,15.558,0,0,1,.129-2.836c-.645.064-1.8.129-3,.129h-8.541c.258-.645.709-1.837,1.031-2.707A5.449,5.449,0,0,1,197.4-26.3l-3.8-.838c-.032.161-.064.258-.064.29a6.063,6.063,0,0,0-.1.612c-.129.58-.483,1.708-.677,2.288a16.144,16.144,0,0,1-4.415,6.768V-18.79a10.637,10.637,0,0,1-2.127.129h-.258v-4.609a19.466,19.466,0,0,1,.193-3.384H182.32a20.322,20.322,0,0,1,.193,3.416Zm18.983,7.8a45.26,45.26,0,0,1-9.508,4.577,12.009,12.009,0,0,1-1.837.483l1.257,3.61a16.5,16.5,0,0,1,1.611-.741,63.428,63.428,0,0,0,9.25-4.641Zm-9.54-1.1a15.885,15.885,0,0,1,2.772-.193h4.19a15.381,15.381,0,0,1,2.417.129v-3.513a15.968,15.968,0,0,1-2.449.161h-4.158a13.607,13.607,0,0,1-2.772-.193Zm41.543-5.8v-4.351h3.352c1.579,0,2.868.064,3.8.161v-3.577a29.674,29.674,0,0,1-3.932.193H223.251a27.818,27.818,0,0,1-3.8-.193v3.577c1.031-.1,2.224-.161,3.8-.161h1.579v4.351H221.8a25.318,25.318,0,0,1-2.965-.129A22.739,22.739,0,0,1,219-14.793V-1a31.373,31.373,0,0,1-.193,3.545h3.61V.773h13.665V2.546h3.674a37.93,37.93,0,0,1-.193-4.029V-14.858a26.172,26.172,0,0,1,.129-3.03,23.8,23.8,0,0,1-2.9.129Zm-3.094,0h-2.482v-4.351h2.482Zm-5.576,3.094V-2.353h-2.578V-14.664Zm3.094,0h2.482V-2.353h-2.482Zm5.576,0h2.707V-2.353H233.5ZM213.388-1.031a33.836,33.836,0,0,1-.193,3.771H216.9A27.85,27.85,0,0,1,216.74-1V-18.983a45.9,45.9,0,0,0,2.095-5.318c.258-.741.355-1.031.612-1.773l-3.481-1.418a18.845,18.845,0,0,1-1.192,4.448,24.414,24.414,0,0,1-4.834,8.38,19.991,19.991,0,0,1,1.386,3.835,20.846,20.846,0,0,0,2.159-3.32c-.1,1.611-.1,2.192-.1,3.513Zm41.93-7.7V-.483a20.4,20.4,0,0,1-.161,3.191h3.577V1.064h8.154V2.675h3.674A20.359,20.359,0,0,1,270.4-.548v-7.09c0-.741,0-.967.032-1.354l1.418.58a10.115,10.115,0,0,1,1.8-3.384,29.373,29.373,0,0,1-8.218-3.577,29.09,29.09,0,0,0,4.415-5.866,9.684,9.684,0,0,1,.87-1.418l-1.966-2.095a14.181,14.181,0,0,1-2.8.161h-4.512a8.179,8.179,0,0,0,.322-.806c.322-.773.387-.967.548-1.289l-3.577-.612a17.829,17.829,0,0,1-5,8.412v-2.353a9.946,9.946,0,0,1-1.869.129h-.935v-2.707a23.328,23.328,0,0,1,.161-3.352h-3.674a21.225,21.225,0,0,1,.161,3.352v2.707H246.1a13.786,13.786,0,0,1-2.417-.161v3.352a16.545,16.545,0,0,1,2.385-.129h1.225A30.191,30.191,0,0,1,242.91-7.961,8.916,8.916,0,0,1,244.973-5a26.931,26.931,0,0,0,2.868-6.961c-.1,1.418-.1,1.418-.226,4.19v6.575a33.078,33.078,0,0,1-.193,3.964h3.706a31.62,31.62,0,0,1-.193-3.964V-9.25c0-1.579-.032-2.707-.129-4.222a23.354,23.354,0,0,0,1.9,3.642c.129-.258.193-.322.29-.548a8.619,8.619,0,0,1,1.289,2.095ZM251.9-18.048c.419,0,.58,0,1.192.032a9.812,9.812,0,0,1,2.03,2.385,20.1,20.1,0,0,0,2.482-2.675,21.532,21.532,0,0,0,2.707,3.03,29.646,29.646,0,0,1-6.349,3.449c.226-.258.322-.355.612-.645a18.7,18.7,0,0,1-3.545-5.576Zm5.479,8.315a28.764,28.764,0,0,0,5.511-3.384,37.007,37.007,0,0,0,5.737,3.384H257.381Zm8.67-11.7a14.866,14.866,0,0,1-3.255,4.19,17.039,17.039,0,0,1-3.352-3.642c.161-.258.193-.322.322-.548ZM258.735-6.671h8.154v4.512h-8.154Z" transform="translate(683.201 9101.179)" fill="#fff"/>
      <g id="グループ_692" data-name="グループ 692">
        <path id="パス_659" data-name="パス 659" d="M-22.963-15.309a17.51,17.51,0,0,1-.363,3.424H-32.39a47.106,47.106,0,0,1-4.794-.2v4.27a30.755,30.755,0,0,1,4.754-.242h7.654A12.71,12.71,0,0,1-29.812-3.5,29.379,29.379,0,0,1-38.635-.6a14.957,14.957,0,0,1,2.578,3.988A29.4,29.4,0,0,0-26.106-.765a17.922,17.922,0,0,0,6.083-7.292H-8.9c-.685,6.486-.806,6.647-3.5,6.647a45.784,45.784,0,0,1-6.325-.524,15.557,15.557,0,0,1,1.088,4.391c2.82.161,3.3.2,4.673.2,5.036,0,6.567-.765,7.413-3.747A44.289,44.289,0,0,0-4.391-8.7c.2-2.095.242-2.538.363-3.344-1.571.121-2.78.161-4.351.161H-18.854c.2-1.249.282-1.934.4-3.424h9.185c1.45,0,2.7.04,3.948.161a37.581,37.581,0,0,1-.161-3.988v-9.306a37.857,37.857,0,0,1,.161-4.19,29.158,29.158,0,0,1-4.19.2h-21.15a29.158,29.158,0,0,1-4.19-.2,36.072,36.072,0,0,1,.2,4.19v9.306a26.149,26.149,0,0,1-.242,4.029,43.129,43.129,0,0,1,4.512-.2Zm.564-13.576v3.424h-7.977v-3.424Zm4.149,3.424v-3.424h8.5v3.424Zm-4.149,3.3v3.384h-7.977v-3.384Zm4.149,3.384v-3.384h8.5v3.384Zm38.755-6.849c.2-1.047.483-2.7.6-3.465a10.185,10.185,0,0,1,.282-1.45l-4.311-.806a34,34,0,0,1-1.732,9.306A33.017,33.017,0,0,0,13.5-27.153l-2.7,1.289a23.027,23.027,0,0,1,1.853,6l2.337-1.128a16.7,16.7,0,0,1-2.135,4.029A25.471,25.471,0,0,1,16.477-14.7c-.282-.04-.363-.04-.645-.081v4.351a33.39,33.39,0,0,1,4.472-.242H23.93v8.541H17.525a36.435,36.435,0,0,1-4.754-.242V2.175a32.771,32.771,0,0,1,4.754-.282h16.2a32.554,32.554,0,0,1,4.713.282V-2.377a36.173,36.173,0,0,1-4.713.242H28.241v-8.541h3.988a30.111,30.111,0,0,1,4.391.242v-4.351a30.29,30.29,0,0,1-4.351.2H28.241v-7.05h4.754a36.987,36.987,0,0,1,4.391.242v-4.472a28.52,28.52,0,0,1-4.431.242H28.241v-4.029a26.75,26.75,0,0,1,.282-4.27H23.648a27.089,27.089,0,0,1,.282,4.27v4.029Zm3.424,3.988v7.05H19.7c-1.289,0-2.175-.04-3.062-.121a30.013,30.013,0,0,0,2.9-6.929ZM4.23-14.382a50.42,50.42,0,0,0,1.491-11.28l-3.263-.4a36.157,36.157,0,0,1-1.45,10.474ZM10.958,3.344a39.1,39.1,0,0,1-.242-4.754V-29.772a32.643,32.643,0,0,1,.242-4.27H6.124a26.75,26.75,0,0,1,.282,4.27V-1.732a38.467,38.467,0,0,1-.282,5.076Z" transform="translate(360.438 9191)" fill="#fff"/>
        <path id="パス_658" data-name="パス 658" d="M-109.935-12.56a23.831,23.831,0,0,1,2.6-.24c.8-.08,2.04-.16,3.76-.28V-.84a29.414,29.414,0,0,1-.24,4.28h4.4a29.416,29.416,0,0,1-.24-4.28v-12.6c.72-.04,1.64-.16,2.84-.28.16.64.24.96.44,1.88l3.36-1.4a60.084,60.084,0,0,0-3.16-7.8l-3,1.2a21.87,21.87,0,0,1,1.16,2.72c-2.04.24-2.2.24-4.56.36a104.479,104.479,0,0,0,6.76-9,16.577,16.577,0,0,1,1.32-1.84l-3.68-2.12a45.629,45.629,0,0,1-4.32,7c-.56-.72-1-1.2-1.68-2a53.8,53.8,0,0,0,3.72-6.12c.44-.8.6-1.08.84-1.44l-3.8-1.56a29.261,29.261,0,0,1-3.32,6.48c-.4-.48-.64-.72-1.2-1.4l-2.28,3.32a37.121,37.121,0,0,1,5.48,5.92c-.8,1.04-.96,1.24-2.32,2.92-.92.04-1.32.04-1.6.04a10.515,10.515,0,0,1-1.72-.12Zm30.96-11.04c0,8.32-.48,15.4-1.28,19.28-.48,2.48-.92,2.96-2.72,2.96a31.1,31.1,0,0,1-5.24-.52,16.362,16.362,0,0,1,1.12,4.48c1.44.12,2.68.16,3.72.16,2.6,0,4.2-.32,5.12-1.04,1.32-1.04,2.04-3.24,2.68-7.84.44-3.28.88-10.24.92-14.8.04-5.68.04-5.68.2-6.96a21.92,21.92,0,0,1-3.28.16h-8.72c.48-1.24.64-1.72,1.16-3.36a13.713,13.713,0,0,1,.52-1.64l-4.48-.8a25.765,25.765,0,0,1-1.44,5.04,25.894,25.894,0,0,1-4.72,7.96,11.664,11.664,0,0,1,3.2,3.24,27.889,27.889,0,0,0,4-6.32Zm-29.72,12.4a37.573,37.573,0,0,1-1.88,10.76l3.56,1.64a44.46,44.46,0,0,0,1.96-11.84Zm10.56.56A93.805,93.805,0,0,1-96.615-.36l3.64-.88a98.827,98.827,0,0,0-1.92-10.2Zm15.6,1.72a45.825,45.825,0,0,0-4.92-10.04l-3.48,1.92a43.994,43.994,0,0,1,4.56,10.16Zm24.146-13.639A3.508,3.508,0,0,0-61.24-23.75,3.478,3.478,0,0,0-64.7-21.855a9.4,9.4,0,0,0-.625,3.477h-5.41a13.682,13.682,0,0,1,1.309-5.84q2.227-4.238,7.91-4.238a10.03,10.03,0,0,1,7.148,2.49,8.611,8.611,0,0,1,2.656,6.592,8.924,8.924,0,0,1-1.875,5.586,18.68,18.68,0,0,1-4.043,3.613l-2.227,1.582q-2.09,1.484-2.861,2.148a6.3,6.3,0,0,0-1.3,1.543H-51.65V0H-71.045a13.308,13.308,0,0,1,1.309-5.566q1.191-2.832,5.625-6a41.25,41.25,0,0,0,4.98-3.945,5.831,5.831,0,0,0,1.738-4.062A4.5,4.5,0,0,0-58.389-22.559Zm22.246,0a3.508,3.508,0,0,0-2.852-1.191,3.478,3.478,0,0,0-3.457,1.895,9.4,9.4,0,0,0-.625,3.477h-5.41a13.682,13.682,0,0,1,1.309-5.84q2.227-4.238,7.91-4.238a10.03,10.03,0,0,1,7.148,2.49,8.611,8.611,0,0,1,2.656,6.592,8.924,8.924,0,0,1-1.875,5.586,18.68,18.68,0,0,1-4.043,3.613l-2.227,1.582q-2.09,1.484-2.861,2.148a6.3,6.3,0,0,0-1.3,1.543H-29.4V0H-48.8A13.308,13.308,0,0,1-47.49-5.566q1.191-2.832,5.625-6a41.25,41.25,0,0,0,4.98-3.945,5.831,5.831,0,0,0,1.738-4.062A4.5,4.5,0,0,0-36.143-22.559Zm19,8.5a5.444,5.444,0,0,0-1.758.254,3.494,3.494,0,0,0-1.973,1.738l-5-.234,1.992-15.645H-8.271v4.727H-19.854l-1.016,6.191a11.637,11.637,0,0,1,2.012-1.113,8.517,8.517,0,0,1,2.949-.449A8.859,8.859,0,0,1-9.775-16.23q2.617,2.363,2.617,6.875a10.786,10.786,0,0,1-2.52,7.012Q-12.2.742-17.217.742a10.013,10.013,0,0,1-6.641-2.168,8.422,8.422,0,0,1-2.891-6.152H-21.2a5.372,5.372,0,0,0,1.27,2.8,3.6,3.6,0,0,0,2.734.986,3.69,3.69,0,0,0,3.154-1.455,5.962,5.962,0,0,0,1.084-3.662,6.362,6.362,0,0,0-1.016-3.662A3.557,3.557,0,0,0-17.139-14.062ZM2.412,1.992A5.637,5.637,0,0,1,1.1,4.492,6.743,6.743,0,0,1-1.328,6.2a6.3,6.3,0,0,1-1.924.576V4.629A4.364,4.364,0,0,0-.781,3.066,5.764,5.764,0,0,0,.127,0H-3.252V-5.82H2.764V-.781A11.731,11.731,0,0,1,2.412,1.992ZM16.572.7q-5.41,0-7.588-3.789t-2.178-10.8q0-7.012,2.178-10.82t7.588-3.809q5.41,0,7.6,3.809,2.168,3.809,2.168,10.82T24.16-3.086Q21.982.7,16.572.7Zm3.262-7.129a27.865,27.865,0,0,0,.762-7.461,27.333,27.333,0,0,0-.771-7.578,3.152,3.152,0,0,0-3.252-2.461,3.2,3.2,0,0,0-3.281,2.461,26.379,26.379,0,0,0-.8,7.578,26.676,26.676,0,0,0,.8,7.471,3.224,3.224,0,0,0,3.281,2.588A3.2,3.2,0,0,0,19.834-6.426ZM38.818.7q-5.41,0-7.588-3.789t-2.178-10.8q0-7.012,2.178-10.82t7.588-3.809q5.41,0,7.6,3.809,2.168,3.809,2.168,10.82t-2.178,10.8Q44.229.7,38.818.7ZM42.08-6.426a27.865,27.865,0,0,0,.762-7.461,27.333,27.333,0,0,0-.771-7.578,3.152,3.152,0,0,0-3.252-2.461,3.2,3.2,0,0,0-3.281,2.461,26.379,26.379,0,0,0-.8,7.578,26.676,26.676,0,0,0,.8,7.471,3.224,3.224,0,0,0,3.281,2.588A3.2,3.2,0,0,0,42.08-6.426ZM61.064.7q-5.41,0-7.588-3.789T51.3-13.887q0-7.012,2.178-10.82t7.588-3.809q5.41,0,7.6,3.809Q70.83-20.9,70.83-13.887t-2.178,10.8Q66.475.7,61.064.7Zm3.262-7.129a27.865,27.865,0,0,0,.762-7.461,27.333,27.333,0,0,0-.771-7.578,3.152,3.152,0,0,0-3.252-2.461,3.2,3.2,0,0,0-3.281,2.461,26.379,26.379,0,0,0-.8,7.578,26.676,26.676,0,0,0,.8,7.471,3.224,3.224,0,0,0,3.281,2.588A3.2,3.2,0,0,0,64.326-6.426ZM80.415-12.4h23.8v9.76c0,.96-.24,1.08-1.8,1.08-1.44,0-3.44-.16-6.08-.44a15.391,15.391,0,0,1,1.24,4.32c1.56.08,3.76.16,5.32.16a9.838,9.838,0,0,0,4.2-.56c1.16-.6,1.64-1.72,1.64-3.76V-27.48a39.363,39.363,0,0,1,.16-4.36,36.669,36.669,0,0,1-4.36.16H80.215a42.973,42.973,0,0,1-4.44-.16,34.464,34.464,0,0,1,.16,3.84V-1.84a38,38,0,0,1-.24,4.8h4.92a29.4,29.4,0,0,1-.2-4.64Zm9.48-4.2h-9.48V-27.44h9.48Zm4.32,0V-27.44h10V-16.6Z" transform="translate(531.697 9191)" fill="#fff"/>
      </g>
      <g id="グループ_693" data-name="グループ 693">
        <path id="パス_660" data-name="パス 660" d="M-2.619-.564A94.167,94.167,0,0,0-14.342-7.977c2.9-3.747,4.552-7.534,5.761-13.214h2.216a37.429,37.429,0,0,1,4.633.242v-4.673a36.865,36.865,0,0,1-4.754.242H-21.553c.645-1.732,1.047-2.9,1.692-4.875a25.769,25.769,0,0,1,1.007-2.82l-5.237-.725a45.454,45.454,0,0,1-2.538,8.42h-6.849a39.1,39.1,0,0,1-4.754-.242v4.673a37.3,37.3,0,0,1,4.754-.242h5.036a49.832,49.832,0,0,1-6.97,11.079A39.694,39.694,0,0,1-30.9-8.178c.685-.967.765-1.088,1.41-1.974a72.3,72.3,0,0,1,7.695,3.344,31.144,31.144,0,0,1-6.567,3.384,34.2,34.2,0,0,1-9.91,2.095,16.21,16.21,0,0,1,2.135,4.351A42.459,42.459,0,0,0-26.226.6a28.142,28.142,0,0,0,8.7-5.157A78.057,78.057,0,0,1-5.842,3.3ZM-13.294-21.191c-1.088,4.915-2.457,7.9-5.116,11.119a78.143,78.143,0,0,0-8.742-3.747,65.4,65.4,0,0,0,3.867-7.372Zm33.8-4.431c.2-1.047.483-2.7.6-3.465a10.185,10.185,0,0,1,.282-1.45l-4.311-.806a34,34,0,0,1-1.732,9.306A33.017,33.017,0,0,0,13.5-27.153l-2.7,1.289a23.027,23.027,0,0,1,1.853,6l2.337-1.128a16.7,16.7,0,0,1-2.135,4.029A25.471,25.471,0,0,1,16.477-14.7c-.282-.04-.363-.04-.645-.081v4.351a33.39,33.39,0,0,1,4.472-.242H23.93v8.541H17.525a36.435,36.435,0,0,1-4.754-.242V2.175a32.771,32.771,0,0,1,4.754-.282h16.2a32.554,32.554,0,0,1,4.713.282V-2.377a36.173,36.173,0,0,1-4.713.242H28.241v-8.541h3.988a30.111,30.111,0,0,1,4.391.242v-4.351a30.29,30.29,0,0,1-4.351.2H28.241v-7.05h4.754a36.987,36.987,0,0,1,4.391.242v-4.472a28.52,28.52,0,0,1-4.431.242H28.241v-4.029a26.75,26.75,0,0,1,.282-4.27H23.648a27.089,27.089,0,0,1,.282,4.27v4.029Zm3.424,3.988v7.05H19.7c-1.289,0-2.175-.04-3.062-.121a30.013,30.013,0,0,0,2.9-6.929ZM4.23-14.382a50.42,50.42,0,0,0,1.491-11.28l-3.263-.4a36.157,36.157,0,0,1-1.45,10.474ZM10.958,3.344a39.1,39.1,0,0,1-.242-4.754V-29.772a32.643,32.643,0,0,1,.242-4.27H6.124a26.75,26.75,0,0,1,.282,4.27V-1.732a38.467,38.467,0,0,1-.282,5.076Z" transform="translate(755.272 9191)" fill="#fff"/>
        <path id="パス_661" data-name="パス 661" d="M-109.935-12.56a23.831,23.831,0,0,1,2.6-.24c.8-.08,2.04-.16,3.76-.28V-.84a29.414,29.414,0,0,1-.24,4.28h4.4a29.416,29.416,0,0,1-.24-4.28v-12.6c.72-.04,1.64-.16,2.84-.28.16.64.24.96.44,1.88l3.36-1.4a60.084,60.084,0,0,0-3.16-7.8l-3,1.2a21.87,21.87,0,0,1,1.16,2.72c-2.04.24-2.2.24-4.56.36a104.479,104.479,0,0,0,6.76-9,16.577,16.577,0,0,1,1.32-1.84l-3.68-2.12a45.629,45.629,0,0,1-4.32,7c-.56-.72-1-1.2-1.68-2a53.8,53.8,0,0,0,3.72-6.12c.44-.8.6-1.08.84-1.44l-3.8-1.56a29.261,29.261,0,0,1-3.32,6.48c-.4-.48-.64-.72-1.2-1.4l-2.28,3.32a37.121,37.121,0,0,1,5.48,5.92c-.8,1.04-.96,1.24-2.32,2.92-.92.04-1.32.04-1.6.04a10.515,10.515,0,0,1-1.72-.12Zm30.96-11.04c0,8.32-.48,15.4-1.28,19.28-.48,2.48-.92,2.96-2.72,2.96a31.1,31.1,0,0,1-5.24-.52,16.362,16.362,0,0,1,1.12,4.48c1.44.12,2.68.16,3.72.16,2.6,0,4.2-.32,5.12-1.04,1.32-1.04,2.04-3.24,2.68-7.84.44-3.28.88-10.24.92-14.8.04-5.68.04-5.68.2-6.96a21.92,21.92,0,0,1-3.28.16h-8.72c.48-1.24.64-1.72,1.16-3.36a13.713,13.713,0,0,1,.52-1.64l-4.48-.8a25.765,25.765,0,0,1-1.44,5.04,25.894,25.894,0,0,1-4.72,7.96,11.664,11.664,0,0,1,3.2,3.24,27.889,27.889,0,0,0,4-6.32Zm-29.72,12.4a37.573,37.573,0,0,1-1.88,10.76l3.56,1.64a44.46,44.46,0,0,0,1.96-11.84Zm10.56.56A93.805,93.805,0,0,1-96.615-.36l3.64-.88a98.827,98.827,0,0,0-1.92-10.2Zm15.6,1.72a45.825,45.825,0,0,0-4.92-10.04l-3.48,1.92a43.994,43.994,0,0,1,4.56,10.16Zm24.146-13.639A3.508,3.508,0,0,0-61.24-23.75,3.478,3.478,0,0,0-64.7-21.855a9.4,9.4,0,0,0-.625,3.477h-5.41a13.682,13.682,0,0,1,1.309-5.84q2.227-4.238,7.91-4.238a10.03,10.03,0,0,1,7.148,2.49,8.611,8.611,0,0,1,2.656,6.592,8.924,8.924,0,0,1-1.875,5.586,18.68,18.68,0,0,1-4.043,3.613l-2.227,1.582q-2.09,1.484-2.861,2.148a6.3,6.3,0,0,0-1.3,1.543H-51.65V0H-71.045a13.308,13.308,0,0,1,1.309-5.566q1.191-2.832,5.625-6a41.25,41.25,0,0,0,4.98-3.945,5.831,5.831,0,0,0,1.738-4.062A4.5,4.5,0,0,0-58.389-22.559Zm29.258,12.109v4.355h-3.2V0h-5.449V-6.094H-48.994v-4.863l10.41-17.187h6.25v17.7Zm-15.742,0h7.09V-22.676ZM-12.666,0h-5.7V-19.531h-6.66V-23.32a24.673,24.673,0,0,0,3.691-.352A5.206,5.206,0,0,0-18.6-25.156a4.887,4.887,0,0,0,1.094-2.031,4.663,4.663,0,0,0,.215-1.133h4.629ZM2.412,1.992A5.637,5.637,0,0,1,1.1,4.492,6.743,6.743,0,0,1-1.328,6.2a6.3,6.3,0,0,1-1.924.576V4.629A4.364,4.364,0,0,0-.781,3.066,5.764,5.764,0,0,0,.127,0H-3.252V-5.82H2.764V-.781A11.731,11.731,0,0,1,2.412,1.992ZM16.572.7q-5.41,0-7.588-3.789t-2.178-10.8q0-7.012,2.178-10.82t7.588-3.809q5.41,0,7.6,3.809,2.168,3.809,2.168,10.82T24.16-3.086Q21.982.7,16.572.7Zm3.262-7.129a27.865,27.865,0,0,0,.762-7.461,27.333,27.333,0,0,0-.771-7.578,3.152,3.152,0,0,0-3.252-2.461,3.2,3.2,0,0,0-3.281,2.461,26.379,26.379,0,0,0-.8,7.578,26.676,26.676,0,0,0,.8,7.471,3.224,3.224,0,0,0,3.281,2.588A3.2,3.2,0,0,0,19.834-6.426ZM38.818.7q-5.41,0-7.588-3.789t-2.178-10.8q0-7.012,2.178-10.82t7.588-3.809q5.41,0,7.6,3.809,2.168,3.809,2.168,10.82t-2.178,10.8Q44.229.7,38.818.7ZM42.08-6.426a27.865,27.865,0,0,0,.762-7.461,27.333,27.333,0,0,0-.771-7.578,3.152,3.152,0,0,0-3.252-2.461,3.2,3.2,0,0,0-3.281,2.461,26.379,26.379,0,0,0-.8,7.578,26.676,26.676,0,0,0,.8,7.471,3.224,3.224,0,0,0,3.281,2.588A3.2,3.2,0,0,0,42.08-6.426ZM61.064.7q-5.41,0-7.588-3.789T51.3-13.887q0-7.012,2.178-10.82t7.588-3.809q5.41,0,7.6,3.809Q70.83-20.9,70.83-13.887t-2.178,10.8Q66.475.7,61.064.7Zm3.262-7.129a27.865,27.865,0,0,0,.762-7.461,27.333,27.333,0,0,0-.771-7.578,3.152,3.152,0,0,0-3.252-2.461,3.2,3.2,0,0,0-3.281,2.461,26.379,26.379,0,0,0-.8,7.578,26.676,26.676,0,0,0,.8,7.471,3.224,3.224,0,0,0,3.281,2.588A3.2,3.2,0,0,0,64.326-6.426ZM80.415-12.4h23.8v9.76c0,.96-.24,1.08-1.8,1.08-1.44,0-3.44-.16-6.08-.44a15.391,15.391,0,0,1,1.24,4.32c1.56.08,3.76.16,5.32.16a9.838,9.838,0,0,0,4.2-.56c1.16-.6,1.64-1.72,1.64-3.76V-27.48a39.363,39.363,0,0,1,.16-4.36,36.669,36.669,0,0,1-4.36.16H80.215a42.973,42.973,0,0,1-4.44-.16,34.464,34.464,0,0,1,.16,3.84V-1.84a38,38,0,0,1-.24,4.8h4.92a29.4,29.4,0,0,1-.2-4.64Zm9.48-4.2h-9.48V-27.44h9.48Zm4.32,0V-27.44h10V-16.6Z" transform="translate(926.53 9191)" fill="#fff"/>
      </g>
      <path id="線_287" data-name="線 287" d="M682.565.725H0A.725.725,0,0,1-.725,0,.725.725,0,0,1,0-.725H682.565A.725.725,0,0,1,683.29,0,.725.725,0,0,1,682.565.725Z" transform="translate(341.919 9125.764)" fill="#fff"/>
    </g>
    <path id="線_288" data-name="線 288" d="M235,4H0A4,4,0,0,1-4,0,4,4,0,0,1,0-4H235a4,4,0,0,1,4,4A4,4,0,0,1,235,4Z" transform="translate(413.5 9204.295)" fill="#fbd83b"/>
    <path id="線_289" data-name="線 289" d="M235,4H0A4,4,0,0,1-4,0,4,4,0,0,1,0-4H235a4,4,0,0,1,4,4A4,4,0,0,1,235,4Z" transform="translate(808.5 9204.295)" fill="#fbd83b"/>
  </g>
</svg>
