<svg xmlns="http://www.w3.org/2000/svg" width="350" height="77.413" viewBox="0 0 350 77.413">
  <g id="グループ_757" data-name="グループ 757" transform="translate(-4973.356 -2002.587)">
    <g id="グループ_8" data-name="グループ 8">
      <path id="パス_1" data-name="パス 1" d="M5286.972,2026.659v-15.271a8.8,8.8,0,0,0-8.8-8.8H5026.4a8.8,8.8,0,0,0-8.8,8.8v15.271a8.8,8.8,0,0,1-8.8,8.8H4986a8.8,8.8,0,0,0-8.8,8.8v26.94a8.8,8.8,0,0,0,8.8,8.8h328.557a8.8,8.8,0,0,0,8.8-8.8v-26.94a8.8,8.8,0,0,0-8.8-8.8h-18.783A8.8,8.8,0,0,1,5286.972,2026.659Z" fill="#699c78"/>
      <path id="パス_2" data-name="パス 2" d="M5283.13,2026.659v-15.271a8.8,8.8,0,0,0-8.8-8.8h-251.77a8.8,8.8,0,0,0-8.8,8.8v15.271a8.8,8.8,0,0,1-8.8,8.8h-22.8a8.8,8.8,0,0,0-8.8,8.8v26.94a8.8,8.8,0,0,0,8.8,8.8h328.557a8.8,8.8,0,0,0,8.8-8.8v-26.94a8.8,8.8,0,0,0-8.8-8.8H5291.93A8.8,8.8,0,0,1,5283.13,2026.659Z" fill="#82c195"/>
      <path id="パス_662" data-name="パス 662" d="M-107.083-6.566a17.112,17.112,0,0,1-2.156.1h-8.4a18.287,18.287,0,0,1-2.17-.1v1.872c.638-.057,1.376-.1,2.17-.1h8.4a19.336,19.336,0,0,1,2.156.1Zm3.815-1.971a7.27,7.27,0,0,1,.794,1.985l1.064-.539a9.5,9.5,0,0,0-.851-1.9Zm-2.453,4.226a8.058,8.058,0,0,1,.922-.142c-.142,2.241-.454,3.446-1.134,4.41a6.359,6.359,0,0,1,1.205,1.163,12.527,12.527,0,0,0,1.248-5.758l.553-.085v2.056A7.238,7.238,0,0,1-103-1.39h1.22a9.941,9.941,0,0,1-.043-1.276V-4.878c.014,0,.227-.043.61-.1v4.3c0,.255-.057.3-.3.3a8.286,8.286,0,0,1-1.4-.142A4.628,4.628,0,0,1-102.63.908a10.464,10.464,0,0,0,1.12.071,2.185,2.185,0,0,0,1.134-.213c.326-.241.44-.511.44-1.149v-4.85c.113-.028.184-.043.369-.085v-1.29a3.18,3.18,0,0,1-.369.071V-9.757a8.869,8.869,0,0,1,.043-.908,7.806,7.806,0,0,1-1.12.071h-.851c.184-.326.44-.837.667-1.319l-1.574-.227a5.837,5.837,0,0,1-.567,1.546h-.468a8,8,0,0,1-1.035-.057,19.274,19.274,0,0,1,.113,2.865c0,.5-.014,1.12-.028,1.914q-.766.043-.893.043h-.284Zm2.312-5.049h2.2v3.049c-.624.113-1.532.241-2.226.312.014-1.234.014-1.234.028-2.4Zm9.4,3.333a3.71,3.71,0,0,1-.979.071H-98.3a5.683,5.683,0,0,1-.993-.057v1.4a3.021,3.021,0,0,1,.355-.043A9.5,9.5,0,0,0-97.368-1.73,8.408,8.408,0,0,1-99.893-.255a4.626,4.626,0,0,1,.922,1.347A10.951,10.951,0,0,0-96.362-.652,9.837,9.837,0,0,0-93.469,1.12a6.06,6.06,0,0,1,.808-1.5,8.012,8.012,0,0,1-2.68-1.333,11.033,11.033,0,0,0,1.773-2.95,3.23,3.23,0,0,1,.255-.539Zm-1.134,1.361a6.974,6.974,0,0,1-1.234,1.957,6.239,6.239,0,0,1-1.106-1.957Zm-.794-5.531v2.553c0,.794.213.922,1.532.922,1.489,0,1.631-.2,1.829-2.368a3.486,3.486,0,0,1-1.149-.525A8.77,8.77,0,0,1-93.866-8.2c-.043.184-.128.227-.425.227-.241,0-.284-.043-.284-.255v-2.127c0-.511.014-.837.043-1.191a10.057,10.057,0,0,1-1.22.057h-1.7a10.913,10.913,0,0,1-1.149-.057,4.268,4.268,0,0,1,.071.837c0,1.673-.34,2.553-1.191,3.177a4.037,4.037,0,0,1,1.035,1.149,3.728,3.728,0,0,0,1.007-1.39A5.966,5.966,0,0,0-97.2-10.2Zm6.041.34h-.5a6.869,6.869,0,0,1-.752-.043,11.684,11.684,0,0,1,.057,1.446v7.374A14.546,14.546,0,0,1-91.157.752h1.546V-.5H-87.6V.355h1.517a13.755,13.755,0,0,1-.057-1.4V-6.5a3.633,3.633,0,0,1,.61.709,10.962,10.962,0,0,0,1.815-2.666h3.29a36.447,36.447,0,0,1-.525,7.459c-.128.411-.34.525-.95.525a11.7,11.7,0,0,1-1.815-.2,4.833,4.833,0,0,1,.4,1.617c.709.043,1.064.057,1.4.057,2.184,0,2.553-.539,2.822-4.127.057-.723.184-4,.213-5.758A8.236,8.236,0,0,1-78.819-10a8.313,8.313,0,0,1-1.205.057h-3.021c.128-.326.355-.979.411-1.191a3.967,3.967,0,0,1,.2-.553l-1.631-.269a10.658,10.658,0,0,1-2.07,4.467V-8.679c0-.723.014-.766.014-.794a4.038,4.038,0,0,1,.028-.425c-.113.014-.525.028-1.22.043h-.78a15.654,15.654,0,0,0,.723-1.844L-89-11.926a10.241,10.241,0,0,1-.61,2.07Zm.269,1.376H-87.6v2.51h-2.028Zm0,3.886H-87.6v2.737h-2.028Zm8.112,1.319a18.461,18.461,0,0,0-1.971-3.517l-1.29.695a13.781,13.781,0,0,1,1.829,3.6Zm7.842-8.48A14.488,14.488,0,0,1-74.1-9.289c-.312.014-.553.014-.723.014A9.846,9.846,0,0,1-76.735-9.4v1.617l.752.014c.3.014.383.014.567.014s.255,0,.893-.014a21.817,21.817,0,0,1-1.333,3.347,12.908,12.908,0,0,1-1.376,2.269l1.631.908c.085-.17.085-.17.269-.511.539-.993.667-1.248.993-1.943a27.221,27.221,0,0,0,1.56-4.113c.879-.071,1.744-.17,2.255-.255a2.765,2.765,0,0,1,.454-.071l-.043-1.631a12.163,12.163,0,0,1-2.269.4c.156-.624.227-.908.3-1.248a7.1,7.1,0,0,1,.227-.95ZM-64.6-8.069a22.386,22.386,0,0,0-4-1.9l-.851,1.376a17.356,17.356,0,0,1,4.084,1.985Zm-.057,6.4a2.539,2.539,0,0,1-.213-.2,5.228,5.228,0,0,0-.5-.383,8.86,8.86,0,0,0-2.241-1.3A15.056,15.056,0,0,1-67.73-5.5a4.727,4.727,0,0,1,.17-1.432L-69.2-7.02a7.522,7.522,0,0,0-.113,1.432c0,.425.028.979.071,1.631a7.044,7.044,0,0,0-1.319-.128c-1.8,0-3.063,1.007-3.063,2.439S-72.409.737-70.537.737a3.274,3.274,0,0,0,2.354-.794,2.266,2.266,0,0,0,.61-1.5c0-.057-.014-.156-.028-.284a8.577,8.577,0,0,1,2.17,1.758Zm-4.538-.78s.028.34.028.482c0,.794-.468,1.191-1.432,1.191-.879,0-1.39-.34-1.39-.922s.6-.979,1.517-.979A3.575,3.575,0,0,1-69.19-2.453Zm11.586-3.3v1.6h-2.085a11.85,11.85,0,0,1-1.574-.071v1.588a14.142,14.142,0,0,1,1.574-.071H-57.6V-.794h-3.517a14.409,14.409,0,0,1-1.815-.085V.78a12.229,12.229,0,0,1,1.773-.1h8.849a12.443,12.443,0,0,1,1.787.1V-.879a14.943,14.943,0,0,1-1.8.085h-3.687V-2.709h2.3a14.038,14.038,0,0,1,1.56.071V-4.226a13.307,13.307,0,0,1-1.56.071h-2.3v-1.6h2a13.829,13.829,0,0,1,1.5.071V-6.722c.638.369,1.049.6,1.688.893a6.7,6.7,0,0,1,.908-1.631,12.85,12.85,0,0,1-3.474-1.8,10.347,10.347,0,0,1-2.524-2.51h-1.8a5.957,5.957,0,0,1-.766,1.021,12.7,12.7,0,0,1-1.56,1.489,13.756,13.756,0,0,1-3.432,1.872,8.939,8.939,0,0,1,.936,1.5,12.62,12.62,0,0,0,1.546-.808v1.007a13.934,13.934,0,0,1,1.546-.071ZM-59.561-7.19c-.213,0-.34,0-.624-.014a11.384,11.384,0,0,0,3.418-3.219A12.715,12.715,0,0,0-53.279-7.2c-.269.014-.369.014-.667.014ZM-39.934-.766c0,.227-.156.284-.879.284A9.18,9.18,0,0,1-42.43-.624,5.113,5.113,0,0,1-42.047.922c1.234.043,1.234.043,1.546.043,1.588,0,2.085-.312,2.085-1.319V-4.3A18.491,18.491,0,0,0-36.758-6a6.373,6.373,0,0,1,.681-.737l-1.064-1.106a10.54,10.54,0,0,1-1.276,1.617V-9.232a11.385,11.385,0,0,1,.071-1.546,12.9,12.9,0,0,1-1.517.057h-2.624c.184-.312.383-.667.652-1.177l-1.659-.213a5.688,5.688,0,0,1-.638,1.39h-1.134a14.16,14.16,0,0,1-1.532-.057,13.239,13.239,0,0,1,.057,1.361v5.077c-1.3.057-1.3.057-1.461.057s-.284-.014-.454-.028l.213,1.517c.255-.043.44-.057.893-.1,2.4-.184,2.85-.227,5.814-.581a22.4,22.4,0,0,1-7.034,3.12,5.427,5.427,0,0,1,.808,1.4,26.477,26.477,0,0,0,8.027-4.084Zm-5.29-6.665h5.29v.823h-5.29Zm5.29-1.191h-5.29v-.794h5.29Zm-5.29,3.2h5.29v.539c-2.255.241-2.255.241-5.29.454Zm10.537.95a12.927,12.927,0,0,1,1.943-.17V-.255a10.963,10.963,0,0,1-.085,1.489L-31.3,1.22a9.866,9.866,0,0,1-.085-1.489V-4.737c.369-.043.482-.057.567-.057.269-.043.269-.043.425-.057.057.241.071.326.128.61l1.092-.411A13.293,13.293,0,0,0-30.22-7.4l-.95.425a7.293,7.293,0,0,1,.411.922c-.624.057-.766.071-1.475.1a28.947,28.947,0,0,0,1.943-2.808,3.485,3.485,0,0,1,.979,1.134,8.946,8.946,0,0,0,2.652-3.219c.071-.113.071-.113.156-.241a.632.632,0,0,1,.071-.113l-1.376-.667a5.81,5.81,0,0,1-.681,1.3,5.434,5.434,0,0,1-1.744,1.716,1.154,1.154,0,0,1,.113-.17c.057-.1.1-.156.113-.184l.369-.553-1.347-.681A12.7,12.7,0,0,1-32.3-8c-.156-.227-.269-.383-.5-.667a18.181,18.181,0,0,0,1.333-2.3,2.783,2.783,0,0,1,.269-.482l-1.4-.61a8.618,8.618,0,0,1-1.049,2.368c-.17-.184-.241-.269-.468-.525l-.752,1.163A14.1,14.1,0,0,1-33.1-6.835c-.255.369-.411.581-.681.922a2.118,2.118,0,0,1-.269.014,5.231,5.231,0,0,1-.794-.057Zm12.536-.993a24.484,24.484,0,0,0-2.2-3.318l-1.134.624a14.9,14.9,0,0,1,.865,1.248c-.709.085-.893.1-2.269.2a17.85,17.85,0,0,0,.893-1.617l.6-1.149-1.461-.454A9.751,9.751,0,0,1-27.7-7.941a10.749,10.749,0,0,1-.752,1.3c-.255.014-.326.014-.44.014a2.833,2.833,0,0,1-.482-.028l.2,1.489c.284-.043.6-.071,2.312-.241l-.879.737A7.481,7.481,0,0,1-25.526-2.85l.993-1.035A12.692,12.692,0,0,0-26.6-5.431c1.517-.142,1.56-.156,2.624-.326.2.369.269.525.553,1.12Zm-7.615,4.127a7.914,7.914,0,0,1-.482,1.021l1.29.752a12.679,12.679,0,0,0,.879-3.687l-1.276-.284a7.707,7.707,0,0,1-.3,1.829,12.79,12.79,0,0,0-.425-2.368l-1.049.284a13,13,0,0,1,.383,2.751Zm-4.51-2.652a13.242,13.242,0,0,1-.6,3.886l1.22.539a17.558,17.558,0,0,0,.581-4.24ZM-25.7-11.2q.213.3.255.34a9.72,9.72,0,0,0,3.035,3.006A4.468,4.468,0,0,1-21.584-9.2,6.825,6.825,0,0,1-23.115-10.3a7.212,7.212,0,0,1-1.333-1.631ZM-27.88-3.687a8.736,8.736,0,0,1,.071,1.064v2.6c0,.411.085.638.269.766a2.865,2.865,0,0,0,1.418.241c2.07,0,2.269-.2,2.453-2.524a2.963,2.963,0,0,1-1.276-.425c-.014,1.078-.043,1.319-.2,1.489a1.025,1.025,0,0,1-.624.142c-.638,0-.667-.014-.667-.326V-2.78a6.5,6.5,0,0,1,.057-.908Zm3.616.227A13.562,13.562,0,0,1-23.03.227l1.39-.667A17.555,17.555,0,0,0-23.03-4Zm6.438-2.78a10.678,10.678,0,0,1,1.22-.057h4.85a10.323,10.323,0,0,1,1.276.057v-.993A13.783,13.783,0,0,0-8.168-5.984a7.635,7.635,0,0,1,.78-1.56A13.335,13.335,0,0,1-11-9.487a9.265,9.265,0,0,1-2.382-2.4h-1.688A9.9,9.9,0,0,1-17.3-9.516a14.169,14.169,0,0,1-3.616,2.042,5.492,5.492,0,0,1,.823,1.446,14.437,14.437,0,0,0,2.269-1.191Zm1.234-1.532h-.4a9.926,9.926,0,0,0,2.78-2.765,12.954,12.954,0,0,0,2.921,2.765h-5.3Zm-.695,8.849V.355h6.2v.723H-9.4A8.859,8.859,0,0,1-9.487-.411V-3.73a9.666,9.666,0,0,1,.071-1.4,9.3,9.3,0,0,1-1.234.057h-7.091a8.931,8.931,0,0,1-1.22-.057,12.8,12.8,0,0,1,.071,1.4v3.3a11.339,11.339,0,0,1-.085,1.5Zm0-4.779h6.2v2.666h-6.2ZM3.021-7.8A13.264,13.264,0,0,1,4.963-3.191L6.58-4a13.189,13.189,0,0,0-2.127-4.51Zm-4.169-3.12a3.3,3.3,0,0,1,.113-.44l-1.844-.184v.255a19.948,19.948,0,0,1-.369,2.865,29.126,29.126,0,0,1-3.021.3l.17,1.673a5.823,5.823,0,0,1,.581-.142l1.29-.213c.454-.085.454-.085.667-.113A20.859,20.859,0,0,1-6.41-.241l1.645.908A30.446,30.446,0,0,0-1.872-7.048c.326-.028.553-.043.851-.043C.071-7.091.4-6.708.4-5.4A12.6,12.6,0,0,1,.028-2.17c-.213.695-.44.964-.851.964a5.936,5.936,0,0,1-2.07-.567A5.326,5.326,0,0,1-2.751-.567c0,.142-.014.355-.028.624A6.574,6.574,0,0,0-.6.482,1.8,1.8,0,0,0,.979-.156C1.659-.936,2.07-2.879,2.07-5.318A3.44,3.44,0,0,0,1.4-7.828a2.747,2.747,0,0,0-2.1-.752c-.255,0-.454.014-.879.028.043-.184.043-.184.085-.425.142-.766.241-1.347.312-1.758Zm3.29.1A9.571,9.571,0,0,1,3.63-8.707l.993-.525a9.19,9.19,0,0,0-1.489-2.085Zm4.169.667a8.2,8.2,0,0,0-1.475-2l-.95.5A10.448,10.448,0,0,1,5.332-9.6Zm5.2,4.893c.312-.667.936-2.212,1.744-4.283a13.664,13.664,0,0,1,.695-1.631l-1.914-.482c-.1.581-.1.581-3.361,9.643C8.225-.78,8.1-.44,7.9-.028l1.829.6A16.267,16.267,0,0,1,10.92-2.68c.695-1.276,1.489-1.985,2.255-1.985a.7.7,0,0,1,.638.326,1.936,1.936,0,0,1,.113.837c0,.142,0,.482-.014.993v.142a4.11,4.11,0,0,0,.241,1.574A2.219,2.219,0,0,0,16.379.44c2.141,0,3.531-1.475,4.141-4.41a4.435,4.435,0,0,1-1.56-1.064,8.888,8.888,0,0,1-.539,2.255c-.411.993-1.021,1.517-1.773,1.517a1.191,1.191,0,0,1-.752-.2c-.255-.213-.312-.5-.312-1.517,0-1.631-.071-2.141-.355-2.6a1.92,1.92,0,0,0-1.588-.808,2.653,2.653,0,0,0-1.829.837l-.269.312ZM29.6-7.36v.879h-1.73a8.856,8.856,0,0,1-1.22-.043c.028.355.043.581.043.979v2.028c0,.326-.014.539-.043.908a11.615,11.615,0,0,1,1.3-.057h1.106A4.267,4.267,0,0,1,25.626-.284a4.17,4.17,0,0,1,.893,1.432,5.833,5.833,0,0,0,3.8-3.134A5.8,5.8,0,0,0,31.511-.5a8.275,8.275,0,0,0,2.836,1.659,4.426,4.426,0,0,1,.78-1.517,6.1,6.1,0,0,1-3.786-2.312H32.8a11.833,11.833,0,0,1,1.333.057c-.028-.4-.043-.6-.043-1.078V-5.431c0-.369.014-.667.043-1.092-.369.028-.667.043-1.248.043H31.014V-7.36h.752c.567,0,.823.014,1.149.043v-.752a12.655,12.655,0,0,0,1.574.922,5.523,5.523,0,0,1,.737-1.4,9.671,9.671,0,0,1-2.5-1.461,6.175,6.175,0,0,1-1.673-1.829H29.483a7.625,7.625,0,0,1-1.659,2.07,10.957,10.957,0,0,1-1.517,1.149v-.808a3.925,3.925,0,0,1-.766.057h-.425v-1.12a10.144,10.144,0,0,1,.071-1.475h-1.6a9.241,9.241,0,0,1,.085,1.489v1.106h-.709a5.544,5.544,0,0,1-.95-.057v1.546a5.651,5.651,0,0,1,.95-.057h.567a13.833,13.833,0,0,1-1.872,4.382,5.165,5.165,0,0,1,.808,1.517c.34-.709.539-1.134.6-1.29a16.614,16.614,0,0,0,.695-2c-.057.681-.085,1.39-.085,1.858V-.539a14.39,14.39,0,0,1-.085,1.744H25.2a14.07,14.07,0,0,1-.085-1.744V-4.212c0-.837-.028-1.461-.071-1.886a11.006,11.006,0,0,0,.964,1.914,5.929,5.929,0,0,1,.652-1.347A8.348,8.348,0,0,1,25.2-7.941h.369c.17,0,.269,0,.5.014a6.311,6.311,0,0,1,.468.879,10.219,10.219,0,0,0,1.347-.908v.638c.383-.028.581-.043,1.149-.043Zm-.028,2.085a8.958,8.958,0,0,1-.113,1.39H28.093v-1.39Zm3.106,0v1.39H30.858a10.622,10.622,0,0,0,.128-1.39ZM29.029-8.665h-.312a9.335,9.335,0,0,0,1.6-1.929,8.014,8.014,0,0,0,1.787,1.929H29.029Zm11.3.695a4.4,4.4,0,0,1,1.021,1.248,10.757,10.757,0,0,0,3.474-3.744,11.558,11.558,0,0,0,3.886,3.843,6.117,6.117,0,0,1,.78-1.489,10.349,10.349,0,0,1-2.056-1.4,8.541,8.541,0,0,1-1.787-2.255h-1.73a8.719,8.719,0,0,1-2.751,3.29V-9.544a7.46,7.46,0,0,1-1.134.057H37.226a6.247,6.247,0,0,1-1.134-.071v1.475a8.475,8.475,0,0,1,1.134-.057h3.4Zm-3.772-2.212a8.845,8.845,0,0,1,1.149-.057h2a8.436,8.436,0,0,1,1.149.057v-1.376a6.418,6.418,0,0,1-1.149.071h-2a6.228,6.228,0,0,1-1.149-.071Zm.043,4.1a7.182,7.182,0,0,1,.893-.043h2.453a6.987,6.987,0,0,1,.865.043V-7.417a6.241,6.241,0,0,1-.865.043H37.5a5.263,5.263,0,0,1-.893-.043Zm0,2a7.083,7.083,0,0,1,.879-.043H39.92a7.026,7.026,0,0,1,.893.043V-5.417a4.83,4.83,0,0,1-.879.043H37.5a5.263,5.263,0,0,1-.893-.043Zm1.347,5.219V.468h1.56V.936h1.418A9.178,9.178,0,0,1,40.87-.241V-2.4a8.8,8.8,0,0,1,.043-1.021,7.658,7.658,0,0,1-.979.043h-2.3a7.765,7.765,0,0,1-1.106-.057,8.856,8.856,0,0,1,.057,1.106v2.07c0,.468-.028.95-.071,1.39Zm0-3.29h1.56V-.78h-1.56Zm7.062-6.467a8.46,8.46,0,0,1-3.772,2.95,5.266,5.266,0,0,1,.808,1.149,11.264,11.264,0,0,0,3.7-2.765c.17-.184.17-.184.4-.411Zm2.936,4.169a7.922,7.922,0,0,1-1.8,1.971A12.176,12.176,0,0,1,41.352-.1a4.325,4.325,0,0,1,.95,1.3A15.128,15.128,0,0,0,45.054.043a12.867,12.867,0,0,0,3.035-2.354c.808-.879.808-.879,1.064-1.163ZM46.458-6.566a5.791,5.791,0,0,1-1.276,1.418A10.63,10.63,0,0,1,41.3-2.992a6.388,6.388,0,0,1,.936,1.22,15.14,15.14,0,0,0,1.5-.695A13.53,13.53,0,0,0,46-4.027a18.646,18.646,0,0,0,1.617-1.617ZM57.831-9.09a3.1,3.1,0,0,1,1.432.425,3.513,3.513,0,0,1,1.744,3.148,3.97,3.97,0,0,1-1.971,3.545,7.537,7.537,0,0,1-2.822.78A4.524,4.524,0,0,1,57.079.468a9.271,9.271,0,0,0,2.226-.6,5.463,5.463,0,0,0,3.446-5.29c0-3.191-2.212-5.261-5.616-5.261a6.366,6.366,0,0,0-4.878,1.985A6.092,6.092,0,0,0,50.7-4.566c0,2.283,1.163,3.928,2.78,3.928,1.163,0,2.07-.837,2.879-2.666A20.516,20.516,0,0,0,57.831-9.09Zm-1.73.014a18.69,18.69,0,0,1-1.177,4.793c-.511,1.22-.993,1.815-1.461,1.815-.624,0-1.12-.922-1.12-2.085a4.748,4.748,0,0,1,1.929-3.829A3.61,3.61,0,0,1,56.1-9.076Zm13.983-.95V-5.2H66.255a10.838,10.838,0,0,1-1.744-.1v1.659a13.686,13.686,0,0,1,1.787-.1h3.786V-.581a15.645,15.645,0,0,1-.1,1.829h1.8a16.522,16.522,0,0,1-.1-1.829V-3.744h3.9a12.313,12.313,0,0,1,1.787.1V-5.3a10.626,10.626,0,0,1-1.688.1h-4v-4.822h3.361a14.794,14.794,0,0,1,1.73.085v-1.617A14.584,14.584,0,0,1,75-11.473H66.921a14.911,14.911,0,0,1-1.773-.085v1.617a15.231,15.231,0,0,1,1.744-.085ZM65.815-8.977a12.578,12.578,0,0,1,1.673,3.418L68.949-6.3a15.051,15.051,0,0,0-1.758-3.333Zm8.807-.638a10.524,10.524,0,0,1-1.9,3.432l1.4.709a15.376,15.376,0,0,0,1.957-3.474Zm5.687,1.4H79.9a6.989,6.989,0,0,1-1.22-.085v1.56a7.208,7.208,0,0,1,1.22-.071h.411v4.24a8.348,8.348,0,0,1-1.758.482l.355,1.6c.383-.156.4-.17,1.149-.44a31.312,31.312,0,0,0,3.262-1.39l-.028-1.517c-.681.34-.908.454-1.461.681V-6.807a9.73,9.73,0,0,1,1.049.043V-6.85a7.215,7.215,0,0,1,.681.808,10.53,10.53,0,0,0,1.943-2.4h4.212q-.021,6-.511,7.445c-.142.411-.3.511-.808.511a14.813,14.813,0,0,1-1.929-.184,5.305,5.305,0,0,1,.4,1.6c1.064.071,1.177.071,1.517.071A2.537,2.537,0,0,0,90.008.652,3.56,3.56,0,0,0,90.888-1.6a51.407,51.407,0,0,0,.369-7.133,6.845,6.845,0,0,1,.057-1.248c-.284.028-.794.057-1.319.057H86.236c.113-.284.312-.808.454-1.191a2.4,2.4,0,0,1,.17-.454l-1.673-.369c-.014.071-.028.113-.028.128a2.666,2.666,0,0,0-.043.269c-.057.255-.213.752-.3,1.007a7.1,7.1,0,0,1-1.943,2.978v-.709a4.68,4.68,0,0,1-.936.057h-.113v-2.028a8.565,8.565,0,0,1,.085-1.489H80.223a8.942,8.942,0,0,1,.085,1.5Zm8.353,3.432a19.915,19.915,0,0,1-4.183,2.014,5.284,5.284,0,0,1-.808.213l.553,1.588a7.259,7.259,0,0,1,.709-.326A27.909,27.909,0,0,0,89-3.333Zm-4.2-.482a6.99,6.99,0,0,1,1.22-.085h1.844a6.768,6.768,0,0,1,1.064.057V-6.835a7.026,7.026,0,0,1-1.078.071H85.683a5.987,5.987,0,0,1-1.22-.085Zm18.28-2.553V-9.728h1.475c.695,0,1.262.028,1.673.071v-1.574a13.057,13.057,0,0,1-1.73.085H98.233a12.24,12.24,0,0,1-1.673-.085v1.574c.454-.043.979-.071,1.673-.071h.695v1.914H97.6a11.14,11.14,0,0,1-1.3-.057,10.006,10.006,0,0,1,.071,1.361V-.44a13.805,13.805,0,0,1-.085,1.56h1.588V.34h6.013v.78h1.617a16.688,16.688,0,0,1-.085-1.773V-6.538a11.516,11.516,0,0,1,.057-1.333,10.471,10.471,0,0,1-1.276.057Zm-1.361,0H100.29V-9.728h1.092ZM98.928-6.452v5.417H97.794V-6.452Zm1.361,0h1.092v5.417H100.29Zm2.453,0h1.191v5.417h-1.191Zm-8.849,6a14.887,14.887,0,0,1-.085,1.659H95.44A12.254,12.254,0,0,1,95.369-.44V-8.353a20.2,20.2,0,0,0,.922-2.34c.113-.326.156-.454.269-.78L95.028-12.1A8.292,8.292,0,0,1,94.5-10.14a10.743,10.743,0,0,1-2.127,3.687,8.8,8.8,0,0,1,.61,1.688,9.173,9.173,0,0,0,.95-1.461c-.043.709-.043.964-.043,1.546Zm18.45-3.389v3.63a8.977,8.977,0,0,1-.071,1.4h1.574V.468h3.588v.709h1.617a8.96,8.96,0,0,1-.071-1.418v-3.12c0-.326,0-.425.014-.6l.624.255a4.451,4.451,0,0,1,.794-1.489A12.925,12.925,0,0,1,116.8-6.764a12.8,12.8,0,0,0,1.943-2.581,4.262,4.262,0,0,1,.383-.624l-.865-.922a6.24,6.24,0,0,1-1.234.071h-1.985a3.6,3.6,0,0,0,.142-.355c.142-.34.17-.425.241-.567l-1.574-.269a7.845,7.845,0,0,1-2.2,3.7V-9.345a4.377,4.377,0,0,1-.823.057h-.411V-10.48a10.264,10.264,0,0,1,.071-1.475h-1.617a9.339,9.339,0,0,1,.071,1.475v1.191h-.652a6.066,6.066,0,0,1-1.064-.071v1.475a7.28,7.28,0,0,1,1.049-.057h.539A13.284,13.284,0,0,1,106.884-3.5a3.923,3.923,0,0,1,.908,1.3,11.85,11.85,0,0,0,1.262-3.063c-.043.624-.043.624-.1,1.844V-.525a14.554,14.554,0,0,1-.085,1.744H110.5a13.912,13.912,0,0,1-.085-1.744V-4.07c0-.695-.014-1.191-.057-1.858a10.276,10.276,0,0,0,.837,1.6c.057-.113.085-.142.128-.241a3.793,3.793,0,0,1,.567.922Zm-1.5-4.1c.184,0,.255,0,.525.014a4.317,4.317,0,0,1,.893,1.049,8.845,8.845,0,0,0,1.092-1.177,9.474,9.474,0,0,0,1.191,1.333A13.045,13.045,0,0,1,111.748-5.2c.1-.113.142-.156.269-.284a8.228,8.228,0,0,1-1.56-2.453Zm2.411,3.659a12.657,12.657,0,0,0,2.425-1.489A16.284,16.284,0,0,0,118.2-4.283h-4.949Zm3.815-5.148a6.541,6.541,0,0,1-1.432,1.844,7.5,7.5,0,0,1-1.475-1.6c.071-.113.085-.142.142-.241Zm-3.219,6.5h3.588V-.95h-3.588Z" transform="translate(5148.444 2025.246)" fill="#fff"/>
      <g id="グループ_6" data-name="グループ 6">
        <path id="パス_664" data-name="パス 664" d="M-10.1-6.736a7.7,7.7,0,0,1-.16,1.507h-3.988a20.727,20.727,0,0,1-2.109-.089v1.879a13.532,13.532,0,0,1,2.092-.106H-10.9a5.593,5.593,0,0,1-2.216,2A12.927,12.927,0,0,1-17-.266a6.581,6.581,0,0,1,1.134,1.755A12.934,12.934,0,0,0-11.487-.337,7.886,7.886,0,0,0-8.81-3.545h4.893C-4.219-.691-4.272-.62-5.46-.62a20.146,20.146,0,0,1-2.783-.23,6.845,6.845,0,0,1,.479,1.932c1.241.071,1.454.089,2.056.089,2.216,0,2.889-.337,3.262-1.649a19.488,19.488,0,0,0,.514-3.35c.089-.922.106-1.117.16-1.471-.691.053-1.223.071-1.914.071H-8.3c.089-.55.124-.851.177-1.507h4.042c.638,0,1.188.018,1.737.071A16.537,16.537,0,0,1-2.411-8.42v-4.095a16.658,16.658,0,0,1,.071-1.844,12.83,12.83,0,0,1-1.844.089H-13.49a12.83,12.83,0,0,1-1.844-.089,15.872,15.872,0,0,1,.089,1.844V-8.42a11.506,11.506,0,0,1-.106,1.773,18.977,18.977,0,0,1,1.985-.089Zm.248-5.974V-11.2h-3.51V-12.71ZM-8.03-11.2V-12.71h3.74V-11.2ZM-9.856-9.75v1.489h-3.51V-9.75ZM-8.03-8.261V-9.75h3.74v1.489ZM9.023-11.274c.089-.461.213-1.188.266-1.524a4.482,4.482,0,0,1,.124-.638l-1.9-.355A14.958,14.958,0,0,1,6.754-9.7a14.528,14.528,0,0,0-.815-2.251l-1.188.567a10.132,10.132,0,0,1,.815,2.641l1.028-.5a7.348,7.348,0,0,1-.94,1.773,11.208,11.208,0,0,1,1.6.993c-.124-.018-.16-.018-.284-.035v1.914A14.692,14.692,0,0,1,8.934-4.7h1.6V-.94H7.711a16.032,16.032,0,0,1-2.092-.106v2A14.42,14.42,0,0,1,7.711.833h7.126a14.324,14.324,0,0,1,2.074.124v-2a15.917,15.917,0,0,1-2.074.106H12.426V-4.7h1.755a13.249,13.249,0,0,1,1.932.106V-6.506a13.328,13.328,0,0,1-1.914.089H12.426v-3.1h2.092a16.275,16.275,0,0,1,1.932.106V-11.38a12.549,12.549,0,0,1-1.95.106H12.426v-1.773a11.77,11.77,0,0,1,.124-1.879H10.405a11.92,11.92,0,0,1,.124,1.879v1.773ZM10.53-9.519v3.1H8.668c-.567,0-.957-.018-1.347-.053A13.206,13.206,0,0,0,8.6-9.519ZM1.861-6.328a22.185,22.185,0,0,0,.656-4.963l-1.436-.177A15.91,15.91,0,0,1,.443-6.86Zm2.96,7.8A17.2,17.2,0,0,1,4.715-.62V-13.1a14.364,14.364,0,0,1,.106-1.879H2.694A11.77,11.77,0,0,1,2.819-13.1V-.762a16.926,16.926,0,0,1-.124,2.234Z" transform="translate(5013.666 2062.206)" fill="#fff"/>
        <path id="パス_663" data-name="パス 663" d="M-48.719-5.566a10.561,10.561,0,0,1,1.152-.106c.355-.035.9-.071,1.666-.124V-.372a13.036,13.036,0,0,1-.106,1.9h1.95a13.035,13.035,0,0,1-.106-1.9V-5.956c.319-.018.727-.071,1.259-.124.071.284.106.425.195.833l1.489-.62a26.627,26.627,0,0,0-1.4-3.457l-1.329.532a9.692,9.692,0,0,1,.514,1.205c-.9.106-.975.106-2.021.16a46.3,46.3,0,0,0,3-3.988,7.346,7.346,0,0,1,.585-.815l-1.631-.94a20.221,20.221,0,0,1-1.914,3.1c-.248-.319-.443-.532-.745-.886a23.842,23.842,0,0,0,1.649-2.712c.195-.355.266-.479.372-.638L-45.83-15A12.968,12.968,0,0,1-47.3-12.125c-.177-.213-.284-.319-.532-.62l-1.01,1.471a16.451,16.451,0,0,1,2.429,2.624c-.355.461-.425.55-1.028,1.294-.408.018-.585.018-.709.018a4.66,4.66,0,0,1-.762-.053ZM-35-10.459a49.128,49.128,0,0,1-.567,8.544C-35.779-.815-35.974-.6-36.771-.6a13.781,13.781,0,0,1-2.322-.23,7.251,7.251,0,0,1,.5,1.985c.638.053,1.188.071,1.649.071A3.791,3.791,0,0,0-34.68.762c.585-.461.9-1.436,1.188-3.474.195-1.454.39-4.538.408-6.559A22.59,22.59,0,0,1-33-12.355a9.714,9.714,0,0,1-1.454.071h-3.864c.213-.55.284-.762.514-1.489a6.078,6.078,0,0,1,.23-.727l-1.985-.355a11.418,11.418,0,0,1-.638,2.234,11.475,11.475,0,0,1-2.092,3.528,5.169,5.169,0,0,1,1.418,1.436,12.36,12.36,0,0,0,1.773-2.8Zm-13.171,5.5A16.651,16.651,0,0,1-49-.195l1.578.727a19.7,19.7,0,0,0,.869-5.247Zm4.68.248A41.571,41.571,0,0,1-42.816-.16L-41.2-.55a43.8,43.8,0,0,0-.851-4.52Zm6.913.762A20.308,20.308,0,0,0-38.757-8.4l-1.542.851a19.5,19.5,0,0,1,2.021,4.5ZM-25.876-10a1.555,1.555,0,0,0-1.264-.528,1.541,1.541,0,0,0-1.532.84,4.164,4.164,0,0,0-.277,1.541h-2.4a6.063,6.063,0,0,1,.58-2.588,3.612,3.612,0,0,1,3.505-1.878,4.445,4.445,0,0,1,3.168,1.1,3.816,3.816,0,0,1,1.177,2.921,3.955,3.955,0,0,1-.831,2.475,8.278,8.278,0,0,1-1.792,1.6l-.987.7q-.926.658-1.268.952a2.79,2.79,0,0,0-.576.684h5.479V0h-8.595a5.9,5.9,0,0,1,.58-2.467,6.974,6.974,0,0,1,2.493-2.657A18.281,18.281,0,0,0-26.2-6.872a2.584,2.584,0,0,0,.77-1.8A1.994,1.994,0,0,0-25.876-10Zm9.859,0a1.555,1.555,0,0,0-1.264-.528,1.541,1.541,0,0,0-1.532.84,4.164,4.164,0,0,0-.277,1.541h-2.4a6.063,6.063,0,0,1,.58-2.588A3.612,3.612,0,0,1-17.4-12.611a4.445,4.445,0,0,1,3.168,1.1,3.816,3.816,0,0,1,1.177,2.921,3.955,3.955,0,0,1-.831,2.475,8.278,8.278,0,0,1-1.792,1.6l-.987.7q-.926.658-1.268.952a2.79,2.79,0,0,0-.576.684h5.479V0h-8.595a5.9,5.9,0,0,1,.58-2.467,6.974,6.974,0,0,1,2.493-2.657,18.281,18.281,0,0,0,2.207-1.748,2.584,2.584,0,0,0,.77-1.8A1.994,1.994,0,0,0-16.017-10ZM-7.6-6.232a2.413,2.413,0,0,0-.779.113,1.548,1.548,0,0,0-.874.77l-2.216-.1.883-6.933h6.916v2.095H-8.8l-.45,2.744a5.157,5.157,0,0,1,.892-.493,3.774,3.774,0,0,1,1.307-.2A3.926,3.926,0,0,1-4.332-7.193a3.9,3.9,0,0,1,1.16,3.047A4.78,4.78,0,0,1-4.289-1.039,4.06,4.06,0,0,1-7.63.329a4.438,4.438,0,0,1-2.943-.961,3.733,3.733,0,0,1-1.281-2.726H-9.4a2.381,2.381,0,0,0,.563,1.242,1.594,1.594,0,0,0,1.212.437,1.635,1.635,0,0,0,1.4-.645,2.642,2.642,0,0,0,.48-1.623,2.819,2.819,0,0,0-.45-1.623A1.576,1.576,0,0,0-7.6-6.232ZM1.069.883a2.5,2.5,0,0,1-.58,1.108,2.988,2.988,0,0,1-1.078.757A2.79,2.79,0,0,1-1.441,3V2.051A1.934,1.934,0,0,0-.346,1.359,2.555,2.555,0,0,0,.056,0h-1.5V-2.579H1.225V-.346A5.2,5.2,0,0,1,1.069.883ZM7.344.312A3.551,3.551,0,0,1,3.982-1.368a9.715,9.715,0,0,1-.965-4.787,9.767,9.767,0,0,1,.965-4.8,3.546,3.546,0,0,1,3.363-1.688,3.556,3.556,0,0,1,3.367,1.688,9.8,9.8,0,0,1,.961,4.8,9.715,9.715,0,0,1-.965,4.787A3.551,3.551,0,0,1,7.344.312ZM8.79-2.848a12.349,12.349,0,0,0,.338-3.306,12.113,12.113,0,0,0-.342-3.358A1.4,1.4,0,0,0,7.344-10.6,1.417,1.417,0,0,0,5.89-9.512a11.69,11.69,0,0,0-.355,3.358A11.822,11.822,0,0,0,5.89-2.843,1.429,1.429,0,0,0,7.344-1.7,1.417,1.417,0,0,0,8.79-2.848ZM17.2.312A3.551,3.551,0,0,1,13.84-1.368a9.715,9.715,0,0,1-.965-4.787,9.767,9.767,0,0,1,.965-4.8A3.546,3.546,0,0,1,17.2-12.637a3.556,3.556,0,0,1,3.367,1.688,9.8,9.8,0,0,1,.961,4.8,9.715,9.715,0,0,1-.965,4.787A3.551,3.551,0,0,1,17.2.312Zm1.445-3.159a12.349,12.349,0,0,0,.338-3.306,12.113,12.113,0,0,0-.342-3.358A1.4,1.4,0,0,0,17.2-10.6a1.417,1.417,0,0,0-1.454,1.091,11.69,11.69,0,0,0-.355,3.358,11.822,11.822,0,0,0,.355,3.311A1.429,1.429,0,0,0,17.2-1.7,1.417,1.417,0,0,0,18.648-2.848ZM27.062.312A3.551,3.551,0,0,1,23.7-1.368a9.715,9.715,0,0,1-.965-4.787,9.767,9.767,0,0,1,.965-4.8,3.546,3.546,0,0,1,3.363-1.688,3.556,3.556,0,0,1,3.367,1.688,9.8,9.8,0,0,1,.961,4.8,9.715,9.715,0,0,1-.965,4.787A3.551,3.551,0,0,1,27.062.312Zm1.445-3.159a12.349,12.349,0,0,0,.338-3.306A12.113,12.113,0,0,0,28.5-9.512,1.4,1.4,0,0,0,27.062-10.6a1.417,1.417,0,0,0-1.454,1.091,11.69,11.69,0,0,0-.355,3.358,11.822,11.822,0,0,0,.355,3.311A1.429,1.429,0,0,0,27.062-1.7,1.417,1.417,0,0,0,28.507-2.848ZM35.637-5.5H46.184V-1.17c0,.425-.106.479-.8.479-.638,0-1.524-.071-2.694-.195a6.821,6.821,0,0,1,.55,1.914c.691.035,1.666.071,2.358.071A4.36,4.36,0,0,0,47.461.851c.514-.266.727-.762.727-1.666V-12.178a17.446,17.446,0,0,1,.071-1.932,16.25,16.25,0,0,1-1.932.071H35.548a19.044,19.044,0,0,1-1.968-.071,15.272,15.272,0,0,1,.071,1.7V-.815a16.838,16.838,0,0,1-.106,2.127h2.18a13.03,13.03,0,0,1-.089-2.056Zm4.2-1.861h-4.2v-4.8h4.2Zm1.914,0v-4.8h4.432v4.8Z" transform="translate(5086.608 2062.206)" fill="#fff"/>
      </g>
      <g id="グループ_7" data-name="グループ 7">
        <path id="パス_665" data-name="パス 665" d="M-1.152-.248A41.435,41.435,0,0,0-6.311-3.51,13.266,13.266,0,0,0-3.776-9.324H-2.8a16.469,16.469,0,0,1,2.039.106v-2.056a16.221,16.221,0,0,1-2.092.106h-6.63c.284-.762.461-1.276.745-2.145A11.339,11.339,0,0,1-8.3-14.553l-2.3-.319a20,20,0,0,1-1.117,3.7h-3.014a17.2,17.2,0,0,1-2.092-.106v2.056a16.412,16.412,0,0,1,2.092-.106h2.216a21.927,21.927,0,0,1-3.067,4.875A17.466,17.466,0,0,1-13.6-3.6c.3-.425.337-.479.62-.869A31.815,31.815,0,0,1-9.59-3a13.7,13.7,0,0,1-2.889,1.489,15.047,15.047,0,0,1-4.361.922,7.133,7.133,0,0,1,.94,1.914A18.683,18.683,0,0,0-11.54.266,12.383,12.383,0,0,0-7.711-2,34.346,34.346,0,0,1-2.57,1.454Zm-4.7-9.076A10.441,10.441,0,0,1-8.1-4.432,34.384,34.384,0,0,0-11.948-6.08a28.776,28.776,0,0,0,1.7-3.244Zm14.873-1.95c.089-.461.213-1.188.266-1.524a4.482,4.482,0,0,1,.124-.638l-1.9-.355A14.958,14.958,0,0,1,6.754-9.7a14.528,14.528,0,0,0-.815-2.251l-1.188.567a10.132,10.132,0,0,1,.815,2.641l1.028-.5a7.348,7.348,0,0,1-.94,1.773,11.208,11.208,0,0,1,1.6.993c-.124-.018-.16-.018-.284-.035v1.914A14.692,14.692,0,0,1,8.934-4.7h1.6V-.94H7.711a16.032,16.032,0,0,1-2.092-.106v2A14.42,14.42,0,0,1,7.711.833h7.126a14.324,14.324,0,0,1,2.074.124v-2a15.917,15.917,0,0,1-2.074.106H12.426V-4.7h1.755a13.249,13.249,0,0,1,1.932.106V-6.506a13.328,13.328,0,0,1-1.914.089H12.426v-3.1h2.092a16.275,16.275,0,0,1,1.932.106V-11.38a12.549,12.549,0,0,1-1.95.106H12.426v-1.773a11.77,11.77,0,0,1,.124-1.879H10.405a11.92,11.92,0,0,1,.124,1.879v1.773ZM10.53-9.519v3.1H8.668c-.567,0-.957-.018-1.347-.053A13.206,13.206,0,0,0,8.6-9.519ZM1.861-6.328a22.185,22.185,0,0,0,.656-4.963l-1.436-.177A15.91,15.91,0,0,1,.443-6.86Zm2.96,7.8A17.2,17.2,0,0,1,4.715-.62V-13.1a14.364,14.364,0,0,1,.106-1.879H2.694A11.77,11.77,0,0,1,2.819-13.1V-.762a16.926,16.926,0,0,1-.124,2.234Z" transform="translate(5175.329 2062.206)" fill="#fff"/>
        <path id="パス_666" data-name="パス 666" d="M-48.719-5.566a10.561,10.561,0,0,1,1.152-.106c.355-.035.9-.071,1.666-.124V-.372a13.036,13.036,0,0,1-.106,1.9h1.95a13.035,13.035,0,0,1-.106-1.9V-5.956c.319-.018.727-.071,1.259-.124.071.284.106.425.195.833l1.489-.62a26.627,26.627,0,0,0-1.4-3.457l-1.329.532a9.692,9.692,0,0,1,.514,1.205c-.9.106-.975.106-2.021.16a46.3,46.3,0,0,0,3-3.988,7.346,7.346,0,0,1,.585-.815l-1.631-.94a20.221,20.221,0,0,1-1.914,3.1c-.248-.319-.443-.532-.745-.886a23.842,23.842,0,0,0,1.649-2.712c.195-.355.266-.479.372-.638L-45.83-15A12.968,12.968,0,0,1-47.3-12.125c-.177-.213-.284-.319-.532-.62l-1.01,1.471a16.451,16.451,0,0,1,2.429,2.624c-.355.461-.425.55-1.028,1.294-.408.018-.585.018-.709.018a4.66,4.66,0,0,1-.762-.053ZM-35-10.459a49.128,49.128,0,0,1-.567,8.544C-35.779-.815-35.974-.6-36.771-.6a13.781,13.781,0,0,1-2.322-.23,7.251,7.251,0,0,1,.5,1.985c.638.053,1.188.071,1.649.071A3.791,3.791,0,0,0-34.68.762c.585-.461.9-1.436,1.188-3.474.195-1.454.39-4.538.408-6.559A22.59,22.59,0,0,1-33-12.355a9.714,9.714,0,0,1-1.454.071h-3.864c.213-.55.284-.762.514-1.489a6.078,6.078,0,0,1,.23-.727l-1.985-.355a11.418,11.418,0,0,1-.638,2.234,11.475,11.475,0,0,1-2.092,3.528,5.169,5.169,0,0,1,1.418,1.436,12.36,12.36,0,0,0,1.773-2.8Zm-13.171,5.5A16.651,16.651,0,0,1-49-.195l1.578.727a19.7,19.7,0,0,0,.869-5.247Zm4.68.248A41.571,41.571,0,0,1-42.816-.16L-41.2-.55a43.8,43.8,0,0,0-.851-4.52Zm6.913.762A20.308,20.308,0,0,0-38.757-8.4l-1.542.851a19.5,19.5,0,0,1,2.021,4.5ZM-25.876-10a1.555,1.555,0,0,0-1.264-.528,1.541,1.541,0,0,0-1.532.84,4.164,4.164,0,0,0-.277,1.541h-2.4a6.063,6.063,0,0,1,.58-2.588,3.612,3.612,0,0,1,3.505-1.878,4.445,4.445,0,0,1,3.168,1.1,3.816,3.816,0,0,1,1.177,2.921,3.955,3.955,0,0,1-.831,2.475,8.278,8.278,0,0,1-1.792,1.6l-.987.7q-.926.658-1.268.952a2.79,2.79,0,0,0-.576.684h5.479V0h-8.595a5.9,5.9,0,0,1,.58-2.467,6.974,6.974,0,0,1,2.493-2.657A18.281,18.281,0,0,0-26.2-6.872a2.584,2.584,0,0,0,.77-1.8A1.994,1.994,0,0,0-25.876-10ZM-12.91-4.631V-2.7h-1.42V0h-2.415V-2.7h-4.968V-4.856l4.613-7.617h2.77v7.842Zm-6.976,0h3.142v-5.418ZM-5.613,0H-8.141V-8.656h-2.952v-1.679a10.934,10.934,0,0,0,1.636-.156,2.307,2.307,0,0,0,1.212-.658,2.166,2.166,0,0,0,.485-.9,2.066,2.066,0,0,0,.1-.5h2.051ZM1.069.883a2.5,2.5,0,0,1-.58,1.108,2.988,2.988,0,0,1-1.078.757A2.79,2.79,0,0,1-1.441,3V2.051A1.934,1.934,0,0,0-.346,1.359,2.555,2.555,0,0,0,.056,0h-1.5V-2.579H1.225V-.346A5.2,5.2,0,0,1,1.069.883ZM7.344.312A3.551,3.551,0,0,1,3.982-1.368a9.715,9.715,0,0,1-.965-4.787,9.767,9.767,0,0,1,.965-4.8,3.546,3.546,0,0,1,3.363-1.688,3.556,3.556,0,0,1,3.367,1.688,9.8,9.8,0,0,1,.961,4.8,9.715,9.715,0,0,1-.965,4.787A3.551,3.551,0,0,1,7.344.312ZM8.79-2.848a12.349,12.349,0,0,0,.338-3.306,12.113,12.113,0,0,0-.342-3.358A1.4,1.4,0,0,0,7.344-10.6,1.417,1.417,0,0,0,5.89-9.512a11.69,11.69,0,0,0-.355,3.358A11.822,11.822,0,0,0,5.89-2.843,1.429,1.429,0,0,0,7.344-1.7,1.417,1.417,0,0,0,8.79-2.848ZM17.2.312A3.551,3.551,0,0,1,13.84-1.368a9.715,9.715,0,0,1-.965-4.787,9.767,9.767,0,0,1,.965-4.8A3.546,3.546,0,0,1,17.2-12.637a3.556,3.556,0,0,1,3.367,1.688,9.8,9.8,0,0,1,.961,4.8,9.715,9.715,0,0,1-.965,4.787A3.551,3.551,0,0,1,17.2.312Zm1.445-3.159a12.349,12.349,0,0,0,.338-3.306,12.113,12.113,0,0,0-.342-3.358A1.4,1.4,0,0,0,17.2-10.6a1.417,1.417,0,0,0-1.454,1.091,11.69,11.69,0,0,0-.355,3.358,11.822,11.822,0,0,0,.355,3.311A1.429,1.429,0,0,0,17.2-1.7,1.417,1.417,0,0,0,18.648-2.848ZM27.062.312A3.551,3.551,0,0,1,23.7-1.368a9.715,9.715,0,0,1-.965-4.787,9.767,9.767,0,0,1,.965-4.8,3.546,3.546,0,0,1,3.363-1.688,3.556,3.556,0,0,1,3.367,1.688,9.8,9.8,0,0,1,.961,4.8,9.715,9.715,0,0,1-.965,4.787A3.551,3.551,0,0,1,27.062.312Zm1.445-3.159a12.349,12.349,0,0,0,.338-3.306A12.113,12.113,0,0,0,28.5-9.512,1.4,1.4,0,0,0,27.062-10.6a1.417,1.417,0,0,0-1.454,1.091,11.69,11.69,0,0,0-.355,3.358,11.822,11.822,0,0,0,.355,3.311A1.429,1.429,0,0,0,27.062-1.7,1.417,1.417,0,0,0,28.507-2.848ZM35.637-5.5H46.184V-1.17c0,.425-.106.479-.8.479-.638,0-1.524-.071-2.694-.195a6.821,6.821,0,0,1,.55,1.914c.691.035,1.666.071,2.358.071A4.36,4.36,0,0,0,47.461.851c.514-.266.727-.762.727-1.666V-12.178a17.446,17.446,0,0,1,.071-1.932,16.25,16.25,0,0,1-1.932.071H35.548a19.044,19.044,0,0,1-1.968-.071,15.272,15.272,0,0,1,.071,1.7V-.815a16.838,16.838,0,0,1-.106,2.127h2.18a13.03,13.03,0,0,1-.089-2.056Zm4.2-1.861h-4.2v-4.8h4.2Zm1.914,0v-4.8h4.432v4.8Z" transform="translate(5248.271 2062.206)" fill="#fff"/>
      </g>
      <path id="線_5" data-name="線 5" d="M252.062.5H0A.5.5,0,0,1-.5,0,.5.5,0,0,1,0-.5H252.062a.5.5,0,0,1,.5.5A.5.5,0,0,1,252.062.5Z" transform="translate(5022.413 2036.064)" fill="#fff"/>
    </g>
    <path id="線_6" data-name="線 6" d="M104,1.76H0A1.76,1.76,0,0,1-1.76,0,1.76,1.76,0,0,1,0-1.76H104A1.76,1.76,0,0,1,105.76,0,1.76,1.76,0,0,1,104,1.76Z" transform="translate(5034.872 2068.113)" fill="#fbd83b"/>
    <path id="線_7" data-name="線 7" d="M104,1.76H0A1.76,1.76,0,0,1-1.76,0,1.76,1.76,0,0,1,0-1.76H104A1.76,1.76,0,0,1,105.76,0,1.76,1.76,0,0,1,104,1.76Z" transform="translate(5195.872 2068.113)" fill="#fbd83b"/>
  </g>
</svg>
